<svg width="512" height="512" viewBox="0 0 512 512" fill="none" xmlns="http://www.w3.org/2000/svg">
<g opacity="0.1">
<path d="M503.839 395.378L308.139 56.4165C297.257 37.5685 277.766 26.3145 256 26.3145C234.235 26.3145 214.743 37.5685 203.861 56.4165L8.16225 395.377C-2.72075 414.227 -2.72075 436.733 8.16225 455.582C19.0453 474.431 38.5352 485.684 60.3013 485.684H451.699C473.464 485.684 492.955 474.43 503.839 455.583C514.722 436.733 514.722 414.227 503.839 395.378ZM477.861 440.585C472.4 450.043 462.62 455.689 451.699 455.689H60.3013C49.3793 455.689 39.5993 450.043 34.1393 440.585C28.6793 431.127 28.6793 419.835 34.1393 410.377L229.84 71.4155C235.3 61.9575 245.08 56.3115 256.001 56.3115C266.921 56.3115 276.702 61.9575 282.162 71.4155L477.862 410.377C483.321 419.835 483.321 431.127 477.861 440.585Z" fill="#6F6F6F"/>
<path d="M270.997 176.009H241.001V325.991H270.997V176.009Z" fill="#6F6F6F"/>
<path d="M256 355.989C244.973 355.989 236.002 364.96 236.002 375.987C236.002 387.014 244.973 395.985 256 395.985C267.026 395.985 275.998 387.014 275.998 375.987C275.998 364.96 267.027 355.989 256 355.989Z" fill="#6F6F6F"/>
</g>
</svg>