<?xml version="1.0" encoding="UTF-8"?>
<svg width="512px" height="454px" viewBox="0 0 512 454" version="1.1" xmlns="http://www.w3.org/2000/svg" xmlns:xlink="http://www.w3.org/1999/xlink">
    <!-- Generator: Sketch 63.1 (92452) - https://sketch.com -->
    <title>warning</title>
    <desc>Created with Sketch.</desc>
    <g id="V2-Copy" stroke="none" stroke-width="1" fill="none" fill-rule="evenodd" opacity="0.104282924">
        <g id="404" transform="translate(-427.000000, -104.000000)" fill="#6F6F6F" fill-rule="nonzero">
            <g id="warning" transform="translate(427.000000, 104.000000)">
                <path d="M507.113,399.415 L287.215,18.541 C280.7,7.256 269.031,0.519 256,0.519 C242.969,0.519 231.3,7.256 224.785,18.541 L4.887,399.415 C-1.629,410.7 -1.629,424.175 4.887,435.459 C11.402,446.744 23.071,453.481 36.102,453.481 L475.898,453.481 C488.929,453.481 500.598,446.744 507.113,435.459 C513.629,424.175 513.629,410.7 507.113,399.415 Z M481.101,420.441 C480.454,421.563 478.915,423.445 475.899,423.445 L36.102,423.445 C33.084,423.445 31.546,421.564 30.9,420.441 C30.253,419.32 29.391,417.047 30.9,414.434 L250.797,33.559 C252.306,30.946 254.704,30.555 255.999,30.555 C257.295,30.555 259.693,30.945 261.201,33.559 L481.1,414.434 C482.61,417.047 481.748,419.32 481.101,420.441 Z" id="Shape"></path>
                <rect id="Rectangle" x="240.987" y="137.095" width="30.037" height="160.197"></rect>
                <circle id="Oval" cx="256.005" cy="347.354" r="20.025"></circle>
            </g>
        </g>
    </g>
</svg>