<svg width="400" height="285" viewBox="0 0 400 285" fill="none" xmlns="http://www.w3.org/2000/svg">
<path fill-rule="evenodd" clip-rule="evenodd" d="M161.672 119.21V150.199C161.672 158.461 155.36 165.173 147.599 165.173H122.943C115.326 165.173 109 158.461 109 150.199V146.065H121.021C123.476 146.065 124.637 146.97 124.637 149.551V150.199C124.637 153.04 126.702 156.266 129.802 156.266H140.905C144.005 156.266 146.07 153.04 146.07 150.199V124.761C146.07 121.661 147.473 119.21 150.846 119.21H161.672ZM163.997 165.17H175.359C176.649 165.17 178.329 164.009 179.104 162.845L195.888 135.734C196.273 135.089 196.792 134.699 197.438 134.699C198.083 134.699 198.598 135.215 198.988 135.734L205.573 146.191C206.348 147.482 205.833 148.127 204.283 148.127H195.109C193.819 148.127 192.009 149.161 191.364 150.452C190.589 151.742 189.814 153.163 189.039 154.453C188.004 156.133 188.394 157.423 190.329 157.423H209.967C212.033 157.423 212.808 157.939 213.825 159.619L215.761 162.845C216.536 164.006 218.215 165.17 219.506 165.17H230.868C232.271 165.17 232.674 164.009 231.902 162.845L207.246 121.535C206.471 120.244 204.791 119.21 203.501 119.21H191.367C190.077 119.21 188.397 120.244 187.622 121.535L162.962 162.845C162.187 164.009 162.577 165.17 163.997 165.17V165.17ZM249.72 135.993C253.851 128.377 264.179 126.174 271.925 133.023C272.7 133.668 272.96 134.314 273.991 134.314H288.064C289.743 134.314 290.774 133.798 291.034 132.764C291.293 132.118 291.034 131.214 290.129 130.309C284.192 123.078 275.671 118.691 263.923 118.035C251.141 117.52 237.587 122.682 231.66 133.528C228.95 138.564 228.95 145.662 231.66 150.711C237.597 161.554 251.155 166.843 263.923 166.204C273.346 165.689 280.706 162.848 286.387 157.942C288.193 156.392 289.614 154.586 291.164 152.777C292.068 151.742 292.068 150.841 291.939 150.196C291.679 149.291 290.536 148.793 288.968 148.793H274.889C273.598 148.793 272.048 151.374 270.887 152.149C269.485 153.31 268.177 154.215 266.627 154.73C260.041 156.925 252.95 154.215 249.713 148.274C248.695 146.387 248.162 144.277 248.163 142.133C248.165 139.989 248.7 137.879 249.72 135.993Z" fill="black"/>
</svg>
