<svg width="400" height="285" viewBox="0 0 400 285" fill="none" xmlns="http://www.w3.org/2000/svg">
<path d="M159.086 144.94V152.06H167.728V158.119H152.033V126.695H167.298V132.755H159.086V138.881H166.305V144.94H159.086Z" fill="black"/>
<path d="M184.451 141.364C186.669 141.828 188.358 143.815 188.358 146.166V155.073C188.358 156.629 188.623 157.854 189.02 158.152H182.1C181.735 157.854 181.437 156.629 181.437 155.073V146.464C181.437 145.238 180.444 144.245 179.219 144.245H176.636V138.914H179.451C180.212 138.914 180.908 138.45 181.206 137.788C181.47 137.192 181.603 136.331 181.603 135.371C181.603 134.543 181.504 133.748 181.305 133.185C181.04 132.49 180.312 131.993 179.55 131.993H177.497V158.119H170.51V126.662H182.232C185.113 126.662 187.795 128.815 188.259 131.53C188.391 132.358 188.457 133.285 188.457 134.212C188.457 135.205 188.358 136.166 188.225 137.027C187.861 139.113 186.404 140.735 184.451 141.364Z" fill="black"/>
<path d="M201.769 145.801C206.305 145.801 208.722 143.55 209.252 140.172C209.484 138.715 209.55 137.589 209.55 136.199C209.55 134.245 209.484 133.02 209.153 131.563C208.524 128.848 205.974 126.695 203.126 126.695H191.47V158.152H198.457V132.424H200.212C201.57 132.424 202.232 133.219 202.431 134.278C202.53 134.874 202.53 135.57 202.53 136.232C202.53 136.96 202.53 137.788 202.398 138.384C202.199 139.411 201.272 140.205 200.179 140.205H197.563V145.801H201.769Z" fill="black"/>
<path d="M218.49 126.695H211.504V158.152H218.49V126.695Z" fill="black"/>
<path d="M229.219 152.258H236.338V158.152H222.232V126.695H229.219V152.258Z" fill="black"/>
<path d="M289.616 141.364C291.835 141.828 293.524 143.815 293.524 146.166V155.073C293.524 156.629 293.789 157.854 294.186 158.152H287.265C286.901 157.854 286.603 156.629 286.603 155.073V146.464C286.603 145.238 285.61 144.245 284.385 144.245H281.802V138.947H284.616C285.378 138.947 286.073 138.483 286.371 137.821C286.636 137.225 286.769 136.364 286.769 135.404C286.769 134.576 286.669 133.781 286.471 133.219C286.206 132.523 285.477 132.027 284.716 132.027H282.696V158.152H275.709V126.695H287.431C290.312 126.695 292.994 128.848 293.458 131.563C293.59 132.391 293.656 133.318 293.656 134.245C293.656 135.238 293.557 136.199 293.424 137.06C293.06 139.113 291.57 140.768 289.616 141.364Z" fill="black"/>
<path d="M266.504 158.152H273.855L268.193 126.695H258.921L253.159 158.152H260.146L263.59 132.027L265.246 147.192H260.808L259.914 152.821H265.842L266.504 158.152Z" fill="black"/>
<path d="M245.047 152.258H251.934V158.152H238.093V126.695H245.047V152.258Z" fill="black"/>
<path d="M108.093 158.119L125.411 144.576L141.272 158.119H108.093Z" fill="black"/>
<path d="M108.093 158.119L125.411 144.576L141.272 158.119H108.093Z" fill="black"/>
<path d="M104.98 152.623C104.351 152.424 103.854 151.795 103.854 151.265V132.788C103.987 132.06 104.318 131.629 104.98 131.43V131.397C105.113 131.364 105.278 131.364 105.444 131.364C105.576 131.364 105.742 131.364 105.874 131.397C106.603 131.497 107.166 132.06 107.166 132.788V139.444H113.821V132.49C113.623 129.411 111.702 127.159 108.722 126.364C107.695 126.099 106.702 126 105.477 126C104.318 126 103.325 126.099 102.166 126.364C99.4172 126.96 97.1656 129.344 97 132.523V151.861C97 155.272 99.7484 158.119 103.159 158.186H105.477L112.464 152.689C113.126 152.192 113.821 151.133 113.821 149.974V144.676H107.166V151.166C107.166 151.894 106.57 152.556 105.841 152.656C105.709 152.689 105.576 152.689 105.411 152.689C105.278 152.689 105.113 152.656 104.98 152.623Z" fill="black"/>
<path d="M124.649 141.762L135.775 151.265L130.013 126.695H120.543L115.146 150.536L125.576 142.391H127.96V140.967H123.556L125.344 132.159L127.331 141.762H124.649Z" fill="black"/>
<path d="M150.08 126.695V132.854H145.576V158.119H143.854L138.358 153.45V132.854H133.888V126.695H150.08Z" fill="black"/>
<path fill-rule="evenodd" clip-rule="evenodd" d="M299.683 126.328C297.324 126.328 295.375 128.238 295.375 130.636C295.375 132.998 297.321 134.944 299.683 134.944C302.042 134.944 303.991 133.034 303.991 130.636C303.991 128.277 302.081 126.328 299.683 126.328ZM296.375 130.636C296.375 128.796 297.87 127.328 299.683 127.328C301.523 127.328 302.991 128.823 302.991 130.636C302.991 132.476 301.496 133.944 299.683 133.944C297.873 133.944 296.375 132.446 296.375 130.636ZM298.126 132.988H298.954V131.101H299.848C300.138 131.133 300.177 131.448 300.21 131.709C300.211 131.716 300.211 131.723 300.212 131.73C300.215 131.758 300.217 131.786 300.219 131.815C300.25 132.188 300.283 132.586 300.345 132.955H301.272C301.128 132.724 301.084 132.292 301.053 131.987C301.049 131.942 301.044 131.9 301.04 131.862C301.031 131.803 301.022 131.746 301.014 131.691C300.935 131.155 300.882 130.793 300.312 130.703C300.808 130.604 301.139 130.207 301.139 129.611C301.139 128.683 300.444 128.419 299.782 128.419H298.126V132.988ZM299.649 130.405H298.954V129.18H299.649C300.014 129.213 300.245 129.379 300.245 129.776C300.245 130.173 300.014 130.405 299.649 130.405Z" fill="black"/>
</svg>
