<svg width="207" height="33" viewBox="0 0 207 33" fill="none" xmlns="http://www.w3.org/2000/svg">
<path d="M62.086 18.9403V26.0595H70.7284V32.1192H55.033V0.695237H70.298V6.75485H62.086V12.8807H69.3046V18.9403H62.086Z" fill="black"/>
<path d="M87.4506 15.3643C89.6691 15.8279 91.3579 17.8146 91.3579 20.1656V29.0729C91.3579 30.6292 91.6228 31.8544 92.0201 32.1524H85.0996C84.7353 31.8544 84.4373 30.6292 84.4373 29.0729V20.4636C84.4373 19.2385 83.444 18.2451 82.2188 18.2451H79.636V12.9139H82.4506C83.2122 12.9139 83.9075 12.4504 84.2055 11.7881C84.4704 11.1921 84.6029 10.3312 84.6029 9.37089C84.6029 8.54308 84.5036 7.74837 84.3049 7.18546C84.04 6.49009 83.3115 5.9934 82.5499 5.9934H80.4969V32.1193H73.5101V0.662254H85.232C88.1128 0.662254 90.795 2.81458 91.2585 5.52982C91.391 6.35764 91.4572 7.2848 91.4572 8.21195C91.4572 9.20533 91.3579 10.1656 91.2254 11.0265C90.8612 13.1126 89.4042 14.7351 87.4506 15.3643Z" fill="black"/>
<path d="M104.769 19.8014C109.305 19.8014 111.722 17.5497 112.252 14.1722C112.484 12.7153 112.55 11.5894 112.55 10.1987C112.55 8.24506 112.484 7.01989 112.153 5.56294C111.524 2.8477 108.974 0.695368 106.126 0.695368H94.4705V32.1524H101.457V6.42386H103.212C104.57 6.42386 105.232 7.21856 105.431 8.27817C105.53 8.8742 105.53 9.56956 105.53 10.2318C105.53 10.9603 105.53 11.7881 105.398 12.3841C105.199 13.4106 104.272 14.2053 103.179 14.2053H100.563V19.8014H104.769Z" fill="black"/>
<path d="M121.49 0.695368H114.504V32.1524H121.49V0.695368Z" fill="black"/>
<path d="M132.219 26.2584H139.338V32.1524H125.232V0.695368H132.219V26.2584Z" fill="black"/>
<path d="M192.616 15.3643C194.835 15.8279 196.524 17.8146 196.524 20.1656V29.0729C196.524 30.6292 196.789 31.8544 197.186 32.1524H190.265C189.901 31.8544 189.603 30.6292 189.603 29.0729V20.4636C189.603 19.2385 188.61 18.2451 187.385 18.2451H184.802V12.9471H187.616C188.378 12.9471 189.073 12.4835 189.371 11.8212C189.636 11.2252 189.769 10.3643 189.769 9.404C189.769 8.57618 189.669 7.78149 189.471 7.21857C189.206 6.5232 188.477 6.02651 187.716 6.02651H185.696V32.1524H178.709V0.695368H190.431C193.312 0.695368 195.994 2.8477 196.458 5.56294C196.59 6.39075 196.656 7.3179 196.656 8.24506C196.656 9.23843 196.557 10.1987 196.424 11.0596C196.06 13.1126 194.57 14.7683 192.616 15.3643Z" fill="black"/>
<path d="M169.504 32.1524H176.855L171.193 0.695368H161.921L156.159 32.1524H163.146L166.59 6.02651L168.246 21.1921H163.808L162.914 26.8213H168.842L169.504 32.1524Z" fill="black"/>
<path d="M148.047 26.2584H154.934V32.1524H141.093V0.695368H148.047V26.2584Z" fill="black"/>
<path d="M11.0927 32.1193L28.4107 18.5762L44.2717 32.1193H11.0927Z" fill="black"/>
<path d="M11.0927 32.1193L28.4107 18.5762L44.2717 32.1193H11.0927Z" fill="black"/>
<path d="M7.98016 26.6226C7.35101 26.4239 6.85432 25.7948 6.85432 25.265V6.7881C6.98677 6.05962 7.3179 5.62915 7.98016 5.43048V5.39737C8.11261 5.36426 8.27817 5.36426 8.44373 5.36426C8.57618 5.36426 8.74175 5.36426 8.8742 5.39737C9.60268 5.49671 10.1656 6.05962 10.1656 6.7881V13.4437H16.8212V6.49009C16.6226 3.41061 14.702 1.15895 11.7219 0.364241C10.6954 0.0993401 9.70201 0 8.47685 0C7.3179 0 6.32452 0.0993401 5.16558 0.364241C2.41723 0.96027 0.165563 3.34438 0 6.5232V25.861C0 29.2716 2.74835 32.1193 6.15896 32.1855H8.47685L15.4636 26.6888C16.1259 26.1921 16.8212 25.1325 16.8212 23.9736V18.6755H10.1656V25.1656C10.1656 25.8941 9.56956 26.5564 8.84108 26.6557C8.70863 26.6888 8.57618 26.6888 8.41062 26.6888C8.27817 26.6888 8.11261 26.6557 7.98016 26.6226Z" fill="black"/>
<path d="M27.6491 15.7616L38.7749 25.265L33.0133 0.695368H23.5431L18.1457 24.5365L28.5762 16.3908H30.9604V14.9669H26.5564L28.3445 6.15896L30.3312 15.7616H27.6491Z" fill="black"/>
<path d="M53.0796 0.695368V6.85433H48.5763V32.1193H46.8544L41.3577 27.4504V6.85433H36.8875V0.695368H53.0796Z" fill="black"/>
<path fill-rule="evenodd" clip-rule="evenodd" d="M202.683 0.328125C200.324 0.328125 198.375 2.2379 198.375 4.63608C198.375 6.99832 200.321 8.94404 202.683 8.94404C205.042 8.94404 206.991 7.03426 206.991 4.63608C206.991 2.27668 205.081 0.328125 202.683 0.328125ZM199.375 4.63608C199.375 2.79584 200.87 1.32812 202.683 1.32812C204.523 1.32812 205.991 2.82329 205.991 4.63608C205.991 6.47633 204.496 7.94404 202.683 7.94404C200.873 7.94404 199.375 6.44604 199.375 4.63608ZM201.126 6.98807H201.954V5.10064H202.848C203.138 5.13287 203.177 5.44752 203.21 5.70856C203.211 5.71568 203.211 5.72276 203.212 5.72979C203.215 5.75795 203.217 5.78628 203.219 5.81475C203.25 6.18799 203.283 6.58576 203.345 6.95495H204.272C204.128 6.72401 204.084 6.29175 204.053 5.98725C204.049 5.94246 204.044 5.90044 204.04 5.86224C204.031 5.80332 204.022 5.74614 204.014 5.69081C203.935 5.15537 203.882 4.79333 203.312 4.70329C203.808 4.60395 204.139 4.2066 204.139 3.61057C204.139 2.68341 203.444 2.41852 202.782 2.41852H201.126V6.98807ZM202.649 4.40528H201.954V3.18011H202.649C203.014 3.21322 203.245 3.37878 203.245 3.77613C203.245 4.17348 203.014 4.40528 202.649 4.40528Z" fill="black"/>
</svg>
