<svg width="183" height="49" viewBox="0 0 183 49" fill="none" xmlns="http://www.w3.org/2000/svg">
<path fill-rule="evenodd" clip-rule="evenodd" d="M52.6719 1.20988V32.1993C52.6719 40.4613 46.3597 47.1733 38.5992 47.1733H13.943C6.32624 47.1733 0 40.4613 0 32.1993V28.0648H12.0213C14.476 28.0648 15.6368 28.9696 15.6368 31.5506V32.1993C15.6368 35.0398 17.7023 38.2661 20.8023 38.2661H31.9047C35.0047 38.2661 37.0702 35.0398 37.0702 32.1993V6.76112C37.0702 3.66112 38.473 1.20988 41.8465 1.20988H52.6719ZM54.9969 47.1698H66.3589C67.6494 47.1698 69.3292 46.0091 70.1042 44.8448L86.8876 17.7339C87.2734 17.0886 87.7924 16.6994 88.4376 16.6994C89.0829 16.6994 89.5984 17.2148 89.9876 17.7339L96.5734 28.1911C97.3484 29.4816 96.8329 30.1268 95.2829 30.1268H86.1091C84.8186 30.1268 83.0091 31.1613 82.3639 32.4518C81.5889 33.7423 80.8139 35.1626 80.0389 36.4531C79.0044 38.1328 79.3936 39.4233 81.3294 39.4233H100.967C103.033 39.4233 103.808 39.9388 104.825 41.6186L106.761 44.8448C107.536 46.0056 109.215 47.1698 110.506 47.1698H121.868C123.271 47.1698 123.674 46.0091 122.902 44.8448L98.2461 3.53487C97.4711 2.24438 95.7914 1.20988 94.5009 1.20988H82.3674C81.0769 1.20988 79.3971 2.24438 78.6222 3.53487L53.9624 44.8448C53.1874 46.0091 53.5767 47.1698 54.9969 47.1698ZM140.72 17.9934C144.851 10.3766 155.179 8.17436 162.925 15.0231C163.7 15.6684 163.96 16.3136 164.991 16.3136H179.064C180.743 16.3136 181.774 15.7981 182.034 14.7636C182.293 14.1184 182.034 13.2136 181.129 12.3089C175.192 5.07786 166.671 0.690872 154.923 0.0351035C142.141 -0.480394 128.587 4.6816 122.66 15.5281C119.95 20.5638 119.95 27.6616 122.66 32.7113C128.597 43.5543 142.155 48.8426 154.923 48.2043C164.346 47.6888 171.706 44.8483 177.387 39.9423C179.193 38.3923 180.614 36.5863 182.163 34.7768C183.068 33.7423 183.068 32.8411 182.939 32.1958C182.679 31.2911 181.536 30.7931 179.968 30.7931H165.889C164.598 30.7931 163.048 33.3741 161.887 34.1491C160.485 35.3099 159.177 36.2146 157.627 36.7301C151.041 38.9254 143.95 36.2146 140.713 30.2741C139.695 28.3875 139.162 26.2769 139.163 24.1329C139.165 21.9888 139.7 19.8788 140.72 17.9934Z" fill="black"/>
</svg>
