<svg width="400" height="285" viewBox="0 0 400 285" fill="none" xmlns="http://www.w3.org/2000/svg">
<path d="M307 157.028C305.456 157.028 304.145 157.028 302.834 157.028C299.279 157.028 295.696 156.998 292.142 157.057C291.471 157.057 291.18 156.852 290.947 156.235C290.044 153.916 289.082 151.597 287.946 149.336C287.946 151.861 287.946 154.415 287.946 156.998C287.48 157.028 287.13 157.057 286.81 157.057C278.011 157.057 269.242 157.057 260.444 157.087C259.628 157.087 259.22 156.881 258.929 156.088C258.084 153.828 257.122 151.597 256.044 149.366C256.044 151.89 256.044 154.386 256.044 156.998C251.528 156.998 247.129 156.998 242.643 156.998C242.643 147.399 242.643 137.828 242.643 128.17C242.788 128.14 242.905 128.082 243.05 128.082C250.392 128.082 257.705 127.935 265.047 128.17C272.738 128.405 274.632 135.832 272.534 140.294C271.485 142.525 269.679 143.817 267.29 144.551C269.621 148.309 271.922 152.008 274.224 155.707C274.282 155.707 274.341 155.677 274.428 155.677C274.428 146.518 274.428 137.388 274.428 128.199C274.719 128.14 274.865 128.052 275.04 128.052C282.411 128.052 289.782 127.876 297.123 128.17C304.669 128.463 306.505 135.803 304.465 140.236C303.562 142.202 302.047 143.494 300.037 144.257C299.775 144.346 299.542 144.463 299.221 144.58C301.814 148.661 304.349 152.742 307 157.028ZM255.811 140.412C257.472 140.382 259.191 140.764 260.152 139.032C260.939 137.623 260.997 136.126 260.094 134.775C259.074 133.19 257.384 133.601 255.782 133.601C255.811 135.861 255.811 138.063 255.811 140.412ZM287.713 140.412C289.432 140.382 291.151 140.764 292.112 138.944C292.87 137.535 292.899 136.008 291.967 134.687C290.889 133.161 289.228 133.601 287.684 133.572C287.713 135.891 287.713 138.093 287.713 140.412Z" fill="black"/>
<path d="M218.898 128.082C218.898 137.711 218.898 147.281 218.898 156.94C214.208 156.94 209.517 156.94 204.71 156.94C204.71 152.947 204.71 148.955 204.71 144.903C203.137 144.903 201.68 144.903 200.107 144.903C200.107 148.896 200.107 152.888 200.107 156.94C195.212 156.94 190.434 156.94 185.598 156.94C185.598 147.34 185.598 137.77 185.598 128.111C190.376 128.111 195.183 128.111 200.078 128.111C200.078 131.693 200.078 135.304 200.078 138.944C201.651 138.944 203.078 138.944 204.652 138.944C204.652 135.362 204.652 131.751 204.652 128.082C209.488 128.082 214.149 128.082 218.898 128.082Z" fill="black"/>
<path d="M153.638 157.028C153.638 147.311 153.638 137.74 153.638 128.14C153.783 128.111 153.929 128.052 154.046 128.052C161.795 128.052 169.545 127.964 177.265 128.14C183.092 128.258 186.414 134.805 183.355 139.825C182.801 140.705 181.927 141.381 181.199 142.173C184.199 144.023 185.044 146.988 184.578 150.452C184.054 154.415 181.49 156.822 177.469 156.969C174.556 157.087 171.672 157.028 168.758 157.028C164.126 157.028 159.494 157.028 154.861 157.028C154.483 157.028 154.104 157.028 153.638 157.028ZM167.302 151.156C168.962 151.244 170.565 151.45 171.584 149.865C172.196 148.925 172.08 147.193 171.38 146.283C170.273 144.845 168.729 145.314 167.302 145.285C167.302 147.281 167.302 149.16 167.302 151.156ZM167.331 139.003C168.787 138.944 170.302 139.443 171.206 137.887C171.876 136.771 171.847 135.597 171.118 134.54C170.157 133.131 168.7 133.63 167.331 133.542C167.331 135.392 167.331 137.124 167.331 139.003Z" fill="black"/>
<path d="M131.874 156.94C131.874 147.281 131.874 137.711 131.874 128.082C138.692 128.082 145.422 128.082 152.268 128.082C152.268 129.961 152.268 131.781 152.268 133.689C150.229 133.689 148.248 133.689 146.179 133.689C146.179 135.568 146.179 137.359 146.179 139.267C148.131 139.267 150.112 139.267 152.152 139.267C152.152 141.234 152.152 143.083 152.152 145.021C150.2 145.021 148.248 145.021 146.179 145.021C146.179 146.812 146.179 148.544 146.179 150.364C148.219 150.364 150.2 150.364 152.239 150.364C152.239 152.624 152.239 154.738 152.239 156.94C145.451 156.94 138.692 156.94 131.874 156.94Z" fill="black"/>
<path d="M220.821 128.082C227.609 128.082 234.339 128.082 241.128 128.082C241.128 129.931 241.128 131.751 241.128 133.718C239.117 133.718 237.107 133.718 235.039 133.718C235.039 135.627 235.039 137.388 235.039 139.267C237.02 139.267 239.03 139.267 241.098 139.267C241.098 141.234 241.098 143.083 241.098 145.05C239.088 145.05 237.107 145.05 235.068 145.05C235.068 146.841 235.068 148.514 235.068 150.334C237.078 150.334 239.088 150.334 241.157 150.334C241.157 152.595 241.157 154.709 241.157 156.94C234.427 156.94 227.668 156.94 220.85 156.94C220.821 147.34 220.821 137.74 220.821 128.082Z" fill="black"/>
<path d="M94 156.94C94 147.34 94 137.77 94 128.111C98.7489 128.111 103.469 128.111 108.305 128.111C108.305 135.01 108.305 141.938 108.305 148.955C110.403 148.955 112.413 148.955 114.51 148.955C114.51 151.655 114.51 154.268 114.51 156.91C107.722 156.94 100.905 156.94 94 156.94Z" fill="black"/>
<path d="M116.084 128.082C120.716 128.082 125.29 128.082 129.922 128.082C129.922 137.711 129.922 147.311 129.922 156.969C125.29 156.969 120.716 156.969 116.084 156.969C116.084 147.34 116.084 137.74 116.084 128.082Z" fill="black"/>
</svg>
