<svg width="105" height="132" viewBox="0 0 105 132" fill="none" xmlns="http://www.w3.org/2000/svg">
<g opacity="0.5">
<path d="M0 123.483L3.95113 123.073C3.98485 123.907 4.16195 124.729 4.47466 125.503C4.9027 126.405 5.51512 126.856 6.31194 126.856C6.5808 126.868 6.84815 126.81 7.0885 126.689C7.32886 126.568 7.5342 126.388 7.68496 126.165C7.99176 125.697 8.1552 125.149 8.1552 124.589C8.1552 124.03 7.99176 123.482 7.68496 123.014C7.37874 122.559 6.66919 122.13 5.55628 121.725C3.73218 121.046 2.43159 120.144 1.65453 119.018C0.826607 117.741 0.415876 116.237 0.479076 114.716C0.472799 113.606 0.677267 112.505 1.08162 111.472C1.43795 110.513 2.06613 109.679 2.88926 109.071C3.87269 108.439 5.03078 108.133 6.19834 108.197C7.92038 108.197 9.23742 108.725 10.1495 109.782C11.0615 110.839 11.5982 112.524 11.7596 114.835L7.83806 115.215C7.80728 114.442 7.5813 113.689 7.18118 113.027C7.02545 112.808 6.81747 112.63 6.57602 112.511C6.33457 112.392 6.06727 112.335 5.79829 112.346C5.58965 112.331 5.38061 112.368 5.19005 112.455C4.99948 112.541 4.8334 112.673 4.70679 112.84C4.4551 113.203 4.32696 113.638 4.34131 114.079C4.33699 114.423 4.44256 114.758 4.64258 115.037C5.01676 115.443 5.50333 115.729 6.04029 115.857C7.44388 116.293 8.76446 116.96 9.94698 117.833C10.729 118.489 11.3222 119.341 11.6657 120.302C12.0373 121.362 12.2195 122.479 12.2041 123.602C12.2184 124.952 11.9754 126.293 11.4879 127.553C11.098 128.639 10.4036 129.591 9.48766 130.294C8.5358 130.944 7.39988 131.272 6.24773 131.227C3.9429 131.227 2.35751 130.498 1.49156 129.039C0.544502 127.338 0.0321503 125.43 0 123.483Z" fill="#6B6B6B"/>
<path d="M14.4018 108.577H18.5604V116.371H23.1042V108.577H27.2825V130.852H23.1042V121.843H18.5604V130.852H14.4018V108.577Z" fill="#6B6B6B"/>
<path d="M38.4052 127.177H33.6836L33.0268 130.852H28.7793L33.8417 108.577H38.3805L43.438 130.852H39.0819L38.4052 127.177ZM37.5409 122.362L36.0592 114.356L34.5776 122.362H37.5409Z" fill="#6B6B6B"/>
<path d="M53.4541 121.735L57.0991 123.557C56.9187 125.018 56.5295 126.445 55.9434 127.795C55.5116 128.804 54.8321 129.687 53.9678 130.363C53.0996 130.964 52.0597 131.267 51.0044 131.227C49.7251 131.282 48.4637 130.911 47.4188 130.17C46.4902 129.466 45.6902 128.228 45.0185 126.456C44.2869 124.266 43.9524 121.963 44.0307 119.655C44.0307 115.971 44.6233 113.139 45.8087 111.16C46.994 109.182 48.67 108.194 50.8365 108.197C51.5887 108.16 52.3395 108.295 53.0324 108.59C53.7253 108.885 54.3423 109.333 54.837 109.901C55.8083 111.037 56.5294 112.779 57.0003 115.126L53.3257 116.48C53.2439 115.973 53.1081 115.476 52.9207 114.998C52.7318 114.533 52.4396 114.118 52.0663 113.783C51.7536 113.508 51.3514 113.357 50.9353 113.358C49.9936 113.358 49.2709 113.986 48.7671 115.24C48.3884 116.172 48.1991 117.634 48.1991 119.626C48.1991 122.095 48.4263 123.788 48.8807 124.703C49.3351 125.618 49.9722 126.076 50.7921 126.076C51.167 126.081 51.5357 125.979 51.8549 125.782C52.1741 125.586 52.4307 125.302 52.5948 124.965C53.0722 123.948 53.3633 122.854 53.4541 121.735Z" fill="#6B6B6B"/>
<path d="M59.1486 108.577H64.6209L66.7299 122.11L68.824 108.558H74.3062V130.832H70.8983V113.867L68.2708 130.852H65.1889L62.5664 113.867V130.852H59.1585L59.1486 108.577Z" fill="#6B6B6B"/>
<path d="M85.2999 127.177H80.5782L79.9214 130.852H75.6739L80.7264 108.577H85.2653L90.3227 130.852H85.9666L85.2999 127.177ZM84.4355 122.362L82.9539 114.356L81.4722 122.362H84.4355Z" fill="#6B6B6B"/>
<path d="M91.7555 108.577H95.6425L100.71 120.925V108.577H104.631V130.852H100.71L95.6672 118.623V130.852H91.7555V108.577Z" fill="#6B6B6B"/>
<path d="M54.526 0.0049379C46.5991 0.0065083 38.7841 1.87591 31.7146 5.46159C24.6451 9.04726 18.52 14.2483 13.8358 20.6431C9.1516 27.0379 6.04016 34.4465 4.7537 42.2682C3.46723 50.09 4.04196 58.1049 6.43128 65.6631C8.82061 73.2212 12.9573 80.1101 18.506 85.7711C24.0547 91.4321 30.8592 95.706 38.368 98.2463C45.8768 100.787 53.8785 101.522 61.7245 100.392C69.5705 99.2629 77.0399 96.3005 83.5273 91.7454C82.7025 90.8021 80.4356 88.2092 79.5762 87.1621C71.975 92.3479 62.9518 95.047 53.7516 94.8869C44.5513 94.7267 35.6275 91.7153 28.2114 86.2682L52.2689 86.3818C52.2689 86.3818 61.0898 87.0436 63.9346 80.2081C66.7794 73.3726 74.6175 53.5379 74.6175 53.5379C74.6175 53.5379 76.6869 47.7149 72.148 47.7149H64.7693C64.7693 47.7149 60.8181 47.9471 62.9715 42.8501C65.1249 37.7531 69.9403 25.5392 69.9403 25.5392C69.9403 25.5392 71.422 21.0201 77.9463 21.0201C82.8606 21.0201 86.4413 21.109 87.9032 21.1485C94.4419 28.5939 98.3053 38.0106 98.8798 47.903C99.4543 57.7953 96.7069 67.596 91.074 75.7483C91.2098 75.8148 91.3417 75.889 91.4691 75.9705L95.7907 79.5166C101.115 71.9599 104.261 63.0856 104.885 53.8627C105.509 44.6398 103.587 35.4226 99.3299 27.2174C95.0723 19.0122 88.6425 12.1343 80.7422 7.33456C72.8419 2.53478 63.7749 -0.0023881 54.5309 1.68667e-06L54.526 0.0049379ZM52.5751 15.0637C52.5751 15.0637 47.567 14.7229 45.8829 19.1235C44.1987 23.5241 34.0887 48.0261 34.0887 48.0261C34.0887 48.0261 31.56 53.6169 37.5756 53.6169C43.5912 53.6169 44.3567 53.7305 44.3567 53.7305C44.3567 53.7305 48.2239 53.0391 45.6606 59.4745L38.7461 76.7607C38.2696 77.8165 37.4917 78.7079 36.5102 79.323C35.5286 79.9381 34.3872 80.2495 33.2293 80.218C29.8313 80.218 23.5935 80.1143 21.3759 80.0797C14.0277 71.8079 10.0285 61.0929 10.1603 50.0293C10.292 38.9657 14.5452 28.349 22.0883 20.2545C29.6314 12.16 39.9222 7.1697 50.9491 6.25908C61.9759 5.34845 72.9459 8.583 81.7147 15.3304L52.5751 15.0637Z" fill="#6B6B6B"/>
<path d="M90.8859 78.5239C90.058 78.0379 89.1076 77.8008 88.1484 77.8411C87.1892 77.8814 86.262 78.1973 85.4778 78.7511C82.5984 80.6625 81.5266 83.1171 81.4674 84.4556C81.4081 85.794 81.3637 85.9372 81.9267 86.6237C82.4897 87.3103 85.2457 90.4662 85.2457 90.4662C87.0475 89.1549 88.7663 87.733 90.392 86.2089C92.2787 84.3222 94.4123 82.0108 94.2098 81.2699L90.8859 78.5239Z" fill="#6B6B6B"/>
</g>
</svg>
