<svg width="213" height="30" viewBox="0 0 213 30" fill="none" xmlns="http://www.w3.org/2000/svg">
<path d="M213 29.0278C211.456 29.0278 210.145 29.0278 208.834 29.0278C205.279 29.0278 201.696 28.9984 198.142 29.0572C197.471 29.0572 197.18 28.8517 196.947 28.2352C196.044 25.916 195.082 23.5968 193.946 21.3363C193.946 23.861 193.946 26.415 193.946 28.9984C193.48 29.0278 193.13 29.0572 192.81 29.0572C184.011 29.0572 175.242 29.0572 166.444 29.0865C165.628 29.0865 165.22 28.881 164.929 28.0884C164.084 25.8279 163.122 23.5968 162.044 21.3656C162.044 23.8903 162.044 26.3857 162.044 28.9984C157.529 28.9984 153.129 28.9984 148.643 28.9984C148.643 19.3987 148.643 9.8283 148.643 0.169833C148.788 0.140476 148.905 0.0817658 149.05 0.0817658C156.392 0.0817658 163.705 -0.065023 171.047 0.169833C178.738 0.40469 180.632 7.83203 178.534 12.2943C177.485 14.5254 175.679 15.8171 173.29 16.5511C175.621 20.3088 177.922 24.0078 180.224 27.7067C180.282 27.7067 180.341 27.6774 180.428 27.6774C180.428 18.518 180.428 9.38795 180.428 0.199192C180.719 0.140478 180.865 0.052407 181.04 0.052407C188.411 0.052407 195.782 -0.123737 203.123 0.169833C210.669 0.463404 212.505 7.80267 210.465 12.2356C209.562 14.2025 208.047 15.4942 206.037 16.2575C205.775 16.3456 205.542 16.463 205.221 16.5804C207.814 20.661 210.349 24.7417 213 29.0278ZM161.811 12.4117C163.472 12.3824 165.191 12.764 166.152 11.0319C166.939 9.6228 166.997 8.12559 166.094 6.77517C165.074 5.18989 163.384 5.60089 161.782 5.60089C161.811 7.86138 161.811 10.0632 161.811 12.4117ZM193.713 12.4117C195.432 12.3824 197.151 12.764 198.112 10.9439C198.87 9.53473 198.899 8.00817 197.967 6.6871C196.889 5.16053 195.228 5.60088 193.684 5.57153C193.713 7.89073 193.713 10.0925 193.713 12.4117Z" fill="black"/>
<path d="M124.898 0.0817648C124.898 9.71087 124.898 19.2813 124.898 28.9397C120.208 28.9397 115.517 28.9397 110.71 28.9397C110.71 24.9472 110.71 20.9546 110.71 16.9033C109.137 16.9033 107.68 16.9033 106.107 16.9033C106.107 20.8959 106.107 24.8885 106.107 28.9397C101.212 28.9397 96.4341 28.9397 91.5979 28.9397C91.5979 19.34 91.5979 9.76959 91.5979 0.111119C96.3759 0.111119 101.183 0.111119 106.078 0.111119C106.078 3.69268 106.078 7.3036 106.078 10.9439C107.651 10.9439 109.078 10.9439 110.652 10.9439C110.652 7.36231 110.652 3.75139 110.652 0.0817648C115.488 0.0817648 120.149 0.0817648 124.898 0.0817648Z" fill="black"/>
<path d="M59.6377 29.0278C59.6377 19.3106 59.6377 9.74023 59.6377 0.140478C59.7833 0.111121 59.929 0.0524065 60.0456 0.0524065C67.7952 0.0524065 75.5449 -0.0356638 83.2655 0.140478C89.0923 0.257907 92.4136 6.80453 89.3545 11.8246C88.801 12.7053 87.927 13.3805 87.1986 14.1731C90.1994 16.0226 91.0443 18.9877 90.5782 22.4518C90.0538 26.415 87.4899 28.8223 83.4694 28.9691C80.556 29.0865 77.6717 29.0278 74.7583 29.0278C70.126 29.0278 65.4936 29.0278 60.8613 29.0278C60.4826 29.0278 60.1038 29.0278 59.6377 29.0278ZM73.3016 23.1564C74.9622 23.2445 76.5646 23.45 77.5843 21.8647C78.1961 20.9253 78.0796 19.1932 77.3804 18.2831C76.2733 16.8446 74.7292 17.3143 73.3016 17.285C73.3016 19.2813 73.3016 21.1601 73.3016 23.1564ZM73.3307 11.0026C74.7874 10.9439 76.3024 11.4429 77.2056 9.88701C77.8757 8.77145 77.8465 7.59717 77.1182 6.54031C76.1568 5.13118 74.7 5.63025 73.3307 5.54218C73.3307 7.39167 73.3307 9.12373 73.3307 11.0026Z" fill="black"/>
<path d="M37.8744 28.9397C37.8744 19.2813 37.8744 9.71087 37.8744 0.0817648C44.6918 0.0817648 51.4218 0.0817648 58.2684 0.0817648C58.2684 1.96062 58.2684 3.78075 58.2684 5.68896C56.229 5.68896 54.2478 5.68896 52.1793 5.68896C52.1793 7.56781 52.1793 9.35859 52.1793 11.2668C54.1313 11.2668 56.1124 11.2668 58.1518 11.2668C58.1518 13.2337 58.1518 15.0832 58.1518 17.0208C56.1998 17.0208 54.2478 17.0208 52.1793 17.0208C52.1793 18.8116 52.1793 20.5436 52.1793 22.3638C54.2187 22.3638 56.1998 22.3638 58.2392 22.3638C58.2392 24.6242 58.2392 26.738 58.2392 28.9397C51.451 28.9397 44.6918 28.9397 37.8744 28.9397Z" fill="black"/>
<path d="M126.821 0.0817648C133.609 0.0817648 140.339 0.0817648 147.128 0.0817648C147.128 1.93126 147.128 3.75139 147.128 5.71831C145.117 5.71831 143.107 5.71831 141.039 5.71831C141.039 7.62652 141.039 9.38795 141.039 11.2668C143.02 11.2668 145.03 11.2668 147.098 11.2668C147.098 13.2337 147.098 15.0832 147.098 17.0501C145.088 17.0501 143.107 17.0501 141.068 17.0501C141.068 18.8409 141.068 20.5143 141.068 22.3344C143.078 22.3344 145.088 22.3344 147.157 22.3344C147.157 24.5949 147.157 26.7086 147.157 28.9397C140.427 28.9397 133.668 28.9397 126.85 28.9397C126.821 19.34 126.821 9.74023 126.821 0.0817648Z" fill="black"/>
<path d="M0 28.9397C0 19.34 0 9.76959 0 0.111119C4.74887 0.111119 9.46861 0.111119 14.3049 0.111119C14.3049 7.01002 14.3049 13.9383 14.3049 20.9546C16.4025 20.9546 18.4128 20.9546 20.5105 20.9546C20.5105 23.6555 20.5105 26.2682 20.5105 28.9104C13.7222 28.9397 6.9048 28.9397 0 28.9397Z" fill="black"/>
<path d="M22.0837 0.0817648C26.716 0.0817648 31.2901 0.0817648 35.9224 0.0817648C35.9224 9.71087 35.9224 19.3106 35.9224 28.9691C31.2901 28.9691 26.716 28.9691 22.0837 28.9691C22.0837 19.34 22.0837 9.74023 22.0837 0.0817648Z" fill="black"/>
</svg>
