<svg width="400" height="285" viewBox="0 0 400 285" fill="none" xmlns="http://www.w3.org/2000/svg"><path d="M148 200.483L151.951 200.073C151.985 200.907 152.162 201.729 152.475 202.503C152.903 203.405 153.515 203.856 154.312 203.856C154.581 203.868 154.848 203.81 155.089 203.689C155.329 203.568 155.534 203.388 155.685 203.165C155.992 202.697 156.155 202.149 156.155 201.589C156.155 201.03 155.992 200.482 155.685 200.014C155.379 199.559 154.669 199.13 153.556 198.725C151.732 198.046 150.432 197.144 149.655 196.018C148.827 194.741 148.416 193.237 148.479 191.716C148.473 190.606 148.677 189.505 149.082 188.472C149.438 187.513 150.066 186.679 150.889 186.071C151.873 185.439 153.031 185.133 154.198 185.197C155.92 185.197 157.237 185.725 158.149 186.782C159.062 187.839 159.598 189.524 159.76 191.835L155.838 192.215C155.807 191.442 155.581 190.689 155.181 190.027C155.025 189.808 154.817 189.63 154.576 189.511C154.335 189.392 154.067 189.335 153.798 189.346C153.59 189.331 153.381 189.368 153.19 189.455C152.999 189.541 152.833 189.673 152.707 189.84C152.455 190.203 152.327 190.638 152.341 191.079C152.337 191.423 152.443 191.758 152.643 192.037C153.017 192.443 153.503 192.729 154.04 192.857C155.444 193.293 156.764 193.96 157.947 194.833C158.729 195.489 159.322 196.341 159.666 197.302C160.037 198.362 160.22 199.479 160.204 200.602C160.218 201.952 159.975 203.293 159.488 204.553C159.098 205.639 158.404 206.591 157.488 207.294C156.536 207.944 155.4 208.272 154.248 208.227C151.943 208.227 150.358 207.498 149.492 206.039C148.545 204.338 148.032 202.43 148 200.483Z M162.402 185.577H166.56V193.371H171.104V185.577H175.283V207.852H171.104V198.843H166.56V207.852H162.402V185.577Z M186.405 204.177H181.684L181.027 207.852H176.779L181.842 185.577H186.381L191.438 207.852H187.082L186.405 204.177ZM185.541 199.362L184.059 191.356L182.578 199.362H185.541Z M201.454 198.735L205.099 200.557C204.919 202.018 204.529 203.445 203.943 204.795C203.512 205.804 202.832 206.687 201.968 207.363C201.1 207.964 200.06 208.267 199.004 208.227C197.725 208.282 196.464 207.911 195.419 207.17C194.49 206.466 193.69 205.228 193.018 203.456C192.287 201.266 191.952 198.963 192.031 196.655C192.031 192.971 192.623 190.139 193.809 188.16C194.994 186.182 196.67 185.194 198.837 185.197C199.589 185.16 200.34 185.295 201.032 185.59C201.725 185.885 202.342 186.333 202.837 186.901C203.808 188.037 204.529 189.779 205 192.126L201.326 193.48C201.244 192.973 201.108 192.476 200.921 191.998C200.732 191.533 200.44 191.118 200.066 190.783C199.754 190.508 199.351 190.357 198.935 190.358C197.994 190.358 197.271 190.986 196.767 192.24C196.388 193.172 196.199 194.634 196.199 196.626C196.199 199.095 196.426 200.788 196.881 201.703C197.335 202.618 197.972 203.076 198.792 203.076C199.167 203.081 199.536 202.979 199.855 202.782C200.174 202.586 200.431 202.302 200.595 201.965C201.072 200.948 201.363 199.854 201.454 198.735Z M207.149 185.577H212.621L214.73 199.11L216.824 185.558H222.306V207.832H218.898V190.867L216.271 207.852H213.189L210.566 190.867V207.852H207.158L207.149 185.577Z M233.3 204.177H228.578L227.921 207.852H223.674L228.726 185.577H233.265L238.323 207.852H233.967L233.3 204.177ZM232.436 199.362L230.954 191.356L229.472 199.362H232.436Z M239.756 185.577H243.642L248.71 197.925V185.577H252.631V207.852H248.71L243.667 195.623V207.852H239.756V185.577Z M202.526 77.0049C194.599 77.0065 186.784 78.8759 179.715 82.4616C172.645 86.0473 166.52 91.2483 161.836 97.6431C157.152 104.038 154.04 111.446 152.754 119.268C151.467 127.09 152.042 135.105 154.431 142.663C156.821 150.221 160.957 157.11 166.506 162.771C172.055 168.432 178.859 172.706 186.368 175.246C193.877 177.787 201.879 178.522 209.725 177.392C217.57 176.263 225.04 173.301 231.527 168.745C230.703 167.802 228.436 165.209 227.576 164.162C219.975 169.348 210.952 172.047 201.752 171.887C192.551 171.727 183.627 168.715 176.211 163.268L200.269 163.382C200.269 163.382 209.09 164.044 211.935 157.208C214.779 150.373 222.617 130.538 222.617 130.538C222.617 130.538 224.687 124.715 220.148 124.715H212.769C212.769 124.715 208.818 124.947 210.972 119.85C213.125 114.753 217.94 102.539 217.94 102.539C217.94 102.539 219.422 98.0201 225.946 98.0201C230.861 98.0201 234.441 98.109 235.903 98.1485C242.442 105.594 246.305 115.011 246.88 124.903C247.454 134.795 244.707 144.596 239.074 152.748C239.21 152.815 239.342 152.889 239.469 152.971L243.791 156.517C249.115 148.96 252.261 140.086 252.885 130.863C253.509 121.64 251.587 112.423 247.33 104.217C243.072 96.0122 236.642 89.1343 228.742 84.3346C220.842 79.5348 211.775 76.9976 202.531 77L202.526 77.0049ZM200.575 92.0637C200.575 92.0637 195.567 91.7229 193.883 96.1235C192.199 100.524 182.089 125.026 182.089 125.026C182.089 125.026 179.56 130.617 185.576 130.617C191.591 130.617 192.357 130.731 192.357 130.731C192.357 130.731 196.224 130.039 193.661 136.474L186.746 153.761C186.27 154.817 185.492 155.708 184.51 156.323C183.529 156.938 182.387 157.249 181.229 157.218C177.831 157.218 171.593 157.114 169.376 157.08C162.028 148.808 158.029 138.093 158.16 127.029C158.292 115.966 162.545 105.349 170.088 97.2545C177.631 89.16 187.922 84.1697 198.949 83.2591C209.976 82.3485 220.946 85.583 229.715 92.3304L200.575 92.0637Z M238.886 155.524C238.058 155.038 237.108 154.801 236.148 154.841C235.189 154.881 234.262 155.197 233.478 155.751C230.598 157.662 229.527 160.117 229.467 161.456C229.408 162.794 229.364 162.937 229.927 163.624C230.49 164.31 233.246 167.466 233.246 167.466C235.047 166.155 236.766 164.733 238.392 163.209C240.279 161.322 242.412 159.011 242.21 158.27L238.886 155.524Z" fill="#000"/>
</svg>
