<svg width="181" height="85" viewBox="0 0 181 85" fill="none" xmlns="http://www.w3.org/2000/svg">
<path d="M57.4817 76.1433L76.1445 18.6621L18.6634 -0.00068389L0.00057918 57.4805L57.4817 76.1433Z" fill="#6D6D6D"/>
<path d="M121.922 80.2555L117.547 19.9805L57.2675 24.3561L61.6428 84.6311L121.922 80.2555Z" fill="#DBDBDB"/>
<path d="M114.309 73.6695L120.94 13.5996L181 20.2322L174.377 80.2999L114.309 73.6695Z" fill="#EBEBEB"/>
<path d="M15.2157 32.9841H28.8077C39.6381 32.9841 38.3776 38.1211 36.3719 43.7725C34.3717 49.4206 31.9951 54.5555 21.1712 54.5555H7.57812L15.2157 32.9841ZM18.3762 50.5076H20.2395C23.8669 50.5076 24.6336 49.6018 26.7028 43.7714C28.771 37.9432 28.6341 37.0299 25.0078 37.0299H23.1509L18.3762 50.5076Z" fill="black"/>
<path d="M54.5305 32.5647C64.095 32.5647 66.257 35.7057 63.4006 43.7725C60.542 51.8382 56.1566 54.9803 46.5899 54.9803C37.02 54.9803 34.8634 51.8382 37.722 43.7725C40.573 35.7057 44.9574 32.5647 54.5305 32.5647ZM47.9356 51.1707C50.8039 51.1707 51.6633 49.6018 53.7272 43.7714C55.7921 37.9432 56.0477 36.3678 53.1794 36.3678C50.3111 36.3678 49.4528 37.9421 47.3879 43.7714C45.324 49.6018 45.0684 51.1707 47.9356 51.1707Z" fill="black"/>
<path d="M81.6066 32.5647C91.17 32.5647 93.3353 35.7057 90.4767 43.7725C87.6181 51.8382 83.2327 54.9803 73.6682 54.9803C64.0961 54.9803 61.9406 51.8382 64.7991 43.7725C67.6534 35.7057 72.041 32.5647 81.6066 32.5647ZM75.0117 51.1707C77.8886 51.1707 78.7383 49.6018 80.8097 43.7714C82.8725 37.9432 83.1292 36.3678 80.2598 36.3678C77.3861 36.3678 76.5267 37.9421 74.4639 43.7714C72.3979 49.6018 72.1424 51.1707 75.0117 51.1707Z" fill="black"/>
<path d="M107.884 39.2091L108.061 38.6926C108.509 37.4235 108.034 36.3689 106.217 36.3689C104.207 36.3689 102.964 37.3049 102.626 38.2742C101.116 42.5292 117.16 40.4513 114.372 48.3305C112.739 52.9251 107.532 54.9803 99.2735 54.9803C91.5194 54.9803 87.7605 53.378 89.3445 48.9095L89.6097 48.1472H98.6718L98.4895 48.6583C97.8382 50.5076 98.8637 51.1707 100.672 51.1707C102.588 51.1707 104.015 50.266 104.435 49.0874C105.943 44.8271 90.4853 46.9449 93.1897 39.2997C94.7338 34.9466 99.4568 32.5625 107.367 32.5625C115.523 32.5625 118.28 34.5811 116.645 39.207H107.884V39.2091Z" fill="black"/>
<path d="M127.98 32.9841H139.764L140.882 54.5555H130.916L131.29 50.7814H123.846L121.551 54.5555H111.578L127.98 32.9841ZM132.358 37.3965H132.258L126.448 46.5491H131.682L132.358 37.3965Z" fill="black"/>
<path d="M149.684 32.9841H160.155L161.489 46.2785H161.589L166.299 32.9841H175.061L167.418 54.5555H157.141L155.624 41.2331H155.523L150.801 54.5555H142.041L149.684 32.9841Z" fill="black"/>
</svg>
