<svg width="400" height="285" viewBox="0 0 400 285" fill="none" xmlns="http://www.w3.org/2000/svg">
<path d="M95 130.922H107.291V144.778L113.414 130.922H127.284L120.584 145.369L127.688 160.592H113.765L107.291 146.204V160.592H95V130.922Z" fill="black"/>
<path d="M141.499 129.854C132.809 129.854 125.765 136.984 125.765 145.787C125.765 154.589 132.809 161.72 141.499 161.72C150.188 161.72 157.233 154.589 157.233 145.787C157.233 136.984 150.188 129.854 141.499 129.854ZM141.379 149.952C139.097 149.952 137.247 148.088 137.247 145.787C137.247 143.485 139.097 141.628 141.379 141.628C143.668 141.628 145.525 143.485 145.525 145.787C145.525 148.088 143.668 149.952 141.379 149.952Z" fill="black"/>
<path d="M162.188 131.22H173.311L176.814 142.337L180.482 131.28H191.612L195.804 158.449L205.131 131.28H217.017L226.921 160.95H214.57L211.014 147.093L207.578 161.069H184.973L183.215 150.304L180.19 160.95H173.311L170.287 150.244L168.595 160.95H157.524L162.188 131.22Z" fill="black"/>
<path d="M223.777 142.337V131.399H242.542V122H253.964V133.654C253.964 133.654 258.621 130.026 264.16 130.444C269.692 130.862 274.176 133.237 274.527 133.9L271.383 141.628C271.383 141.628 265.851 138.775 264.272 139.187C262.7 139.604 262.349 140.201 263.105 141.09C263.868 141.986 267.595 142.337 268.531 142.875C269.459 143.412 273.711 144.48 274.467 149.952C275.23 155.418 271.383 160.658 266.256 161.428C261.128 162.197 254.369 162.197 249.003 158.038L252.213 150.131C252.213 150.131 256.757 152.805 259.085 153.043C261.413 153.275 262.408 153.342 262.7 152.267C262.992 151.199 261.128 150.549 259.848 150.304C258.568 150.065 253.142 148.699 251.862 145.369C250.581 142.045 250.177 138.059 253.672 133.84H242.887V161.129H230.649V142.337H223.777Z" fill="black"/>
<path d="M277.618 131.34H289.565V149.116C289.565 149.116 289.565 151.498 291.309 151.498C293.06 151.498 292.768 149.176 292.768 149.176V131.399H305V150.662C305 150.662 305 162.137 291.488 162.137C277.97 162.137 277.678 152.387 277.618 151.08V131.34Z" fill="black"/>
</svg>
