<svg width="210" height="41" viewBox="0 0 210 41" fill="none" xmlns="http://www.w3.org/2000/svg">
<path d="M0 8.92165H12.2913V22.7783L18.4137 8.92165H32.2837L25.5842 23.3687L32.6883 38.5918H18.7653L12.2913 24.2045V38.5918H0V8.92165Z" fill="black"/>
<path d="M46.4986 7.85368C37.8091 7.85368 30.7647 14.9844 30.7647 23.7866C30.7647 32.5889 37.8091 39.7195 46.4986 39.7195C55.1881 39.7195 62.2325 32.5889 62.2325 23.7866C62.2325 14.9844 55.1881 7.85368 46.4986 7.85368ZM46.3792 27.9523C44.0974 27.9523 42.2468 26.0883 42.2468 23.7866C42.2468 21.4849 44.0974 19.6276 46.3792 19.6276C48.6677 19.6276 50.525 21.4849 50.525 23.7866C50.525 26.0883 48.6677 27.9523 46.3792 27.9523Z" fill="black"/>
<path d="M67.1875 9.22014H78.3114L81.8137 20.3373L85.4818 9.27982H96.6123L100.804 36.4494L110.131 9.27982H122.017L131.921 38.9501H119.57L116.014 25.0933L112.578 39.0694H89.9725L88.2147 28.3038L85.19 38.9501H78.3114L75.2867 28.2441L73.5952 38.9501H62.5244L67.1875 9.22014Z" fill="black"/>
<path d="M128.777 20.3373V9.3992H147.542V0H158.964V11.6545C158.964 11.6545 163.621 8.02615 169.16 8.44404C174.692 8.86195 179.176 11.2366 179.527 11.8999L176.383 19.6276C176.383 19.6276 170.851 16.7753 169.272 17.1865C167.7 17.6043 167.349 18.2014 168.105 19.0903C168.868 19.9858 172.595 20.3373 173.531 20.8746C174.459 21.4119 178.711 22.4799 179.467 27.9522C180.23 33.418 176.383 38.6582 171.256 39.4277C166.128 40.1971 159.369 40.1971 154.003 36.0381L157.213 28.1313C157.213 28.1313 161.757 30.8045 164.085 31.0433C166.413 31.2753 167.408 31.3417 167.7 30.2672C167.992 29.1993 166.128 28.5492 164.848 28.3038C163.568 28.065 158.142 26.6985 156.862 23.3687C155.581 20.0455 155.177 16.0589 158.672 11.8402H147.887V39.1291H135.649V20.3373H128.777Z" fill="black"/>
<path d="M182.618 9.33954H194.565V27.1165C194.565 27.1165 194.565 29.4977 196.309 29.4977C198.06 29.4977 197.768 27.1762 197.768 27.1762V9.39921H210V28.662C210 28.662 210 40.1374 196.488 40.1374C182.97 40.1374 182.678 30.3866 182.618 29.0799V9.33954Z" fill="black"/>
</svg>
