<svg width="400" height="285" viewBox="0 0 400 285" fill="none" xmlns="http://www.w3.org/2000/svg">
<path d="M167.482 176.143L186.145 118.662L128.663 99.9993L110.001 157.48L167.482 176.143Z" fill="#6D6D6D"/>
<path d="M231.922 180.256L227.547 119.98L167.268 124.356L171.643 184.631L231.922 180.256Z" fill="#DBDBDB"/>
<path d="M224.309 173.669L230.94 113.6L291 120.232L284.377 180.3L224.309 173.669Z" fill="#EBEBEB"/>
<path d="M125.216 132.984H138.808C149.638 132.984 148.378 138.121 146.372 143.772C144.372 149.421 141.995 154.555 131.171 154.555H117.578L125.216 132.984ZM128.376 150.508H130.24C133.867 150.508 134.634 149.602 136.703 143.771C138.771 137.943 138.634 137.03 135.008 137.03H133.151L128.376 150.508Z" fill="black"/>
<path d="M164.531 132.565C174.095 132.565 176.257 135.706 173.401 143.772C170.542 151.838 166.157 154.98 156.59 154.98C147.02 154.98 144.863 151.838 147.722 143.772C150.573 135.706 154.957 132.565 164.531 132.565ZM157.936 151.171C160.804 151.171 161.663 149.602 163.727 143.771C165.792 137.943 166.048 136.368 163.179 136.368C160.311 136.368 159.453 137.942 157.388 143.771C155.324 149.602 155.068 151.171 157.936 151.171Z" fill="black"/>
<path d="M191.607 132.565C201.17 132.565 203.335 135.706 200.477 143.772C197.618 151.838 193.233 154.98 183.668 154.98C174.096 154.98 171.941 151.838 174.799 143.772C177.653 135.706 182.041 132.565 191.607 132.565ZM185.012 151.171C187.889 151.171 188.738 149.602 190.81 143.771C192.873 137.943 193.129 136.368 190.26 136.368C187.386 136.368 186.527 137.942 184.464 143.771C182.398 149.602 182.142 151.171 185.012 151.171Z" fill="black"/>
<path d="M217.884 139.209L218.061 138.693C218.509 137.423 218.034 136.369 216.217 136.369C214.207 136.369 212.964 137.305 212.626 138.274C211.116 142.529 227.16 140.451 224.372 148.33C222.739 152.925 217.532 154.98 209.273 154.98C201.519 154.98 197.76 153.378 199.344 148.91L199.61 148.147H208.672L208.49 148.658C207.838 150.508 208.864 151.171 210.672 151.171C212.588 151.171 214.015 150.266 214.435 149.087C215.943 144.827 200.485 146.945 203.19 139.3C204.734 134.947 209.457 132.562 217.367 132.562C225.523 132.562 228.28 134.581 226.645 139.207H217.884V139.209Z" fill="black"/>
<path d="M237.98 132.984H249.764L250.882 154.555H240.916L241.29 150.781H233.846L231.551 154.555H221.578L237.98 132.984ZM242.358 137.397H242.258L236.448 146.549H241.682L242.358 137.397Z" fill="black"/>
<path d="M259.684 132.984H270.155L271.489 146.278H271.589L276.299 132.984H285.061L277.418 154.555H267.141L265.624 141.233H265.523L260.801 154.555H252.041L259.684 132.984Z" fill="black"/>
</svg>
