<svg width="185" height="89" viewBox="0 0 185 89" fill="none" xmlns="http://www.w3.org/2000/svg">
<rect width="184.32" height="88.064" fill="#F9FDFF"/>
<path fill-rule="evenodd" clip-rule="evenodd" d="M70.2231 69.224L46.4316 82.9597L22.696 69.224L46.5543 55.296L70.2231 69.224Z" stroke="#B3DAFF" stroke-width="0.5" stroke-dasharray="2.79"/>
<path d="M77.5362 16.2488L84.8729 20.5096V49.8748L45.2856 72.7305L40.7275 70.0588V40.6982L77.5362 16.2488Z" fill="#EEBF00"/>
<path d="M84.8729 20.5096L77.5362 16.2488L40.7275 40.6982L45.2856 43.3652L84.8729 20.5096Z" fill="#FFDE56"/>
<path d="M60.4654 10.255L77.5362 16.2488L84.8729 20.5096L66.6172 51.8588L45.2856 43.3652L40.7275 40.6982L60.4654 10.255Z" fill="#7088C4"/>
<path d="M80.3148 17.8379L77.5363 16.2488L60.4654 10.255L80.3148 17.8379Z" fill="#BDC8FF"/>
<path d="M60.4654 10.255L40.7275 40.6982L80.3148 17.8379L60.4654 10.255Z" fill="#BDC8FF"/>
<path d="M78.3215 8.30814L79.1578 8.78207V52.4071L50.9821 68.6742L50.3316 66.7366L50.1457 24.5752L78.3215 8.30814Z" fill="#C1C1F7"/>
<path d="M50.9821 25.0491L50.1457 24.5752L49.9784 66.7366L50.9821 68.6742V25.0491Z" fill="#C1C1F7"/>
<path d="M79.1578 8.78207L78.3215 8.30814L50.1457 24.5752L50.9821 25.0491L79.1578 8.78207Z" fill="#CCC9F4"/>
<path d="M50.9821 25.0491V68.6742L79.1578 52.4071V8.78207L50.9821 25.0491Z" fill="url(#paint0_linear)"/>
<path d="M55.7493 44.485C55.7493 44.8335 56.1303 45.0519 56.4323 44.88L73.5868 34.9738C74.1072 34.6718 74.4278 34.1189 74.4278 33.5149C74.4278 33.1664 74.0468 32.948 73.7448 33.1199L56.5903 43.0261C56.0699 43.3281 55.7493 43.8856 55.7493 44.485Z" fill="#DADAF2"/>
<path d="M55.7353 39.9687C55.7353 40.3172 56.1163 40.5356 56.4184 40.3637L73.5729 30.4575C74.0933 30.1555 74.4139 29.6026 74.4092 28.9986C74.4092 28.6501 74.0282 28.4317 73.7262 28.6036L56.5717 38.5051C56.0559 38.8118 55.7353 39.3647 55.7353 39.9687Z" fill="#DADAF2"/>
<path d="M55.726 35.4478C55.726 35.7963 56.107 36.0146 56.4091 35.8427L73.5636 25.9413C74.084 25.6392 74.4046 25.0863 74.4046 24.4823C74.4046 24.1338 74.0236 23.9154 73.7216 24.0873L56.567 33.9935C56.042 34.2908 55.7214 34.8484 55.726 35.4478Z" fill="#DADAF2"/>
<path d="M55.7121 30.9315C55.7121 31.2799 56.0931 31.4983 56.3951 31.3264L73.5496 21.4203C74.07 21.1183 74.3906 20.5653 74.386 19.9613C74.386 19.6128 74.005 19.3945 73.703 19.5664L56.5485 29.4725C56.0281 29.7745 55.7121 30.3274 55.7121 30.9315Z" fill="#DADAF2"/>
<path d="M84.8729 20.5096V49.8748L45.2856 72.7305V43.3652L66.6172 51.8588L84.8729 20.5096Z" fill="url(#paint1_linear)"/>
<path d="M70.8965 44.5129L61.5759 49.8609L45.2856 72.7305L84.8729 49.8748L70.8965 44.5129Z" fill="#BDC8FF"/>
<path d="M45.2856 43.3652L40.7275 40.6982V70.0588L45.2856 72.7305V43.3652Z" fill="#BDC8FF"/>
<path fill-rule="evenodd" clip-rule="evenodd" d="M112.376 69.4961L136.167 83.2318L159.903 69.4961L136.045 55.5681L112.376 69.4961Z" stroke="#B3DAFF" stroke-width="0.5" stroke-dasharray="2.79"/>
<path d="M135.267 72.8753L112.755 59.8784C112.251 59.5857 112.251 58.8581 112.755 58.5654L135.267 45.5685C135.825 45.2479 136.51 45.2479 137.071 45.5685L159.582 58.5654C160.087 58.8581 160.087 59.5857 159.582 59.8784L137.071 72.8753C136.513 73.1987 135.825 73.1987 135.267 72.8753Z" fill="#F0F0FF"/>
<path d="M159.582 59.293L137.071 72.2899C136.513 72.6105 135.824 72.6105 135.267 72.2899L112.755 59.293C112.605 59.2066 112.501 59.0811 112.44 58.9389C112.295 59.2735 112.401 59.6944 112.755 59.898L135.267 72.8949C135.824 73.2155 136.51 73.2155 137.071 72.8949L159.582 59.898C159.937 59.6917 160.042 59.2707 159.897 58.9389C159.836 59.0811 159.733 59.2066 159.582 59.293Z" fill="url(#paint2_linear)"/>
<path d="M123.53 58.1165L131.542 53.4887L139.557 58.1165L131.542 62.6802L123.53 58.1165Z" fill="url(#paint3_linear)"/>
<path d="M123.53 58.1165L131.542 62.6802L139.557 58.1165V58.2894L131.542 62.8363L123.53 58.242V58.1165Z" fill="#95B0E5"/>
<path d="M133.633 59.9175L141.648 55.2924L149.663 59.9175L141.648 64.4812L133.633 59.9175Z" fill="url(#paint4_linear)"/>
<path d="M133.633 59.9175L141.648 64.4812L149.663 59.9175V60.0903L141.648 64.6401L133.633 60.0457V59.9175Z" fill="#95B0E5"/>
<path d="M24.1131 28.8354L34.4184 22.8861C35.2528 22.4041 36.1937 22.9946 36.1937 23.9567V31.1819V34.2891L33.5046 32.7365L24.6107 37.8765C23.7763 38.3547 22.7386 37.7526 22.7386 36.7924V31.2148C22.7405 30.2332 23.2632 29.3272 24.1131 28.8354Z" fill="#DEF2FF"/>
<path d="M22.7405 31.2245C22.7405 30.2429 23.2652 29.3349 24.1151 28.8451L34.4048 22.8958C34.8888 22.6151 35.3903 22.6442 35.8123 23.0275C35.5413 22.981 35.276 23.0081 35.005 23.163L24.6997 29.1123C23.8498 29.604 23.3252 30.5101 23.3252 31.4916V37.0692C23.3252 37.4719 23.5072 37.8107 23.7821 38.0353C23.2168 37.9365 22.7405 37.4525 22.7405 36.802V31.2245Z" fill="url(#paint5_linear)"/>
<path d="M24.6804 31.7878L33.4601 26.7194C33.5549 26.6652 33.673 26.7329 33.673 26.8414V26.8723C33.673 27.0466 33.5801 27.2092 33.4272 27.2963L24.6494 32.3338C24.5545 32.388 24.4384 32.3202 24.4384 32.2118C24.4345 32.0356 24.5294 31.8749 24.6804 31.7878Z" fill="#A9E5FF"/>
<path d="M24.6804 33.0288L33.4601 27.9604C33.5549 27.9062 33.673 27.9739 33.673 28.0823V28.1133C33.673 28.2875 33.5801 28.4502 33.4272 28.5373L24.6494 33.5747C24.5545 33.6289 24.4384 33.5612 24.4384 33.4528C24.4345 33.2766 24.5294 33.1159 24.6804 33.0288Z" fill="#99E0FF"/>
<path d="M24.6804 34.2697L33.4601 29.2013C33.5549 29.1471 33.673 29.2149 33.673 29.3233V29.3543C33.673 29.5285 33.5801 29.6911 33.4272 29.7783L24.6494 34.8157C24.5545 34.8699 24.4384 34.8021 24.4384 34.6937C24.4345 34.5176 24.5294 34.3569 24.6804 34.2697Z" fill="#8DD6FF"/>
<path d="M131.18 20.4996L108.901 7.63692C107.098 6.59729 105.062 7.87117 105.062 9.95236V25.5739V32.2917L110.875 28.9347L130.104 40.0492C131.906 41.0811 134.15 39.7801 134.15 37.7048V25.6455C134.15 23.5217 133.017 21.5606 131.18 20.4996Z" fill="url(#paint6_linear)"/>
<path d="M134.15 25.6629C134.15 23.541 133.017 21.5799 131.18 20.519L108.934 7.65432C107.886 7.05029 106.802 7.11031 105.89 7.93891C106.477 7.83631 107.05 7.89632 107.634 8.23318L129.914 21.0959C131.751 22.1568 132.884 24.118 132.884 26.2398V38.2991C132.884 39.1703 132.489 39.9021 131.898 40.3861C133.122 40.1731 134.15 39.1258 134.15 37.7202V25.6629Z" fill="url(#paint7_linear)"/>
<path d="M109.03 12.9861L129.103 24.5555C129.391 24.722 129.567 25.0279 129.567 25.3609C129.567 25.599 129.31 25.7481 129.103 25.63L109.032 14.0625C108.744 13.896 108.568 13.5901 108.568 13.2571V13.2552C108.566 13.0151 108.823 12.866 109.03 12.9861Z" fill="#EEFBFF"/>
<path d="M109.03 15.861L129.103 27.4305C129.391 27.597 129.567 27.9028 129.567 28.2358C129.567 28.474 129.31 28.623 129.103 28.5049L109.032 16.9374C108.744 16.7709 108.568 16.465 108.568 16.132V16.1301C108.566 15.892 108.823 15.7429 109.03 15.861Z" fill="#E9FBFF"/>
<path d="M109.03 18.7379L129.103 30.3073C129.391 30.4738 129.567 30.7797 129.567 31.1127C129.567 31.3508 129.31 31.4999 129.103 31.3818L109.032 19.8143C108.744 19.6478 108.568 19.3419 108.568 19.0089V19.007C108.566 18.7669 108.823 18.6178 109.03 18.7379Z" fill="#D9F8FF"/>
<path d="M109.03 21.6128L129.103 33.1823C129.391 33.3488 129.567 33.6547 129.567 33.9877C129.567 34.2258 129.31 34.3749 129.103 34.2568L109.032 22.6892C108.744 22.5227 108.568 22.2169 108.568 21.8839V21.8819C108.566 21.6419 108.823 21.4928 109.03 21.6128Z" fill="#CAF5FF"/>
<defs>
<linearGradient id="paint0_linear" x1="41.9772" y1="139.659" x2="-73.7878" y2="91.7073" gradientUnits="userSpaceOnUse">
<stop stop-color="#F1F2FF"/>
<stop offset="0.0822" stop-color="#F4F5FF"/>
<stop offset="0.4162" stop-color="#FDFDFF"/>
<stop offset="1" stop-color="white"/>
</linearGradient>
<linearGradient id="paint1_linear" x1="108.479" y1="61.839" x2="45.9557" y2="90.6085" gradientUnits="userSpaceOnUse">
<stop stop-color="#FFA73E"/>
<stop offset="0.000706224" stop-color="#E4A566"/>
<stop offset="0.00226149" stop-color="#AC9FB8"/>
<stop offset="0.00336413" stop-color="#899CEB"/>
<stop offset="0.00390269" stop-color="#7B9BFF"/>
<stop offset="1" stop-color="#FFBCC9"/>
</linearGradient>
<linearGradient id="paint2_linear" x1="112.377" y1="73.1382" x2="159.96" y2="73.1382" gradientUnits="userSpaceOnUse">
<stop stop-color="#50BBFF" stop-opacity="0.3"/>
<stop offset="0.0196" stop-color="#56BDFF" stop-opacity="0.3137"/>
<stop offset="0.1816" stop-color="#82CBFF" stop-opacity="0.4271"/>
<stop offset="0.3455" stop-color="#A6D6FF" stop-opacity="0.5418"/>
<stop offset="0.5093" stop-color="#C2DFFF" stop-opacity="0.6565"/>
<stop offset="0.6729" stop-color="#D6E6FF" stop-opacity="0.771"/>
<stop offset="0.8364" stop-color="#E2EAFF" stop-opacity="0.8855"/>
<stop offset="1" stop-color="#E6EBFF"/>
</linearGradient>
<linearGradient id="paint3_linear" x1="136.147" y1="62.857" x2="137.621" y2="54.8166" gradientUnits="userSpaceOnUse">
<stop stop-color="#FFA73E"/>
<stop offset="0.4411" stop-color="#FFB182"/>
<stop offset="0.8165" stop-color="#FFB9B5"/>
<stop offset="1" stop-color="#FFBCC9"/>
</linearGradient>
<linearGradient id="paint4_linear" x1="133.634" y1="64.48" x2="149.662" y2="64.48" gradientUnits="userSpaceOnUse">
<stop stop-color="#FFA73E"/>
<stop offset="0.000706224" stop-color="#E4A566"/>
<stop offset="0.00226149" stop-color="#AC9FB8"/>
<stop offset="0.00336413" stop-color="#899CEB"/>
<stop offset="0.00390269" stop-color="#7B9BFF"/>
<stop offset="1" stop-color="#FFBCC9"/>
</linearGradient>
<linearGradient id="paint5_linear" x1="35.811" y1="22.7094" x2="22.7402" y2="22.7094" gradientUnits="userSpaceOnUse">
<stop stop-color="#C7FFFF"/>
<stop offset="0.1477" stop-color="#C3FFFF" stop-opacity="0.8966"/>
<stop offset="0.2954" stop-color="#B7FFFF" stop-opacity="0.7932"/>
<stop offset="0.4433" stop-color="#A3FFFF" stop-opacity="0.6897"/>
<stop offset="0.5913" stop-color="#87FFFF" stop-opacity="0.5861"/>
<stop offset="0.7394" stop-color="#62FFFF" stop-opacity="0.4824"/>
<stop offset="0.8855" stop-color="#37FFFF" stop-opacity="0.3801"/>
<stop offset="1" stop-color="#0FFFFF" stop-opacity="0.3"/>
</linearGradient>
<linearGradient id="paint6_linear" x1="63.3783" y1="19.9317" x2="117.895" y2="62.9877" gradientUnits="userSpaceOnUse">
<stop stop-color="white"/>
<stop offset="0.162" stop-color="#FBFDFF"/>
<stop offset="0.3239" stop-color="#EFF9FF"/>
<stop offset="0.4859" stop-color="#DBF0FF"/>
<stop offset="0.6481" stop-color="#BFE5FF"/>
<stop offset="0.8104" stop-color="#9BD6FF"/>
<stop offset="0.9708" stop-color="#6FC5FF"/>
<stop offset="1" stop-color="#66C1FF"/>
<stop offset="1" stop-color="#62C4FF" stop-opacity="0.8497"/>
<stop offset="1" stop-color="#56CCFF" stop-opacity="0.6995"/>
<stop offset="1" stop-color="#42DBFF" stop-opacity="0.5492"/>
<stop offset="1" stop-color="#26EFFF" stop-opacity="0.3998"/>
<stop offset="1" stop-color="#0FFFFF" stop-opacity="0.3"/>
</linearGradient>
<linearGradient id="paint7_linear" x1="105.891" y1="40.388" x2="134.15" y2="40.388" gradientUnits="userSpaceOnUse">
<stop stop-color="#C7FFFF"/>
<stop offset="0.1477" stop-color="#C3FFFF" stop-opacity="0.8966"/>
<stop offset="0.2954" stop-color="#B7FFFF" stop-opacity="0.7932"/>
<stop offset="0.4433" stop-color="#A3FFFF" stop-opacity="0.6897"/>
<stop offset="0.5913" stop-color="#87FFFF" stop-opacity="0.5861"/>
<stop offset="0.7394" stop-color="#62FFFF" stop-opacity="0.4824"/>
<stop offset="0.8855" stop-color="#37FFFF" stop-opacity="0.3801"/>
<stop offset="1" stop-color="#0FFFFF" stop-opacity="0.3"/>
</linearGradient>
</defs>
</svg>
