<svg width="185" height="89" viewBox="0 0 185 89" fill="none" xmlns="http://www.w3.org/2000/svg">
<rect width="184.32" height="88.064" fill="#F9FDFF"/>
<path d="M38.5264 12.0534V74.1431C38.5264 74.3918 38.6946 74.6478 39.0238 74.838C39.6894 75.2257 40.7721 75.2257 41.4377 74.838C41.7742 74.6405 41.9425 74.3918 41.9425 74.1358V12.0461C41.9425 11.7973 41.7742 11.5413 41.445 11.3511C40.7647 10.9561 39.6821 10.9708 39.0311 11.3511C38.6873 11.5486 38.519 11.8047 38.5264 12.068C38.5264 12.0607 38.5264 12.0534 38.5264 12.0534Z" fill="#EA9626"/>
<path d="M39.0238 12.7483C39.6895 13.136 40.7721 13.136 41.4377 12.7483C41.7742 12.5508 41.9425 12.3021 41.9425 12.0461V74.1358C41.9425 74.3918 41.7742 74.6478 41.4377 74.838C40.7721 75.2257 39.6895 75.2257 39.0238 74.838C38.6946 74.6478 38.5264 74.3918 38.5264 74.1431V12.0534C38.5264 12.3021 38.6946 12.5581 39.0238 12.7483Z" fill="#FFBF8A"/>
<path d="M11.0878 26.0543L11.1609 50.8887L12.1338 51.4519L24.5327 44.2979L24.5401 47.4433L39.8942 38.5775L39.8211 13.7431L38.8482 13.1725L28.2707 19.2806L28.2634 16.1351L11.0878 26.0543Z" fill="#FF6342"/>
<path d="M28.2634 16.1351L28.3292 40.9696L26.8662 44.9709L26.7931 20.1364L28.2634 16.1351Z" fill="#AED7FF"/>
<path d="M25.9372 18.6076L26.0104 43.442L12.1338 51.452L12.068 26.6175L25.9372 18.6076Z" fill="#86C3F2"/>
<path d="M39.8211 13.7431L39.8943 38.5776L24.5401 47.4433L24.4669 22.6089L39.8211 13.7431Z" fill="#8CD9F4"/>
<path d="M12.068 26.6175L12.1338 51.4519L11.1609 50.8887L11.0878 26.0543L12.068 26.6175Z" fill="#AED7FF"/>
<path d="M28.2634 16.1351L26.7931 20.1364L38.8482 13.1725L39.8211 13.7431L24.4669 22.6089L25.9372 18.6076L12.068 26.6175L11.0878 26.0543L28.2634 16.1351Z" fill="#909FF4"/>
<path d="M136 16.1386C136 15.1249 136.726 14.7069 137.609 15.219C138.492 15.7258 139.219 16.9746 139.219 17.9935C139.219 19.0123 138.492 19.4251 137.609 18.9131C136.721 18.401 136 17.1522 136 16.1386Z" fill="#4DBBFF"/>
<g opacity="0.5">
<path d="M142.348 19.8797C142.348 18.866 143.075 18.448 143.958 18.9601C144.841 19.4669 145.567 20.7157 145.567 21.7346C145.567 22.7534 144.841 23.1662 143.958 22.6542C143.075 22.1421 142.348 20.8986 142.348 19.8797Z" fill="#4DBBFF"/>
</g>
<g opacity="0.5">
<path fill-rule="evenodd" clip-rule="evenodd" d="M148.697 23.626C148.697 22.6124 149.423 22.1944 150.306 22.7064C151.189 23.2185 151.915 24.462 151.915 25.4809C151.915 26.4998 151.189 26.9125 150.306 26.4005C149.423 25.8884 148.697 24.6397 148.697 23.626Z" stroke="#86C3F2" stroke-width="0.5"/>
</g>
<path fill-rule="evenodd" clip-rule="evenodd" d="M50 49.2812L86.1415 70.1471L122.194 49.2812L85.9509 28.1189L50 49.2812Z" stroke="#B3DAFF" stroke-width="0.5" stroke-dasharray="4.24"/>
<path fill-rule="evenodd" clip-rule="evenodd" d="M101 66.5741L119.022 77L137 66.5741L118.927 56L101 66.5741Z" stroke="#B3DAFF" stroke-width="0.5" stroke-dasharray="2.12"/>
<path d="M84.8541 52.8471L50.6564 33.1035C49.8899 32.6588 49.8899 31.5535 50.6564 31.1088L84.8541 11.3653C85.7011 10.8782 86.7429 10.8782 87.5941 11.3653L121.792 31.1088C122.558 31.5535 122.558 32.6588 121.792 33.1035L87.5941 52.8471C86.7471 53.3341 85.7011 53.3341 84.8541 52.8471Z" fill="#F0F0FF"/>
<path d="M118.318 64.8183L101.286 54.9962C100.905 54.7749 100.905 54.2251 101.286 54.0038L118.318 44.1817C118.74 43.9394 119.258 43.9394 119.682 44.1817L136.714 54.0038C137.095 54.2251 137.095 54.7749 136.714 54.9962L119.682 64.8183C119.26 65.0606 118.74 65.0606 118.318 64.8183Z" fill="#F0F0FF"/>
<path d="M136.714 54.2743L119.682 64.3449C119.26 64.5934 118.742 64.5934 118.318 64.3449L101.286 54.2743C101.172 54.2074 101.094 54.1102 101.048 54C100.938 54.2592 101.018 54.5854 101.286 54.7431L118.318 64.8137C118.74 65.0621 119.258 65.0621 119.682 64.8137L136.714 54.7431C136.982 54.5832 137.062 54.2571 136.952 54C136.906 54.1102 136.828 54.2074 136.714 54.2743Z" fill="url(#paint0_linear)"/>
<path d="M121.792 32.2142L87.5942 51.9577C86.7472 52.4448 85.7053 52.4448 84.8541 51.9577L50.6565 32.2142C50.4278 32.0829 50.2711 31.8923 50.1779 31.6763C49.9577 32.1845 50.1186 32.824 50.6565 33.1332L84.8541 52.8767C85.7011 53.3638 86.7429 53.3638 87.5942 52.8767L121.792 33.1332C122.33 32.8198 122.491 32.1803 122.27 31.6763C122.177 31.8923 122.02 32.0829 121.792 32.2142Z" fill="url(#paint1_linear)"/>
<path opacity="0.5" d="M92.5447 24.2354C96.1529 26.3191 101.989 26.3191 105.576 24.2354C109.163 22.1518 109.142 18.7723 105.533 16.6887C101.925 14.605 96.0894 14.605 92.5066 16.6887C88.9153 18.7723 88.9323 22.1518 92.5447 24.2354Z" fill="#FAFAFF"/>
<path fill-rule="evenodd" clip-rule="evenodd" d="M110.027 23.6807C110.023 25.29 108.964 26.9035 106.846 28.1316C102.586 30.6049 95.6533 30.6049 91.3674 28.1316C89.2076 26.8866 88.1319 25.2518 88.1361 23.6171L88.1658 18.7935V18.8104C88.1658 17.1926 89.2245 15.5749 91.3463 14.3425C95.6067 11.865 102.535 11.865 106.825 14.3425C109.01 15.6003 110.09 17.2646 110.056 18.9163V18.857L110.027 23.6807ZM92.892 22.4398C96.3478 24.4345 101.934 24.4345 105.368 22.4398C106.685 21.6733 107.494 20.7246 107.795 19.7379C107.494 18.7342 106.668 17.7686 105.322 16.9894C101.866 14.9947 96.28 14.9947 92.8455 16.9894C91.5284 17.7559 90.7195 18.7003 90.4188 19.6913C90.7195 20.695 91.5453 21.6606 92.892 22.4398Z" fill="#5AAAE7"/>
<path d="M105.33 15.2106C101.875 13.216 96.2886 13.216 92.854 15.2106C91.1473 16.2016 90.2961 17.4975 90.2918 18.7977L90.2876 20.5722C90.2918 19.272 91.1473 17.9761 92.8498 16.9851C96.2844 14.9904 101.87 14.9904 105.326 16.9851C107.067 17.9888 107.935 19.3059 107.931 20.623L107.935 18.8485C107.939 17.5357 107.071 16.2143 105.33 15.2106Z" fill="#909FF4"/>
<path d="M106.876 23.308C102.616 25.7854 95.6872 25.7854 91.3972 23.308C89.2373 22.0629 88.1617 20.4282 88.1659 18.7935L88.1362 23.6171C88.132 25.2518 89.2077 26.8865 91.3675 28.1316C95.6576 30.6091 102.586 30.6091 106.846 28.1316C108.964 26.9035 110.023 25.2899 110.027 23.6806L110.057 18.857C110.052 20.4663 108.994 22.0798 106.876 23.308Z" fill="#909FF4"/>
<path fill-rule="evenodd" clip-rule="evenodd" d="M106.825 14.3425C102.535 11.865 95.6068 11.865 91.3464 14.3425C87.086 16.82 87.1114 20.8305 91.3972 23.308C95.6872 25.7855 102.616 25.7855 106.876 23.308C111.137 20.8305 111.115 16.82 106.825 14.3425ZM92.854 15.2107C96.2886 13.216 101.875 13.216 105.33 15.2107C108.786 17.2053 108.803 20.4409 105.373 22.4356C101.938 24.4303 96.3521 24.4303 92.8964 22.4356C89.4364 20.4409 89.4194 17.2053 92.854 15.2107Z" fill="#AED7FF"/>
<path d="M90.08 23.7738L82.3977 28.2163C82.584 28.1062 82.8424 28.1189 83.1261 28.2798C83.7063 28.6017 84.1849 29.4106 84.1933 30.084C84.1976 30.427 84.079 30.6684 83.8884 30.7785L91.5707 26.336C91.7655 26.2216 91.8799 25.9802 91.8756 25.6414C91.8672 24.9681 91.3886 24.1592 90.8084 23.8373C90.5247 23.6764 90.2663 23.6637 90.08 23.7738Z" fill="#8CD9F4"/>
<path d="M82.0885 28.9109C82.097 29.5842 82.5755 30.3931 83.1557 30.715C83.7359 31.0368 84.2018 30.7573 84.1933 30.084C84.1848 29.4106 83.7063 28.6017 83.1261 28.2799C82.5459 27.9538 82.08 28.2375 82.0885 28.9109Z" fill="#1D81CD"/>
<path d="M87.9116 24.6547C87.4161 24.3794 86.9672 24.3582 86.6411 24.5446L73.2712 32.2734C73.2797 32.2692 73.2882 32.265 73.2966 32.2607C72.9451 32.4513 72.7334 32.8748 72.7376 33.4847C72.7503 34.6578 73.5846 36.0638 74.5925 36.627C75.0923 36.9065 75.5454 36.9235 75.8715 36.7329C75.8673 36.7329 75.8673 36.7371 75.863 36.7371L89.2329 29.0083C89.5675 28.8135 89.775 28.3942 89.7665 27.7971C89.7538 26.624 88.9238 25.2179 87.9116 24.6547Z" fill="#78BAEC"/>
<path d="M86.6411 24.5446L73.2712 32.2735C73.5973 32.0829 74.0462 32.1041 74.5417 32.3836C75.5539 32.9468 76.384 34.3528 76.3967 35.5259C76.4051 36.1231 76.1976 36.5423 75.8631 36.7371L89.233 29.0083C89.5675 28.8135 89.775 28.3942 89.7666 27.7971C89.7539 26.624 88.9196 25.2179 87.9116 24.6547C87.4161 24.3794 86.9672 24.354 86.6411 24.5446Z" fill="#AED7FF"/>
<path d="M72.7377 33.4847C72.7504 34.6578 73.5847 36.0638 74.5926 36.627C75.6048 37.1903 76.4094 36.699 76.3967 35.5259C76.384 34.3528 75.5497 32.9468 74.5418 32.3836C73.5339 31.8203 72.725 32.3116 72.7377 33.4847Z" fill="#8CD9F4"/>
<path d="M170.421 72.9157L150.281 61.2109C150.31 61.2508 150.347 61.2828 150.387 61.3041L170.528 73.0089C170.485 72.9876 170.451 72.9557 170.421 72.9157Z" fill="#FECE00"/>
<path d="M171.715 51.2391L151.575 39.5342L150.113 40.3754L170.256 52.0829L171.715 51.2391Z" fill="#AED7FF"/>
<path d="M170.304 69.543L150.164 57.8382L150.113 40.3754L151.54 41.206L151.524 38.0302L156.946 41.182L156.96 44.3551L170.256 52.0829L170.304 69.543Z" fill="#909FF4"/>
<path d="M162.707 59.5844L142.566 47.8796L141.32 49.4715L161.461 61.1763L162.707 59.5844Z" fill="#AED7FF"/>
<path d="M161.461 61.1763L141.32 49.4715L150.278 61.2109L170.421 72.9157L161.461 61.1763Z" fill="#8CD9F4"/>
<path d="M170.256 52.0829L170.307 69.543L162.71 59.5871L161.464 61.1763L170.421 72.9184C170.557 73.0941 170.797 73.1047 171.047 72.961C171.114 72.9237 171.177 72.8758 171.244 72.8172C171.558 72.5351 171.776 72.0772 171.776 71.7019L171.718 51.2417L170.256 52.0829Z" fill="#86C3F2"/>
<path d="M158.405 40.3408L152.985 37.189L151.524 38.0302L156.946 41.182L158.405 40.3408Z" fill="#AED7FF"/>
<path d="M156.946 41.182L156.96 44.3578L158.421 43.5166L158.405 40.3408L156.946 41.182Z" fill="#8CD9F4"/>
<defs>
<linearGradient id="paint0_linear" x1="101" y1="65.0018" x2="137" y2="65.0018" gradientUnits="userSpaceOnUse">
<stop stop-color="#50BBFF" stop-opacity="0.3"/>
<stop offset="0.0196" stop-color="#56BDFF" stop-opacity="0.3137"/>
<stop offset="0.1816" stop-color="#82CBFF" stop-opacity="0.4271"/>
<stop offset="0.3455" stop-color="#A6D6FF" stop-opacity="0.5418"/>
<stop offset="0.5093" stop-color="#C2DFFF" stop-opacity="0.6565"/>
<stop offset="0.6729" stop-color="#D6E6FF" stop-opacity="0.771"/>
<stop offset="0.8364" stop-color="#E2EAFF" stop-opacity="0.8855"/>
<stop offset="1" stop-color="#E6EBFF"/>
</linearGradient>
<linearGradient id="paint1_linear" x1="50.0819" y1="53.2456" x2="122.366" y2="53.2456" gradientUnits="userSpaceOnUse">
<stop stop-color="#50BBFF" stop-opacity="0.3"/>
<stop offset="0.0196" stop-color="#56BDFF" stop-opacity="0.3137"/>
<stop offset="0.1816" stop-color="#82CBFF" stop-opacity="0.4271"/>
<stop offset="0.3455" stop-color="#A6D6FF" stop-opacity="0.5418"/>
<stop offset="0.5093" stop-color="#C2DFFF" stop-opacity="0.6565"/>
<stop offset="0.6729" stop-color="#D6E6FF" stop-opacity="0.771"/>
<stop offset="0.8364" stop-color="#E2EAFF" stop-opacity="0.8855"/>
<stop offset="1" stop-color="#E6EBFF"/>
</linearGradient>
</defs>
</svg>
