<svg width="185" height="89" viewBox="0 0 185 89" fill="none" xmlns="http://www.w3.org/2000/svg">
<rect width="184.32" height="88.064" fill="#F9FDFF"/>
<g opacity="0.3">
<path d="M132.175 10.3473L158.878 25.8897C159.836 26.4466 160.426 27.4715 160.426 28.581V73.2349C160.426 74.2958 159.279 74.9606 158.358 74.4292L131.66 59.0455C130.695 58.4886 130.102 57.4616 130.102 56.3478V11.5394C130.102 10.4743 131.256 9.81152 132.175 10.3473Z" fill="url(#paint0_linear)" stroke="#9ACFF7" stroke-width="0.7"/>
<path d="M158.838 25.8643L132.177 10.3451C131.563 9.98724 130.815 10.1693 130.396 10.686C130.688 10.6098 130.942 10.6458 131.232 10.8152L157.936 26.3576C158.893 26.9145 159.484 27.9394 159.484 29.049V73.7028C159.484 74.0564 159.414 74.3635 159.211 74.5985C159.859 74.5308 160.431 73.9612 160.431 73.2327V28.581C160.426 27.4714 159.795 26.4233 158.838 25.8643Z" fill="url(#paint1_linear)"/>
<path d="M136.979 20.2825L153.568 29.86C154.07 30.1501 154.379 30.6858 154.379 31.2639V31.3274C154.379 31.7064 153.968 31.9415 153.642 31.7509L137.051 22.1099C136.552 21.8198 136.245 21.2862 136.245 20.7081C136.242 20.3312 136.651 20.0941 136.979 20.2825Z" fill="#86C3F2"/>
<path d="M136.979 25.4006L153.568 34.9781C154.07 35.2682 154.379 35.8039 154.379 36.382V36.4455C154.379 36.8245 153.968 37.0596 153.642 36.869L137.051 27.228C136.552 26.9379 136.245 26.4043 136.245 25.8262C136.242 25.4472 136.651 25.2121 136.979 25.4006Z" fill="#86C3F2"/>
<path opacity="0.8" d="M136.979 30.5164L153.568 40.0939C154.07 40.384 154.379 40.9197 154.379 41.4978V41.5613C154.379 41.9403 153.968 42.1754 153.642 41.9848L137.051 32.3438C136.552 32.0537 136.245 31.5201 136.245 30.942C136.242 30.5651 136.651 30.328 136.979 30.5164Z" fill="#86C3F2"/>
<path opacity="0.5" d="M136.979 35.6345L153.568 45.2119C154.07 45.502 154.379 46.0378 154.379 46.6158V46.6794C154.379 47.0584 153.968 47.2934 153.642 47.1029L137.051 37.4619C136.552 37.1718 136.245 36.6382 136.245 36.0601C136.242 35.6811 136.651 35.446 136.979 35.6345Z" fill="#86C3F2"/>
<path d="M136.979 48.1616L153.568 57.739C154.07 58.0291 154.379 58.5648 154.379 59.1429V59.2064C154.379 59.5855 153.968 59.8205 153.642 59.6299L137.051 49.989C136.552 49.6989 136.245 49.1652 136.245 48.5872C136.242 48.2103 136.651 47.9731 136.979 48.1616Z" fill="#86C3F2"/>
</g>
<g opacity="0.1">
<path d="M143.175 10.3473L169.878 25.8897C170.836 26.4466 171.426 27.4715 171.426 28.581V73.2349C171.426 74.2958 170.279 74.9606 169.358 74.4292L142.66 59.0455C141.695 58.4886 141.102 57.4616 141.102 56.3478V11.5394C141.102 10.4743 142.256 9.81152 143.175 10.3473Z" fill="url(#paint2_linear)" stroke="#9ACFF7" stroke-width="0.7"/>
<path d="M169.838 25.8643L143.177 10.3451C142.563 9.98724 141.815 10.1693 141.396 10.686C141.688 10.6098 141.942 10.6458 142.232 10.8152L168.936 26.3576C169.893 26.9145 170.484 27.9394 170.484 29.049V73.7028C170.484 74.0564 170.414 74.3635 170.211 74.5985C170.859 74.5308 171.431 73.9612 171.431 73.2327V28.581C171.426 27.4714 170.795 26.4233 169.838 25.8643Z" fill="url(#paint3_linear)"/>
<path d="M147.979 20.2825L164.568 29.86C165.07 30.1501 165.379 30.6858 165.379 31.2639V31.3274C165.379 31.7064 164.968 31.9415 164.642 31.7509L148.051 22.1099C147.552 21.8198 147.245 21.2862 147.245 20.7081C147.242 20.3312 147.651 20.0941 147.979 20.2825Z" fill="#86C3F2"/>
<path d="M147.979 25.4006L164.568 34.9781C165.07 35.2682 165.379 35.8039 165.379 36.382V36.4455C165.379 36.8245 164.968 37.0596 164.642 36.869L148.051 27.228C147.552 26.9379 147.245 26.4043 147.245 25.8262C147.242 25.4472 147.651 25.2121 147.979 25.4006Z" fill="#86C3F2"/>
<path opacity="0.8" d="M147.979 30.5164L164.568 40.0939C165.07 40.384 165.379 40.9197 165.379 41.4978V41.5613C165.379 41.9403 164.968 42.1754 164.642 41.9848L148.051 32.3438C147.552 32.0537 147.245 31.5201 147.245 30.942C147.242 30.5651 147.651 30.328 147.979 30.5164Z" fill="#86C3F2"/>
<path opacity="0.5" d="M147.979 35.6345L164.568 45.2119C165.07 45.502 165.379 46.0378 165.379 46.6158V46.6794C165.379 47.0584 164.968 47.2934 164.642 47.1029L148.051 37.4619C147.552 37.1718 147.245 36.6382 147.245 36.0601C147.242 35.6811 147.651 35.446 147.979 35.6345Z" fill="#86C3F2"/>
<path d="M147.979 48.1616L164.568 57.739C165.07 58.0291 165.379 58.5648 165.379 59.1429V59.2064C165.379 59.5855 164.968 59.8205 164.642 59.6299L148.051 49.989C147.552 49.6989 147.245 49.1652 147.245 48.5872C147.242 48.2103 147.651 47.9731 147.979 48.1616Z" fill="#86C3F2"/>
</g>
<path d="M96 41.1386C96 40.1249 95.2737 39.7069 94.3907 40.219C93.5077 40.7258 92.7814 41.9746 92.7814 42.9935C92.7814 44.0123 93.5077 44.4251 94.3907 43.9131C95.2789 43.401 96 42.1522 96 41.1386Z" fill="#4DBBFF"/>
<g opacity="0.5">
<path d="M89.6516 44.8797C89.6516 43.866 88.9254 43.448 88.0423 43.9601C87.1593 44.4669 86.433 45.7157 86.433 46.7346C86.433 47.7534 87.1593 48.1662 88.0423 47.6542C88.9254 47.1421 89.6516 45.8986 89.6516 44.8797Z" fill="#4DBBFF"/>
</g>
<g opacity="0.5">
<path fill-rule="evenodd" clip-rule="evenodd" d="M83.3033 48.626C83.3033 47.6124 82.577 47.1944 81.694 47.7064C80.8109 48.2185 80.0847 49.462 80.0847 50.4809C80.0847 51.4998 80.8109 51.9125 81.694 51.4005C82.577 50.8884 83.3033 49.6397 83.3033 48.626Z" stroke="#86C3F2" stroke-width="0.5"/>
</g>
<path d="M122.175 10.3473L148.878 25.8897C149.836 26.4466 150.426 27.4715 150.426 28.581V73.2349C150.426 74.2958 149.279 74.9606 148.358 74.4292L121.66 59.0455C120.695 58.4886 120.102 57.4616 120.102 56.3478V11.5394C120.102 10.4743 121.256 9.81152 122.175 10.3473Z" fill="url(#paint4_linear)" stroke="#9ACFF7" stroke-width="0.7"/>
<path d="M148.838 25.8643L122.177 10.3451C121.563 9.98724 120.815 10.1693 120.396 10.686C120.688 10.6098 120.942 10.6458 121.232 10.8152L147.936 26.3576C148.893 26.9145 149.484 27.9394 149.484 29.049V73.7028C149.484 74.0564 149.414 74.3635 149.211 74.5985C149.859 74.5308 150.431 73.9612 150.431 73.2327V28.581C150.426 27.4714 149.795 26.4233 148.838 25.8643Z" fill="url(#paint5_linear)"/>
<path d="M126.979 20.2825L143.568 29.86C144.07 30.1501 144.379 30.6858 144.379 31.2639V31.3274C144.379 31.7064 143.968 31.9415 143.642 31.7509L127.051 22.1099C126.552 21.8198 126.245 21.2862 126.245 20.7081C126.242 20.3312 126.651 20.0941 126.979 20.2825Z" fill="#86C3F2"/>
<path d="M126.979 25.4006L143.568 34.9781C144.07 35.2682 144.379 35.8039 144.379 36.382V36.4455C144.379 36.8245 143.968 37.0596 143.642 36.869L127.051 27.228C126.552 26.9379 126.245 26.4043 126.245 25.8262C126.242 25.4472 126.651 25.2121 126.979 25.4006Z" fill="#86C3F2"/>
<path opacity="0.8" d="M126.979 30.5164L143.568 40.0939C144.07 40.384 144.379 40.9197 144.379 41.4978V41.5613C144.379 41.9403 143.968 42.1754 143.642 41.9848L127.051 32.3438C126.552 32.0537 126.245 31.5201 126.245 30.942C126.242 30.5651 126.651 30.328 126.979 30.5164Z" fill="#86C3F2"/>
<path opacity="0.5" d="M126.979 35.6345L143.568 45.2119C144.07 45.502 144.379 46.0378 144.379 46.6158V46.6794C144.379 47.0584 143.968 47.2934 143.642 47.1029L127.051 37.4619C126.552 37.1718 126.245 36.6382 126.245 36.0601C126.242 35.6811 126.651 35.446 126.979 35.6345Z" fill="#86C3F2"/>
<path d="M126.979 48.1616L143.568 57.739C144.07 58.0291 144.379 58.5648 144.379 59.1429V59.2064C144.379 59.5855 143.968 59.8205 143.642 59.6299L127.051 49.989C126.552 49.6989 126.245 49.1652 126.245 48.5872C126.242 48.2103 126.651 47.9731 126.979 48.1616Z" fill="#86C3F2"/>
<path fill-rule="evenodd" clip-rule="evenodd" d="M13 59.1199L42.0357 76L71 59.1199L41.8826 42L13 59.1199Z" stroke="#B3DAFF" stroke-width="0.5" stroke-dasharray="3.39"/>
<path d="M40.9007 61.7058L13.4613 45.8033C12.8462 45.4451 12.8462 44.5549 13.4613 44.1967L40.9007 28.2942C41.5803 27.9019 42.4163 27.9019 43.0993 28.2942L70.5387 44.1967C71.1538 44.5549 71.1538 45.4451 70.5387 45.8033L43.0993 61.7058C42.4197 62.0981 41.5803 62.0981 40.9007 61.7058Z" fill="#F0F0FF"/>
<path d="M70.5394 45.424L43.0993 60.9876C42.4197 61.3715 41.5837 61.3715 40.9007 60.9876L13.4606 45.424C13.2771 45.3205 13.1514 45.1703 13.0767 45C12.9 45.4006 13.0291 45.9047 13.4606 46.1484L40.9007 61.7121C41.5803 62.096 42.4163 62.096 43.0993 61.7121L70.5394 46.1484C70.9709 45.9014 71.1001 45.3973 70.9233 45C70.8486 45.1703 70.7229 45.3205 70.5394 45.424Z" fill="url(#paint6_linear)"/>
<path d="M48.7033 14.2454L53.4798 17.0193V36.1373L27.7068 51.0173L24.7393 49.2779V30.1629L48.7033 14.2454Z" fill="#EEBF00"/>
<path d="M53.4798 17.0193L48.7033 14.2454L24.7393 30.1629L27.7068 31.8993L53.4798 17.0193Z" fill="#FFDE56"/>
<path d="M37.5895 10.3431L48.7033 14.2454L53.4798 17.0193L41.5946 37.429L27.7068 31.8993L24.7393 30.1629L37.5895 10.3431Z" fill="#7088C4"/>
<path d="M50.5123 15.2798L48.7033 14.2453L37.5895 10.343L50.5123 15.2798Z" fill="#BDC8FF"/>
<path d="M37.5895 10.343L24.7393 30.1628L50.5123 15.2798L37.5895 10.343Z" fill="#BDC8FF"/>
<path d="M49.2145 9.07568L49.759 9.38423V37.786L31.4154 48.3765L30.9919 47.1151L30.8709 19.6662L49.2145 9.07568Z" fill="#C1C1F7"/>
<path d="M31.4154 19.9747L30.8709 19.6661L30.762 47.115L31.4154 48.3764V19.9747Z" fill="#C1C1F7"/>
<path d="M49.759 9.38423L49.2145 9.07568L30.8709 19.6662L31.4154 19.9748L49.759 9.38423Z" fill="#CCC9F4"/>
<path d="M31.4154 19.9747V48.3764L49.759 37.7859V9.38416L31.4154 19.9747Z" fill="url(#paint7_linear)"/>
<path d="M34.5191 32.6282C34.5191 32.8551 34.7671 32.9973 34.9638 32.8854L46.1321 26.4361C46.4709 26.2394 46.6796 25.8795 46.6796 25.4862C46.6796 25.2593 46.4315 25.1172 46.2349 25.2291L35.0666 31.6784C34.7278 31.875 34.5191 32.238 34.5191 32.6282Z" fill="#DADAF2"/>
<path d="M34.51 29.6879C34.51 29.9148 34.7581 30.057 34.9547 29.9451L46.123 23.4958C46.4618 23.2991 46.6705 22.9392 46.6675 22.5459C46.6675 22.319 46.4194 22.1769 46.2228 22.2888L35.0545 28.7351C34.7187 28.9347 34.51 29.2947 34.51 29.6879Z" fill="#DADAF2"/>
<path d="M34.504 26.7447C34.504 26.9716 34.752 27.1138 34.9486 27.0018L46.1169 20.5556C46.4557 20.3589 46.6645 19.999 46.6645 19.6057C46.6645 19.3788 46.4164 19.2367 46.2198 19.3486L35.0515 25.7979C34.7097 25.9915 34.5009 26.3545 34.504 26.7447Z" fill="#DADAF2"/>
<path d="M34.4949 23.8044C34.4949 24.0313 34.7429 24.1734 34.9395 24.0615L46.1078 17.6122C46.4466 17.4156 46.6554 17.0556 46.6523 16.6624C46.6523 16.4355 46.4043 16.2933 46.2077 16.4052L35.0394 22.8545C34.7006 23.0512 34.4949 23.4111 34.4949 23.8044Z" fill="#DADAF2"/>
<path d="M53.4798 17.0193V36.1373L27.7068 51.0173V31.8993L41.5946 37.429L53.4798 17.0193Z" fill="url(#paint8_linear)"/>
<path d="M44.3806 32.6465L38.3124 36.1283L27.7068 51.0173L53.4798 36.1373L44.3806 32.6465Z" fill="#BDC8FF"/>
<path d="M27.7068 31.8993L24.7393 30.163V49.2779L27.7068 51.0173V31.8993Z" fill="#BDC8FF"/>
<path d="M90 11.2778C90 10.1386 90.8131 9.67278 91.8041 10.2445C92.7951 10.8162 93.6082 12.2138 93.6082 13.353C93.6082 14.4922 92.7951 14.9581 91.8041 14.3863C90.8131 13.8146 90 12.4171 90 11.2778Z" fill="#FFB561"/>
<path d="M95.7257 14.5388C95.7257 13.3996 96.5388 12.9338 97.5298 13.5055C98.5208 14.0772 99.3339 15.4748 99.3339 16.614C99.3339 17.7532 98.5208 18.219 97.5298 17.6473C96.5388 17.0756 95.7257 15.678 95.7257 14.5388Z" fill="#FFB561"/>
<path d="M101.456 17.804C101.456 16.6648 102.269 16.1989 103.26 16.7706C104.251 17.3424 105.064 18.7399 105.064 19.8791C105.064 21.0183 104.251 21.4842 103.26 20.9125C102.265 20.3407 101.456 18.9389 101.456 17.804Z" fill="#FFB561"/>
<path d="M97 70.0172L105.686 65L114.379 70.0172L105.686 74.966L97 70.0172Z" fill="url(#paint9_linear)"/>
<path d="M107.952 71.9748L116.644 66.9576L125.33 71.9748L116.644 76.9168L107.952 71.9748Z" fill="url(#paint10_linear)"/>
<path d="M116.644 76.9168V77.17L125.33 72.2007V71.9749L116.644 76.9168Z" fill="url(#paint11_linear)"/>
<path d="M107.952 71.9749L116.644 76.9168V77.17L107.952 72.2213V71.9749Z" fill="url(#paint12_linear)"/>
<path d="M105.686 74.966V75.1987L109.423 73.0563L109.232 72.9468L105.686 74.966Z" fill="url(#paint13_linear)"/>
<path d="M97 70.0172L105.686 74.966V75.1987L97 70.2294V70.0172Z" fill="url(#paint14_linear)"/>
<defs>
<linearGradient id="paint0_linear" x1="151.977" y1="-3.67611" x2="118.505" y2="5.16254" gradientUnits="userSpaceOnUse">
<stop stop-color="white"/>
<stop offset="0.6689" stop-color="#FDFFFF"/>
<stop offset="1" stop-color="#F6FFFF"/>
</linearGradient>
<linearGradient id="paint1_linear" x1="130.394" y1="74.5982" x2="160.427" y2="74.5982" gradientUnits="userSpaceOnUse">
<stop stop-color="#EDEFFF"/>
<stop offset="0.5403" stop-color="#EFEFFE"/>
<stop offset="0.8494" stop-color="#F8F1FA"/>
<stop offset="1" stop-color="#FFF2F7"/>
</linearGradient>
<linearGradient id="paint2_linear" x1="162.977" y1="-3.67611" x2="129.505" y2="5.16254" gradientUnits="userSpaceOnUse">
<stop stop-color="white"/>
<stop offset="0.6689" stop-color="#FDFFFF"/>
<stop offset="1" stop-color="#F6FFFF"/>
</linearGradient>
<linearGradient id="paint3_linear" x1="141.394" y1="74.5982" x2="171.427" y2="74.5982" gradientUnits="userSpaceOnUse">
<stop stop-color="#EDEFFF"/>
<stop offset="0.5403" stop-color="#EFEFFE"/>
<stop offset="0.8494" stop-color="#F8F1FA"/>
<stop offset="1" stop-color="#FFF2F7"/>
</linearGradient>
<linearGradient id="paint4_linear" x1="141.977" y1="-3.67611" x2="108.505" y2="5.16254" gradientUnits="userSpaceOnUse">
<stop stop-color="white"/>
<stop offset="0.6689" stop-color="#FDFFFF"/>
<stop offset="1" stop-color="#F6FFFF"/>
</linearGradient>
<linearGradient id="paint5_linear" x1="120.394" y1="74.5982" x2="150.427" y2="74.5982" gradientUnits="userSpaceOnUse">
<stop stop-color="#EDEFFF"/>
<stop offset="0.5403" stop-color="#EFEFFE"/>
<stop offset="0.8494" stop-color="#F8F1FA"/>
<stop offset="1" stop-color="#FFF2F7"/>
</linearGradient>
<linearGradient id="paint6_linear" x1="12.9996" y1="62.0029" x2="70.9998" y2="62.0029" gradientUnits="userSpaceOnUse">
<stop stop-color="#50BBFF" stop-opacity="0.3"/>
<stop offset="0.0196" stop-color="#56BDFF" stop-opacity="0.3137"/>
<stop offset="0.1816" stop-color="#82CBFF" stop-opacity="0.4271"/>
<stop offset="0.3455" stop-color="#A6D6FF" stop-opacity="0.5418"/>
<stop offset="0.5093" stop-color="#C2DFFF" stop-opacity="0.6565"/>
<stop offset="0.6729" stop-color="#D6E6FF" stop-opacity="0.771"/>
<stop offset="0.8364" stop-color="#E2EAFF" stop-opacity="0.8855"/>
<stop offset="1" stop-color="#E6EBFF"/>
</linearGradient>
<linearGradient id="paint7_linear" x1="25.5529" y1="94.5908" x2="-49.815" y2="63.372" gradientUnits="userSpaceOnUse">
<stop stop-color="#F1F2FF"/>
<stop offset="0.0822" stop-color="#F4F5FF"/>
<stop offset="0.4162" stop-color="#FDFDFF"/>
<stop offset="1" stop-color="white"/>
</linearGradient>
<linearGradient id="paint8_linear" x1="68.8481" y1="43.9265" x2="28.1431" y2="62.6566" gradientUnits="userSpaceOnUse">
<stop stop-color="#FFA73E"/>
<stop offset="0.000706224" stop-color="#E4A566"/>
<stop offset="0.00226149" stop-color="#AC9FB8"/>
<stop offset="0.00336413" stop-color="#899CEB"/>
<stop offset="0.00390269" stop-color="#7B9BFF"/>
<stop offset="1" stop-color="#FFBCC9"/>
</linearGradient>
<linearGradient id="paint9_linear" x1="110.678" y1="75.1585" x2="112.276" y2="66.4413" gradientUnits="userSpaceOnUse">
<stop stop-color="#FFA73E"/>
<stop offset="0.4411" stop-color="#FFB182"/>
<stop offset="0.8165" stop-color="#FFB9B5"/>
<stop offset="1" stop-color="#FFBCC9"/>
</linearGradient>
<linearGradient id="paint10_linear" x1="107.954" y1="76.917" x2="125.332" y2="76.917" gradientUnits="userSpaceOnUse">
<stop stop-color="#FFA73E"/>
<stop offset="0.000706224" stop-color="#E4A566"/>
<stop offset="0.00226149" stop-color="#AC9FB8"/>
<stop offset="0.00336413" stop-color="#899CEB"/>
<stop offset="0.00390269" stop-color="#7B9BFF"/>
<stop offset="1" stop-color="#FFBCC9"/>
</linearGradient>
<linearGradient id="paint11_linear" x1="119.264" y1="74.0273" x2="119.565" y2="75.7093" gradientUnits="userSpaceOnUse">
<stop stop-color="#DBEDFF"/>
<stop offset="0.4181" stop-color="#BBCBFF"/>
<stop offset="0.7704" stop-color="#A7B6FF"/>
<stop offset="1" stop-color="#A0AEFF"/>
</linearGradient>
<linearGradient id="paint12_linear" x1="107.954" y1="77.1679" x2="116.643" y2="77.1679" gradientUnits="userSpaceOnUse">
<stop stop-color="#DBEDFF"/>
<stop offset="0.4181" stop-color="#BBCBFF"/>
<stop offset="0.7704" stop-color="#A7B6FF"/>
<stop offset="1" stop-color="#A0AEFF"/>
</linearGradient>
<linearGradient id="paint13_linear" x1="105.687" y1="75.199" x2="109.425" y2="75.199" gradientUnits="userSpaceOnUse">
<stop stop-color="#A0AEFF"/>
<stop offset="0.2296" stop-color="#A7B6FF"/>
<stop offset="0.5819" stop-color="#BBCBFF"/>
<stop offset="1" stop-color="#DBEDFF"/>
</linearGradient>
<linearGradient id="paint14_linear" x1="96.9985" y1="75.1999" x2="105.687" y2="75.1999" gradientUnits="userSpaceOnUse">
<stop stop-color="#DBEDFF"/>
<stop offset="0.4181" stop-color="#BBCBFF"/>
<stop offset="0.7704" stop-color="#A7B6FF"/>
<stop offset="1" stop-color="#A0AEFF"/>
</linearGradient>
</defs>
</svg>
