<svg width="67" height="56" viewBox="0 0 67 56" fill="none" xmlns="http://www.w3.org/2000/svg">
<mask id="mask0" mask-type="alpha" maskUnits="userSpaceOnUse" x="0" y="0" width="67" height="56">
<path fill-rule="evenodd" clip-rule="evenodd" d="M0 0H66.2496V55.5641H0V0Z" fill="white"/>
</mask>
<g mask="url(#mask0)">
<path fill-rule="evenodd" clip-rule="evenodd" d="M64.1127 50.2212C64.1127 51.9889 62.6744 53.4272 60.9071 53.4272H5.34278C3.57546 53.4272 2.13718 51.9889 2.13718 50.2212V18.1652C2.13718 16.3979 3.57546 14.9596 5.34278 14.9596H60.9071C62.6744 14.9596 64.1127 16.3979 64.1127 18.1652V50.2212ZM14.9599 12.8224H19.2343V10.6852H14.9599V12.8224ZM21.3708 2.13718H44.8791C47.8249 2.13718 50.2219 4.53379 50.2219 7.47964V8.54807H48.0847V7.47964C48.0847 5.71232 46.6464 4.27403 44.8791 4.27403H21.3708C19.6035 4.27403 18.1652 5.71232 18.1652 7.47964V8.54807H16.0283V7.47964C16.0283 4.53379 18.4253 2.13718 21.3708 2.13718V2.13718ZM20.3024 8.84547V7.47964C20.3024 6.8899 20.7823 6.41121 21.3708 6.41121H44.8791C45.4676 6.41121 45.9475 6.8899 45.9475 7.47964V8.84547C45.3116 9.21627 44.8791 9.89776 44.8791 10.6852V12.8224H21.3708V10.6852C21.3708 9.89776 20.9383 9.21627 20.3024 8.84547V8.84547ZM47.016 12.8224H51.2903V10.6852H47.016V12.8224ZM60.9071 12.8224H53.4275V10.6852C53.4275 9.89776 52.9943 9.21627 52.3587 8.84547V7.47964C52.3587 3.3562 49.0035 0 44.8791 0H21.3708C17.2464 0 13.8915 3.3562 13.8915 7.47964V8.84547C13.2555 9.21627 12.8227 9.89776 12.8227 10.6852V12.8224H5.34278C2.39693 12.8224 0 15.219 0 18.1652V50.2212C0 53.1674 2.39693 55.5643 5.34278 55.5643H60.9071C63.8533 55.5643 66.2499 53.1674 66.2499 50.2212V18.1652C66.2499 15.219 63.8533 12.8224 60.9071 12.8224V12.8224Z" fill="#0077B2"/>
</g>
<path fill-rule="evenodd" clip-rule="evenodd" d="M40.8859 29.0478C40.8859 33.3342 37.411 36.8087 33.1253 36.8087C28.8386 36.8087 25.3638 33.3342 25.3638 29.0478C25.3638 24.7615 28.8386 21.2866 33.1253 21.2866C37.411 21.2866 40.8859 24.7615 40.8859 29.0478Z" stroke="#33BBFF" stroke-width="1.88628" stroke-linecap="round"/>
<path d="M2.13721 45.21L7.374 43.7024C13.5587 41.9221 20.0702 41.4156 26.476 42.2167L39.6813 44.184C46.7499 45.068 53.9363 44.4447 60.7211 42.36L64.1128 41.0015" stroke="#0077B2" stroke-width="1.93279" stroke-linecap="round"/>
<path d="M2.13721 50.2315L7.374 48.7239C13.5587 46.9436 20.0702 46.4374 26.476 47.2382L39.6813 49.2058C46.7499 50.0898 53.9363 49.4665 60.7211 47.3818L64.1128 46.0229" stroke="#0077B2" stroke-width="1.93279" stroke-linecap="round"/>
<mask id="mask1" mask-type="alpha" maskUnits="userSpaceOnUse" x="0" y="0" width="67" height="56">
<path fill-rule="evenodd" clip-rule="evenodd" d="M0 55.5643H66.2496V0H0V55.5643Z" fill="white"/>
</mask>
<g mask="url(#mask1)">
<path fill-rule="evenodd" clip-rule="evenodd" d="M2.13721 30.4731H25.3639V27.7822H2.13721V30.4731Z" fill="#33BBFF"/>
<path fill-rule="evenodd" clip-rule="evenodd" d="M41.4316 30.4731H64.1126V27.7822H41.4316V30.4731Z" fill="#33BBFF"/>
<path fill-rule="evenodd" clip-rule="evenodd" d="M30.4517 26.7792H35.7979V17.731H30.4517V26.7792Z" stroke="#0077B2" stroke-width="1.93279" stroke-linecap="round"/>
</g>
</svg>
