<svg width="72" height="56" viewBox="0 0 72 56" fill="none" xmlns="http://www.w3.org/2000/svg">
<path fill-rule="evenodd" clip-rule="evenodd" d="M13.4445 46.4155H13.4332C12.8518 46.4155 12.3857 46.8872 12.3857 47.4686C12.3857 48.0501 12.8631 48.5214 13.4445 48.5214C14.026 48.5214 14.4976 48.0501 14.4976 47.4686C14.4976 46.8872 14.026 46.4155 13.4445 46.4155" fill="#33BBFF"/>
<path fill-rule="evenodd" clip-rule="evenodd" d="M22.4489 46.4155H22.4376C21.8562 46.4155 21.3901 46.8872 21.3901 47.4686C21.3901 48.0501 21.8672 48.5214 22.4489 48.5214C23.0304 48.5214 23.5017 48.0501 23.5017 47.4686C23.5017 46.8872 23.0304 46.4155 22.4489 46.4155" fill="#33BBFF"/>
<path fill-rule="evenodd" clip-rule="evenodd" d="M59.59 46.4155H59.5787C58.9973 46.4155 58.5312 46.8872 58.5312 47.4686C58.5312 48.0501 59.0086 48.5214 59.59 48.5214C60.1715 48.5214 60.6428 48.0501 60.6428 47.4686C60.6428 46.8872 60.1715 46.4155 59.59 46.4155" fill="#33BBFF"/>
<mask id="mask0" mask-type="alpha" maskUnits="userSpaceOnUse" x="0" y="14" width="72" height="40">
<path fill-rule="evenodd" clip-rule="evenodd" d="M0 14.9028H71.8865V53.0238H0V14.9028Z" fill="white"/>
</mask>
<g mask="url(#mask0)">
<path fill-rule="evenodd" clip-rule="evenodd" d="M69.7804 45.2187C69.7804 45.2588 69.7481 45.2911 69.708 45.2911H64.6883C63.8393 43.3076 61.8689 41.9143 59.5785 41.9143C59.5715 41.9143 59.5642 41.9146 59.5572 41.9146H56.1296V23.8345V23.8338C56.1296 23.7934 56.1623 23.7611 56.2023 23.7611H64.4471L65.2457 26.1569H59.5785C58.9971 26.1569 58.5257 26.6286 58.5257 27.21V32.8375C58.5257 34.0391 59.5028 35.0161 60.704 35.0161H69.2721L69.4295 35.1739C69.6557 35.4001 69.7804 35.701 69.7804 36.0209V38.5381H68.5825C68.0011 38.5381 67.5294 39.0098 67.5294 39.5912C67.5294 40.173 68.0011 40.6443 68.5825 40.6443H69.7804V45.2187ZM59.5785 50.918C57.6768 50.918 56.1296 49.3708 56.1296 47.4691C56.1296 45.5747 57.6654 44.0325 59.5572 44.0208H59.5788C59.5812 44.0208 59.5835 44.0205 59.5858 44.0202C61.4846 44.0242 63.0277 45.5696 63.0277 47.4691C63.0274 49.3708 61.4803 50.918 59.5785 50.918V50.918ZM67.4967 32.9102H60.704C60.664 32.9102 60.6316 32.8775 60.6316 32.8375V28.2631H65.9479L67.4967 32.9102ZM54.1248 46.4159H27.8909C27.7188 45.5233 27.3325 44.7063 26.7874 44.0205H55.8714C56.4528 44.0205 56.9242 43.5491 56.9242 42.9674C56.9242 42.3859 56.4528 41.9146 55.8714 41.9146H2.17847C2.13844 41.9146 2.10575 41.8822 2.10575 41.8419V17.0811C2.10575 17.0411 2.13844 17.0087 2.17847 17.0087H53.951C53.991 17.0087 54.0237 17.0411 54.0237 17.0811V41.9146H51.7006C51.1192 41.9146 50.6475 42.3859 50.6475 42.9677C50.6475 43.5491 51.1192 44.0208 51.7006 44.0208H55.2283C54.6835 44.7067 54.2969 45.5233 54.1248 46.4159V46.4159ZM22.4372 50.918C20.5355 50.918 18.9883 49.3708 18.9883 47.4691C18.9883 45.5747 20.5238 44.0325 22.4159 44.0208H22.4592C24.351 44.0322 25.8864 45.5743 25.8864 47.4691C25.8861 49.3708 24.339 50.918 22.4372 50.918V50.918ZM13.4332 50.918C11.5314 50.918 9.98427 49.3708 9.98427 47.4691C9.98427 45.5747 11.5201 44.0325 13.4118 44.0208H13.4549C15.3466 44.0322 16.8824 45.5743 16.8824 47.4691C16.8824 49.3708 15.3349 50.918 13.4332 50.918V50.918ZM7.97945 46.4159H5.55465C5.51495 46.4159 5.48226 46.3836 5.48226 46.3436V44.0208H9.08294C8.5382 44.7067 8.15158 45.5233 7.97945 46.4159V46.4159ZM65.9419 21.6552H56.1296V14.9028H-0.000488281V44.0205H3.37636V46.3436C3.37636 47.5465 4.35142 48.5218 5.55465 48.5218H7.97945C8.47348 51.0828 10.7302 53.0239 13.4332 53.0239C15.2842 53.0239 16.9254 52.1132 17.9352 50.7171C18.9449 52.1132 20.5862 53.0239 22.4372 53.0239C25.1402 53.0239 27.3972 51.0828 27.8909 48.5218H54.1248C54.6185 51.0828 56.8755 53.0239 59.5785 53.0239C62.6418 53.0239 65.1333 50.5317 65.1333 47.4687C65.1333 47.4447 65.1316 47.421 65.1313 47.397H69.7077C70.9113 47.397 71.8863 46.4216 71.8863 45.2184V36.0209C71.8863 35.1386 71.5427 34.3086 70.9186 33.6848L69.5029 32.2688L66.6504 23.7117L65.9419 21.6552Z" fill="#0077B2"/>
</g>
<path d="M55.1292 11.9002C55.1292 11.9002 44.9336 4.39699 8.08252 8.98207" stroke="#33BBFF" stroke-width="1.89374" stroke-linecap="round"/>
<path d="M55.1289 7.54385C55.1289 7.54385 46.8111 1.50803 29.8018 3.26867" stroke="#33BBFF" stroke-width="1.89374" stroke-linecap="round"/>
<mask id="mask1" mask-type="alpha" maskUnits="userSpaceOnUse" x="0" y="2" width="72" height="52">
<path fill-rule="evenodd" clip-rule="evenodd" d="M0 53.0236H71.8865V2H0V53.0236Z" fill="white"/>
</mask>
<g mask="url(#mask1)">
<path fill-rule="evenodd" clip-rule="evenodd" d="M-0.000488281 17.0087H56.1296V14.9028H-0.000488281V17.0087Z" fill="#33BBFF"/>
<path fill-rule="evenodd" clip-rule="evenodd" d="M0 43.9521H2.1059V14.9028H0V43.9521Z" fill="#33BBFF"/>
<path fill-rule="evenodd" clip-rule="evenodd" d="M54.0239 43.9521H54.1991C55.2655 43.9521 56.1295 43.0878 56.1295 42.0217V14.9028H54.0239V43.9521Z" fill="#33BBFF"/>
<path fill-rule="evenodd" clip-rule="evenodd" d="M56.1301 41.9146H0V44.0205H55.0369C55.6407 44.0205 56.1301 43.5311 56.1301 42.9273V41.9146Z" fill="#33BBFF"/>
</g>
</svg>
