<svg width="57" height="57" viewBox="0 0 57 57" fill="none" xmlns="http://www.w3.org/2000/svg">
<mask id="mask0" mask-type="alpha" maskUnits="userSpaceOnUse" x="9" y="0" width="48" height="48">
<path fill-rule="evenodd" clip-rule="evenodd" d="M9.13574 0H56.4182V47.2747H9.13574V0Z" fill="white"/>
</mask>
<g mask="url(#mask0)">
<path fill-rule="evenodd" clip-rule="evenodd" d="M31.4891 44.016C32.5364 41.5409 32.8704 38.8177 32.4512 36.1176C34.895 35.1322 37.2227 33.8751 39.4032 32.3934C39.1239 35.7297 37.6808 38.9106 35.2909 41.3005C34.1737 42.4177 32.8857 43.3332 31.4891 44.016M28.1163 35.8901L20.5281 28.3019C23.7636 16.8734 33.3048 7.28557 44.2912 3.66991L52.7406 12.1193C49.1406 23.1214 39.5451 32.6546 28.1163 35.8901M12.3945 24.937C13.085 23.5325 14.0008 22.2449 15.1104 21.1353C17.4999 18.7454 20.6731 17.2946 24.0095 17.0153C22.5354 19.1878 21.2784 21.5155 20.2853 23.9673C17.5931 23.5558 14.8773 23.8817 12.3945 24.937M51.6623 2.16487L54.4787 1.93983L54.2537 4.75617C54.1062 6.59513 53.7879 8.40278 53.3149 10.1798L46.231 3.096C48.0154 2.63026 49.823 2.31235 51.6623 2.16487M41.2189 31.0897C49.4975 24.751 55.2077 15.1144 56.0227 4.896L56.4182 0L51.5149 0.387826C41.3041 1.21043 31.6676 6.92104 25.3288 15.1997C21.0457 15.1687 16.887 16.8445 13.8533 19.8783C11.9834 21.7482 10.6022 24.0602 9.83418 26.5819L9.13574 28.8939L11.1688 27.5906C13.7058 25.969 16.6777 25.3096 19.6568 25.6821C19.3775 26.4734 18.8832 27.5263 18.6662 28.3332L18.5264 28.8296L27.581 37.8842L28.0777 37.7447C28.8846 37.5273 29.9375 37.033 30.7288 36.7537C31.1013 39.7176 30.4495 42.697 28.8199 45.2421L27.5166 47.2748L29.8286 46.5763C32.3427 45.816 34.6627 44.4275 36.5246 42.5652C39.574 39.5315 41.2498 35.3725 41.2189 31.0897" fill="#0077B2"/>
</g>
<path d="M16.6808 55.5312C16.6808 55.5312 15.7827 49.7263 18.278 47.518C21.3211 44.8244 26.2081 44.3493 25.1802 37.7222" stroke="#33BBFF" stroke-width="1.3913" stroke-linecap="round"/>
<path d="M1 39.8509C1 39.8509 6.80487 40.749 9.01357 38.2537C11.7068 35.2106 12.1819 30.3236 18.809 31.3515" stroke="#33BBFF" stroke-width="1.3913" stroke-linecap="round"/>
<path d="M21.9441 34.4863L8.79004 47.6404" stroke="#33BBFF" stroke-width="1.3913" stroke-linecap="round"/>
<path fill-rule="evenodd" clip-rule="evenodd" d="M37.4782 17.5474H38.2261C39.5217 17.5474 39.8375 16.8101 39.8375 16.1888C39.8375 15.5673 39.5217 14.9036 38.2261 14.9036H37.4782V17.5474ZM37.4782 20.1913V21.6556H36.3405V20.1913H35.4243V19.2855H36.3405V18.5269H35.4243V17.5474H36.3405V13.8608H38.2261C40.0904 13.8608 40.9753 14.7982 40.9753 16.2097C40.9753 17.632 40.0904 18.5269 38.2261 18.5269H37.4782V19.2855H39.4692V20.1913H37.4782Z" fill="#33BBFF"/>
<path fill-rule="evenodd" clip-rule="evenodd" d="M44.9101 17.758C44.9101 21.4641 41.9056 24.4686 38.1999 24.4686C34.4934 24.4686 31.4893 21.4641 31.4893 17.758C31.4893 14.0519 34.4934 11.0474 38.1999 11.0474C41.9056 11.0474 44.9101 14.0519 44.9101 17.758Z" stroke="#0077B2" stroke-width="1.04348" stroke-linecap="round"/>
</svg>
