<svg width="61" height="58" viewBox="0 0 61 58" fill="none" xmlns="http://www.w3.org/2000/svg">
<path fill-rule="evenodd" clip-rule="evenodd" d="M11.8646 10.6774C11.8597 10.6837 11.8554 10.6903 11.8509 10.6971L7.34886 17.3803L2.84771 10.698C2.84343 10.6911 2.83829 10.684 2.83371 10.6774C2.11829 9.70857 1.74 8.55771 1.74 7.34943C1.74 4.25657 4.25629 1.74029 7.34886 1.74029C10.442 1.74029 12.958 4.25657 12.958 7.34943C12.958 8.55771 12.5797 9.70857 11.8646 10.6774M7.34886 1C3.848 1 1 3.84829 1 7.34943C1 8.71343 1.42571 10.0131 2.23143 11.1086L7.042 18.2494C7.11057 18.3514 7.226 18.4126 7.34886 18.4126C7.472 18.4126 7.58714 18.3514 7.656 18.2494L12.4663 11.1086C13.2723 10.0131 13.698 8.71343 13.698 7.34943C13.698 3.84829 10.8497 1 7.34886 1" fill="#0077B2"/>
<path d="M11.8646 10.6774L12.3168 11.0269L12.3243 11.0168L11.8646 10.6774ZM11.8509 10.6971L12.3248 11.0164L12.3263 11.0141L11.8509 10.6971ZM7.34886 17.3803L6.87492 17.6995L7.34884 18.4031L7.82278 17.6995L7.34886 17.3803ZM2.84771 10.698L2.36314 11.0009L2.36832 11.0091L2.37378 11.0172L2.84771 10.698ZM2.83371 10.6774L3.3028 10.3511L3.29819 10.3445L3.2934 10.338L2.83371 10.6774ZM2.23143 11.1086L2.70535 10.7893L2.69875 10.7795L2.69175 10.77L2.23143 11.1086ZM7.042 18.2494L7.51623 17.9306L7.51592 17.9302L7.042 18.2494ZM7.656 18.2494L8.12961 18.5691L8.12993 18.5687L7.656 18.2494ZM12.4663 11.1086L12.006 10.7699L11.999 10.7795L11.9924 10.7893L12.4663 11.1086ZM11.4124 10.328C11.401 10.3428 11.392 10.3557 11.3861 10.3642C11.3812 10.3714 11.3756 10.3799 11.3754 10.3802L12.3263 11.0141C12.3271 11.0129 12.3279 11.0118 12.3283 11.0111C12.3289 11.0102 12.3292 11.0097 12.3295 11.0093C12.33 11.0085 12.3298 11.009 12.3291 11.01C12.3277 11.0119 12.3233 11.0183 12.3167 11.0268L11.4124 10.328ZM11.3769 10.3779L6.87493 17.061L7.82278 17.6995L12.3248 11.0164L11.3769 10.3779ZM7.82279 17.061L3.32165 10.3788L2.37378 11.0172L6.87492 17.6995L7.82279 17.061ZM3.33228 10.3951C3.32344 10.381 3.31547 10.3693 3.31099 10.3628C3.30861 10.3594 3.30647 10.3563 3.30518 10.3545C3.30356 10.3522 3.30321 10.3517 3.3028 10.3511L2.36463 11.0038C2.3665 11.0065 2.36851 11.0093 2.36927 11.0104C2.36979 11.0111 2.37012 11.0116 2.37037 11.012C2.37061 11.0123 2.37069 11.0124 2.37066 11.0124C2.37063 11.0123 2.36989 11.0113 2.36872 11.0095C2.36756 11.0078 2.3656 11.0048 2.36314 11.0009L3.33228 10.3951ZM3.2934 10.338C2.65078 9.46774 2.31143 8.43592 2.31143 7.34943H1.16857C1.16857 8.6795 1.58579 9.94941 2.37403 11.0169L3.2934 10.338ZM2.31143 7.34943C2.31143 4.57214 4.5719 2.31171 7.34886 2.31171V1.16886C3.94068 1.16886 1.16857 3.941 1.16857 7.34943H2.31143ZM7.34886 2.31171C10.1264 2.31171 12.3866 4.57214 12.3866 7.34943H13.5294C13.5294 3.941 10.7576 1.16886 7.34886 1.16886V2.31171ZM12.3866 7.34943C12.3866 8.43593 12.0472 9.46778 11.4048 10.3381L12.3243 11.0168C13.1122 9.94936 13.5294 8.6795 13.5294 7.34943H12.3866ZM7.34886 0.428571C3.53236 0.428571 0.428571 3.53274 0.428571 7.34943H1.57143C1.57143 4.16383 4.16364 1.57143 7.34886 1.57143V0.428571ZM0.428571 7.34943C0.428571 8.83482 0.892964 10.2532 1.77111 11.4471L2.69175 10.77C1.95846 9.77304 1.57143 8.59204 1.57143 7.34943H0.428571ZM1.75751 11.4278L6.56808 18.5687L7.51592 17.9302L2.70535 10.7893L1.75751 11.4278ZM6.56777 18.5682C6.74309 18.829 7.03678 18.984 7.34886 18.984V17.8411C7.41522 17.8411 7.47805 17.8738 7.51623 17.9306L6.56777 18.5682ZM7.34886 18.984C7.66166 18.984 7.95438 18.8287 8.12961 18.5691L7.18239 17.9297C7.2199 17.8741 7.28234 17.8411 7.34886 17.8411V18.984ZM8.12993 18.5687L12.9402 11.4278L11.9924 10.7893L7.18207 17.9302L8.12993 18.5687ZM12.9265 11.4472C13.805 10.2533 14.2694 8.83483 14.2694 7.34943H13.1266C13.1266 8.59203 12.7395 9.773 12.006 10.7699L12.9265 11.4472ZM14.2694 7.34943C14.2694 3.53271 11.1653 0.428571 7.34886 0.428571V1.57143C10.5341 1.57143 13.1266 4.16386 13.1266 7.34943H14.2694Z" fill="#33BBFF"/>
<path fill-rule="evenodd" clip-rule="evenodd" d="M9.68899 7.42077C9.68899 8.71277 8.64128 9.76048 7.34928 9.76048C6.05699 9.76048 5.00928 8.71277 5.00928 7.42077C5.00928 6.12877 6.05699 5.08105 7.34928 5.08105C8.64128 5.08105 9.68899 6.12877 9.68899 7.42077Z" stroke="#33BBFF" stroke-width="1.14286" stroke-linecap="round"/>
<path fill-rule="evenodd" clip-rule="evenodd" d="M58.578 49.0871C58.5731 49.0934 58.5688 49.1 58.5642 49.1065L54.0622 55.79L49.5611 49.1077C49.5568 49.1008 49.552 49.0937 49.5471 49.0871C48.8317 48.118 48.4534 46.9674 48.4534 45.7588C48.4534 42.666 50.9697 40.15 54.0622 40.15C57.1554 40.15 59.6714 42.666 59.6714 45.7591C59.6714 46.9674 59.2934 48.1182 58.578 49.0871M54.0622 39.4097C50.5614 39.4097 47.7134 42.258 47.7134 45.7591C47.7134 47.1231 48.1391 48.4228 48.9451 49.518L53.7554 56.6591C53.8242 56.7611 53.9394 56.8222 54.0622 56.8222C54.1857 56.8222 54.3005 56.7611 54.3694 56.6591L59.1797 49.518C59.9857 48.4228 60.4117 47.1231 60.4117 45.7591C60.4117 42.258 57.5634 39.4097 54.0622 39.4097" fill="#0077B2"/>
<path d="M58.578 49.0871L59.0302 49.4366L59.0376 49.4265L58.578 49.0871ZM58.5642 49.1065L58.0951 48.7802L58.0903 48.7873L58.5642 49.1065ZM54.0622 55.79L53.5883 56.1092L54.0622 56.8128L54.5362 56.1092L54.0622 55.79ZM49.5611 49.1077L49.0765 49.4105L49.0817 49.4188L49.0872 49.4269L49.5611 49.1077ZM49.5471 49.0871L49.0874 49.4265L49.0876 49.4267L49.5471 49.0871ZM48.9451 49.518L49.419 49.1987L49.4124 49.1888L49.4053 49.1792L48.9451 49.518ZM53.7554 56.6591L53.2814 56.9783L53.2818 56.9788L53.7554 56.6591ZM54.3694 56.6591L54.843 56.9788L54.8433 56.9783L54.3694 56.6591ZM59.1797 49.518L58.7194 49.1792L58.7124 49.1888L58.7057 49.1987L59.1797 49.518ZM58.1258 48.7377C58.1145 48.7523 58.1058 48.7647 58.1012 48.7714C58.0989 48.7747 58.0967 48.7779 58.096 48.779C58.0948 48.7807 58.0949 48.7806 58.0951 48.7802L59.0333 49.4328C59.0359 49.4291 59.0382 49.4258 59.0393 49.4242C59.0408 49.4221 59.0408 49.422 59.0408 49.422C59.0407 49.4222 59.0365 49.4282 59.0301 49.4365L58.1258 48.7377ZM58.0903 48.7873L53.5883 55.4707L54.5362 56.1092L59.0382 49.4258L58.0903 48.7873ZM54.5362 55.4707L50.035 48.7884L49.0872 49.4269L53.5883 56.1092L54.5362 55.4707ZM50.0457 48.8048C50.0335 48.7854 50.0203 48.766 50.0066 48.7474L49.0876 49.4267C49.0854 49.4238 49.0835 49.4211 49.0819 49.4187C49.0803 49.4164 49.0785 49.4137 49.0765 49.4105L50.0457 48.8048ZM50.0068 48.7477C49.3641 47.8771 49.0248 46.8456 49.0248 45.7588H47.882C47.882 47.0892 48.2992 48.3588 49.0874 49.4265L50.0068 48.7477ZM49.0248 45.7588C49.0248 42.9816 51.2852 40.7214 54.0622 40.7214V39.5785C50.6541 39.5785 47.882 42.3503 47.882 45.7588H49.0248ZM54.0622 40.7214C56.8398 40.7214 59.1 42.9815 59.1 45.7591H60.2428C60.2428 42.3504 57.471 39.5785 54.0622 39.5785V40.7214ZM59.1 45.7591C59.1 46.8457 58.7608 47.8775 58.1183 48.7477L59.0376 49.4265C59.8259 48.359 60.2428 47.0891 60.2428 45.7591H59.1ZM54.0622 38.8382C50.2457 38.8382 47.142 41.9424 47.142 45.7591H48.2848C48.2848 42.5735 50.877 39.9811 54.0622 39.9811V38.8382ZM47.142 45.7591C47.142 47.2445 47.6063 48.663 48.4849 49.8567L49.4053 49.1792C48.6718 48.1826 48.2848 47.0017 48.2848 45.7591H47.142ZM48.4712 49.8372L53.2814 56.9783L54.2293 56.3399L49.419 49.1987L48.4712 49.8372ZM53.2818 56.9788C53.4569 57.2382 53.7495 57.3937 54.0622 57.3937V56.2508C54.1293 56.2508 54.1916 56.284 54.229 56.3394L53.2818 56.9788ZM54.0622 57.3937C54.3756 57.3937 54.6679 57.2382 54.843 56.9788L53.8958 56.3394C53.9331 56.284 53.9958 56.2508 54.0622 56.2508V57.3937ZM54.8433 56.9783L59.6536 49.8372L58.7057 49.1987L53.8954 56.3399L54.8433 56.9783ZM59.6399 49.8567C60.5184 48.663 60.9831 47.2446 60.9831 45.7591H59.8402C59.8402 47.0016 59.453 48.1826 58.7194 49.1792L59.6399 49.8567ZM60.9831 45.7591C60.9831 41.9424 57.879 38.8382 54.0622 38.8382V39.9811C57.2478 39.9811 59.8402 42.5735 59.8402 45.7591H60.9831Z" fill="#33BBFF"/>
<path fill-rule="evenodd" clip-rule="evenodd" d="M56.4021 45.8304C56.4021 47.1224 55.3544 48.1699 54.0624 48.1699C52.7701 48.1699 51.7227 47.1224 51.7227 45.8304C51.7227 44.5382 52.7701 43.4907 54.0624 43.4907C55.3544 43.4907 56.4021 44.5382 56.4021 45.8304Z" stroke="#33BBFF" stroke-width="1.14286" stroke-linecap="round"/>
<path d="M37.1649 15.7793H18.5858C16.9878 15.7793 15.6923 14.4839 15.6923 12.8856C15.6923 11.2876 16.9878 9.99219 18.5858 9.99219H51.6466C53.2443 9.99219 54.54 11.2876 54.54 12.8856V33.4448C54.54 35.0428 53.2443 36.3382 51.6466 36.3382H14.3466C10.8763 36.3382 8.06348 39.1513 8.06348 42.621C8.06348 45.9379 10.752 48.6265 14.0686 48.6265H42.8672C44.4655 48.6265 45.7606 49.9219 45.7606 51.5199V51.7428C45.7606 53.341 44.4655 54.6362 42.8672 54.6362H28.7489" stroke="#0077B2" stroke-width="2.28571" stroke-linecap="round"/>
<path d="M41.3771 15.625H41.9614C46.2565 15.625 49.7382 19.107 49.7382 23.4019C49.7382 27.6967 46.2565 31.1787 41.9614 31.1787H16.4048" stroke="#33BBFF" stroke-width="2.28571" stroke-linecap="round"/>
</svg>
