<svg width="56" height="56" viewBox="0 0 56 56" fill="none" xmlns="http://www.w3.org/2000/svg">
<mask id="mask0" mask-type="alpha" maskUnits="userSpaceOnUse" x="0" y="0" width="56" height="56">
<path fill-rule="evenodd" clip-rule="evenodd" d="M0 0H55.6252V55.6781H0V0Z" fill="white"/>
</mask>
<g mask="url(#mask0)">
<path fill-rule="evenodd" clip-rule="evenodd" d="M53.6771 43.8467C52.633 49.6755 47.5872 53.9382 41.7584 53.9382H40.8886C40.4534 53.9382 40.0186 53.8512 39.6704 53.7645C33.0589 52.6333 28.7088 46.2826 29.84 39.6707C30.7968 34.103 35.4077 30.0141 40.8886 29.5792H41.7584C42.4544 29.5792 43.1504 29.6662 43.8464 29.7533C50.4582 30.8842 54.808 37.2349 53.6771 43.8467V43.8467ZM1.73984 53.9382V1.74016H31.3187V9.56992C31.3187 10.0918 31.6669 10.44 32.1888 10.44H40.0186V27.9264C33.9286 28.7091 29.2307 33.233 28.1869 39.3229C27.056 45.3258 30.0138 51.3283 34.9728 53.9382H1.73984ZM33.0589 2.95808L38.8006 8.69984H33.0589V2.95808ZM44.1946 28.0131C43.4115 27.9264 42.6285 27.8394 41.7584 27.8394V9.56992C41.7584 9.3088 41.6714 9.13472 41.4973 8.96064L32.7978 0.26112C32.6237 0.08704 32.4499 0 32.1888 0H0.86976C0.34784 0 0 0.34816 0 0.87008V54.8083C0 55.2432 0.34784 55.6784 0.86976 55.6784H40.8886C40.9757 55.6784 41.0624 55.6784 41.1494 55.5914H41.7584C48.4573 55.5914 54.199 50.7194 55.417 44.1075C56.7219 36.5389 51.7632 29.3181 44.1946 28.0131V28.0131Z" fill="#0077B2"/>
</g>
<path fill-rule="evenodd" clip-rule="evenodd" d="M48.2862 35.787L38.3684 45.5307L35.4977 42.6596C35.1495 42.3118 34.6276 42.3118 34.2794 42.6596C33.9316 43.0075 33.9316 43.5297 34.2794 43.8776L37.7594 47.3576C37.9335 47.5316 38.1943 47.6187 38.3684 47.6187C38.6295 47.6187 38.8036 47.5316 38.9774 47.3576L49.5041 37.0049C49.8522 36.6568 49.8522 36.1348 49.5041 35.787C49.1562 35.4388 48.634 35.4388 48.2862 35.787" fill="#33BBFF"/>
<path d="M6.57617 22.3737C6.57617 22.3737 12.4354 17.5507 16.4978 18.8803C21.452 20.5017 25.1368 25.6396 31.8242 20.1305" stroke="#33BBFF" stroke-width="1.28" stroke-linecap="round"/>
<path d="M6.57617 11.1896C6.57617 11.1896 10.7653 7.7755 13.6792 8.72846C17.2328 9.89006 19.884 13.5477 24.6651 9.64782" stroke="#33BBFF" stroke-width="1.28" stroke-linecap="round"/>
<path d="M6.57617 28.2604C6.57617 28.2604 12.4354 23.4374 16.4978 24.767C21.452 26.3884 25.1368 31.5264 31.8242 26.0172" stroke="#33BBFF" stroke-width="1.28" stroke-linecap="round"/>
<path d="M6.57617 38.39C6.57617 38.39 10.7653 34.9759 13.6792 35.9286C17.2328 37.0905 19.884 40.7478 24.6651 36.8482" stroke="#33BBFF" stroke-width="1.28" stroke-linecap="round"/>
</svg>
