<svg width="72" height="57" viewBox="0 0 72 57" fill="none" xmlns="http://www.w3.org/2000/svg">
<path fill-rule="evenodd" clip-rule="evenodd" d="M55.4964 54.3408H63.2417V24.2355H55.4964V54.3408ZM39.7369 54.3408H47.4819V35.0114H39.7369V54.3408ZM24.0439 54.3408H31.7892V33.395H24.0439V54.3408ZM8.28403 54.3408H16.0294V39.7259H8.28403V54.3408ZM70.3808 54.3408H65.3968V23.1574C65.3968 22.5516 64.9253 22.0801 64.3191 22.0801H54.4186C53.8124 22.0801 53.3413 22.5516 53.3413 23.1574V54.3408H49.7042V33.9337C49.7042 33.3274 49.2327 32.8559 48.6268 32.8559H38.6588C38.0525 32.8559 37.5811 33.3274 37.5811 33.9337V54.3408H33.9443V32.3172C33.9443 31.711 33.4728 31.2399 32.8669 31.2399H22.9661C22.3603 31.2399 21.8888 31.711 21.8888 32.3172V54.3408H18.2517V38.6481C18.2517 38.0419 17.7805 37.5708 17.1743 37.5708H7.2063C6.60005 37.5708 6.12893 38.0419 6.12893 38.6481V54.3408H1.07737C0.471484 54.3408 0 54.8123 0 55.4181C0 56.0244 0.471484 56.4959 1.07737 56.4959H7.1391H17.0395H22.9661H32.8669H38.6588H48.5592H54.3511H64.2519H70.3132C70.9195 56.4959 71.3906 56.0244 71.3906 55.4181C71.4582 54.8123 70.9867 54.3408 70.3808 54.3408V54.3408Z" fill="#0077B2"/>
<path fill-rule="evenodd" clip-rule="evenodd" d="M58.6194 7.75168H59.3962C60.742 7.75168 61.07 6.98574 61.07 6.34048C61.07 5.69485 60.742 5.00551 59.3962 5.00551H58.6194V7.75168ZM58.6194 10.4978V12.0185H57.4376V10.4978H56.4863V9.55705H57.4376V8.76907H56.4863V7.75168H57.4376V3.92236H59.3962C61.333 3.92236 62.2522 4.89604 62.2522 6.36216C62.2522 7.83911 61.333 8.76907 59.3962 8.76907H58.6194V9.55705H60.6874V10.4978H58.6194Z" fill="#33BBFF"/>
<path d="M7.49902 32.0266C7.49902 32.0266 14.4484 21.7359 21.4398 21.9328C29.9662 22.1731 38.1361 28.5202 46.0653 16.7686" stroke="#33BBFF" stroke-width="1.44516" stroke-linecap="round"/>
<path fill-rule="evenodd" clip-rule="evenodd" d="M66.3393 7.97037C66.3393 11.8199 63.2185 14.9407 59.3693 14.9407C55.5198 14.9407 52.3989 11.8199 52.3989 7.97037C52.3989 4.12083 55.5198 1 59.3693 1C63.2185 1 66.3393 4.12083 66.3393 7.97037Z" stroke="#0077B2" stroke-width="1.08387" stroke-linecap="round"/>
</svg>
