<svg width="58" height="56" viewBox="0 0 58 56" fill="none" xmlns="http://www.w3.org/2000/svg">
<mask id="mask0" mask-type="alpha" maskUnits="userSpaceOnUse" x="0" y="18" width="51" height="26">
<path fill-rule="evenodd" clip-rule="evenodd" d="M0 18.3931H50.1096V43.2799H0V18.3931Z" fill="white"/>
</mask>
<g mask="url(#mask0)">
<path fill-rule="evenodd" clip-rule="evenodd" d="M49.2812 18.3931H49.2793H0.830422C0.372372 18.3927 0.000659284 18.763 2.19518e-07 19.2205V19.2225V42.4504C-0.000329313 42.908 0.370395 43.2792 0.828445 43.2799H0.830422H37.4698C38.3035 42.5485 37.7957 41.621 37.0707 41.621H1.66084V20.0519H48.4488V25.5885H50.1097V22.1259V19.2225C50.1103 18.765 49.7393 18.3937 49.2812 18.3931" fill="#0077B2"/>
</g>
<path fill-rule="evenodd" clip-rule="evenodd" d="M43.6478 14.5421L4.88886 5.83163C4.67368 5.78358 4.44828 5.82242 4.26176 5.93992C4.07557 6.05841 3.94409 6.24569 3.89532 6.46062L1.95734 15.1714C1.85815 15.6187 2.14056 16.0617 2.58807 16.1611C3.03623 16.2609 3.47978 15.9784 3.57963 15.5311L5.33637 7.6327L43.2833 16.1605C43.3433 16.1743 43.4049 16.1812 43.4662 16.1809C43.9249 16.1799 44.2963 15.808 44.2953 15.3498C44.2947 14.9624 44.0258 14.6273 43.6478 14.5421" fill="#0077B2"/>
<path fill-rule="evenodd" clip-rule="evenodd" d="M38.9409 9.74263L15.6855 0.0641903C15.2811 -0.104002 14.8155 0.0687983 14.6194 0.460149L12.6815 4.33153C12.4627 4.73571 12.6133 5.24095 13.0186 5.4595C13.4229 5.67805 13.9291 5.52763 14.1479 5.12312C14.1565 5.10732 14.1644 5.09119 14.1719 5.07473V5.07671L15.7619 1.89817L38.2996 11.2774C38.7241 11.4545 39.2115 11.2544 39.3884 10.8305C39.5657 10.4068 39.3653 9.91971 38.9409 9.74263" fill="#0077B2"/>
<path fill-rule="evenodd" clip-rule="evenodd" d="M39.5284 22.2646H31.8374C31.379 22.2646 31.0073 22.6359 31.0073 23.0941C31.0073 23.5523 31.379 23.9235 31.8374 23.9235H39.5284C39.9871 23.9235 40.3588 23.5523 40.3588 23.0941C40.3588 22.6359 39.9871 22.2646 39.5284 22.2646" fill="#33BBFF"/>
<mask id="mask1" mask-type="alpha" maskUnits="userSpaceOnUse" x="36" y="25" width="22" height="31">
<path fill-rule="evenodd" clip-rule="evenodd" d="M36.6821 25.0293H57.9999V56H36.6821V25.0293Z" fill="white"/>
</mask>
<g mask="url(#mask1)">
<path fill-rule="evenodd" clip-rule="evenodd" d="M47.3412 30.8364C41.6811 30.8364 38.7763 29.4273 38.6201 28.9181V28.9125C38.7763 28.3734 41.6811 26.965 47.3412 26.965C52.9614 26.965 55.8682 28.353 56.0619 28.9007C55.8682 29.4487 52.9614 30.8364 47.3412 30.8364V30.8364ZM56.0619 32.7576C55.9156 33.2947 53.0095 34.7077 47.3412 34.7077C41.6726 34.7077 38.7664 33.2947 38.6201 32.7721V31.2508C40.6823 32.2833 44.0884 32.7721 47.3412 32.7721C50.594 32.7721 54.0007 32.2833 56.0619 31.2498V32.7576ZM56.0619 36.6289C55.9156 37.1661 53.0095 38.5791 47.3412 38.5791C41.6726 38.5791 38.7664 37.1661 38.6201 36.6434V35.1221C40.6823 36.1546 44.0884 36.6434 47.3412 36.6434C50.594 36.6434 54.0007 36.1546 56.0619 35.1211V36.6289ZM56.0619 40.5003C55.9156 41.0375 53.0095 42.4505 47.3412 42.4505C41.6726 42.4505 38.7664 41.0375 38.6201 40.5148V38.9932C40.6823 40.031 44.0884 40.5148 47.3412 40.5148C50.594 40.5148 54.0007 40.026 56.0619 38.9922V40.5003ZM56.0619 44.3717C55.9156 44.9085 53.0095 46.3215 47.3412 46.3215C41.6726 46.3215 38.7664 44.9085 38.6201 44.3862V42.8646C40.6823 43.902 44.0884 44.3862 47.3412 44.3862C50.594 44.3862 54.0007 43.8974 56.0619 42.8636V44.3717ZM56.0619 48.2427C55.9156 48.7799 53.0095 50.1929 47.3412 50.1929C41.6726 50.1929 38.7664 48.7799 38.6201 48.2572V46.7359C40.6823 47.7734 44.0884 48.2572 47.3412 48.2572C50.594 48.2572 54.0007 47.7685 56.0619 46.7349V48.2427ZM56.0619 52.1141C55.9156 52.6513 53.0095 54.0643 47.3412 54.0643C41.6726 54.0643 38.7664 52.6513 38.6201 52.1286V50.6073C40.6823 51.6448 44.0884 52.1286 47.3412 52.1286C50.594 52.1286 54.0007 51.6398 56.0619 50.6063V52.1141ZM47.3412 25.0293C42.2054 25.0293 36.6821 26.2412 36.6821 28.9007V52.1286C36.6821 54.7884 42.2054 56 47.3412 56C52.4766 56 57.9999 54.7884 57.9999 52.1286V28.9007C57.9999 26.2412 52.4766 25.0293 47.3412 25.0293V25.0293Z" fill="#0077B2"/>
</g>
<path fill-rule="evenodd" clip-rule="evenodd" d="M23.1971 33.8481V35.61H21.8266V33.8481H20.7227V32.7583H21.8266V31.8456H20.7227V30.667H21.8266V26.2314H24.0977C26.3438 26.2314 27.4095 27.3594 27.4095 29.0575C27.4095 30.769 26.3438 31.8456 24.0977 31.8456H23.1971V32.7583H25.5951V33.8481H23.1971ZM23.1971 30.667H24.0977C25.6587 30.667 26.039 29.7799 26.039 29.0325C26.039 28.2846 25.6587 27.4861 24.0977 27.4861H23.1971V30.667Z" fill="#33BBFF"/>
<path fill-rule="evenodd" clip-rule="evenodd" d="M32.1496 30.9204C32.1496 35.3796 28.5304 38.9946 24.0665 38.9946C19.6013 38.9946 15.9824 35.3796 15.9824 30.9204C15.9824 26.4612 19.6013 22.8462 24.0665 22.8462C28.5304 22.8462 32.1496 26.4612 32.1496 30.9204Z" stroke="#0077B2" stroke-width="1.24177" stroke-linecap="round"/>
<path d="M12.5816 22.8467L11.6596 23.8585C8.11448 27.7493 8.02221 33.6666 11.4444 37.6657L12.5816 38.9951" stroke="#33BBFF" stroke-width="1.65591" stroke-linecap="round"/>
</svg>
