<svg width="400" height="411" viewBox="0 0 400 411" fill="none" xmlns="http://www.w3.org/2000/svg">
<mask id="mask0" mask-type="alpha" maskUnits="userSpaceOnUse" x="0" y="0" width="400" height="411">
<path d="M400 0H0V411H400V0Z" fill="white"/>
</mask>
<g mask="url(#mask0)">
<path d="M400 0H0V413.333H400V0Z" fill="#0077B2"/>
<path opacity="0.499954" fill-rule="evenodd" clip-rule="evenodd" d="M470.613 86.8907C282.032 19.1576 152.87 12.8357 83.1279 67.9249C-21.4852 150.559 -12.326 310.179 -159.967 310.179C-307.609 310.179 -330.213 201.928 -425.109 218.572C-520.005 235.217 -504.766 331.601 -619.052 331.601C-733.338 331.601 -730.235 51.4666 -949.528 51.4666C-1095.72 51.4666 -1151.43 203.652 -1116.65 508.022L470.613 478.632V86.8907Z" fill="white"/>
</g>
<path d="M276.304 249.853H276.343C278.315 249.853 279.895 251.452 279.895 253.424C279.895 255.396 278.276 256.995 276.304 256.995C274.332 256.995 272.733 255.396 272.733 253.424C272.733 251.452 274.332 249.853 276.304 249.853Z" fill="white"/>
<path d="M245.769 249.853H245.807C247.779 249.853 249.359 251.452 249.359 253.424C249.359 255.396 247.741 256.995 245.769 256.995C243.797 256.995 242.197 255.396 242.197 253.424C242.197 251.452 243.797 249.853 245.769 249.853Z" fill="white"/>
<path d="M119.8 249.853H119.838C121.811 249.853 123.391 251.452 123.391 253.424C123.391 255.396 121.773 256.995 119.8 256.995C117.828 256.995 116.229 255.396 116.229 253.424C116.229 251.452 117.828 249.853 119.8 249.853Z" fill="white"/>
<path d="M81.3752 206.674L86.1771 201.872L95.8509 172.85C94.4076 172.392 93.3614 171.042 93.3614 169.447C93.3614 167.475 94.9605 165.876 96.9328 165.876H131.533V150.362C131.533 146.288 134.848 142.974 138.922 142.974H314.514C318.588 142.974 321.902 146.288 321.902 150.362V234.34C321.902 238.415 318.588 241.729 314.514 241.729H310.451V249.607C310.451 253.681 307.137 256.996 303.062 256.996H294.838C293.164 265.681 285.509 272.264 276.342 272.264C270.065 272.264 264.499 269.176 261.073 264.441C257.648 269.176 252.081 272.264 245.804 272.264C236.637 272.264 228.982 265.681 227.308 256.996H138.333C136.659 265.681 129.004 272.264 119.837 272.264C109.448 272.264 100.997 263.812 100.997 253.424C100.997 253.342 101.002 253.262 101.003 253.18H85.4819C81.4076 253.18 78.0933 249.866 78.0933 245.792V214.597C78.0933 211.605 79.2586 208.791 81.3752 206.674ZM294.838 249.853H303.062C303.198 249.853 303.308 249.743 303.308 249.607V241.729H291.096C292.944 244.056 294.255 246.826 294.838 249.853ZM276.342 265.122C282.792 265.122 288.039 259.875 288.039 253.425C288.039 247 282.831 241.769 276.415 241.729H276.268C269.852 241.769 264.644 246.999 264.644 253.425C264.644 259.875 269.892 265.122 276.342 265.122ZM245.804 265.122C252.254 265.122 257.501 259.875 257.501 253.425C257.501 247 252.293 241.769 245.877 241.729H245.73C239.314 241.769 234.106 246.999 234.106 253.425C234.107 259.875 239.354 265.122 245.804 265.122ZM138.332 249.853H227.308C227.891 246.826 229.202 244.056 231.05 241.729H161.826C159.853 241.729 158.254 240.13 158.254 238.157C158.254 236.185 159.853 234.586 161.826 234.586H314.514C314.649 234.586 314.759 234.476 314.759 234.34V150.362C314.759 150.226 314.649 150.116 314.514 150.116H138.922C138.787 150.116 138.677 150.226 138.677 150.362V234.586H146.555C148.528 234.586 150.127 236.186 150.127 238.158C150.127 240.13 148.528 241.729 146.555 241.729H134.59C136.439 244.056 137.749 246.826 138.332 249.853ZM92.9814 204.047H116.019C116.155 204.047 116.265 203.937 116.265 203.801V188.286H98.2347L92.9814 204.047ZM119.836 265.122C126.286 265.122 131.533 259.875 131.533 253.425C131.533 247 126.325 241.769 119.909 241.729H119.836C119.828 241.729 119.82 241.728 119.811 241.728C113.372 241.741 108.138 246.983 108.138 253.425C108.139 259.875 113.386 265.122 119.836 265.122ZM85.2357 245.793C85.2357 245.928 85.3457 246.038 85.4814 246.038H102.506C105.385 239.311 112.068 234.585 119.836 234.585C119.861 234.585 119.885 234.587 119.91 234.587H131.533V173.266V173.264C131.533 173.128 131.423 173.018 131.288 173.018H103.324L100.616 181.144H119.836C121.809 181.144 123.408 182.743 123.408 184.715V203.801C123.408 207.876 120.093 211.19 116.019 211.19H86.9609L86.4257 211.725C85.6585 212.493 85.2357 213.513 85.2357 214.598V223.135H89.2985C91.2709 223.135 92.87 224.734 92.87 226.706C92.87 228.679 91.2709 230.278 89.2985 230.278H85.2357V245.793Z" fill="white"/>
<path d="M150.373 219.316H303.061C305.034 219.316 306.633 220.915 306.633 222.888C306.633 224.86 305.034 226.459 303.061 226.459H150.373C148.401 226.459 146.802 224.86 146.802 222.888C146.802 220.915 148.401 219.316 150.373 219.316Z" fill="white"/>
</svg>
