<svg width="496" height="783" viewBox="0 0 496 783" fill="none" xmlns="http://www.w3.org/2000/svg">
<path d="M10.2999 530.8V613.1L76.1999 651.2L50.2999 665.9L115.9 703.8L174.2 670L251.4 716" stroke="#B3DAFF" stroke-width="0.5" stroke-linecap="round" stroke-dasharray="4.93"/>
<path d="M436.5 639.6L436.7 735.6L409.7 752L378.7 734.1L295.6 782.1L215.1 735.6L159.7 767.6L131.7 751.8V664.2" stroke="#B3DAFF" stroke-width="0.5" stroke-linecap="round" stroke-dasharray="4.16"/>
<path d="M316.3 705.1L370.2 674L388.2 684.4L334.3 715.5L316.3 705.1Z" fill="#E7F3FC"/>
<path fill-rule="evenodd" clip-rule="evenodd" d="M315.4 715L369.3 683.9L387.3 694.3L333.4 725.4L315.4 715Z" stroke="#D7EDFF" stroke-width="0.5" stroke-linecap="round" stroke-dasharray="2.7"/>
<path opacity="0.4" d="M0.0999756 434.9V116.6L200.9 0.5V318.8L0.0999756 434.9Z" fill="#86C3F2"/>
<path fill-rule="evenodd" clip-rule="evenodd" d="M350.4 325.6L495.6 409.4V253.7L350.4 169.9V325.6Z" stroke="#D2F1F9" stroke-width="0.5"/>
<path opacity="0.3" d="M344.6 328.8L489.7 412.6V257L344.6 173.2V328.8Z" fill="#86C3F2"/>
<path d="M489.7 257L344.6 328.8L489.7 412.6V257Z" fill="#EBF9FF"/>
<path d="M120 255.2V139.9L275.8 50V165.3L120 255.2Z" fill="url(#paint0_linear)"/>
<path fill-rule="evenodd" clip-rule="evenodd" d="M176.6 239.2V149.2L290.7 83.3999V173.4L176.6 239.2Z" stroke="#B9F6F9" stroke-width="0.9756"/>
<path d="M139.4 230.4V143.7L256.5 76V162.8L139.4 230.4Z" fill="white" stroke="#7CB3E5" stroke-width="0.5"/>
<path d="M199.4 124.7C199.2 124.8 198.9 125 198.7 125.1C193.9 128.3 190 135 189.7 140.7C189.5 144.6 190.9 147.2 193.2 148.1C194.4 148.5 194.1 150.8 192.7 152.2C185.4 159.6 180.2 170.7 180.3 180.2V192.1L218.9 169.8V157.9C218.9 148.4 213.7 143.3 206.3 144.4C204.9 144.6 204.6 142.6 205.8 140.9C207.9 137.6 209.3 133.7 209.3 130.3C209.2 124.1 204.8 121.6 199.4 124.7Z" fill="#CCE9F7"/>
<path opacity="0.4" d="M136.2 48.0999L22.7 114.2C18.6 116.6 16.1 120.9 16.1 125.6V315.4C16.1 319.9 21 322.7 24.9 320.5L138.4 255.1C142.5 252.7 145 248.4 145 243.6V53.1999C145 48.5999 140.1 45.7999 136.2 48.0999Z" fill="#D3EEFD"/>
<path opacity="0.4" d="M143.2 52.0001L29.7 118C25.6 120.4 23.1 124.7 23.1 129.4V319.2C23.1 323.7 28 326.5 31.9 324.3L145.4 259C149.5 256.6 152 252.3 152 247.5V57.1001C152.1 52.5001 147.1 49.7001 143.2 52.0001Z" fill="#86C3F2"/>
<path d="M150.3 55.9L36.8 121.9C32.7 124.3 30.2 128.6 30.2 133.3V323.1C30.2 327.6 35.1 330.4 39 328.2L152.5 262.8C156.6 260.4 159.1 256.1 159.1 251.3V60.9C159.1 56.4 154.2 53.6 150.3 55.9Z" fill="#F2FCFF"/>
<path opacity="0.5" d="M37 121.8L150.3 55.8C152.9 54.3 156.1 55.1 157.9 57.2C156.7 56.9 155.6 57 154.3 57.7L40.8 123.9C36.7 126.3 34.2 130.6 34.2 135.3V325.1C34.2 326.6 34.5 327.9 35.4 328.9C32.6 328.6 30.2 326.2 30.2 323.1V133.4C30.2 128.7 32.9 124.2 37 121.8Z" fill="#86C3F2"/>
<path d="M129.9 98.0999L59.4 138.8C57.3 140 56 142.3 56 144.8V145.1C56 146.7 57.7 147.7 59.1 146.9L129.6 105.9C131.7 104.7 133 102.4 133 99.8999C133 98.2999 131.3 97.2999 129.9 98.0999Z" fill="#CCE9F7"/>
<path d="M129.9 119.9L59.4 160.6C57.3 161.8 56 164.1 56 166.6V166.9C56 168.5 57.7 169.5 59.1 168.7L129.6 127.7C131.7 126.5 133 124.2 133 121.7C133 120.1 131.3 119.1 129.9 119.9Z" fill="#CCE9F7"/>
<path d="M129.9 141.6L59.4 182.3C57.3 183.5 56 185.8 56 188.3V188.6C56 190.2 57.7 191.2 59.1 190.4L129.6 149.4C131.7 148.2 133 145.9 133 143.4C133 141.8 131.3 140.8 129.9 141.6Z" fill="#CCE9F7"/>
<path d="M129.9 163.4L59.4 204.1C57.3 205.3 56 207.6 56 210.1V210.4C56 212 57.7 213 59.1 212.2L129.6 171.2C131.7 170 133 167.7 133 165.2C133 163.6 131.3 162.6 129.9 163.4Z" fill="#CCE9F7"/>
<path d="M128.1 216.6L57.6 257.3C55.5 258.5 54.2 260.8 54.2 263.3V263.6C54.2 265.2 55.9 266.2 57.3 265.4L127.8 224.4C129.9 223.2 131.2 220.9 131.2 218.4C131.2 216.8 129.5 215.8 128.1 216.6Z" fill="#CCE9F7"/>
<path d="M217.1 325.6L284.6 364.4C288.6 366.7 288.6 372.4 284.6 374.7L217.1 413.6C212.5 416.2 206.9 416.2 202.3 413.6L135.2 374.7C131.2 372.4 131.2 366.7 135.2 364.4L202.3 325.6C206.9 323 212.5 322.9 217.1 325.6Z" fill="#E7F3FC"/>
<path d="M217 266.8L284.5 305.6C288.5 307.9 288.5 313.6 284.5 315.9L217 354.8C212.4 357.4 206.8 357.4 202.2 354.8L135.1 315.9C131.1 313.6 131.1 307.9 135.1 305.6L202.2 266.8C206.8 264.2 212.4 264.2 217 266.8Z" fill="#B0E1F9"/>
<path d="M40.3448 576.228L63.2448 563.028L62.9448 483.828L40.3448 497.128V576.228Z" fill="url(#paint1_linear)"/>
<path d="M17.7449 563.028L40.3449 576.228V497.128L17.7449 484.028V563.028Z" fill="url(#paint2_linear)"/>
<path d="M40.3449 470.828L62.9449 483.828L40.3449 497.128L17.7449 484.028L40.3449 470.828Z" fill="url(#paint3_linear)"/>
<path d="M86.0143 549.873L108.814 536.773L108.614 431.073L86.0143 444.473V549.873Z" fill="url(#paint4_linear)"/>
<path d="M63.3143 536.774L86.0143 549.874V444.474L63.3143 431.374V536.774Z" fill="url(#paint5_linear)"/>
<path d="M86.0143 418.073L108.614 431.073L86.0143 444.473L63.3143 431.373L86.0143 418.073Z" fill="url(#paint6_linear)"/>
<path d="M131.584 522.279L154.484 509.079L154.284 391.479L131.584 404.779V522.279Z" fill="url(#paint7_linear)"/>
<path d="M108.984 509.079L131.584 522.279V404.779L108.984 391.679V509.079Z" fill="url(#paint8_linear)"/>
<path d="M131.584 378.379L154.284 391.479L131.584 404.779L108.984 391.679L131.584 378.379Z" fill="url(#paint9_linear)"/>
<path d="M284.7 312.6L217.2 351.5C212.6 354.1 207 354.1 202.4 351.5L135.3 312.6C133.9 311.8 133 310.5 132.6 309.2C131.8 311.7 132.7 314.6 135.3 316.1L202.4 355C207 357.7 212.6 357.7 217.2 355L284.7 316.1C287.3 314.6 288.2 311.7 287.4 309.2C287 310.5 286.1 311.7 284.7 312.6Z" fill="url(#paint10_linear)"/>
<path d="M414.7 682.6L482.2 721.4C486.2 723.7 486.2 729.4 482.2 731.7L414.7 770.6C410.1 773.2 404.5 773.2 399.9 770.6L332.8 731.7C328.8 729.4 328.8 723.7 332.8 721.4L399.9 682.6C404.5 679.9 410.2 679.9 414.7 682.6Z" fill="#E7F3FC"/>
<path d="M414.6 667L482.1 705.8C486.1 708.1 486.1 713.8 482.1 716.1L414.6 755C410 757.6 404.4 757.6 399.8 755L332.7 716.1C328.7 713.8 328.7 708.1 332.7 705.8L399.8 667C404.4 664.3 410 664.3 414.6 667Z" fill="#C8E9F9"/>
<path d="M482.3 712.7L414.8 751.6C410.2 754.2 404.6 754.2 400 751.6L332.9 712.7C331.5 711.9 330.6 710.6 330.2 709.3C329.4 711.8 330.3 714.7 332.9 716.2L400 755.1C404.6 757.8 410.2 757.8 414.8 755.1L482.3 716.2C484.9 714.7 485.8 711.8 485 709.3C484.6 710.7 483.7 711.9 482.3 712.7Z" fill="url(#paint11_linear)"/>
<path d="M356 418.5L465.6 481.4C472.1 485.1 472.1 494.4 465.6 498.2L356 561.3C348.5 565.6 339.4 565.6 331.9 561.3L223 498.2C216.6 494.5 216.6 485.2 223 481.5L332 418.5C339.4 414.2 348.5 414.2 356 418.5Z" fill="#E7F3FC"/>
<path d="M355.8 372.7L465.4 435.6C471.9 439.3 471.9 448.6 465.4 452.4L355.8 515.5C348.3 519.8 339.2 519.8 331.7 515.5L222.8 452.4C216.4 448.7 216.4 439.4 222.8 435.7L331.7 372.8C339.2 368.5 348.3 368.5 355.8 372.7Z" fill="#C8E9F9"/>
<path d="M465.6 447L356 510.1C348.5 514.4 339.4 514.4 331.9 510.1L223 447C220.7 445.7 219.3 443.7 218.6 441.5C217.4 445.6 218.8 450.3 223 452.7L331.9 515.8C339.3 520.1 348.5 520.1 356 515.8L465.6 452.7C469.8 450.3 471.2 445.6 470 441.5C469.3 443.7 467.9 445.7 465.6 447Z" fill="url(#paint12_linear)"/>
<path d="M192.4 541L328.8 619.3C336.9 623.9 336.9 635.5 328.8 640.2L192.4 718.7C183.1 724 171.7 724 162.5 718.7L26.9 640.1C18.9 635.5 18.9 623.9 26.9 619.3L162.5 541C171.8 535.7 183.2 535.7 192.4 541Z" fill="#E7F3FC"/>
<path d="M192.2 503.8L328.6 582.1C336.7 586.7 336.7 598.3 328.6 603L192.2 681.5C182.9 686.8 171.5 686.8 162.3 681.5L26.7 603C18.7 598.4 18.7 586.8 26.7 582.2L162.3 503.9C171.5 498.5 182.9 498.5 192.2 503.8Z" fill="#C8E9F9"/>
<path d="M297.5 712.5L341.2 737.6C343.8 739.1 343.8 742.8 341.2 744.3L297.5 769.4C294.5 771.1 290.9 771.1 287.9 769.4L244.5 744.3C241.9 742.8 241.9 739.1 244.5 737.6L287.9 712.5C290.9 710.8 294.6 710.8 297.5 712.5Z" fill="#E7F3FC"/>
<path d="M328.8 596.3L192.4 674.8C183.1 680.1 171.7 680.1 162.5 674.8L26.9 596.3C24.1 594.7 22.3 592.2 21.5 589.4C20 594.4 21.7 600.3 26.9 603.3L162.5 681.8C171.8 687.2 183.2 687.2 192.4 681.8L328.8 603.3C334 600.3 335.8 594.4 334.3 589.3C333.4 592.1 331.6 594.7 328.8 596.3Z" fill="url(#paint13_linear)"/>
<path d="M231.4 400.1L285.3 369L303.3 379.4L249.4 410.5L231.4 400.1Z" fill="#E7F3FC"/>
<path d="M297.5 699.7L341.2 724.8C343.8 726.3 343.8 730 341.2 731.5L297.6 756.6C294.6 758.3 291 758.3 288 756.6L244.6 731.5C242 730 242 726.3 244.6 724.8L288 699.7C290.9 698 294.5 698 297.5 699.7Z" fill="#C8E9F9"/>
<path d="M341.2 729.3L297.5 754.4C294.5 756.1 290.9 756.1 287.9 754.4L244.5 729.3C243.6 728.8 243 728 242.8 727.1C242.3 728.7 242.9 730.6 244.5 731.6L287.9 756.7C290.9 758.4 294.5 758.4 297.5 756.7L341.2 731.6C342.9 730.6 343.4 728.8 342.9 727.1C342.7 728 342.1 728.8 341.2 729.3Z" fill="url(#paint14_linear)"/>
<path fill-rule="evenodd" clip-rule="evenodd" d="M235 403.7L288.9 372.6L306.9 383L253 414.1L235 403.7Z" stroke="#D7EDFF" stroke-width="0.5" stroke-linecap="round" stroke-dasharray="2.7"/>
<path d="M239.1 363.2L293 332L311 342.4L257.1 373.5L239.1 363.2Z" fill="#B0E1F9"/>
<path d="M239.1 363.2V365.5L257.1 376V373.5L239.1 363.2Z" fill="#86C3F2"/>
<path d="M311 342.4L257.1 373.5V376L311 344.9V342.4Z" fill="url(#paint15_linear)"/>
<path d="M261.4 413.1L315.3 382L333.3 392.4L279.4 423.5L261.4 413.1Z" fill="#B0E1F9"/>
<path fill-rule="evenodd" clip-rule="evenodd" d="M265 413.1L318.9 382L336.9 392.4L283 423.5L265 413.1Z" stroke="#D7EDFF" stroke-width="0.5" stroke-linecap="round" stroke-dasharray="2.7"/>
<path d="M261.9 389.9L315.8 358.8L333.7 369.2L279.8 400.3L261.9 389.9Z" fill="#B0E1F9"/>
<path d="M261.9 389.9V392.3L279.8 402.8V400.3L261.9 389.9Z" fill="#86C3F2"/>
<path d="M333.7 369.2L279.8 400.3V402.8L333.7 371.6V369.2Z" fill="url(#paint16_linear)"/>
<path d="M232.5 305.9L247.6 297.2L262.7 305.9L247.6 314.5L232.5 305.9Z" fill="#D6EDF9"/>
<path d="M251.5 309.3L266.6 300.6L281.7 309.3L266.6 317.9L251.5 309.3Z" fill="#99D3EF"/>
<path d="M266.6 317.9V318.4L281.7 309.7V309.3L266.6 317.9Z" fill="#5895B3"/>
<path d="M251.5 309.3L266.6 317.9V318.4L251.5 309.8V309.3Z" fill="#5895B3"/>
<path d="M247.6 314.5V314.9L254.1 311.2L253.7 311L247.6 314.5Z" fill="#5895B3"/>
<path d="M232.5 305.9L247.6 314.5V314.9L232.5 306.3V305.9Z" fill="#5895B3"/>
<path d="M299.4 527.2L245.5 496.1L227.5 506.5L281.4 537.6L299.4 527.2Z" fill="#E7F3FC"/>
<path fill-rule="evenodd" clip-rule="evenodd" d="M303.2 527.2L249.3 496.1L231.3 506.5L285.2 537.6L303.2 527.2Z" stroke="#D7EDFF" stroke-width="0.5" stroke-linecap="round" stroke-dasharray="2.7"/>
<path d="M227.9 491.2L281.8 522.3L299.7 512L245.8 480.9L227.9 491.2Z" fill="#C8E9F9"/>
<path d="M281.8 522.3L299.7 512V514.5L281.8 524.7V522.3Z" fill="#86C3F2"/>
<path d="M227.9 491.2L281.8 522.3V524.7L227.9 493.5V491.2Z" fill="url(#paint17_linear)"/>
<path d="M278.5 555.6L224.6 524.5L206.7 534.9L260.6 566L278.5 555.6Z" fill="#B0E1F9"/>
<path fill-rule="evenodd" clip-rule="evenodd" d="M282.4 555.6L228.5 524.5L210.5 534.9L264.4 566L282.4 555.6Z" stroke="#D7EDFF" stroke-width="0.5" stroke-linecap="round" stroke-dasharray="2.7"/>
<path d="M207 519.6L260.9 550.8L278.9 540.4L225 509.3L207 519.6Z" fill="#C8E9F9"/>
<path d="M260.9 550.8L278.9 540.4V543L260.9 553.1V550.8Z" fill="#86C3F2"/>
<path d="M207 519.6L260.9 550.8V553.1L207 522V519.6Z" fill="url(#paint18_linear)"/>
<path d="M283.4 464.7L322.4 442.2L382.9 477.1L346.5 498.1C344.9 499 342.9 499 341.3 498.1L283.4 464.7Z" fill="url(#paint19_linear)" stroke="#9ACFF7" stroke-width="0.5"/>
<path d="M383.1 465L344.1 487.4C346.7 488.9 348.3 491.7 348.3 494.6C348.3 496.2 347.4 497.5 346.2 498.2L385 475.9C386.3 475.2 387.2 473.9 387.2 472.2C387.2 469.3 385.7 466.5 383.1 465Z" fill="url(#paint20_linear)"/>
<path d="M295.8 466L320.7 451.6C321 451.4 321.3 451.4 321.6 451.6C321.9 451.7 321.9 452.1 321.6 452.2L296.7 466.7C296.4 466.9 296.1 466.9 295.8 466.7C295.5 466.5 295.5 466.2 295.8 466Z" fill="#CCE3F1"/>
<path d="M298.2 467.4L323.1 453C323.4 452.8 323.7 452.8 324 453C324.3 453.1 324.3 453.5 324 453.6L299.1 468.1C298.8 468.3 298.5 468.3 298.2 468.1C298 467.9 298 467.6 298.2 467.4Z" fill="#CCE3F1"/>
<path d="M300.6 468.8L325.5 454.4C325.8 454.2 326.1 454.2 326.4 454.4C326.7 454.5 326.7 454.9 326.4 455L301.6 469.5C301.3 469.7 301 469.7 300.7 469.5C300.4 469.3 300.4 469 300.6 468.8Z" fill="#CCE3F1"/>
<path d="M303.1 470.2L328 455.8C328.3 455.6 328.6 455.6 328.9 455.8C329.2 455.9 329.2 456.3 328.9 456.4L304 470.9C303.7 471.1 303.4 471.1 303.1 470.9C302.8 470.7 302.8 470.4 303.1 470.2Z" fill="#CCE3F1"/>
<path d="M305.5 471.6L330.4 457.2C330.7 457 331 457 331.3 457.2C331.6 457.3 331.6 457.7 331.3 457.8L306.4 472.3C306.1 472.5 305.8 472.5 305.5 472.3C305.3 472.1 305.3 471.8 305.5 471.6Z" fill="#CCE3F1"/>
<path d="M330.5 486.4L355.4 472C355.7 471.8 356 471.8 356.3 472C356.6 472.1 356.6 472.5 356.3 472.6L331.4 487.1C331.1 487.3 330.8 487.3 330.5 487.1C330.2 486.9 330.2 486.6 330.5 486.4Z" fill="#CCE3F1"/>
<path d="M332.9 487.8L357.8 473.4C358.1 473.2 358.4 473.2 358.7 473.4C359 473.5 359 473.9 358.7 474L333.8 488.5C333.5 488.7 333.2 488.7 332.9 488.5C332.7 488.3 332.7 488 332.9 487.8Z" fill="#CCE3F1"/>
<path opacity="0.7" d="M326.4 483.8L351.3 469.4C351.6 469.2 351.9 469.2 352.2 469.4C352.5 469.5 352.5 469.9 352.2 470L327.4 484.4C327.1 484.6 326.8 484.6 326.5 484.4C326.2 484.3 326.2 483.9 326.4 483.8Z" fill="url(#paint21_linear)"/>
<path d="M467.5 709.1L428.5 686.6L368 721.6L404.4 742.6C406 743.5 408 743.5 409.6 742.6L467.5 709.1Z" fill="url(#paint22_linear)" stroke="#9ACFF7" stroke-width="0.5"/>
<path d="M367.8 709.4L406.8 731.8C404.2 733.3 402.6 736.1 402.6 739C402.6 740.6 403.5 741.9 404.7 742.6L365.9 720.3C364.6 719.6 363.7 718.3 363.7 716.6C363.7 713.7 365.3 710.9 367.8 709.4Z" fill="#99D3EF"/>
<path d="M455.1 710.4L430.2 696C429.9 695.8 429.6 695.8 429.3 696C429 696.1 429 696.5 429.3 696.6L454.2 711C454.5 711.2 454.8 711.2 455.1 711C455.4 710.9 455.4 710.6 455.1 710.4Z" fill="#CCE3F1"/>
<path d="M452.7 711.9L427.8 697.5C427.5 697.3 427.2 697.3 426.9 697.5C426.6 697.6 426.6 698 426.9 698.1L451.8 712.5C452.1 712.7 452.4 712.7 452.7 712.5C452.9 712.3 452.9 712 452.7 711.9Z" fill="#CCE3F1"/>
<path d="M450.3 713.2L425.3 698.8C425 698.6 424.7 698.6 424.4 698.8C424.1 698.9 424.1 699.3 424.4 699.4L449.3 713.8C449.6 714 449.9 714 450.2 713.8C450.5 713.7 450.5 713.4 450.3 713.2Z" fill="#CCE3F1"/>
<path d="M447.8 714.6L422.9 700.2C422.6 700 422.3 700 422 700.2C421.7 700.3 421.7 700.7 422 700.8L446.9 715.2C447.2 715.4 447.5 715.4 447.8 715.2C448.1 715.1 448.1 714.8 447.8 714.6Z" fill="#CCE3F1"/>
<path d="M445.4 716L420.5 701.6C420.2 701.4 419.9 701.4 419.6 701.6C419.3 701.7 419.3 702.1 419.6 702.2L444.5 716.6C444.8 716.8 445.1 716.8 445.4 716.6C445.7 716.5 445.7 716.2 445.4 716Z" fill="#CCE3F1"/>
<path d="M420.4 730.9L395.5 716.5C395.2 716.3 394.9 716.3 394.6 716.5C394.3 716.6 394.3 717 394.6 717.1L419.5 731.5C419.8 731.7 420.1 731.7 420.4 731.5C420.7 731.4 420.7 731 420.4 730.9Z" fill="#CCE3F1"/>
<path d="M418 732.3L393.1 717.9C392.8 717.7 392.5 717.7 392.2 717.9C391.9 718 391.9 718.4 392.2 718.5L417.1 732.9C417.4 733.1 417.7 733.1 418 732.9C418.3 732.8 418.3 732.4 418 732.3Z" fill="#CCE3F1"/>
<path d="M424.5 728.2L399.5 713.8C399.2 713.6 398.9 713.6 398.6 713.8C398.3 713.9 398.3 714.3 398.6 714.4L423.5 728.8C423.8 729 424.1 729 424.4 728.8C424.7 728.7 424.7 728.3 424.5 728.2Z" fill="#CCE3F1"/>
<path d="M386.1 681L397.5 674.4L408.9 681L397.5 687.5L386.1 681Z" fill="#D6EDF9"/>
<path d="M400.5 683.6L411.9 677L423.3 683.6L411.9 690.1L400.5 683.6Z" fill="#99D3EF"/>
<path d="M411.9 690.1V690.4L423.3 683.9V683.6L411.9 690.1Z" fill="#5895B3"/>
<path d="M400.5 683.6L411.9 690.1V690.4L400.5 683.9V683.6Z" fill="#5895B3"/>
<path d="M397.5 687.5V687.8L402.4 685L402.2 684.8L397.5 687.5Z" fill="#5895B3"/>
<path d="M386.1 681L397.5 687.5V687.8L386.1 681.3V681Z" fill="#5895B3"/>
<path d="M280.7 672.8L334.6 641.7L352.6 652.1L298.7 683.2L280.7 672.8Z" fill="#E7F3FC"/>
<path fill-rule="evenodd" clip-rule="evenodd" d="M287 674.6L340.9 643.5L358.9 653.9L304.9 685L287 674.6Z" stroke="#D7EDFF" stroke-width="0.5" stroke-linecap="round" stroke-dasharray="2.7"/>
<path d="M283.9 640.4L337.8 609.3L355.7 619.6L301.8 650.8L283.9 640.4Z" fill="#C8E9F9"/>
<path d="M283.9 640.4V642.7L301.8 653.2V650.8L283.9 640.4Z" fill="#86C3F2"/>
<path d="M355.7 619.6L301.8 650.8V653.2L355.7 622.1V619.6Z" fill="url(#paint23_linear)"/>
<path d="M319.5 675.4L373.4 644.3L391.4 654.6L337.5 685.8L319.5 675.4Z" fill="#C8E9F9"/>
<path d="M319.5 675.4V677.8L337.5 688.2V685.8L319.5 675.4Z" fill="#86C3F2"/>
<path d="M391.4 654.6L337.5 685.8V688.2L391.4 657.1V654.6Z" fill="url(#paint24_linear)"/>
<path d="M255.4 288L307.5 258L281.5 243L255.5 258V197.9" stroke="#B3DAFF" stroke-width="0.5" stroke-linecap="round" stroke-dasharray="3.91"/>
<path d="M155.572 256.737V294.937L161.472 298.437L213.072 268.737V230.437L203.472 224.937L155.572 256.737Z" fill="#00CEEE"/>
<path d="M161.472 260.237L155.572 256.737L203.472 224.937L213.072 230.437L161.472 260.237Z" fill="#56CFFF"/>
<path d="M155.572 256.737L161.472 260.237L189.272 271.237L213.072 230.437L203.472 224.937L181.272 217.137L155.572 256.737Z" fill="url(#paint25_linear)"/>
<path d="M181.221 217.057L203.521 224.957L207.121 226.957L181.221 217.057Z" fill="#BDEBFF"/>
<path d="M207.121 226.957L155.521 256.757L181.221 217.057L207.121 226.957Z" fill="url(#paint26_linear)"/>
<path d="M167.831 235.737L168.131 290.637L168.931 293.137L205.631 272.037V215.137L204.531 214.537L167.831 235.737Z" fill="#C1F2F7"/>
<path d="M168.931 293.137L167.631 290.637L167.831 235.737L168.931 236.337V293.137Z" fill="#D5F1F9"/>
<path d="M168.871 236.337L167.771 235.737L204.471 214.537L205.571 215.137L168.871 236.337Z" fill="#E6FAFF"/>
<path d="M205.572 215.137V272.037L168.872 293.137V236.337L205.572 215.137Z" fill="white"/>
<path d="M176.181 259.757L198.581 246.857C198.981 246.657 199.481 246.857 199.481 247.357C199.481 248.157 199.081 248.857 198.381 249.257L176.081 262.157C175.681 262.357 175.181 262.157 175.181 261.657C175.181 260.857 175.581 260.157 176.181 259.757Z" fill="#CCE3F1"/>
<path d="M176.181 253.857L198.481 240.957C198.881 240.757 199.381 240.957 199.381 241.457C199.381 242.257 198.981 242.957 198.281 243.357L175.981 256.257C175.581 256.457 175.081 256.257 175.081 255.757C175.081 254.957 175.581 254.257 176.181 253.857Z" fill="#CCE3F1"/>
<path d="M176.181 248.057L198.481 235.057C198.881 234.857 199.381 235.057 199.381 235.557C199.381 236.357 198.981 237.057 198.281 237.457L175.981 250.357C175.581 250.557 175.081 250.357 175.081 249.857C175.081 249.157 175.481 248.357 176.181 248.057Z" fill="#CCE3F1"/>
<path d="M176.181 242.157L198.481 229.257C198.881 229.057 199.381 229.257 199.381 229.757C199.381 230.557 198.981 231.257 198.281 231.657L175.981 244.557C175.581 244.757 175.081 244.557 175.081 244.057C175.081 243.257 175.481 242.557 176.181 242.157Z" fill="#CCE3F1"/>
<path d="M189.272 271.237L161.472 260.237V298.437L213.072 268.737V230.437L189.272 271.237Z" fill="url(#paint27_linear)"/>
<path d="M213.072 268.682L161.472 298.482L182.672 268.682L194.872 261.682L213.072 268.682Z" fill="url(#paint28_linear)"/>
<path d="M161.472 298.482L155.572 294.982V256.782L161.472 260.182V298.482Z" fill="url(#paint29_linear)"/>
<path d="M445.1 335.8V441.2C445.1 441.7 445.3 442 445.9 442.4C447.1 443.1 448.9 443.1 449.9 442.4C450.5 442 450.7 441.7 450.7 441.2V335.8C450.7 335.3 450.5 335 449.9 334.6C448.7 333.9 446.9 334 445.9 334.6C445.3 334.9 445 335.3 445.1 335.8Z" fill="url(#paint30_linear)"/>
<path d="M445.9 336.9C447.1 337.6 448.9 337.6 449.9 336.9C450.5 336.5 450.7 336.2 450.7 335.7V441.1C450.7 441.6 450.5 441.9 449.9 442.3C448.7 443 446.9 443 445.9 442.3C445.3 441.9 445.1 441.6 445.1 441.1V335.8C445.1 336.2 445.3 336.6 445.9 336.9Z" fill="url(#paint31_linear)"/>
<path d="M398.4 359.5L398.5 401.7L400.2 402.7L421.2 390.6V395.9L447.4 380.8L447.2 338.6L445.6 337.7L427.6 348V342.7L398.4 359.5Z" fill="#69F2FF"/>
<path d="M427.6 342.7L427.7 384.9L425.2 391.6L425.1 349.5L427.6 342.7Z" fill="url(#paint32_linear)"/>
<path d="M423.6 346.9L423.7 389L400.2 402.7L400 360.5L423.6 346.9Z" fill="url(#paint33_linear)"/>
<path d="M447.2 338.6L447.4 380.8L421.2 395.9L421.1 353.7L447.2 338.6Z" fill="url(#paint34_linear)"/>
<path d="M400 360.5L400.2 402.7L398.5 401.7L398.4 359.5L400 360.5Z" fill="url(#paint35_linear)"/>
<path d="M427.6 342.7L425.1 349.5L445.6 337.7L447.2 338.6L421.1 353.7L423.6 346.9L400 360.5L398.4 359.5L427.6 342.7Z" fill="url(#paint36_linear)"/>
<path d="M201.2 631.9C201.3 631.8 201.5 631.8 201.6 631.7L183.9 621.4L201.4 611.2V598C185.3 588.7 159.3 588.7 143.3 598C135.4 602.7 131.4 608.7 131.4 614.8V628C131.4 634.1 135.4 640.2 143.5 644.9C159.6 654.2 185.6 654.2 201.6 644.9V631.7C201.5 631.8 201.3 631.9 201.2 631.9Z" fill="#99D3EF"/>
<path d="M183.9 621.5L201.4 611.3V598.1L172.5 614.9L183.9 621.5Z" fill="#74C2EA"/>
<path d="M218.8 607C219 600.8 215 594.5 206.7 589.8L177.8 606.5V627.6L206.9 644.4C214.8 639.8 218.8 633.7 218.8 627.7V606.6C218.8 606.8 218.8 606.9 218.8 607Z" fill="#73C2EA"/>
<path d="M218.8 606.6V627.7C218.8 633.7 214.8 639.8 206.9 644.4V623.3C214.9 618.7 218.8 612.7 218.8 606.6Z" fill="#56ABD7"/>
<path d="M206.9 623.3V644.4L177.8 627.6L177.9 606.5L206.9 623.3Z" fill="#56ABD7"/>
<path d="M131.4 628V614.8C131.4 620.9 135.4 627 143.5 631.7C159.6 641 185.6 641 201.6 631.7V644.9C185.6 654.2 159.6 654.2 143.5 644.9C135.4 640.2 131.3 634.1 131.4 628Z" fill="#74C2EA"/>
<path d="M172.5 614.9L201.6 631.7C185.6 641 159.6 640.9 143.5 631.7C127.4 622.5 127.3 607.4 143.3 598.1L172.5 614.9Z" fill="#99D3EF"/>
<path d="M409.4 244.6C409.4 240.4 412.6 238.5 416.2 240.8C420 242.9 423 248.2 423 252.4C423 256.6 419.8 258.5 416.2 256.2C412.6 254.1 409.4 248.8 409.4 244.6Z" fill="#74C9FF"/>
<path d="M436.1 260.2C436.1 256 439.3 254.1 442.9 256.4C446.7 258.5 449.7 263.8 449.7 268C449.7 272.2 446.7 274.1 442.9 272C439 270 436.1 264.7 436.1 260.2Z" fill="#A2DBFF"/>
<path d="M463.1 276.3C463.1 272.1 466.3 270.2 469.9 272.5C473.5 274.8 476.7 279.9 476.7 284.1C476.7 288.3 473.7 290.2 469.9 288.1C466.1 286.1 463.1 280.6 463.1 276.3Z" fill="#D1EDFF"/>
<defs>
<linearGradient id="paint0_linear" x1="120" y1="255.2" x2="275.8" y2="255.2" gradientUnits="userSpaceOnUse">
<stop stop-color="#66BCE8"/>
<stop offset="1" stop-color="#99D3EF"/>
</linearGradient>
<linearGradient id="paint1_linear" x1="301.819" y1="187.184" x2="131.887" y2="187.184" gradientUnits="userSpaceOnUse">
<stop stop-color="#66BCE8"/>
<stop offset="1" stop-color="#99D3EF"/>
</linearGradient>
<linearGradient id="paint2_linear" x1="-78.4879" y1="1088.37" x2="195.174" y2="1088.37" gradientUnits="userSpaceOnUse">
<stop offset="0.2144" stop-color="#66BCE8"/>
<stop offset="0.4896" stop-color="#74C2EA"/>
<stop offset="0.6399" stop-color="#84CAEC"/>
<stop offset="0.8395" stop-color="#94D1EE"/>
<stop offset="1" stop-color="#99D3EF"/>
</linearGradient>
<linearGradient id="paint3_linear" x1="-216.334" y1="303.314" x2="-216.334" y2="602.014" gradientUnits="userSpaceOnUse">
<stop stop-color="#66BCE8"/>
<stop offset="0.7175" stop-color="#99D3EF"/>
</linearGradient>
<linearGradient id="paint4_linear" x1="301.819" y1="47.7619" x2="131.887" y2="47.7619" gradientUnits="userSpaceOnUse">
<stop stop-color="#66BCE8"/>
<stop offset="1" stop-color="#99D3EF"/>
</linearGradient>
<linearGradient id="paint5_linear" x1="-78.4881" y1="1171.88" x2="182.521" y2="1171.88" gradientUnits="userSpaceOnUse">
<stop offset="0.2144" stop-color="#66BCE8"/>
<stop offset="0.4896" stop-color="#74C2EA"/>
<stop offset="0.6399" stop-color="#84CAEC"/>
<stop offset="0.8395" stop-color="#94D1EE"/>
<stop offset="1" stop-color="#99D3EF"/>
</linearGradient>
<linearGradient id="paint6_linear" x1="-170.332" y1="303.314" x2="-170.332" y2="602.014" gradientUnits="userSpaceOnUse">
<stop stop-color="#66BCE8"/>
<stop offset="0.7175" stop-color="#99D3EF"/>
</linearGradient>
<linearGradient id="paint7_linear" x1="301.819" y1="-28.4087" x2="131.887" y2="-28.4087" gradientUnits="userSpaceOnUse">
<stop stop-color="#66BCE8"/>
<stop offset="1" stop-color="#99D3EF"/>
</linearGradient>
<linearGradient id="paint8_linear" x1="-39.781" y1="1211.15" x2="221.228" y2="1211.15" gradientUnits="userSpaceOnUse">
<stop offset="0.2144" stop-color="#66BCE8"/>
<stop offset="0.4896" stop-color="#74C2EA"/>
<stop offset="0.6399" stop-color="#84CAEC"/>
<stop offset="0.8395" stop-color="#94D1EE"/>
<stop offset="1" stop-color="#99D3EF"/>
</linearGradient>
<linearGradient id="paint9_linear" x1="-124.671" y1="303.314" x2="-124.671" y2="602.014" gradientUnits="userSpaceOnUse">
<stop stop-color="#66BCE8"/>
<stop offset="0.7175" stop-color="#99D3EF"/>
</linearGradient>
<linearGradient id="paint10_linear" x1="153.056" y1="340.59" x2="201.643" y2="340.59" gradientUnits="userSpaceOnUse">
<stop offset="0.2144" stop-color="#66BCE8"/>
<stop offset="0.4896" stop-color="#74C2EA"/>
<stop offset="0.6399" stop-color="#84CAEC"/>
<stop offset="0.8395" stop-color="#94D1EE"/>
<stop offset="1" stop-color="#99D3EF"/>
</linearGradient>
<linearGradient id="paint11_linear" x1="350.492" y1="740.692" x2="399.094" y2="740.692" gradientUnits="userSpaceOnUse">
<stop offset="0.2144" stop-color="#66BCE8"/>
<stop offset="0.4896" stop-color="#74C2EA"/>
<stop offset="0.6399" stop-color="#84CAEC"/>
<stop offset="0.8395" stop-color="#94D1EE"/>
<stop offset="1" stop-color="#99D3EF"/>
</linearGradient>
<linearGradient id="paint12_linear" x1="251.824" y1="492.378" x2="330.675" y2="492.378" gradientUnits="userSpaceOnUse">
<stop offset="0.2144" stop-color="#66BCE8"/>
<stop offset="0.4896" stop-color="#74C2EA"/>
<stop offset="0.6399" stop-color="#84CAEC"/>
<stop offset="0.8395" stop-color="#94D1EE"/>
<stop offset="1" stop-color="#99D3EF"/>
</linearGradient>
<linearGradient id="paint13_linear" x1="185.865" y1="657.568" x2="315.813" y2="657.568" gradientUnits="userSpaceOnUse">
<stop offset="0.2144" stop-color="#66BCE8"/>
<stop offset="0.4896" stop-color="#74C2EA"/>
<stop offset="0.6399" stop-color="#84CAEC"/>
<stop offset="0.8395" stop-color="#94D1EE"/>
<stop offset="1" stop-color="#99D3EF"/>
</linearGradient>
<linearGradient id="paint14_linear" x1="256.167" y1="747.36" x2="287.545" y2="747.36" gradientUnits="userSpaceOnUse">
<stop offset="0.2144" stop-color="#66BCE8"/>
<stop offset="0.4896" stop-color="#74C2EA"/>
<stop offset="0.6399" stop-color="#84CAEC"/>
<stop offset="0.8395" stop-color="#94D1EE"/>
<stop offset="1" stop-color="#99D3EF"/>
</linearGradient>
<linearGradient id="paint15_linear" x1="257.1" y1="375.999" x2="311.003" y2="375.999" gradientUnits="userSpaceOnUse">
<stop offset="0.2144" stop-color="#66BCE8"/>
<stop offset="0.4896" stop-color="#74C2EA"/>
<stop offset="0.6399" stop-color="#84CAEC"/>
<stop offset="0.8395" stop-color="#94D1EE"/>
<stop offset="1" stop-color="#99D3EF"/>
</linearGradient>
<linearGradient id="paint16_linear" x1="279.8" y1="402.802" x2="333.702" y2="402.802" gradientUnits="userSpaceOnUse">
<stop offset="0.2144" stop-color="#66BCE8"/>
<stop offset="0.4896" stop-color="#74C2EA"/>
<stop offset="0.6399" stop-color="#84CAEC"/>
<stop offset="0.8395" stop-color="#94D1EE"/>
<stop offset="1" stop-color="#99D3EF"/>
</linearGradient>
<linearGradient id="paint17_linear" x1="227.897" y1="524.701" x2="281.8" y2="524.701" gradientUnits="userSpaceOnUse">
<stop offset="0.2144" stop-color="#66BCE8"/>
<stop offset="0.4896" stop-color="#74C2EA"/>
<stop offset="0.6399" stop-color="#84CAEC"/>
<stop offset="0.8395" stop-color="#94D1EE"/>
<stop offset="1" stop-color="#99D3EF"/>
</linearGradient>
<linearGradient id="paint18_linear" x1="206.998" y1="553.1" x2="260.899" y2="553.1" gradientUnits="userSpaceOnUse">
<stop offset="0.2144" stop-color="#66BCE8"/>
<stop offset="0.4896" stop-color="#74C2EA"/>
<stop offset="0.6399" stop-color="#84CAEC"/>
<stop offset="0.8395" stop-color="#94D1EE"/>
<stop offset="1" stop-color="#99D3EF"/>
</linearGradient>
<linearGradient id="paint19_linear" x1="283.403" y1="498.775" x2="382.9" y2="498.775" gradientUnits="userSpaceOnUse">
<stop stop-color="white"/>
<stop offset="0.6689" stop-color="#FDFFFF"/>
<stop offset="1" stop-color="#F6FFFF"/>
</linearGradient>
<linearGradient id="paint20_linear" x1="376.719" y1="480.147" x2="367.751" y2="464.922" gradientUnits="userSpaceOnUse">
<stop offset="0.3031" stop-color="#99D3EF"/>
<stop offset="1" stop-color="#6CB4D8"/>
</linearGradient>
<linearGradient id="paint21_linear" x1="347.573" y1="469.689" x2="331.023" y2="452.333" gradientUnits="userSpaceOnUse">
<stop stop-color="white"/>
<stop offset="0.1294" stop-color="#FBFFFF" stop-opacity="0.9353"/>
<stop offset="0.2587" stop-color="#EFFFFF" stop-opacity="0.8706"/>
<stop offset="0.3882" stop-color="#DBFFFF" stop-opacity="0.8059"/>
<stop offset="0.5179" stop-color="#BFF1FF" stop-opacity="0.7411"/>
<stop offset="0.6477" stop-color="#9AE9FF" stop-opacity="0.6762"/>
<stop offset="0.7777" stop-color="#6ED6FF" stop-opacity="0.6111"/>
<stop offset="0.9053" stop-color="#3ADBFF" stop-opacity="0.5473"/>
<stop offset="1" stop-color="#0FFFFF" stop-opacity="0.5"/>
</linearGradient>
<linearGradient id="paint22_linear" x1="417.427" y1="699.197" x2="405.196" y2="722.707" gradientUnits="userSpaceOnUse">
<stop stop-color="white"/>
<stop offset="0.6689" stop-color="#FDFFFF"/>
<stop offset="1" stop-color="#F6FFFF"/>
</linearGradient>
<linearGradient id="paint23_linear" x1="301.799" y1="653.2" x2="355.702" y2="653.2" gradientUnits="userSpaceOnUse">
<stop offset="0.2144" stop-color="#66BCE8"/>
<stop offset="0.4896" stop-color="#74C2EA"/>
<stop offset="0.6399" stop-color="#84CAEC"/>
<stop offset="0.8395" stop-color="#94D1EE"/>
<stop offset="1" stop-color="#99D3EF"/>
</linearGradient>
<linearGradient id="paint24_linear" x1="337.498" y1="688.2" x2="391.399" y2="688.2" gradientUnits="userSpaceOnUse">
<stop offset="0.2144" stop-color="#66BCE8"/>
<stop offset="0.4896" stop-color="#74C2EA"/>
<stop offset="0.6399" stop-color="#84CAEC"/>
<stop offset="0.8395" stop-color="#94D1EE"/>
<stop offset="1" stop-color="#99D3EF"/>
</linearGradient>
<linearGradient id="paint25_linear" x1="271.459" y1="330.192" x2="247.168" y2="207.496" gradientUnits="userSpaceOnUse">
<stop offset="0.3031" stop-color="#99D3EF"/>
<stop offset="1" stop-color="#6CB4D8"/>
</linearGradient>
<linearGradient id="paint26_linear" x1="65.8286" y1="113.84" x2="65.8286" y2="291.562" gradientUnits="userSpaceOnUse">
<stop stop-color="#E6F5FF"/>
<stop offset="0.0995508" stop-color="#E0F2FE"/>
<stop offset="0.2296" stop-color="#D0EBFA"/>
<stop offset="0.376" stop-color="#B5DFF5"/>
<stop offset="0.4978" stop-color="#99D3EF"/>
</linearGradient>
<linearGradient id="paint27_linear" x1="93.538" y1="211.404" x2="172.898" y2="385.702" gradientUnits="userSpaceOnUse">
<stop offset="0.3031" stop-color="#99D3EF"/>
<stop offset="1" stop-color="#6CB4D8"/>
</linearGradient>
<linearGradient id="paint28_linear" x1="136.652" y1="187.534" x2="136.459" y2="260.454" gradientUnits="userSpaceOnUse">
<stop stop-color="#E6F5FF"/>
<stop offset="0.0995508" stop-color="#E0F2FE"/>
<stop offset="0.2296" stop-color="#D0EBFA"/>
<stop offset="0.376" stop-color="#B5DFF5"/>
<stop offset="0.4978" stop-color="#99D3EF"/>
</linearGradient>
<linearGradient id="paint29_linear" x1="157.258" y1="193.004" x2="130.343" y2="202.307" gradientUnits="userSpaceOnUse">
<stop stop-color="#E6F5FF"/>
<stop offset="0.0518963" stop-color="#D4EDFB"/>
<stop offset="0.1351" stop-color="#BEE4F7"/>
<stop offset="0.2335" stop-color="#ADDCF3"/>
<stop offset="0.3553" stop-color="#A2D7F1"/>
<stop offset="0.526" stop-color="#9BD4EF"/>
<stop offset="1" stop-color="#99D3EF"/>
</linearGradient>
<linearGradient id="paint30_linear" x1="436.146" y1="684.492" x2="466.715" y2="684.492" gradientUnits="userSpaceOnUse">
<stop stop-color="#66BCE8"/>
<stop offset="1" stop-color="#99D3EF"/>
</linearGradient>
<linearGradient id="paint31_linear" x1="467.67" y1="165.914" x2="444.311" y2="165.914" gradientUnits="userSpaceOnUse">
<stop offset="0.3031" stop-color="#99D3EF"/>
<stop offset="1" stop-color="#6CB4D8"/>
</linearGradient>
<linearGradient id="paint32_linear" x1="418.991" y1="462.219" x2="431.938" y2="462.351" gradientUnits="userSpaceOnUse">
<stop stop-color="#66BCE8"/>
<stop offset="1" stop-color="#99D3EF"/>
</linearGradient>
<linearGradient id="paint33_linear" x1="385.229" y1="470.109" x2="459.286" y2="466.162" gradientUnits="userSpaceOnUse">
<stop stop-color="#66BCE8"/>
<stop offset="0.4896" stop-color="#74C2EA"/>
<stop offset="0.6399" stop-color="#84CAEC"/>
<stop offset="0.8395" stop-color="#94D1EE"/>
<stop offset="1" stop-color="#99D3EF"/>
</linearGradient>
<linearGradient id="paint34_linear" x1="386.606" y1="561.755" x2="546.215" y2="548.089" gradientUnits="userSpaceOnUse">
<stop stop-color="#66BCE8"/>
<stop offset="0.4896" stop-color="#74C2EA"/>
<stop offset="0.6399" stop-color="#84CAEC"/>
<stop offset="0.8395" stop-color="#94D1EE"/>
<stop offset="1" stop-color="#99D3EF"/>
</linearGradient>
<linearGradient id="paint35_linear" x1="388.899" y1="439.585" x2="396.871" y2="439.635" gradientUnits="userSpaceOnUse">
<stop stop-color="#66BCE8"/>
<stop offset="1" stop-color="#99D3EF"/>
</linearGradient>
<linearGradient id="paint36_linear" x1="449.749" y1="359.551" x2="446.543" y2="344.863" gradientUnits="userSpaceOnUse">
<stop stop-color="#66BCE8"/>
<stop offset="1" stop-color="#99D3EF"/>
</linearGradient>
</defs>
</svg>
