<svg width="692" height="285" viewBox="0 0 692 285" fill="none" xmlns="http://www.w3.org/2000/svg">
<rect width="692" height="284" fill="white"/>
<path d="M514.8 78.3L556.5 102.4V174.7L514.8 150.6V78.3Z" fill="url(#paint0_linear)"/>
<path d="M598.2 78.3V181.9L556.5 206.4V102.4L598.2 78.3Z" fill="url(#paint1_linear)"/>
<path d="M604.8 52.9001V173.1L646.5 197.2V76.9001L604.8 52.9001Z" fill="url(#paint2_linear)"/>
<path d="M278.5 217.1L312.1 236.4C314.1 237.5 314.1 240.4 312.1 241.5L278.5 260.9C276.2 262.2 273.4 262.2 271.1 260.9L237.7 241.5C235.7 240.4 235.7 237.5 237.7 236.4L271.1 217.1C273.5 215.8 276.2 215.8 278.5 217.1Z" fill="#E7F3FC"/>
<path d="M31.3 176.3L162.5 252C166.8 254.5 172.1 254.5 176.4 252L265.9 200.3C269.4 198.3 269.4 193.2 265.9 191.2L134.7 115.5C130.4 113 125.1 113 120.8 115.5L31.3 167.2C27.8 169.3 27.8 174.3 31.3 176.3Z" fill="#E7F3FC"/>
<path d="M262.4 154.9L394.2 78.8001C397.9 76.7001 402.4 76.7001 406 78.8001L600.2 191C603.9 193.1 603.9 198.5 600.2 200.6L468.4 276.7C464.7 278.8 460.2 278.8 456.6 276.7L262.4 164.6C258.6 162.4 258.6 157.1 262.4 154.9Z" fill="#E7F3FC"/>
<path d="M558 249.1L620.5 212.9L641.5 225L578.8 261.1L558 249.1Z" fill="#E7F3FC"/>
<path d="M107.6 242.6L45 206.5L24.2 218.6L86.8 254.7L107.6 242.6Z" fill="#E7F3FC"/>
<path d="M87.2 271.1L24.6 235L3.70001 247.1L66.3 283.2L87.2 271.1Z" fill="#E7F3FC"/>
<path d="M587.8 270.6L650.3 234.5L671.2 246.6L608.7 282.7L587.8 270.6Z" fill="#E7F3FC"/>
<path d="M600.2 180L468.4 256.1C464.7 258.2 460.2 258.2 456.6 256.1L262.4 143.9C261.2 143.2 260.4 142.1 259.9 140.9C259.1 143.3 259.9 146.1 262.4 147.6L456.8 259.8C460.5 261.9 465 261.9 468.6 259.8L600.4 183.7C602.9 182.3 603.7 179.4 602.9 177C602.3 178.2 601.5 179.3 600.2 180Z" fill="url(#paint3_linear)"/>
<path d="M3.70001 237L66.3 273.1L87.2 261.1L24.6 225L3.70001 237Z" fill="#F2FCFF"/>
<path d="M24.6 200.9L87.2 237L108 225L45.5 188.8L24.6 200.9Z" fill="#F2FCFF"/>
<path d="M32.5 157.2L163.7 233C168 235.5 173.3 235.5 177.6 233L267.1 181.3C270.6 179.3 270.6 174.2 267.1 172.2L135.9 96.5C131.6 94 126.3 94 122 96.5L32.5 148.2C29 150.1 29 155.2 32.5 157.2Z" fill="#C8E9F9"/>
<path d="M567 225L629.5 188.8L650.3 200.9L587.8 237L567 225Z" fill="#F2FCFF"/>
<path d="M587.8 261.1L650.3 225L671.2 237L608.7 273.1L587.8 261.1Z" fill="#F2FCFF"/>
<path d="M25.8 140.9V65.4001L127.6 6.6001V82.0001L25.8 140.9Z" fill="#EBF9FF"/>
<path d="M262.4 135.1L394.1 59C397.8 56.9 402.3 56.9 405.9 59L600.2 171.2C603.9 173.3 603.9 178.7 600.2 180.8L468.4 256.9C464.7 259 460.2 259 456.6 256.9L262.4 144.7C258.6 142.6 258.6 137.2 262.4 135.1Z" fill="#C8E9F9"/>
<path d="M45.3 117.4V70.9002L108.1 34.7002V81.2002L45.3 117.4Z" fill="white" stroke="#CCE3F1" stroke-width="0.5"/>
<path d="M514.8 78.3002L556.5 54.2002L598.2 78.3002L556.5 102.4L514.8 78.3002Z" fill="url(#paint4_linear)"/>
<path d="M267 180.5L177.5 232.2C173.2 234.7 167.9 234.7 163.6 232.2L32.5 156.4C31.3 155.7 30.5 154.6 30.1 153.4C29.4 155.6 30.2 158.2 32.5 159.5L163.7 235.2C168 237.7 173.3 237.7 177.6 235.2L267.1 183.5C269.4 182.2 270.2 179.6 269.5 177.4C269 178.7 268.2 179.8 267 180.5Z" fill="url(#paint5_linear)"/>
<path d="M604.8 52.9L646.5 28.8L688.3 52.9L646.5 76.9L604.8 52.9Z" fill="url(#paint6_linear)"/>
<path d="M567 225V227.7L587.8 239.9V237L567 225Z" fill="url(#paint7_linear)"/>
<path d="M650.3 200.9L587.8 237V239.9L650.3 203.7V200.9Z" fill="url(#paint8_linear)"/>
<path d="M587.8 261.1V263.9L608.7 276V273.1L587.8 261.1Z" fill="url(#paint9_linear)"/>
<path d="M671.2 237L608.7 273.1V276L671.2 239.9V237Z" fill="url(#paint10_linear)"/>
<path d="M688.3 173.1V52.9001L646.5 76.9001V197.2L688.3 173.1Z" fill="url(#paint11_linear)"/>
<path d="M539.2 121C518.2 108.9 484.4 108.9 463.6 121L463.5 151.2L501.4 173.1L549.1 159.1L549.2 128.9C546.6 126.1 543.3 123.4 539.2 121Z" fill="#007CAD"/>
<path d="M549.2 129L549.1 159.1L501.4 173L501.5 142.9L549.2 129Z" fill="#006BA0"/>
<path d="M539.2 121C543.4 123.4 546.7 126.1 549.2 129L501.5 142.9L463.6 121C484.4 108.9 518.2 108.9 539.2 121Z" fill="#00A1E0"/>
<path fill-rule="evenodd" clip-rule="evenodd" d="M558.4 135.1C558.5 130.3 556.6 125.4 552.7 120.9L505 134.8L504.9 175.1L542.8 196.9C553.1 190.9 558.3 183 558.3 175.2L558.4 135.1ZM558.1 138.6C558.1 138.7 558.1 138.8 558 138.8C558 138.7 558.1 138.6 558.1 138.6ZM557.9 139.3C557.9 139.343 557.9 139.367 557.892 139.389C557.882 139.418 557.858 139.443 557.8 139.5C557.9 139.4 557.9 139.3 557.9 139.3ZM557.45 140.9C557.475 140.875 557.5 140.85 557.5 140.8C557.437 140.864 557.413 140.927 557.405 140.965C557.402 140.975 557.4 140.987 557.4 141C557.4 141 557.4 140.987 557.405 140.965C557.413 140.937 557.432 140.918 557.45 140.9ZM557.2 141.5C557.2 141.6 557.1 141.7 557.1 141.7C557.158 141.643 557.182 141.618 557.192 141.589C557.2 141.567 557.2 141.543 557.2 141.5ZM556.95 142.3C556.975 142.275 557 142.25 557 142.2C556.943 142.258 556.918 142.282 556.908 142.311C556.9 142.333 556.9 142.358 556.9 142.4C556.9 142.35 556.925 142.325 556.95 142.3ZM556.3 143.7C556.3 143.75 556.275 143.775 556.25 143.8C556.225 143.825 556.2 143.85 556.2 143.9C556.2 143.858 556.2 143.833 556.208 143.811C556.218 143.782 556.243 143.758 556.3 143.7ZM555.9 144.4C555.9 144.5 555.8 144.6 555.8 144.6C555.8 144.5 555.9 144.4 555.9 144.4ZM555.5 145C555.5 145.05 555.475 145.075 555.45 145.1C555.425 145.125 555.4 145.15 555.4 145.2C555.4 145.2 555.5 145.1 555.5 145ZM554.55 146.6C554.575 146.575 554.6 146.55 554.6 146.5C554.543 146.558 554.518 146.582 554.508 146.611C554.5 146.633 554.5 146.658 554.5 146.7C554.5 146.65 554.525 146.625 554.55 146.6ZM554.1 147.2L553.9 147.4C553.938 147.362 553.962 147.324 553.982 147.291L553.982 147.291L553.982 147.291L553.982 147.291L553.982 147.291C554.015 147.238 554.038 147.2 554.1 147.2ZM553.4 148L553.6 147.8C553.562 147.838 553.538 147.876 553.518 147.909L553.518 147.909L553.518 147.909L553.518 147.909C553.485 147.962 553.462 148 553.4 148ZM553 148.5C553 148.6 552.9 148.6 552.9 148.6C552.95 148.6 552.975 148.6 552.988 148.588C553 148.575 553 148.55 553 148.5ZM543.95 156.1C543.9 156.125 543.85 156.15 543.8 156.2C543.9 156.2 544 156.1 544.1 156C544.05 156.05 544 156.075 543.95 156.1ZM545.65 155C545.6 155.025 545.55 155.05 545.5 155.1C545.6 155.1 545.7 155 545.8 154.9C545.75 154.95 545.7 154.975 545.65 155ZM547.3 153.8L547.5 153.6C547.5 153.7 547.4 153.8 547.3 153.8ZM548.25 153.2C548.2 153.225 548.15 153.25 548.1 153.3C548.1 153.2 548.2 153.1 548.4 153.1C548.35 153.15 548.3 153.175 548.25 153.2ZM548.8 152.7C548.838 152.662 548.876 152.638 548.909 152.618C548.962 152.586 549 152.562 549 152.5C548.938 152.5 548.915 152.538 548.882 152.591L548.882 152.591L548.882 152.591L548.882 152.591L548.882 152.591C548.862 152.624 548.838 152.662 548.8 152.7ZM552.4 149.3C552.4 149.4 552.3 149.4 552.3 149.4C552.3 149.4 552.3 149.3 552.4 149.3Z" fill="#57C5E8"/>
<path d="M558.4 135L558.3 175.2C558.3 183.1 553.1 190.9 542.8 196.9L542.9 156.7C553.2 150.7 558.4 142.9 558.4 135Z" fill="#2DB7E2"/>
<path d="M552.7 120.9C562.8 132.5 559.6 147 542.9 156.7L505 134.8L552.7 120.9Z" fill="#80E7FF"/>
<path d="M499.7 156L461.8 134.1C451.5 140.1 446.3 148 446.3 155.9C446.3 155.9 446.3 155.9 446.3 155.8L446.2 175.9C446.2 183.9 451.4 191.9 462 197.9C482.9 210 516.8 210 537.6 197.9L537.7 177.8L499.7 156Z" fill="#006BA0"/>
<path d="M537.7 177.9C516.9 190 483 190 462.1 177.9C441.2 165.8 441 146.2 461.8 134.1L499.7 156L537.7 177.9Z" fill="#0090D8"/>
<path d="M300.5 49.4002V138.1C300.5 138.5 300.7 138.8 301.2 139.1C302.2 139.7 303.7 139.7 304.6 139.1C305.1 138.8 305.3 138.5 305.3 138.1V49.4002C305.3 49.0002 305.1 48.7002 304.6 48.4002C303.6 47.8002 302.1 47.9002 301.2 48.4002C300.7 48.7002 300.4 49.0002 300.5 49.4002Z" fill="url(#paint12_linear)"/>
<path d="M301.2 50.4001C302.2 51.0001 303.7 51.0001 304.6 50.4001C305.1 50.1001 305.3 49.8001 305.3 49.4001V138.1C305.3 138.5 305.1 138.8 304.6 139.1C303.6 139.7 302.1 139.7 301.2 139.1C300.7 138.8 300.5 138.5 300.5 138.1V49.4001C300.5 49.8001 300.7 50.1001 301.2 50.4001Z" fill="url(#paint13_linear)"/>
<path d="M261.2 69.4L261.3 104.9L262.7 105.7L280.4 95.5V100L302.4 87.3L302.3 51.8L300.9 51L285.8 59.7V55.2L261.2 69.4Z" fill="#69F2FF"/>
<path d="M285.8 55.2002L285.9 90.7002L283.8 96.4002L283.7 61.0002L285.8 55.2002Z" fill="url(#paint14_linear)"/>
<path d="M282.4 58.8L282.5 94.2001L262.7 105.7L262.6 70.2L282.4 58.8Z" fill="url(#paint15_linear)"/>
<path d="M302.3 51.8L302.4 87.3L280.4 100L280.3 64.5L302.3 51.8Z" fill="url(#paint16_linear)"/>
<path d="M262.6 70.2001L262.7 105.7L261.3 104.9L261.2 69.4001L262.6 70.2001Z" fill="url(#paint17_linear)"/>
<path d="M285.8 55.2L283.7 61L300.9 51L302.3 51.8L280.3 64.5L282.4 58.8L262.6 70.2L261.2 69.4L285.8 55.2Z" fill="url(#paint18_linear)"/>
<path d="M43.9 102.9C43.9 102.7 43.8 102.5 43.5 102.3C43 102 42.1 102 41.6 102.3C41.3 102.5 41.2 102.7 41.2 102.9V152.5C41.2 152.7 41.3 152.9 41.6 153.1C42.1 153.4 43 153.4 43.5 153.1C43.8 152.9 43.9 152.7 43.9 152.5V102.9Z" fill="url(#paint19_linear)"/>
<path d="M43.9 102.9V152.5C43.9 152.7 43.8 152.9 43.5 153.1C43 153.4 42.1 153.4 41.6 153.1C41.3 152.9 41.2 152.7 41.2 152.5V102.9C41.2 103.1 41.3 103.3 41.6 103.5C42.1 103.8 43 103.8 43.5 103.5C43.8 103.3 43.9 103.1 43.9 102.9Z" fill="url(#paint20_linear)"/>
<path d="M52.1 106.2V108.7L43.7 103.8L42.9 104.3L42.8 124.1L55.1 131.1V128.6L65 134.3L65.8 133.9V114.1L52.1 106.2Z" fill="#69F2FF"/>
<path d="M53.3 109.4L53.2 129.2L52.1 126V106.2L53.3 109.4Z" fill="#AED7FF"/>
<path d="M65 114.5V134.3L53.9 128L54 108.1L65 114.5Z" fill="url(#paint21_linear)"/>
<path d="M55.1 111.3V131.1L42.8 124.1L42.9 104.3L55.1 111.3Z" fill="url(#paint22_linear)"/>
<path d="M65.8 114.1V133.9L65 134.3V114.5L65.8 114.1Z" fill="url(#paint23_linear)"/>
<path d="M65.8 114.1L65 114.5L54 108.1L55.1 111.3L42.9 104.3L43.7 103.8L53.3 109.4L52.1 106.2L65.8 114.1Z" fill="url(#paint24_linear)"/>
<path d="M153.8 190.9V204.1C169.8 213.4 195.8 213.4 211.9 204.1C220 199.4 224 193.3 224 187.2V174C224 167.9 220 161.9 212.1 157.2C196.1 147.9 170.1 147.9 154 157.2V170.4L171.5 180.6L153.8 190.9C153.9 191 154.1 191 154.2 191.1C154.1 191.1 153.9 191 153.8 190.9Z" fill="#80E7FF"/>
<path d="M182.9 174.1L154 157.3V170.5L171.5 180.7L182.9 174.1Z" fill="#59C5FF"/>
<path d="M136.6 165.8V186.9C136.6 192.9 140.6 199 148.5 203.6L177.6 186.8V165.7L148.7 149C140.4 153.7 136.4 160 136.6 166.2C136.6 166.1 136.6 166 136.6 165.8Z" fill="#0090D8"/>
<path d="M148.5 182.5V203.6C140.6 199 136.6 192.9 136.6 186.9V165.8C136.6 171.9 140.5 177.9 148.5 182.5Z" fill="#006BA0"/>
<path d="M177.5 165.7L177.6 186.8L148.5 203.6V182.5L177.5 165.7Z" fill="#006BA0"/>
<path d="M211.9 204.1C195.8 213.4 169.8 213.4 153.8 204.1V190.9C169.8 200.2 195.8 200.2 211.9 190.9C220 186.2 224 180.1 224 174V187.2C224.1 193.3 220 199.4 211.9 204.1Z" fill="#2DB7E2"/>
<path d="M212.1 157.3C228.1 166.6 228 181.7 211.9 190.9C195.8 200.1 169.8 200.2 153.8 190.9L182.9 174.1L212.1 157.3Z" fill="#80E7FF"/>
<path d="M76 173.8L89.2 166.1L102.5 173.8L89.2 181.3L76 173.8Z" fill="#D6EDF9"/>
<path d="M92.7 176.8L106 169.1L119.2 176.8L106 184.3L92.7 176.8Z" fill="#99D3EF"/>
<path d="M455.9 51.1001C455.9 49.1001 457.4 48.2001 459.1 49.3001C460.9 50.3001 462.3 52.8001 462.3 54.8001C462.3 56.8001 460.8 57.7001 459.1 56.6001C457.4 55.6001 455.9 53.1001 455.9 51.1001Z" fill="#74C9FF"/>
<path d="M468.5 58.5C468.5 56.5 470 55.6 471.7 56.7C473.5 57.7 474.9 60.2 474.9 62.2C474.9 64.2 473.5 65.1 471.7 64.1C469.9 63.1 468.5 60.6 468.5 58.5Z" fill="#A2DBFF"/>
<path d="M481.3 66.1001C481.3 64.1001 482.8 63.2001 484.5 64.3001C486.2 65.4001 487.7 67.8001 487.7 69.8001C487.7 71.8001 486.3 72.7001 484.5 71.7001C482.7 70.7001 481.3 68.1001 481.3 66.1001Z" fill="#D1EDFF"/>
<path d="M358.2 176.7L358.3 249L338 261.4L314.7 247.9L252.1 284L191.5 249L149.8 273.1L128.7 261.2V195.3" stroke="#B3DAFF" stroke-width="0.5" stroke-linecap="round" stroke-dasharray="3.13"/>
<path d="M295.8 160.5V212.9L337.7 237.1L321.2 246.4L362.9 270.5L400 249L449.1 278.3" stroke="#B3DAFF" stroke-width="0.5" stroke-linecap="round" stroke-dasharray="3.13"/>
<path d="M212.4 140.6L254.1 116.6L233.2 104.6L212.3 116.6V68.4001" stroke="#B3DAFF" stroke-width="0.5" stroke-linecap="round" stroke-dasharray="3.13"/>
<path d="M295.8 188.8L274.8 176.7" stroke="#B3DAFF" stroke-width="0.5" stroke-linecap="round" stroke-dasharray="3.13"/>
<path d="M87.2 237L108 225V227.9L87.2 239.8V237Z" fill="#86C3F2"/>
<path d="M24.6 200.9L87.2 237V239.8L24.6 203.6V200.9Z" fill="#86C3F2"/>
<path d="M66.3 273.3L87.2 261.2V264.2L66.3 276V273.3Z" fill="#86C3F2"/>
<path d="M3.70001 237.1L66.3 273.3V276L3.70001 239.8V237.1Z" fill="#86C3F2"/>
<path d="M106 184.3V184.7L119.2 177.1V176.8L106 184.3Z" fill="#5895B3"/>
<path d="M92.7 176.8L106 184.3V184.7L92.7 177.2V176.8Z" fill="#5895B3"/>
<path d="M89.2 181.3V181.7L94.9 178.4L94.6 178.3L89.2 181.3Z" fill="#739EB3"/>
<path d="M76 173.8L89.2 181.3V181.7L76 174.1V173.8Z" fill="#739EB3"/>
<path d="M278.5 203.1L312.1 222.4C314.1 223.5 314.1 226.4 312.1 227.5L278.5 246.9C276.2 248.2 273.4 248.2 271.1 246.9L237.7 227.6C235.7 226.5 235.7 223.6 237.7 222.5L271.1 203.2C273.4 201.8 276.1 201.8 278.5 203.1Z" fill="#F2FCFF"/>
<path d="M312.1 225.9L278.5 245.3C276.2 246.6 273.4 246.6 271.1 245.3L237.7 225.9C237 225.5 236.6 224.9 236.4 224.2C236 225.4 236.5 226.9 237.7 227.6L271.1 246.9C273.4 248.2 276.2 248.2 278.5 246.9L312.1 227.5C313.4 226.8 313.8 225.3 313.4 224.1C313.2 224.8 312.9 225.4 312.1 225.9Z" fill="#86C3F2"/>
<path d="M271.4 179.7V211.5C271.4 212.2 271.9 213 272.9 213.5C274.8 214.6 278 214.6 280 213.5C281 212.9 281.5 212.2 281.5 211.4V179.6C281.5 178.9 281 178.1 280 177.6C278.1 176.5 274.9 176.5 272.9 177.6C271.9 178.2 271.4 179 271.4 179.7C271.4 179.7 271.4 179.8 271.4 179.7Z" fill="#5098D4" fill-opacity="0.9"/>
<path d="M279.9 177.7C281.8 178.8 281.8 180.7 279.9 181.8C278 182.9 274.8 182.9 272.8 181.8C270.8 180.7 270.9 178.8 272.8 177.7C274.7 176.6 278 176.5 279.9 177.7Z" fill="#B0D0FF"/>
<path d="M272.8 202.9C274.7 204 277.9 204 279.9 202.9C280.9 202.3 281.4 201.6 281.4 200.8V211.4C281.4 212.1 280.9 212.9 279.9 213.5C277.9 214.6 274.8 214.6 272.8 213.5C271.8 212.9 271.3 212.2 271.3 211.5V200.9C271.4 201.6 271.9 202.4 272.8 202.9Z" fill="#0D5DBF" fill-opacity="0.5"/>
<path d="M279.9 198.9C281.8 200 281.8 201.9 279.9 203C278 204.1 274.8 204.1 272.8 203C270.8 201.9 270.9 200 272.8 198.9C274.7 197.8 278 197.7 279.9 198.9Z" fill="#5098D4" fill-opacity="0.9"/>
<path d="M259.3 185.7V217.5C259.3 218.2 259.8 219 260.8 219.5C262.7 220.6 265.9 220.6 267.9 219.5C268.9 218.9 269.4 218.2 269.4 217.4V185.6C269.4 184.9 268.9 184.1 267.9 183.6C266 182.5 262.8 182.5 260.8 183.6C259.7 184.2 259.2 185 259.3 185.7Z" fill="#77B6FE"/>
<path d="M267.8 183.6C269.7 184.7 269.7 186.6 267.8 187.7C265.9 188.8 262.7 188.8 260.7 187.7C258.7 186.6 258.8 184.7 260.7 183.6C262.6 182.5 265.9 182.5 267.8 183.6Z" fill="#AADAFE"/>
<path d="M260.7 198.3C262.6 199.4 265.8 199.4 267.8 198.3C268.8 197.7 269.3 197 269.3 196.2V217.4C269.3 218.1 268.8 218.9 267.8 219.5C265.8 220.6 262.7 220.6 260.7 219.5C259.7 218.9 259.2 218.2 259.2 217.5V196.3C259.2 197 259.7 197.7 260.7 198.3Z" fill="#7AD5FF"/>
<path d="M267.7 194.2C269.6 195.3 269.6 197.2 267.7 198.3C265.8 199.4 262.6 199.4 260.6 198.3C258.6 197.2 258.7 195.3 260.6 194.2C262.5 193.1 265.8 193 267.7 194.2Z" fill="#59C5FF"/>
<path d="M247.1 192.7V224.5C247.1 225.2 247.6 226 248.6 226.5C250.5 227.6 253.7 227.6 255.7 226.5C256.7 225.9 257.2 225.2 257.2 224.4V192.6C257.2 191.9 256.7 191.1 255.7 190.6C253.8 189.5 250.6 189.5 248.6 190.6C247.6 191.2 247.1 192 247.1 192.7Z" fill="#4089C6"/>
<path d="M255.6 190.7C257.5 191.8 257.5 193.7 255.6 194.8C253.7 195.9 250.5 195.9 248.6 194.7C246.7 193.5 246.7 191.7 248.6 190.6C250.5 189.5 253.7 189.5 255.6 190.7Z" fill="#8CC2F4"/>
<path d="M424 207.8L427.9 198.1V196.2C427.9 196.1 427.9 196.1 427.8 196L409.8 185.6C409.6 185.5 409.4 185.6 409.3 185.7L405.5 195.2C405.4 195.5 404.9 195.8 404.4 195.8L388.1 198.1C388 198.1 387.9 198.2 387.9 198.3V200.2L406.3 210.8L423 208.5C423.5 208.3 423.9 208.1 424 207.8Z" fill="#5895B3"/>
<path d="M427.9 196.1C428 196.1 428 196.2 428 196.3L424.1 206C424 206.3 423.5 206.6 423 206.6L406.2 208.8C406.1 208.8 406 208.8 405.9 208.8L387.9 198.4C387.7 198.3 387.8 198.2 388 198.1L404.3 195.9C404.9 195.8 405.3 195.6 405.4 195.3L409.2 185.8C409.3 185.7 409.5 185.6 409.7 185.7L427.9 196.1Z" fill="#99D3EF"/>
<path d="M431.9 225.2L448.6 222.9C449.2 222.8 449.6 222.6 449.7 222.3L453.6 212.6V210.7C453.6 210.6 453.6 210.6 453.5 210.6L435.5 200.2C435.3 200.1 435.1 200.2 435 200.3L431.2 209.8C431.1 210.1 430.6 210.4 430.1 210.4L413.7 212.5C413.6 212.5 413.5 212.6 413.5 212.7V214.6L431.9 225.2Z" fill="#5895B3"/>
<path d="M453.5 210.5C453.6 210.5 453.6 210.6 453.6 210.6L449.7 220.3C449.6 220.6 449.1 220.9 448.6 220.9L431.9 223.2C431.8 223.2 431.7 223.2 431.6 223.2L413.6 212.8C413.4 212.7 413.5 212.6 413.7 212.5L430 210.3C430.6 210.2 431 210 431.1 209.7L434.9 200.2C435 200.1 435.2 200 435.4 200.1L453.5 210.5Z" fill="#99D3EF"/>
<path d="M457.5 239.6L474.2 237.3C474.8 237.2 475.2 237 475.3 236.7L479.2 227V225.1C479.2 225 479.2 225 479.1 225L461.1 214.6C460.9 214.5 460.7 214.6 460.6 214.7L456.8 224.1C456.7 224.4 456.2 224.7 455.7 224.7L439.3 227C439.2 227 439.1 227.1 439.1 227.2V229.1L457.5 239.6Z" fill="#5895B3"/>
<path d="M479.1 224.9C479.2 224.9 479.2 225 479.2 225.1L475.3 234.8C475.2 235.1 474.7 235.4 474.2 235.4L457.5 237.7C457.4 237.7 457.3 237.7 457.2 237.7L439.2 227.3C439 227.2 439.1 227 439.3 227L455.6 224.8C456.2 224.7 456.6 224.5 456.7 224.2L460.5 214.7C460.6 214.6 460.8 214.5 461 214.6L479.1 224.9Z" fill="#99D3EF"/>
<path d="M77.5 60.8001C77.4 60.9001 77.2 61.0001 77.1 61.0001C74.5 62.7001 72.4 66.3001 72.3 69.4001C72.2 71.5001 72.9 72.9001 74.2 73.4001C74.8 73.6001 74.7 74.9001 73.9 75.6001C70 79.6001 67.2 85.5001 67.2 90.6001V97.0001L87.9 85.1001V78.7001C87.9 73.6001 85.1 70.9001 81.2 71.5001C80.4 71.6001 80.3 70.6001 80.9 69.6001C82 67.8001 82.8 65.8001 82.8 63.9001C82.8 60.5001 80.4 59.1001 77.5 60.8001Z" fill="#CCE9F7"/>
<path d="M413.871 55.437L405.371 60.437V94.337L451.171 120.837L456.371 117.737V83.737L413.871 55.437Z" fill="#00CEEE"/>
<path d="M405.371 60.437L413.871 55.437L456.371 83.737L451.171 86.837L405.371 60.437Z" fill="#56CFFF"/>
<path d="M433.571 48.5371L413.871 55.4371L405.371 60.4371L426.471 96.6371L451.171 86.8371L456.371 83.7371L433.571 48.5371Z" fill="url(#paint25_linear)"/>
<path d="M410.621 57.3571L413.821 55.4571L433.621 48.5571L410.621 57.3571Z" fill="#BDEBFF"/>
<path d="M433.621 48.5571L456.421 83.7571L410.621 57.3571L433.621 48.5571Z" fill="url(#paint26_linear)"/>
<path d="M412.931 46.2371L411.931 46.8371V97.3371L444.531 116.137L445.331 113.937L445.531 65.1371L412.931 46.2371Z" fill="#C1F2F7"/>
<path d="M444.531 65.637L445.531 65.137L445.731 113.937L444.531 116.137V65.637Z" fill="#D5F1F9"/>
<path d="M411.971 46.8371L412.871 46.2371L445.471 65.1371L444.571 65.6371L411.971 46.8371Z" fill="#E6FAFF"/>
<path d="M444.571 65.6372V116.137L411.971 97.3372V46.8372L444.571 65.6372Z" fill="white"/>
<path d="M439.081 88.157C439.081 88.557 438.681 88.857 438.281 88.657L418.481 77.157C417.881 76.857 417.481 76.157 417.481 75.457C417.481 75.057 417.881 74.757 418.281 74.957L438.081 86.457C438.681 86.757 439.081 87.457 439.081 88.157Z" fill="#CCE3F1"/>
<path d="M439.081 82.957C439.081 83.357 438.681 83.657 438.281 83.457L418.481 71.957C417.881 71.657 417.481 70.957 417.481 70.257C417.481 69.857 417.881 69.557 418.281 69.757L438.081 81.257C438.681 81.557 439.081 82.257 439.081 82.957Z" fill="#CCE3F1"/>
<path d="M439.081 77.657C439.081 78.057 438.681 78.357 438.281 78.157L418.481 66.657C417.881 66.357 417.481 65.657 417.481 64.957C417.481 64.557 417.881 64.257 418.281 64.457L438.081 75.957C438.681 76.357 439.081 76.957 439.081 77.657Z" fill="#CCE3F1"/>
<path d="M439.081 72.457C439.081 72.857 438.681 73.157 438.281 72.957L418.481 61.457C417.881 61.157 417.481 60.457 417.481 59.757C417.481 59.357 417.881 59.057 418.281 59.257L438.081 70.757C438.681 71.157 439.081 71.757 439.081 72.457Z" fill="#CCE3F1"/>
<path d="M405.371 60.437V94.337L451.171 120.837V86.837L426.471 96.637L405.371 60.437Z" fill="url(#paint27_linear)"/>
<path d="M421.471 88.1816L432.271 94.3816L451.171 120.782L405.371 94.3816L421.471 88.1816Z" fill="url(#paint28_linear)"/>
<path d="M451.172 86.8817L456.372 83.7817V117.782L451.172 120.782V86.8817Z" fill="url(#paint29_linear)"/>
<defs>
<linearGradient id="paint0_linear" x1="2461.97" y1="7419.75" x2="9990.61" y2="-297.178" gradientUnits="userSpaceOnUse">
<stop stop-color="#66BCE8"/>
<stop offset="0.4896" stop-color="#74C2EA"/>
<stop offset="0.6399" stop-color="#84CAEC"/>
<stop offset="0.8395" stop-color="#94D1EE"/>
<stop offset="1" stop-color="#99D3EF"/>
</linearGradient>
<linearGradient id="paint1_linear" x1="28067.8" y1="10330.2" x2="29620.6" y2="10376.9" gradientUnits="userSpaceOnUse">
<stop stop-color="#66BCE8"/>
<stop offset="0.4896" stop-color="#74C2EA"/>
<stop offset="0.6399" stop-color="#84CAEC"/>
<stop offset="0.8395" stop-color="#94D1EE"/>
<stop offset="1" stop-color="#99D3EF"/>
</linearGradient>
<linearGradient id="paint2_linear" x1="3253.32" y1="-6903.54" x2="5885.1" y2="-7930.26" gradientUnits="userSpaceOnUse">
<stop stop-color="#66BCE8"/>
<stop offset="0.4896" stop-color="#74C2EA"/>
<stop offset="0.6399" stop-color="#84CAEC"/>
<stop offset="0.8395" stop-color="#94D1EE"/>
<stop offset="1" stop-color="#99D3EF"/>
</linearGradient>
<linearGradient id="paint3_linear" x1="267.421" y1="159.08" x2="266.161" y2="274.13" gradientUnits="userSpaceOnUse">
<stop stop-color="#66BCE8"/>
<stop offset="0.4896" stop-color="#74C2EA"/>
<stop offset="0.6399" stop-color="#84CAEC"/>
<stop offset="0.8395" stop-color="#94D1EE"/>
<stop offset="1" stop-color="#99D3EF"/>
</linearGradient>
<linearGradient id="paint4_linear" x1="55727.7" y1="11566.7" x2="69623.1" y2="16776.1" gradientUnits="userSpaceOnUse">
<stop offset="0.2825" stop-color="#99D3EF"/>
<stop offset="1" stop-color="#66BCE8"/>
</linearGradient>
<linearGradient id="paint5_linear" x1="29.805" y1="237.075" x2="269.695" y2="237.075" gradientUnits="userSpaceOnUse">
<stop stop-color="#66BCE8"/>
<stop offset="0.4896" stop-color="#74C2EA"/>
<stop offset="0.6399" stop-color="#84CAEC"/>
<stop offset="0.8395" stop-color="#94D1EE"/>
<stop offset="1" stop-color="#99D3EF"/>
</linearGradient>
<linearGradient id="paint6_linear" x1="55815.7" y1="11512.2" x2="69697.2" y2="16739.8" gradientUnits="userSpaceOnUse">
<stop offset="0.2825" stop-color="#99D3EF"/>
<stop offset="1" stop-color="#66BCE8"/>
</linearGradient>
<linearGradient id="paint7_linear" x1="566.95" y1="239.9" x2="587.75" y2="239.9" gradientUnits="userSpaceOnUse">
<stop stop-color="#66BCE8"/>
<stop offset="0.4896" stop-color="#74C2EA"/>
<stop offset="0.6399" stop-color="#84CAEC"/>
<stop offset="0.8395" stop-color="#94D1EE"/>
<stop offset="1" stop-color="#99D3EF"/>
</linearGradient>
<linearGradient id="paint8_linear" x1="587.75" y1="239.931" x2="650.35" y2="239.931" gradientUnits="userSpaceOnUse">
<stop stop-color="#66BCE8"/>
<stop offset="0.4896" stop-color="#74C2EA"/>
<stop offset="0.6399" stop-color="#84CAEC"/>
<stop offset="0.8395" stop-color="#94D1EE"/>
<stop offset="1" stop-color="#99D3EF"/>
</linearGradient>
<linearGradient id="paint9_linear" x1="587.75" y1="276" x2="608.65" y2="276" gradientUnits="userSpaceOnUse">
<stop stop-color="#66BCE8"/>
<stop offset="0.4896" stop-color="#74C2EA"/>
<stop offset="0.6399" stop-color="#84CAEC"/>
<stop offset="0.8395" stop-color="#94D1EE"/>
<stop offset="1" stop-color="#99D3EF"/>
</linearGradient>
<linearGradient id="paint10_linear" x1="608.65" y1="276.031" x2="671.25" y2="276.031" gradientUnits="userSpaceOnUse">
<stop stop-color="#66BCE8"/>
<stop offset="0.4896" stop-color="#74C2EA"/>
<stop offset="0.6399" stop-color="#84CAEC"/>
<stop offset="0.8395" stop-color="#94D1EE"/>
<stop offset="1" stop-color="#99D3EF"/>
</linearGradient>
<linearGradient id="paint11_linear" x1="1426.22" y1="7617.61" x2="6777.99" y2="3793.61" gradientUnits="userSpaceOnUse">
<stop stop-color="#66BCE8"/>
<stop offset="0.4896" stop-color="#74C2EA"/>
<stop offset="0.6399" stop-color="#84CAEC"/>
<stop offset="0.8395" stop-color="#94D1EE"/>
<stop offset="1" stop-color="#99D3EF"/>
</linearGradient>
<linearGradient id="paint12_linear" x1="292.973" y1="338.041" x2="318.689" y2="338.041" gradientUnits="userSpaceOnUse">
<stop stop-color="#66BCE8"/>
<stop offset="1" stop-color="#99D3EF"/>
</linearGradient>
<linearGradient id="paint13_linear" x1="319.493" y1="-90.0753" x2="299.842" y2="-90.0753" gradientUnits="userSpaceOnUse">
<stop offset="0.3031" stop-color="#99D3EF"/>
<stop offset="1" stop-color="#6CB4D8"/>
</linearGradient>
<linearGradient id="paint14_linear" x1="278.573" y1="155.338" x2="289.468" y2="155.45" gradientUnits="userSpaceOnUse">
<stop stop-color="#66BCE8"/>
<stop offset="1" stop-color="#99D3EF"/>
</linearGradient>
<linearGradient id="paint15_linear" x1="250.135" y1="162.481" x2="312.432" y2="159.168" gradientUnits="userSpaceOnUse">
<stop stop-color="#66BCE8"/>
<stop offset="0.4896" stop-color="#74C2EA"/>
<stop offset="0.6399" stop-color="#84CAEC"/>
<stop offset="0.8395" stop-color="#94D1EE"/>
<stop offset="1" stop-color="#99D3EF"/>
</linearGradient>
<linearGradient id="paint16_linear" x1="251.285" y1="239.657" x2="385.545" y2="228.185" gradientUnits="userSpaceOnUse">
<stop stop-color="#66BCE8"/>
<stop offset="0.4896" stop-color="#74C2EA"/>
<stop offset="0.6399" stop-color="#84CAEC"/>
<stop offset="0.8395" stop-color="#94D1EE"/>
<stop offset="1" stop-color="#99D3EF"/>
</linearGradient>
<linearGradient id="paint17_linear" x1="253.27" y1="137.386" x2="259.975" y2="137.427" gradientUnits="userSpaceOnUse">
<stop stop-color="#66BCE8"/>
<stop offset="1" stop-color="#99D3EF"/>
</linearGradient>
<linearGradient id="paint18_linear" x1="304.446" y1="69.387" x2="301.75" y2="57.0315" gradientUnits="userSpaceOnUse">
<stop stop-color="#66BCE8"/>
<stop offset="1" stop-color="#99D3EF"/>
</linearGradient>
<linearGradient id="paint19_linear" x1="42.4349" y1="99.1963" x2="42.4349" y2="105.086" gradientUnits="userSpaceOnUse">
<stop stop-color="#66BCE8"/>
<stop offset="1" stop-color="#99D3EF"/>
</linearGradient>
<linearGradient id="paint20_linear" x1="59.9044" y1="1.54162" x2="46.7354" y2="1.54918" gradientUnits="userSpaceOnUse">
<stop offset="0.3031" stop-color="#99D3EF"/>
<stop offset="1" stop-color="#6CB4D8"/>
</linearGradient>
<linearGradient id="paint21_linear" x1="1542.03" y1="397.016" x2="1732.78" y2="398.187" gradientUnits="userSpaceOnUse">
<stop stop-color="#66BCE8"/>
<stop offset="0.4896" stop-color="#74C2EA"/>
<stop offset="0.6399" stop-color="#84CAEC"/>
<stop offset="0.8395" stop-color="#94D1EE"/>
<stop offset="1" stop-color="#99D3EF"/>
</linearGradient>
<linearGradient id="paint22_linear" x1="38.3956" y1="150.189" x2="68.927" y2="150.646" gradientUnits="userSpaceOnUse">
<stop stop-color="#66BCE8"/>
<stop offset="0.4896" stop-color="#74C2EA"/>
<stop offset="0.6399" stop-color="#84CAEC"/>
<stop offset="0.8395" stop-color="#94D1EE"/>
<stop offset="1" stop-color="#99D3EF"/>
</linearGradient>
<linearGradient id="paint23_linear" x1="81.6956" y1="-70.265" x2="61.2072" y2="-70.3036" gradientUnits="userSpaceOnUse">
<stop stop-color="#66BCE8"/>
<stop offset="1" stop-color="#99D3EF"/>
</linearGradient>
<linearGradient id="paint24_linear" x1="36.4832" y1="96.1383" x2="36.4832" y2="112.872" gradientUnits="userSpaceOnUse">
<stop stop-color="#66BCE8"/>
<stop offset="1" stop-color="#99D3EF"/>
</linearGradient>
<linearGradient id="paint25_linear" x1="468.629" y1="171.922" x2="490.316" y2="62.9051" gradientUnits="userSpaceOnUse">
<stop offset="0.3031" stop-color="#99D3EF"/>
<stop offset="1" stop-color="#6CB4D8"/>
</linearGradient>
<linearGradient id="paint26_linear" x1="330.766" y1="-43.2036" x2="330.766" y2="114.729" gradientUnits="userSpaceOnUse">
<stop stop-color="#E6F5FF"/>
<stop offset="0.0995508" stop-color="#E0F2FE"/>
<stop offset="0.2296" stop-color="#D0EBFA"/>
<stop offset="0.376" stop-color="#B5DFF5"/>
<stop offset="0.4978" stop-color="#99D3EF"/>
</linearGradient>
<linearGradient id="paint27_linear" x1="384.818" y1="-14.2404" x2="314.218" y2="140.598" gradientUnits="userSpaceOnUse">
<stop offset="0.3031" stop-color="#99D3EF"/>
<stop offset="1" stop-color="#6CB4D8"/>
</linearGradient>
<linearGradient id="paint28_linear" x1="382.275" y1="22.5288" x2="382.446" y2="87.3288" gradientUnits="userSpaceOnUse">
<stop stop-color="#E6F5FF"/>
<stop offset="0.0995508" stop-color="#E0F2FE"/>
<stop offset="0.2296" stop-color="#D0EBFA"/>
<stop offset="0.376" stop-color="#B5DFF5"/>
<stop offset="0.4978" stop-color="#99D3EF"/>
</linearGradient>
<linearGradient id="paint29_linear" x1="445.55" y1="54.3946" x2="469.262" y2="62.4814" gradientUnits="userSpaceOnUse">
<stop stop-color="#E6F5FF"/>
<stop offset="0.0518963" stop-color="#D4EDFB"/>
<stop offset="0.1351" stop-color="#BEE4F7"/>
<stop offset="0.2335" stop-color="#ADDCF3"/>
<stop offset="0.3553" stop-color="#A2D7F1"/>
<stop offset="0.526" stop-color="#9BD4EF"/>
<stop offset="1" stop-color="#99D3EF"/>
</linearGradient>
</defs>
</svg>
