<svg width="636" height="473" viewBox="0 0 636 473" fill="none" xmlns="http://www.w3.org/2000/svg">
<g opacity="0.901242">
<g opacity="0.901242">
<g opacity="0.901242">
<path opacity="0.901242" d="M318 472.152C493.627 472.152 636 463.84 636 453.586C636 443.333 493.627 435.021 318 435.021C142.373 435.021 0 443.333 0 453.586C0 463.84 142.373 472.152 318 472.152Z" fill="#0040BF"/>
</g>
<g opacity="0.901242">
<path opacity="0.901242" d="M586.39 14.0225H339.194C339.194 14.0225 294.665 55.0251 294.665 154.711C294.665 240.439 328.434 356.673 315.756 404.253C306.195 440.155 259.829 446.321 237.605 447.174H472.895C472.895 447.174 550.275 451.849 562.953 404.253C575.631 356.657 541.861 240.439 541.861 154.694C541.861 54.9595 586.39 14.0225 586.39 14.0225Z" fill="#407BFF"/>
<path opacity="0.7" d="M586.39 14.0225H339.194C339.194 14.0225 294.665 55.0251 294.665 154.711C294.665 240.439 328.434 356.673 315.756 404.253C306.195 440.155 259.829 446.321 237.605 447.174H472.895C472.895 447.174 550.275 451.849 562.953 404.253C575.631 356.657 541.861 240.439 541.861 154.694C541.861 54.9595 586.39 14.0225 586.39 14.0225Z" fill="white"/>
<g opacity="0.8">
<path opacity="0.8" d="M519.14 119.153H321.441C327.034 75.2968 342.107 49.7767 350.422 38.624H541.052C531.703 58.1413 522.879 84.7274 519.14 119.153Z" fill="#407BFF"/>
<path opacity="0.3" d="M517.489 142.411H319.512C319.676 138.426 319.905 134.555 320.233 130.815H518.096C517.822 134.588 517.62 138.453 517.489 142.411Z" fill="#407BFF"/>
<path opacity="0.3" d="M381.586 165.65H319.442C319.333 161.944 319.273 158.297 319.262 154.711V154.071H381.422V154.695C381.422 158.319 381.471 161.977 381.586 165.65Z" fill="#407BFF"/>
<path opacity="0.3" d="M518.662 188.89H320.833C320.488 184.986 320.209 181.116 319.996 177.311H517.908C518.104 181.148 518.356 185.008 518.662 188.89Z" fill="#407BFF"/>
<path opacity="0.3" d="M520.847 212.097H323.182C322.722 208.216 322.296 204.351 321.902 200.502H519.732C520.011 204.405 520.421 208.276 520.847 212.097Z" fill="#407BFF"/>
<path opacity="0.3" d="M523.699 235.388H326.198C325.657 231.517 325.148 227.646 324.656 223.809H522.223C522.683 227.668 523.175 231.528 523.699 235.388Z" fill="#407BFF"/>
<path opacity="0.3" d="M526.965 258.628H329.48C328.911 254.757 328.365 250.898 327.84 247.049H525.309C525.85 250.903 526.407 254.741 526.965 258.628Z" fill="#407BFF"/>
<path opacity="0.3" d="M530.456 281.885H333.036C332.725 279.769 332.397 277.62 332.069 275.472L331.281 270.289H528.701C529.291 274.16 529.865 278.03 530.456 281.885Z" fill="#407BFF"/>
<path opacity="0.3" d="M336.484 305.124C335.937 301.297 335.39 297.437 334.844 293.545H532.23C532.804 297.416 533.395 301.27 533.953 305.124H336.484Z" fill="#407BFF"/>
<path opacity="0.3" d="M339.61 328.366C339.15 324.578 338.642 320.707 338.117 316.787H502.784C503.341 320.691 503.866 324.561 504.424 328.366H339.61Z" fill="#407BFF"/>
<path opacity="0.3" d="M342.043 351.622C341.726 347.839 341.365 343.974 340.961 340.026H538.626C539.069 343.995 539.479 347.866 539.824 351.622H342.043Z" fill="#407BFF"/>
<path opacity="0.3" d="M343.173 374.861C343.173 371.122 343.026 367.251 342.812 363.282H447.107C447.369 367.333 447.517 371.204 447.566 374.861H343.173Z" fill="#407BFF"/>
</g>
<path opacity="0.901242" d="M491.85 434.628C479.303 436.908 466.593 435.169 453.98 434.628C447.932 434.237 441.86 434.396 435.841 435.104C429.936 435.891 424.065 437.433 418.111 436.908C420.079 435.851 421.931 434.592 423.638 433.152C423.792 433 423.854 432.778 423.8 432.568C423.746 432.358 423.584 432.194 423.376 432.135C404.859 425.575 387.999 443.321 369.548 439.188C374.779 435.317 382.144 435.235 386.605 430.151C386.773 429.971 386.82 429.709 386.724 429.482C386.629 429.255 386.408 429.106 386.162 429.101C369.662 428.773 354.081 435.153 337.68 436.613C336.893 436.613 336.893 437.908 337.68 437.843C353.507 436.465 368.678 430.413 384.637 430.282C379.864 434.546 372.582 434.694 367.727 438.991C367.574 439.146 367.514 439.37 367.567 439.581C367.621 439.793 367.781 439.961 367.989 440.024C386.588 445.158 403.514 427.412 421.883 432.89C419.968 434.393 417.881 435.665 415.667 436.678C415.456 436.806 415.34 437.047 415.372 437.292C415.404 437.538 415.578 437.741 415.815 437.81C421.867 438.827 427.788 437.531 433.758 436.58C440.442 435.621 447.208 435.357 453.947 435.793C466.691 436.4 479.484 438.122 492.145 435.793C492.982 435.678 492.654 434.481 491.85 434.628Z" fill="#407BFF"/>
</g>
<g opacity="0.901242">
<path opacity="0.901242" d="M157.075 74.542C158.108 75.8705 159.437 77.4286 160.651 78.8719C161.864 80.3152 163.193 81.7749 164.505 83.1853C167.145 86.0063 169.819 88.7781 172.705 91.3859C178.058 96.4683 184.139 100.725 190.747 104.015C191.55 104.376 192.387 104.704 193.125 104.999C193.49 105.144 193.862 105.27 194.24 105.376C194.59 105.514 194.952 105.619 195.322 105.688C196.896 106.092 198.506 106.345 200.128 106.442C203.759 106.619 207.398 106.41 210.985 105.819C214.795 105.238 218.568 104.438 222.286 103.424C226.058 102.44 229.912 101.227 233.504 99.9636L236.784 106.524C229.493 111.082 221.598 114.593 213.331 116.955C208.971 118.203 204.478 118.924 199.948 119.104C197.494 119.202 195.037 119.043 192.616 118.628C191.993 118.53 191.353 118.382 190.73 118.234C190.107 118.087 189.451 117.923 188.91 117.742C187.762 117.398 186.646 117.021 185.629 116.594C177.281 113.161 169.599 108.293 162.93 102.211C159.676 99.3903 156.572 96.4012 153.631 93.2556C152.171 91.6155 150.744 90.0902 149.367 88.4501C147.989 86.81 146.677 85.1699 145.25 83.2838L157.075 74.542Z" fill="#FFB573"/>
<path opacity="0.901242" d="M140.396 69.9015C140.035 79.0861 143.676 95.6512 143.676 95.6512L166.408 92.8958C166.408 92.8958 167.245 68.6551 162.833 62.7999C155.37 53.0085 140.741 61.209 140.396 69.9015Z" fill="#407BFF"/>
<path opacity="0.901242" d="M230.449 102.294L241.094 92.5518L242.455 103.048C242.455 103.048 238.043 108.969 233.041 106.476L230.449 102.294Z" fill="#FFB573"/>
<path opacity="0.901242" d="M246.444 93.126L250.955 99.0468L242.459 103.049L241.098 92.5684L246.444 93.126Z" fill="#FFB573"/>
<path opacity="0.901242" d="M243.756 66.5715C244.887 66.5715 245.51 66.5715 246.314 66.5715C246.658 66.5478 247.003 66.5478 247.347 66.5715L248.2 66.6863C248.936 66.7729 249.637 67.0499 250.234 67.49C250.524 67.8317 250.717 68.2453 250.792 68.6872L251.169 69.9337L252.694 74.854L255.745 84.8095L261.829 104.737C265.848 118.022 270.03 131.274 273.901 144.591C281.855 171.194 289.383 197.895 296.78 224.645C304.177 251.395 311.131 278.26 318.282 305.01C325.433 331.76 331.829 358.822 334.109 386.9C334.279 390.769 331.719 394.229 327.97 395.199C324.221 396.169 320.305 394.384 318.577 390.919C306.932 365.267 299.322 338.583 292.663 311.652C286.005 284.722 278.936 258.021 272.408 231.107C265.881 204.193 259.501 177.131 253.531 150.02C250.464 136.489 247.675 122.876 244.74 109.313L240.393 88.9425L238.212 78.7575L237.129 73.6568L236.851 72.3939C236.702 71.9673 236.668 71.5092 236.752 71.0654C237.071 70.4149 237.544 69.852 238.13 69.4253L238.835 68.9004C239.106 68.6942 239.391 68.5078 239.688 68.3428C240.393 67.9328 240.902 67.5884 241.919 67.0963C242.491 66.8031 243.115 66.6248 243.756 66.5715Z" fill="#263238"/>
<path opacity="0.901242" d="M332.533 391.133C332.278 390.209 331.329 389.662 330.401 389.902L326.793 390.837L323.185 391.772C322.256 392.014 321.694 392.956 321.922 393.888C324.169 404.221 321.922 411.617 324.316 420.704C326.793 430.265 337.568 435.169 337.568 435.169L337.224 431.085L338.864 434.825C338.864 434.825 345.9 425.312 343.424 415.75C341.095 406.664 335.584 401.252 332.533 391.133Z" fill="#407BFF"/>
<path opacity="0.3" d="M332.533 391.133C332.278 390.209 331.329 389.662 330.401 389.902L326.793 390.837L323.185 391.772C322.256 392.014 321.694 392.956 321.922 393.888C324.169 404.221 321.922 411.617 324.316 420.704C326.793 430.265 337.568 435.169 337.568 435.169L337.224 431.085L338.864 434.825C338.864 434.825 345.9 425.312 343.424 415.75C341.095 406.664 335.584 401.252 332.533 391.133Z" fill="white"/>
<path opacity="0.901242" d="M335.34 414.848C335.635 416.05 334.903 417.265 333.701 417.565C332.5 417.864 331.282 417.135 330.979 415.935C330.676 414.734 331.401 413.515 332.601 413.208C333.809 412.908 335.033 413.641 335.34 414.848Z" fill="#263238"/>
<path opacity="0.901242" d="M337.357 431.579C337.226 431.619 337.085 431.602 336.966 431.534C336.848 431.465 336.764 431.351 336.733 431.218L332.666 415.555C332.631 415.424 332.649 415.285 332.717 415.168C332.785 415.051 332.896 414.966 333.027 414.932C333.157 414.892 333.299 414.908 333.417 414.976C333.535 415.045 333.619 415.159 333.65 415.292L337.717 430.955C337.752 431.086 337.734 431.225 337.666 431.342C337.599 431.459 337.487 431.544 337.357 431.579Z" fill="#263238"/>
<path opacity="0.901242" d="M324.074 334.81L301.966 340.534C300.689 340.855 299.393 340.086 299.063 338.812C298.735 337.56 299.462 336.274 300.703 335.909L322.926 330.185C324.178 329.857 325.464 330.584 325.829 331.825C326.003 332.454 325.915 333.127 325.584 333.689C325.253 334.252 324.709 334.656 324.074 334.81Z" fill="#407BFF"/>
<path opacity="0.901242" d="M211.839 34.6388C211.445 35.6228 211.658 36.6561 212.298 36.9349C212.938 37.2137 213.791 36.6397 214.184 35.6556C214.578 34.6716 214.381 33.6383 213.725 33.3595C213.069 33.0807 212.249 33.6547 211.839 34.6388Z" fill="#263238"/>
<path opacity="0.901242" d="M213.434 33.3262L216.074 33.6706C216.074 33.6706 214.106 34.9663 213.434 33.3262Z" fill="#263238"/>
<path opacity="0.901242" d="M212.3 35.9512C212.274 38.5914 212.605 41.2229 213.284 43.7745C211.96 44.0571 210.579 43.7388 209.512 42.9052L212.3 35.9512Z" fill="#ED893E"/>
<path opacity="0.901242" d="M215.81 28.6379C215.708 28.6182 215.612 28.5731 215.531 28.5067C214.335 27.4135 212.698 26.9404 211.103 27.2274C210.769 27.3116 210.428 27.1158 210.332 26.7846C210.248 26.4503 210.444 26.1093 210.775 26.0137C212.773 25.6177 214.84 26.1893 216.351 27.5554C216.469 27.6725 216.536 27.8319 216.536 27.9982C216.536 28.1646 216.469 28.324 216.351 28.4411C216.215 28.5936 216.012 28.6675 215.81 28.6379Z" fill="#263238"/>
<path opacity="0.901242" d="M177.073 34.1318C177.778 42.1191 175.122 55.1908 169.086 59.6355C169.086 59.6355 173.629 68.0328 188.177 69.9845C204.168 72.1331 196.656 63.1289 196.656 63.1289C188.144 59.8487 189.062 53.5015 191.211 47.6627L177.073 34.1318Z" fill="#FFB573"/>
<path opacity="0.901242" d="M220.648 76.7578C221.911 84.2039 223.469 91.9288 225.093 99.4569C225.962 103.213 226.832 106.985 227.849 110.675C228.865 114.365 229.882 118.056 231.014 121.68C231.637 123.468 232.195 125.289 232.851 127.027L233.835 129.651L234.065 130.291V130.488C234.097 130.588 234.136 130.687 234.179 130.783C234.518 131.368 235.071 131.797 235.721 131.98C237.019 132.442 238.379 132.702 239.756 132.751C243.275 132.848 246.795 132.562 250.252 131.898C253.877 131.242 257.698 130.356 261.257 129.372L264.259 136.015C262.451 137.091 260.589 138.077 258.683 138.967C256.798 139.89 254.866 140.712 252.893 141.427C248.763 143.04 244.431 144.078 240.018 144.511C237.426 144.746 234.813 144.569 232.277 143.986C229.027 143.245 226.1 141.48 223.929 138.951C223.367 138.272 222.862 137.548 222.42 136.786C222.19 136.408 222.01 136.015 221.813 135.638L221.501 134.9L220.222 132.029C219.386 130.11 218.582 128.192 217.877 126.256C216.466 122.386 215.121 118.498 213.957 114.595C212.792 110.692 211.743 106.755 210.677 102.819C208.725 94.9138 207.134 87.0905 205.953 78.9064L220.648 76.7578Z" fill="#FFB573"/>
<path opacity="0.901242" d="M259.682 129.832L266.013 124.813L268.867 134.556C268.867 134.556 260.207 140.821 257.895 133.457L259.682 129.832Z" fill="#FFB573"/>
<path opacity="0.901242" d="M271.736 126.536L273.999 133.654L268.866 134.556L266.012 124.813L271.736 126.536Z" fill="#FFB573"/>
<path opacity="0.901242" d="M153.449 439.105L166.668 440.089L170.605 409.698L157.369 408.73L153.449 439.105Z" fill="#FFB573"/>
<path opacity="0.901242" d="M68.6875 400.497L80.1518 407.467L99.2263 383.653L87.7619 376.683L68.6875 400.497Z" fill="#FFB573"/>
<path opacity="0.901242" d="M88.1585 410.979C87.9954 411.003 87.8296 411.003 87.6665 410.979C86.0264 410.979 84.0747 408.42 83.0906 406.911C83.0167 406.808 83.0167 406.67 83.0906 406.567C83.1553 406.459 83.2781 406.401 83.4022 406.419C83.9434 406.534 88.6833 407.534 89.3066 409.109C89.4426 409.463 89.3801 409.863 89.1426 410.159C88.9225 410.54 88.5736 410.831 88.1585 410.979ZM84.0583 407.256C85.4523 409.224 86.7808 410.388 87.6829 410.405C88.0829 410.409 88.4535 410.195 88.6505 409.847C88.74 409.707 88.74 409.528 88.6505 409.388C88.3881 408.551 85.9444 407.715 84.0583 407.272V407.256Z" fill="#407BFF"/>
<path opacity="0.901242" d="M87.4546 406.877C86.0919 407.247 84.6655 407.32 83.2723 407.09C83.1669 407.055 83.0866 406.968 83.0591 406.861C83.0063 406.769 83.0063 406.657 83.0591 406.565C83.1575 406.451 85.7653 403.777 87.6842 403.859C88.186 403.866 88.6574 404.101 88.9635 404.499C89.3292 404.859 89.3973 405.424 89.1275 405.86C88.6936 406.37 88.107 406.727 87.4546 406.877ZM84.0103 406.582C85.6504 406.762 88.1762 406.287 88.6846 405.532C88.6846 405.401 88.8159 405.221 88.5534 404.893C88.3574 404.637 88.0551 404.486 87.7334 404.483C86.3047 404.779 85.0036 405.513 84.0103 406.582Z" fill="#407BFF"/>
<path opacity="0.901242" d="M83.5986 404.908L72.7247 394.445C72.3525 394.062 71.7528 394.02 71.3306 394.346L62.0476 401.497C61.595 401.898 61.3359 402.475 61.3359 403.08C61.3359 403.685 61.595 404.261 62.0476 404.662C65.9019 408.254 67.9356 409.796 72.7083 414.405C75.6605 417.242 79.6623 421.67 83.7298 425.59C87.7973 429.51 91.7663 425.803 90.4214 423.819C84.353 414.929 85.2551 411.6 84.7139 407.057C84.598 406.235 84.2045 405.476 83.5986 404.908Z" fill="#263238"/>
<path opacity="0.901242" d="M172.422 440.515C171.022 440.489 169.627 440.33 168.257 440.039C168.127 440.013 168.029 439.908 168.011 439.777C167.993 439.644 168.058 439.514 168.175 439.449C168.781 439.137 174.161 436.431 175.735 437.349C176.044 437.507 176.239 437.823 176.244 438.169C176.313 438.748 176.084 439.322 175.637 439.695C174.689 440.323 173.556 440.612 172.422 440.515ZM169.306 439.596C172.226 440.072 174.407 439.957 175.227 439.236C175.521 438.985 175.669 438.602 175.621 438.219C175.63 438.083 175.56 437.955 175.44 437.891C174.555 437.399 171.52 438.547 169.306 439.596Z" fill="#407BFF"/>
<path opacity="0.901242" d="M168.323 440.075C168.264 440.092 168.202 440.092 168.143 440.075C168.044 440.011 167.993 439.895 168.012 439.78C168.012 439.55 168.651 434.138 171.62 434.138H171.866C172.735 434.22 172.981 434.646 173.03 435.007C173.276 436.499 170.062 439.37 168.454 440.091L168.323 440.075ZM171.603 434.712C169.701 434.712 168.946 437.861 168.717 439.206C170.357 438.222 172.538 435.925 172.391 435.073C172.391 434.991 172.391 434.777 171.784 434.728L171.603 434.712Z" fill="#407BFF"/>
<path opacity="0.901242" d="M167.505 438.203H152.629C152.098 438.202 151.642 438.582 151.547 439.105L149.546 450.865C149.466 451.461 149.647 452.063 150.043 452.515C150.439 452.968 151.011 453.227 151.613 453.227C156.795 453.227 159.305 452.833 165.849 452.833C169.867 452.833 178.182 453.243 183.742 453.243C189.302 453.243 189.745 447.749 187.433 447.257C177.116 445.026 173.114 441.943 169.703 439.056C169.094 438.521 168.316 438.219 167.505 438.203Z" fill="#263238"/>
<path opacity="0.2" d="M170.605 409.698L168.424 426.591L155.336 424.41L157.37 408.73L170.605 409.698Z" fill="black"/>
<path opacity="0.2" d="M87.7482 376.683L99.2125 383.669L91.3236 393.51L79.6133 386.851L87.7482 376.683Z" fill="black"/>
<path opacity="0.901242" d="M146.78 139.375L200.363 146.576C221.126 71.4259 215.009 69.4086 215.009 69.4086C212.648 68.2831 210.209 67.3293 207.71 66.5548C205.185 65.6363 202.632 64.7999 200.051 64.0454C194.897 62.5155 189.655 61.2942 184.355 60.388C174.069 58.6193 163.614 58.0305 153.193 58.6331C151.078 58.7809 149.145 59.8861 147.945 61.6345C147.722 61.9547 147.53 62.2951 147.371 62.6513C146.788 63.8994 146.561 65.2843 146.715 66.6532C151.242 106.147 149.782 119.137 146.78 139.375Z" fill="#407BFF"/>
<path opacity="0.2" d="M205.576 92.3721C204.521 100.148 205.522 108.065 208.479 115.334C212.038 100.671 213.973 90.732 214.924 83.8435C210.841 83.6631 206.593 85.2376 205.576 92.3721Z" fill="black"/>
<path opacity="0.901242" d="M214.527 69.1456C223.712 74.3939 230.092 86.9079 232.011 94.1736L212.461 112.051C212.461 112.051 202.325 88.4824 203.145 81.1675C203.965 73.8527 211.067 67.161 214.527 69.1456Z" fill="#407BFF"/>
<path opacity="0.901242" d="M179.971 17.649C175.854 30.081 173.853 35.2474 177.461 44.1039C182.906 57.438 199.029 60.259 206.77 49.4179C213.74 39.6592 219.3 20.962 209.378 11.023C205.135 6.51121 198.824 4.57782 192.782 5.93914C186.74 7.30046 181.868 11.7537 179.971 17.649Z" fill="#FFB573"/>
<path opacity="0.901242" d="M200.361 28.6695C199.496 30.9499 199.359 33.4422 199.967 35.8039C200.787 39.0842 203.248 39.363 204.773 37.2472C206.298 35.1315 207.332 31.3101 205.691 28.5547C204.051 25.7993 201.427 26.1601 200.361 28.6695Z" fill="#FFB573"/>
<path opacity="0.901242" d="M184.435 2.16518C175.578 -2.75514 159.636 11.645 155.635 35.1477C152.764 51.9752 188.699 60.1101 211.398 59.8477C209.889 55.8786 200.459 43.9387 206.478 32.4415C210.857 24.0934 215.843 26.0287 216.171 16.3029C216.581 4.0841 200.377 -4.11643 184.435 2.16518Z" fill="#263238"/>
<path opacity="0.901242" d="M204.588 7.44747C214.887 6.447 225.236 16.5665 217.561 26.6531C213.765 23.6094 208.815 22.4078 204.046 23.3729C199.339 24.4226 204.588 7.44747 204.588 7.44747Z" fill="#263238"/>
<path opacity="0.901242" d="M186.222 144.675C186.222 144.675 165.475 232.617 155.634 283.149C145.367 336.452 96.1478 391.986 96.1478 391.986L79.4844 382.67C79.4844 382.67 110.45 331.991 120.487 282.214C140.89 181.183 127.047 160.846 146.729 139.394L186.222 144.675Z" fill="#263238"/>
<path opacity="0.901242" d="M97.8512 393.561L76.9727 381.916L80.0233 375.749L103.444 386.525L97.8512 393.561Z" fill="#407BFF"/>
<path opacity="0.2" d="M175.152 163.782C158.981 177.838 160.736 227.746 162.425 250.15C169.215 218.201 177.366 182.643 182.106 162.06C180.45 160.78 178.137 161.256 175.152 163.782Z" fill="black"/>
<path opacity="0.901242" d="M199.57 146.608C199.57 146.608 208.935 251.034 203.818 290.856C198.504 332.285 171.475 422.409 171.475 422.409L152.352 419.948C152.352 419.948 167.867 330.628 170.622 289.626C173.624 244.9 160.29 141.344 160.29 141.344L199.57 146.608Z" fill="#263238"/>
<path opacity="0.901242" d="M175.525 423.509L148.332 419.999L148.742 411.963L178.264 414.817L175.525 423.509Z" fill="#407BFF"/>
<path opacity="0.901242" d="M146.3 136.146L143.381 140.59C143.151 140.935 143.561 141.361 144.168 141.443L200.375 148.988C200.867 148.988 201.293 148.873 201.342 148.578L202.343 143.887C202.343 143.559 202.015 143.214 201.49 143.149L147.219 135.867C146.885 135.797 146.539 135.902 146.3 136.146Z" fill="#407BFF"/>
<path opacity="0.5" d="M146.3 136.146L143.381 140.59C143.151 140.935 143.561 141.361 144.168 141.443L200.375 148.988C200.867 148.988 201.293 148.873 201.342 148.578L202.343 143.887C202.343 143.559 202.015 143.214 201.49 143.149L147.219 135.867C146.885 135.797 146.539 135.902 146.3 136.146Z" fill="black"/>
<path opacity="0.901242" d="M152.962 143.214L151.502 143.017C151.207 143.017 151.01 142.804 151.043 142.623L152.388 136.522C152.388 136.358 152.699 136.243 152.978 136.276L154.438 136.473C154.733 136.473 154.93 136.686 154.897 136.867L153.552 142.968C153.519 143.066 153.24 143.214 152.962 143.214Z" fill="#263238"/>
<path opacity="0.901242" d="M189.661 148.135L188.201 147.938C187.922 147.938 187.709 147.725 187.742 147.544L189.087 141.443C189.087 141.263 189.398 141.148 189.693 141.197L191.137 141.377C191.432 141.377 191.629 141.607 191.596 141.787L190.251 147.872C190.218 148.135 189.939 148.135 189.661 148.135Z" fill="#263238"/>
</g>
</g>
</g>
</svg>
