<svg width="400" height="411" viewBox="0 0 400 411" fill="none" xmlns="http://www.w3.org/2000/svg">
<mask id="mask0" mask-type="alpha" maskUnits="userSpaceOnUse" x="0" y="0" width="400" height="411">
<path d="M400 0H0V411H400V0Z" fill="white"/>
</mask>
<g mask="url(#mask0)">
<path d="M400 0H0V413.333H400V0Z" fill="#65C5FC"/>
<path opacity="0.499954" fill-rule="evenodd" clip-rule="evenodd" d="M1392.52 86.8907C1203.94 19.1576 1074.78 12.8357 1005.03 67.9249C900.421 150.559 909.58 310.179 761.939 310.179C614.298 310.179 591.693 201.928 496.798 218.572C401.902 235.217 417.14 331.601 302.854 331.601C188.568 331.601 191.671 51.4666 -27.622 51.4666C-173.817 51.4666 -229.524 203.652 -194.743 508.022L1392.52 478.632V86.8907Z" fill="white"/>
</g>
<path d="M250.437 177.55C248.827 165.536 242.909 154.483 233.773 146.428C224.552 138.299 212.698 133.822 200.394 133.822C188.091 133.822 176.239 138.298 167.019 146.424C157.883 154.477 151.964 165.527 150.352 177.538C150.157 178.987 151.175 180.321 152.625 180.515C154.072 180.713 155.408 179.692 155.603 178.242C158.597 155.939 177.852 139.121 200.394 139.121C222.94 139.121 242.196 155.944 245.186 178.253C245.364 179.584 246.501 180.551 247.808 180.551C247.925 180.551 248.044 180.543 248.163 180.527C249.613 180.333 250.631 179 250.437 177.55Z" fill="white"/>
<path d="M248.199 187.623C246.745 187.443 245.424 188.474 245.244 189.926C242.451 212.492 223.17 229.509 200.394 229.509C177.602 229.509 158.319 212.479 155.54 189.894C155.362 188.442 154.042 187.409 152.587 187.589C151.135 187.767 150.103 189.089 150.282 190.541C153.387 215.777 174.93 234.808 200.394 234.808C225.84 234.808 247.381 215.793 250.502 190.577C250.682 189.125 249.65 187.803 248.199 187.623Z" fill="white"/>
<path d="M215.722 201.022H209.784V155.581C209.784 153.698 208.253 152.167 206.37 152.167H197.437C196.636 152.167 195.856 152.451 195.243 152.966L179.013 166.585C177.597 167.774 177.38 169.846 178.518 171.302L183.841 178.114C184.405 178.836 185.252 179.307 186.163 179.406C187.075 179.505 188.001 179.226 188.707 178.642L192.406 175.58V201.022H184.909V201.022C183.026 201.022 181.495 202.554 181.495 204.436V212.537C181.495 214.42 183.026 215.951 184.909 215.951H215.722C217.604 215.951 219.136 214.419 219.136 212.537V204.436C219.136 202.553 217.604 201.022 215.722 201.022ZM213.838 210.653H186.794V206.321H194.291C196.173 206.321 197.704 204.789 197.704 202.907V171.573C197.704 170.237 196.953 169.053 195.743 168.484C194.534 167.915 193.143 168.091 192.113 168.944L186.822 173.325L183.813 169.475L198.123 157.466H204.486V202.907C204.486 204.789 206.017 206.321 207.9 206.321H213.838V210.653Z" fill="white"/>
<path d="M272.233 267.769L248.365 230.433C251.051 229.876 253.474 228.359 255.142 226.149C257.066 223.603 257.833 220.342 257.247 217.205C256.751 214.549 258.094 211.853 260.512 210.648C263.369 209.225 265.508 206.648 266.382 203.578C267.255 200.509 266.793 197.191 265.113 194.477C263.691 192.18 263.969 189.181 265.789 187.184C267.938 184.825 269.003 181.65 268.708 178.472C268.413 175.294 266.784 172.368 264.237 170.443C262.081 168.815 261.257 165.918 262.233 163.398C263.385 160.422 263.23 157.077 261.808 154.219C260.385 151.362 257.809 149.223 254.739 148.348C252.14 147.608 250.325 145.205 250.325 142.503C250.324 139.311 248.971 136.248 246.612 134.098C244.253 131.947 241.077 130.883 237.9 131.177C235.209 131.426 232.649 129.84 231.672 127.321C230.519 124.344 228.15 121.977 225.174 120.824C222.198 119.671 218.852 119.825 215.995 121.247C213.576 122.451 210.615 121.897 208.795 119.901C206.645 117.543 203.581 116.19 200.389 116.19C197.197 116.19 194.134 117.543 191.983 119.901C190.163 121.897 187.201 122.451 184.783 121.247C181.925 119.825 178.58 119.671 175.604 120.823C172.628 121.976 170.259 124.344 169.106 127.32C168.129 129.839 165.565 131.425 162.878 131.176C159.699 130.882 156.525 131.947 154.166 134.097C151.807 136.247 150.454 139.311 150.453 142.503C150.453 145.204 148.638 147.608 146.039 148.348C142.97 149.222 140.393 151.362 138.97 154.219C137.548 157.076 137.393 160.422 138.545 163.398C139.52 165.917 138.696 168.815 136.541 170.443C133.994 172.367 132.365 175.293 132.07 178.471C131.776 181.649 132.84 184.825 134.989 187.184C136.809 189.181 137.087 192.18 135.665 194.477C133.985 197.191 133.523 200.509 134.397 203.578C135.27 206.648 137.409 209.225 140.266 210.648C142.684 211.853 144.027 214.549 143.531 217.205C142.945 220.342 143.712 223.603 145.636 226.149C147.304 228.358 149.727 229.876 152.414 230.433L128.545 267.769C127.666 269.143 127.646 270.863 128.491 272.258C129.336 273.653 130.874 274.43 132.496 274.288L155.792 272.238L163.709 294.243C164.261 295.778 165.611 296.844 167.232 297.026C167.394 297.044 167.556 297.053 167.716 297.053C169.157 297.053 170.494 296.329 171.284 295.093L200.389 249.567L229.493 295.092C230.284 296.329 231.62 297.053 233.062 297.053C233.222 297.053 233.384 297.044 233.546 297.025C235.167 296.843 236.517 295.777 237.069 294.242L244.987 272.237L268.282 274.287C269.908 274.429 271.442 273.652 272.287 272.258C273.132 270.863 273.112 269.143 272.233 267.769ZM134.159 268.823L157.43 232.422C158.258 233.263 158.849 234.343 159.076 235.556C159.504 237.842 160.628 239.927 162.255 241.542L145.683 267.809L134.159 268.823ZM161.509 272.48L160.503 269.682C159.85 267.869 158.054 266.719 156.134 266.889L152.316 267.225L166.785 244.292C168.903 244.97 171.198 245.024 173.371 244.406C175.204 243.885 177.14 244.276 178.622 245.357L161.509 272.48ZM167.971 290.439L163.785 278.803L182.264 249.513C183.806 250.899 185.711 251.858 187.782 252.245C189.344 252.537 190.937 252.493 192.457 252.138L167.971 290.439ZM202.04 243.752C201.87 243.715 201.697 243.695 201.523 243.691C201.146 243.654 200.768 243.628 200.389 243.628C200.01 243.628 199.633 243.654 199.255 243.691C199.081 243.694 198.907 243.715 198.737 243.752C196.887 244.021 195.091 244.738 193.534 245.913C192.153 246.955 190.456 247.354 188.755 247.037C187.054 246.719 185.616 245.733 184.704 244.262C184.511 243.951 184.301 243.655 184.082 243.368C184.049 243.324 184.015 243.28 183.978 243.239C181.159 239.653 176.378 238.043 171.921 239.31C170.257 239.783 168.53 239.542 167.058 238.631C165.587 237.72 164.602 236.282 164.283 234.581C163.605 230.955 161.2 227.96 157.996 226.42C157.832 226.324 157.662 226.248 157.488 226.19C156.442 225.749 155.322 225.454 154.152 225.345C152.429 225.185 150.906 224.337 149.863 222.956C148.821 221.575 148.421 219.878 148.739 218.177C149.667 213.206 147.154 208.16 142.628 205.905C141.08 205.134 139.966 203.792 139.492 202.128C139.019 200.463 139.259 198.736 140.17 197.265C142.831 192.966 142.311 187.352 138.905 183.615C137.739 182.336 137.186 180.682 137.345 178.96C137.505 177.236 138.353 175.713 139.734 174.67C143.768 171.622 145.311 166.2 143.485 161.484C142.86 159.871 142.941 158.129 143.713 156.58C144.484 155.031 145.825 153.917 147.49 153.443C152.353 152.058 155.75 147.56 155.751 142.503C155.751 140.773 156.456 139.178 157.735 138.012C159.013 136.847 160.666 136.292 162.39 136.452C167.427 136.918 172.217 133.95 174.045 129.235C174.671 127.621 175.904 126.388 177.517 125.763C179.131 125.139 180.873 125.219 182.422 125.99C186.949 128.243 192.49 127.207 195.897 123.471C197.063 122.192 198.658 121.488 200.389 121.488C202.119 121.488 203.714 122.192 204.88 123.471C208.287 127.207 213.829 128.243 218.356 125.99C219.905 125.219 221.646 125.139 223.26 125.763C224.874 126.388 226.107 127.621 226.732 129.235C228.56 133.949 233.35 136.918 238.388 136.452C240.11 136.292 241.763 136.847 243.043 138.012C244.321 139.178 245.026 140.773 245.026 142.503C245.027 147.56 248.424 152.058 253.287 153.443C254.952 153.917 256.293 155.031 257.064 156.58C257.835 158.129 257.916 159.871 257.291 161.484C255.465 166.2 257.008 171.622 261.043 174.67C262.423 175.713 263.272 177.236 263.431 178.96C263.591 180.683 263.037 182.336 261.871 183.615C258.465 187.352 257.945 192.965 260.606 197.265C261.517 198.736 261.758 200.463 261.284 202.128C260.811 203.792 259.697 205.133 258.148 205.905C253.622 208.16 251.109 213.206 252.037 218.176C252.355 219.878 251.956 221.575 250.913 222.956C249.87 224.337 248.347 225.185 246.624 225.345C245.453 225.454 244.332 225.75 243.285 226.191C243.112 226.248 242.944 226.324 242.781 226.419C239.577 227.959 237.171 230.954 236.493 234.581C236.174 236.282 235.189 237.72 233.718 238.631C232.246 239.542 230.519 239.783 228.855 239.31C224.397 238.042 219.615 239.654 216.797 243.241C216.761 243.281 216.729 243.323 216.696 243.365C216.477 243.653 216.266 243.95 216.072 244.262C215.161 245.733 213.722 246.718 212.021 247.036C210.321 247.353 208.623 246.955 207.242 245.913C205.686 244.738 203.89 244.021 202.04 243.752ZM232.807 290.439L208.318 252.133C209.167 252.332 210.038 252.437 210.914 252.437C211.608 252.437 212.305 252.374 212.996 252.245C215.067 251.858 216.972 250.899 218.513 249.514L236.994 278.804L232.807 290.439ZM244.645 266.889C242.722 266.72 240.928 267.869 240.275 269.682L239.268 272.481L222.156 245.358C223.638 244.277 225.574 243.885 227.408 244.407C229.58 245.024 231.874 244.97 233.993 244.293L248.461 267.225L244.645 266.889ZM255.094 267.809L238.522 241.543C240.15 239.928 241.274 237.843 241.702 235.556C241.929 234.343 242.52 233.263 243.348 232.422L266.619 268.823L255.094 267.809Z" fill="white"/>
</svg>
