<svg width="400" height="411" viewBox="0 0 400 411" fill="none" xmlns="http://www.w3.org/2000/svg">
<mask id="mask0" mask-type="alpha" maskUnits="userSpaceOnUse" x="0" y="0" width="400" height="411">
<path d="M400 0H0V411H400V0Z" fill="white"/>
</mask>
<g mask="url(#mask0)">
<path d="M400 0H0V411.267H400V0Z" fill="#3C91E6"/>
<path opacity="0.499954" fill-rule="evenodd" clip-rule="evenodd" d="M931.566 86.4563C742.985 19.0618 613.823 12.7715 544.081 67.5853C439.468 149.806 448.627 308.629 300.986 308.629C153.345 308.629 130.74 200.918 35.8445 217.479C-59.0513 234.041 -43.8132 329.943 -158.099 329.943C-272.385 329.943 -269.282 51.2093 -488.575 51.2093C-634.771 51.2093 -690.477 202.633 -655.696 505.482L931.566 476.239V86.4563Z" fill="white"/>
</g>
<path d="M264.199 173.132C263.052 171.534 260.527 171.305 258.921 172.447L221.747 201.9L173.789 182.036C172.641 181.58 171.264 181.808 170.347 182.493L118.946 219.024C117.34 220.166 116.881 222.449 118.028 224.047C118.716 225.189 119.864 225.646 121.011 225.646C121.699 225.646 122.388 225.417 123.076 224.961L172.871 189.571L221.059 209.435C222.206 209.891 223.813 209.663 224.73 208.978L263.511 178.383C265.117 177.242 265.346 174.73 264.199 173.132Z" fill="white"/>
<path d="M317.891 298.252H300.911V192.54C300.911 190.485 299.305 188.887 297.239 188.887H263.508C261.442 188.887 259.836 190.485 259.836 192.54V298.252H247.445V229.071C247.445 227.016 245.839 225.418 243.773 225.418H209.812C207.747 225.418 206.141 227.016 206.141 229.071V298.252H193.749V223.591C193.749 221.537 192.143 219.938 190.078 219.938H156.346C154.281 219.938 152.675 221.537 152.675 223.591V298.252H140.283V245.054C140.283 242.999 138.677 241.4 136.612 241.4H102.651C100.585 241.4 98.9792 242.999 98.9792 245.054V298.252H81.7691C79.7039 298.252 78.0977 299.85 78.0977 301.905C78.0977 303.96 79.7039 305.558 81.7691 305.558H102.421H136.153H156.346H190.078H209.812H243.544H263.278H297.01H317.662C319.727 305.558 321.334 303.96 321.334 301.905C321.563 299.85 319.957 298.252 317.891 298.252ZM132.711 298.252H106.322V248.707H132.711V298.252ZM186.406 298.252H160.018V227.245H186.406V298.252ZM239.872 298.252H213.484V232.724H239.872V298.252ZM293.568 298.252H267.179V196.193H293.568V298.252Z" fill="white"/>
<path d="M295.794 120.748H286.613C285.666 120.748 284.899 121.512 284.899 122.454V135.364H282.941C281.994 135.364 281.227 136.128 281.227 137.07C281.227 138.012 281.994 138.776 282.941 138.776H284.899V142.672H282.941C281.994 142.672 281.227 143.436 281.227 144.378C281.227 145.32 281.994 146.084 282.941 146.084H284.899V149.859C284.899 150.801 285.666 151.565 286.613 151.565C287.56 151.565 288.327 150.801 288.327 149.859V146.084H295.794C296.741 146.084 297.509 145.32 297.509 144.378C297.509 143.436 296.741 142.672 295.794 142.672H288.327V138.776H295.794C300.789 138.776 304.853 134.732 304.853 129.762C304.853 124.669 300.684 120.748 295.794 120.748ZM295.794 135.364H288.327V124.159H295.794C298.88 124.159 301.425 126.636 301.425 129.762C301.425 132.851 298.899 135.364 295.794 135.364Z" fill="white"/>
<path d="M292.12 106.133C275.988 106.133 262.863 119.192 262.863 135.244C262.863 151.295 275.988 164.355 292.12 164.355C308.253 164.355 321.378 151.295 321.378 135.244C321.378 119.192 308.253 106.133 292.12 106.133ZM292.12 160.943C277.878 160.943 266.292 149.414 266.292 135.244C266.292 121.073 277.878 109.544 292.12 109.544C306.362 109.544 317.949 121.073 317.949 135.244C317.949 149.414 306.362 160.943 292.12 160.943Z" fill="white"/>
</svg>
