<svg width="692" height="285" viewBox="0 0 692 285" fill="none" xmlns="http://www.w3.org/2000/svg">
<g id="&#208;&#152;&#208;&#187;&#208;&#187;&#209;&#142;&#209;&#129;&#209;&#130;&#209;&#128;&#208;&#176;&#209;&#134;&#208;&#184;&#209;&#143; &#208;&#190; &#208;&#173;&#208;&#155;">
<path id="Path" d="M281.753 217.097L315.371 236.398C317.356 237.537 317.356 240.4 315.371 241.539L281.753 260.893C279.464 262.209 276.653 262.209 274.375 260.882L240.956 241.539C238.981 240.4 238.981 237.547 240.956 236.408L274.375 217.118C276.664 215.791 279.475 215.791 281.753 217.097Z" fill="#F8F8FA"/>
<path id="Path_2" d="M6.93872 92.491V204.927L157.272 117.878V24.9527V6.64999L6.93872 92.491Z" fill="#EBF8FF"/>
<path id="Path_3" opacity="0.6" d="M34.4642 176.342L165.653 252.083C169.959 254.571 175.267 254.571 179.573 252.083L269.035 200.429C272.536 198.412 272.536 193.354 269.035 191.327L137.846 115.596C133.541 113.109 128.232 113.109 123.927 115.596L34.4642 167.25C30.9634 169.267 30.9634 174.325 34.4642 176.342Z" fill="#F8F8FA"/>
<path id="Path_4" opacity="0.6" d="M265.618 154.919L397.382 78.8434C401.04 76.7325 405.544 76.7325 409.201 78.8434L603.54 191.045C607.249 193.187 607.249 198.548 603.54 200.69L471.776 276.766C468.118 278.877 463.614 278.877 459.957 276.766L265.618 164.565C261.908 162.422 261.908 157.062 265.618 154.919Z" fill="#F8F8FA"/>
<path id="Path_5" d="M518.132 78.3209L559.848 102.408V174.67L518.132 150.583V78.3209Z" fill="url(#paint0_linear)"/>
<path id="Path_6" d="M601.46 78.3209V181.933L559.744 206.354V102.743L601.46 78.3209Z" fill="url(#paint1_linear)"/>
<path id="Path_7" d="M608.117 52.8542V173.134L649.833 197.221V76.9414L608.117 52.8542Z" fill="url(#paint2_linear)"/>
<path id="Path_8" d="M561.259 249.053L623.834 212.927L644.692 224.966L582.117 261.102L561.259 249.053Z" fill="#F8F8FA"/>
<path id="Path_9" d="M110.822 242.647L48.2476 206.511L27.3789 218.56L89.964 254.685L110.822 242.647Z" fill="#F8F8FA"/>
<path id="Path_10" fill-rule="evenodd" clip-rule="evenodd" d="M115.284 242.647L52.6993 206.511L31.8411 218.56L94.4261 254.685L115.284 242.647Z" stroke="#D7EDFF" stroke-width="0.5" stroke-linecap="round" stroke-dasharray="3.14"/>
<path id="Path_11" d="M90.382 271.144L27.8074 235.019L6.93872 247.057L69.5238 283.193L90.382 271.144Z" fill="#F8F8FA"/>
<path id="Path_12" fill-rule="evenodd" clip-rule="evenodd" d="M566.421 249.053L629.006 212.927L649.865 224.966L587.29 261.102L566.421 249.053Z" stroke="#D7EDFF" stroke-width="0.5" stroke-linecap="round" stroke-dasharray="3.14"/>
<path id="Path_13" d="M591.031 270.643L653.616 234.517L674.475 246.555L611.9 282.691L591.031 270.643Z" fill="#F8F8FA"/>
<path id="Path_14" fill-rule="evenodd" clip-rule="evenodd" d="M35.6868 165.578L166.876 241.32C171.182 243.807 176.49 243.807 180.796 241.32L270.258 189.666C273.759 187.649 273.759 182.591 270.258 180.564L139.069 104.832C134.763 102.345 129.455 102.345 125.149 104.832L35.6868 156.487C32.1861 158.504 32.1861 163.561 35.6868 165.578Z" stroke="url(#paint3_linear)" stroke-width="0.5225"/>
<path id="Path_15" fill-rule="evenodd" clip-rule="evenodd" d="M598.524 270.643L661.109 234.517L681.967 246.555L619.382 282.691L598.524 270.643Z" stroke="#B3DAFF" stroke-width="0.5" stroke-linecap="round" stroke-dasharray="3.14"/>
<path id="Path_16" fill-rule="evenodd" clip-rule="evenodd" d="M265.618 143.978L397.382 67.9022C401.04 65.7913 405.544 65.7913 409.201 67.9022L603.54 180.104C607.249 182.246 607.249 187.607 603.54 189.749L471.776 265.825C468.118 267.936 463.614 267.936 459.957 265.825L265.618 153.624C261.908 151.481 261.908 146.12 265.618 143.978Z" stroke="url(#paint4_linear)" stroke-width="0.5225"/>
<path id="Path_17" fill-rule="evenodd" clip-rule="evenodd" d="M83.9867 271.144L21.4017 235.019L0.543457 247.057L63.1181 283.193L83.9867 271.144Z" stroke="#D7EDFF" stroke-width="0.5" stroke-linecap="round" stroke-dasharray="3.14"/>
<path id="Path_18" d="M603.54 180.02L471.776 256.096C468.118 258.207 463.614 258.207 459.957 256.096L265.618 143.895C264.385 143.184 263.57 142.118 263.162 140.937C262.326 143.32 263.141 146.183 265.618 147.615L459.957 259.816C463.614 261.927 468.118 261.927 471.776 259.816L603.54 183.74C606.016 182.309 606.831 179.446 605.995 177.063C605.588 178.244 604.773 179.31 603.54 180.02Z" fill="url(#paint5_linear)"/>
<path id="Path_19" d="M6.93872 237.015L69.5238 273.14L90.382 261.102L27.8074 224.966L6.93872 237.015Z" fill="url(#paint6_linear)"/>
<path id="Path_20" d="M27.8074 200.878L90.382 237.015L111.24 224.966L48.6656 188.84L27.8074 200.878Z" fill="url(#paint7_linear)"/>
<path id="Path_21" d="M35.6868 157.218L166.876 232.96C171.182 235.447 176.49 235.447 180.796 232.96L270.258 181.306C273.759 179.289 273.759 174.231 270.258 172.204L139.069 96.4621C134.763 93.975 129.455 93.975 125.149 96.4621L35.6868 148.116C32.1861 150.144 32.1861 155.191 35.6868 157.218Z" fill="url(#paint8_linear)"/>
<path id="Path_22" d="M570.173 224.966L632.758 188.84L653.616 200.878L591.031 237.015L570.173 224.966Z" fill="url(#paint9_linear)"/>
<path id="Path_23" d="M591.031 261.102L653.616 224.966L674.475 237.015L611.9 273.14L591.031 261.102Z" fill="url(#paint10_linear)"/>
<path id="Path_24" d="M27.8074 110.187V48.4272L111.24 0.252686V62.0122L27.8074 110.187Z" fill="#C8F9FE"/>
<path id="Path_25" opacity="0.4" d="M27.8074 48.4272L111.24 62.0122L27.8074 110.187V48.4272Z" fill="url(#paint11_linear)"/>
<path id="Path_26" fill-rule="evenodd" clip-rule="evenodd" d="M82.1892 87.1131V38.9386L143.29 3.71164V51.8861L82.1892 87.1131Z" stroke="#B9F6F9" stroke-width="0.5225"/>
<path id="Path_27" d="M265.618 135.085L397.382 59.0093C401.04 56.8984 405.544 56.8984 409.201 59.0093L603.54 171.211C607.249 173.353 607.249 178.714 603.54 180.856L471.776 256.932C468.118 259.043 463.614 259.043 459.957 256.932L265.618 144.72C261.908 142.578 261.908 137.228 265.618 135.085Z" fill="url(#paint12_linear)"/>
<path id="Path_28" opacity="0.8" d="M38.1426 96.8839V50.4336L100.905 14.2035V60.6537L38.1426 96.8839Z" fill="white" stroke="#7CB3E5" stroke-width="0.5"/>
<path id="Path_29" d="M518.027 78.3209L559.744 54.2336L601.46 78.3209L559.744 102.408L518.027 78.3209Z" fill="url(#paint13_linear)"/>
<path id="Path_30" d="M270.248 180.501L180.785 232.155C176.48 234.642 171.171 234.642 166.866 232.155L35.6868 156.414C34.4642 155.703 33.67 154.616 33.3042 153.425C32.625 155.63 33.4087 158.222 35.6868 159.538L166.876 235.28C171.182 237.767 176.49 237.767 180.796 235.28L270.258 183.625C272.536 182.309 273.32 179.728 272.641 177.512C272.264 178.704 271.481 179.79 270.248 180.501Z" fill="url(#paint14_linear)"/>
<path id="Path_31" d="M608.117 52.8542L649.833 28.7669L691.56 52.8542L649.833 76.9414L608.117 52.8542Z" fill="url(#paint15_linear)"/>
<path id="Path_32" d="M570.173 224.966V227.714L591.031 239.878V237.015L570.173 224.966Z" fill="url(#paint16_linear)"/>
<path id="Path_33" d="M653.616 200.878L591.031 237.015V239.878L653.616 203.742V200.878Z" fill="url(#paint17_linear)"/>
<path id="Path_34" d="M591.031 261.102V263.85L611.9 276.014V273.14L591.031 261.102Z" fill="url(#paint18_linear)"/>
<path id="Path_35" d="M674.475 237.015L611.9 273.14V276.014L674.475 239.867V237.015Z" fill="url(#paint19_linear)"/>
<path id="Path_36" opacity="0.6" d="M592.902 260.025L663.22 243.504L674.474 237.015L662.655 230.18L626.885 240.4L592.902 260.025Z" fill="white"/>
<path id="Path_37" d="M691.56 173.134V52.8542L649.833 76.9414V197.221L691.56 173.134Z" fill="url(#paint20_linear)"/>
<g id="Group">
<path id="Path_38" d="M426.297 115.815L465.537 138.471L456.675 143.592L416.997 121.187L426.297 115.815Z" fill="url(#paint21_linear)"/>
<g id="Group_2">
<path id="Path_39" d="M428.712 74.7992L422.201 78.5925V78.5821V78.5925V104.665L457.355 124.97L461.41 122.597V96.5143L428.712 74.7992Z" fill="#EEBF00"/>
<path id="Path_40" d="M422.201 78.5925L428.712 74.7992L461.41 96.5143L457.355 98.8864L422.201 78.5925Z" fill="#FFDE56"/>
<path id="Path_41" d="M443.874 69.4801L428.711 74.7992L422.191 78.5821H422.201L438.409 106.431L457.355 98.8864L461.41 96.5143L443.874 69.4801Z" fill="#7088C4"/>
<g id="Group_3">
<path id="Path_42" d="M426.245 76.21L428.711 74.7992L443.874 69.4802L426.245 76.21Z" fill="#BDC8FF"/>
<path id="Path_43" d="M443.874 69.4802L461.409 96.5143L426.245 76.21L443.874 69.4802Z" fill="#BDC8FF"/>
</g>
<g id="Group_4">
<path id="Path_44" d="M428.011 67.7454L427.269 68.1739V106.922L452.297 121.364L452.872 119.651L453.039 82.1978L428.011 67.7454Z" fill="#C1C1F7"/>
<path id="Path_45" d="M452.297 82.6262L453.039 82.1978L453.196 119.651L452.297 121.364V82.6262Z" fill="#C1C1F7"/>
</g>
<path id="Path_46" d="M427.269 68.1739L428.011 67.7454L453.039 82.1978L452.297 82.6262L427.269 68.1739Z" fill="#CCC9F4"/>
<path id="Path_47" d="M452.297 82.6262V121.364L427.269 106.922V68.1739L452.297 82.6262Z" fill="url(#paint22_linear)"/>
<g id="Group_5">
<path id="Path_48" d="M448.065 99.8896C448.065 100.203 447.73 100.391 447.459 100.234L432.223 91.4356C431.763 91.1639 431.481 90.6727 431.481 90.1398C431.481 89.8263 431.815 89.6382 432.087 89.7949L447.323 98.5938C447.783 98.8551 448.065 99.3567 448.065 99.8896Z" fill="#DADAF2"/>
<path id="Path_49" d="M448.075 95.8664C448.075 96.1799 447.741 96.368 447.469 96.2112L432.233 87.4123C431.773 87.1406 431.491 86.6495 431.491 86.1165C431.491 85.803 431.826 85.6149 432.097 85.7717L447.333 94.5706C447.793 94.8423 448.075 95.3334 448.075 95.8664Z" fill="#DADAF2"/>
<path id="Path_50" d="M448.086 91.8536C448.086 92.1671 447.751 92.3552 447.48 92.1984L432.244 83.41C431.784 83.1383 431.502 82.6471 431.502 82.1142C431.502 81.8007 431.836 81.6126 432.108 81.7693L447.344 90.5682C447.804 90.8295 448.086 91.3206 448.086 91.8536Z" fill="#DADAF2"/>
<path id="Path_51" d="M448.096 87.8408C448.096 88.1543 447.762 88.3424 447.49 88.1856L432.254 79.3867C431.794 79.115 431.512 78.6239 431.512 78.0909C431.512 77.7774 431.847 77.5893 432.118 77.7461L447.354 86.545C447.814 86.8167 448.096 87.3078 448.096 87.8408Z" fill="#DADAF2"/>
</g>
<path id="Path_52" d="M422.201 78.5821V104.665L457.355 124.97V98.8864L438.409 106.431L422.201 78.5821Z" fill="url(#paint23_linear)"/>
<g id="Group_6">
<path id="Path_53" d="M434.605 99.9105L442.892 104.655L457.355 124.97L422.201 104.665L434.605 99.9105Z" fill="#BDC8FF"/>
<path id="Path_54" d="M457.355 98.8864L461.41 96.5143V122.597L457.355 124.97V98.8864Z" fill="#BDC8FF"/>
</g>
</g>
</g>
<path id="Path_55" opacity="0.6" d="M571.73 224.067L615.453 222.918L645.925 205.32L602.955 206.041L571.73 224.067Z" fill="white"/>
<g id="Group_7">
<path id="Path_56" opacity="0.6" d="M542.407 121.02C521.466 108.929 487.618 108.929 466.812 121.02L466.729 151.178L504.652 173.071L552.335 159.162L552.419 129.003C549.9 126.119 546.567 123.423 542.407 121.02Z" fill="#7849C1" fill-opacity="0.9"/>
<path id="Path_57" d="M552.419 129.003L552.335 159.162L504.652 173.071L504.735 142.912L552.419 129.003Z" fill="#570DBF" fill-opacity="0.5"/>
<path id="Path_58" opacity="0.7" d="M542.407 121.02C546.566 123.423 549.9 126.119 552.418 129.003L504.735 142.912L466.812 121.02C487.618 108.929 521.466 108.929 542.407 121.02Z" fill="#8E87E8"/>
<g id="Group_8">
<path id="Shape" opacity="0.7" fill-rule="evenodd" clip-rule="evenodd" d="M561.699 135.132C561.738 130.278 559.815 125.405 555.94 120.967L508.257 134.876L508.142 175.088L546.065 196.981C556.4 190.972 561.573 183.113 561.594 175.245L561.709 135.033C561.702 135.067 561.699 135.101 561.699 135.132ZM561.682 135.759C561.68 135.798 561.677 135.838 561.677 135.879C561.677 135.796 561.677 135.723 561.688 135.639C561.688 135.681 561.685 135.72 561.682 135.759ZM561.625 136.559C561.635 136.496 561.635 136.423 561.635 136.36C561.635 136.433 561.635 136.496 561.625 136.559ZM561.458 137.907C561.447 137.98 561.437 138.053 561.416 138.126C561.437 138.063 561.447 137.99 561.458 137.907ZM561.332 138.596C561.322 138.638 561.314 138.677 561.306 138.717C561.298 138.756 561.291 138.795 561.28 138.837C561.301 138.753 561.322 138.67 561.332 138.596ZM561.149 139.401C561.157 139.367 561.165 139.333 561.176 139.297C561.166 139.329 561.159 139.362 561.152 139.394L561.152 139.394C561.143 139.433 561.135 139.471 561.123 139.506C561.134 139.469 561.142 139.435 561.149 139.401ZM560.737 140.843C560.726 140.88 560.713 140.914 560.7 140.948C560.687 140.982 560.674 141.016 560.664 141.052C560.667 141.041 560.671 141.03 560.675 141.018L560.691 140.976C560.707 140.933 560.724 140.888 560.737 140.843ZM560.225 142.212L560.131 142.432C560.152 142.376 560.172 142.329 560.193 142.283L560.194 142.282C560.204 142.259 560.214 142.236 560.225 142.212ZM559.18 144.396C559.159 144.433 559.138 144.472 559.117 144.511C559.096 144.55 559.075 144.59 559.054 144.626C559.086 144.553 559.127 144.469 559.18 144.396ZM558.333 145.807C558.318 145.828 558.304 145.849 558.291 145.87C558.278 145.891 558.265 145.911 558.25 145.932C558.281 145.891 558.312 145.849 558.333 145.807ZM557.758 146.648L557.759 146.648C557.779 146.619 557.8 146.591 557.821 146.559C557.79 146.622 557.748 146.685 557.696 146.737C557.717 146.706 557.738 146.677 557.758 146.648L557.758 146.648ZM557.288 147.306L557.288 147.307L557.274 147.324L557.277 147.32C557.307 147.279 557.338 147.237 557.372 147.197C557.346 147.233 557.317 147.27 557.288 147.306ZM557.205 147.416C557.228 147.389 557.251 147.357 557.274 147.324C557.25 147.355 557.227 147.386 557.205 147.416ZM547.173 156.173C547.128 156.202 547.084 156.231 547.037 156.257C547.094 156.219 547.151 156.184 547.206 156.152L547.173 156.173ZM547.206 156.152C547.24 156.13 547.273 156.109 547.308 156.09C547.277 156.109 547.244 156.129 547.211 156.149L547.206 156.152ZM547.904 155.714C547.951 155.682 548.001 155.651 548.05 155.619L548.051 155.619C548.1 155.588 548.15 155.557 548.197 155.525C548.092 155.588 547.998 155.651 547.904 155.714ZM548.892 155.071C548.847 155.1 548.803 155.128 548.761 155.16C548.845 155.097 548.939 155.034 549.022 154.982C548.98 155.013 548.936 155.042 548.892 155.071ZM550.579 153.874C550.616 153.848 550.652 153.819 550.689 153.791C550.726 153.762 550.762 153.733 550.799 153.707C550.726 153.759 550.652 153.812 550.579 153.874ZM552.053 152.714C552.136 152.652 552.209 152.589 552.293 152.516C552.209 152.579 552.136 152.641 552.053 152.714ZM552.946 151.951C552.906 151.983 552.871 152.011 552.836 152.046C552.857 152.025 552.881 152.006 552.904 151.988C552.928 151.97 552.951 151.952 552.972 151.931L552.946 151.951ZM553.62 151.345C553.683 151.293 553.735 151.241 553.798 151.178C553.767 151.204 553.738 151.233 553.709 151.262C553.68 151.291 553.652 151.319 553.62 151.345ZM554.332 150.668C554.307 150.691 554.283 150.714 554.258 150.739L554.467 150.53C554.425 150.579 554.379 150.623 554.332 150.668ZM555.648 149.297C555.627 149.323 555.603 149.347 555.58 149.37L555.576 149.374C555.598 149.349 555.621 149.323 555.648 149.297ZM555.576 149.374L555.572 149.378C555.551 149.402 555.531 149.424 555.512 149.444C555.531 149.419 555.554 149.397 555.576 149.374ZM554.974 150.018C555.007 149.984 555.041 149.95 555.073 149.914C555.01 149.987 554.937 150.06 554.874 150.123C554.906 150.086 554.94 150.052 554.974 150.018Z" fill="#FF8806"/>
<path id="Path_59" d="M561.698 135.033L561.583 175.245C561.562 183.113 556.389 190.972 546.054 196.981L546.169 156.769C556.504 150.771 561.677 142.912 561.698 135.033Z" fill="#FF8827"/>
<path id="Path_60" opacity="0.7" d="M555.93 120.967C566.077 132.577 562.837 147.082 546.159 156.769L508.236 134.876L555.93 120.967Z" fill="#FF9C43"/>
</g>
<path id="Path_61" opacity="0.7" d="M502.99 155.996L465.067 134.103C454.7 140.122 449.528 148.012 449.538 155.902C449.538 155.881 449.538 155.86 449.538 155.839L449.486 175.945C449.465 183.918 454.721 191.902 465.265 197.994C486.207 210.085 520.055 210.085 540.861 197.994L540.913 177.888L502.99 155.996Z" fill="#4089C6"/>
<path id="Path_62" opacity="0.7" d="M540.913 177.888C520.107 189.979 486.26 189.979 465.318 177.888C444.376 165.798 444.261 146.194 465.067 134.103L502.99 155.996L540.913 177.888Z" fill="#598DC6"/>
</g>
<path id="Path_63" opacity="0.5" d="M608.117 80.6094L649.833 150.248V197.221L608.117 173.134V80.6094Z" fill="url(#paint24_linear)"/>
<path id="Path_64" opacity="0.3" d="M617.125 58.0479L674.474 42.9894L691.56 52.8542L674.474 62.719L636.708 69.3652L617.125 58.0479Z" fill="white"/>
<path id="Oval" d="M306.154 150.415C317.656 150.415 326.981 144.502 326.981 137.207C326.981 129.912 317.656 123.998 306.154 123.998C294.651 123.998 285.327 129.912 285.327 137.207C285.327 144.502 294.651 150.415 306.154 150.415Z" fill="url(#paint25_linear)"/>
<g id="Group_9">
<g id="Group_10">
<path id="Path_65" d="M303.708 49.3848V138.084C303.708 138.44 303.949 138.805 304.419 139.077C305.37 139.631 306.916 139.631 307.867 139.077C308.348 138.795 308.588 138.44 308.588 138.074V49.3744C308.588 49.0191 308.348 48.6533 307.878 48.3816C306.906 47.8173 305.359 47.8382 304.429 48.3816C303.938 48.6638 303.698 49.0295 303.708 49.4057C303.708 49.3953 303.708 49.3848 303.708 49.3848Z" fill="#EA9626"/>
<path id="Path_66" d="M304.419 50.3776C305.37 50.9314 306.917 50.9314 307.868 50.3776C308.348 50.0954 308.589 49.7401 308.589 49.3744V138.074C308.589 138.44 308.348 138.805 307.868 139.077C306.917 139.631 305.37 139.631 304.419 139.077C303.949 138.805 303.708 138.44 303.708 138.084V49.3848C303.708 49.7401 303.949 50.1059 304.419 50.3776Z" fill="#FFBF8A"/>
</g>
<path id="Path_67" d="M264.51 69.3861L264.615 104.864L266.005 105.668L283.718 95.4484L283.728 99.9419L305.663 87.2765L305.558 51.7987L304.168 50.9836L289.058 59.7094L289.047 55.2159L264.51 69.3861Z" fill="#FF6342"/>
<path id="Path_68" d="M289.047 55.2159L289.141 90.6937L287.051 96.4098L286.947 60.9321L289.047 55.2159Z" fill="#AED7FF"/>
<path id="Path_69" d="M285.724 58.748L285.828 94.2258L266.005 105.669L265.911 70.1908L285.724 58.748Z" fill="#86C3F2"/>
<path id="Path_70" d="M305.558 51.7988L305.663 87.2765L283.728 99.9419L283.624 64.4642L305.558 51.7988Z" fill="#8CD9F4"/>
<path id="Path_71" d="M265.911 70.1908L266.005 105.669L264.615 104.864L264.51 69.3861L265.911 70.1908Z" fill="#AED7FF"/>
<path id="Path_72" d="M289.047 55.2159L286.947 60.932L304.168 50.9836L305.558 51.7987L283.624 64.4641L285.724 58.748L265.911 70.1907L264.51 69.3861L289.047 55.2159Z" fill="#909FF4"/>
</g>
<path id="Oval_2" d="M45.8443 157.908C50.6518 157.908 54.5491 155.433 54.5491 152.38C54.5491 149.327 50.6518 146.852 45.8443 146.852C41.0367 146.852 37.1394 149.327 37.1394 152.38C37.1394 155.433 41.0367 157.908 45.8443 157.908Z" fill="url(#paint26_linear)"/>
<g id="Group_11">
<g id="Group_12">
<path id="Path_73" d="M47.2131 102.889C47.2131 102.68 47.0877 102.481 46.816 102.314C46.2935 102.011 45.4366 102.001 44.8932 102.314C44.6319 102.471 44.4961 102.669 44.4961 102.868V152.422C44.4961 152.62 44.6319 152.829 44.8932 152.986C45.4261 153.289 46.2935 153.289 46.816 152.986C47.0772 152.829 47.2131 152.631 47.2131 152.432V102.889C47.2131 102.878 47.2131 102.878 47.2131 102.889Z" fill="#86C3F2"/>
<path id="Path_74" d="M47.2129 102.878V152.432C47.2129 152.631 47.0771 152.829 46.8158 152.986C46.2829 153.289 45.426 153.289 44.893 152.986C44.6213 152.829 44.4855 152.631 44.4959 152.422V102.868C44.4959 103.066 44.6318 103.275 44.893 103.432C45.426 103.735 46.2933 103.735 46.8158 103.432C47.0771 103.275 47.2129 103.077 47.2129 102.878Z" fill="#8CD9F4"/>
</g>
<path id="Path_75" d="M55.4058 106.139L55.3954 108.647L46.9518 103.777L46.1785 104.226L46.1262 124.05L58.3736 131.125L58.3841 128.617L68.2802 134.322L69.0535 133.873L69.1058 114.049L55.4058 106.139Z" fill="#FF6342"/>
<path id="Path_76" d="M56.5762 109.326L56.5239 129.15L55.3535 125.962L55.4058 106.139L56.5762 109.326Z" fill="#AED7FF"/>
<path id="Path_77" d="M68.3324 114.499L68.2801 134.322L57.2031 127.927L57.2554 108.114L68.3324 114.499Z" fill="url(#paint27_linear)"/>
<path id="Path_78" d="M58.4363 111.301L58.3736 131.125L46.1262 124.05L46.1785 104.226L58.4363 111.301Z" fill="url(#paint28_linear)"/>
<path id="Path_79" d="M69.1057 114.049L69.0534 133.873L68.2801 134.322L68.3324 114.499L69.1057 114.049Z" fill="#E5B5D4"/>
<path id="Path_80" d="M69.1058 114.049L68.3325 114.499L57.2555 108.114L58.4363 111.301L46.1785 104.226L46.9518 103.777L56.5762 109.326L55.4058 106.139L69.1058 114.049Z" fill="#FFBABC"/>
</g>
<g id="Group_13">
<path id="Path_81" opacity="0.7" d="M157.084 190.909L157.126 204.118C173.115 213.408 199.125 213.408 215.218 204.118C223.317 199.447 227.361 193.302 227.34 187.179L227.298 173.97C227.298 173.98 227.298 174.001 227.298 174.012C227.298 167.951 223.327 161.89 215.364 157.26C199.376 147.97 173.366 147.97 157.273 157.26L157.314 170.469L174.839 180.658L157.084 190.909C157.21 190.982 157.346 191.055 157.482 191.129C157.346 191.055 157.21 190.982 157.084 190.909Z" fill="#FF9C43"/>
<path id="Path_82" d="M186.219 174.085L157.273 157.26L157.304 170.469L174.829 180.658L186.219 174.085Z" fill="#FF8827"/>
<path id="Path_83" opacity="0.9" d="M139.853 165.84L139.894 186.896C139.915 192.926 143.876 198.956 151.797 203.554L180.848 186.781L180.806 165.725L151.943 148.952C143.698 153.707 139.675 159.988 139.863 166.226C139.853 166.101 139.853 165.975 139.853 165.84Z" fill="#598DC6"/>
<path id="Path_84" d="M151.755 182.497L151.797 203.554C143.876 198.956 139.915 192.926 139.894 186.896L139.853 165.84C139.873 171.869 143.834 177.888 151.755 182.497Z" fill="#86C3F2"/>
<path id="Path_85" opacity="0.7" d="M180.806 165.725L180.837 186.781L151.786 203.554L151.755 182.497L180.806 165.725Z" fill="#4089C6"/>
<path id="Path_86" d="M215.207 204.118C199.114 213.408 173.104 213.408 157.116 204.118L157.074 190.909C173.062 200.199 199.073 200.199 215.166 190.909C223.264 186.238 227.308 180.093 227.288 173.97L227.329 187.179C227.35 193.302 223.306 199.447 215.207 204.118Z" fill="#FF8827"/>
<path id="Path_87" opacity="0.7" d="M215.354 157.26C231.342 166.55 231.259 181.619 215.166 190.909C199.073 200.199 173.062 200.199 157.074 190.909L186.209 174.085L215.354 157.26Z" fill="#FF9C43"/>
</g>
<path id="Path_88" d="M79.1692 173.792L92.4302 166.132L105.702 173.792L92.4302 181.347L79.1692 173.792Z" fill="url(#paint29_linear)"/>
<path id="Path_89" d="M95.8892 176.781L109.161 169.121L122.422 176.781L109.161 184.326L95.8892 176.781Z" fill="url(#paint30_linear)"/>
<path id="Path_90" d="M459.11 51.0986C459.11 49.0713 460.563 48.2353 462.329 49.2594C464.095 50.273 465.548 52.7706 465.548 54.8083C465.548 56.8461 464.095 57.6716 462.329 56.6475C460.552 55.6234 459.11 53.1259 459.11 51.0986Z" fill="#4DBBFF"/>
<g id="Group_14" opacity="0.5">
<path id="Path_91" d="M471.807 58.5808C471.807 56.5535 473.259 55.7175 475.025 56.7416C476.792 57.7552 478.244 60.2528 478.244 62.2905C478.244 64.3283 476.792 65.1538 475.025 64.1297C473.259 63.1056 471.807 60.6185 471.807 58.5808Z" fill="#4DBBFF"/>
</g>
<g id="Group_15" opacity="0.5">
<path id="Path_92" fill-rule="evenodd" clip-rule="evenodd" d="M484.504 66.0734C484.504 64.0461 485.956 63.2101 487.722 64.2342C489.488 65.2583 490.941 67.7454 490.941 69.7832C490.941 71.8209 489.488 72.6465 487.722 71.6224C485.956 70.5983 484.504 68.1007 484.504 66.0734Z" stroke="#86C3F2" stroke-width="0.5"/>
</g>
<path id="Path_93" d="M361.455 176.729L361.57 249.053L341.234 261.405L317.889 247.924L255.293 284.05L194.683 249.053L152.967 273.14L131.879 261.227V195.288" stroke="#B3DAFF" stroke-width="0.5" stroke-linecap="round" stroke-dasharray="3.14"/>
<path id="Path_94" d="M298.985 160.531V212.927L340.931 237.14L324.452 246.472L366.178 270.559L403.286 249.053L452.433 278.355" stroke="#B3DAFF" stroke-width="0.5" stroke-linecap="round" stroke-dasharray="3.14"/>
<path id="Path_95" d="M215.552 140.624L257.269 116.578L236.41 104.529L215.552 116.578V68.4038" stroke="#B3DAFF" stroke-width="0.5" stroke-linecap="round" stroke-dasharray="3.14"/>
<path id="Path_96" d="M298.985 188.84L278.012 176.729" stroke="#B3DAFF" stroke-width="0.5" stroke-linecap="round" stroke-dasharray="3.14"/>
<path id="Path_97" d="M90.3821 237.015L111.24 224.966V227.944L90.3821 239.763V237.015Z" fill="url(#paint31_linear)"/>
<path id="Path_98" d="M27.8074 200.878L90.382 237.015V239.763L27.8074 203.554V200.878Z" fill="url(#paint32_linear)"/>
<path id="Path_99" d="M69.5239 273.276L90.3821 261.227V264.205L69.5239 276.024V273.276Z" fill="url(#paint33_linear)"/>
<path id="Path_100" d="M6.93872 237.14L69.5238 273.276V276.024L6.93872 239.815V237.14Z" fill="url(#paint34_linear)"/>
<path id="Path_101" d="M109.161 184.326V184.712L122.422 177.126V176.781L109.161 184.326Z" fill="url(#paint35_linear)"/>
<path id="Path_102" d="M95.8892 176.781L109.161 184.326V184.712L95.8892 177.157V176.781Z" fill="url(#paint36_linear)"/>
<path id="Path_103" d="M92.4302 181.347V181.703L98.1359 178.432L97.8433 178.265L92.4302 181.347Z" fill="url(#paint37_linear)"/>
<path id="Path_104" d="M79.1692 173.792L92.4302 181.347V181.703L79.1692 174.116V173.792Z" fill="url(#paint38_linear)"/>
<path id="Path_105" opacity="0.4" d="M38.2366 206.898L69.5239 200.878L90.3821 212.927L61.4774 220.326L38.2366 206.898Z" fill="white"/>
<path id="Path_106" opacity="0.5" d="M38.2366 255.083L69.5239 249.053L90.3821 261.102L61.4774 268.5L38.2366 255.083Z" fill="white"/>
<path id="Path_107" d="M281.69 203.062L315.308 222.364C317.293 223.503 317.293 226.366 315.308 227.505L281.69 246.858C279.402 248.175 276.591 248.175 274.312 246.848L240.893 227.505C238.918 226.366 238.918 223.513 240.893 222.374L274.312 203.083C276.611 201.756 279.412 201.756 281.69 203.062Z" fill="url(#paint39_linear)"/>
<path id="Path_108" d="M315.381 225.854L281.763 245.207C279.475 246.524 276.664 246.524 274.386 245.197L240.967 225.854C240.266 225.446 239.838 224.83 239.629 224.151C239.253 225.394 239.692 226.847 240.967 227.589L274.386 246.932C276.664 248.248 279.485 248.259 281.763 246.942L315.381 227.589C316.666 226.847 317.105 225.394 316.729 224.151C316.51 224.83 316.071 225.446 315.381 225.854Z" fill="url(#paint40_linear)"/>
<g id="Group_16">
<path id="Path_109" opacity="0.6" d="M274.668 179.738L274.699 211.527C274.699 212.259 275.18 213 276.152 213.554C278.095 214.683 281.251 214.683 283.205 213.554C284.188 212.99 284.679 212.238 284.679 211.496L284.647 179.707C284.647 179.707 284.647 179.707 284.647 179.717C284.647 178.975 284.167 178.244 283.195 177.679C281.251 176.551 278.095 176.551 276.141 177.679C275.127 178.265 274.636 179.038 274.668 179.801C274.668 179.78 274.668 179.759 274.668 179.738Z" fill="#7849C1" fill-opacity="0.9"/>
<g id="Group_17" opacity="0.6">
<g id="Group_18">
<path id="Path_110" d="M283.195 177.679C285.139 178.808 285.128 180.637 283.174 181.765C281.22 182.894 278.064 182.894 276.12 181.765C274.177 180.637 274.187 178.808 276.141 177.679C278.095 176.551 281.251 176.551 283.195 177.679Z" fill="#CBB0FF"/>
</g>
</g>
<g id="Group_19">
<path id="Path_111" d="M276.11 202.958C278.053 204.087 281.209 204.087 283.164 202.958C284.146 202.394 284.637 201.641 284.637 200.899L284.668 211.496C284.668 212.238 284.177 212.99 283.195 213.554C281.241 214.683 278.085 214.683 276.141 213.554C275.18 212.99 274.689 212.259 274.689 211.527L274.657 200.931C274.668 201.662 275.148 202.394 276.11 202.958Z" fill="#570DBF" fill-opacity="0.5"/>
<path id="Path_112" opacity="0.6" d="M283.195 198.872C285.139 200.001 285.128 201.829 283.174 202.958C281.22 204.087 278.064 204.087 276.12 202.958C274.177 201.829 274.187 200.001 276.141 198.872C278.095 197.743 281.251 197.743 283.195 198.872Z" fill="#7849C1" fill-opacity="0.9"/>
</g>
<path id="Path_113" d="M262.514 185.684L262.546 217.473C262.546 218.205 263.026 218.947 263.998 219.5C265.942 220.629 269.098 220.629 271.052 219.5C272.034 218.936 272.525 218.184 272.525 217.442L272.494 185.653C272.494 185.653 272.494 185.653 272.494 185.663C272.494 184.921 272.013 184.19 271.042 183.626C269.098 182.497 265.942 182.497 263.988 183.626C262.974 184.211 262.483 184.984 262.514 185.747C262.514 185.726 262.514 185.705 262.514 185.684Z" fill="#FEC377"/>
<path id="Path_114" d="M271.042 183.626C272.985 184.754 272.975 186.583 271.021 187.711C269.066 188.84 265.911 188.84 263.967 187.711C262.023 186.583 262.034 184.754 263.988 183.626C265.942 182.497 269.108 182.497 271.042 183.626Z" fill="#FEDAAA"/>
<g id="Group_20">
<path id="Path_115" opacity="0.7" d="M263.967 198.297C265.911 199.426 269.067 199.426 271.021 198.297C272.003 197.733 272.494 196.981 272.494 196.239L272.526 217.442C272.526 218.184 272.034 218.936 271.052 219.5C269.098 220.629 265.942 220.629 263.998 219.5C263.037 218.936 262.546 218.205 262.546 217.473L262.514 196.27C262.514 197.001 263.006 197.733 263.967 198.297Z" fill="#FF9C43"/>
<path id="Path_116" d="M271.042 194.211C272.985 195.34 272.975 197.169 271.021 198.297C269.066 199.426 265.911 199.426 263.967 198.297C262.023 197.169 262.034 195.34 263.988 194.211C265.942 193.083 269.108 193.083 271.042 194.211Z" fill="#FF8827"/>
</g>
<path id="Path_117" opacity="0.9" d="M250.372 192.675L250.403 224.464C250.403 225.196 250.884 225.938 251.855 226.491C253.799 227.62 256.955 227.62 258.909 226.491C259.891 225.927 260.383 225.175 260.383 224.433L260.351 192.644C260.351 192.644 260.351 192.644 260.351 192.654C260.351 191.912 259.871 191.181 258.899 190.617C256.955 189.488 253.799 189.488 251.845 190.617C250.831 191.202 250.34 191.975 250.372 192.738C250.372 192.717 250.372 192.696 250.372 192.675Z" fill="#4089C6"/>
<g id="Group_21" opacity="0.9">
<path id="Path_118" d="M258.899 190.617C260.842 191.745 260.832 193.574 258.878 194.703C256.924 195.831 253.768 195.831 251.824 194.703C249.88 193.574 249.891 191.745 251.845 190.617C253.799 189.488 256.955 189.488 258.899 190.617Z" fill="#8CC2F4"/>
</g>
</g>
<g id="Group_22" opacity="0.6">
<path id="Path_119" d="M427.248 207.755L431.146 198.088L431.167 196.186C431.188 196.134 431.157 196.071 431.094 196.03L413.068 185.621C412.911 185.527 412.65 185.58 412.597 185.695L408.773 195.162C408.647 195.486 408.208 195.737 407.655 195.81L391.311 198.057C391.175 198.078 391.091 198.151 391.102 198.214L391.081 200.116L409.452 210.681L426.13 208.392C426.694 208.319 427.123 208.068 427.248 207.755Z" fill="url(#paint41_linear)"/>
<g id="Group_23">
<path id="Path_120" d="M431.094 196.04C431.167 196.082 431.188 196.134 431.167 196.197L427.269 205.863C427.144 206.187 426.705 206.438 426.151 206.511L409.473 208.8C409.379 208.81 409.274 208.8 409.212 208.758L391.185 198.35C391.029 198.255 391.102 198.109 391.321 198.078L407.665 195.831C408.219 195.758 408.647 195.507 408.783 195.183L412.608 185.715C412.66 185.59 412.921 185.548 413.078 185.642L431.094 196.04Z" fill="url(#paint42_linear)"/>
</g>
</g>
<g id="Group_24" opacity="0.6">
<path id="Path_121" d="M435.086 225.164L451.764 222.876C452.318 222.803 452.746 222.552 452.882 222.228L456.78 212.562L456.801 210.66C456.822 210.607 456.79 210.545 456.728 210.513L438.701 200.105C438.545 200.011 438.283 200.063 438.231 200.178L434.406 209.646C434.281 209.97 433.842 210.221 433.288 210.294L416.944 212.541C416.809 212.562 416.725 212.635 416.735 212.697L416.715 214.599L435.086 225.164Z" fill="url(#paint43_linear)"/>
<g id="Group_25">
<path id="Path_122" d="M456.717 210.503C456.79 210.545 456.811 210.597 456.79 210.649L452.893 220.315C452.767 220.639 452.328 220.89 451.774 220.963L435.096 223.252C435.002 223.262 434.908 223.252 434.835 223.21L416.809 212.802C416.652 212.708 416.725 212.562 416.945 212.53L433.288 210.283C433.842 210.21 434.271 209.96 434.406 209.636L438.231 200.168C438.283 200.042 438.545 200.001 438.701 200.095L456.717 210.503Z" fill="url(#paint44_linear)"/>
</g>
</g>
<g id="Group_26" opacity="0.6">
<path id="Path_123" d="M460.709 239.627L477.387 237.338C477.941 237.265 478.369 237.015 478.505 236.691L482.403 227.024L482.424 225.122C482.445 225.07 482.414 225.007 482.351 224.976L464.325 214.568C464.168 214.474 463.907 214.526 463.854 214.641L460.03 224.109C459.904 224.433 459.465 224.684 458.912 224.757L442.568 227.003C442.432 227.024 442.348 227.097 442.359 227.16L442.338 229.062L460.709 239.627Z" fill="url(#paint45_linear)"/>
<g id="Group_27">
<path id="Path_124" d="M482.341 224.976C482.414 225.018 482.435 225.07 482.414 225.133L478.516 234.799C478.39 235.123 477.952 235.374 477.398 235.447L460.719 237.736C460.625 237.746 460.521 237.736 460.458 237.694L442.432 227.286C442.275 227.192 442.348 227.045 442.568 227.014L458.912 224.767C459.465 224.694 459.894 224.443 460.03 224.119L463.854 214.652C463.907 214.526 464.168 214.484 464.325 214.578L482.341 224.976Z" fill="#BDC8FF"/>
</g>
</g>
<path id="Path_125" d="M70.3284 40.2762C70.203 40.3494 70.0672 40.433 69.9418 40.5166C67.3711 42.2095 65.2915 45.8147 65.1243 48.887C65.0198 50.977 65.7722 52.3669 67.0158 52.8371C67.6428 53.0775 67.486 54.3001 66.7232 55.063C62.8149 59.0131 60.0456 64.9487 60.0665 70.0378L60.0874 76.4123L80.7471 64.4889L80.7262 58.1144C80.7157 53.0357 77.9151 50.3082 74.0068 50.8725C73.244 50.9875 73.0872 49.932 73.7142 48.9811C74.8637 47.215 75.5848 45.1355 75.5743 43.2858C75.5534 39.9523 73.2126 38.6042 70.3284 40.2762Z" fill="#C5E9FF"/>
</g>
<defs>
<linearGradient id="paint0_linear" x1="531.726" y1="42.2313" x2="462.548" y2="82.331" gradientUnits="userSpaceOnUse">
<stop stop-color="#A5D1FF"/>
<stop offset="0.00826424" stop-color="#A6D1FF" stop-opacity="0.9917"/>
<stop offset="0.2553" stop-color="#C2DDFF" stop-opacity="0.7447"/>
<stop offset="0.5035" stop-color="#D6E5FF" stop-opacity="0.4965"/>
<stop offset="0.7517" stop-color="#E2E9FF" stop-opacity="0.2483"/>
<stop offset="1" stop-color="#E6EBFF" stop-opacity="0.01"/>
</linearGradient>
<linearGradient id="paint1_linear" x1="528.318" y1="181.963" x2="632.99" y2="210.155" gradientUnits="userSpaceOnUse">
<stop stop-color="#D1DBFA"/>
<stop offset="0.1278" stop-color="#D6DFFB" stop-opacity="0.8722"/>
<stop offset="0.5634" stop-color="#E2E8FE" stop-opacity="0.4366"/>
<stop offset="1" stop-color="#E6EBFF" stop-opacity="0.01"/>
</linearGradient>
<linearGradient id="paint2_linear" x1="626.785" y1="16.2081" x2="564.906" y2="34.7762" gradientUnits="userSpaceOnUse">
<stop stop-color="#C8E5FF"/>
<stop offset="0.1642" stop-color="#DBEEFF"/>
<stop offset="0.3948" stop-color="#EFF7FF"/>
<stop offset="0.6261" stop-color="#FBFDFF"/>
<stop offset="0.8576" stop-color="white"/>
</linearGradient>
<linearGradient id="paint3_linear" x1="32.7954" y1="243.334" x2="273.137" y2="243.334" gradientUnits="userSpaceOnUse">
<stop stop-color="#E9F2FF" stop-opacity="0.4"/>
<stop offset="0.1141" stop-color="#DDE9FC" stop-opacity="0.4685"/>
<stop offset="0.49" stop-color="#BAD1F5" stop-opacity="0.694"/>
<stop offset="0.7988" stop-color="#A5C2F0" stop-opacity="0.8793"/>
<stop offset="1" stop-color="#9DBCEE"/>
</linearGradient>
<linearGradient id="paint4_linear" x1="361.172" y1="81.2767" x2="334.487" y2="218.792" gradientUnits="userSpaceOnUse">
<stop stop-color="#E9F2FF" stop-opacity="0.4"/>
<stop offset="0.1141" stop-color="#DDE9FC" stop-opacity="0.4685"/>
<stop offset="0.49" stop-color="#BAD1F5" stop-opacity="0.694"/>
<stop offset="0.7988" stop-color="#A5C2F0" stop-opacity="0.8793"/>
<stop offset="1" stop-color="#9DBCEE"/>
</linearGradient>
<linearGradient id="paint5_linear" x1="280.165" y1="71.0914" x2="270.184" y2="214.399" gradientUnits="userSpaceOnUse">
<stop stop-color="#A0AEFF"/>
<stop offset="0.2296" stop-color="#A7B6FF"/>
<stop offset="0.5819" stop-color="#BBCBFF"/>
<stop offset="1" stop-color="#DBEDFF"/>
</linearGradient>
<linearGradient id="paint6_linear" x1="6.94301" y1="273.143" x2="90.3847" y2="273.143" gradientUnits="userSpaceOnUse">
<stop stop-color="#E6EBFF"/>
<stop offset="1" stop-color="#E9F2FF" stop-opacity="0.4"/>
</linearGradient>
<linearGradient id="paint7_linear" x1="27.8035" y1="237.014" x2="111.245" y2="237.014" gradientUnits="userSpaceOnUse">
<stop stop-color="#E6EBFF"/>
<stop offset="1" stop-color="#E9F2FF" stop-opacity="0.4"/>
</linearGradient>
<linearGradient id="paint8_linear" x1="33.0567" y1="234.825" x2="272.875" y2="234.825" gradientUnits="userSpaceOnUse">
<stop stop-color="#E6EBFF"/>
<stop offset="1" stop-color="#E9F2FF" stop-opacity="0.4"/>
</linearGradient>
<linearGradient id="paint9_linear" x1="570.174" y1="237.011" x2="653.616" y2="237.011" gradientUnits="userSpaceOnUse">
<stop stop-color="#E6EBFF"/>
<stop offset="1" stop-color="#E9F2FF" stop-opacity="0.4"/>
</linearGradient>
<linearGradient id="paint10_linear" x1="591.035" y1="273.143" x2="674.476" y2="273.143" gradientUnits="userSpaceOnUse">
<stop stop-color="#E6EBFF"/>
<stop offset="1" stop-color="#E9F2FF" stop-opacity="0.4"/>
</linearGradient>
<linearGradient id="paint11_linear" x1="-24.4338" y1="39.0142" x2="-32.2605" y2="180.11" gradientUnits="userSpaceOnUse">
<stop stop-color="white"/>
<stop offset="1" stop-color="white" stop-opacity="0.01"/>
</linearGradient>
<linearGradient id="paint12_linear" x1="358.426" y1="55.2878" x2="329.021" y2="206.819" gradientUnits="userSpaceOnUse">
<stop stop-color="#E6EBFF"/>
<stop offset="1" stop-color="#E9F2FF" stop-opacity="0.4"/>
</linearGradient>
<linearGradient id="paint13_linear" x1="518.022" y1="102.411" x2="601.465" y2="102.411" gradientUnits="userSpaceOnUse">
<stop stop-color="#E6EBFF"/>
<stop offset="1" stop-color="#E9F2FF" stop-opacity="0.4"/>
</linearGradient>
<linearGradient id="paint14_linear" x1="33.0652" y1="237.143" x2="272.867" y2="237.143" gradientUnits="userSpaceOnUse">
<stop stop-color="#A0AEFF"/>
<stop offset="0.2296" stop-color="#A7B6FF"/>
<stop offset="0.5819" stop-color="#BBCBFF"/>
<stop offset="1" stop-color="#DBEDFF"/>
</linearGradient>
<linearGradient id="paint15_linear" x1="608.117" y1="76.9421" x2="691.559" y2="76.9421" gradientUnits="userSpaceOnUse">
<stop stop-color="#E6EBFF"/>
<stop offset="1" stop-color="#E9F2FF" stop-opacity="0.4"/>
</linearGradient>
<linearGradient id="paint16_linear" x1="601.096" y1="232.051" x2="586.461" y2="213.758" gradientUnits="userSpaceOnUse">
<stop stop-color="#B1CDFF"/>
<stop offset="0.4526" stop-color="#B6D5FF"/>
<stop offset="1" stop-color="#C1E5FF"/>
</linearGradient>
<linearGradient id="paint17_linear" x1="591.035" y1="239.879" x2="653.616" y2="239.879" gradientUnits="userSpaceOnUse">
<stop stop-color="#A0AEFF"/>
<stop offset="0.2296" stop-color="#A7B6FF"/>
<stop offset="0.5819" stop-color="#BBCBFF"/>
<stop offset="1" stop-color="#DBEDFF"/>
</linearGradient>
<linearGradient id="paint18_linear" x1="621.961" y1="268.186" x2="607.338" y2="249.889" gradientUnits="userSpaceOnUse">
<stop stop-color="#A0AEFF"/>
<stop offset="0.2296" stop-color="#A7B6FF"/>
<stop offset="0.5819" stop-color="#BBCBFF"/>
<stop offset="1" stop-color="#DBEDFF"/>
</linearGradient>
<linearGradient id="paint19_linear" x1="640.218" y1="293.664" x2="675.914" y2="240.879" gradientUnits="userSpaceOnUse">
<stop stop-color="#B1CDFF"/>
<stop offset="0.4526" stop-color="#B6D5FF"/>
<stop offset="1" stop-color="#C1E5FF"/>
</linearGradient>
<linearGradient id="paint20_linear" x1="599.987" y1="130.505" x2="678.28" y2="148.413" gradientUnits="userSpaceOnUse">
<stop stop-color="#DADBFA"/>
<stop stop-color="#DADBFA" stop-opacity="0.9991"/>
<stop offset="0.5" stop-color="#E3E7FE" stop-opacity="0.5"/>
<stop offset="1" stop-color="#E6EBFF" stop-opacity="0.01"/>
</linearGradient>
<linearGradient id="paint21_linear" x1="391.203" y1="125.647" x2="409.184" y2="169.616" gradientUnits="userSpaceOnUse">
<stop stop-color="#D9DFF5"/>
<stop offset="0.9971" stop-color="#EAEAF4" stop-opacity="0.01"/>
<stop offset="0.9976" stop-color="#E6E8F4" stop-opacity="0.0484"/>
<stop offset="0.9981" stop-color="#DAE2F5" stop-opacity="0.0969"/>
<stop offset="0.9985" stop-color="#C6D8F7" stop-opacity="0.1453"/>
<stop offset="0.999" stop-color="#AACBF9" stop-opacity="0.1938"/>
<stop offset="0.9994" stop-color="#86B9FB" stop-opacity="0.2423"/>
<stop offset="0.9999" stop-color="#5AA4FE" stop-opacity="0.2903"/>
<stop offset="1" stop-color="#509FFF" stop-opacity="0.3"/>
</linearGradient>
<linearGradient id="paint22_linear" x1="460.304" y1="184.409" x2="563.139" y2="141.797" gradientUnits="userSpaceOnUse">
<stop stop-color="#F1F2FF"/>
<stop offset="0.0822" stop-color="#F4F5FF"/>
<stop offset="0.4162" stop-color="#FDFDFF"/>
<stop offset="1" stop-color="white"/>
</linearGradient>
<linearGradient id="paint23_linear" x1="401.233" y1="115.309" x2="456.772" y2="140.848" gradientUnits="userSpaceOnUse">
<stop stop-color="#FFA73E"/>
<stop offset="0.000706224" stop-color="#E4A566"/>
<stop offset="0.00226149" stop-color="#AC9FB8"/>
<stop offset="0.00336413" stop-color="#899CEB"/>
<stop offset="0.00390269" stop-color="#7B9BFF"/>
<stop offset="1" stop-color="#FFBCC9"/>
</linearGradient>
<linearGradient id="paint24_linear" x1="629.878" y1="63.0985" x2="577.288" y2="90.5014" gradientUnits="userSpaceOnUse">
<stop stop-color="#D1DBE8"/>
<stop offset="0.1665" stop-color="#D7E0EF" stop-opacity="0.8335"/>
<stop offset="0.5828" stop-color="#E2E8FB" stop-opacity="0.4172"/>
<stop offset="1" stop-color="#E6EBFF" stop-opacity="0.01"/>
</linearGradient>
<linearGradient id="paint25_linear" x1="292.599" y1="118.983" x2="286.043" y2="147.773" gradientUnits="userSpaceOnUse">
<stop stop-color="#E6EBFF"/>
<stop offset="1" stop-color="#E9F2FF" stop-opacity="0.4"/>
</linearGradient>
<linearGradient id="paint26_linear" x1="44.6742" y1="161.33" x2="55.2432" y2="148.411" gradientUnits="userSpaceOnUse">
<stop stop-color="#D7DEFF"/>
<stop offset="0.5141" stop-color="#DEE6FF" stop-opacity="0.6915"/>
<stop offset="1" stop-color="#E9F2FF" stop-opacity="0.4"/>
</linearGradient>
<linearGradient id="paint27_linear" x1="57.2038" y1="134.32" x2="68.3319" y2="134.32" gradientUnits="userSpaceOnUse">
<stop stop-color="#FFA73E"/>
<stop offset="0.4411" stop-color="#FFB182"/>
<stop offset="0.8165" stop-color="#FFB9B5"/>
<stop offset="1" stop-color="#FFBCC9"/>
</linearGradient>
<linearGradient id="paint28_linear" x1="46.1214" y1="131.123" x2="58.4315" y2="131.123" gradientUnits="userSpaceOnUse">
<stop stop-color="#FFA73E"/>
<stop offset="0.000706224" stop-color="#E4A566"/>
<stop offset="0.00226149" stop-color="#AC9FB8"/>
<stop offset="0.00336413" stop-color="#899CEB"/>
<stop offset="0.00390269" stop-color="#7B9BFF"/>
<stop offset="1" stop-color="#FFBCC9"/>
</linearGradient>
<linearGradient id="paint29_linear" x1="100.052" y1="181.641" x2="102.492" y2="168.333" gradientUnits="userSpaceOnUse">
<stop stop-color="#FFA73E"/>
<stop offset="0.4411" stop-color="#FFB182"/>
<stop offset="0.8165" stop-color="#FFB9B5"/>
<stop offset="1" stop-color="#FFBCC9"/>
</linearGradient>
<linearGradient id="paint30_linear" x1="95.8932" y1="184.326" x2="122.423" y2="184.326" gradientUnits="userSpaceOnUse">
<stop stop-color="#FFA73E"/>
<stop offset="0.000706224" stop-color="#E4A566"/>
<stop offset="0.00226149" stop-color="#AC9FB8"/>
<stop offset="0.00336413" stop-color="#899CEB"/>
<stop offset="0.00390269" stop-color="#7B9BFF"/>
<stop offset="1" stop-color="#FFBCC9"/>
</linearGradient>
<linearGradient id="paint31_linear" x1="90.3847" y1="239.766" x2="111.245" y2="239.766" gradientUnits="userSpaceOnUse">
<stop stop-color="#A0AEFF"/>
<stop offset="0.2296" stop-color="#A7B6FF"/>
<stop offset="0.5819" stop-color="#BBCBFF"/>
<stop offset="1" stop-color="#DBEDFF"/>
</linearGradient>
<linearGradient id="paint32_linear" x1="27.8034" y1="239.767" x2="90.3846" y2="239.767" gradientUnits="userSpaceOnUse">
<stop stop-color="#B1CDFF"/>
<stop offset="0.4526" stop-color="#B6D5FF"/>
<stop offset="1" stop-color="#C1E5FF"/>
</linearGradient>
<linearGradient id="paint33_linear" x1="69.5243" y1="276.027" x2="90.3849" y2="276.027" gradientUnits="userSpaceOnUse">
<stop stop-color="#B1CDFF"/>
<stop offset="0.4526" stop-color="#B6D5FF"/>
<stop offset="1" stop-color="#C1E5FF"/>
</linearGradient>
<linearGradient id="paint34_linear" x1="6.94301" y1="276.025" x2="69.5242" y2="276.025" gradientUnits="userSpaceOnUse">
<stop stop-color="#DBEDFF"/>
<stop offset="0.4181" stop-color="#BBCBFF"/>
<stop offset="0.7704" stop-color="#A7B6FF"/>
<stop offset="1" stop-color="#A0AEFF"/>
</linearGradient>
<linearGradient id="paint35_linear" x1="113.16" y1="179.914" x2="113.619" y2="182.482" gradientUnits="userSpaceOnUse">
<stop stop-color="#DBEDFF"/>
<stop offset="0.4181" stop-color="#BBCBFF"/>
<stop offset="0.7704" stop-color="#A7B6FF"/>
<stop offset="1" stop-color="#A0AEFF"/>
</linearGradient>
<linearGradient id="paint36_linear" x1="95.8932" y1="184.709" x2="109.158" y2="184.709" gradientUnits="userSpaceOnUse">
<stop stop-color="#DBEDFF"/>
<stop offset="0.4181" stop-color="#BBCBFF"/>
<stop offset="0.7704" stop-color="#A7B6FF"/>
<stop offset="1" stop-color="#A0AEFF"/>
</linearGradient>
<linearGradient id="paint37_linear" x1="92.4318" y1="181.703" x2="98.1384" y2="181.703" gradientUnits="userSpaceOnUse">
<stop stop-color="#A0AEFF"/>
<stop offset="0.2296" stop-color="#A7B6FF"/>
<stop offset="0.5819" stop-color="#BBCBFF"/>
<stop offset="1" stop-color="#DBEDFF"/>
</linearGradient>
<linearGradient id="paint38_linear" x1="79.1669" y1="181.705" x2="92.4319" y2="181.705" gradientUnits="userSpaceOnUse">
<stop stop-color="#DBEDFF"/>
<stop offset="0.4181" stop-color="#BBCBFF"/>
<stop offset="0.7704" stop-color="#A7B6FF"/>
<stop offset="1" stop-color="#A0AEFF"/>
</linearGradient>
<linearGradient id="paint39_linear" x1="297.185" y1="249.235" x2="304.81" y2="211.584" gradientUnits="userSpaceOnUse">
<stop stop-color="#E6EBFF"/>
<stop offset="1" stop-color="#E9F2FF" stop-opacity="0.4"/>
</linearGradient>
<linearGradient id="paint40_linear" x1="323.605" y1="246.39" x2="325.541" y2="210.997" gradientUnits="userSpaceOnUse">
<stop stop-color="#A0AEFF"/>
<stop offset="0.2296" stop-color="#A7B6FF"/>
<stop offset="0.5819" stop-color="#BBCBFF"/>
<stop offset="1" stop-color="#DBEDFF"/>
</linearGradient>
<linearGradient id="paint41_linear" x1="391.09" y1="210.687" x2="431.177" y2="210.687" gradientUnits="userSpaceOnUse">
<stop stop-color="#A0AEFF"/>
<stop offset="0.2296" stop-color="#A7B6FF"/>
<stop offset="0.5819" stop-color="#BBCBFF"/>
<stop offset="1" stop-color="#DBEDFF"/>
</linearGradient>
<linearGradient id="paint42_linear" x1="391.108" y1="208.793" x2="431.176" y2="208.793" gradientUnits="userSpaceOnUse">
<stop stop-color="#FFA73E"/>
<stop offset="0.4411" stop-color="#FFB182"/>
<stop offset="0.8165" stop-color="#FFB9B5"/>
<stop offset="1" stop-color="#FFBCC9"/>
</linearGradient>
<linearGradient id="paint43_linear" x1="416.713" y1="225.157" x2="456.799" y2="225.157" gradientUnits="userSpaceOnUse">
<stop stop-color="#A0AEFF"/>
<stop offset="0.2296" stop-color="#A7B6FF"/>
<stop offset="0.5819" stop-color="#BBCBFF"/>
<stop offset="1" stop-color="#DBEDFF"/>
</linearGradient>
<linearGradient id="paint44_linear" x1="416.731" y1="223.263" x2="456.799" y2="223.263" gradientUnits="userSpaceOnUse">
<stop stop-color="#FFA73E"/>
<stop offset="0.000706224" stop-color="#E4A566"/>
<stop offset="0.00226149" stop-color="#AC9FB8"/>
<stop offset="0.00336413" stop-color="#899CEB"/>
<stop offset="0.00390269" stop-color="#7B9BFF"/>
<stop offset="1" stop-color="#FFBCC9"/>
</linearGradient>
<linearGradient id="paint45_linear" x1="442.336" y1="239.627" x2="482.423" y2="239.627" gradientUnits="userSpaceOnUse">
<stop stop-color="#A0AEFF"/>
<stop offset="0.2296" stop-color="#A7B6FF"/>
<stop offset="0.5819" stop-color="#BBCBFF"/>
<stop offset="1" stop-color="#DBEDFF"/>
</linearGradient>
</defs>
</svg>
