<svg width="486" height="437" viewBox="0 0 486 437" fill="none" xmlns="http://www.w3.org/2000/svg">
<path fill-rule="evenodd" clip-rule="evenodd" d="M215.457 373.956H237.707V277.459H215.457V373.956Z" fill="#F0F0F0"/>
<path fill-rule="evenodd" clip-rule="evenodd" d="M123.707 380.071H233.435V373.957H123.707V380.071Z" fill="#F0F0F0"/>
<path fill-rule="evenodd" clip-rule="evenodd" d="M119.434 373.956H215.456V277.459H119.434V373.956Z" fill="#F5F5F5"/>
<path fill-rule="evenodd" clip-rule="evenodd" d="M128.182 320.983H206.708V289.336H128.182V320.983Z" fill="#F0F0F0"/>
<path fill-rule="evenodd" clip-rule="evenodd" d="M128.182 362.077H206.708V330.43H128.182V362.077Z" fill="#F0F0F0"/>
<path fill-rule="evenodd" clip-rule="evenodd" d="M158.629 292.004H176.26C177.454 292.004 178.43 291.028 178.43 289.834C178.43 288.64 177.454 287.664 176.26 287.664H158.629C157.435 287.664 156.459 288.64 156.459 289.834C156.459 291.028 157.435 292.004 158.629 292.004Z" fill="#F5F5F5"/>
<path fill-rule="evenodd" clip-rule="evenodd" d="M158.629 333.1H176.26C177.454 333.1 178.43 332.124 178.43 330.93C178.43 329.736 177.454 328.76 176.26 328.76H158.629C157.435 328.76 156.459 329.736 156.459 330.93C156.459 332.124 157.435 333.1 158.629 333.1Z" fill="#F5F5F5"/>
<path fill-rule="evenodd" clip-rule="evenodd" d="M174.763 275.559C173.856 275.559 173.115 274.818 173.115 273.912V223.771C173.115 222.864 173.856 222.123 174.763 222.123C175.669 222.123 176.41 222.864 176.41 223.771V273.912C176.41 274.818 175.669 275.559 174.763 275.559Z" fill="#F5F5F5"/>
<path fill-rule="evenodd" clip-rule="evenodd" d="M159.326 277.505H190.2V273.615H159.326V277.505Z" fill="#F0F0F0"/>
<path fill-rule="evenodd" clip-rule="evenodd" d="M183.316 245.569C182.863 245.569 182.492 245.199 182.492 244.745V219.674C182.492 219.222 182.863 218.852 183.316 218.852C183.768 218.852 184.14 219.222 184.14 219.674V244.745C184.14 245.199 183.768 245.569 183.316 245.569Z" fill="#F0F0F0"/>
<path fill-rule="evenodd" clip-rule="evenodd" d="M150.758 228.347C150.758 228.347 151.368 204.748 174.763 204.748C198.159 204.748 198.769 228.347 198.769 228.347H150.758Z" fill="#F0F0F0"/>
<path fill-rule="evenodd" clip-rule="evenodd" d="M226.582 290.41C226.582 273.905 240.525 260.657 257.275 261.799C271.485 262.769 282.976 274.322 283.881 288.537C284.088 291.783 283.753 294.922 282.958 297.872C279.686 310.027 278.462 322.643 278.462 335.232V371.915C278.462 374.574 276.306 376.73 273.646 376.73H236.877C234.217 376.73 232.061 374.574 232.061 371.915V333.078C232.061 321.269 230.775 309.454 227.62 298.074C226.943 295.635 226.582 293.065 226.582 290.41Z" fill="#F5F5F5"/>
<path fill-rule="evenodd" clip-rule="evenodd" d="M397.459 112.064H473.572V29.0469H397.459V112.064Z" fill="#E1E1E1"/>
<path fill-rule="evenodd" clip-rule="evenodd" d="M392.906 112.064H470.999V29.0469H392.906V112.064Z" fill="#F5F5F5"/>
<path fill-rule="evenodd" clip-rule="evenodd" d="M399.449 105.522H464.457V35.5898H399.449V105.522Z" fill="white"/>
<path fill-rule="evenodd" clip-rule="evenodd" d="M431.953 52.877L449.731 83.6707H414.174L431.953 52.877Z" fill="#F5F5F5"/>
<path fill-rule="evenodd" clip-rule="evenodd" d="M290.686 160.523H366.798V77.5059H290.686V160.523Z" fill="#E1E1E1"/>
<path fill-rule="evenodd" clip-rule="evenodd" d="M286.133 160.523H364.225V77.5059H286.133V160.523Z" fill="#F5F5F5"/>
<path fill-rule="evenodd" clip-rule="evenodd" d="M292.676 153.981H357.683V84.0488H292.676V153.981Z" fill="white"/>
<path fill-rule="evenodd" clip-rule="evenodd" d="M317.223 131.486L309.512 118.128C305.976 112.005 310.396 104.35 317.467 104.35H332.891C339.962 104.35 344.382 112.005 340.846 118.128L333.135 131.486C329.598 137.61 320.76 137.61 317.223 131.486Z" fill="#F5F5F5"/>
<path fill-rule="evenodd" clip-rule="evenodd" d="M485.289 422.523C485.289 430.34 376.78 436.677 242.928 436.677C109.075 436.677 0.566406 430.34 0.566406 422.523C0.566406 414.707 109.075 408.369 242.928 408.369C376.78 408.369 485.289 414.707 485.289 422.523Z" fill="#F5F5F5"/>
<path fill-rule="evenodd" clip-rule="evenodd" d="M326.049 26.3457H37.9023L56.8711 418.773H345.017L326.049 26.3457Z" fill="#007CFF"/>
<path fill-rule="evenodd" clip-rule="evenodd" d="M326.049 26.3457H37.9023L56.8711 418.773H345.017L326.049 26.3457Z" fill="black"/>
<path fill-rule="evenodd" clip-rule="evenodd" d="M328.715 26.3457H40.5684L59.5371 418.773H347.683L328.715 26.3457Z" fill="#004D99"/>
<path fill-rule="evenodd" clip-rule="evenodd" d="M313.498 39.5469H53.7441L71.8929 401.037L297.764 400.737L335.299 367.457L313.498 39.5469Z" fill="black"/>
<path fill-rule="evenodd" clip-rule="evenodd" d="M315.492 39.543C318.202 147.283 326.916 255.304 341.612 363.11C321.03 377.269 300.55 391.424 280.175 405.575H85.9622C67.5584 283.684 56.8097 161.433 53.7422 39.543H315.492Z" fill="white"/>
<path fill-rule="evenodd" clip-rule="evenodd" d="M341.611 363.111C321.029 377.269 300.549 391.423 280.174 405.574C284.633 386.829 289.271 368.074 294.091 349.314C309.92 353.914 325.761 358.513 341.611 363.111Z" fill="#ECECEC"/>
<path fill-rule="evenodd" clip-rule="evenodd" d="M128.237 68.4258C112.2 68.4258 96.1625 68.4258 80.125 68.4258C80.6888 84.4533 81.3838 100.487 82.2113 116.525H130.322C129.495 100.488 128.801 84.4545 128.237 68.4258ZM124.192 72.6145C124.676 85.852 125.25 99.092 125.915 112.335H86.1938C85.5288 99.092 84.9537 85.852 84.47 72.6145H124.192Z" fill="#6F6F6F"/>
<path fill-rule="evenodd" clip-rule="evenodd" d="M286.451 87.5248H150.42C150.294 84.5323 150.175 81.541 150.059 78.5498C195.404 78.5485 240.747 78.5485 286.091 78.5498C286.206 81.541 286.326 84.5323 286.451 87.5248Z" fill="#E1E1E1"/>
<path fill-rule="evenodd" clip-rule="evenodd" d="M257.711 106.397C222.229 106.397 186.748 106.397 151.265 106.397C151.121 103.405 150.983 100.412 150.848 97.4199H257.293C257.428 100.412 257.568 103.405 257.711 106.397Z" fill="#E1E1E1"/>
<path fill-rule="evenodd" clip-rule="evenodd" d="M132.008 146.225H83.8965C84.8877 162.265 86.0115 178.31 87.269 194.355C103.305 194.355 119.344 194.355 135.38 194.355C134.124 178.31 133 162.265 132.008 146.225ZM128.074 150.416C128.913 163.663 129.841 176.913 130.859 190.162H91.1377C90.119 176.912 89.1915 163.663 88.3527 150.416C101.594 150.416 114.834 150.416 128.074 150.416Z" fill="#6F6F6F"/>
<path fill-rule="evenodd" clip-rule="evenodd" d="M204.673 165.338H154.7C154.495 162.344 154.295 159.35 154.1 156.355H204.073C204.268 159.35 204.468 162.344 204.673 165.338Z" fill="#E1E1E1"/>
<path fill-rule="evenodd" clip-rule="evenodd" d="M252.01 165.338H215.252C215.047 162.344 214.847 159.35 214.65 156.355H251.41C251.605 159.35 251.807 162.344 252.01 165.338Z" fill="#E1E1E1"/>
<path fill-rule="evenodd" clip-rule="evenodd" d="M275.09 184.221H156.052C155.828 181.227 155.608 178.233 155.395 175.238H274.431C274.646 178.232 274.866 181.227 275.09 184.221Z" fill="#E1E1E1"/>
<path fill-rule="evenodd" clip-rule="evenodd" d="M137.859 224.064H89.7461C91.1673 240.109 92.7198 256.154 94.4048 272.198H142.517C140.831 256.154 139.279 240.109 137.859 224.064ZM134.037 228.257C135.23 241.507 136.512 254.758 137.885 268.007C124.644 268.007 111.402 268.007 98.1623 268.007C96.7898 254.757 95.5073 241.508 94.3161 228.257H134.037Z" fill="#6F6F6F"/>
<path fill-rule="evenodd" clip-rule="evenodd" d="M298.051 253.084H162.02C162.315 256.079 162.613 259.073 162.917 262.066H298.95C298.646 259.073 298.346 256.078 298.051 253.084Z" fill="#E1E1E1"/>
<path fill-rule="evenodd" clip-rule="evenodd" d="M266.668 234.197C231.185 234.197 195.704 234.197 160.223 234.197C160.498 237.191 160.778 240.186 161.061 243.18C196.544 243.18 232.025 243.18 267.508 243.18C267.223 240.186 266.943 237.191 266.668 234.197Z" fill="#E1E1E1"/>
<path fill-rule="evenodd" clip-rule="evenodd" d="M145.788 301.902H97.6758C99.5245 317.944 101.506 333.981 103.62 350.016H151.731C149.618 333.982 147.637 317.944 145.788 301.902ZM142.08 306.094C143.625 319.34 145.261 332.584 146.987 345.826H107.266C105.54 332.584 103.903 319.339 102.357 306.094C115.598 306.094 128.838 306.094 142.08 306.094Z" fill="#6F6F6F"/>
<path fill-rule="evenodd" clip-rule="evenodd" d="M305.534 321.011C260.191 321.011 214.847 321.011 169.503 321.011C169.138 318.019 168.778 315.026 168.422 312.031H304.454C304.809 315.025 305.169 318.018 305.534 321.011Z" fill="#E1E1E1"/>
<path fill-rule="evenodd" clip-rule="evenodd" d="M233.787 339.889H171.863C171.478 336.898 171.1 333.903 170.725 330.91H232.65C233.023 333.903 233.403 336.896 233.787 339.889Z" fill="#E1E1E1"/>
<path fill-rule="evenodd" clip-rule="evenodd" d="M270.77 339.889H244.03C243.646 336.898 243.268 333.903 242.893 330.91H269.633C270.008 333.903 270.386 336.896 270.77 339.889Z" fill="#E1E1E1"/>
<path fill-rule="evenodd" clip-rule="evenodd" d="M106.636 106.666C106.049 105.73 105.461 104.796 104.875 103.86C101.031 97.7395 93.1725 92.2708 90.4688 90.677C91.14 89.482 91.8112 88.287 92.4825 87.0908C95.6812 88.977 102.187 93.637 106.569 99.1783C112.619 90.932 121.557 82.4283 133.809 73.2695C134.671 74.397 135.537 75.5258 136.401 76.6545C123.321 86.4383 114.17 95.407 108.399 104.028C107.811 104.908 107.222 105.787 106.636 106.666Z" fill="#F99F1B"/>
<path fill-rule="evenodd" clip-rule="evenodd" d="M111.431 184.491C110.817 183.555 110.206 182.62 109.595 181.684C105.592 175.559 97.5847 170.085 94.8359 168.494C95.4747 167.297 96.1134 166.101 96.7534 164.905C100.007 166.794 106.635 171.457 111.163 176.999C116.991 168.747 125.705 160.245 137.71 151.072C138.603 152.201 139.498 153.331 140.393 154.461C127.578 164.262 118.66 173.221 113.123 181.852C112.558 182.732 111.995 183.61 111.431 184.491Z" fill="#F99F1B"/>
<path fill-rule="evenodd" clip-rule="evenodd" d="M118.323 262.521C117.686 261.586 117.048 260.65 116.411 259.713C112.245 253.591 104.089 248.117 101.299 246.522C101.906 245.327 102.514 244.13 103.121 242.933C106.424 244.825 113.176 249.487 117.855 255.03C123.464 246.78 131.948 238.272 143.706 229.1C144.63 230.23 145.555 231.358 146.481 232.488C133.928 242.288 125.25 251.255 119.944 259.882C119.404 260.762 118.864 261.642 118.323 262.521Z" fill="#F99F1B"/>
<path fill-rule="evenodd" clip-rule="evenodd" d="M244.336 384.047C236.961 384.044 232.71 381.321 228.963 378.921C225.379 376.619 221.995 374.456 215.766 374.452C209.535 374.454 206.763 376.622 203.83 378.921C200.765 381.321 197.29 384.052 189.919 384.047C182.548 384.044 178.29 381.321 174.546 378.921C170.961 376.619 167.585 374.456 161.351 374.452C155.12 374.454 152.349 376.622 149.418 378.921C146.353 381.321 142.88 384.052 135.509 384.047C128.135 384.044 123.886 381.321 120.138 378.921C116.553 376.619 113.171 374.456 106.944 374.452C106.775 373.254 106.608 372.054 106.441 370.854C113.813 370.857 118.054 373.575 121.799 375.981C125.379 378.275 128.765 380.452 134.995 380.449C141.224 380.452 143.991 378.276 146.926 375.981C149.995 373.579 153.474 370.855 160.849 370.854C168.22 370.857 172.458 373.575 176.208 375.981C179.785 378.275 183.176 380.452 189.404 380.449C195.635 380.452 198.401 378.276 201.339 375.981C204.405 373.579 207.89 370.855 215.264 370.854C222.636 370.857 226.876 373.575 230.623 375.981C234.203 378.275 237.589 380.452 243.823 380.449C243.993 381.649 244.165 382.846 244.336 384.047Z" fill="#ECECEC"/>
<path fill-rule="evenodd" clip-rule="evenodd" d="M254.911 36.0575C250.695 24.855 240.931 17.4275 230.422 17.4275H209.03C205.837 17.4275 202.849 15.475 201.589 12.4838C198.577 5.34 191.454 0.25 183.38 0.25C175.306 0.25 168.675 5.34 166.355 12.4838C165.384 15.475 162.584 17.4275 159.391 17.4275H137.999C127.49 17.4275 118.445 24.855 115.311 36.0575L114.059 40.5312H185.327H256.596L254.911 36.0575Z" fill="#0077B2"/>
<path fill-rule="evenodd" clip-rule="evenodd" d="M255.681 44.9249H115.397C112.981 44.9249 110.909 42.9487 110.792 40.5324C110.675 38.1162 112.556 36.1387 114.972 36.1387H255.256C257.672 36.1387 259.745 38.1162 259.861 40.5324C259.979 42.9487 258.097 44.9249 255.681 44.9249Z" fill="#007CFF"/>
<path fill-rule="evenodd" clip-rule="evenodd" d="M255.681 44.9249H115.397C112.981 44.9249 110.909 42.9487 110.792 40.5324C110.675 38.1162 112.556 36.1387 114.972 36.1387H255.256C257.672 36.1387 259.745 38.1162 259.861 40.5324C259.979 42.9487 258.097 44.9249 255.681 44.9249Z" fill="black"/>
<path fill-rule="evenodd" clip-rule="evenodd" d="M381.572 415.015H372.413L371.502 393.807H380.659L381.572 415.015Z" fill="#FFC4BE"/>
<path fill-rule="evenodd" clip-rule="evenodd" d="M436.56 415.015H427.401L422.799 393.807H431.956L436.56 415.015Z" fill="#FFC4BE"/>
<path fill-rule="evenodd" clip-rule="evenodd" d="M426.751 413.955H437.04C437.415 413.955 437.738 414.215 437.82 414.58L439.628 422.721C439.816 423.565 439.153 424.365 438.288 424.35C434.696 424.288 432.951 424.078 428.426 424.078C425.642 424.078 419.907 424.366 416.063 424.366C412.303 424.366 411.717 420.565 413.291 420.221C420.347 418.678 423.005 416.549 425.265 414.518C425.672 414.151 426.203 413.955 426.751 413.955Z" fill="#1A2E35"/>
<path fill-rule="evenodd" clip-rule="evenodd" d="M372.475 413.955H382.476C382.851 413.955 383.175 414.215 383.256 414.58L385.065 422.721C385.252 423.565 384.612 424.365 383.747 424.35C380.14 424.289 374.926 424.078 370.392 424.078C365.09 424.078 360.51 424.366 354.292 424.366C350.532 424.366 349.489 420.565 351.062 420.221C358.227 418.654 364.077 418.486 370.269 414.669C370.941 414.254 371.685 413.955 372.475 413.955Z" fill="#1A2E35"/>
<path fill-rule="evenodd" clip-rule="evenodd" d="M390.372 80.8789C389.059 87.5789 388.406 95.8827 393.094 100.354C393.094 100.354 390.401 107.15 377.952 107.15C366.576 107.15 372.271 100.354 372.271 100.354C379.742 98.5702 379.352 89.3314 378.051 84.1252L390.372 80.8789Z" fill="#FFC4BE"/>
<path fill-rule="evenodd" clip-rule="evenodd" d="M368.746 101.288C369.006 99.622 371.924 97.6945 375.256 96.9658C378.59 96.2358 391.35 94.622 395.256 96.2358C399.162 97.8508 394.58 102.631 394.58 102.631L368.746 101.288Z" fill="#007CFF"/>
<path fill-rule="evenodd" clip-rule="evenodd" d="M368.746 101.288C369.006 99.622 371.924 97.6945 375.256 96.9658C378.59 96.2358 391.35 94.622 395.256 96.2358C399.162 97.8508 394.58 102.631 394.58 102.631L368.746 101.288Z" fill="white"/>
<path fill-rule="evenodd" clip-rule="evenodd" d="M371.504 393.812L371.973 404.745H381.135L380.666 393.812H371.504Z" fill="black"/>
<path fill-rule="evenodd" clip-rule="evenodd" d="M431.961 393.812H422.799L425.176 404.745H434.339L431.961 393.812Z" fill="black"/>
<path fill-rule="evenodd" clip-rule="evenodd" d="M412.115 108.604L401.08 116.002C401.08 116.002 416.931 144.184 415.6 148.7C413.789 154.847 411.263 168.295 407.826 175.115C408.274 176.585 410.56 179.949 411.835 180.532C420.563 173.875 429.43 153.011 429.096 147.194C428.338 133.931 412.115 108.604 412.115 108.604Z" fill="#FFC4BE"/>
<path fill-rule="evenodd" clip-rule="evenodd" d="M407.826 175.114L399.115 174.439L403.699 184.079C403.699 184.079 411.334 184.417 412.61 178.581L407.826 175.114Z" fill="#CE5B51"/>
<path fill-rule="evenodd" clip-rule="evenodd" d="M451.077 222.115L450.337 223.499L445.384 232.864L269.666 139.945L275.344 129.201L451.077 222.115Z" fill="#004D99"/>
<path fill-rule="evenodd" clip-rule="evenodd" d="M462.445 200.65L458.816 207.506L456.765 211.377L281.031 118.464L286.708 107.719L462.445 200.65Z" fill="#004D99"/>
<path fill-rule="evenodd" clip-rule="evenodd" d="M456.764 211.378L451.077 222.116L275.342 129.206L281.029 118.469L456.764 211.378Z" fill="#007CFF"/>
<path fill-rule="evenodd" clip-rule="evenodd" d="M456.765 211.377L451.077 222.115L275.344 129.2L281.031 118.463L456.765 211.377Z" fill="#0077B2"/>
<path fill-rule="evenodd" clip-rule="evenodd" d="M262.091 109.141L256.979 118.81L269.664 139.953L286.706 107.723L262.091 109.141Z" fill="#007CFF"/>
<path fill-rule="evenodd" clip-rule="evenodd" d="M262.091 109.141L256.979 118.81L269.664 139.953L286.706 107.723L262.091 109.141Z" fill="white"/>
<path fill-rule="evenodd" clip-rule="evenodd" d="M251.543 109.75L256.979 118.811L262.092 109.143L251.543 109.75Z" fill="#F99F1B"/>
<path fill-rule="evenodd" clip-rule="evenodd" d="M392.035 178.829L396.614 187.357L403.7 184.079L399.116 174.439L392.035 178.829Z" fill="#CE5B51"/>
<path fill-rule="evenodd" clip-rule="evenodd" d="M409.493 102.424C418.158 103.684 428.082 133.71 428.082 133.71L409.883 143.989C409.883 143.989 401.868 129.707 397.915 119.104C393.774 107.992 400.199 101.072 409.493 102.424Z" fill="#FFC266"/>
<path fill-rule="evenodd" clip-rule="evenodd" d="M404.452 112.714C400.515 109.114 402.927 124.526 404.802 134.389C405.765 136.314 406.677 138.064 407.452 139.526C411.84 131.776 409.877 117.676 404.452 112.714Z" fill="black"/>
<path fill-rule="evenodd" clip-rule="evenodd" d="M358.184 102.897C358.184 102.897 347.375 130.553 357.641 182.057H406.626C406.964 174.537 402.24 137.856 409.492 102.424C409.492 102.424 401.095 100.739 393.094 100.354C386.835 100.053 377.774 99.8531 372.271 100.354C365.016 101.017 358.184 102.897 358.184 102.897Z" fill="#FFC266"/>
<path fill-rule="evenodd" clip-rule="evenodd" d="M365.73 115.752L353.378 110.859C353.378 110.859 339.158 139.898 334.683 141.364C328.594 143.359 316.085 148.904 308.519 149.944C307.561 151.146 306.089 154.937 306.331 156.318C316.764 159.729 338.978 155.199 343.579 151.626C354.071 143.478 365.73 115.752 365.73 115.752Z" fill="#FFC4BE"/>
<path fill-rule="evenodd" clip-rule="evenodd" d="M367.115 112.45C365.077 107.75 361.177 105.788 357.065 106.475C355.49 112.238 352.827 124.9 353.265 143.963L356.177 145.363C356.177 145.363 370.602 120.488 367.115 112.45Z" fill="black"/>
<path fill-rule="evenodd" clip-rule="evenodd" d="M369.06 109.163C372.146 117.357 356.51 141.487 356.51 141.487L338.193 131.54C338.193 131.54 342.463 119.505 348.777 110.1C355.26 100.443 365.673 100.171 369.06 109.163Z" fill="#FFC266"/>
<path fill-rule="evenodd" clip-rule="evenodd" d="M308.92 149.918L298.01 152.278L303.539 162.365C303.539 162.365 306.899 160.993 311.722 156.395L308.92 149.918Z" fill="#FFC4BE"/>
<path fill-rule="evenodd" clip-rule="evenodd" d="M292.869 154.515L297.219 160.537L303.539 162.365L298.009 152.277L292.869 154.515Z" fill="#FFC4BE"/>
<path fill-rule="evenodd" clip-rule="evenodd" d="M369.656 71.2407C369.613 71.9782 369.188 72.5532 368.706 72.5257C368.223 72.4982 367.867 71.877 367.91 71.1395C367.952 70.402 368.378 69.827 368.86 69.8545C369.342 69.8832 369.698 70.5032 369.656 71.2407Z" fill="#1A2E35"/>
<path fill-rule="evenodd" clip-rule="evenodd" d="M370.306 71.3008C370.306 71.3008 368.384 75.4583 366.42 77.4045C367.654 78.6983 369.905 78.2695 369.905 78.2695L370.306 71.3008Z" fill="#FF857F"/>
<path fill-rule="evenodd" clip-rule="evenodd" d="M368.709 68.6841C368.647 68.6766 368.583 68.6554 368.527 68.6179C368.326 68.4879 368.267 68.2204 368.398 68.0179C369.699 66.0016 371.701 65.9704 371.786 65.9691C372.019 65.9591 372.219 66.1604 372.222 66.4016C372.222 66.6404 372.031 66.8354 371.792 66.8379C371.726 66.8379 370.166 66.8804 369.126 68.4891C369.033 68.6329 368.868 68.7029 368.709 68.6841Z" fill="#1A2E35"/>
<path fill-rule="evenodd" clip-rule="evenodd" d="M394.504 70.5957C393.426 79.6207 393.253 84.9582 388.411 89.3432C381.127 95.9395 370.186 91.147 368.547 81.9807C367.071 73.7307 369.082 60.3582 378.156 57.2645C387.094 54.217 395.583 61.5707 394.504 70.5957Z" fill="#FFC4BE"/>
<path fill-rule="evenodd" clip-rule="evenodd" d="M376.317 72.3648C373.155 72.9898 368.107 65.9685 372.223 60.0035C370.137 58.9623 363.33 63.0598 360.762 59.2398C358.192 55.4198 365.309 53.3723 363.955 50.1423C368.783 51.1323 360.83 57.1535 365.414 56.5648C369.997 55.976 375.292 47.496 380.465 50.976C389.528 57.0698 401.872 46.9135 396.834 59.6223C403.014 58.3723 407.237 65.681 401.352 70.7323C389.62 80.8035 396.834 82.1223 389.407 82.6423C385.628 82.9073 376.972 78.441 376.317 72.3648Z" fill="#1A2E35"/>
<path fill-rule="evenodd" clip-rule="evenodd" d="M381.006 74.6923C380.075 76.6473 378.329 77.9885 376.642 78.556C374.106 79.4098 372.699 77.1748 373.287 74.7085C373.816 72.4885 375.775 69.3698 378.376 69.5848C380.94 69.7973 382.071 72.4573 381.006 74.6923Z" fill="#FFC4BE"/>
<path fill-rule="evenodd" clip-rule="evenodd" d="M375.02 182.057C375.02 182.057 385.413 252.047 391.12 278.268C397.367 306.982 420.908 402.629 420.908 402.629H437.682C437.682 402.629 422.16 309.3 418.595 280.87C414.725 250.015 406.628 182.057 406.628 182.057H375.02Z" fill="#007CFF"/>
<path fill-rule="evenodd" clip-rule="evenodd" d="M375.02 182.057C375.02 182.057 385.413 252.047 391.12 278.268C397.367 306.982 420.908 402.629 420.908 402.629H437.682C437.682 402.629 422.16 309.3 418.595 280.87C414.725 250.015 406.628 182.057 406.628 182.057H375.02Z" fill="white"/>
<path fill-rule="evenodd" clip-rule="evenodd" d="M387.364 206.526C386.593 205.43 385.884 205.054 385.234 205.241C385.189 205.255 385.144 205.271 385.1 205.29C384.96 205.348 384.824 205.425 384.689 205.534C384.568 205.633 384.448 205.759 384.33 205.899C384.264 205.978 384.198 206.061 384.132 206.154C384.042 206.28 383.952 206.418 383.864 206.568C383.67 206.895 383.483 207.278 383.302 207.708C383.204 207.939 383.109 208.185 383.015 208.444C382.903 208.754 382.793 209.081 382.685 209.426C382.543 209.886 382.405 210.374 382.272 210.889C382.237 211.021 382.203 211.156 382.169 211.293C382.099 211.574 382.03 211.861 381.963 212.155C381.908 212.4 381.853 212.648 381.798 212.901C381.692 213.395 381.589 213.905 381.489 214.43C381.383 214.988 381.28 215.56 381.182 216.146C381.147 216.351 381.112 216.558 381.078 216.766C380.955 217.516 380.838 218.283 380.727 219.064V219.069C383.502 236.493 386.802 256.465 389.514 270.401C389.647 269.95 389.773 269.471 389.897 268.97C390.388 266.963 390.807 264.57 391.15 261.909C393.468 243.941 392.374 213.688 387.364 206.526Z" fill="#0864AA"/>
<path fill-rule="evenodd" clip-rule="evenodd" d="M357.642 182.057C357.642 182.057 356.381 250.532 357.377 278.46C358.414 307.51 368.56 402.629 368.56 402.629H384.075C384.075 402.629 384.644 309.208 385.335 280.678C386.087 249.575 389.842 182.057 389.842 182.057H357.642Z" fill="#007CFF"/>
<path fill-rule="evenodd" clip-rule="evenodd" d="M357.642 182.057C357.642 182.057 356.381 250.532 357.377 278.46C358.414 307.51 368.56 402.629 368.56 402.629H384.075C384.075 402.629 384.644 309.208 385.335 280.678C386.087 249.575 389.842 182.057 389.842 182.057H357.642Z" fill="white"/>
<path fill-rule="evenodd" clip-rule="evenodd" d="M385.098 397.875C385.169 397.875 385.098 402.945 385.098 402.945H367.215L366.463 397.25L385.098 397.875Z" fill="#1A2E35"/>
<path fill-rule="evenodd" clip-rule="evenodd" d="M437.681 398.258C437.752 398.258 438.517 402.945 438.517 402.945H420.08L418.447 397.562L437.681 398.258Z" fill="#1A2E35"/>
<path fill-rule="evenodd" clip-rule="evenodd" d="M422.363 413.66C422.249 413.66 422.154 413.677 422.082 413.714C422.023 413.745 421.956 413.801 421.946 413.969C421.923 414.314 422.019 414.571 422.239 414.756C422.739 415.179 423.936 415.234 425.491 414.921C424.457 414.322 423.064 413.66 422.363 413.66ZM423.724 415.555C423.027 415.555 422.376 415.436 421.961 415.089C421.632 414.812 421.481 414.426 421.512 413.941C421.534 413.58 421.726 413.409 421.883 413.327C422.886 412.809 425.849 414.622 426.184 414.831C426.258 414.879 426.297 414.965 426.283 415.051C426.269 415.136 426.204 415.205 426.121 415.226C425.484 415.38 424.571 415.555 423.724 415.555Z" fill="#007CFF"/>
<path fill-rule="evenodd" clip-rule="evenodd" d="M424.221 411.52C424.188 411.52 424.156 411.523 424.122 411.526C423.841 411.561 423.816 411.691 423.806 411.745C423.691 412.348 424.858 413.865 425.799 414.58C425.693 413.807 425.401 412.267 424.719 411.71C424.563 411.582 424.399 411.52 424.221 411.52ZM426.068 415.232C426.033 415.232 425.997 415.225 425.966 415.207C425.017 414.692 423.186 412.686 423.379 411.663C423.414 411.478 423.551 411.158 424.069 411.096C424.409 411.053 424.717 411.148 424.993 411.373C426.058 412.243 426.276 414.887 426.284 414.998C426.292 415.078 426.253 415.155 426.187 415.197C426.151 415.221 426.111 415.232 426.068 415.232Z" fill="#007CFF"/>
<path fill-rule="evenodd" clip-rule="evenodd" d="M367.008 413.66C366.839 413.66 366.701 413.685 366.603 413.74C366.516 413.789 366.475 413.859 366.466 413.972C366.444 414.265 366.53 414.494 366.728 414.67C367.291 415.17 368.799 415.255 370.82 414.919C369.554 414.317 367.874 413.66 367.008 413.66ZM368.665 415.557C367.756 415.557 366.915 415.417 366.44 414.994C366.138 414.727 366.001 414.37 366.034 413.938C366.054 413.68 366.178 413.48 366.391 413.362C367.503 412.737 371.185 414.608 371.601 414.823C371.683 414.865 371.73 414.955 371.716 415.047C371.704 415.138 371.635 415.21 371.544 415.229C370.768 415.384 369.674 415.557 368.665 415.557Z" fill="#007CFF"/>
<path fill-rule="evenodd" clip-rule="evenodd" d="M369.267 411.519C369.224 411.519 369.181 411.523 369.137 411.526C368.746 411.567 368.721 411.719 368.713 411.771C368.613 412.392 370.101 413.948 371.228 414.626C371.112 413.906 370.784 412.429 370.021 411.802C369.789 411.613 369.542 411.519 369.267 411.519ZM371.501 415.232C371.471 415.232 371.441 415.226 371.412 415.213C370.307 414.717 368.117 412.738 368.284 411.701C368.324 411.458 368.497 411.156 369.092 411.096C369.527 411.042 369.939 411.176 370.296 411.467C371.461 412.424 371.707 414.889 371.717 414.996C371.724 415.072 371.691 415.146 371.627 415.192C371.591 415.218 371.546 415.232 371.501 415.232Z" fill="#007CFF"/>
</svg>
