<?xml version="1.0" encoding="UTF-8"?>
<svg width="465px" height="413px" viewBox="0 0 465 413" version="1.1" xmlns="http://www.w3.org/2000/svg" xmlns:xlink="http://www.w3.org/1999/xlink">
    <title>Быстрое решение-03</title>
    <defs>
        <linearGradient x1="16.2152621%" y1="49.9979354%" x2="82.917016%" y2="49.9979354%" id="linearGradient-1">
            <stop stop-color="#E6EBFF" offset="0%"></stop>
            <stop stop-color="#E9F2FF" stop-opacity="0.4" offset="100%"></stop>
        </linearGradient>
        <linearGradient x1="-0.00164482766%" y1="49.9991073%" x2="99.9999103%" y2="49.9991073%" id="linearGradient-2">
            <stop stop-color="#50BBFF" stop-opacity="0.3" offset="0%"></stop>
            <stop stop-color="#56BDFF" stop-opacity="0.3137" offset="1.96%"></stop>
            <stop stop-color="#82CBFF" stop-opacity="0.4271" offset="18.16%"></stop>
            <stop stop-color="#A6D6FF" stop-opacity="0.5418" offset="34.55%"></stop>
            <stop stop-color="#C2DFFF" stop-opacity="0.6565" offset="50.93%"></stop>
            <stop stop-color="#D6E6FF" stop-opacity="0.771" offset="67.29%"></stop>
            <stop stop-color="#E2EAFF" stop-opacity="0.8855" offset="83.64%"></stop>
            <stop stop-color="#E6EBFF" offset="100%"></stop>
        </linearGradient>
        <linearGradient x1="16.2174258%" y1="50.0027542%" x2="82.9175948%" y2="50.0027542%" id="linearGradient-3">
            <stop stop-color="#E6EBFF" offset="0%"></stop>
            <stop stop-color="#E9F2FF" offset="100%"></stop>
        </linearGradient>
        <linearGradient x1="0.0041904916%" y1="49.9998635%" x2="100.000563%" y2="49.9998635%" id="linearGradient-4">
            <stop stop-color="#50BBFF" stop-opacity="0.3" offset="0%"></stop>
            <stop stop-color="#56BDFF" stop-opacity="0.3137" offset="1.96%"></stop>
            <stop stop-color="#82CBFF" stop-opacity="0.4271" offset="18.16%"></stop>
            <stop stop-color="#A6D6FF" stop-opacity="0.5418" offset="34.55%"></stop>
            <stop stop-color="#C2DFFF" stop-opacity="0.6565" offset="50.93%"></stop>
            <stop stop-color="#D6E6FF" stop-opacity="0.771" offset="67.29%"></stop>
            <stop stop-color="#E2EAFF" stop-opacity="0.8855" offset="83.64%"></stop>
            <stop stop-color="#E6EBFF" offset="100%"></stop>
        </linearGradient>
        <linearGradient x1="0.0131466089%" y1="49.9906273%" x2="100.002226%" y2="49.9906273%" id="linearGradient-5">
            <stop stop-color="#50BBFF" stop-opacity="0.3" offset="0%"></stop>
            <stop stop-color="#56BDFF" stop-opacity="0.3137" offset="1.96%"></stop>
            <stop stop-color="#82CBFF" stop-opacity="0.4271" offset="18.16%"></stop>
            <stop stop-color="#A6D6FF" stop-opacity="0.5418" offset="34.55%"></stop>
            <stop stop-color="#C2DFFF" stop-opacity="0.6565" offset="50.93%"></stop>
            <stop stop-color="#D6E6FF" stop-opacity="0.771" offset="67.29%"></stop>
            <stop stop-color="#E2EAFF" stop-opacity="0.8855" offset="83.64%"></stop>
            <stop stop-color="#E6EBFF" offset="100%"></stop>
        </linearGradient>
        <linearGradient x1="99.9833186%" y1="50.0601455%" x2="-0.00085896514%" y2="50.0601455%" id="linearGradient-6">
            <stop stop-color="#A0AEFF" offset="0%"></stop>
            <stop stop-color="#A7B6FF" offset="22.96%"></stop>
            <stop stop-color="#BBCBFF" offset="58.19%"></stop>
            <stop stop-color="#DBEDFF" offset="100%"></stop>
        </linearGradient>
        <linearGradient x1="99.9918856%" y1="49.9910809%" x2="0.00273980222%" y2="49.9910809%" id="linearGradient-7">
            <stop stop-color="#FFA73E" offset="0%"></stop>
            <stop stop-color="#FFB182" offset="44.11%"></stop>
            <stop stop-color="#FFB9B5" offset="81.65%"></stop>
            <stop stop-color="#FFBCC9" offset="100%"></stop>
        </linearGradient>
        <linearGradient x1="100.009905%" y1="50.0064548%" x2="0.0265088953%" y2="50.0064548%" id="linearGradient-8">
            <stop stop-color="#A0AEFF" offset="0%"></stop>
            <stop stop-color="#A7B6FF" offset="22.96%"></stop>
            <stop stop-color="#BBCBFF" offset="58.19%"></stop>
            <stop stop-color="#DBEDFF" offset="100%"></stop>
        </linearGradient>
        <linearGradient x1="99.9924071%" y1="50.0225944%" x2="0.00378289329%" y2="50.0225944%" id="linearGradient-9">
            <stop stop-color="#FFA73E" offset="0%"></stop>
            <stop stop-color="#E4A566" offset="0.07062241%"></stop>
            <stop stop-color="#AC9FB8" offset="0.2261486%"></stop>
            <stop stop-color="#899CEB" offset="0.3364125%"></stop>
            <stop stop-color="#7B9BFF" offset="0.3902688%"></stop>
            <stop stop-color="#FFBCC9" offset="100%"></stop>
        </linearGradient>
        <linearGradient x1="100.011468%" y1="49.994801%" x2="0.0270301879%" y2="49.994801%" id="linearGradient-10">
            <stop stop-color="#A0AEFF" offset="0%"></stop>
            <stop stop-color="#A7B6FF" offset="22.96%"></stop>
            <stop stop-color="#BBCBFF" offset="58.19%"></stop>
            <stop stop-color="#DBEDFF" offset="100%"></stop>
        </linearGradient>
        <linearGradient x1="0.00834068129%" y1="50.0489079%" x2="99.9927789%" y2="50.0489079%" id="linearGradient-11">
            <stop stop-color="#A0AEFF" offset="0%"></stop>
            <stop stop-color="#A7B6FF" offset="22.96%"></stop>
            <stop stop-color="#BBCBFF" offset="58.19%"></stop>
            <stop stop-color="#DBEDFF" offset="100%"></stop>
        </linearGradient>
        <linearGradient x1="0.0261077435%" y1="49.9784754%" x2="100.015254%" y2="49.9784754%" id="linearGradient-12">
            <stop stop-color="#FFA73E" offset="0%"></stop>
            <stop stop-color="#FFB182" offset="44.11%"></stop>
            <stop stop-color="#FFB9B5" offset="81.65%"></stop>
            <stop stop-color="#FFBCC9" offset="100%"></stop>
        </linearGradient>
        <linearGradient x1="0.0341357667%" y1="49.994801%" x2="99.9914779%" y2="49.994801%" id="linearGradient-13">
            <stop stop-color="#A0AEFF" offset="0%"></stop>
            <stop stop-color="#A7B6FF" offset="22.96%"></stop>
            <stop stop-color="#BBCBFF" offset="58.19%"></stop>
            <stop stop-color="#DBEDFF" offset="100%"></stop>
        </linearGradient>
        <linearGradient x1="0.0253254252%" y1="50.009989%" x2="100.01421%" y2="50.009989%" id="linearGradient-14">
            <stop stop-color="#FFA73E" offset="0%"></stop>
            <stop stop-color="#E4A566" offset="0.07062241%"></stop>
            <stop stop-color="#AC9FB8" offset="0.2261486%"></stop>
            <stop stop-color="#899CEB" offset="0.3364125%"></stop>
            <stop stop-color="#7B9BFF" offset="0.3902688%"></stop>
            <stop stop-color="#FFBCC9" offset="100%"></stop>
        </linearGradient>
        <linearGradient x1="0.00651615726%" y1="49.9835634%" x2="99.9909544%" y2="49.9835634%" id="linearGradient-15">
            <stop stop-color="#A0AEFF" offset="0%"></stop>
            <stop stop-color="#A7B6FF" offset="22.96%"></stop>
            <stop stop-color="#BBCBFF" offset="58.19%"></stop>
            <stop stop-color="#DBEDFF" offset="100%"></stop>
        </linearGradient>
        <linearGradient x1="100.002893%" y1="50.0016335%" x2="3.24596956e-14%" y2="50.0016335%" id="linearGradient-16">
            <stop stop-color="#FF6E91" offset="0%"></stop>
            <stop stop-color="#FF6E8D" stop-opacity="0.8741" offset="17.99%"></stop>
            <stop stop-color="#FF6E81" stop-opacity="0.7482" offset="35.97%"></stop>
            <stop stop-color="#FF6F6D" stop-opacity="0.6223" offset="53.96%"></stop>
            <stop stop-color="#FF6F51" stop-opacity="0.4963" offset="71.96%"></stop>
            <stop stop-color="#FF702D" stop-opacity="0.3713" offset="89.81%"></stop>
            <stop stop-color="#FF7015" stop-opacity="0.3" offset="100%"></stop>
        </linearGradient>
        <linearGradient x1="26.5612656%" y1="-42.5979102%" x2="63.9103452%" y2="105.002394%" id="linearGradient-17">
            <stop stop-color="#A0AEFF" offset="0%"></stop>
            <stop stop-color="#A7B6FF" offset="22.96%"></stop>
            <stop stop-color="#BBCBFF" offset="58.19%"></stop>
            <stop stop-color="#DBEDFF" offset="100%"></stop>
        </linearGradient>
        <linearGradient x1="0.0442722292%" y1="49.9789038%" x2="100.02922%" y2="49.9789038%" id="linearGradient-18">
            <stop stop-color="#FFA73E" offset="0%"></stop>
            <stop stop-color="#FFB182" offset="44.11%"></stop>
            <stop stop-color="#FFB9B5" offset="81.65%"></stop>
            <stop stop-color="#FFBCC9" offset="100%"></stop>
        </linearGradient>
        <linearGradient x1="-0.0119681577%" y1="50.0159815%" x2="100.002575%" y2="50.0159815%" id="linearGradient-19">
            <stop stop-color="#FF6E91" offset="0%"></stop>
            <stop stop-color="#FF6E8D" stop-opacity="0.8741" offset="17.99%"></stop>
            <stop stop-color="#FF6E81" stop-opacity="0.7482" offset="35.97%"></stop>
            <stop stop-color="#FF6F6D" stop-opacity="0.6223" offset="53.96%"></stop>
            <stop stop-color="#FF6F51" stop-opacity="0.4963" offset="71.96%"></stop>
            <stop stop-color="#FF702D" stop-opacity="0.3713" offset="89.81%"></stop>
            <stop stop-color="#FF7015" stop-opacity="0.3" offset="100%"></stop>
        </linearGradient>
        <linearGradient x1="0.0773492139%" y1="49.9908149%" x2="100.125252%" y2="49.9908149%" id="linearGradient-20">
            <stop stop-color="#FF6E91" offset="0%"></stop>
            <stop stop-color="#FF6E8D" stop-opacity="0.8741" offset="17.99%"></stop>
            <stop stop-color="#FF6E81" stop-opacity="0.7482" offset="35.97%"></stop>
            <stop stop-color="#FF6F6D" stop-opacity="0.6223" offset="53.96%"></stop>
            <stop stop-color="#FF6F51" stop-opacity="0.4963" offset="71.96%"></stop>
            <stop stop-color="#FF702D" stop-opacity="0.3713" offset="89.81%"></stop>
            <stop stop-color="#FF7015" stop-opacity="0.3" offset="100%"></stop>
        </linearGradient>
        <linearGradient x1="-0.0116806073%" y1="50.0041032%" x2="99.993316%" y2="50.0041032%" id="linearGradient-21">
            <stop stop-color="#FFA73E" offset="0%"></stop>
            <stop stop-color="#FFB182" offset="44.11%"></stop>
            <stop stop-color="#FFB9B5" offset="81.65%"></stop>
            <stop stop-color="#FFBCC9" offset="100%"></stop>
        </linearGradient>
        <linearGradient x1="49.0829092%" y1="-13.5311862%" x2="50.734927%" y2="100.837365%" id="linearGradient-22">
            <stop stop-color="#FFA73E" offset="0%"></stop>
            <stop stop-color="#E4A566" offset="0.07062241%"></stop>
            <stop stop-color="#AC9FB8" offset="0.2261486%"></stop>
            <stop stop-color="#899CEB" offset="0.3364125%"></stop>
            <stop stop-color="#7B9BFF" offset="0.3902688%"></stop>
            <stop stop-color="#FFBCC9" offset="100%"></stop>
        </linearGradient>
        <linearGradient x1="49.748091%" y1="12.7103493%" x2="50.3577877%" y2="104.100673%" id="linearGradient-23">
            <stop stop-color="#FFA73E" offset="0%"></stop>
            <stop stop-color="#FFB182" offset="44.11%"></stop>
            <stop stop-color="#FFB9B5" offset="81.65%"></stop>
            <stop stop-color="#FFBCC9" offset="100%"></stop>
        </linearGradient>
        <linearGradient x1="49.7619018%" y1="-8.13166976%" x2="50.2187289%" y2="102.509424%" id="linearGradient-24">
            <stop stop-color="#FF6E91" offset="0%"></stop>
            <stop stop-color="#FF6E8D" stop-opacity="0.8741" offset="17.99%"></stop>
            <stop stop-color="#FF6E81" stop-opacity="0.7482" offset="35.97%"></stop>
            <stop stop-color="#FF6F6D" stop-opacity="0.6223" offset="53.96%"></stop>
            <stop stop-color="#FF6F51" stop-opacity="0.4963" offset="71.96%"></stop>
            <stop stop-color="#FF702D" stop-opacity="0.3713" offset="89.81%"></stop>
            <stop stop-color="#FF7015" stop-opacity="0.3" offset="100%"></stop>
        </linearGradient>
        <linearGradient x1="50.106426%" y1="16.9816555%" x2="49.8184%" y2="104.931842%" id="linearGradient-25">
            <stop stop-color="#FFA73E" offset="0%"></stop>
            <stop stop-color="#FFB182" offset="44.11%"></stop>
            <stop stop-color="#FFB9B5" offset="81.65%"></stop>
            <stop stop-color="#FFBCC9" offset="100%"></stop>
        </linearGradient>
        <linearGradient x1="50.0985448%" y1="104.937233%" x2="49.9099615%" y2="-0.937404059%" id="linearGradient-26">
            <stop stop-color="#FFA73E" offset="0%"></stop>
            <stop stop-color="#E4A566" offset="0.07062241%"></stop>
            <stop stop-color="#AC9FB8" offset="0.2261486%"></stop>
            <stop stop-color="#899CEB" offset="0.3364125%"></stop>
            <stop stop-color="#7B9BFF" offset="0.3902688%"></stop>
            <stop stop-color="#FFBCC9" offset="100%"></stop>
        </linearGradient>
    </defs>
    <g id="Основной-сайт" stroke="none" stroke-width="1" fill="none" fill-rule="evenodd">
        <g id="Новый-блок-с-иллюстрацией-Copy" transform="translate(-817.000000, -1053.000000)">
            <g id="Быстрое-решение-03" transform="translate(817.000000, 1053.000000)">
                <path d="M279.05,301.15 L110.33,203.74 C106.54,201.55 106.54,196.09 110.33,193.9 L279.05,96.49 C283.23,94.08 288.38,94.08 292.56,96.49 L461.28,193.9 C465.07,196.09 465.07,201.55 461.28,203.74 L292.56,301.15 C288.38,303.56 283.23,303.56 279.05,301.15 Z" id="Path" fill="#F3F6FD" fill-rule="nonzero"></path>
                <path d="M279.32,253.76 L110.6,156.35 C106.81,154.16 106.81,148.7 110.6,146.51 L279.32,49.1 C283.5,46.69 288.65,46.69 292.83,49.1 L461.55,146.51 C465.34,148.7 465.34,154.16 461.55,156.35 L292.83,253.76 C288.65,256.17 283.5,256.17 279.32,253.76 Z" id="Path" fill="url(#linearGradient-1)" fill-rule="nonzero"></path>
                <path d="M461.55,151.97 L292.83,249.38 C288.65,251.79 283.5,251.79 279.32,249.38 L110.6,151.97 C109.48,151.32 108.69,150.38 108.24,149.32 C107.16,151.82 107.94,154.98 110.6,156.52 L279.32,253.93 C283.5,256.34 288.65,256.34 292.83,253.93 L461.55,156.52 C464.21,154.98 465,151.83 463.91,149.32 C463.46,150.38 462.67,151.32 461.55,151.97 Z" id="Path" fill="url(#linearGradient-2)" fill-rule="nonzero"></path>
                <path d="M220.55,411.16 L104.38,344.09 C101.77,342.58 101.77,338.82 104.38,337.31 L220.55,270.24 C223.43,268.58 226.97,268.58 229.85,270.24 L346.02,337.31 C348.63,338.82 348.63,342.58 346.02,344.09 L229.85,411.16 C226.97,412.82 223.43,412.82 220.55,411.16 Z" id="Path" fill="#F3F6FD" fill-rule="nonzero"></path>
                <path d="M220.73,391.01 L104.56,323.94 C101.95,322.43 101.95,318.67 104.56,317.16 L220.73,250.09 C223.61,248.43 227.15,248.43 230.03,250.09 L346.2,317.16 C348.81,318.67 348.81,322.43 346.2,323.94 L230.03,391.01 C227.16,392.68 223.61,392.68 220.73,391.01 Z" id="Path" fill="url(#linearGradient-3)" fill-rule="nonzero"></path>
                <path d="M346.2,320.93 L230.03,388 C227.15,389.66 223.61,389.66 220.73,388 L104.56,320.93 C103.79,320.48 103.25,319.84 102.93,319.11 C102.18,320.83 102.72,323.01 104.56,324.06 L220.73,391.13 C223.61,392.79 227.15,392.79 230.03,391.13 L346.2,324.06 C348.03,323 348.57,320.83 347.83,319.11 C347.51,319.83 346.97,320.48 346.2,320.93 Z" id="Path" fill="url(#linearGradient-4)" fill-rule="nonzero"></path>
                <path d="M49.75,251.56 L1.55,223.73 C0.47,223.11 0.47,221.54 1.55,220.92 L49.75,193.09 C50.94,192.4 52.41,192.4 53.61,193.09 L101.81,220.92 C102.89,221.54 102.89,223.11 101.81,223.73 L53.61,251.56 C52.41,252.25 50.94,252.25 49.75,251.56 Z" id="Path" fill="#F3F6FD" fill-rule="nonzero"></path>
                <path d="M0.62,228.32 L51.56,257.73 L102.37,228.32 L51.29,198.5 L0.62,228.32 Z" id="Path" stroke="#B3DAFF" stroke-width="0.3841" stroke-dasharray="5.9686"></path>
                <path d="M49.75,231.35 L1.55,203.52 C0.47,202.9 0.47,201.33 1.55,200.71 L49.75,172.88 C50.94,172.19 52.41,172.19 53.61,172.88 L101.81,200.71 C102.89,201.33 102.89,202.9 101.81,203.52 L53.61,231.35 C52.41,232.03 50.94,232.03 49.75,231.35 Z" id="Path" fill="#F0F0FF" fill-rule="nonzero"></path>
                <path d="M101.8,202.27 L53.6,230.1 C52.41,230.79 50.94,230.79 49.74,230.1 L1.54,202.27 C1.22,202.08 1,201.82 0.86,201.51 C0.55,202.22 0.77,203.13 1.54,203.57 L49.74,231.4 C50.93,232.09 52.4,232.09 53.6,231.4 L101.8,203.57 C102.56,203.13 102.78,202.23 102.48,201.51 C102.35,201.81 102.12,202.08 101.8,202.27 Z" id="Path" fill="url(#linearGradient-5)" fill-rule="nonzero"></path>
                <g id="Group" transform="translate(356.000000, 137.000000)" fill-rule="nonzero" opacity="0.6">
                    <g transform="translate(49.000000, 0.000000)" id="Path">
                        <path d="M4.75,21.29 L1.02,12.04 L1,10.22 C0.98,10.17 1.01,10.11 1.07,10.07 L18.32,0.11 C18.47,0.02 18.72,0.07 18.77,0.18 L22.43,9.24 C22.55,9.55 22.97,9.79 23.5,9.86 L39.14,12.01 C39.27,12.03 39.35,12.1 39.34,12.16 C39.34,12.16 39.34,12.16 39.34,12.16 L39.36,13.98 L21.78,24.09 L5.82,21.9 C5.29,21.84 4.87,21.6 4.75,21.29" fill="url(#linearGradient-6)"></path>
                        <g fill="url(#linearGradient-7)">
                            <path d="M1.07,10.08 C1,10.12 0.98,10.17 1,10.23 L4.73,19.48 C4.85,19.79 5.27,20.03 5.8,20.1 L21.76,22.29 C21.85,22.3 21.95,22.29 22.01,22.25 L39.26,12.29 C39.41,12.2 39.3402117,12.06 39.13,12.03 L23.49,9.88 C22.96,9.81 22.55,9.57 22.42,9.26 L18.76,0.2 C18.71,0.08 18.46,0.04 18.31,0.13 L1.07,10.08 Z"></path>
                        </g>
                    </g>
                    <g transform="translate(25.000000, 13.000000)" id="Path">
                        <path d="M21.25,24.95 L5.29,22.76 C4.76,22.69 4.35,22.45 4.22,22.14 L0.49,12.89 L0.47,11.07 C0.45,11.02 0.48,10.96 0.54,10.93 L17.79,0.97 C17.94,0.88 18.19,0.93 18.24,1.04 L21.9,10.1 C22.02,10.41 22.44,10.65 22.97,10.72 L38.61,12.87 C38.74,12.89 38.82,12.96 38.81,13.02 C38.81,13.02 38.81,13.02 38.81,13.02 L38.83,14.84 L21.25,24.95 Z" fill="url(#linearGradient-8)"></path>
                        <g fill="url(#linearGradient-9)">
                            <path d="M0.55,10.93 C0.48,10.97 0.46,11.02 0.48,11.07 L4.21,20.32 C4.33,20.63 4.75,20.87 5.28,20.94 L21.24,23.13 C21.33,23.14 21.42,23.13 21.49,23.09 L38.74,13.13 C38.89,13.04 38.8202117,12.9 38.61,12.87 L22.97,10.72 C22.44,10.65 22.03,10.41 21.9,10.1 L18.24,1.04 C18.19,0.92 17.94,0.88 17.79,0.97 L0.55,10.93 Z"></path>
                        </g>
                    </g>
                    <g transform="translate(0.000000, 27.000000)" id="Path">
                        <path d="M21.73,24.8 L5.77,22.61 C5.24,22.54 4.83,22.3 4.7,21.99 L0.97,12.74 L0.95,10.92 C0.93,10.87 0.96,10.81 1.02,10.78 L18.27,0.82 C18.42,0.73 18.67,0.78 18.72,0.89 L22.38,9.95 C22.5,10.26 22.92,10.5 23.45,10.57 L39.09,12.72 C39.22,12.74 39.3,12.81 39.29,12.87 C39.29,12.87 39.29,12.87 39.29,12.87 L39.31,14.69 L21.73,24.8 Z" fill="url(#linearGradient-10)"></path>
                        <g fill="#BDC8FF">
                            <path d="M1.03,10.78 C0.96,10.82 0.94,10.87 0.96,10.93 L4.69,20.18 C4.81,20.49 5.23,20.73 5.76,20.8 L21.72,22.99 C21.81,23 21.91,22.99 21.97,22.95 L39.22,12.99 C39.37,12.9 39.3002117,12.76 39.09,12.73 L23.45,10.58 C22.92,10.51 22.51,10.27 22.38,9.96 L18.72,0.9 C18.67,0.78 18.42,0.74 18.27,0.83 L1.03,10.78 Z"></path>
                        </g>
                    </g>
                </g>
                <g id="Group" transform="translate(127.000000, 134.000000)" fill-rule="nonzero" opacity="0.6">
                    <g id="Path">
                        <path d="M34.95,21.32 L38.68,12.07 L38.7,10.25 C38.72,10.2 38.69,10.14 38.63,10.1 L21.38,0.14 C21.23,0.05 20.98,0.1 20.93,0.21 L17.27,9.27 C17.15,9.58 16.73,9.82 16.2,9.89 L0.56,12.04 C0.43,12.06 0.35,12.13 0.36,12.19 C0.36,12.19 0.36,12.19 0.36,12.19 L0.34,14.01 L17.92,24.12 L33.88,21.93 C34.41,21.87 34.82,21.63 34.95,21.32" fill="url(#linearGradient-11)"></path>
                        <g fill="url(#linearGradient-12)">
                            <path d="M38.62,10.11 C38.69,10.15 38.71,10.2 38.69,10.26 L34.96,19.51 C34.84,19.82 34.42,20.06 33.89,20.13 L17.93,22.32 C17.84,22.33 17.74,22.32 17.68,22.28 L0.43,12.32 C0.28,12.23 0.349788317,12.09 0.56,12.06 L16.2,9.91 C16.73,9.84 17.14,9.6 17.27,9.29 L20.93,0.23 C20.98,0.11 21.23,0.07 21.38,0.16 L38.62,10.11 Z"></path>
                        </g>
                    </g>
                    <g transform="translate(24.000000, 13.000000)" id="Path">
                        <path d="M18.44,24.98 L34.4,22.79 C34.93,22.72 35.34,22.48 35.47,22.17 L39.2,12.92 L39.22,11.1 C39.24,11.05 39.21,10.99 39.15,10.96 L21.89,1 C21.74,0.91 21.49,0.96 21.44,1.07 L17.78,10.13 C17.66,10.44 17.24,10.68 16.71,10.75 L1.07,12.9 C0.94,12.92 0.86,12.99 0.87,13.05 C0.87,13.05 0.87,13.05 0.87,13.05 L0.85,14.87 L18.44,24.98 Z" fill="url(#linearGradient-13)"></path>
                        <g fill="url(#linearGradient-14)">
                            <path d="M39.14,10.96 C39.21,11 39.23,11.05 39.21,11.1 L35.48,20.35 C35.36,20.66 34.94,20.9 34.41,20.97 L18.45,23.16 C18.36,23.17 18.27,23.16 18.2,23.12 L0.95,13.16 C0.8,13.07 0.869788317,12.93 1.08,12.9 L16.72,10.75 C17.25,10.68 17.66,10.44 17.79,10.13 L21.45,1.07 C21.5,0.95 21.75,0.91 21.9,1 L39.14,10.96 Z"></path>
                        </g>
                    </g>
                    <g transform="translate(49.000000, 27.000000)" id="Path">
                        <path d="M17.96,24.83 L33.92,22.64 C34.45,22.57 34.86,22.33 34.99,22.02 L38.72,12.77 L38.74,10.95 C38.76,10.9 38.73,10.84 38.67,10.81 L21.42,0.85 C21.27,0.76 21.02,0.81 20.97,0.92 L17.31,9.98 C17.19,10.29 16.77,10.53 16.24,10.6 L0.6,12.75 C0.47,12.77 0.39,12.84 0.4,12.9 C0.4,12.9 0.4,12.9 0.4,12.9 L0.38,14.72 L17.96,24.83 Z" fill="url(#linearGradient-15)"></path>
                        <g fill="#BDC8FF">
                            <path d="M38.66,10.8 C38.73,10.84 38.75,10.89 38.73,10.95 L35,20.2 C34.88,20.51 34.46,20.75 33.93,20.82 L17.97,23.01 C17.88,23.02 17.78,23.01 17.72,22.97 L0.47,13.01 C0.32,12.92 0.389788317,12.78 0.6,12.75 L16.24,10.6 C16.77,10.53 17.18,10.29 17.31,9.98 L20.97,0.92 C21.02,0.8 21.27,0.76 21.42,0.85 L38.66,10.8 Z"></path>
                        </g>
                    </g>
                </g>
                <g id="Group" transform="translate(39.000000, 76.000000)" fill-rule="nonzero">
                    <g id="Path">
                        <path d="M7.13,30.94 L58.91,1.05 C63.1,-1.37 67.83,1.6 67.83,6.43 L67.83,42.73 L67.83,58.34 L54.32,50.54 L9.64,76.37 C5.45,78.77 0.239971584,75.75 0.239971584,70.92 L0.239971584,42.89 C0.23,37.96 2.86,33.4 7.13,30.94 Z" fill="#FFB561"></path>
                        <path d="M0.23,42.94 C0.23,38.01 2.86,33.45 7.13,30.98 L58.83,1.09 C61.27,-0.32 63.78,-0.18 65.9,1.75 C64.54,1.51 63.21,1.65 61.85,2.43 L10.07,32.33 C5.8,34.8 3.17,39.35 3.17,44.29 L3.17,72.31 C3.17,74.33 4.09,76.04 5.46,77.16 C2.62,76.67 0.23,74.23 0.23,70.96 L0.23,42.94 Z" fill="url(#linearGradient-16)"></path>
                    </g>
                    <path d="M9.98,45.77 L54.09,20.3 C54.56,20.03 55.16,20.37 55.16,20.92 L55.16,21.07 C55.16,21.95 54.69,22.76 53.93,23.2 L9.81,48.51 C9.34,48.78 8.75,48.44 8.75,47.89 L8.75,47.89 C8.75,47.02 9.21,46.21 9.98,45.77 Z" id="Path" fill="#FFD880"></path>
                    <path d="M9.98,52 L54.09,26.53 C54.56,26.26 55.16,26.6 55.16,27.15 L55.16,27.3 C55.16,28.18 54.69,28.99 53.93,29.43 L9.81,54.75 C9.34,55.02 8.75,54.68 8.75,54.13 L8.75,54.13 C8.75,53.25 9.21,52.44 9.98,52 Z" id="Path" fill="#FFD880"></path>
                    <path d="M9.98,58.24 L54.09,32.77 C54.56,32.5 55.16,32.84 55.16,33.39 L55.16,33.54 C55.16,34.42 54.69,35.23 53.93,35.67 L9.82,60.98 C9.35,61.25 8.75984023,60.91 8.75984023,60.36 L8.75984023,60.36 C8.75,59.49 9.21,58.68 9.98,58.24 Z" id="Path" fill="#FFD880"></path>
                </g>
                <g id="Group" transform="translate(252.000000, 0.000000)" fill-rule="nonzero">
                    <path d="M59.1288999,25.7038452 C35.9323395,12.4422831 17.0704898,23.0933015 17,49.488799 C16.9299046,75.8842966 35.6628845,108.034593 58.8594449,121.296155 C82.0560054,134.557717 100.917855,123.906699 101,97.511201 C101.05844,71.1157034 82.3137449,38.9654073 59.1288999,25.7038452" id="Path" fill="url(#linearGradient-17)"></path>
                    <path d="M59.8281231,84.6041675 C54.3043548,81.4282724 49.9066766,73.8955537 50.0015052,67.7616047 C50.0963339,61.6276557 54.6481086,59.2314027 60.1718769,62.3958325 C65.6956452,65.5602622 70.0933234,73.1044463 69.9984948,79.2383953 C69.9036661,85.3723443 65.3518914,87.7685973 59.8281231,84.6041675 Z" id="Path" fill="url(#linearGradient-18)"></path>
                    <path d="M83.8754579,58.1622985 C83.5882221,57.9834088 83.3009863,57.9476309 83.0711977,58.0788166 L61,71.1377648 C61.6778765,71.9725834 62.2293692,72.9743657 62.597031,74 L84.6682287,60.9410518 C85.1048271,60.6786803 85.1163165,59.8200097 84.6682287,59.032895 C84.4499295,58.6393377 84.1626937,58.3411882 83.8754579,58.1622985" id="Path" fill="url(#linearGradient-19)"></path>
                    <path d="M62.5706449,72.939761 C62.2127407,71.9552061 61.6470211,70.9935478 60.9658486,70.1921659 C60.4232196,69.5510603 59.7997735,69.0129896 59.1416916,68.6351953 C58.772242,68.4291256 58.4143378,68.2802976 58.0795242,68.2001594 L47.2384898,49.653892 C46.8690403,49.0242348 46.3841378,48.5319573 45.8992353,48.2571978 C45.4143328,47.9824383 44.9294303,47.9137484 44.5599808,48.119818 C43.8210817,48.5434056 43.8095364,49.9057549 44.5484355,51.1650693 L55.3894699,69.7113367 C55.2971075,70.0433378 55.239381,70.4211321 55.239381,70.8332714 C55.2278357,73.2717621 56.9596303,76.2483236 59.1070557,77.4732931 C61.254481,78.6982626 62.997821,77.7137077 62.997821,75.2752169 C63.0209115,74.5310766 62.8592774,73.7296947 62.5706449,72.939761 Z" id="Path" fill="url(#linearGradient-20)"></path>
                    <path d="M57,72.7934754 C57,73.8812156 57.6842105,75.2145745 58.5473684,75.7642927 C58.9894737,76.0449998 59.3894737,76.0683921 59.6736842,75.8695579 C59.6631579,75.8695579 59.6631579,75.881254 59.6526316,75.881254 L60.5473684,75.3081436 C60.8210526,75.1327016 61,74.7467293 61,74.2087073 C61,73.1209671 60.3157895,71.7876082 59.4526316,71.23789 C59.0210526,70.9571829 58.6315789,70.9337906 58.3473684,71.1209287 L57.4526316,71.6940391 C57.4526316,71.6940391 57.4526316,71.6940391 57.4526316,71.6940391 C57.1684211,71.8694811 57,72.2554534 57,72.7934754 Z" id="Path" fill="#C6C5CB"></path>
                    <path d="M58.5050847,72.2133102 C57.6813559,71.7164202 57,72.1181611 57,73.1013691 C57,74.084577 57.6610169,75.2897997 58.4949153,75.7866898 C59.3186441,76.2835798 60,75.8818389 60,74.8986309 C60,73.915423 59.3389831,72.7102003 58.5050847,72.2133102 Z" id="Path" fill="#ACABB1"></path>
                    <path d="M77.4819563,6.79637371 C63.6674721,-1.14923972 51.1597636,-1.89377743 42.1290113,3.34125338 L15.50346,18.8951116 C15.5267953,18.8834782 15.5617982,18.8602114 15.5851335,18.848578 C6.61271938,23.9905416 1.04725577,35.0073731 1.00029169,50.6775653 C0.907244108,82.1226504 23.0874251,120.419809 50.5297111,136.206335 C64.5075421,144.256649 77.16693,144.90812 86.2210176,139.452054 C86.1043412,139.521855 85.9993324,139.591655 85.882656,139.661456 L112.508207,124.107597 C121.422283,118.942367 126.964412,107.948802 126.999708,92.3251437 C127.092756,60.8916921 104.924242,22.5945334 77.4819563,6.79637371 Z M83.5374607,124.375166 C76.9919154,125.922408 68.999583,124.444966 60.3771981,119.489137 C38.2553553,106.750562 20.3805329,75.887147 20.4619276,50.5495979 C20.4855417,40.8357074 23.1574309,33.3437966 27.6728071,28.5159349 C34.2183523,26.9686924 42.2106848,28.4461345 50.8330697,33.413597 C72.9549125,46.152172 90.8297348,77.015587 90.7599339,102.353136 C90.7130584,112.055393 88.0528368,119.547304 83.5374607,124.375166 Z" id="Shape" fill="#CD2A01"></path>
                    <g>
                        <g transform="translate(10.486239, 0.000000)" id="Path">
                            <path d="M11.7678899,30.6345528 L21.5783486,24.9494309 C14.4011009,29.1115447 9.95027523,37.9705691 9.9153211,50.5499187 C9.84541284,75.8830081 27.6953211,106.726829 49.7746789,119.457317 L39.9642202,125.142439 C17.873211,112.411951 0.0233027523,81.5681301 0.104583999,56.2350407 C0.139816514,43.6556911 4.5906422,34.7966667 11.7678899,30.6345528 Z" fill="#DAB3D8"></path>
                            <path d="M78.2389908,122.235935 L68.4285321,127.921057 C61.1580734,132.141301 51.079633,131.548374 39.9758716,125.142439 L49.7863303,119.457317 C60.8900917,125.851626 70.9685321,126.444553 78.2389908,122.235935 Z" fill="#DAB3D8"></path>
                            <path d="M4.95183486,18.9387805 L31.5402752,3.39479675 C40.5584404,-1.83691057 53.060367,-1.10447154 66.843945,6.84772358 L40.2555046,22.3917073 C26.4719266,14.4395122 13.9816514,13.7070732 4.95183486,18.9387805 Z" fill="#92A1F6"></path>
                            <path d="M101.833028,124.072846 L75.2445872,139.616829 C84.1462385,134.454878 89.6806422,123.468293 89.7155963,107.854553 C89.8088073,76.4294309 67.6595413,38.1682114 40.2555046,22.3800813 L66.843945,6.83609756 C94.2479817,22.6242276 116.385596,60.8970732 116.304261,92.3105691 C116.269083,107.924309 110.74633,118.910894 101.833028,124.072846 Z" fill="#92A1F6"></path>
                        </g>
                        <path d="M50.7533945,22.3800813 C78.1574312,38.1682114 100.295046,76.4410569 100.213711,107.854553 C100.120275,139.279675 77.8311927,151.952033 50.4388073,136.163902 C23.0347706,120.375772 0.885504587,82.1029268 0.978422477,50.6894309 C1.06027523,19.275935 23.3493578,6.59195122 50.7533945,22.3800813 Z M50.4621101,125.142439 C72.5531193,137.872927 90.5195413,127.653659 90.5896542,102.320569 C90.6593578,76.9991057 72.8094495,46.1436585 50.7184404,33.4247967 C28.6274312,20.6943089 10.6610092,30.9135772 10.5908963,56.2466667 C10.5211927,81.5681301 28.3711009,112.411951 50.4621101,125.142439" id="Shape" fill="url(#linearGradient-21)"></path>
                    </g>
                </g>
                <path d="M146.53,52.09 C146.53,50.15 145.14,49.35 143.45,50.33 C141.76,51.3 140.37,53.69 140.37,55.64 C140.37,57.59 141.76,58.38 143.45,57.4 C145.15,56.43 146.53,54.04 146.53,52.09 Z" id="Path" fill="#4DBBFF" fill-rule="nonzero"></path>
                <g id="Group" opacity="0.5" transform="translate(128.000000, 57.000000)" fill="#4DBBFF" fill-rule="nonzero">
                    <path d="M6.38,2.26 C6.38,0.32 4.99,-0.48 3.3,0.5 C1.61,1.48 0.22,3.86 0.22,5.81 C0.22,7.76 1.61,8.55 3.3,7.57 C4.99,6.59 6.38,4.2 6.38,2.26 Z" id="Path"></path>
                </g>
                <g id="Group" opacity="0.5" transform="translate(116.000000, 64.000000)" stroke="#86C3F2" stroke-width="0.4257">
                    <path d="M6.22,2.42 C6.22,0.48 4.83,-0.32 3.14,0.66 C1.45,1.63 0.06,4.02 0.06,5.97 C0.06,7.92 1.45,8.71 3.14,7.73 C4.84,6.76 6.22,4.37 6.22,2.42 Z" id="Path"></path>
                </g>
                <g id="Group" transform="translate(243.000000, 296.000000)" fill-rule="nonzero">
                    <path d="M12.1869998,30.1629995 L12.2149998,39.4729993 C23.4779996,46.0179992 41.7969993,46.0179992 53.1369991,39.4729993 C58.841999,36.1759994 61.6909989,31.8569995 61.6770503,27.5379995 L61.648999,18.2279997 C61.648999,18.2349997 61.648999,18.2489997 61.648999,18.2559997 C61.648999,13.9859998 58.848999,9.71599983 53.2419991,6.46099989 C41.9789993,-0.0839999986 23.6599996,-0.0839999986 12.3199998,6.46099989 L12.3479998,15.7709997 L24.6959996,22.9459996 L12.1869998,30.1629995 C12.2779998,30.2189995 12.3689998,30.2679995 12.4669998,30.3239995 C12.3759998,30.2679995 12.2779998,30.2119995 12.1869998,30.1629995 Z" id="Path" fill="#FF9C43" opacity="0.7"></path>
                    <polygon id="Path" fill="#FF8827" points="32.7109994 18.3119997 12.3199998 6.45399989 12.3479998 15.7639997 24.6959996 22.9389996"></polygon>
                    <path d="M0.0489999992,12.5019998 L0.0769999987,27.3349995 C0.0909999985,31.5839995 2.88399995,35.8259994 8.46299986,39.0669993 L28.9309995,27.2509995 L28.9029995,12.4179998 L8.56799985,0.60199999 C2.76499995,3.95499993 -0.0769999987,8.37899986 0.055999999,12.7679998 C0.055999999,12.6839998 0.0489999992,12.5929998 0.0489999992,12.5019998 Z" id="Path" fill="#598DC6" opacity="0.9"></path>
                    <path d="M8.43499986,24.2339996 L8.46299986,39.0669993 C2.88399995,35.8259994 0.0909999985,31.5839995 0.0769999987,27.3349995 L0.0489999992,12.5019998 C0.0629999989,16.7509997 2.85599995,20.9929996 8.43499986,24.2339996 Z" id="Path" fill="#86C3F2"></path>
                    <polygon id="Path" fill="#4089C6" opacity="0.7" points="28.9029995 12.4179998 28.9239995 27.2509995 8.46299986 39.0739993 8.43499986 24.2339996"></polygon>
                    <path d="M53.1369991,39.4659993 C41.7969993,46.0109992 23.4779996,46.0109992 12.2149998,39.4659993 L12.1869998,30.1559995 C23.4499996,36.7009994 41.7689993,36.7009994 53.1089991,30.1559995 C58.813999,26.8589995 61.6629989,22.5399996 61.648999,18.2209997 L61.6770503,27.5309995 C61.6909989,31.8499995 58.841999,36.1759994 53.1369991,39.4659993 Z" id="Path" fill="#FF8827"></path>
                    <path d="M53.2419991,6.45399989 C64.5049989,12.9989998 64.4419989,23.6109996 53.1089991,30.1559995 C41.7689993,36.7009994 23.4499996,36.7009994 12.1869998,30.1559995 L32.7109994,18.3049997 L53.2419991,6.45399989 Z" id="Path" fill="#FF9C43" opacity="0.7"></path>
                </g>
                <polygon id="Path" fill="#BDC8FF" fill-rule="nonzero" points="191.66 286.02 191.66 225.85 177.05 217.41 162.45 225.83 162.45 286.02 177.05 294.45"></polygon>
                <polygon id="Path" fill="#F2CCF2" fill-rule="nonzero" points="162.45 225.83 177.07 234.27 191.66 225.85 177.05 217.41"></polygon>
                <polygon id="Path" fill="url(#linearGradient-22)" fill-rule="nonzero" points="177.07 234.27 177.05 294.45 162.45 286.02 162.45 225.83"></polygon>
                <polygon id="Path" fill="url(#linearGradient-23)" fill-rule="nonzero" points="168.2 299.57 168.2 270.36 153.59 261.92 138.99 270.34 138.99 299.57 153.59 308.01"></polygon>
                <polygon id="Path" fill="#FF9C43" fill-rule="nonzero" opacity="0.7" points="138.99 270.34 153.61 278.78 168.2 270.36 153.59 261.92"></polygon>
                <polygon id="Path" fill="url(#linearGradient-24)" fill-rule="nonzero" points="153.61 278.78 153.59 308.01 138.99 299.57 138.99 270.34"></polygon>
                <polygon id="Path" fill="url(#linearGradient-25)" fill-rule="nonzero" points="144.74 313.13 144.74 262.94 130.13 254.51 115.53 262.93 115.53 313.13 130.13 321.56"></polygon>
                <polygon id="Path" fill="#BDC8FF" fill-rule="nonzero" points="115.53 262.93 130.15 271.36 144.74 262.94 130.13 254.51"></polygon>
                <polygon id="Path" fill="url(#linearGradient-26)" fill-rule="nonzero" points="130.15 271.36 130.13 321.56 115.53 313.13 115.53 262.93"></polygon>
                <g id="Group" transform="translate(33.000000, 158.000000)" fill-rule="nonzero">
                    <g transform="translate(0.000000, 1.000000)" id="Path">
                        <path d="M2.1,52.7 L32.15,35.23 C32.1,35.29 32.05,35.34 31.99,35.37 L1.94,52.84 C2,52.8 2.05,52.75 2.1,52.7 Z" fill="#FECE00"></path>
                        <polygon fill="#AED7FF" points="0.16 20.35 30.22 2.88 32.4 4.14 2.34 21.61"></polygon>
                        <polygon fill="#909FF4" points="2.27 47.66 32.32 30.19 32.4 4.14 30.27 5.38 30.29 0.64 22.2 5.34 22.18 10.08 2.34 21.61"></polygon>
                        <polygon fill="#AED7FF" points="13.6 32.8 43.66 15.34 45.52 17.71 15.46 35.18"></polygon>
                        <polygon fill="#8CD9F4" points="15.46 35.18 45.52 17.71 32.15 35.23 2.1 52.7"></polygon>
                        <path d="M2.34,21.61 L2.27,47.66 L13.6,32.8 L15.46,35.17 L2.1,52.7 C1.9,52.96 1.54,52.98 1.17,52.76 C1.07,52.7 0.97,52.63 0.88,52.54 C0.41,52.12 0.09,51.44 0.09,50.88 L0.18,20.35 L2.34,21.61 Z" fill="#86C3F2"></path>
                    </g>
                    <g transform="translate(20.000000, 0.000000)" id="Path">
                        <polygon fill="#AED7FF" points="0.02 5.09 8.11 0.38 10.29 1.64 2.2 6.34"></polygon>
                        <polygon fill="#8CD9F4" points="2.2 6.34 2.18 11.08 0 9.83 0.02 5.09"></polygon>
                    </g>
                </g>
            </g>
        </g>
    </g>
</svg>