<svg width="562" height="655" viewBox="0 0 562 655" fill="none" xmlns="http://www.w3.org/2000/svg">
<g id="&#208;&#152;&#208;&#187;&#208;&#187;&#209;&#142;&#209;&#129;&#209;&#130;&#209;&#128;&#208;&#176;&#209;&#134;&#208;&#184;&#209;&#143; &#208;&#187;&#208;&#184;&#208;&#183; &#209;&#129;&#209;&#130;&#209;&#128;&#208;&#176;&#208;&#189;&#208;&#184;&#209;&#134;&#209;&#139;">
<path id="Path" opacity="0.5" d="M58.068 559.288L0.544556 592.502L13.5339 600.004L71.6926 567.159L58.068 559.288Z" fill="url(#paint0_linear)"/>
<path id="Path_2" fill-rule="evenodd" clip-rule="evenodd" d="M286.213 260.273L528.026 399.883V140.604L286.213 1.00604V260.273Z" stroke="#D2F1F9" stroke-width="0.605"/>
<path id="Path_3" d="M276.485 265.7L518.297 405.309V146.031L276.485 6.43291V265.7Z" fill="#C0E6FF"/>
<g id="Group">
<g id="Group_2" opacity="0.8">
<path id="Path_4" d="M51.9574 455.161L86.4968 435.221L86.1762 315.37L51.9574 335.505V455.161Z" fill="url(#paint1_linear)"/>
<path id="Path_5" d="M17.775 435.221L51.9575 455.161V335.505L17.66 315.703L17.775 435.221Z" fill="url(#paint2_linear)"/>
<path id="Path_6" d="M51.9575 295.617L86.1763 315.37L51.9575 335.505L17.66 315.703L51.9575 295.617Z" fill="#DCEFFF"/>
</g>
<g id="Group_3" opacity="0.5">
<path id="Path_7" d="M120.915 415.316L155.461 395.375L155.14 235.601L120.915 255.729V415.316Z" fill="url(#paint3_linear)"/>
<path id="Path_8" d="M86.7389 395.375L120.915 415.316V255.729L86.6239 235.928L86.7389 395.375Z" fill="url(#paint4_linear)"/>
<path id="Path_9" d="M120.915 215.842L155.14 235.601L120.915 255.729L86.6239 235.928L120.915 215.842Z" fill="#E1F8FF"/>
</g>
<g id="Group_4" opacity="0.2">
<path id="Path_10" d="M190.006 373.553L224.546 353.612L224.225 175.688L190.006 195.816V373.553Z" fill="url(#paint5_linear)"/>
<path id="Path_11" d="M155.824 353.612L190.006 373.553V195.816L155.709 176.014L155.824 353.612Z" fill="url(#paint6_linear)"/>
<path id="Path_12" d="M190.006 155.928L224.225 175.688L190.006 195.816L155.709 176.014L190.006 155.928Z" fill="#DCEFFF"/>
</g>
</g>
<path id="Path_13" opacity="0.4" d="M283.612 651.938L30.2137 505.637C24.5267 502.351 24.5267 494.142 30.2137 490.856L283.612 344.555C289.892 340.931 297.624 340.931 303.898 344.555L557.296 490.856C562.983 494.142 562.983 502.351 557.296 505.637L303.898 651.938C297.624 655.562 289.892 655.562 283.612 651.938Z" fill="url(#paint7_linear)"/>
<path id="Path_14" fill-rule="evenodd" clip-rule="evenodd" d="M283.612 635.004L30.2137 488.703C24.5267 485.417 24.5267 477.208 30.2137 473.922L283.612 327.621C289.892 323.997 297.624 323.997 303.898 327.621L557.296 473.922C562.983 477.208 562.983 485.417 557.296 488.703L303.898 635.004C297.624 638.628 289.892 638.628 283.612 635.004Z" stroke="#8DB0FF" stroke-width="0.605"/>
<path id="Path_15" opacity="0.5" d="M518.297 146.031L276.485 265.7L518.297 405.309V146.031Z" fill="#E9FEFF"/>
<path id="Path_16" d="M284.017 628.167L30.613 481.866C24.926 478.581 24.926 470.371 30.613 467.086L284.011 320.785C290.291 317.161 298.023 317.161 304.297 320.785L557.695 467.086C563.382 470.371 563.382 478.581 557.695 481.866L304.297 628.167C298.029 631.791 290.291 631.791 284.017 628.167Z" fill="url(#paint8_linear)"/>
<path id="Path_17" d="M557.701 475.29L304.303 621.591C298.023 625.215 290.291 625.215 284.017 621.591L30.613 475.29C28.9251 474.316 27.7514 472.9 27.0617 471.315C25.4342 475.072 26.6079 479.809 30.613 482.12L284.011 628.421C290.291 632.045 298.023 632.045 304.297 628.421L557.695 482.12C561.694 479.809 562.868 475.072 561.246 471.315C560.569 472.9 559.389 474.316 557.701 475.29Z" fill="url(#paint9_linear)"/>
<path id="Path_18" d="M447.307 620.278L398.453 592.073C397.358 591.438 397.358 589.859 398.453 589.223L447.307 561.018C448.517 560.323 450.005 560.323 451.221 561.018L500.075 589.223C501.17 589.859 501.17 591.438 500.075 592.073L451.221 620.278C450.011 620.974 448.517 620.974 447.307 620.278Z" fill="url(#paint10_linear)"/>
<path id="Path_19" d="M67.4514 633.497L18.5977 605.292C17.5026 604.657 17.5026 603.078 18.5977 602.443L67.4514 574.238C68.6614 573.542 70.1497 573.542 71.3658 574.238L120.22 602.443C121.315 603.078 121.315 604.657 120.22 605.292L71.3658 633.497C70.1558 634.199 68.6614 634.199 67.4514 633.497Z" fill="url(#paint11_linear)"/>
<path id="Path_20" fill-rule="evenodd" clip-rule="evenodd" d="M397.63 594.281L449.261 624.09L500.771 594.281L448.995 564.055L397.63 594.281Z" stroke="#B3DAFF" stroke-width="0.605" stroke-dasharray="6.05"/>
<path id="Path_21" fill-rule="evenodd" clip-rule="evenodd" d="M17.6599 607.912L69.2906 637.72L120.794 607.912L69.0184 577.68L17.6599 607.912Z" stroke="#B3DAFF" stroke-width="0.605" stroke-dasharray="6.05"/>
<path id="Path_22" d="M67.4514 613.006L18.5977 584.801C17.5026 584.166 17.5026 582.587 18.5977 581.951L67.4514 553.746C68.6614 553.05 70.1497 553.05 71.3658 553.746L120.22 581.951C121.315 582.587 121.315 584.166 120.22 584.801L71.3658 613.006C70.1558 613.702 68.6614 613.702 67.4514 613.006Z" fill="#F0F0FF"/>
<path id="Path_23" d="M120.22 583.53L71.3658 611.735C70.1558 612.431 68.6675 612.431 67.4515 611.735L18.5977 583.53C18.271 583.343 18.0472 583.071 17.9141 582.762C17.5995 583.488 17.8294 584.402 18.5977 584.843L67.4515 613.048C68.6615 613.744 70.1498 613.744 71.3658 613.048L120.22 584.843C120.988 584.395 121.218 583.482 120.903 582.762C120.77 583.071 120.546 583.343 120.22 583.53Z" fill="url(#paint12_linear)"/>
<path id="Path_24" d="M447.307 582.726L398.453 554.521C397.358 553.885 397.358 552.306 398.453 551.671L447.307 523.466C448.517 522.77 450.005 522.77 451.221 523.466L500.075 551.671C501.17 552.306 501.17 553.885 500.075 554.521L451.221 582.726C450.011 583.427 448.517 583.427 447.307 582.726Z" fill="#F0F0FF"/>
<path id="Path_25" d="M500.075 553.25L451.221 581.455C450.011 582.151 448.517 582.151 447.307 581.455L398.453 553.25C398.126 553.062 397.903 552.79 397.769 552.482C397.455 553.208 397.685 554.121 398.453 554.563L447.307 582.768C448.517 583.464 450.005 583.464 451.221 582.768L500.075 554.563C500.843 554.115 501.073 553.202 500.759 552.482C500.625 552.79 500.402 553.062 500.075 553.25Z" fill="url(#paint13_linear)"/>
<g id="Group_5">
<g id="Group_6">
<path id="Path_26" d="M36.3242 240.314L68.5283 221.722C71.1359 220.216 74.0762 222.061 74.0762 225.068V247.646V257.357L65.6727 252.505L37.879 268.567C35.2715 270.062 32.0287 268.18 32.0287 265.179V247.749C32.0287 244.682 33.6682 241.851 36.3242 240.314Z" fill="#FFB561"/>
<path id="Path_27" d="M32.0287 247.78C32.0287 244.712 33.6682 241.875 36.3242 240.344L68.4799 221.752C69.9924 220.875 71.5594 220.966 72.8783 222.164C72.0313 222.019 71.2024 222.103 70.3554 222.587L38.1513 241.179C35.4953 242.716 33.8558 245.547 33.8558 248.614V266.044C33.8558 267.303 34.4245 268.362 35.2836 269.063C33.517 268.755 32.0287 267.242 32.0287 265.21V247.78H32.0287Z" fill="url(#paint14_linear)"/>
</g>
<path id="Path_28" d="M38.0908 249.54L65.5276 233.701C65.824 233.532 66.1931 233.744 66.1931 234.082V234.179C66.1931 234.724 65.9027 235.232 65.4247 235.504L37.994 251.246C37.6976 251.416 37.3346 251.204 37.3346 250.865C37.3285 250.314 37.6189 249.812 38.0908 249.54Z" fill="#FFD880"/>
<path id="Path_29" d="M38.0908 253.418L65.5276 237.579C65.824 237.41 66.1931 237.622 66.1931 237.96V238.057C66.1931 238.602 65.9027 239.11 65.4247 239.382L37.994 255.124C37.6976 255.294 37.3346 255.082 37.3346 254.743C37.3285 254.193 37.6189 253.69 38.0908 253.418Z" fill="#FFD880"/>
<path id="Path_30" d="M38.0908 257.296L65.5276 241.457C65.824 241.288 66.1931 241.5 66.1931 241.838V241.935C66.1931 242.48 65.9027 242.988 65.4247 243.26L37.994 259.002C37.6976 259.172 37.3346 258.96 37.3346 258.621C37.3285 258.071 37.6189 257.568 38.0908 257.296Z" fill="#FFD880"/>
</g>
<g id="Group_7">
<g id="Group_8">
<path id="Path_31" d="M44.903 118.666L114.526 78.4703C120.159 75.2214 126.524 79.2023 126.524 85.7061V134.524V155.517L108.355 145.026L48.2668 179.759C42.6343 182.984 35.6223 178.918 35.6223 172.433V134.747C35.6223 128.111 39.1616 121.982 44.903 118.666Z" fill="url(#paint15_linear)"/>
<path id="Path_32" d="M35.6223 134.802C35.6223 128.171 39.1616 122.042 44.903 118.727L114.424 78.5247C117.697 76.6371 121.085 76.8247 123.934 79.4141C122.101 79.0934 120.31 79.281 118.483 80.3337L48.8597 120.53C43.1183 123.845 39.579 129.974 39.579 136.605V174.29C39.579 177.013 40.8132 179.3 42.6585 180.812C38.8349 180.147 35.6223 176.874 35.6223 172.481L35.6223 134.802Z" fill="url(#paint16_linear)"/>
</g>
<path id="Path_33" d="M114.121 95.1864L51.3947 131.341C50.4933 131.862 49.9427 132.817 49.9427 133.858C49.9427 134.602 50.7474 135.068 51.3947 134.699L114.121 98.5502C115.023 98.0299 115.573 97.074 115.573 96.0334V96.0274C115.573 95.2772 114.769 94.8113 114.121 95.1864Z" fill="#FFF0B3"/>
<path id="Path_34" d="M114.121 104.171L51.3947 140.332C50.4933 140.852 49.9427 141.808 49.9427 142.848C49.9427 143.592 50.7474 144.058 51.3947 143.689L114.121 107.541C115.023 107.02 115.573 106.064 115.573 105.024V105.018C115.573 104.267 114.769 103.802 114.121 104.171Z" fill="#FFF0B3"/>
<path id="Path_35" d="M114.121 113.161L51.3947 149.316C50.4933 149.836 49.9427 150.792 49.9427 151.833C49.9427 152.577 50.7474 153.043 51.3947 152.674L114.121 116.525C115.023 116.004 115.573 115.049 115.573 114.008V114.002C115.573 113.252 114.769 112.786 114.121 113.161Z" fill="#FFF0B3"/>
<path id="Path_36" d="M114.121 122.145L51.3947 158.3C50.4933 158.82 49.9427 159.776 49.9427 160.817C49.9427 161.561 50.7474 162.027 51.3947 161.658L114.121 125.509C115.023 124.989 115.573 124.033 115.573 122.992V122.986C115.573 122.236 114.769 121.77 114.121 122.145Z" fill="#FFF0B3"/>
</g>
<g id="Group_9">
<g id="Group_10">
<path id="Path_37" d="M255.086 56.775L185.463 16.5788C179.83 13.3299 173.466 17.3108 173.466 23.8146V72.632V93.6255L191.634 83.1348L251.722 117.868C257.355 121.093 264.367 117.027 264.367 110.541V72.8559C264.367 66.2251 260.834 60.0964 255.086 56.775Z" fill="url(#paint17_linear)"/>
<path id="Path_38" d="M264.367 72.9164C264.367 66.2856 260.828 60.1569 255.086 56.8415L185.566 16.6393C182.293 14.7517 178.905 14.9392 176.055 17.5286C177.888 17.208 179.679 17.3955 181.506 18.4482L251.13 58.6444C256.871 61.9598 260.41 68.0885 260.41 74.7193V112.405C260.41 115.127 259.176 117.414 257.331 118.927C261.154 118.261 264.367 114.988 264.367 110.596V72.9164Z" fill="url(#paint18_linear)"/>
</g>
<path id="Path_39" d="M185.868 33.301L248.595 69.4558C249.496 69.9761 250.047 70.932 250.047 71.9726C250.047 72.7167 249.242 73.1826 248.595 72.8135L185.874 36.6648C184.973 36.1445 184.422 35.1886 184.422 34.148V34.1419C184.416 33.3917 185.221 32.9259 185.868 33.301Z" fill="#FFF0B3"/>
<path id="Path_40" d="M185.868 42.2852L248.595 78.44C249.496 78.9603 250.047 79.9162 250.047 80.9568C250.047 81.701 249.242 82.1668 248.595 81.7978L185.874 45.649C184.973 45.1287 184.422 44.1728 184.422 43.1322V43.1262C184.416 42.376 185.221 41.9101 185.868 42.2852Z" fill="#FFF0B3"/>
<path id="Path_41" d="M185.868 51.2695L248.595 87.4243C249.496 87.9446 250.047 88.9005 250.047 89.9411C250.047 90.6852 249.242 91.1511 248.595 90.782L185.868 54.6333C184.967 54.113 184.416 53.1571 184.416 52.1165V52.1104C184.416 51.3663 185.221 50.9004 185.868 51.2695Z" fill="#FFF0B3"/>
<path id="Path_42" d="M185.868 60.2598L248.595 96.4146C249.496 96.9349 250.047 97.8908 250.047 98.9314C250.047 99.6755 249.242 100.141 248.595 99.7723L185.868 63.6236C184.967 63.1033 184.416 62.1474 184.416 61.1068V61.1007C184.416 60.3505 185.221 59.8847 185.868 60.2598Z" fill="#FFF0B3"/>
</g>
<path id="Path_43" d="M421.836 550.697L439.224 540.654L456.618 550.697L439.224 560.601L421.836 550.697Z" fill="url(#paint19_linear)"/>
<path id="Path_44" d="M421.836 550.697L439.224 560.601L456.618 550.697V551.072L439.224 560.94L421.836 550.969V550.697Z" fill="#95B0E5"/>
<path id="Path_45" d="M443.761 554.605L461.155 544.568L478.549 554.605L461.155 564.509L443.761 554.605Z" fill="url(#paint20_linear)"/>
<path id="Path_46" d="M443.761 554.605L461.155 564.509L478.549 554.605V554.98L461.155 564.854L443.761 554.884V554.605Z" fill="#95B0E5"/>
<path id="Path_47" d="M69.2241 465.132L293.758 594.765" stroke="#B3DAFF" stroke-width="0.605" stroke-dasharray="6.05"/>
<path id="Path_48" d="M501.013 475.108L293.758 594.765" stroke="#B8DDFF" stroke-width="0.605" stroke-dasharray="6.05"/>
<path id="Path_49" d="M69.2241 465.132V398.134" stroke="#B3DAFF" stroke-width="0.605" stroke-dasharray="6.05"/>
<path id="Path_50" d="M501.013 475.108V419.969" stroke="#B3DAFF" stroke-width="0.605" stroke-dasharray="6.05"/>
<g id="Group_11">
<path id="Path_51" d="M311.031 86.2082L552.831 225.812V445.191L311.031 305.587V86.2082Z" fill="url(#paint21_linear)"/>
<path id="Path_52" d="M552.831 445.191L554.688 444.12V224.65L552.831 225.812V445.191Z" fill="url(#paint22_linear)"/>
<path id="Path_53" d="M311.031 86.2082L552.831 225.812L554.688 224.65L312.676 85.2584L311.031 86.2082Z" fill="url(#paint23_linear)"/>
<path id="Path_54" d="M311.031 86.2082V305.587" stroke="url(#paint24_linear)" stroke-width="0.605" stroke-linecap="round"/>
</g>
<g id="Group_12">
<path id="Path_55" opacity="0.5" d="M78.4382 572.132C83.5928 575.109 91.9297 575.109 97.054 572.132C102.178 569.155 102.148 564.328 96.9935 561.351C91.8389 558.374 83.502 558.374 78.3837 561.351C73.2533 564.328 73.2775 569.155 78.4382 572.132Z" fill="#FAFAFF"/>
<path id="Shape" fill-rule="evenodd" clip-rule="evenodd" d="M103.413 571.34C103.407 573.639 101.894 575.944 98.8691 577.698C92.7828 581.231 82.8789 581.231 76.7563 577.698C73.6708 575.919 72.1341 573.584 72.1402 571.249L72.1825 564.358V564.382C72.1825 562.071 73.695 559.76 76.7261 557.999C82.8124 554.46 92.7102 554.46 98.8388 557.999C101.961 559.796 103.503 562.174 103.455 564.533V564.449L103.413 571.34ZM78.9343 569.567C83.8711 572.416 91.8511 572.416 96.7576 569.567C98.6392 568.472 99.7947 567.117 100.224 565.707C99.7947 564.273 98.615 562.894 96.6911 561.781C91.7543 558.931 83.7743 558.931 78.8678 561.781C76.9862 562.876 75.8307 564.225 75.4011 565.64C75.8307 567.074 77.0104 568.454 78.9343 569.567Z" fill="#5AAAE7"/>
<g id="Group_13">
<g id="Group_14">
<path id="Path_56" d="M96.7032 559.24C91.7664 556.39 83.7865 556.39 78.8799 559.24C76.4418 560.655 75.2257 562.507 75.2197 564.364L75.2136 566.899C75.2197 565.041 76.4418 563.19 78.8739 561.774C83.7804 558.925 91.7604 558.925 96.6972 561.774C99.1837 563.208 100.424 565.09 100.418 566.971L100.424 564.436C100.43 562.561 99.1898 560.673 96.7032 559.24Z" fill="#909FF4"/>
<path id="Path_57" d="M98.9114 570.807C92.8251 574.346 82.9273 574.346 76.7987 570.807C73.7132 569.028 72.1765 566.693 72.1825 564.358L72.1402 571.249C72.1341 573.584 73.6708 575.919 76.7563 577.698C82.885 581.237 92.7828 581.237 98.8691 577.698C101.894 575.944 103.407 573.639 103.413 571.34L103.455 564.449C103.449 566.748 101.936 569.053 98.9114 570.807Z" fill="#909FF4"/>
</g>
<path id="Shape_2" fill-rule="evenodd" clip-rule="evenodd" d="M98.8388 557.999C92.7102 554.46 82.8124 554.46 76.7261 557.999C70.6398 561.539 70.6761 567.268 76.7987 570.807C82.9273 574.346 92.8251 574.346 98.9114 570.807C104.998 567.268 104.967 561.539 98.8388 557.999ZM78.8799 559.24C83.7864 556.39 91.7664 556.39 96.7032 559.24C101.64 562.089 101.664 566.711 96.7637 569.561C91.8571 572.41 83.8772 572.41 78.9404 569.561C73.9975 566.711 73.9733 562.089 78.8799 559.24Z" fill="#AED7FF"/>
</g>
<path id="Path_58" d="M74.9171 571.473L63.9424 577.819C64.2086 577.662 64.5776 577.68 64.983 577.91C65.8118 578.37 66.4955 579.525 66.5076 580.487C66.5136 580.977 66.3442 581.322 66.072 581.479L77.0467 575.133C77.325 574.97 77.4883 574.625 77.4823 574.141C77.4702 573.179 76.7865 572.023 75.9577 571.563C75.5523 571.333 75.1833 571.315 74.9171 571.473Z" fill="#8CD9F4"/>
<path id="Path_59" d="M63.5008 578.811C63.5129 579.773 64.1965 580.929 65.0254 581.389C65.8542 581.848 66.5197 581.449 66.5076 580.487C66.4955 579.525 65.8119 578.37 64.983 577.91C64.1542 577.444 63.4887 577.849 63.5008 578.811Z" fill="#1D81CD"/>
<path id="Path_60" d="M71.8196 572.731C71.1117 572.338 70.4704 572.308 70.0046 572.574L50.9047 583.615C50.9168 583.609 50.9289 583.603 50.941 583.597C50.4389 583.869 50.1364 584.474 50.1424 585.345C50.1606 587.021 51.3524 589.03 52.7923 589.834C53.5062 590.234 54.1536 590.258 54.6194 589.986C54.6134 589.986 54.6134 589.992 54.6073 589.992L73.7072 578.95C74.1851 578.672 74.4816 578.073 74.4695 577.22C74.4513 575.544 73.2655 573.536 71.8196 572.731Z" fill="#78BAEC"/>
<path id="Path_61" d="M70.0045 572.574L50.9047 583.615C51.3705 583.343 52.0118 583.373 52.7197 583.772C54.1656 584.577 55.3514 586.586 55.3696 588.261C55.3817 589.114 55.0852 589.713 54.6073 589.992L73.7071 578.95C74.1851 578.672 74.4815 578.073 74.4694 577.22C74.4513 575.544 73.2594 573.536 71.8195 572.731C71.1117 572.338 70.4704 572.301 70.0045 572.574Z" fill="#AED7FF"/>
<path id="Path_62" d="M50.1424 585.345C50.1606 587.021 51.3524 589.03 52.7923 589.834C54.2383 590.639 55.3878 589.937 55.3696 588.261C55.3515 586.586 54.1596 584.577 52.7197 583.772C51.2798 582.968 50.1243 583.669 50.1424 585.345Z" fill="#8CD9F4"/>
</g>
<path id="Path_63" d="M503.299 197.462L310.94 305.587V86.2082L503.299 197.462Z" fill="url(#paint25_linear)"/>
<path id="Path_64" opacity="0.3" d="M451.808 210.729L528.105 255.136C530.839 256.727 532.527 259.656 532.527 262.826V390.408C532.527 393.439 529.248 395.339 526.616 393.82L450.338 349.867C447.579 348.276 445.885 345.342 445.885 342.16V214.142C445.879 211.098 449.176 209.205 451.808 210.729Z" fill="#86C3F2"/>
<path id="Path_65" opacity="0.4" d="M447.065 213.349L523.361 257.756C526.096 259.347 527.784 262.275 527.784 265.446V393.028C527.784 396.059 524.505 397.959 521.873 396.44L445.595 352.487C442.836 350.896 441.142 347.961 441.142 344.779V216.755C441.142 213.712 444.433 211.818 447.065 213.349Z" fill="#86C3F2"/>
<path id="Path_66" opacity="0.5" d="M442.322 215.963L518.618 260.37C521.353 261.961 523.041 264.889 523.041 268.059V395.642C523.041 398.673 519.762 400.572 517.13 399.054L440.851 355.107C438.093 353.515 436.399 350.581 436.399 347.399V219.369C436.399 216.332 439.696 214.432 442.322 215.963Z" fill="#86C3F2"/>
<g id="Group_15">
<path id="Path_67" d="M437.578 218.582L513.875 262.989C516.609 264.58 518.297 267.509 518.297 270.679V398.261C518.297 401.292 515.018 403.192 512.387 401.673L436.108 357.72C433.349 356.129 431.655 353.195 431.655 350.012V221.988C431.655 218.945 434.953 217.052 437.578 218.582Z" fill="url(#paint26_linear)" stroke="#9ACFF7" stroke-width="0.605"/>
<path id="Path_68" d="M513.76 262.917L437.584 218.576C435.83 217.554 433.694 218.074 432.496 219.55C433.331 219.332 434.057 219.435 434.886 219.919L511.183 264.326C513.917 265.917 515.605 268.846 515.605 272.016V399.598C515.605 400.609 515.406 401.486 514.825 402.157C516.676 401.964 518.31 400.336 518.31 398.255V270.679C518.297 267.509 516.495 264.514 513.76 262.917Z" fill="url(#paint27_linear)"/>
</g>
<path id="Path_69" opacity="0.3" d="M331.467 117.553L430.179 174.829C431.093 175.361 431.655 176.335 431.655 177.394C431.655 179.13 429.774 180.219 428.267 179.348L329.556 122.085C328.642 121.552 328.079 120.578 328.079 119.52V119.513C328.079 117.765 329.967 116.682 331.467 117.553Z" fill="#86C3F2"/>
<path id="Path_70" opacity="0.3" d="M331.467 132.14L430.179 189.415C431.093 189.948 431.655 190.922 431.655 191.98C431.655 193.717 429.774 194.806 428.267 193.935L329.556 136.671C328.642 136.139 328.079 135.165 328.079 134.106V134.1C328.079 132.358 329.967 131.269 331.467 132.14Z" fill="#86C3F2"/>
<path id="Path_71" d="M526.519 235.28C526.519 232.515 528.486 231.39 530.894 232.776C533.301 234.161 535.268 237.555 535.268 240.326C535.268 243.097 533.301 244.222 530.894 242.831C528.492 241.439 526.519 238.045 526.519 235.28Z" fill="#FFB561"/>
<path id="Path_72" d="M392.234 295.689C392.234 294.062 393.395 293.397 394.811 294.213C396.227 295.03 397.388 297.027 397.388 298.654C397.388 300.281 396.227 300.947 394.811 300.13C393.395 299.313 392.234 297.317 392.234 295.689Z" fill="#FFB561"/>
<path id="Path_73" d="M400.413 300.348C400.413 298.721 401.575 298.055 402.991 298.872C404.406 299.689 405.568 301.685 405.568 303.312C405.568 304.94 404.406 305.605 402.991 304.789C401.575 303.972 400.413 301.975 400.413 300.348Z" fill="#FFB561"/>
<path id="Path_74" d="M408.599 305.013C408.599 303.385 409.76 302.72 411.176 303.536C412.592 304.353 413.753 306.35 413.753 307.977C413.753 309.604 412.592 310.27 411.176 309.453C409.754 308.636 408.599 306.634 408.599 305.013Z" fill="#FFB561"/>
<path id="Path_75" d="M449.2 51.1303C449.2 48.3654 451.167 47.2401 453.575 48.6256C455.982 50.011 457.949 53.4051 457.949 56.176C457.949 58.9469 455.982 60.0722 453.575 58.6807C451.167 57.2892 449.2 53.8952 449.2 51.1303Z" fill="#4DBBFF"/>
<g id="Group_16" opacity="0.5">
<path id="Path_76" d="M466.473 61.3185C466.473 58.5537 468.44 57.4284 470.847 58.8138C473.255 60.1993 475.222 63.5933 475.222 66.3642C475.222 69.1351 473.255 70.2604 470.847 68.8689C468.44 67.4774 466.473 64.0773 466.473 61.3185Z" fill="#4DBBFF"/>
</g>
<g id="Group_17" opacity="0.5">
<path id="Path_77" fill-rule="evenodd" clip-rule="evenodd" d="M483.746 71.5006C483.746 68.7358 485.712 67.6105 488.12 68.9959C490.528 70.3814 492.494 73.7754 492.494 76.5463C492.494 79.3172 490.528 80.4425 488.12 79.051C485.712 77.6595 483.746 74.2594 483.746 71.5006Z" stroke="#86C3F2" stroke-width="0.605"/>
</g>
<path id="Path_78" d="M451.306 246.969L498.701 274.333C500.135 275.162 501.019 276.692 501.019 278.344V278.526C501.019 279.609 499.845 280.28 498.913 279.736L451.511 252.19C450.084 251.361 449.206 249.837 449.206 248.185C449.2 247.108 450.368 246.43 451.306 246.969Z" fill="#86C3F2"/>
<path id="Path_79" d="M451.306 261.592L498.701 288.956C500.135 289.785 501.019 291.315 501.019 292.967V293.148C501.019 294.231 499.845 294.903 498.913 294.358L451.511 266.813C450.084 265.984 449.206 264.459 449.206 262.808C449.2 261.725 450.368 261.053 451.306 261.592Z" fill="#86C3F2"/>
<path id="Path_80" opacity="0.8" d="M451.306 276.208L498.701 303.573C500.135 304.401 501.019 305.932 501.019 307.584V307.765C501.019 308.848 499.845 309.52 498.913 308.975L451.511 281.43C450.084 280.601 449.206 279.076 449.206 277.425C449.2 276.348 450.368 275.67 451.306 276.208Z" fill="#86C3F2"/>
<path id="Path_81" opacity="0.5" d="M451.306 290.831L498.701 318.195C500.135 319.024 501.019 320.555 501.019 322.207V322.388C501.019 323.471 499.845 324.143 498.913 323.598L451.511 296.052C450.084 295.224 449.206 293.699 449.206 292.047C449.2 290.964 450.368 290.293 451.306 290.831Z" fill="#86C3F2"/>
<path id="Path_82" d="M451.306 326.623L498.701 353.987C500.135 354.816 501.019 356.347 501.019 357.998V358.18C501.019 359.263 499.845 359.934 498.913 359.39L451.511 331.844C450.084 331.015 449.206 329.491 449.206 327.839C449.2 326.762 450.368 326.085 451.306 326.623Z" fill="#86C3F2"/>
<path id="Path_83" d="M328.079 156.14L379.867 185.924V265.7L328.079 235.655V156.14Z" fill="url(#paint28_linear)" stroke="#9ACFF7" stroke-width="0.605"/>
<path id="Path_84" d="M334.287 259.408L374.707 282.543C378.052 284.455 380.115 288.018 380.115 291.872V318.371C380.115 321.559 376.673 323.556 373.908 321.971L333.488 298.835C330.142 296.924 328.079 293.36 328.079 289.506V263.007C328.079 259.825 331.522 257.829 334.287 259.408Z" fill="url(#paint29_linear)" stroke="#9ACFF7" stroke-width="0.605"/>
<path id="Path_85" d="M388.489 198.635L421.34 217.602C421.915 217.935 422.272 218.552 422.272 219.217V219.459C422.272 219.847 421.848 220.089 421.516 219.895L388.658 200.68C388.089 200.348 387.738 199.736 387.732 199.077C387.732 198.684 388.15 198.442 388.489 198.635Z" fill="#86C3F2"/>
<path id="Path_86" d="M388.489 204.486L421.34 223.452C421.915 223.785 422.272 224.402 422.272 225.068V225.31C422.272 225.697 421.848 225.939 421.516 225.745L388.658 206.531C388.089 206.198 387.738 205.587 387.732 204.927C387.732 204.534 388.15 204.292 388.489 204.486Z" fill="#86C3F2"/>
<path id="Path_87" opacity="0.7" d="M388.489 210.33L421.34 229.297C421.915 229.63 422.272 230.247 422.272 230.912V231.154C422.272 231.541 421.848 231.783 421.516 231.59L388.658 212.375C388.089 212.042 387.738 211.431 387.732 210.772C387.732 210.384 388.15 210.136 388.489 210.33Z" fill="#86C3F2"/>
<path id="Path_88" opacity="0.7" d="M388.489 216.18L421.34 235.147C421.915 235.48 422.272 236.097 422.272 236.762V237.004C422.272 237.392 421.848 237.634 421.516 237.44L388.658 218.225C388.089 217.893 387.738 217.281 387.732 216.622C387.732 216.229 388.15 215.987 388.489 216.18Z" fill="#86C3F2"/>
<path id="Path_89" opacity="0.6" d="M388.489 231.106L421.34 250.072C421.915 250.405 422.272 251.022 422.272 251.688V251.93C422.272 252.317 421.848 252.559 421.516 252.365L388.658 233.151C388.089 232.818 387.738 232.207 387.732 231.547C387.732 231.154 388.15 230.912 388.489 231.106Z" fill="#86C3F2"/>
<path id="Path_90" opacity="0.3" d="M388.489 236.956L421.34 255.923C421.915 256.256 422.272 256.873 422.272 257.538V257.78C422.272 258.167 421.848 258.409 421.516 258.216L388.658 239.001C388.089 238.668 387.738 238.057 387.732 237.398C387.732 237.004 388.15 236.762 388.489 236.956Z" fill="#86C3F2"/>
<path id="Path_91" d="M353.689 189.476C349.793 187.225 346.629 189.034 346.617 193.505C346.611 196.01 347.591 198.811 349.133 201.188C349.974 202.483 349.763 203.893 348.734 203.742C343.452 202.979 339.683 206.658 339.665 213.512L339.641 222.103L367.507 238.19L367.531 229.599C367.55 222.745 363.817 214.728 358.547 209.404C357.531 208.376 357.319 206.724 358.16 206.41C359.836 205.774 360.858 203.893 360.701 201.067C360.477 196.935 357.676 192.077 354.197 189.784C354.028 189.675 353.858 189.572 353.689 189.476Z" fill="#C5E9FF"/>
<g id="Group_18" opacity="0.5">
<path id="Path_92" d="M222.797 452.723C206.795 443.394 206.862 428.209 222.937 418.97C239.011 409.732 265.196 409.702 281.119 418.892C297.043 428.088 296.976 443.273 280.98 452.645C264.984 462.016 238.8 462.052 222.797 452.723Z" fill="url(#paint30_linear)"/>
</g>
<g id="Group_19" opacity="0.5">
<path id="Path_93" d="M165.431 509.436C149.429 500.107 149.495 484.921 165.57 475.683C181.645 466.445 207.83 466.414 223.753 475.604C239.677 484.8 239.61 499.986 223.614 509.357C207.618 518.729 181.433 518.765 165.431 509.436Z" fill="url(#paint31_linear)"/>
</g>
<path id="Path_94" d="M224.322 431.088L224.171 431.772L223.965 431.318C223.965 431.318 222.93 434.852 223.82 436.612C224.709 438.379 226.022 440.557 227.898 443.025C229.773 445.494 232.774 450.63 233.566 451.616C234.359 452.602 238.939 456.432 244.668 457.025C250.397 457.618 251.856 454.339 251.384 452.56C250.912 450.781 247.826 446.08 244.475 442.251C241.117 438.421 238.552 433.484 238.552 433.484L224.322 431.088Z" fill="#1A2E33"/>
<path id="Path_95" d="M241.534 415.54C241.534 415.54 241.359 419.212 241.74 420.725C242.127 422.237 250.537 422.709 253.531 423.096C256.526 423.484 261.735 425.613 263.369 426.412C264.996 427.21 275.928 428.366 277.259 424.337C278.59 420.307 271.778 416.931 267.156 415.867C262.534 414.802 254.983 412.491 254.983 412.491L241.534 415.54Z" fill="#1A2E33"/>
<path id="Path_96" d="M212.355 342.783C212.355 342.783 212.059 353.092 215.495 367.309C218.931 381.527 218.514 391.479 218.514 391.479C218.514 391.479 214.92 407.572 218.078 418.553C221.236 429.534 223.923 432.613 223.923 432.613C223.923 432.613 230.245 440.986 238.533 433.484C238.533 433.484 233.875 418.396 233.318 406.386C233.318 406.386 237.426 397.565 238.848 389.694C238.848 389.694 240.034 402.206 240.742 407.258C240.742 407.258 240.028 414.681 242.006 417.682C243.978 420.682 252.908 421.554 255.752 416.339C258.595 411.123 254.59 413.677 256.169 389.688C256.169 389.688 261.965 379.446 263.151 360.606C264.337 341.766 266.031 327.041 264.966 323.368C263.901 319.696 245.086 313.725 245.086 313.725L234.819 326.835L212.355 342.783Z" fill="#86C3F2"/>
<g id="Group_20">
<path id="Path_97" d="M239.308 394.347C239.81 392.623 240.258 390.838 240.572 389.095C240.572 389.095 241.758 401.607 242.466 406.659C242.466 406.659 241.752 414.082 243.73 417.083C245.001 419.013 249.145 420.053 252.702 419.164C248.897 420.991 243.494 419.938 242.012 417.682C240.04 414.681 240.748 407.258 240.748 407.258C240.324 404.208 239.719 398.443 239.308 394.347Z" fill="#6FB3DD"/>
<path id="Path_98" d="M212.355 342.783L234.831 326.847L245.098 313.737C245.098 313.737 245.388 313.948 245.89 314.317L236.549 326.248L214.073 342.184C214.073 342.184 213.777 352.493 217.213 366.71C220.65 380.928 220.232 390.88 220.232 390.88C220.232 390.88 216.638 406.973 219.797 417.954C222.955 428.935 225.641 432.014 225.641 432.014C225.641 432.014 229.525 437.114 235.188 435.741C228.599 438.784 223.923 432.613 223.923 432.613C223.923 432.613 221.236 429.534 218.078 418.553C214.92 407.572 218.514 391.479 218.514 391.479C218.514 391.479 218.931 381.527 215.495 367.309C212.059 353.092 212.355 342.783 212.355 342.783Z" fill="#6FB3DD"/>
</g>
<path id="Path_99" d="M245.013 368.054C251.462 361.707 253.876 346.703 253.876 346.703C253.876 346.703 249.248 358.482 245.933 361.211C242.617 363.933 241.589 365.755 240.996 369.312C240.403 372.869 238.86 389.7 238.86 389.7C238.86 389.7 240.046 402.212 240.754 407.264C240.754 407.264 240.04 414.687 242.018 417.688C242.418 418.293 243.107 418.807 243.966 419.206C243.96 419.061 243.464 402.647 243.966 395.69C244.462 388.702 241.716 371.296 245.013 368.054Z" fill="#6FB3DD"/>
<path id="Path_100" d="M185.009 266.801C185.009 266.801 177.162 282.137 176.37 283.323C175.577 284.509 160.888 303.228 159.466 314.051C159.466 314.051 158.359 318.238 163.417 321.953C168.474 325.667 193.987 341.857 195.566 342.099C197.145 342.335 206.39 337.834 206.783 327.724C206.783 327.724 186.8 318.401 182.456 313.743C182.456 313.743 190.236 300.669 194.048 296.821C194.998 295.859 195.56 294.092 195.869 291.993C197.121 283.408 193.751 274.787 187.338 268.936L185.009 266.801Z" fill="#98A9B6"/>
<path id="Path_101" d="M242.484 235.71C242.484 235.71 252.412 240.453 256.798 240.991C261.191 241.53 270.84 245.057 278.844 244.803C286.849 244.543 317.589 251.585 321.727 253.418C321.727 253.418 321.715 254.217 320.904 254.15C320.093 254.084 317.177 252.281 314.787 255.046C312.398 257.81 312.101 262.463 312.422 262.959C312.743 263.455 313.584 262.469 316.796 262.62C320.009 262.771 321.57 263.667 321.57 263.667L321.908 265.421L324.347 263.685C324.347 263.685 318.768 269.802 315.163 268.271C311.557 266.734 284.423 264.502 282.807 264.193C281.186 263.885 258.274 262.263 254.118 261.707C249.962 261.15 246.386 261.35 246.386 261.35C246.386 261.35 239.223 248.391 238.872 248.209C238.521 248.028 242.484 235.71 242.484 235.71Z" fill="#98A9B6"/>
<path id="Path_102" d="M312.132 263.147C312.132 263.147 313.711 270.497 321.824 265.857C329.937 261.217 317.129 260.001 317.129 260.001L312.132 263.147Z" fill="#A5C6EF"/>
<path id="Path_103" d="M266.757 325.631C269.086 323.356 261.735 297.625 259.236 280.601C258.081 272.712 255.982 264.992 252.944 257.617L245.085 238.493C244.22 236.393 242.315 234.911 240.07 234.591L234.292 233.768L210.328 246.352L204.853 250.46C204.853 250.46 189.438 261.985 185.015 266.801C185.015 266.801 193.842 277.775 195.264 293.179C195.264 293.179 201.102 302.556 203.238 305.2C205.373 307.844 210.764 320.089 212.482 324.118C214.2 328.148 209.403 335.45 209.403 335.45C209.403 335.45 205.131 342.777 215.676 342.377C215.664 342.383 249.29 342.674 266.757 325.631Z" fill="url(#paint32_linear)"/>
<path id="Path_104" d="M227.256 330.138C227.159 329.509 215.713 325.31 213.583 324.36C211.448 323.411 211.121 321.874 211.121 321.874C209.935 322.588 206.789 328.033 206.789 328.033C206.789 328.033 199.559 336.684 200.213 337.065C200.866 337.453 207.321 339.74 209.276 340.018C211.23 340.296 215.834 340.381 216.838 340.399C217.842 340.417 221.382 339.582 221.382 339.582C221.382 339.582 225.907 339.086 226.833 338.632C226.827 338.638 228.127 335.686 227.256 330.138Z" fill="#FCD1C5"/>
<path id="Path_105" d="M312.132 263.147C312.355 263.171 313.336 263.086 314.37 262.995C313.444 257.29 319.888 253.678 319.912 253.666C311.182 251.155 311.72 263.098 312.132 263.147Z" fill="#E2B1A6"/>
<path id="Path_106" d="M200.207 337.065C200.691 337.35 204.369 338.687 207.037 339.467C207.037 339.461 208.761 332.721 208.368 330.459C207.981 328.202 207.037 327.664 207.037 327.664C206.88 327.888 206.783 328.027 206.783 328.027C206.783 328.027 199.559 336.684 200.207 337.065Z" fill="#E2B1A6"/>
<path id="Path_107" d="M206.783 327.718C206.783 327.718 207.939 331.62 205.301 334.639C202.663 337.658 202.373 338.046 202.373 338.046H199.348C199.348 338.046 197.781 333.272 198.017 333.157C198.252 333.042 206.783 327.718 206.783 327.718Z" fill="#4846A5"/>
<path id="Path_108" d="M235.932 435.384C236.773 434.912 237.644 434.301 238.539 433.49C238.539 433.49 233.881 418.402 233.324 406.392C233.324 406.392 237.432 397.571 238.854 389.7C238.461 391.261 233.681 399.719 231.521 408.371C229.362 417.022 235.932 435.384 235.932 435.384Z" fill="#6FB3DD"/>
<path id="Path_109" d="M228.527 209.81C228.527 209.81 238.648 224.989 234.546 237.664C230.445 250.339 218.635 242.601 218.635 242.601L208.047 240.429L201.483 225.812L215.053 212.024L228.527 209.81Z" fill="#FCD1C5"/>
<path id="Path_110" d="M214.019 233.502C214.013 233.877 213.607 232.836 213.39 232.564C212.827 231.856 208.562 228.655 206.099 230.138C203.643 231.62 206.601 236.327 208.235 238.196C209.862 240.06 208.047 240.435 208.047 240.435C208.047 240.435 202.675 238.62 196.595 227.403C190.514 216.186 198.888 205.599 207.811 201.412C216.735 197.226 228.823 205.048 229.059 208.206C229.247 210.741 224.358 213.071 220.172 215.527C217.685 216.985 215.876 219.375 215.186 222.17C214.575 224.614 214.067 228.232 214.019 233.502Z" fill="#1A2E33"/>
<path id="Path_111" d="M208.047 240.429L209.251 250.55C209.451 252.226 210.619 253.63 212.24 254.108C214.963 254.912 219.325 255.917 223.215 255.524C226.7 255.173 229.253 252.069 229.053 248.572L228.466 238.275L208.047 240.429Z" fill="#FCD1C5"/>
<g id="Group_21">
<path id="Path_112" d="M314.37 262.995L335.206 262.293L346.683 257.895C347.445 257.605 347.772 256.709 347.379 255.995L343.767 250.224L330.917 250.944L317.921 253.914C314.104 257.048 313.196 260.067 314.37 262.995Z" fill="#FCD1C5"/>
<path id="Path_113" d="M332.429 263.794L327.595 262.414L335.273 261.15L341.087 262.983C341.752 263.195 341.819 264.108 341.19 264.411C340.821 264.586 339.175 264.369 337.403 264.399C335.727 264.435 334.045 264.254 332.429 263.794Z" fill="#FCD1C5"/>
</g>
<g id="Group_22">
<path id="Path_114" d="M208.616 259.795C208.616 259.795 214.787 279.167 208.652 289.482C206.801 294.407 196.177 291.69 196.177 291.69V298.533C196.177 298.533 174.536 297.051 175.861 285.023C176.835 276.208 193.963 263.745 203.05 259.329C206.372 257.714 208.616 259.795 208.616 259.795Z" fill="#FCD1C5"/>
<g id="Group_23">
<g id="Group_24">
<path id="Path_115" d="M191.664 491.383C191.664 491.383 196.153 492.49 200.497 492.659C204.847 492.829 216.657 495.2 216.366 499.611C216.07 504.045 209.899 510.404 202.161 511.348C194.417 512.292 184.458 510.065 179.401 510.198C174.343 510.337 170.888 505.177 172.867 500.24C174.839 495.333 191.664 491.383 191.664 491.383Z" fill="#565D5E"/>
<path id="Path_116" d="M165.582 479.531C165.582 479.531 163.925 482.199 164.735 483.832C165.546 485.472 167.712 489.538 174.79 485.599C181.833 481.679 195.427 476.07 195.427 476.07C195.427 476.07 203.219 471.926 202.796 467.032C202.372 462.167 195.197 462.893 195.197 462.893L165.582 479.531Z" fill="#565D5E"/>
<path id="Path_117" d="M211.502 410.131C211.502 410.131 208.495 441.906 202.112 453.951C195.621 466.191 193.83 488.612 192.475 492.895C191.113 497.197 186.909 503.386 180.284 504.699C173.647 506.012 172.564 501.504 172.891 498.794C173.217 496.096 175.057 491.728 175.081 488.799C175.105 485.883 174.427 484.516 174.325 483.173C174.325 483.173 166.732 485.411 165.582 479.525C165.582 479.525 166.199 477.813 166.296 476.941C166.399 476.064 165.649 454.792 165.461 452.215C165.28 449.644 166.665 435.741 168.771 428.886C170.858 422.092 170.168 407.645 170.168 407.645L191.773 404.632L211.502 410.131Z" fill="#86C3F2"/>
<path id="Path_118" d="M176.575 409.944C176.575 409.944 176.666 414.905 178.729 419.073C178.729 419.073 178.687 435.959 180.423 444.513C180.423 444.513 177.628 461.689 175.867 467.098C174.095 472.549 174.331 483.167 174.331 483.167C174.331 483.167 173.466 483.488 172.231 483.53C170.991 483.572 170.906 462.536 172.806 458.822C174.7 455.125 176.134 438.73 175.42 433.732C174.712 428.765 174.954 414.554 174.016 412.049C173.078 409.55 175.196 408.219 175.196 408.219L176.575 409.944Z" fill="#6ABCE5"/>
<path id="Path_119" d="M192.317 416.865C177.997 417.301 170.265 410.96 170.265 410.96C170.235 408.952 170.174 407.645 170.174 407.645L191.779 404.632L211.496 410.137C211.496 410.137 210.903 416.405 209.681 424.427C206.166 424.809 202.717 416.181 202.717 416.181L192.892 416.804C192.898 416.798 206.632 416.429 192.317 416.865Z" fill="#6ABCE5"/>
<path id="Path_120" d="M208.737 410.603C208.737 410.603 214.678 383.445 214.781 382.628C214.884 381.811 213.916 364.333 213.595 361.774C213.275 359.227 214.122 340.877 213.928 333.236C213.74 325.673 211.599 319.702 211.599 319.702C205.367 308.207 187.169 298.763 187.169 298.763C187.169 298.763 177.325 295.205 174.022 290.753C170.743 286.33 176.733 282.137 176.733 282.137C170.453 280.359 167.246 289.174 167.246 289.174C167.246 289.174 162.872 306.579 164.1 317.621C165.449 329.751 167.488 350.769 166.587 356.546L164.784 405.83C164.784 405.83 192.202 419.938 208.737 410.603Z" fill="url(#paint33_linear)"/>
<path id="Path_121" d="M199.329 413.543C199.329 413.543 180.962 363.685 181.833 345.711C182.68 328.184 208.604 381.218 208.604 381.218L208.737 410.609C208.737 410.603 205.252 412.878 199.329 413.543Z" fill="#8A9CC1"/>
<path id="Path_122" d="M209.197 354.701C208.531 350.66 208.144 346.606 208.102 342.559C208.023 335.517 206.045 323.834 193.298 325.861C175.287 328.729 182.988 353.963 184.967 358.367C186.951 362.802 194.834 382.791 195.252 383.923C195.645 384.987 208.096 409.944 212.549 415.927C212.954 416.478 213.668 416.556 214.17 416.133C215.973 414.596 220.026 410.936 220.559 408.625C221.242 405.648 218.641 394.849 218.641 394.849C218.641 394.849 211.623 367.878 211.03 366.62C210.576 365.682 210.274 361.247 209.197 354.701Z" fill="#6477C4"/>
<path id="Path_123" d="M176.466 282.597C176.466 282.597 171.191 285.846 173.823 290.456C176.472 295.097 195.596 303.343 196.546 304.565C196.546 304.565 197.303 297.65 194.768 295.314C194.768 295.314 180.121 292.459 177.846 288.72C175.577 284.999 176.466 282.597 176.466 282.597Z" fill="#F0F6FF"/>
<path id="Path_124" d="M176.733 282.144C176.733 282.144 175.577 284.999 177.84 288.72C179.558 291.551 188.361 293.868 192.547 294.83C192.547 294.83 190.992 295.714 188.391 300.142C182.51 297.093 175.359 293.167 173.823 290.456C171.04 285.556 176.733 282.144 176.733 282.144Z" fill="#C4CCD6"/>
</g>
<path id="Path_125" d="M220.244 409.484C221.46 418.19 221.291 418.65 220.91 420.41C220.565 421.983 217.576 423.798 215.779 424.349C213.976 424.905 214.715 421.548 214.309 420.198C213.904 418.849 212.954 416.193 212.954 416.193L220.244 409.484Z" fill="#FCD1C5"/>
<path id="Path_126" d="M220.492 408.831C220.492 408.831 218.338 415.558 212.948 416.199L214.781 408.831C214.781 408.831 219.337 407.542 219.476 407.53C219.615 407.512 220.492 408.831 220.492 408.831Z" fill="#8A9CC1"/>
</g>
<path id="Path_127" d="M185.505 285.925C183.878 286.844 177.574 283.583 176.733 282.144C175.892 280.704 173.768 271.096 172.449 266.522C171.142 261.973 172.298 252.166 185.481 247.846C198.047 243.732 207.69 250.708 209.554 254.779C209.554 254.779 210.83 258.518 208.767 260.091C208.767 260.091 200.769 257.774 195.887 268.198C195.463 268.053 193.612 266.813 191.718 267.811C189.226 269.118 189.329 274.061 192.202 276.208L185.505 285.925Z" fill="#33241A"/>
</g>
<g id="Group_25">
<path id="Path_128" d="M462.964 463.656L520.488 496.864L507.492 504.366L449.34 471.521L462.964 463.656Z" fill="url(#paint34_linear)"/>
<g id="Group_26">
<path id="Path_129" d="M466.503 403.531L456.95 409.079V447.315L508.496 477.075L514.431 473.596V435.366L466.503 403.531Z" fill="#EEBF00"/>
<path id="Path_130" d="M456.95 409.079L466.503 403.531L514.431 435.366L508.496 438.839L456.95 409.079Z" fill="#FFDE56"/>
<path id="Path_131" d="M488.731 395.726L466.503 403.531L456.95 409.079L480.721 449.898L508.496 438.839L514.431 435.366L488.731 395.726Z" fill="#7088C4"/>
<g id="Group_27">
<path id="Path_132" d="M462.886 405.6L466.504 403.531L488.731 395.726L462.886 405.6Z" fill="#BDC8FF"/>
<path id="Path_133" d="M488.731 395.726L514.432 435.366L462.886 405.6L488.731 395.726Z" fill="#BDC8FF"/>
</g>
<g id="Group_28">
<path id="Path_134" d="M465.481 393.191L464.392 393.808V450.612L501.079 471.793L501.926 469.27L502.168 414.372L465.481 393.191Z" fill="#C1C1F7"/>
<path id="Path_135" d="M501.079 414.989L502.168 414.372L502.386 469.27L501.079 471.793V414.989Z" fill="#C1C1F7"/>
</g>
<path id="Path_136" d="M464.392 393.808L465.481 393.191L502.168 414.372L501.079 414.989L464.392 393.808Z" fill="#CCC9F4"/>
<path id="Path_137" d="M501.079 414.989V471.793L464.392 450.612V393.808L501.079 414.989Z" fill="url(#paint35_linear)"/>
<g id="Group_29">
<path id="Path_138" d="M494.872 440.297C494.872 440.75 494.376 441.035 493.983 440.811L471.646 427.912C470.968 427.519 470.551 426.799 470.551 426.013C470.551 425.559 471.047 425.274 471.44 425.498L493.777 438.397C494.454 438.79 494.872 439.516 494.872 440.297Z" fill="#DADAF2"/>
<path id="Path_139" d="M494.89 434.416C494.89 434.87 494.394 435.154 494.001 434.93L471.664 422.032C470.987 421.638 470.569 420.918 470.575 420.132C470.575 419.678 471.071 419.394 471.464 419.618L493.801 432.51C494.473 432.91 494.89 433.629 494.89 434.416Z" fill="#DADAF2"/>
<path id="Path_140" d="M494.902 428.529C494.902 428.983 494.406 429.267 494.013 429.044L471.676 416.151C470.999 415.758 470.581 415.038 470.581 414.251C470.581 413.798 471.077 413.513 471.471 413.737L493.807 426.636C494.491 427.023 494.908 427.749 494.902 428.529Z" fill="#DADAF2"/>
<path id="Path_141" d="M494.92 422.649C494.92 423.102 494.424 423.387 494.031 423.163L471.694 410.264C471.017 409.871 470.599 409.151 470.605 408.365C470.605 407.911 471.102 407.627 471.495 407.85L493.831 420.749C494.509 421.142 494.92 421.862 494.92 422.649Z" fill="#DADAF2"/>
</g>
<path id="Path_142" d="M456.95 409.079V447.315L508.496 477.075V438.839L480.721 449.898L456.95 409.079Z" fill="url(#paint36_linear)"/>
<g id="Group_30">
<path id="Path_143" d="M475.149 440.333L487.285 447.296L508.496 477.075L456.95 447.315L475.149 440.333Z" fill="#BDC8FF"/>
<path id="Path_144" d="M508.496 438.839L514.432 435.366V473.596L508.496 477.075V438.839Z" fill="#BDC8FF"/>
</g>
</g>
</g>
<g id="Group_31">
<g id="Group_32">
<path id="Path_145" d="M4.79766 576.307L50.572 549.705C50.5054 549.796 50.4207 549.868 50.33 549.917L4.55566 576.518C4.65246 576.47 4.73111 576.397 4.79766 576.307Z" fill="#FECE00"/>
<path id="Path_146" d="M1.8573 527.041L47.6316 500.44L50.9531 502.351L5.1727 528.959L1.8573 527.041Z" fill="#AED7FF"/>
<path id="Path_147" d="M5.06384 568.641L50.8381 542.039L50.9531 502.351L47.7103 504.239L47.7466 497.021L35.4227 504.185L35.3925 511.396L5.17274 528.959L5.06384 568.641Z" fill="#909FF4"/>
<path id="Path_148" d="M22.3306 546.008L68.1049 519.406L70.9363 523.024L25.162 549.626L22.3306 546.008Z" fill="#AED7FF"/>
<path id="Path_149" d="M25.1619 549.626L70.9362 523.024L50.578 549.705L4.79761 576.307L25.1619 549.626Z" fill="#8CD9F4"/>
<path id="Path_150" d="M5.17269 528.959L5.05774 568.641L22.3244 546.014L25.1558 549.626L4.79759 576.313C4.48904 576.712 3.94454 576.736 3.37584 576.409C3.22459 576.325 3.07939 576.216 2.92814 576.083C2.21424 575.441 1.71814 574.401 1.71814 573.548L1.85124 527.048L5.17269 528.959Z" fill="#86C3F2"/>
</g>
<g id="Group_33">
<path id="Path_151" d="M32.1073 502.273L44.4251 495.11L47.7466 497.021L35.4227 504.185L32.1073 502.273Z" fill="#AED7FF"/>
<path id="Path_152" d="M35.4227 504.185L35.3925 511.402L32.071 509.49L32.1073 502.273L35.4227 504.185Z" fill="#8CD9F4"/>
</g>
</g>
</g>
<defs>
<linearGradient id="paint0_linear" x1="22.4875" y1="538.109" x2="-3.87528" y2="602.562" gradientUnits="userSpaceOnUse">
<stop stop-color="#50BBFF" stop-opacity="0.3"/>
<stop offset="9.30301e-05" stop-color="#5ABEFE" stop-opacity="0.2903"/>
<stop offset="0.000552366" stop-color="#86CBFB" stop-opacity="0.2423"/>
<stop offset="0.00101725" stop-color="#AAD6F9" stop-opacity="0.1938"/>
<stop offset="0.00148187" stop-color="#C6DFF7" stop-opacity="0.1453"/>
<stop offset="0.00194597" stop-color="#DAE5F5" stop-opacity="0.0969"/>
<stop offset="0.00240982" stop-color="#E6E9F4" stop-opacity="0.0484"/>
<stop offset="0.00287375" stop-color="#EAEAF4" stop-opacity="0.01"/>
<stop offset="1" stop-color="#E6EBFF"/>
</linearGradient>
<linearGradient id="paint1_linear" x1="54.7467" y1="322.927" x2="37.508" y2="442.106" gradientUnits="userSpaceOnUse">
<stop stop-color="#9DDAFF"/>
<stop offset="1" stop-color="#FAFDFF" stop-opacity="0.01"/>
</linearGradient>
<linearGradient id="paint2_linear" x1="47.7095" y1="248.428" x2="-3.63307" y2="255.766" gradientUnits="userSpaceOnUse">
<stop stop-color="#B3DAFF"/>
<stop offset="1" stop-color="#FAFDFF" stop-opacity="0.01"/>
</linearGradient>
<linearGradient id="paint3_linear" x1="123.865" y1="244.553" x2="88.4908" y2="392.582" gradientUnits="userSpaceOnUse">
<stop stop-color="#9DDAFF"/>
<stop offset="1" stop-color="#FAFDFF" stop-opacity="0.01"/>
</linearGradient>
<linearGradient id="paint4_linear" x1="124.14" y1="114.728" x2="62.3753" y2="120.061" gradientUnits="userSpaceOnUse">
<stop stop-color="#B3E5FF"/>
<stop offset="1" stop-color="#FAFDFF" stop-opacity="0.01"/>
</linearGradient>
<linearGradient id="paint5_linear" x1="193.025" y1="185.158" x2="146.954" y2="344.144" gradientUnits="userSpaceOnUse">
<stop stop-color="#9DB7FF"/>
<stop offset="1" stop-color="#FAFDFF" stop-opacity="0.01"/>
</linearGradient>
<linearGradient id="paint6_linear" x1="196.657" y1="25.5208" x2="129.969" y2="30.2713" gradientUnits="userSpaceOnUse">
<stop stop-color="#B3DAFF"/>
<stop offset="1" stop-color="#FAFDFF" stop-opacity="0.01"/>
</linearGradient>
<linearGradient id="paint7_linear" x1="505.652" y1="665.711" x2="565.992" y2="326.834" gradientUnits="userSpaceOnUse">
<stop stop-color="#E6EBFF"/>
<stop offset="0.9971" stop-color="#EAEAF4" stop-opacity="0.01"/>
<stop offset="0.9976" stop-color="#E6E9F4" stop-opacity="0.0484"/>
<stop offset="0.9981" stop-color="#DAE5F5" stop-opacity="0.0969"/>
<stop offset="0.9985" stop-color="#C6DFF7" stop-opacity="0.1453"/>
<stop offset="0.999" stop-color="#AAD6F9" stop-opacity="0.1938"/>
<stop offset="0.9994" stop-color="#86CBFB" stop-opacity="0.2423"/>
<stop offset="0.9999" stop-color="#5ABEFE" stop-opacity="0.2903"/>
<stop offset="1" stop-color="#50BBFF" stop-opacity="0.3"/>
</linearGradient>
<linearGradient id="paint8_linear" x1="113.201" y1="578.809" x2="470.472" y2="578.809" gradientUnits="userSpaceOnUse">
<stop stop-color="#E6EBFF"/>
<stop offset="1" stop-color="#E9F2FF" stop-opacity="0.4"/>
</linearGradient>
<linearGradient id="paint9_linear" x1="26.3586" y1="631.141" x2="561.96" y2="631.141" gradientUnits="userSpaceOnUse">
<stop stop-color="#50BBFF" stop-opacity="0.3"/>
<stop offset="0.0196" stop-color="#56BDFF" stop-opacity="0.3137"/>
<stop offset="0.1816" stop-color="#82CBFF" stop-opacity="0.4271"/>
<stop offset="0.3455" stop-color="#A6D6FF" stop-opacity="0.5418"/>
<stop offset="0.5093" stop-color="#C2DFFF" stop-opacity="0.6565"/>
<stop offset="0.6729" stop-color="#D6E6FF" stop-opacity="0.771"/>
<stop offset="0.8364" stop-color="#E2EAFF" stop-opacity="0.8855"/>
<stop offset="1" stop-color="#E6EBFF"/>
</linearGradient>
<linearGradient id="paint10_linear" x1="397.631" y1="620.797" x2="500.897" y2="620.797" gradientUnits="userSpaceOnUse">
<stop stop-color="#E6EBFF"/>
<stop offset="0.9971" stop-color="#EAEAF4" stop-opacity="0.01"/>
<stop offset="0.9976" stop-color="#E6E9F4" stop-opacity="0.0484"/>
<stop offset="0.9981" stop-color="#DAE5F5" stop-opacity="0.0969"/>
<stop offset="0.9985" stop-color="#C6DFF7" stop-opacity="0.1453"/>
<stop offset="0.999" stop-color="#AAD6F9" stop-opacity="0.1938"/>
<stop offset="0.9994" stop-color="#86CBFB" stop-opacity="0.2423"/>
<stop offset="0.9999" stop-color="#5ABEFE" stop-opacity="0.2903"/>
<stop offset="1" stop-color="#50BBFF" stop-opacity="0.3"/>
</linearGradient>
<linearGradient id="paint11_linear" x1="17.7749" y1="634.024" x2="121.041" y2="634.024" gradientUnits="userSpaceOnUse">
<stop stop-color="#E6EBFF"/>
<stop offset="0.9971" stop-color="#EAEAF4" stop-opacity="0.01"/>
<stop offset="0.9976" stop-color="#E6E9F4" stop-opacity="0.0484"/>
<stop offset="0.9981" stop-color="#DAE5F5" stop-opacity="0.0969"/>
<stop offset="0.9985" stop-color="#C6DFF7" stop-opacity="0.1453"/>
<stop offset="0.999" stop-color="#AAD6F9" stop-opacity="0.1938"/>
<stop offset="0.9994" stop-color="#86CBFB" stop-opacity="0.2423"/>
<stop offset="0.9999" stop-color="#5ABEFE" stop-opacity="0.2903"/>
<stop offset="1" stop-color="#50BBFF" stop-opacity="0.3"/>
</linearGradient>
<linearGradient id="paint12_linear" x1="17.7768" y1="613.575" x2="121.039" y2="613.575" gradientUnits="userSpaceOnUse">
<stop stop-color="#50BBFF" stop-opacity="0.3"/>
<stop offset="0.0196" stop-color="#56BDFF" stop-opacity="0.3137"/>
<stop offset="0.1816" stop-color="#82CBFF" stop-opacity="0.4271"/>
<stop offset="0.3455" stop-color="#A6D6FF" stop-opacity="0.5418"/>
<stop offset="0.5093" stop-color="#C2DFFF" stop-opacity="0.6565"/>
<stop offset="0.6729" stop-color="#D6E6FF" stop-opacity="0.771"/>
<stop offset="0.8364" stop-color="#E2EAFF" stop-opacity="0.8855"/>
<stop offset="1" stop-color="#E6EBFF"/>
</linearGradient>
<linearGradient id="paint13_linear" x1="397.633" y1="583.296" x2="500.895" y2="583.296" gradientUnits="userSpaceOnUse">
<stop stop-color="#50BBFF" stop-opacity="0.3"/>
<stop offset="0.0196" stop-color="#56BDFF" stop-opacity="0.3137"/>
<stop offset="0.1816" stop-color="#82CBFF" stop-opacity="0.4271"/>
<stop offset="0.3455" stop-color="#A6D6FF" stop-opacity="0.5418"/>
<stop offset="0.5093" stop-color="#C2DFFF" stop-opacity="0.6565"/>
<stop offset="0.6729" stop-color="#D6E6FF" stop-opacity="0.771"/>
<stop offset="0.8364" stop-color="#E2EAFF" stop-opacity="0.8855"/>
<stop offset="1" stop-color="#E6EBFF"/>
</linearGradient>
<linearGradient id="paint14_linear" x1="72.8767" y1="221.169" x2="32.03" y2="221.169" gradientUnits="userSpaceOnUse">
<stop stop-color="#FF6E91"/>
<stop offset="0.1799" stop-color="#FF6E8D" stop-opacity="0.8741"/>
<stop offset="0.3597" stop-color="#FF6E81" stop-opacity="0.7482"/>
<stop offset="0.5396" stop-color="#FF6F6D" stop-opacity="0.6223"/>
<stop offset="0.7196" stop-color="#FF6F51" stop-opacity="0.4963"/>
<stop offset="0.8981" stop-color="#FF702D" stop-opacity="0.3713"/>
<stop offset="1" stop-color="#FF7015" stop-opacity="0.3"/>
</linearGradient>
<linearGradient id="paint15_linear" x1="124.796" y1="-24.9226" x2="-3.36475" y2="78.4718" gradientUnits="userSpaceOnUse">
<stop stop-color="white"/>
<stop offset="0.1255" stop-color="#FFFDFB" stop-opacity="0.9624"/>
<stop offset="0.251" stop-color="#FFF8EF" stop-opacity="0.9247"/>
<stop offset="0.3767" stop-color="#FFF0DB" stop-opacity="0.887"/>
<stop offset="0.5025" stop-color="#FFE4BF" stop-opacity="0.8493"/>
<stop offset="0.6284" stop-color="#FFD59A" stop-opacity="0.8115"/>
<stop offset="0.7545" stop-color="#FFC26E" stop-opacity="0.7736"/>
<stop offset="0.8783" stop-color="#FFAC3A" stop-opacity="0.7365"/>
<stop offset="1" stop-color="#FF9400" stop-opacity="0.7"/>
</linearGradient>
<linearGradient id="paint16_linear" x1="123.933" y1="77.2714" x2="35.6208" y2="77.2714" gradientUnits="userSpaceOnUse">
<stop stop-color="#FF6E91"/>
<stop offset="0.1799" stop-color="#FF6E8D" stop-opacity="0.8741"/>
<stop offset="0.3597" stop-color="#FF6E81" stop-opacity="0.7482"/>
<stop offset="0.5396" stop-color="#FF6F6D" stop-opacity="0.6223"/>
<stop offset="0.7196" stop-color="#FF6F51" stop-opacity="0.4963"/>
<stop offset="0.8981" stop-color="#FF702D" stop-opacity="0.3713"/>
<stop offset="1" stop-color="#FF7015" stop-opacity="0.3"/>
</linearGradient>
<linearGradient id="paint17_linear" x1="69.7805" y1="43.8538" x2="197.942" y2="147.248" gradientUnits="userSpaceOnUse">
<stop stop-color="white"/>
<stop offset="0.1255" stop-color="#FFFDFB" stop-opacity="0.9624"/>
<stop offset="0.251" stop-color="#FFF8EF" stop-opacity="0.9247"/>
<stop offset="0.3767" stop-color="#FFF0DB" stop-opacity="0.887"/>
<stop offset="0.5025" stop-color="#FFE4BF" stop-opacity="0.8493"/>
<stop offset="0.6284" stop-color="#FFD59A" stop-opacity="0.8115"/>
<stop offset="0.7545" stop-color="#FFC26E" stop-opacity="0.7736"/>
<stop offset="0.8783" stop-color="#FFAC3A" stop-opacity="0.7365"/>
<stop offset="1" stop-color="#FF9400" stop-opacity="0.7"/>
</linearGradient>
<linearGradient id="paint18_linear" x1="176.057" y1="118.931" x2="264.37" y2="118.931" gradientUnits="userSpaceOnUse">
<stop stop-color="#FF6E91"/>
<stop offset="0.1799" stop-color="#FF6E8D" stop-opacity="0.8741"/>
<stop offset="0.3597" stop-color="#FF6E81" stop-opacity="0.7482"/>
<stop offset="0.5396" stop-color="#FF6F6D" stop-opacity="0.6223"/>
<stop offset="0.7196" stop-color="#FF6F51" stop-opacity="0.4963"/>
<stop offset="0.8981" stop-color="#FF702D" stop-opacity="0.3713"/>
<stop offset="1" stop-color="#FF7015" stop-opacity="0.3"/>
</linearGradient>
<linearGradient id="paint19_linear" x1="449.216" y1="560.985" x2="452.415" y2="543.536" gradientUnits="userSpaceOnUse">
<stop stop-color="#FFA73E"/>
<stop offset="0.4411" stop-color="#FFB182"/>
<stop offset="0.8165" stop-color="#FFB9B5"/>
<stop offset="1" stop-color="#FFBCC9"/>
</linearGradient>
<linearGradient id="paint20_linear" x1="443.764" y1="564.507" x2="478.547" y2="564.507" gradientUnits="userSpaceOnUse">
<stop stop-color="#FFA73E"/>
<stop offset="0.000706224" stop-color="#E4A566"/>
<stop offset="0.00226149" stop-color="#AC9FB8"/>
<stop offset="0.00336413" stop-color="#899CEB"/>
<stop offset="0.00390269" stop-color="#7B9BFF"/>
<stop offset="1" stop-color="#FFBCC9"/>
</linearGradient>
<linearGradient id="paint21_linear" x1="401.721" y1="563.353" x2="683.268" y2="419.421" gradientUnits="userSpaceOnUse">
<stop stop-color="#F1F2FF"/>
<stop offset="0.0822" stop-color="#F4F5FF"/>
<stop offset="0.4162" stop-color="#FDFDFF"/>
<stop offset="1" stop-color="white"/>
</linearGradient>
<linearGradient id="paint22_linear" x1="554.906" y1="-61.9942" x2="549.198" y2="-61.9737" gradientUnits="userSpaceOnUse">
<stop stop-color="#EDEFFF"/>
<stop offset="0.5403" stop-color="#EFEFFE"/>
<stop offset="0.8494" stop-color="#F8F1FA"/>
<stop offset="1" stop-color="#FFF2F7"/>
</linearGradient>
<linearGradient id="paint23_linear" x1="311.028" y1="225.812" x2="554.689" y2="225.812" gradientUnits="userSpaceOnUse">
<stop stop-color="#EDEFFF"/>
<stop offset="0.5403" stop-color="#EFF0FE"/>
<stop offset="0.8494" stop-color="#F8F3FA"/>
<stop offset="1" stop-color="#FFF5F7"/>
</linearGradient>
<linearGradient id="paint24_linear" x1="310.877" y1="250.743" x2="311.179" y2="250.743" gradientUnits="userSpaceOnUse">
<stop stop-color="#EDEFFF"/>
<stop offset="0.6937" stop-color="#ECEFFD"/>
<stop offset="1" stop-color="#EBEEF7"/>
</linearGradient>
<linearGradient id="paint25_linear" x1="324.901" y1="326.164" x2="549.913" y2="278.213" gradientUnits="userSpaceOnUse">
<stop stop-color="#F1F2FF"/>
<stop offset="0.0822" stop-color="#F4F5FF"/>
<stop offset="0.4162" stop-color="#FDFDFF"/>
<stop offset="1" stop-color="white"/>
</linearGradient>
<linearGradient id="paint26_linear" x1="494.156" y1="178.515" x2="398.523" y2="203.769" gradientUnits="userSpaceOnUse">
<stop stop-color="white"/>
<stop offset="0.6689" stop-color="#FDFFFF"/>
<stop offset="1" stop-color="#F6FFFF"/>
</linearGradient>
<linearGradient id="paint27_linear" x1="432.492" y1="402.157" x2="518.3" y2="402.157" gradientUnits="userSpaceOnUse">
<stop stop-color="#EDEFFF"/>
<stop offset="0.5403" stop-color="#EFEFFE"/>
<stop offset="0.8494" stop-color="#F8F1FA"/>
<stop offset="1" stop-color="#FFF2F7"/>
</linearGradient>
<linearGradient id="paint28_linear" x1="293.176" y1="218.563" x2="394.538" y2="263.436" gradientUnits="userSpaceOnUse">
<stop stop-color="white"/>
<stop offset="0.6689" stop-color="#FDFFFF"/>
<stop offset="1" stop-color="#F6FFFF"/>
</linearGradient>
<linearGradient id="paint29_linear" x1="239.089" y1="205.933" x2="324.108" y2="318.444" gradientUnits="userSpaceOnUse">
<stop stop-color="white"/>
<stop offset="0.6689" stop-color="#FDFFFF"/>
<stop offset="1" stop-color="#F6FFFF"/>
</linearGradient>
<linearGradient id="paint30_linear" x1="309.725" y1="545.986" x2="348.691" y2="392.418" gradientUnits="userSpaceOnUse">
<stop stop-color="#D5D7FF"/>
<stop offset="0.5345" stop-color="#D5DFFA" stop-opacity="0.8928"/>
<stop offset="0.9971" stop-color="#D6EAF4" stop-opacity="0.8"/>
</linearGradient>
<linearGradient id="paint31_linear" x1="294.798" y1="546.41" x2="333.763" y2="392.842" gradientUnits="userSpaceOnUse">
<stop stop-color="#D5D7FF"/>
<stop offset="0.5345" stop-color="#D5DFFA" stop-opacity="0.8928"/>
<stop offset="0.9971" stop-color="#D6EAF4" stop-opacity="0.8"/>
</linearGradient>
<linearGradient id="paint32_linear" x1="171.624" y1="260.892" x2="222.231" y2="359.915" gradientUnits="userSpaceOnUse">
<stop stop-color="#929D9E"/>
<stop offset="1" stop-color="#A9CEFF"/>
</linearGradient>
<linearGradient id="paint33_linear" x1="112.913" y1="414.688" x2="253.816" y2="455.344" gradientUnits="userSpaceOnUse">
<stop stop-color="#4960C6"/>
<stop offset="1" stop-color="#AEBDBF"/>
</linearGradient>
<linearGradient id="paint34_linear" x1="411.517" y1="478.062" x2="437.872" y2="542.515" gradientUnits="userSpaceOnUse">
<stop stop-color="#E6EBFF"/>
<stop offset="0.9971" stop-color="#EAEAF4" stop-opacity="0.01"/>
<stop offset="0.9976" stop-color="#E6E9F4" stop-opacity="0.0484"/>
<stop offset="0.9981" stop-color="#DAE5F5" stop-opacity="0.0969"/>
<stop offset="0.9985" stop-color="#C6DFF7" stop-opacity="0.1453"/>
<stop offset="0.999" stop-color="#AAD6F9" stop-opacity="0.1938"/>
<stop offset="0.9994" stop-color="#86CBFB" stop-opacity="0.2423"/>
<stop offset="0.9999" stop-color="#5ABEFE" stop-opacity="0.2903"/>
<stop offset="1" stop-color="#50BBFF" stop-opacity="0.3"/>
</linearGradient>
<linearGradient id="paint35_linear" x1="512.804" y1="564.222" x2="663.54" y2="501.784" gradientUnits="userSpaceOnUse">
<stop stop-color="#F1F2FF"/>
<stop offset="0.0822" stop-color="#F4F5FF"/>
<stop offset="0.4162" stop-color="#FDFDFF"/>
<stop offset="1" stop-color="white"/>
</linearGradient>
<linearGradient id="paint36_linear" x1="426.214" y1="462.893" x2="507.624" y2="500.353" gradientUnits="userSpaceOnUse">
<stop stop-color="#FFA73E"/>
<stop offset="0.000706224" stop-color="#E4A566"/>
<stop offset="0.00226149" stop-color="#AC9FB8"/>
<stop offset="0.00336413" stop-color="#899CEB"/>
<stop offset="0.00390269" stop-color="#7B9BFF"/>
<stop offset="1" stop-color="#FFBCC9"/>
</linearGradient>
</defs>
</svg>
