<?xml version="1.0" encoding="UTF-8"?>
<svg width="460px" height="404px" viewBox="0 0 460 404" version="1.1" xmlns="http://www.w3.org/2000/svg" xmlns:xlink="http://www.w3.org/1999/xlink">
    <title>Стартапам-04</title>
    <defs>
        <linearGradient x1="16.2158509%" y1="49.9987997%" x2="82.9175768%" y2="49.9987997%" id="linearGradient-1">
            <stop stop-color="#E6EBFF" offset="0%"></stop>
            <stop stop-color="#E9F2FF" stop-opacity="0.4" offset="100%"></stop>
        </linearGradient>
        <linearGradient x1="-0.00105595575%" y1="50.0007987%" x2="100.000499%" y2="50.0007987%" id="linearGradient-2">
            <stop stop-color="#50BBFF" stop-opacity="0.3" offset="0%"></stop>
            <stop stop-color="#56BDFF" stop-opacity="0.3137" offset="1.96%"></stop>
            <stop stop-color="#82CBFF" stop-opacity="0.4271" offset="18.16%"></stop>
            <stop stop-color="#A6D6FF" stop-opacity="0.5418" offset="34.55%"></stop>
            <stop stop-color="#C2DFFF" stop-opacity="0.6565" offset="50.93%"></stop>
            <stop stop-color="#D6E6FF" stop-opacity="0.771" offset="67.29%"></stop>
            <stop stop-color="#E2EAFF" stop-opacity="0.8855" offset="83.64%"></stop>
            <stop stop-color="#E6EBFF" offset="100%"></stop>
        </linearGradient>
        <linearGradient x1="16.2161227%" y1="50.0013249%" x2="82.9162917%" y2="50.0013249%" id="linearGradient-3">
            <stop stop-color="#E6EBFF" offset="0%"></stop>
            <stop stop-color="#E9F2FF" offset="100%"></stop>
        </linearGradient>
        <linearGradient x1="0.00288728094%" y1="50.0054596%" x2="99.9992595%" y2="50.0054596%" id="linearGradient-4">
            <stop stop-color="#50BBFF" stop-opacity="0.3" offset="0%"></stop>
            <stop stop-color="#56BDFF" stop-opacity="0.3137" offset="1.96%"></stop>
            <stop stop-color="#82CBFF" stop-opacity="0.4271" offset="18.16%"></stop>
            <stop stop-color="#A6D6FF" stop-opacity="0.5418" offset="34.55%"></stop>
            <stop stop-color="#C2DFFF" stop-opacity="0.6565" offset="50.93%"></stop>
            <stop stop-color="#D6E6FF" stop-opacity="0.771" offset="67.29%"></stop>
            <stop stop-color="#E2EAFF" stop-opacity="0.8855" offset="83.64%"></stop>
            <stop stop-color="#E6EBFF" offset="100%"></stop>
        </linearGradient>
        <linearGradient x1="0.026064629%" y1="50.0439135%" x2="100.010242%" y2="50.0439135%" id="linearGradient-5">
            <stop stop-color="#A0AEFF" offset="0%"></stop>
            <stop stop-color="#A7B6FF" offset="22.96%"></stop>
            <stop stop-color="#BBCBFF" offset="58.19%"></stop>
            <stop stop-color="#DBEDFF" offset="100%"></stop>
        </linearGradient>
        <linearGradient x1="0.0177630149%" y1="49.9735233%" x2="100.006909%" y2="49.9735233%" id="linearGradient-6">
            <stop stop-color="#FFA73E" offset="0%"></stop>
            <stop stop-color="#FFB182" offset="44.11%"></stop>
            <stop stop-color="#FFB9B5" offset="81.65%"></stop>
            <stop stop-color="#FFBCC9" offset="100%"></stop>
        </linearGradient>
        <linearGradient x1="-0.000521292581%" y1="49.9902228%" x2="99.9828744%" y2="49.9902228%" id="linearGradient-7">
            <stop stop-color="#A0AEFF" offset="0%"></stop>
            <stop stop-color="#A7B6FF" offset="22.96%"></stop>
            <stop stop-color="#BBCBFF" offset="58.19%"></stop>
            <stop stop-color="#DBEDFF" offset="100%"></stop>
        </linearGradient>
        <linearGradient x1="0.0169806966%" y1="50.0050369%" x2="100.005866%" y2="50.0050369%" id="linearGradient-8">
            <stop stop-color="#FFA73E" offset="0%"></stop>
            <stop stop-color="#E4A566" offset="0.07062241%"></stop>
            <stop stop-color="#AC9FB8" offset="0.2261486%"></stop>
            <stop stop-color="#899CEB" offset="0.3364125%"></stop>
            <stop stop-color="#7B9BFF" offset="0.3902688%"></stop>
            <stop stop-color="#FFBCC9" offset="100%"></stop>
        </linearGradient>
        <linearGradient x1="-0.00208517032%" y1="49.978569%" x2="99.9823531%" y2="49.978569%" id="linearGradient-9">
            <stop stop-color="#A0AEFF" offset="0%"></stop>
            <stop stop-color="#A7B6FF" offset="22.96%"></stop>
            <stop stop-color="#BBCBFF" offset="58.19%"></stop>
            <stop stop-color="#DBEDFF" offset="100%"></stop>
        </linearGradient>
        <linearGradient x1="-0.00568353827%" y1="50.0058519%" x2="99.9872741%" y2="50.0058519%" id="linearGradient-10">
            <stop stop-color="#50BBFF" stop-opacity="0.3" offset="0%"></stop>
            <stop stop-color="#56BDFF" stop-opacity="0.3137" offset="1.96%"></stop>
            <stop stop-color="#82CBFF" stop-opacity="0.4271" offset="18.16%"></stop>
            <stop stop-color="#A6D6FF" stop-opacity="0.5418" offset="34.55%"></stop>
            <stop stop-color="#C2DFFF" stop-opacity="0.6565" offset="50.93%"></stop>
            <stop stop-color="#D6E6FF" stop-opacity="0.771" offset="67.29%"></stop>
            <stop stop-color="#E2EAFF" stop-opacity="0.8855" offset="83.64%"></stop>
            <stop stop-color="#E6EBFF" offset="100%"></stop>
        </linearGradient>
        <linearGradient x1="37.7011252%" y1="62.7536962%" x2="63.9205345%" y2="35.7929072%" id="linearGradient-11">
            <stop stop-color="#FFA73E" offset="0%"></stop>
            <stop stop-color="#FFB182" offset="44.11%"></stop>
            <stop stop-color="#FFB9B5" offset="81.65%"></stop>
            <stop stop-color="#FFBCC9" offset="100%"></stop>
        </linearGradient>
        <linearGradient x1="-0.00386779184%" y1="50.0055181%" x2="99.9883966%" y2="50.0055181%" id="linearGradient-12">
            <stop stop-color="#FFA73E" offset="0%"></stop>
            <stop stop-color="#E4A566" offset="0.07062241%"></stop>
            <stop stop-color="#AC9FB8" offset="0.2261486%"></stop>
            <stop stop-color="#899CEB" offset="0.3364125%"></stop>
            <stop stop-color="#7B9BFF" offset="0.3902688%"></stop>
            <stop stop-color="#FFBCC9" offset="100%"></stop>
        </linearGradient>
        <linearGradient x1="0.00321970245%" y1="49.9998749%" x2="99.9984849%" y2="49.9998749%" id="linearGradient-13">
            <stop stop-color="#50BBFF" stop-opacity="0.3" offset="0%"></stop>
            <stop stop-color="#56BDFF" stop-opacity="0.3137" offset="1.96%"></stop>
            <stop stop-color="#82CBFF" stop-opacity="0.4271" offset="18.16%"></stop>
            <stop stop-color="#A6D6FF" stop-opacity="0.5418" offset="34.55%"></stop>
            <stop stop-color="#C2DFFF" stop-opacity="0.6565" offset="50.93%"></stop>
            <stop stop-color="#D6E6FF" stop-opacity="0.771" offset="67.29%"></stop>
            <stop stop-color="#E2EAFF" stop-opacity="0.8855" offset="83.64%"></stop>
            <stop stop-color="#E6EBFF" offset="100%"></stop>
        </linearGradient>
        <linearGradient x1="-0.00231528771%" y1="50.0002339%" x2="100.001498%" y2="50.0002339%" id="linearGradient-14">
            <stop stop-color="#FFA73E" offset="0%"></stop>
            <stop stop-color="#E4A566" offset="0.07062241%"></stop>
            <stop stop-color="#AC9FB8" offset="0.2261486%"></stop>
            <stop stop-color="#899CEB" offset="0.3364125%"></stop>
            <stop stop-color="#7B9BFF" offset="0.3902688%"></stop>
            <stop stop-color="#FFBCC9" offset="100%"></stop>
        </linearGradient>
        <linearGradient x1="0.0249409987%" y1="50.0074347%" x2="100.003827%" y2="50.0074347%" id="linearGradient-15">
            <stop stop-color="#FFA73E" offset="0%"></stop>
            <stop stop-color="#FFB182" offset="44.11%"></stop>
            <stop stop-color="#FFB9B5" offset="81.65%"></stop>
            <stop stop-color="#FFBCC9" offset="100%"></stop>
        </linearGradient>
        <linearGradient x1="-0.0111531899%" y1="50.0002852%" x2="99.9968372%" y2="50.0002852%" id="linearGradient-16">
            <stop stop-color="#FFA73E" offset="0%"></stop>
            <stop stop-color="#FFB182" offset="44.11%"></stop>
            <stop stop-color="#FFB9B5" offset="81.65%"></stop>
            <stop stop-color="#FFBCC9" offset="100%"></stop>
        </linearGradient>
        <linearGradient x1="-0.00463057542%" y1="49.98293%" x2="99.999319%" y2="49.98293%" id="linearGradient-17">
            <stop stop-color="#FFA73E" offset="0%"></stop>
            <stop stop-color="#E4A566" offset="0.07062241%"></stop>
            <stop stop-color="#AC9FB8" offset="0.2261486%"></stop>
            <stop stop-color="#899CEB" offset="0.3364125%"></stop>
            <stop stop-color="#7B9BFF" offset="0.3902688%"></stop>
            <stop stop-color="#FFBCC9" offset="100%"></stop>
        </linearGradient>
        <linearGradient x1="0.0158257845%" y1="49.9851307%" x2="99.9952484%" y2="49.9851307%" id="linearGradient-18">
            <stop stop-color="#FFA73E" offset="0%"></stop>
            <stop stop-color="#FFB182" offset="44.11%"></stop>
            <stop stop-color="#FFB9B5" offset="81.65%"></stop>
            <stop stop-color="#FFBCC9" offset="100%"></stop>
        </linearGradient>
        <linearGradient x1="-0.0138183634%" y1="49.993725%" x2="100.006659%" y2="49.993725%" id="linearGradient-19">
            <stop stop-color="#FFA73E" offset="0%"></stop>
            <stop stop-color="#FFB182" offset="44.11%"></stop>
            <stop stop-color="#FFB9B5" offset="81.65%"></stop>
            <stop stop-color="#FFBCC9" offset="100%"></stop>
        </linearGradient>
        <linearGradient x1="6.60629297%" y1="63.5715926%" x2="101.040719%" y2="34.0303411%" id="linearGradient-20">
            <stop stop-color="#D7DEFF" offset="0%"></stop>
            <stop stop-color="#DEE6FF" stop-opacity="0.6915" offset="51.41%"></stop>
            <stop stop-color="#E9F2FF" stop-opacity="0.4" offset="100%"></stop>
        </linearGradient>
        <linearGradient x1="-0.0224508887%" y1="50%" x2="100.015903%" y2="50%" id="linearGradient-21">
            <stop stop-color="#FFA73E" offset="0%"></stop>
            <stop stop-color="#FFB182" offset="44.11%"></stop>
            <stop stop-color="#FFB9B5" offset="81.65%"></stop>
            <stop stop-color="#FFBCC9" offset="100%"></stop>
        </linearGradient>
        <linearGradient x1="0.0198647506%" y1="49.9988395%" x2="100.020287%" y2="49.9988395%" id="linearGradient-22">
            <stop stop-color="#FFA73E" offset="0%"></stop>
            <stop stop-color="#E4A566" offset="0.07062241%"></stop>
            <stop stop-color="#AC9FB8" offset="0.2261486%"></stop>
            <stop stop-color="#899CEB" offset="0.3364125%"></stop>
            <stop stop-color="#7B9BFF" offset="0.3902688%"></stop>
            <stop stop-color="#FFBCC9" offset="100%"></stop>
        </linearGradient>
        <linearGradient x1="57.2675409%" y1="3.10050997%" x2="40.5827725%" y2="99.3015299%" id="linearGradient-23">
            <stop stop-color="#FFA73E" offset="0%"></stop>
            <stop stop-color="#FFB182" offset="44.11%"></stop>
            <stop stop-color="#FFB9B5" offset="81.65%"></stop>
            <stop stop-color="#FFBCC9" offset="100%"></stop>
        </linearGradient>
    </defs>
    <g id="Основной-сайт" stroke="none" stroke-width="1" fill="none" fill-rule="evenodd">
        <g id="Новый-блок-с-иллюстрацией-Copy" transform="translate(-821.000000, -1062.000000)">
            <g id="Стартапам-04" transform="translate(821.000000, 1062.000000)">
                <g id="Group" transform="translate(0.000000, 147.000000)" fill-rule="nonzero">
                    <path d="M171.59,254.29 L2.87,156.88 C-0.92,154.69 -0.92,149.23 2.87,147.04 L171.59,49.63 C175.77,47.22 180.92,47.22 185.1,49.63 L353.82,147.04 C357.61,149.23 357.61,154.69 353.82,156.88 L185.1,254.29 C180.92,256.7 175.77,256.7 171.59,254.29 Z" id="Path" fill="#F3F6FD"></path>
                    <path d="M171.86,206.9 L3.14,109.49 C-0.65,107.3 -0.65,101.84 3.14,99.65 L171.86,2.24 C176.04,-0.17 181.19,-0.17 185.37,2.24 L354.09,99.65 C357.88,101.84 357.88,107.3 354.09,109.49 L185.37,206.9 C181.19,209.31 176.04,209.31 171.86,206.9 Z" id="Path" fill="url(#linearGradient-1)"></path>
                    <path d="M354.09,105.11 L185.37,202.52 C181.19,204.93 176.04,204.93 171.86,202.52 L3.14,105.11 C2.02,104.46 1.23,103.52 0.78,102.46 C-0.3,104.96 0.48,108.12 3.14,109.66 L171.86,207.07 C176.04,209.48 181.19,209.48 185.37,207.07 L354.09,109.66 C356.75,108.12 357.54,104.97 356.45,102.46 C356,103.52 355.22,104.46 354.09,105.11 Z" id="Path" fill="url(#linearGradient-2)"></path>
                </g>
                <g id="Group" transform="translate(213.000000, 54.000000)" fill-rule="nonzero">
                    <path d="M118.5,162.74 L2.33,95.67 C-0.28,94.16 -0.28,90.4 2.33,88.89 L118.5,21.83 C121.38,20.17 124.92,20.17 127.8,21.83 L243.97,88.9 C246.58,90.41 246.58,94.17 243.97,95.68 L127.8,162.75 C124.93,164.4 121.38,164.4 118.5,162.74 Z" id="Path" fill="#F3F6FD"></path>
                    <path d="M118.69,142.6 L2.52,75.53 C-0.09,74.02 -0.09,70.26 2.52,68.75 L118.69,1.68 C121.57,0.02 125.11,0.02 127.99,1.68 L244.16,68.75 C246.77,70.26 246.77,74.02 244.16,75.53 L127.99,142.6 C125.11,144.26 121.57,144.26 118.69,142.6 Z" id="Path" fill="url(#linearGradient-3)"></path>
                    <path d="M244.16,72.51 L127.99,139.58 C125.11,141.24 121.57,141.24 118.69,139.58 L2.52,72.51 C1.75,72.06 1.21,71.42 0.89,70.69 C0.14,72.41 0.68,74.59 2.52,75.64 L118.69,142.71 C121.57,144.37 125.11,144.37 127.99,142.71 L244.16,75.64 C245.99,74.58 246.53,72.41 245.79,70.69 C245.47,71.42 244.93,72.07 244.16,72.51 Z" id="Path" fill="url(#linearGradient-4)"></path>
                </g>
                <g id="Group" transform="translate(105.000000, 284.000000)" fill-rule="nonzero" opacity="0.6">
                    <g id="Path">
                        <path d="M35.32,21.45 L39.05,12.2 L39.07,10.38 C39.09,10.33 39.06,10.27 39,10.23 L21.75,0.27 C21.6,0.18 21.35,0.23 21.3,0.34 L17.64,9.4 C17.52,9.71 17.1,9.95 16.57,10.02 L0.93,12.17 C0.8,12.19 0.72,12.26 0.73,12.32 C0.73,12.32 0.73,12.32 0.73,12.32 L0.71,14.14 L18.29,24.25 L34.25,22.06 C34.79,22 35.2,21.76 35.32,21.45" fill="url(#linearGradient-5)"></path>
                        <g fill="url(#linearGradient-6)">
                            <path d="M39,10.24 C39.07,10.28 39.09,10.33 39.07,10.39 L35.34,19.64 C35.22,19.95 34.8,20.19 34.27,20.26 L18.31,22.45 C18.22,22.46 18.12,22.45 18.06,22.41 L0.81,12.45 C0.66,12.36 0.729788317,12.22 0.94,12.19 L16.58,10.04 C17.11,9.97 17.52,9.73 17.65,9.42 L21.31,0.36 C21.36,0.24 21.61,0.2 21.76,0.29 L39,10.24 Z"></path>
                        </g>
                    </g>
                    <g transform="translate(25.000000, 14.000000)" id="Path">
                        <path d="M17.82,24.11 L33.78,21.92 C34.31,21.85 34.72,21.61 34.85,21.3 L38.58,12.05 L38.6,10.23 C38.62,10.18 38.59,10.12 38.53,10.09 L21.28,0.13 C21.13,0.04 20.88,0.09 20.83,0.2 L17.17,9.26 C17.05,9.57 16.63,9.81 16.1,9.88 L0.46,12.03 C0.33,12.05 0.25,12.12 0.26,12.18 C0.26,12.18 0.26,12.18 0.26,12.18 L0.24,14 L17.82,24.11 Z" fill="url(#linearGradient-7)"></path>
                        <g fill="url(#linearGradient-8)">
                            <path d="M38.52,10.09 C38.59,10.13 38.61,10.18 38.59,10.23 L34.86,19.48 C34.74,19.79 34.32,20.03 33.79,20.1 L17.83,22.29 C17.74,22.3 17.65,22.29 17.58,22.25 L0.33,12.29 C0.18,12.2 0.249788317,12.06 0.46,12.03 L16.1,9.88 C16.63,9.81 17.04,9.57 17.17,9.26 L20.83,0.2 C20.88,0.08 21.13,0.04 21.28,0.13 L38.52,10.09 Z"></path>
                        </g>
                    </g>
                    <g transform="translate(49.000000, 27.000000)" id="Path">
                        <path d="M18.34,24.96 L34.3,22.77 C34.83,22.7 35.24,22.46 35.37,22.15 L39.1,12.9 L39.12,11.08 C39.14,11.03 39.11,10.97 39.05,10.94 L21.8,0.98 C21.65,0.89 21.4,0.94 21.35,1.05 L17.69,10.11 C17.57,10.42 17.15,10.66 16.62,10.73 L0.98,12.88 C0.85,12.9 0.77,12.97 0.78,13.03 C0.78,13.03 0.78,13.03 0.78,13.03 L0.76,14.85 L18.34,24.96 Z" fill="url(#linearGradient-9)"></path>
                        <g fill="#BDC8FF">
                            <path d="M39.04,10.93 C39.11,10.97 39.13,11.02 39.11,11.08 L35.38,20.33 C35.26,20.64 34.84,20.88 34.31,20.95 L18.35,23.14 C18.26,23.15 18.16,23.14 18.1,23.1 L0.85,13.14 C0.7,13.05 0.769788317,12.91 0.98,12.88 L16.62,10.73 C17.15,10.66 17.56,10.42 17.69,10.11 L21.35,1.05 C21.4,0.93 21.65,0.89 21.8,0.98 L39.04,10.93 Z"></path>
                        </g>
                    </g>
                </g>
                <g id="Group" transform="translate(17.000000, 117.000000)">
                    <path d="M35.9,58.73 L0.67,38.39 C-0.12,37.93 -0.12,36.79 0.67,36.34 L35.9,16 C36.77,15.5 37.85,15.5 38.72,16 L73.95,36.34 C74.74,36.8 74.74,37.94 73.95,38.39 L38.72,58.73 C37.85,59.24 36.78,59.24 35.9,58.73 Z" id="Path" fill="#F3F6FD" fill-rule="nonzero"></path>
                    <path d="M0,41.74 L37.23,63.24 L74.37,41.74 L37.03,19.95 L0,41.74 Z" id="Path" stroke="#B3DAFF" stroke-width="0.2807" stroke-dasharray="4.3623"></path>
                    <path d="M35.9,43.95 L0.67,23.61 C-0.12,23.15 -0.12,22.01 0.67,21.56 L35.9,1.22 C36.77,0.72 37.85,0.72 38.72,1.22 L73.95,21.56 C74.74,22.02 74.74,23.16 73.95,23.61 L38.72,43.95 C37.85,44.46 36.78,44.46 35.9,43.95 Z" id="Path" fill="#F0F0FF" fill-rule="nonzero"></path>
                    <path d="M73.95,22.7 L38.72,43.04 C37.85,43.54 36.77,43.54 35.9,43.04 L0.68,22.7 C0.45,22.56 0.28,22.37 0.19,22.15 C-0.04,22.67 0.13,23.33 0.68,23.65 L35.91,43.99 C36.78,44.49 37.86,44.49 38.73,43.99 L73.96,23.65 C74.52,23.33 74.68,22.67 74.45,22.15 C74.35,22.37 74.18,22.57 73.95,22.7 Z" id="Path" fill="url(#linearGradient-10)" fill-rule="nonzero"></path>
                    <polygon id="Path" fill="url(#linearGradient-11)" fill-rule="nonzero" points="14 19.65 28.22 11.44 42.44 19.65 28.22 27.74"></polygon>
                    <polygon id="Path" fill="#95B0E5" fill-rule="nonzero" points="14 19.65 28.22 27.74 42.44 19.65 42.44 19.95 28.22 28.02 14 19.87"></polygon>
                    <polygon id="Path" fill="url(#linearGradient-12)" fill-rule="nonzero" points="31.93 22.84 46.15 14.63 60.37 22.84 46.15 30.94"></polygon>
                    <polygon id="Path" fill="#95B0E5" fill-rule="nonzero" points="31.93 22.84 46.15 30.94 60.37 22.84 60.37 23.15 46.15 31.22 31.93 23.07"></polygon>
                </g>
                <g id="Group" transform="translate(314.000000, 266.000000)">
                    <path d="M65.15,104.25 L1.79,67.67 C0.37,66.85 0.37,64.8 1.79,63.97 L65.15,27.39 C66.72,26.48 68.65,26.48 70.22,27.39 L133.58,63.97 C135,64.79 135,66.84 133.58,67.67 L70.22,104.25 C68.65,105.15 66.72,105.15 65.15,104.25 Z" id="Path" fill="#F3F6FD" fill-rule="nonzero"></path>
                    <path d="M0.57,73.69 L67.53,112.35 L134.32,73.69 L67.18,34.49 L0.57,73.69 Z" id="Path" stroke="#B3DAFF" stroke-width="0.5049" stroke-dasharray="7.8459"></path>
                    <path d="M65.15,77.67 L1.79,41.09 C0.37,40.27 0.37,38.22 1.79,37.39 L65.15,0.81 C66.72,-0.1 68.65,-0.1 70.22,0.81 L133.58,37.39 C135,38.21 135,40.26 133.58,41.09 L70.22,77.67 C68.65,78.57 66.72,78.57 65.15,77.67 Z" id="Path" fill="#F0F0FF" fill-rule="nonzero"></path>
                    <path d="M133.58,39.44 L70.22,76.02 C68.65,76.93 66.72,76.93 65.15,76.02 L1.79,39.44 C1.37,39.2 1.07,38.84 0.9,38.45 C0.49,39.39 0.79,40.57 1.79,41.15 L65.15,77.73 C66.72,78.64 68.65,78.64 70.22,77.73 L133.58,41.15 C134.58,40.57 134.87,39.39 134.47,38.45 C134.29,38.85 134,39.2 133.58,39.44 Z" id="Path" fill="url(#linearGradient-13)" fill-rule="nonzero"></path>
                </g>
                <path d="M164.41,60.51 C164.41,58.57 165.8,57.77 167.49,58.75 C169.18,59.72 170.57,62.11 170.57,64.06 C170.57,66.01 169.18,66.8 167.49,65.82 C165.8,64.85 164.41,62.46 164.41,60.51 Z" id="Path" fill="#4DBBFF" fill-rule="nonzero"></path>
                <g id="Group" opacity="0.5" transform="translate(176.000000, 65.000000)" fill="#4DBBFF" fill-rule="nonzero">
                    <path d="M0.56,2.68 C0.56,0.74 1.95,-0.06 3.64,0.92 C5.33,1.9 6.72,4.28 6.72,6.23 C6.72,8.18 5.33,8.97 3.64,7.99 C1.95,7.01 0.56,4.62 0.56,2.68 Z" id="Path"></path>
                </g>
                <g id="Group" opacity="0.5" transform="translate(188.000000, 72.000000)" stroke="#86C3F2" stroke-width="0.4257">
                    <path d="M0.72,2.84 C0.72,0.9 2.11,0.1 3.8,1.08 C5.49,2.05 6.88,4.44 6.88,6.39 C6.88,8.34 5.49,9.13 3.8,8.15 C2.1,7.18 0.72,4.79 0.72,2.84 Z" id="Path"></path>
                </g>
                <g id="Group" transform="translate(186.000000, 225.000000)" fill-rule="nonzero">
                    <g id="surface1_2_" transform="translate(55.000000, 8.000000)">
                        <path d="M1.4,26.89 L46.46,0.88 C48.01,-0.01 49.92,-0.01 51.47,0.88 L73.16,13.41 C74.27,14.05 74.27,15.66 73.16,16.3 L28.1,42.3 C26.55,43.19 24.64,43.19 23.09,42.3 L1.4,29.77 C0.29,29.14 0.29,27.53 1.4,26.89 Z" id="Path" fill="url(#linearGradient-14)"></path>
                        <path d="M43.99,24.72 C40.1,26.97 34.21,27.21 30.84,25.27 C27.47,23.32 27.89,19.92 31.78,17.68 C35.67,15.43 41.56,15.19 44.93,17.13 C48.31,19.08 47.89,22.48 43.99,24.72 Z" id="Path" fill="url(#linearGradient-15)"></path>
                        <path d="M66.48,13.4 L51.46,4.73 C50.69,4.28 49.82,4.06 48.96,4.06 C48.1,4.06 47.23,4.28 46.46,4.73 L8.08,26.89 C6.97,27.53 6.97,29.14 8.08,29.78 L23.1,38.45 C23.87,38.9 24.74,39.12 25.6,39.12 C26.46,39.12 27.33,38.9 28.1,38.45 L66.48,16.29 C67.6,15.65 67.6,14.04 66.48,13.4 Z M29.26,34.09 C27.76,33.23 25.14,33.33 23.41,34.33 C22.77,34.7 22.35,35.14 22.13,35.58 L12.89,30.25 C13.63,30.12 14.35,29.88 14.95,29.53 C16.68,28.53 16.87,27.02 15.37,26.15 C15.01,25.94 14.58,25.79 14.12,25.7 L44.68,8.05 C44.84,8.34 45.12,8.6 45.5,8.83 C47,9.69 49.62,9.59 51.35,8.59 C51.85,8.3 52.22,7.97 52.46,7.62 L61.44,12.81 C60.74,12.94 60.06,13.17 59.48,13.51 C57.75,14.51 57.56,16.02 59.06,16.89 C59.49,17.14 60,17.3 60.56,17.39 L30.11,34.97 C29.98,34.64 29.69,34.34 29.26,34.09 Z" id="Shape" fill="url(#linearGradient-16)"></path>
                        <path d="M72.41,21.7 C72.41,20.12 71.46,18.62 69.51,17.5 C65.21,15.02 57.71,15.33 52.75,18.19 C49.93,19.82 48.54,21.92 48.66,23.88 L48.65,23.88 L48.65,26.06 L48.65,26.06 C48.69,27.6 49.64,29.06 51.55,30.16 C55.85,32.64 63.35,32.33 68.31,29.47 C71.02,27.9 72.41,25.9 72.41,24 L72.41,24 L72.41,21.7 L72.41,21.7 Z" id="Path" fill="#FFD62C"></path>
                        <path d="M68.31,27.17 C63.35,30.03 55.85,30.34 51.55,27.86 C47.25,25.38 47.79,21.05 52.75,18.19 C57.71,15.33 65.21,15.02 69.51,17.5 C73.81,19.97 73.27,24.3 68.31,27.17 Z" id="Path" fill="#BDC8FF"></path>
                        <path d="M65.87,25.76 C62.47,27.73 57.32,27.94 54.37,26.24 C51.42,24.54 51.79,21.56 55.2,19.6 C58.6,17.63 63.75,17.42 66.7,19.12 C69.64,20.82 69.28,23.79 65.87,25.76 Z" id="Path" fill="#FFD62C"></path>
                        <path d="M64.22,24.8 C61.87,26.16 58.32,26.3 56.28,25.13 C54.25,23.96 54.5,21.9 56.85,20.55 C59.2,19.2 62.75,19.05 64.79,20.22 C66.82,21.4 66.56,23.45 64.22,24.8 Z" id="Path" fill="#BDC8FF"></path>
                    </g>
                    <path d="M32.02,27.5 L77.08,1.49 C78.63,0.6 80.54,0.6 82.09,1.49 L103.78,14.02 C104.89,14.66 104.89,16.27 103.78,16.91 L58.72,42.92 C57.17,43.81 55.26,43.81 53.71,42.92 L32.02,30.39 C30.91,29.74 30.91,28.14 32.02,27.5 Z" id="Path" fill="url(#linearGradient-17)"></path>
                    <path d="M74.61,25.33 C70.72,27.58 64.83,27.82 61.46,25.88 C58.09,23.94 58.51,20.53 62.4,18.29 C66.29,16.04 72.18,15.8 75.55,17.74 C78.93,19.69 78.51,23.08 74.61,25.33 Z" id="Path" fill="url(#linearGradient-18)"></path>
                    <path d="M97.1,14.01 L82.08,5.34 C81.31,4.89 80.44,4.67 79.58,4.67 C78.72,4.67 77.85,4.89 77.08,5.34 L38.7,27.5 C37.59,28.14 37.59,29.75 38.7,30.39 L53.72,39.06 C54.49,39.51 55.36,39.73 56.22,39.73 C57.08,39.73 57.95,39.51 58.72,39.06 L97.1,16.9 C98.21,16.26 98.21,14.65 97.1,14.01 Z M59.87,34.69 C58.37,33.83 55.75,33.93 54.02,34.93 C53.38,35.3 52.96,35.74 52.74,36.18 L43.5,30.85 C44.24,30.72 44.96,30.48 45.56,30.13 C47.29,29.13 47.48,27.62 45.98,26.75 C45.62,26.54 45.19,26.39 44.73,26.3 L75.3,8.65 C75.46,8.94 75.74,9.2 76.12,9.43 C77.62,10.29 80.24,10.19 81.97,9.19 C82.47,8.9 82.84,8.57 83.08,8.22 L92.06,13.41 C91.36,13.54 90.68,13.77 90.1,14.11 C88.37,15.11 88.18,16.62 89.68,17.49 C90.11,17.74 90.62,17.9 91.18,17.99 L60.73,35.57 C60.59,35.25 60.3,34.94 59.87,34.69 Z" id="Shape" fill="url(#linearGradient-19)"></path>
                    <path d="M128.37,26.05 C128.37,24.47 127.42,22.97 125.47,21.85 C121.17,19.37 113.67,19.68 108.71,22.54 C105.89,24.17 104.5,26.27 104.62,28.23 L104.61,28.23 L104.61,30.41 L104.61,30.41 C104.65,31.95 105.6,33.41 107.51,34.51 C111.81,36.99 119.31,36.68 124.27,33.82 C126.98,32.25 128.37,30.25 128.37,28.35 L128.37,28.35 L128.37,26.05 L128.37,26.05 Z" id="Path" fill="#FFD62C"></path>
                    <path d="M124.27,31.52 C119.31,34.38 111.81,34.69 107.51,32.21 C103.21,29.73 103.75,25.4 108.71,22.54 C113.67,19.68 121.17,19.37 125.47,21.85 C129.77,24.33 129.23,28.66 124.27,31.52 Z" id="Path" fill="#BDC8FF"></path>
                    <path d="M121.83,30.12 C118.43,32.09 113.28,32.3 110.33,30.6 C107.38,28.9 107.75,25.92 111.16,23.96 C114.56,21.99 119.71,21.78 122.66,23.48 C125.61,25.18 125.24,28.15 121.83,30.12 Z" id="Path" fill="#FFD62C"></path>
                    <path d="M120.18,29.16 C117.83,30.52 114.28,30.66 112.24,29.49 C110.21,28.32 110.46,26.26 112.81,24.91 C115.16,23.55 118.71,23.41 120.75,24.58 C122.78,25.75 122.52,27.8 120.18,29.16 Z" id="Path" fill="#BDC8FF"></path>
                    <path d="M125.97,21.69 C125.97,20.11 125.02,18.61 123.07,17.49 C118.77,15.01 111.27,15.32 106.31,18.18 C103.49,19.81 102.1,21.91 102.22,23.87 L102.21,23.87 L102.21,26.05 L102.21,26.05 C102.25,27.59 103.2,29.05 105.11,30.15 C109.41,32.63 116.91,32.32 121.87,29.46 C124.58,27.89 125.97,25.89 125.97,23.99 L125.97,23.99 L125.97,21.69 L125.97,21.69 Z" id="Path" fill="#FFD62C"></path>
                    <path d="M121.87,27.16 C116.91,30.02 109.41,30.33 105.11,27.85 C100.81,25.37 101.35,21.04 106.31,18.18 C111.27,15.32 118.77,15.01 123.07,17.49 C127.37,19.96 126.83,24.3 121.87,27.16 Z" id="Path" fill="#BDC8FF"></path>
                    <path d="M119.43,25.75 C116.03,27.72 110.88,27.93 107.93,26.23 C104.98,24.53 105.35,21.55 108.76,19.59 C112.16,17.62 117.31,17.41 120.26,19.11 C123.21,20.81 122.84,23.79 119.43,25.75 Z" id="Path" fill="#FFD62C"></path>
                    <path d="M117.78,24.8 C115.43,26.16 111.88,26.3 109.84,25.13 C107.81,23.96 108.06,21.9 110.41,20.55 C112.76,19.19 116.31,19.05 118.35,20.22 C120.38,21.39 120.13,23.44 117.78,24.8 Z" id="Path" fill="#BDC8FF"></path>
                    <path d="M133.03,15 C133.03,13.42 132.08,11.92 130.13,10.8 C125.83,8.32 118.33,8.63 113.37,11.49 C110.55,13.12 109.16,15.22 109.28,17.18 L109.27,17.18 L109.27,19.36 L109.27,19.36 C109.31,20.9 110.26,22.36 112.17,23.46 C116.47,25.94 123.97,25.63 128.93,22.77 C131.64,21.2 133.03,19.2 133.03,17.3 L133.03,17.3 L133.03,15 L133.03,15 Z" id="Path" fill="#FFD62C"></path>
                    <path d="M128.94,20.47 C123.98,23.33 116.48,23.64 112.18,21.16 C107.88,18.68 108.42,14.35 113.38,11.49 C118.34,8.63 125.84,8.32 130.14,10.8 C134.43,13.28 133.9,17.61 128.94,20.47 Z" id="Path" fill="#BDC8FF"></path>
                    <path d="M126.5,19.07 C123.1,21.04 117.95,21.25 115,19.55 C112.05,17.85 112.42,14.87 115.83,12.91 C119.23,10.94 124.38,10.73 127.33,12.43 C130.27,14.13 129.9,17.1 126.5,19.07 Z" id="Path" fill="#FFD62C"></path>
                    <path d="M124.84,18.11 C122.49,19.47 118.94,19.61 116.9,18.44 C114.87,17.27 115.12,15.21 117.47,13.86 C119.82,12.5 123.37,12.36 125.41,13.53 C127.45,14.7 127.19,16.75 124.84,18.11 Z" id="Path" fill="#BDC8FF"></path>
                    <g transform="translate(0.000000, 17.000000)" id="Path">
                        <path d="M27.3,14.74 C27.3,13.16 26.35,11.66 24.4,10.54 C20.1,8.06 12.6,8.37 7.64,11.23 C4.82,12.86 3.43,14.96 3.55,16.92 L3.54,16.92 L3.54,19.1 L3.54,19.1 C3.58,20.64 4.53,22.1 6.44,23.2 C10.74,25.68 18.24,25.37 23.2,22.51 C25.91,20.94 27.3,18.94 27.3,17.04 L27.3,17.04 L27.3,14.74 L27.3,14.74 Z" fill="#FFD62C"></path>
                        <path d="M23.21,20.21 C18.25,23.07 10.75,23.38 6.45,20.9 C2.15,18.42 2.69,14.09 7.65,11.23 C12.61,8.37 20.11,8.06 24.41,10.54 C28.7,13.01 28.17,17.35 23.21,20.21 Z" fill="#BDC8FF"></path>
                        <path d="M20.77,18.8 C17.37,20.77 12.22,20.98 9.27,19.28 C6.32,17.58 6.69,14.6 10.1,12.64 C13.5,10.67 18.65,10.46 21.6,12.16 C24.55,13.86 24.17,16.84 20.77,18.8 Z" fill="#FFD62C"></path>
                        <path d="M19.11,17.85 C16.76,19.21 13.21,19.35 11.17,18.18 C9.14,17.01 9.39,14.95 11.74,13.6 C14.09,12.24 17.64,12.1 19.68,13.27 C21.72,14.44 21.46,16.49 19.11,17.85 Z" fill="#BDC8FF"></path>
                        <path d="M29.46,9.51 C29.46,7.93 28.51,6.43 26.56,5.31 C22.26,2.83 14.76,3.14 9.8,6 C6.98,7.63 5.59,9.73 5.71,11.69 L5.7,11.69 L5.7,13.87 L5.7,13.87 C5.74,15.41 6.69,16.87 8.6,17.97 C12.9,20.45 20.4,20.14 25.36,17.28 C28.07,15.71 29.46,13.71 29.46,11.81 L29.46,11.81 L29.46,9.51 L29.46,9.51 Z" fill="#FFD62C"></path>
                        <path d="M25.36,14.98 C20.4,17.84 12.9,18.15 8.6,15.67 C4.3,13.19 4.84,8.86 9.8,6 C14.76,3.14 22.26,2.83 26.56,5.31 C30.86,7.79 30.32,12.12 25.36,14.98 Z" fill="#BDC8FF"></path>
                        <path d="M22.92,13.58 C19.52,15.55 14.37,15.76 11.42,14.06 C8.47,12.36 8.84,9.38 12.25,7.42 C15.65,5.45 20.8,5.24 23.75,6.94 C26.7,8.64 26.33,11.61 22.92,13.58 Z" fill="#FFD62C"></path>
                        <path d="M21.27,12.62 C18.92,13.98 15.37,14.12 13.33,12.95 C11.3,11.78 11.55,9.72 13.9,8.37 C16.25,7.02 19.8,6.87 21.84,8.04 C23.87,9.21 23.62,11.26 21.27,12.62 Z" fill="#BDC8FF"></path>
                        <path d="M23.83,5.95 C23.83,4.37 22.88,2.87 20.93,1.75 C16.63,-0.73 9.13,-0.42 4.17,2.44 C1.35,4.07 -0.04,6.17 0.08,8.13 L0.07,8.13 L0.07,10.31 L0.07,10.31 C0.11,11.85 1.06,13.31 2.97,14.41 C7.27,16.89 14.77,16.58 19.73,13.72 C22.44,12.15 23.83,10.15 23.83,8.25 L23.83,8.25 L23.83,5.95 L23.83,5.95 Z" fill="#FFD62C"></path>
                        <path d="M19.74,11.43 C14.78,14.29 7.28,14.6 2.98,12.12 C-1.32,9.64 -0.78,5.31 4.18,2.45 C9.14,-0.41 16.64,-0.72 20.94,1.76 C25.23,4.23 24.7,8.56 19.74,11.43 Z" fill="#BDC8FF"></path>
                        <path d="M17.3,10.02 C13.9,11.99 8.75,12.2 5.8,10.5 C2.85,8.8 3.22,5.82 6.63,3.86 C10.03,1.89 15.18,1.68 18.13,3.38 C21.07,5.08 20.7,8.05 17.3,10.02 Z" fill="#FFD62C"></path>
                        <path d="M15.64,9.06 C13.29,10.42 9.74,10.56 7.7,9.39 C5.67,8.22 5.92,6.16 8.27,4.81 C10.62,3.46 14.17,3.31 16.21,4.48 C18.25,5.65 17.99,7.71 15.64,9.06 Z" fill="#BDC8FF"></path>
                    </g>
                </g>
                <ellipse id="Oval" fill="url(#linearGradient-20)" fill-rule="nonzero" cx="384.2" cy="302.91" rx="18.91" ry="12"></ellipse>
                <g id="Group" transform="translate(381.000000, 204.000000)" fill-rule="nonzero">
                    <g id="Path">
                        <path d="M5.82,1.58 C5.83,1.18 5.57,0.79 5.05,0.49 C4.05,-0.09 2.39,-0.12 1.35,0.49 C0.84,0.79 0.59,1.17 0.59,1.56 C0.59,1.56 0.59,1.56 0.59,1.56 L0.59,96.8 C0.59,97.19 0.85,97.58 1.36,97.88 C2.39,98.47 4.04,98.47 5.06,97.88 C5.57,97.59 5.82,97.2 5.82,96.82 L5.82,1.58 C5.82,1.57 5.82,1.57 5.82,1.58 Z" fill="#86C3F2"></path>
                        <path d="M5.82,1.56 L5.82,96.8 C5.82,97.19 5.57,97.57 5.06,97.86 C4.04,98.45 2.38,98.45 1.36,97.86 C0.84,97.56 0.59,97.17 0.59,96.78 L0.59,1.54 C0.59,1.93 0.85,2.32 1.36,2.62 C2.39,3.21 4.04,3.21 5.06,2.62 C5.56,2.33 5.82,1.95 5.82,1.56 Z" fill="#8CD9F4"></path>
                    </g>
                    <polygon id="Path" fill="#FF6342" points="21.57 7.83 21.55 12.65 5.33 3.28 3.83 4.15 3.72 42.25 27.28 55.85 27.29 51.02 46.31 62 47.8 61.13 47.91 23.04"></polygon>
                    <polygon id="Path" fill="#AED7FF" points="23.82 13.96 23.71 52.05 21.46 45.92 21.57 7.83"></polygon>
                    <polygon id="Path" fill="url(#linearGradient-21)" points="46.41 23.91 46.31 62 25.03 49.72 25.13 11.62"></polygon>
                    <polygon id="Path" fill="url(#linearGradient-22)" points="27.38 17.75 27.28 55.85 3.72 42.25 3.83 4.15"></polygon>
                    <polygon id="Path" fill="#E5B5D4" points="47.91 23.04 47.8 61.13 46.31 62 46.41 23.91"></polygon>
                    <polygon id="Path" fill="#FFBABC" points="47.91 23.04 46.41 23.91 25.13 11.62 27.38 17.75 3.83 4.15 5.33 3.28 23.82 13.96 21.57 7.83"></polygon>
                </g>
                <g id="Group" transform="translate(307.000000, 0.000000)" fill-rule="nonzero">
                    <polygon id="Path" fill="#FF9911" points="71.3416031 77.8635034 86.9022038 68.824803 24.3210011 130.764706 8.76040038 139.803406"></polygon>
                    <polygon id="Path" fill="#FFE471" points="41.1037018 60.4032026 56.6643025 51.3645022 86.9022038 68.824803 71.3416031 77.8635034"></polygon>
                    <polygon id="Path" fill="#FF9911" points="63.2225027 28.8827013 78.7710034 19.8319009 56.6643025 51.3645022 41.1037018 60.4032026"></polygon>
                    <polygon id="Path" fill="#FFE471" points="29.3183013 9.3049004 44.8789019 0.266200012 78.7710034 19.8319009 63.2225027 28.8827013"></polygon>
                    <polygon id="Path" fill="url(#linearGradient-23)" points="71.3416031 77.8635034 8.76040038 139.803406 33.7227015 77.2343033 0.726000031 58.1889025 29.3183013 9.3049004 63.2225027 28.8827013 41.1037018 60.4032026"></polygon>
                </g>
                <g id="Group" transform="translate(119.000000, 113.000000)" fill-rule="nonzero">
                    <path d="M41.8,5.55 L41.85,59.13 C41.85,60.37 42.67,61.61 44.29,62.55 C47.56,64.45 52.89,64.45 56.19,62.55 C57.85,61.59 58.68,60.34 58.6700893,59.08 L58.62,5.5 C58.62,5.5 58.62,5.51 58.62,5.51 C58.62,4.27 57.81,3.03 56.18,2.08 C52.91,0.18 47.58,0.18 44.28,2.08 C42.57,3.07 41.75,4.37 41.8,5.66 C41.8,5.62 41.8,5.59 41.8,5.55 Z" id="Path" fill-opacity="0.9" fill="#7849C1" opacity="0.6"></path>
                    <g opacity="0.6" transform="translate(41.000000, 0.000000)" fill="#CBB0FF" id="Path">
                        <g>
                            <path d="M15.18,2.08 C18.45,3.98 18.44,7.07 15.14,8.97 C11.84,10.87 6.52,10.87 3.24,8.97 C-0.03,7.07 -0.02,3.98 3.28,2.08 C6.57,0.18 11.9,0.18 15.18,2.08 Z"></path>
                        </g>
                    </g>
                    <g transform="translate(41.000000, 36.000000)" id="Path">
                        <path d="M3.24,8.69 C6.51,10.59 11.84,10.59 15.14,8.69 C16.8,7.73 17.63,6.48 17.62,5.22 L17.67,23.08 C17.67,24.33 16.85,25.59 15.19,26.55 C11.89,28.45 6.57,28.45 3.29,26.55 C1.66,25.6 0.85,24.37 0.85,23.13 L0.8,5.27 C0.8,6.51 1.61,7.75 3.24,8.69 Z" fill-opacity="0.5" fill="#570DBF"></path>
                        <path d="M15.18,1.8 C18.45,3.7 18.44,6.79 15.14,8.69 C11.84,10.59 6.52,10.59 3.24,8.69 C-0.03,6.79 -0.02,3.7 3.28,1.8 C6.58,-0.1 11.9,-0.1 15.18,1.8 Z" fill-opacity="0.9" fill="#7849C1" opacity="0.6"></path>
                    </g>
                    <path d="M21.32,15.58 L21.37,69.16 C21.37,70.4 22.19,71.64 23.81,72.58 C27.08,74.48 32.41,74.48 35.71,72.58 C37.37,71.62 38.2,70.37 38.1900893,69.11 L38.14,15.53 C38.14,15.53 38.14,15.54 38.14,15.54 C38.14,14.3 37.33,13.05 35.7,12.11 C32.43,10.21 27.1,10.21 23.8,12.11 C22.09,13.1 21.27,14.4 21.32,15.69 C21.32,15.65 21.32,15.61 21.32,15.58 Z" id="Path" fill="#FEC377"></path>
                    <path d="M35.7,12.11 C38.97,14.01 38.96,17.1 35.66,19 C32.36,20.9 27.04,20.9 23.76,19 C20.49,17.1 20.5,14.01 23.8,12.11 C27.1,10.2 32.43,10.2 35.7,12.11 Z" id="Path" fill="#FEDAAA"></path>
                    <g transform="translate(21.000000, 28.000000)" id="Path">
                        <path d="M2.77,8.83 C6.04,10.73 11.37,10.73 14.67,8.83 C16.33,7.87 17.16,6.62 17.15,5.36 L17.2,41.1 C17.2,42.35 16.38,43.61 14.72,44.57 C11.42,46.47 6.1,46.47 2.82,44.57 C1.19,43.62 0.38,42.39 0.38,41.15 L0.329909634,5.41 C0.32,6.65 1.14,7.89 2.77,8.83 Z" fill="#FF9C43" opacity="0.7"></path>
                        <path d="M14.7,1.94 C17.97,3.84 17.96,6.93 14.66,8.83 C11.36,10.73 6.04,10.73 2.76,8.83 C-0.51,6.93 -0.5,3.84 2.8,1.94 C6.1,0.04 11.43,0.04 14.7,1.94 Z" fill="#FF8827"></path>
                    </g>
                    <path d="M0.85,27.36 L0.9,80.94 C0.9,82.18 1.72,83.42 3.34,84.36 C6.61,86.26 11.94,86.26 15.24,84.36 C16.9,83.4 17.73,82.15 17.7200893,80.89 L17.67,27.31 C17.67,27.31 17.67,27.32 17.67,27.32 C17.67,26.08 16.86,24.83 15.23,23.89 C11.96,21.99 6.63,21.99 3.33,23.89 C1.62,24.87 0.8,26.18 0.85,27.47 C0.85,27.43 0.85,27.4 0.85,27.36 Z" id="Path" fill="#4089C6" opacity="0.9"></path>
                    <g opacity="0.9" transform="translate(0.000000, 22.000000)" fill="#8CC2F4" id="Path">
                        <path d="M15.22,1.89 C18.49,3.79 18.48,6.88 15.18,8.78 C11.88,10.68 6.56,10.68 3.28,8.78 C0.01,6.88 0.02,3.79 3.32,1.89 C6.62,-0.01 11.95,-0.01 15.22,1.89 Z"></path>
                    </g>
                </g>
            </g>
        </g>
    </g>
</svg>