<?xml version="1.0" encoding="UTF-8"?>
<svg width="486px" height="417px" viewBox="0 0 486 417" version="1.1" xmlns="http://www.w3.org/2000/svg" xmlns:xlink="http://www.w3.org/1999/xlink">
    <title>Минимум документов-02</title>
    <defs>
        <linearGradient x1="16.2158509%" y1="49.9987997%" x2="82.9175768%" y2="49.9987997%" id="linearGradient-1">
            <stop stop-color="#E6EBFF" offset="0%"></stop>
            <stop stop-color="#E9F2FF" stop-opacity="0.4" offset="100%"></stop>
        </linearGradient>
        <linearGradient x1="-0.00105595575%" y1="50.0007987%" x2="100.000499%" y2="50.0007987%" id="linearGradient-2">
            <stop stop-color="#50BBFF" stop-opacity="0.3" offset="0%"></stop>
            <stop stop-color="#56BDFF" stop-opacity="0.3137" offset="1.96%"></stop>
            <stop stop-color="#82CBFF" stop-opacity="0.4271" offset="18.16%"></stop>
            <stop stop-color="#A6D6FF" stop-opacity="0.5418" offset="34.55%"></stop>
            <stop stop-color="#C2DFFF" stop-opacity="0.6565" offset="50.93%"></stop>
            <stop stop-color="#D6E6FF" stop-opacity="0.771" offset="67.29%"></stop>
            <stop stop-color="#E2EAFF" stop-opacity="0.8855" offset="83.64%"></stop>
            <stop stop-color="#E6EBFF" offset="100%"></stop>
        </linearGradient>
        <linearGradient x1="16.2168964%" y1="50.0016038%" x2="82.9170247%" y2="50.0016038%" id="linearGradient-3">
            <stop stop-color="#E6EBFF" offset="0%"></stop>
            <stop stop-color="#E9F2FF" offset="100%"></stop>
        </linearGradient>
        <linearGradient x1="0.00362033693%" y1="50.0061421%" x2="100.000033%" y2="50.0061421%" id="linearGradient-4">
            <stop stop-color="#50BBFF" stop-opacity="0.3" offset="0%"></stop>
            <stop stop-color="#56BDFF" stop-opacity="0.3137" offset="1.96%"></stop>
            <stop stop-color="#82CBFF" stop-opacity="0.4271" offset="18.16%"></stop>
            <stop stop-color="#A6D6FF" stop-opacity="0.5418" offset="34.55%"></stop>
            <stop stop-color="#C2DFFF" stop-opacity="0.6565" offset="50.93%"></stop>
            <stop stop-color="#D6E6FF" stop-opacity="0.771" offset="67.29%"></stop>
            <stop stop-color="#E2EAFF" stop-opacity="0.8855" offset="83.64%"></stop>
            <stop stop-color="#E6EBFF" offset="100%"></stop>
        </linearGradient>
        <linearGradient x1="0.026064629%" y1="50.0439135%" x2="100.010242%" y2="50.0439135%" id="linearGradient-5">
            <stop stop-color="#A0AEFF" offset="0%"></stop>
            <stop stop-color="#A7B6FF" offset="22.96%"></stop>
            <stop stop-color="#BBCBFF" offset="58.19%"></stop>
            <stop stop-color="#DBEDFF" offset="100%"></stop>
        </linearGradient>
        <linearGradient x1="0.0177630149%" y1="49.9735233%" x2="100.006909%" y2="49.9735233%" id="linearGradient-6">
            <stop stop-color="#FFA73E" offset="0%"></stop>
            <stop stop-color="#FFB182" offset="44.11%"></stop>
            <stop stop-color="#FFB9B5" offset="81.65%"></stop>
            <stop stop-color="#FFBCC9" offset="100%"></stop>
        </linearGradient>
        <linearGradient x1="-0.000521292581%" y1="49.9902228%" x2="99.9828744%" y2="49.9902228%" id="linearGradient-7">
            <stop stop-color="#A0AEFF" offset="0%"></stop>
            <stop stop-color="#A7B6FF" offset="22.96%"></stop>
            <stop stop-color="#BBCBFF" offset="58.19%"></stop>
            <stop stop-color="#DBEDFF" offset="100%"></stop>
        </linearGradient>
        <linearGradient x1="0.0169806966%" y1="50.0050369%" x2="100.005866%" y2="50.0050369%" id="linearGradient-8">
            <stop stop-color="#FFA73E" offset="0%"></stop>
            <stop stop-color="#E4A566" offset="0.07062241%"></stop>
            <stop stop-color="#AC9FB8" offset="0.2261486%"></stop>
            <stop stop-color="#899CEB" offset="0.3364125%"></stop>
            <stop stop-color="#7B9BFF" offset="0.3902688%"></stop>
            <stop stop-color="#FFBCC9" offset="100%"></stop>
        </linearGradient>
        <linearGradient x1="-0.00208517032%" y1="49.978569%" x2="99.9823531%" y2="49.978569%" id="linearGradient-9">
            <stop stop-color="#A0AEFF" offset="0%"></stop>
            <stop stop-color="#A7B6FF" offset="22.96%"></stop>
            <stop stop-color="#BBCBFF" offset="58.19%"></stop>
            <stop stop-color="#DBEDFF" offset="100%"></stop>
        </linearGradient>
        <linearGradient x1="-0.00568353827%" y1="50.0058519%" x2="99.9872741%" y2="50.0058519%" id="linearGradient-10">
            <stop stop-color="#50BBFF" stop-opacity="0.3" offset="0%"></stop>
            <stop stop-color="#56BDFF" stop-opacity="0.3137" offset="1.96%"></stop>
            <stop stop-color="#82CBFF" stop-opacity="0.4271" offset="18.16%"></stop>
            <stop stop-color="#A6D6FF" stop-opacity="0.5418" offset="34.55%"></stop>
            <stop stop-color="#C2DFFF" stop-opacity="0.6565" offset="50.93%"></stop>
            <stop stop-color="#D6E6FF" stop-opacity="0.771" offset="67.29%"></stop>
            <stop stop-color="#E2EAFF" stop-opacity="0.8855" offset="83.64%"></stop>
            <stop stop-color="#E6EBFF" offset="100%"></stop>
        </linearGradient>
        <linearGradient x1="37.7011252%" y1="62.7536962%" x2="63.9205345%" y2="35.7929072%" id="linearGradient-11">
            <stop stop-color="#FFA73E" offset="0%"></stop>
            <stop stop-color="#FFB182" offset="44.11%"></stop>
            <stop stop-color="#FFB9B5" offset="81.65%"></stop>
            <stop stop-color="#FFBCC9" offset="100%"></stop>
        </linearGradient>
        <linearGradient x1="-0.00386779184%" y1="50.0055181%" x2="99.9883966%" y2="50.0055181%" id="linearGradient-12">
            <stop stop-color="#FFA73E" offset="0%"></stop>
            <stop stop-color="#E4A566" offset="0.07062241%"></stop>
            <stop stop-color="#AC9FB8" offset="0.2261486%"></stop>
            <stop stop-color="#899CEB" offset="0.3364125%"></stop>
            <stop stop-color="#7B9BFF" offset="0.3902688%"></stop>
            <stop stop-color="#FFBCC9" offset="100%"></stop>
        </linearGradient>
        <linearGradient x1="0.00321970245%" y1="49.9998749%" x2="99.9984849%" y2="49.9998749%" id="linearGradient-13">
            <stop stop-color="#50BBFF" stop-opacity="0.3" offset="0%"></stop>
            <stop stop-color="#56BDFF" stop-opacity="0.3137" offset="1.96%"></stop>
            <stop stop-color="#82CBFF" stop-opacity="0.4271" offset="18.16%"></stop>
            <stop stop-color="#A6D6FF" stop-opacity="0.5418" offset="34.55%"></stop>
            <stop stop-color="#C2DFFF" stop-opacity="0.6565" offset="50.93%"></stop>
            <stop stop-color="#D6E6FF" stop-opacity="0.771" offset="67.29%"></stop>
            <stop stop-color="#E2EAFF" stop-opacity="0.8855" offset="83.64%"></stop>
            <stop stop-color="#E6EBFF" offset="100%"></stop>
        </linearGradient>
        <linearGradient x1="0.0118139306%" y1="50.000744%" x2="100.011568%" y2="50.000744%" id="linearGradient-14">
            <stop stop-color="#FF6E91" offset="0%"></stop>
            <stop stop-color="#FF6E8D" stop-opacity="0.8741" offset="17.99%"></stop>
            <stop stop-color="#FF6E81" stop-opacity="0.7482" offset="35.97%"></stop>
            <stop stop-color="#FF6F6D" stop-opacity="0.6223" offset="53.96%"></stop>
            <stop stop-color="#FF6F51" stop-opacity="0.4963" offset="71.96%"></stop>
            <stop stop-color="#FF702D" stop-opacity="0.3713" offset="89.81%"></stop>
            <stop stop-color="#FF7015" stop-opacity="0.3" offset="100%"></stop>
        </linearGradient>
        <linearGradient x1="8.00057026%" y1="30.8708448%" x2="95.4235858%" y2="70.9908353%" id="linearGradient-15">
            <stop stop-color="#D8DCF0" offset="0%"></stop>
            <stop stop-color="#EAEAF4" stop-opacity="0" offset="99.71%"></stop>
            <stop stop-color="#E6E9F4" stop-opacity="0.0484" offset="99.76%"></stop>
            <stop stop-color="#DAE5F5" stop-opacity="0.0969" offset="99.81%"></stop>
            <stop stop-color="#C6DFF7" stop-opacity="0.1453" offset="99.85%"></stop>
            <stop stop-color="#AAD6F9" stop-opacity="0.1938" offset="99.9%"></stop>
            <stop stop-color="#86CBFB" stop-opacity="0.2423" offset="99.94%"></stop>
            <stop stop-color="#5ABEFE" stop-opacity="0.2903" offset="99.99%"></stop>
            <stop stop-color="#50BBFF" stop-opacity="0.3" offset="100%"></stop>
        </linearGradient>
        <linearGradient x1="41.6618654%" y1="82.9448549%" x2="102.090694%" y2="-155.813443%" id="linearGradient-16">
            <stop stop-color="#F1F2FF" offset="0%"></stop>
            <stop stop-color="#F4F5FF" offset="8.22%"></stop>
            <stop stop-color="#FDFDFF" offset="41.62%"></stop>
            <stop stop-color="#FFFFFF" offset="100%"></stop>
        </linearGradient>
        <linearGradient x1="11.132279%" y1="9.22240783%" x2="92.0368925%" y2="94.1048801%" id="linearGradient-17">
            <stop stop-color="#FFA73E" offset="0%"></stop>
            <stop stop-color="#E4A566" offset="0.07062241%"></stop>
            <stop stop-color="#AC9FB8" offset="0.2261486%"></stop>
            <stop stop-color="#899CEB" offset="0.3364125%"></stop>
            <stop stop-color="#7B9BFF" offset="0.3902688%"></stop>
            <stop stop-color="#FFBCC9" offset="100%"></stop>
        </linearGradient>
        <linearGradient x1="68.2257732%" y1="29.5599078%" x2="31.7661856%" y2="70.4281845%" id="linearGradient-18">
            <stop stop-color="#E6EBFF" offset="0%"></stop>
            <stop stop-color="#E9F2FF" stop-opacity="0.4" offset="100%"></stop>
        </linearGradient>
        <linearGradient x1="0%" y1="50.0019952%" x2="100.004495%" y2="50.0019952%" id="linearGradient-19">
            <stop stop-color="#D5D8EF" offset="0%"></stop>
            <stop stop-color="#E6E8F6" offset="15.27%"></stop>
            <stop stop-color="#F4F5FB" offset="34.55%"></stop>
            <stop stop-color="#FDFDFE" offset="58.38%"></stop>
            <stop stop-color="#FFFFFF" offset="100%"></stop>
        </linearGradient>
        <linearGradient x1="9.56297217e-05%" y1="50.0005441%" x2="100.00459%" y2="50.0005441%" id="linearGradient-20">
            <stop stop-color="#F1F2FF" offset="0%"></stop>
            <stop stop-color="#F4F5FF" offset="8.22%"></stop>
            <stop stop-color="#FDFDFF" offset="41.62%"></stop>
            <stop stop-color="#FFFFFF" offset="100%"></stop>
        </linearGradient>
    </defs>
    <g id="Основной-сайт" stroke="none" stroke-width="1" fill="none" fill-rule="evenodd">
        <g id="Новый-блок-с-иллюстрацией-Copy" transform="translate(-796.000000, -1049.000000)">
            <g id="Минимум-документов-02" transform="translate(796.000000, 1049.000000)">
                <g id="Group" transform="translate(0.000000, 160.000000)" fill-rule="nonzero">
                    <path d="M171.59,254.29 L2.87,156.88 C-0.92,154.69 -0.92,149.23 2.87,147.04 L171.59,49.63 C175.77,47.22 180.92,47.22 185.1,49.63 L353.82,147.04 C357.61,149.23 357.61,154.69 353.82,156.88 L185.1,254.29 C180.92,256.7 175.77,256.7 171.59,254.29 Z" id="Path" fill="#F3F6FD"></path>
                    <path d="M171.86,206.9 L3.14,109.49 C-0.65,107.3 -0.65,101.84 3.14,99.65 L171.86,2.24 C176.04,-0.17 181.19,-0.17 185.37,2.24 L354.09,99.65 C357.88,101.84 357.88,107.3 354.09,109.49 L185.37,206.9 C181.19,209.31 176.04,209.31 171.86,206.9 Z" id="Path" fill="url(#linearGradient-1)"></path>
                    <path d="M354.09,105.11 L185.37,202.52 C181.19,204.93 176.04,204.93 171.86,202.52 L3.14,105.11 C2.02,104.46 1.23,103.52 0.78,102.46 C-0.3,104.96 0.48,108.12 3.14,109.66 L171.86,207.07 C176.04,209.48 181.19,209.48 185.37,207.07 L354.09,109.66 C356.75,108.12 357.54,104.97 356.45,102.46 C356,103.52 355.22,104.46 354.09,105.11 Z" id="Path" fill="url(#linearGradient-2)"></path>
                </g>
                <g id="Group" transform="translate(239.000000, 76.000000)" fill-rule="nonzero">
                    <path d="M118.7,162.4 L2.53,95.33 C-0.08,93.82 -0.08,90.06 2.53,88.55 L118.7,21.49 C121.58,19.83 125.12,19.83 128,21.49 L244.17,88.56 C246.78,90.07 246.78,93.83 244.17,95.34 L128,162.4 C125.12,164.06 121.57,164.06 118.7,162.4 Z" id="Path" fill="#F3F6FD"></path>
                    <path d="M118.88,142.26 L2.71,75.19 C0.1,73.68 0.1,69.92 2.71,68.41 L118.88,1.34 C121.76,-0.32 125.3,-0.32 128.18,1.34 L244.35,68.41 C246.96,69.92 246.96,73.68 244.35,75.19 L128.18,142.26 C125.3,143.92 121.76,143.92 118.88,142.26 Z" id="Path" fill="url(#linearGradient-3)"></path>
                    <path d="M244.35,72.17 L128.18,139.24 C125.3,140.9 121.76,140.9 118.88,139.24 L2.71,72.17 C1.94,71.72 1.4,71.08 1.08,70.35 C0.33,72.07 0.87,74.25 2.71,75.3 L118.88,142.37 C121.76,144.03 125.3,144.03 128.18,142.37 L244.35,75.3 C246.18,74.24 246.72,72.07 245.98,70.35 C245.66,71.08 245.12,71.73 244.35,72.17 Z" id="Path" fill="url(#linearGradient-4)"></path>
                </g>
                <g id="Group" transform="translate(105.000000, 297.000000)" fill-rule="nonzero" opacity="0.6">
                    <g id="Path">
                        <path d="M35.32,21.45 L39.05,12.2 L39.07,10.38 C39.09,10.33 39.06,10.27 39,10.23 L21.75,0.27 C21.6,0.18 21.35,0.23 21.3,0.34 L17.64,9.4 C17.52,9.71 17.1,9.95 16.57,10.02 L0.93,12.17 C0.8,12.19 0.72,12.26 0.73,12.32 C0.73,12.32 0.73,12.32 0.73,12.32 L0.71,14.14 L18.29,24.25 L34.25,22.06 C34.79,22 35.2,21.76 35.32,21.45" fill="url(#linearGradient-5)"></path>
                        <g fill="url(#linearGradient-6)">
                            <path d="M39,10.24 C39.07,10.28 39.09,10.33 39.07,10.39 L35.34,19.64 C35.22,19.95 34.8,20.19 34.27,20.26 L18.31,22.45 C18.22,22.46 18.12,22.45 18.06,22.41 L0.81,12.45 C0.66,12.36 0.729788317,12.22 0.94,12.19 L16.58,10.04 C17.11,9.97 17.52,9.73 17.65,9.42 L21.31,0.36 C21.36,0.24 21.61,0.2 21.76,0.29 L39,10.24 Z"></path>
                        </g>
                    </g>
                    <g transform="translate(25.000000, 14.000000)" id="Path">
                        <path d="M17.82,24.11 L33.78,21.92 C34.31,21.85 34.72,21.61 34.85,21.3 L38.58,12.05 L38.6,10.23 C38.62,10.18 38.59,10.12 38.53,10.09 L21.28,0.13 C21.13,0.04 20.88,0.09 20.83,0.2 L17.17,9.26 C17.05,9.57 16.63,9.81 16.1,9.88 L0.46,12.03 C0.33,12.05 0.25,12.12 0.26,12.18 C0.26,12.18 0.26,12.18 0.26,12.18 L0.24,14 L17.82,24.11 Z" fill="url(#linearGradient-7)"></path>
                        <g fill="url(#linearGradient-8)">
                            <path d="M38.52,10.09 C38.59,10.13 38.61,10.18 38.59,10.23 L34.86,19.48 C34.74,19.79 34.32,20.03 33.79,20.1 L17.83,22.29 C17.74,22.3 17.65,22.29 17.58,22.25 L0.33,12.29 C0.18,12.2 0.249788317,12.06 0.46,12.03 L16.1,9.88 C16.63,9.81 17.04,9.57 17.17,9.26 L20.83,0.2 C20.88,0.08 21.13,0.04 21.28,0.13 L38.52,10.09 Z"></path>
                        </g>
                    </g>
                    <g transform="translate(49.000000, 27.000000)" id="Path">
                        <path d="M18.34,24.96 L34.3,22.77 C34.83,22.7 35.24,22.46 35.37,22.15 L39.1,12.9 L39.12,11.08 C39.14,11.03 39.11,10.97 39.05,10.94 L21.8,0.98 C21.65,0.89 21.4,0.94 21.35,1.05 L17.69,10.11 C17.57,10.42 17.15,10.66 16.62,10.73 L0.98,12.88 C0.85,12.9 0.77,12.97 0.78,13.03 C0.78,13.03 0.78,13.03 0.78,13.03 L0.76,14.85 L18.34,24.96 Z" fill="url(#linearGradient-9)"></path>
                        <g fill="#BDC8FF">
                            <path d="M39.04,10.93 C39.11,10.97 39.13,11.02 39.11,11.08 L35.38,20.33 C35.26,20.64 34.84,20.88 34.31,20.95 L18.35,23.14 C18.26,23.15 18.16,23.14 18.1,23.1 L0.85,13.14 C0.7,13.05 0.769788317,12.91 0.98,12.88 L16.62,10.73 C17.15,10.66 17.56,10.42 17.69,10.11 L21.35,1.05 C21.4,0.93 21.65,0.89 21.8,0.98 L39.04,10.93 Z"></path>
                        </g>
                    </g>
                </g>
                <g id="Group" transform="translate(17.000000, 130.000000)">
                    <path d="M35.9,58.73 L0.67,38.39 C-0.12,37.93 -0.12,36.79 0.67,36.34 L35.9,16 C36.77,15.5 37.85,15.5 38.72,16 L73.95,36.34 C74.74,36.8 74.74,37.94 73.95,38.39 L38.72,58.73 C37.85,59.24 36.78,59.24 35.9,58.73 Z" id="Path" fill="#F3F6FD" fill-rule="nonzero"></path>
                    <path d="M0,41.74 L37.23,63.24 L74.37,41.74 L37.03,19.95 L0,41.74 Z" id="Path" stroke="#B3DAFF" stroke-width="0.2807" stroke-dasharray="4.3623"></path>
                    <path d="M35.9,43.95 L0.67,23.61 C-0.12,23.15 -0.12,22.01 0.67,21.56 L35.9,1.22 C36.77,0.72 37.85,0.72 38.72,1.22 L73.95,21.56 C74.74,22.02 74.74,23.16 73.95,23.61 L38.72,43.95 C37.85,44.46 36.78,44.46 35.9,43.95 Z" id="Path" fill="#F0F0FF" fill-rule="nonzero"></path>
                    <path d="M73.95,22.7 L38.72,43.04 C37.85,43.54 36.77,43.54 35.9,43.04 L0.68,22.7 C0.45,22.56 0.28,22.37 0.19,22.15 C-0.04,22.67 0.13,23.33 0.68,23.65 L35.91,43.99 C36.78,44.49 37.86,44.49 38.73,43.99 L73.96,23.65 C74.52,23.33 74.68,22.67 74.45,22.15 C74.35,22.37 74.18,22.57 73.95,22.7 Z" id="Path" fill="url(#linearGradient-10)" fill-rule="nonzero"></path>
                    <polygon id="Path" fill="url(#linearGradient-11)" fill-rule="nonzero" points="14 19.65 28.22 11.44 42.44 19.65 28.22 27.74"></polygon>
                    <polygon id="Path" fill="#95B0E5" fill-rule="nonzero" points="14 19.65 28.22 27.74 42.44 19.65 42.44 19.95 28.22 28.02 14 19.87"></polygon>
                    <polygon id="Path" fill="url(#linearGradient-12)" fill-rule="nonzero" points="31.93 22.84 46.15 14.63 60.37 22.84 46.15 30.94"></polygon>
                    <polygon id="Path" fill="#95B0E5" fill-rule="nonzero" points="31.93 22.84 46.15 30.94 60.37 22.84 60.37 23.15 46.15 31.22 31.93 23.07"></polygon>
                </g>
                <g id="Group" transform="translate(314.000000, 279.000000)">
                    <path d="M65.15,104.25 L1.79,67.67 C0.37,66.85 0.37,64.8 1.79,63.97 L65.15,27.39 C66.72,26.48 68.65,26.48 70.22,27.39 L133.58,63.97 C135,64.79 135,66.84 133.58,67.67 L70.22,104.25 C68.65,105.15 66.72,105.15 65.15,104.25 Z" id="Path" fill="#F3F6FD" fill-rule="nonzero"></path>
                    <path d="M0.57,73.69 L67.53,112.35 L134.32,73.69 L67.18,34.49 L0.57,73.69 Z" id="Path" stroke="#B3DAFF" stroke-width="0.5049" stroke-dasharray="7.8459"></path>
                    <path d="M65.15,77.67 L1.79,41.09 C0.37,40.27 0.37,38.22 1.79,37.39 L65.15,0.81 C66.72,-0.1 68.65,-0.1 70.22,0.81 L133.58,37.39 C135,38.21 135,40.26 133.58,41.09 L70.22,77.67 C68.65,78.57 66.72,78.57 65.15,77.67 Z" id="Path" fill="#F0F0FF" fill-rule="nonzero"></path>
                    <path d="M133.58,39.44 L70.22,76.02 C68.65,76.93 66.72,76.93 65.15,76.02 L1.79,39.44 C1.37,39.2 1.07,38.84 0.9,38.45 C0.49,39.39 0.79,40.57 1.79,41.15 L65.15,77.73 C66.72,78.64 68.65,78.64 70.22,77.73 L133.58,41.15 C134.58,40.57 134.87,39.39 134.47,38.45 C134.29,38.85 134,39.2 133.58,39.44 Z" id="Path" fill="url(#linearGradient-13)" fill-rule="nonzero"></path>
                </g>
                <g id="Group" transform="translate(427.000000, 46.000000)" fill-rule="nonzero">
                    <g id="Path">
                        <path d="M37.96,19.38 L5.93,0.88 C3.34,-0.62 0.41,1.22 0.41,4.21 L0.41,26.67 L0.41,36.33 L8.77,31.5 L36.41,47.48 C39,48.96 42.23,47.09 42.23,44.11 L42.23,26.77 C42.23,23.72 40.61,20.9 37.96,19.38 Z" fill="#FFB561"></path>
                        <path d="M42.23,26.8 C42.23,23.75 40.6,20.93 37.96,19.4 L5.98,0.91 C4.47,0.04 2.92,0.13 1.6,1.32 C2.44,1.17 3.27,1.26 4.11,1.74 L36.14,20.23 C38.78,21.76 40.41,24.58 40.41,27.63 L40.41,44.97 C40.41,46.22 39.84,47.28 38.99,47.97 C40.75,47.66 42.23,46.16 42.23,44.14 L42.23,26.8 L42.23,26.8 Z" fill="url(#linearGradient-14)"></path>
                    </g>
                    <path d="M36.21,28.55 L8.92,12.8 C8.63,12.63 8.26,12.84 8.26,13.18 L8.26,13.27 C8.26,13.81 8.55,14.32 9.02,14.59 L36.31,30.25 C36.6,30.42 36.97,30.21 36.97,29.87 L36.97,29.87 C36.97,29.32 36.68,28.82 36.21,28.55 Z" id="Path" fill="#FFD880"></path>
                    <path d="M36.21,32.41 L8.92,16.65 C8.63,16.48 8.26,16.69 8.26,17.03 L8.26,17.12 C8.26,17.66 8.55,18.17 9.02,18.44 L36.31,34.1 C36.6,34.27 36.97,34.06 36.97,33.72 L36.97,33.72 C36.97,33.18 36.68,32.68 36.21,32.41 Z" id="Path" fill="#FFD880"></path>
                    <path d="M36.21,36.27 L8.92,20.51 C8.63,20.34 8.26,20.55 8.26,20.89 L8.26,20.98 C8.26,21.52 8.55,22.03 9.02,22.3 L36.31,37.96 C36.6,38.13 36.97,37.92 36.97,37.58 L36.97,37.58 C36.97,37.04 36.68,36.54 36.21,36.27 Z" id="Path" fill="#FFD880"></path>
                </g>
                <g id="Group" transform="translate(319.000000, 0.000000)" fill-rule="nonzero">
                    <polygon id="Path" fill="url(#linearGradient-15)" points="21.0640967 110 110 161.386807 89.9144617 173 0 122.165604"></polygon>
                    <g transform="translate(11.000000, 0.000000)" id="Path">
                        <polygon fill="#EEBF00" points="14.9755556 16.4883654 0.0869444444 25.1167308 0.0869444444 25.1041346 0.0869444444 25.1167308 0.0869444444 84.4698077 0.0869444444 84.4698077 80.3818056 130.6725 89.6334722 125.26875 89.6334722 65.9156731"></polygon>
                        <polygon fill="#FFDE56" points="0.0869444444 25.1167308 14.9755556 16.4883654 89.6334722 65.9156731 80.3818056 71.3068269"></polygon>
                        <polygon fill="#7088C4" points="49.5934722 4.38346154 14.9755556 16.4883654 0.0869444444 25.1041346 0.0869444444 25.1041346 37.1188889 88.4879808 80.3818056 71.3068269 89.6334722 65.9156731"></polygon>
                        <g transform="translate(9.111111, 3.778846)" fill="#BDC8FF">
                            <polygon points="0.214861111 15.9341346 5.86444444 12.7095192 40.4823611 0.604615385 40.4823611 0.604615385"></polygon>
                            <polygon points="40.4823611 0.604615385 80.5223611 62.1368269 0.214861111 15.9341346"></polygon>
                        </g>
                        <g transform="translate(11.638889, 0.000000)" fill="#C1C1F7">
                            <polygon points="1.73152778 0.440865385 0.0379166667 1.41076923 0.0379166667 89.5838462 57.1909722 122.472404 58.5054167 118.555 58.8845833 33.3294231"></polygon>
                            <polygon points="57.1909722 34.2867308 58.8845833 33.3294231 59.2258333 118.555 57.1909722 122.472404"></polygon>
                        </g>
                        <polygon fill="#CCC9F4" points="11.6768056 1.41076923 13.3704167 0.440865385 70.5234722 33.3294231 68.8298611 34.2867308"></polygon>
                        <polygon fill="url(#linearGradient-16)" points="68.8298611 34.2867308 68.8298611 122.472404 11.6768056 89.5838462 11.6768056 1.41076923"></polygon>
                        <g transform="translate(20.486111, 22.673077)" fill="#DADAF2">
                            <path d="M38.675,50.9010577 L38.675,50.9010577 C38.675,51.6064423 37.9040278,52.0473077 37.2847222,51.6946154 L2.48986111,31.6793269 C1.42819444,31.0747115 0.783611111,29.9536538 0.783611111,28.7318269 L0.783611111,28.7318269 C0.783611111,28.0264423 1.55458333,27.5855769 2.17388889,27.9382692 L36.96875,47.9535577 C38.0304167,48.5707692 38.675,49.6918269 38.675,50.9010577 Z"></path>
                            <path d="M38.7002778,41.7688462 L38.7002778,41.7688462 C38.7002778,42.4742308 37.9293056,42.9150962 37.31,42.5624038 L2.51513889,22.5471154 C1.45347222,21.9425 0.808888889,20.8214423 0.808888889,19.5996154 L0.808888889,19.5996154 C0.808888889,18.8942308 1.57986111,18.4533654 2.19916667,18.8060577 L36.9940278,38.8213462 C38.0556944,39.4259615 38.7002778,40.5596154 38.7002778,41.7688462 Z"></path>
                            <path d="M38.7255556,32.6366346 L38.7255556,32.6366346 C38.7255556,33.3420192 37.9545833,33.7828846 37.3352778,33.4301923 L2.54041667,13.4149038 C1.47875,12.8102885 0.834166667,11.6892308 0.834166667,10.4674038 L0.834166667,10.4674038 C0.834166667,9.76201923 1.60513889,9.32115385 2.22444444,9.67384615 L37.0193056,29.6891346 C38.0809722,30.29375 38.7255556,31.4148077 38.7255556,32.6366346 Z"></path>
                            <path d="M38.7508333,23.5044231 L38.7508333,23.5044231 C38.7508333,24.2098077 37.9798611,24.6506731 37.3605556,24.2979808 L2.56569444,4.28269231 C1.50402778,3.67807692 0.859444444,2.55701923 0.859444444,1.33519231 L0.859444444,1.33519231 C0.859444444,0.629807692 1.63041667,0.188942308 2.24972222,0.541634615 L37.0445833,20.5569231 C38.10625,21.1615385 38.7508333,22.2825962 38.7508333,23.5044231 Z"></path>
                        </g>
                        <polygon fill="url(#linearGradient-17)" points="0.0869444444 25.1041346 0.0869444444 84.4698077 80.3818056 130.6725 80.3818056 71.3068269 37.1188889 88.4879808"></polygon>
                        <g transform="translate(0.000000, 65.500000)" fill="#BDC8FF">
                            <polygon points="28.4359722 8.13711538 47.34375 18.9446154 80.3818056 65.1725 0.0869444444 18.9698077"></polygon>
                            <polygon points="80.3818056 5.80682692 89.6334722 0.415673077 89.6334722 59.76875 80.3818056 65.1725"></polygon>
                        </g>
                    </g>
                </g>
                <g id="Group" transform="translate(144.000000, 266.000000)" fill-rule="nonzero">
                    <path d="M36.35,24.4 C28.88,28.72 16.8,28.72 9.37,24.4 C1.94,20.08 1.98,13.09 9.46,8.77 C16.93,4.45 29.01,4.45 36.44,8.77 C43.86,13.09 43.82,20.09 36.35,24.4" id="Path" fill="#FAFAFF" opacity="0.5"></path>
                    <path d="M38.78,32.47 C43.25,29.89 45.48,26.5 45.4700335,23.12 L45.41,13.13 C45.41,13.14 45.41,13.15 45.41,13.16 C45.41,9.81 43.22,6.46 38.82,3.91 C30,-1.22 15.65,-1.22 6.77,3.91 C2.25,6.52 0.02,9.96 0.08,13.38 C0.08,13.34 0.08,13.3 0.08,13.25 L0.14,23.24 C0.15,26.58 2.34,29.91 6.73,32.46 C15.55,37.6 29.9,37.6 38.78,32.47 Z M4.76,15.09 C5.39,13 7.09,11 9.88,9.39 C17.04,5.26 28.6,5.26 35.72,9.39 C38.45,10.97 40.12,12.94 40.75,14.98 C40.12,17.07 38.42,19.06 35.63,20.67 C28.47,24.8 16.91,24.8 9.79,20.67 C7.06,19.1 5.38,17.14 4.76,15.09 Z" id="Shape" fill="#5AAAE7"></path>
                    <g>
                        <g transform="translate(0.000000, 2.000000)" fill="#909FF4" id="Path">
                            <path d="M9.87,3.72 C17.03,-0.41 28.59,-0.41 35.71,3.72 C39.24,5.77 41.01,8.46 41.02,11.15 L41.03,14.83 C41.02,12.14 39.25,9.45 35.72,7.4 C28.61,3.27 17.04,3.27 9.88,7.4 C6.28,9.48 4.47995856,12.21 4.49,14.93 L4.47995856,11.25 C4.47,8.53 6.27,5.8 9.87,3.72 Z"></path>
                            <path d="M6.67,20.49 C15.49,25.62 29.84,25.62 38.72,20.49 C43.19,17.91 45.42,14.52 45.41,11.14 L45.4700335,21.13 C45.48,24.51 43.25,27.9 38.78,30.48 C29.9,35.61 15.55,35.61 6.73,30.48 C2.35,27.93 0.15,24.6 0.14,21.26 L0.08,11.27 C0.09,14.61 2.28,17.94 6.67,20.49 Z"></path>
                        </g>
                        <path d="M38.72,22.49 C29.84,27.62 15.49,27.62 6.67,22.49 C-2.15,17.36 -2.11,9.05 6.77,3.92 C15.65,-1.21 30,-1.21 38.82,3.92 C47.64,9.05 47.6,17.36 38.72,22.49 Z M9.87,5.72 C2.71,9.85 2.67,16.55 9.79,20.69 C16.9,24.82 28.47,24.82 35.63,20.69 C42.79,16.56 42.83,9.86 35.71,5.73 C28.59,1.59 17.03,1.59 9.87,5.72" id="Shape" fill="#AED7FF"></path>
                    </g>
                    <path d="M41.45,23.45 L57.36,32.65 C56.97,32.43 56.44,32.45 55.85,32.78 C54.65,33.45 53.66,35.12 53.64,36.52 C53.63,37.23 53.88,37.73 54.28,37.96 L38.37,28.76 C37.97,28.53 37.73,28.03 37.73,27.32 C37.75,25.93 38.74,24.25 39.94,23.58 C40.53,23.25 41.06,23.22 41.45,23.45 Z" id="Path" fill="#8CD9F4"></path>
                    <path d="M58,34.08 C57.98,35.47 56.99,37.15 55.79,37.82 C54.59,38.49 53.63,37.9 53.64,36.51 C53.65,35.12 54.65,33.44 55.85,32.77 C57.05,32.1 58.01,32.69 58,34.08 Z" id="Path" fill="#1D81CD"></path>
                    <path d="M45.94,25.27 C46.97,24.7 47.9,24.65 48.57,25.04 L76.25,41.04 C76.23,41.03 76.22,41.02 76.2,41.01 C76.92,41.4 77.37,42.28 77.35,43.54 C77.32,45.97 75.6,48.88 73.51,50.04 C72.47,50.62 71.54,50.66 70.86,50.26 C70.87,50.26 70.87,50.27 70.88,50.27 L43.2,34.27 C42.5,33.87 42.08,33 42.0898253,31.76 C42.13,29.35 43.85,26.44 45.94,25.27 Z" id="Path" fill="#78BAEC"></path>
                    <path d="M48.57,25.05 L76.25,41.05 C75.58,40.66 74.65,40.7 73.62,41.28 C71.53,42.45 69.81,45.36 69.78,47.78 C69.76,49.01 70.19,49.88 70.89,50.29 L43.21,34.29 C42.51,33.89 42.09,33.02 42.0998253,31.78 C42.13,29.35 43.85,26.44 45.94,25.28 C46.97,24.7 47.9,24.66 48.57,25.05 Z" id="Path" fill="#AED7FF"></path>
                    <path d="M77.36,43.56 C77.33,45.99 75.61,48.9 73.52,50.06 C71.43,51.22 69.75,50.21 69.78,47.78 C69.81,45.35 71.53,42.44 73.62,41.28 C75.72,40.11 77.39,41.13 77.36,43.56 Z" id="Path" fill="#8CD9F4"></path>
                </g>
                <ellipse id="Oval" fill="url(#linearGradient-18)" fill-rule="nonzero" cx="404.66" cy="313.49" rx="24.25" ry="15.39"></ellipse>
                <g id="Group" transform="translate(356.000000, 209.000000)" fill-rule="nonzero">
                    <g transform="translate(45.000000, 0.000000)" id="Path">
                        <path d="M0.82,2.22 L0.82,105.49 C0.82,105.91 1.1,106.33 1.65,106.64 C2.76,107.28 4.55,107.28 5.67,106.64 C6.23,106.32 6.51,105.89 6.51,105.47 L6.51,2.2 C6.51,2.2 6.51,2.2 6.51,2.2 C6.51,1.78 6.24,1.36 5.68,1.04 C4.55,0.38 2.75,0.41 1.66,1.04 C1.09,1.37 0.81,1.8 0.82,2.23 C0.82,2.23 0.82,2.23 0.82,2.22 Z" fill="#EA9626"></path>
                        <path d="M1.64,3.38 C2.75,4.02 4.54,4.02 5.66,3.38 C6.22,3.06 6.5,2.63 6.5,2.21 L6.5,105.48 C6.5,105.9 6.22,106.33 5.66,106.65 C4.55,107.29 2.75,107.29 1.64,106.65 C1.09,106.33 0.82,105.91 0.81,105.5 L0.81,2.23 C0.82,2.64 1.09,3.06 1.64,3.38 Z" fill="#FFBF8A"></path>
                    </g>
                    <polygon id="Path" fill="#FF6342" points="0.17 25.51 0.29 66.82 1.92 67.76 22.53 55.86 22.55 61.09 48.09 46.34 47.97 5.03 46.35 4.09 28.75 14.25 28.74 9.02"></polygon>
                    <polygon id="Path" fill="#AED7FF" points="28.74 9.02 28.86 50.33 26.41 56.97 26.3 15.67"></polygon>
                    <polygon id="Path" fill="#86C3F2" points="24.87 13.13 24.99 54.44 1.92 67.76 1.8 26.45"></polygon>
                    <polygon id="Path" fill="#8CD9F4" points="47.97 5.03 48.09 46.34 22.55 61.09 22.43 19.78"></polygon>
                    <polygon id="Path" fill="#AED7FF" points="1.8 26.45 1.92 67.76 0.29 66.82 0.17 25.51"></polygon>
                    <polygon id="Path" fill="#909FF4" points="28.74 9.02 26.3 15.67 46.35 4.09 47.97 5.03 22.43 19.78 24.87 13.13 1.8 26.45 0.17 25.51"></polygon>
                </g>
                <g id="Group" transform="translate(111.000000, 51.000000)" fill-rule="nonzero">
                    <polygon id="Path" stroke="#D5D9EF" stroke-width="0.5" fill="url(#linearGradient-19)" points="0.48 60.96 0.48 152.11 26.47 166.03 105.05 120.7 105.05 0.63"></polygon>
                    <g transform="translate(13.000000, 46.000000)" fill="#DADAF2" id="Path">
                        <polygon points="0.47 44.05 70.1 3.89 70.1 0.05 0.47 40.21"></polygon>
                        <polygon points="0.47 52.99 0.47 56.83 79.06 11.49 79.06 7.65"></polygon>
                        <polygon points="0.47 65.76 0.47 69.6 79.06 24.26 79.06 20.42"></polygon>
                        <polygon points="0.47 78.53 0.47 82.37 79.06 37.04 79.06 33.2"></polygon>
                        <polygon points="13.04 84.06 13.04 87.89 79.06 49.81 79.06 45.97"></polygon>
                    </g>
                    <path d="M26.47,166.02 L26.47,166.02 L26.47,150.2 L26.47,150.2 C19.41,154.16 11.06,155.13 3.28,152.91 L0.48,152.11 L26.47,166.02 L26.47,166.02 Z" id="Path" fill="#BDC8FF"></path>
                    <polygon id="Path" stroke="#C9CEF2" stroke-width="0.5674" fill="url(#linearGradient-20)" points="10.8 68.22 10.8 159.37 36.79 173.29 115.37 127.96 115.37 7.89"></polygon>
                    <g transform="translate(23.000000, 53.000000)" fill="#DADAF2" id="Path">
                        <polygon points="0.79 44.31 70.42 4.15 70.42 0.31 0.79 40.47"></polygon>
                        <polygon points="0.79 53.24 0.79 57.08 79.38 11.75 79.38 7.91"></polygon>
                        <polygon points="0.79 66.02 0.79 69.86 79.38 24.52 79.38 20.68"></polygon>
                        <polygon points="0.79 78.79 0.79 82.63 79.38 37.29 79.38 33.45"></polygon>
                        <polygon points="13.36 84.31 13.36 88.15 79.38 50.07 79.38 46.23"></polygon>
                    </g>
                    <path d="M36.79,173.28 L36.79,173.28 L36.79,157.46 L36.79,157.46 C29.73,161.42 21.38,162.39 13.6,160.17 L10.8,159.37 L36.79,173.28 L36.79,173.28 Z" id="Path" fill="#BDC8FF"></path>
                </g>
                <path d="M244,66.29 C244,64.35 245.39,63.55 247.08,64.53 C248.77,65.5 250.16,67.89 250.16,69.84 C250.16,71.79 248.77,72.58 247.08,71.6 C245.39,70.63 244,68.24 244,66.29 Z" id="Path" fill="#4DBBFF" fill-rule="nonzero"></path>
                <g id="Group" opacity="0.5" transform="translate(256.000000, 71.000000)" fill="#4DBBFF" fill-rule="nonzero">
                    <path d="M0.15,2.46 C0.15,0.52 1.54,-0.28 3.23,0.7 C4.92,1.67 6.31,4.06 6.31,6.01 C6.31,7.96 4.92,8.75 3.23,7.77 C1.54,6.79 0.15,4.4 0.15,2.46 Z" id="Path"></path>
                </g>
                <g id="Group" opacity="0.5" transform="translate(268.000000, 78.000000)" stroke="#86C3F2" stroke-width="0.4257">
                    <path d="M0.31,2.62 C0.31,0.68 1.7,-0.12 3.39,0.86 C5.08,1.84 6.47,4.22 6.47,6.17 C6.47,8.12 5.08,8.91 3.39,7.93 C1.69,6.96 0.31,4.57 0.31,2.62 Z" id="Path"></path>
                </g>
            </g>
        </g>
    </g>
</svg>