<svg width="640" height="359" viewBox="0 0 640 359" fill="none" xmlns="http://www.w3.org/2000/svg">
<g opacity="0.697661">
<g opacity="0.697661">
<g opacity="0.697661">
<path opacity="0.697661" fill-rule="evenodd" clip-rule="evenodd" d="M568.088 180.044C568.217 198.273 566.993 214.986 564.723 229.769C564.562 230.88 564.385 231.991 564.192 233.069C563 240.268 561.551 246.982 559.908 253.182C559.618 254.245 559.328 255.291 559.038 256.322C552.727 278.383 543.757 293.294 534.192 298.801H132.383C132.383 298.801 98.1328 269.107 91.2568 226.693C91.0798 225.614 90.9188 224.535 90.7908 223.44C88.1168 202.33 92.4168 178.289 110.919 153.281C119.357 141.897 130.451 133.974 143.189 128.516C144.187 128.097 145.169 127.694 146.184 127.308C165.072 119.917 187.261 117.598 209.547 117.244C210.674 117.228 211.802 117.211 212.929 117.211C226.197 117.115 239.434 117.662 251.978 118.162C253.169 118.226 254.345 118.274 255.52 118.322C275.777 119.176 294.038 119.804 307.29 117.373H307.306C308.53 117.147 309.69 116.889 310.816 116.6H310.833C325.502 113.009 332.733 104.684 327.531 86.777C317.451 52.044 327.773 26.586 350.235 12.528C351.379 11.804 352.57 11.111 353.778 10.451C366.483 3.55898 382.538 -0.0480245 400.701 0.000482865C401.974 0.000482865 403.262 0.0329755 404.566 0.0649755C420.009 0.531976 436.868 3.57497 454.371 9.38797C463.791 12.512 472.567 16.377 480.699 20.837C481.697 21.385 482.696 21.948 483.662 22.528C499.604 31.739 513.018 43.365 524.128 56.504C524.885 57.374 525.609 58.26 526.334 59.162C555.206 94.748 567.798 140.689 568.088 180.044Z" fill="#E4EBF7"/>
<path opacity="0.697661" fill-rule="evenodd" clip-rule="evenodd" d="M559.909 253.182C559.619 254.245 559.329 255.291 559.039 256.323C553.097 254.197 546.849 251.476 540.457 248.013C510.989 232.007 473.47 196.356 462.101 117.325C457.206 83.2509 463.454 50.8049 480.7 20.8379C481.698 21.3849 482.697 21.9489 483.663 22.5279C468.526 48.8079 460.024 80.2239 465.29 116.858C476.465 194.489 513.083 229.447 541.842 245.099C548.025 248.464 554.112 251.121 559.909 253.182Z" fill="white"/>
<path opacity="0.697661" fill-rule="evenodd" clip-rule="evenodd" d="M564.724 229.768C564.563 230.879 564.386 231.991 564.193 233.069C545.578 224.326 522.117 205.308 511.166 164.021C500.587 124.039 504.806 88.5479 524.129 56.5039C524.886 57.3729 525.611 58.2589 526.335 59.1609C507.962 90.2069 504.049 124.554 514.29 163.2C524.757 202.7 546.931 221.153 564.724 229.768Z" fill="white"/>
<path opacity="0.697661" fill-rule="evenodd" clip-rule="evenodd" d="M389.028 67.486C390.59 119.948 384.616 153.844 369.656 177.419C353.988 202.12 327.854 217.048 284.908 225.823C276.905 227.465 268.999 228.287 261.237 228.287C237.067 228.287 214.298 220.413 194.347 205.019C171.143 187.096 153.382 160.108 143.189 128.515C144.187 128.096 145.17 127.694 146.184 127.307C156.168 158.37 173.575 184.907 196.328 202.474C221.899 222.232 252.317 229.205 284.264 222.683C364.132 206.34 388.802 168.643 385.807 67.583C384.954 38.888 389.962 16.248 400.702 0C401.974 0 403.262 0.032 404.567 0.065C393.391 15.845 388.174 38.453 389.028 67.486Z" fill="white"/>
<path opacity="0.697661" fill-rule="evenodd" clip-rule="evenodd" d="M289.369 176.051C286.052 176.598 282.622 176.888 279.128 176.888C253.38 176.888 223.896 161.284 209.549 117.244C210.676 117.228 211.803 117.212 212.93 117.212C228.743 164.488 262.639 177.178 288.838 172.878C324.232 167.081 358.272 130.641 351.686 74.5242C348.852 50.4502 348.724 29.9042 350.237 12.5292C351.38 11.8042 352.572 11.1122 353.78 10.4512C352.025 28.1482 351.96 49.2422 354.891 74.1532C361.702 132.252 326.212 170.012 289.369 176.051Z" fill="white"/>
<path opacity="0.697661" fill-rule="evenodd" clip-rule="evenodd" d="M310.818 116.6C309.578 122.252 307.404 128.017 303.685 132.864C298.741 139.337 291.801 143.169 283.057 144.248C282.01 144.377 280.98 144.441 279.965 144.441C274.539 144.441 269.563 142.59 265.151 138.886C259.322 133.991 255.071 126.391 251.979 118.162C253.171 118.226 254.346 118.275 255.522 118.323C258.388 125.601 262.188 132.187 267.228 136.422C271.737 140.206 276.938 141.768 282.655 141.06C290.513 140.094 296.712 136.68 301.125 130.931C304.184 126.938 306.116 122.155 307.292 117.373H307.308C308.531 117.147 309.691 116.89 310.818 116.6Z" fill="white"/>
<path opacity="0.697661" fill-rule="evenodd" clip-rule="evenodd" d="M185.78 298.801H182.27C167.825 265.726 147.005 243.682 120.307 233.231C110.613 229.431 100.774 227.45 91.258 226.694C91.08 225.614 90.919 224.535 90.791 223.441C100.822 224.165 111.225 226.227 121.482 230.236C149.356 241.154 170.966 264.18 185.78 298.801Z" fill="white"/>
<path opacity="0.697661" fill-rule="evenodd" clip-rule="evenodd" d="M116.081 199.12L106.13 209.378L101.975 203.274L100.59 201.229C96.1624 202.341 89.6244 193.678 87.0004 189.057C84.3914 184.419 94.8584 177.269 94.8584 177.269C93.1514 172.148 86.2914 168.928 86.0984 167.511C85.9054 166.11 87.6124 164.597 93.8434 167.511C100.091 170.441 105.518 180.796 105.518 180.796C106.629 177.784 101.702 169.637 102.603 168.719C103.505 167.817 108.336 168.928 112.056 176.769C115.791 184.628 113.569 193.887 113.569 193.887L113.618 193.968L116.081 199.12Z" fill="#98B2D8"/>
<path opacity="0.697661" fill-rule="evenodd" clip-rule="evenodd" d="M94.4887 176.367C94.4887 176.367 101.884 184.825 101.086 188.146C100.289 191.468 96.5647 187.613 96.5647 187.613C96.5647 187.613 99.9867 191.568 98.8797 192.877C97.7727 194.184 93.6457 190.863 93.6457 190.863C93.6457 190.863 98.5777 197.003 93.6457 196.096C88.7147 195.191 82.5207 185.89 87.2777 184.955C87.2777 184.955 86.7017 178.182 91.0297 180.498C91.0297 180.498 89.0917 174.853 94.4887 176.367Z" fill="#B1C3E8"/>
<path opacity="0.697661" fill-rule="evenodd" clip-rule="evenodd" d="M184.335 298.859C184.335 298.859 192.66 274.544 188.28 250.567C188.28 250.567 188.264 250.518 188.248 250.406C188.248 250.358 188.231 250.293 188.215 250.213C188.086 249.585 187.958 248.957 187.829 248.329C187.829 248.329 182.999 252.547 176.332 256.734C168.329 261.774 157.653 266.782 149.457 264.431C134.417 260.131 112.42 230.889 102.211 207.798C102.211 207.798 107.316 200.149 117.509 197.798C117.509 197.798 137.911 224.98 155.898 231.421C155.898 231.421 165.559 219.876 173.063 202.967C177.861 192.178 185.06 185.351 194.141 181.68C199.294 179.57 205.059 178.492 211.323 178.298L227.087 170.939C227.087 170.939 229.648 170.956 233.625 171.47C241.016 172.437 253.302 175.142 263.238 182.711C278.535 194.369 300.547 298.859 300.547 298.859H184.335Z" fill="#B7CAE5"/>
<path opacity="0.697661" fill-rule="evenodd" clip-rule="evenodd" d="M188.246 250.408C188.118 249.716 187.973 249.023 187.828 248.331C187.828 248.331 182.997 252.55 176.33 256.736L180.984 216.93C185.718 235.159 187.989 248.782 188.246 250.408Z" fill="#97B3D1"/>
<path opacity="0.697661" fill-rule="evenodd" clip-rule="evenodd" d="M233.625 171.472C231.193 186.931 215.719 201.214 204.543 201.021C195.559 200.86 194.238 187.978 194.141 181.682C199.294 179.572 205.059 178.493 211.323 178.3L227.087 170.941C227.087 170.941 229.647 170.957 233.625 171.472Z" fill="#CED9EA"/>
<path opacity="0.697661" fill-rule="evenodd" clip-rule="evenodd" d="M206.873 283.062C206.873 283.062 242.375 246.118 243.918 207.27L254.385 240.012L250.359 274.1L206.873 283.062Z" fill="#97B3D1"/>
<path opacity="0.697661" fill-rule="evenodd" clip-rule="evenodd" d="M205.843 298.852H166.09C166.09 298.852 166.19 293.417 172.33 291.606C178.468 289.794 182.394 282.146 200.811 283.153L205.843 298.852Z" fill="#98B2D8"/>
<path opacity="0.697661" fill-rule="evenodd" clip-rule="evenodd" d="M246.514 262.318C246.514 262.318 227.785 273.089 198.294 280.737C198.294 280.737 194.201 290.6 201.381 298.852H258.438L246.514 262.318Z" fill="#B6C5DD"/>
<path opacity="0.697661" fill-rule="evenodd" clip-rule="evenodd" d="M176.778 149.409C176.778 149.409 168.3 137.707 169.343 129.828C170.385 121.95 177.679 123.8 177.679 123.8C177.679 123.8 177.34 104.655 195.062 109.55C195.062 109.55 194.672 103.704 198.542 103.856C202.411 104.007 208.48 112.909 208.48 112.909C208.48 112.909 209.986 106.314 212.607 107.87C215.228 109.427 216.036 116.233 221.51 119.509C226.984 122.784 230.37 127.025 226.072 140.308C221.775 153.592 224.999 154.532 223.464 161.352C222.007 167.83 220.841 171.769 216.821 172.134C212.801 172.498 197.411 156.262 197.411 156.262L176.778 149.409Z" fill="#5D7CA0"/>
<path opacity="0.697661" fill-rule="evenodd" clip-rule="evenodd" d="M227.086 170.94C227.086 170.94 217.215 194.885 206.845 193.082C201.692 192.179 200.549 189.04 200.501 185.401C200.452 180.65 202.304 175.079 199.502 172.744L211.933 155.08L214.671 151.182C214.671 151.182 218.02 160.877 227.086 170.94Z" fill="#98B2D8"/>
<path opacity="0.697661" fill-rule="evenodd" clip-rule="evenodd" d="M200.501 185.401C200.453 180.65 202.304 175.079 199.502 172.744L211.934 155.08C212.997 156.319 213.753 158.525 214.059 161.987C215.702 180.231 206.056 184.466 200.501 185.401Z" fill="#799CBF"/>
<path opacity="0.697661" fill-rule="evenodd" clip-rule="evenodd" d="M175.57 140.098C175.57 140.098 178.93 170.942 191.517 177.885C202.455 183.919 215.739 165.669 215.473 156.641C215.473 156.641 220.24 153.001 219.445 147.107C218.65 141.214 212.417 143.169 211.671 152.667C211.671 152.667 206.604 152.306 205.667 140.434C202.486 143.068 199.053 142.256 195.446 139.052C195.446 139.052 193.657 145.66 184.448 137.938C184.448 137.938 180.974 142.655 175.57 140.098Z" fill="#98B2D8"/>
<path opacity="0.697661" fill-rule="evenodd" clip-rule="evenodd" d="M472.441 259.602C472.441 259.602 488.687 286.708 494.314 299.859H437.029C437.029 299.859 433.765 284.014 428.025 268.789L472.441 259.602Z" fill="#5D7CA0"/>
<path opacity="0.697661" fill-rule="evenodd" clip-rule="evenodd" d="M450.1 265.641C446.965 276.029 442.185 284.899 435.093 291.635L437.03 299.859L367.707 299.003L375.424 251.551L450.1 265.641Z" fill="#799CBF"/>
<path opacity="0.697661" fill-rule="evenodd" clip-rule="evenodd" d="M558.846 117.711C558.846 117.711 561.141 103.339 565.703 98.2398C570.266 93.1408 582.745 85.5978 584.221 88.2818C585.698 90.9648 573.218 99.3808 573.218 99.3808C573.218 99.3808 578.854 98.0388 583.685 106.358C588.515 114.678 572.95 121.119 572.95 121.119L569.863 128.097L557.518 120.314L558.846 117.711Z" fill="#799CBF"/>
<path opacity="0.697661" fill-rule="evenodd" clip-rule="evenodd" d="M574.809 99.6526C574.809 99.6526 567.853 106.726 568.871 108.747C569.887 110.769 573.722 107.592 573.722 107.592C573.722 107.592 570.591 112.357 573.017 113.584C575.443 114.811 579.199 110.696 579.199 110.696C579.199 110.696 576.069 115.028 577.869 115.821C579.668 116.616 589.292 109.831 587.571 108.242C585.85 106.654 584.911 107.953 584.911 107.953C584.911 107.953 586.925 104.561 584.911 103.478C582.718 102.299 581.624 104.416 581.624 104.416C581.624 104.416 583.268 101.818 581.937 100.807C580.607 99.7966 577.79 101.096 577.79 101.096C577.79 101.096 578.714 96.7656 574.809 99.6526Z" fill="#98B2D8"/>
<path opacity="0.697661" fill-rule="evenodd" clip-rule="evenodd" d="M568.354 99.4808C566.24 98.8768 561.946 103.272 561.946 103.272C560.257 105.445 559.912 109.774 559.844 111.771C559.627 117.347 557.518 120.314 557.518 120.314L563.783 124.263C568.634 118.014 567.047 110.009 566.264 107.178C568.628 103.645 569.615 99.8408 568.354 99.4808Z" fill="#98B2D8"/>
<path opacity="0.697661" fill-rule="evenodd" clip-rule="evenodd" d="M572.408 129.573C572.408 129.573 551.474 185.32 518.207 190.263C503.328 192.469 492.088 192.695 484.23 192.276C474.858 191.794 470.253 190.377 469.915 190.28C469.898 190.28 469.898 190.263 469.898 190.263C469.898 190.263 460.768 207.268 466.678 231.696C472.571 256.107 474.729 261.212 474.729 261.212C474.729 261.212 429.884 294.19 393.411 264.159L360.497 212.984L350.191 196.946C350.191 196.946 359.66 165.852 386.358 145.643L386.374 145.627C396.438 137.994 408.967 131.908 424.344 129.654C432.234 128.462 440.865 128.284 450.302 129.412C450.302 129.412 457.548 131.457 469.335 135.772C475.679 138.091 483.344 141.07 491.894 144.741C516.322 155.209 523.037 158.332 523.037 158.332C523.037 158.332 549.059 132.665 555.774 117.094C555.774 117.094 569.187 118.446 572.408 129.573Z" fill="#B7CAE5"/>
<path opacity="0.697661" fill-rule="evenodd" clip-rule="evenodd" d="M404.46 155.027C404.339 167.521 401.669 179.626 400.493 189.028L421.179 184.841L453.366 216.664C453.366 216.664 457.444 225.988 449.143 227.598C442.637 228.86 412.237 233.089 412.237 233.089C405.231 242.624 402.065 257.211 398.571 271.365L367.707 217.736L404.46 155.027Z" fill="#97B3D1"/>
<path opacity="0.697661" fill-rule="evenodd" clip-rule="evenodd" d="M450.301 158.026C435.889 154.371 428.305 141.408 424.344 129.653C432.234 128.462 440.864 128.284 450.301 129.412C450.301 129.412 457.547 131.457 469.334 135.772C470.719 146.062 470.22 163.066 450.301 158.026Z" fill="#CED9EA"/>
<path opacity="0.697661" fill-rule="evenodd" clip-rule="evenodd" d="M488.142 169.428C488.142 169.428 485.05 181.537 484.23 192.278C474.858 191.795 470.252 190.378 469.914 190.282C469.898 190.282 469.898 190.265 469.898 190.265C469.898 190.265 478.079 176.272 488.142 169.428Z" fill="#97B3D1"/>
<path opacity="0.697661" fill-rule="evenodd" clip-rule="evenodd" d="M452.17 221.968L416.224 227.186C415.16 227.34 414.173 226.603 414.019 225.539L406.077 170.826C405.923 169.764 406.66 168.777 407.724 168.622L443.671 163.405C444.734 163.25 445.722 163.988 445.876 165.051L453.816 219.763C453.971 220.826 453.233 221.814 452.17 221.968Z" fill="#F2F4F9"/>
<path opacity="0.697661" fill-rule="evenodd" clip-rule="evenodd" d="M426.014 187.139L431.516 184.993C431.516 184.993 436.749 170.5 443.257 179.624C443.257 179.624 447.752 176.941 447.618 175.465C447.484 173.989 447.417 171.842 447.417 171.842C447.417 171.842 456.526 173.81 454.488 186.513C452.45 199.216 444.666 197.606 437.018 197.741L427.491 201.497L426.014 187.139Z" fill="#98B2D8"/>
<path opacity="0.697661" fill-rule="evenodd" clip-rule="evenodd" d="M429.561 204.852C429.561 204.852 386.696 233.225 368.178 219.538C365.36 217.445 362.799 215.239 360.497 212.984L350.191 196.946C350.191 196.946 359.66 165.852 386.358 145.643L386.373 145.627C395.223 141.651 404.47 143.099 404.946 151.297C406.078 170.826 389.375 182.834 387.308 191.697L425.729 183.919C425.729 183.919 431.977 190.553 429.561 204.852Z" fill="#C1CFE5"/>
<path opacity="0.697661" fill-rule="evenodd" clip-rule="evenodd" d="M479.949 99.699C479.949 99.699 486.075 86.612 483.569 79.07C481.064 71.527 474.249 74.716 474.249 74.716C474.249 74.716 470.982 55.848 454.497 63.989C454.497 63.989 453.78 58.174 450.008 59.051C446.235 59.927 441.949 69.81 441.949 69.81C441.949 69.81 439.23 63.616 436.949 65.638C434.667 67.659 435.153 74.496 430.392 78.743C425.633 82.99 423.103 87.791 429.822 100.029C436.541 112.267 433.552 113.798 436.342 120.207C438.991 126.295 440.876 129.946 444.892 129.548C448.91 129.149 460.971 110.309 460.971 110.309L479.949 99.699Z" fill="#5D7CA0"/>
<path opacity="0.697661" fill-rule="evenodd" clip-rule="evenodd" d="M434.586 130.304C434.586 130.304 444.063 153.659 458.957 149.835C464.023 148.534 464.053 143.091 463.416 139.508C462.57 134.833 459.704 129.709 462.017 126.889L446.486 111.877L443.065 108.564C443.065 108.564 441.598 118.715 434.586 130.304Z" fill="#98B2D8"/>
<path opacity="0.697661" fill-rule="evenodd" clip-rule="evenodd" d="M463.415 139.508C462.569 134.833 459.703 129.709 462.016 126.889L446.485 111.877C445.674 113.295 445.346 115.604 445.696 119.062C447.514 137.289 457.783 139.635 463.415 139.508Z" fill="#799CBF"/>
<path opacity="0.697661" fill-rule="evenodd" clip-rule="evenodd" d="M479.384 90.328C479.384 90.328 481.883 121.254 470.826 130.439C461.218 138.422 444.738 122.995 443.304 114.079C443.304 114.079 437.937 111.4 437.61 105.462C437.282 99.524 443.771 100.272 446.29 109.46C446.29 109.46 451.198 108.152 449.887 96.317C453.507 98.305 456.725 96.863 459.665 93.037C459.665 93.037 462.665 99.19 470.257 89.875C470.257 89.875 474.557 93.855 479.384 90.328Z" fill="#98B2D8"/>
</g>
<g opacity="0.697661">
<mask id="mask0" mask-type="alpha" maskUnits="userSpaceOnUse" x="232" y="183" width="170" height="117">
<g opacity="0.697661">
<path opacity="0.697661" d="M290.837 187.831C281.481 191.455 270.982 198.396 260.822 211.567C240.967 237.331 230.227 274.899 232.384 286.445C232.497 287.041 232.626 287.605 232.803 288.136C235.847 298.072 248.6 298.86 280.418 298.86H357.309C357.309 298.86 390.995 301.195 398.773 286.976C399.626 285.414 400.287 283.674 400.753 281.775V281.759C404.602 266.333 396.132 240.52 378.918 218.54C364.844 200.554 355.457 190.409 337.519 186.206C330.836 184.645 322.961 183.92 313.204 183.92C307.664 183.92 299.774 184.37 290.837 187.831Z" fill="white"/>
</g>
</mask>
<g mask="url(#mask0)">
<path opacity="0.697661" fill-rule="evenodd" clip-rule="evenodd" d="M290.837 187.831C281.481 191.455 270.982 198.396 260.822 211.567C240.967 237.331 230.227 274.899 232.384 286.445C232.497 287.041 232.626 287.605 232.803 288.136C235.847 298.072 248.6 298.86 280.418 298.86H357.309C357.309 298.86 390.995 301.195 398.773 286.976C399.626 285.414 400.287 283.674 400.753 281.775V281.759C404.602 266.333 396.132 240.52 378.918 218.54C364.844 200.554 355.457 190.409 337.519 186.206C330.836 184.645 322.961 183.92 313.204 183.92C307.664 183.92 299.774 184.37 290.837 187.831Z" fill="url(#paint0_linear)"/>
</g>
</g>
<path opacity="0.697661" fill-rule="evenodd" clip-rule="evenodd" d="M265.523 272.637C273.867 259.515 276.49 241.31 278.809 222.834L286.055 260.408H348.855L360.395 222.834C360.123 240.395 362.532 257.617 370.862 274.094C370.862 274.094 329.798 320.562 265.523 272.637Z" fill="#1F395E"/>
<g opacity="0.697661">
<mask id="mask1" mask-type="alpha" maskUnits="userSpaceOnUse" x="232" y="269" width="53" height="30">
<g opacity="0.697661">
<path opacity="0.697661" d="M242.77 269.666C233.254 272.113 231.144 280.326 232.803 288.136C235.847 298.072 248.6 298.86 280.418 298.86H284.589L283.639 280.937C283.639 280.937 263.198 269.042 248.174 269.043C246.268 269.043 244.449 269.234 242.77 269.666Z" fill="white"/>
</g>
</mask>
<g mask="url(#mask1)">
<path opacity="0.697661" fill-rule="evenodd" clip-rule="evenodd" d="M242.77 269.666C233.254 272.113 231.144 280.326 232.803 288.136C235.847 298.072 248.6 298.86 280.418 298.86H284.589L283.639 280.937C283.639 280.937 263.198 269.042 248.174 269.043C246.268 269.043 244.449 269.234 242.77 269.666Z" fill="url(#paint1_linear)"/>
</g>
</g>
<g opacity="0.697661">
<mask id="mask2" mask-type="alpha" maskUnits="userSpaceOnUse" x="334" y="265" width="67" height="35">
<g opacity="0.697661">
<path opacity="0.697661" d="M337.389 279.536L334.49 298.859H357.308C357.308 298.859 390.994 301.194 398.772 286.975C399.625 285.413 400.286 283.673 400.752 281.774C400.769 281.758 400.752 281.758 400.752 281.758C401.59 275.429 399.416 269.504 392.331 266.653C390.374 265.864 387.946 265.523 385.206 265.523C367.655 265.524 337.389 279.536 337.389 279.536Z" fill="white"/>
</g>
</mask>
<g mask="url(#mask2)">
<path opacity="0.697661" fill-rule="evenodd" clip-rule="evenodd" d="M337.389 279.536L334.49 298.859H357.308C357.308 298.859 390.994 301.194 398.772 286.975C399.625 285.413 400.286 283.673 400.752 281.774C400.769 281.758 400.752 281.758 400.752 281.758C401.59 275.429 399.416 269.504 392.331 266.653C390.374 265.864 387.946 265.523 385.206 265.523C367.655 265.524 337.389 279.536 337.389 279.536Z" fill="url(#paint2_linear)"/>
</g>
</g>
<g opacity="0.697661">
<path opacity="0.697661" fill-rule="evenodd" clip-rule="evenodd" d="M337.52 186.206C336.843 195.239 333.107 211.696 314.912 211.696C295.733 211.696 291.675 195.481 290.838 187.832C299.775 184.37 307.665 183.92 313.205 183.92C322.962 183.92 330.837 184.644 337.52 186.206Z" fill="#1F395E"/>
<path opacity="0.697661" fill-rule="evenodd" clip-rule="evenodd" d="M354.089 298.852H280.419C278.641 298.852 277.199 297.411 277.199 295.632C277.199 293.853 278.641 292.412 280.419 292.412H354.089C355.867 292.412 357.31 293.853 357.31 295.632C357.31 297.411 355.867 298.852 354.089 298.852Z" fill="white"/>
</g>
<g opacity="0.697661">
<mask id="mask3" mask-type="alpha" maskUnits="userSpaceOnUse" x="272" y="238" width="92" height="55">
<g opacity="0.697661">
<path opacity="0.697661" d="M276.375 238.861C273.96 238.861 272.092 241.035 272.463 243.434L280.015 292.419H355.102L362.734 245.157V245.142L363.009 243.467C363.395 241.052 361.542 238.861 359.095 238.861H276.375Z" fill="white"/>
</g>
</mask>
<g mask="url(#mask3)">
<path opacity="0.697661" fill-rule="evenodd" clip-rule="evenodd" d="M276.375 238.861C273.96 238.861 272.092 241.035 272.463 243.434L280.015 292.419H355.102L362.734 245.157V245.142L363.009 243.467C363.395 241.052 361.542 238.861 359.095 238.861H276.375Z" fill="url(#paint3_linear)"/>
</g>
</g>
<g opacity="0.697661">
<path opacity="0.697661" fill-rule="evenodd" clip-rule="evenodd" d="M362.734 245.158L355.102 292.42H280.418L305.731 289.779C331.72 287.09 353.862 269.731 362.734 245.158Z" fill="#3150BC"/>
<path opacity="0.697661" fill-rule="evenodd" clip-rule="evenodd" d="M314.604 204.854H314.105C311.207 204.854 308.807 204.258 306.859 203.389C302.125 201.263 299.258 196.32 299.371 191.135C299.387 190.603 299.387 190.088 299.387 189.573C299.403 185.274 299.129 181.699 299.129 181.699V179.766L326.182 178.559C326.278 182.456 326.729 185.917 327.261 188.687C327.276 188.736 327.276 188.768 327.293 188.816C328.839 196.948 322.881 204.645 314.604 204.854Z" fill="#FEB19E"/>
<path opacity="0.697661" fill-rule="evenodd" clip-rule="evenodd" d="M327.26 188.687C315.988 201.923 304.41 194.195 299.386 189.573C299.403 185.274 299.129 181.699 299.129 181.699V179.766L326.181 178.559C326.278 182.456 326.729 185.917 327.26 188.687Z" fill="#FF856A"/>
<path opacity="0.697661" fill-rule="evenodd" clip-rule="evenodd" d="M290.85 166.616C290.85 166.616 299.237 190.261 313.226 190.261C327.216 190.261 333.031 164.8 333.031 164.8V142.658H289.777L290.85 166.616Z" fill="#FEB19E"/>
<path opacity="0.697661" fill-rule="evenodd" clip-rule="evenodd" d="M286.349 153.277C286.349 153.277 282.229 154.031 282.933 158.76C283.638 163.491 287.932 169.227 291.421 166.209L286.349 153.277Z" fill="#FEB19E"/>
<path opacity="0.697661" fill-rule="evenodd" clip-rule="evenodd" d="M336.298 151.299C336.298 151.299 340.482 151.485 340.427 156.267C340.373 161.049 336.899 167.317 333.031 164.8L336.298 151.299Z" fill="#FEB19E"/>
</g>
<g opacity="0.697661">
<mask id="mask4" mask-type="alpha" maskUnits="userSpaceOnUse" x="279" y="108" width="63" height="59">
<g opacity="0.697661">
<path opacity="0.697661" d="M296.789 115.885C286.456 119.375 288.202 128.902 288.202 128.902C288.202 128.902 283.504 126.218 280.016 133.196C276.527 140.174 283.938 154.669 283.938 154.669C284.877 153.327 286.35 153.275 286.35 153.275C289.778 163.141 290.851 166.615 290.851 166.615C293.803 162.389 292.764 153.593 292.764 153.593C298.945 156.141 304.393 155.745 309.001 151.983C315.912 156.746 316.984 150.037 316.984 150.037C321.48 156.813 328.645 155.408 328.645 155.408C329.719 164.131 333.032 164.799 333.032 164.799C334.844 159.565 336.299 151.298 336.299 151.298C338.429 151.499 338.932 152.394 338.932 152.394C346.581 130.79 333.692 130.378 333.692 130.378C328.861 111.189 311.014 113.068 311.014 113.068C311.014 113.068 310.342 109.579 308.732 108.64C308.591 108.557 308.461 108.518 308.336 108.518C307.042 108.518 306.212 112.704 296.789 115.885Z" fill="white"/>
</g>
</mask>
<g mask="url(#mask4)">
<path opacity="0.697661" fill-rule="evenodd" clip-rule="evenodd" d="M296.789 115.885C286.456 119.375 288.202 128.902 288.202 128.902C288.202 128.902 283.504 126.218 280.016 133.196C276.527 140.174 283.938 154.669 283.938 154.669C284.877 153.327 286.35 153.275 286.35 153.275C289.778 163.141 290.851 166.615 290.851 166.615C293.803 162.389 292.764 153.593 292.764 153.593C298.945 156.141 304.393 155.745 309.001 151.983C315.912 156.746 316.984 150.037 316.984 150.037C321.48 156.813 328.645 155.408 328.645 155.408C329.719 164.131 333.032 164.799 333.032 164.799C334.844 159.565 336.299 151.298 336.299 151.298C338.429 151.499 338.932 152.394 338.932 152.394C346.581 130.79 333.692 130.378 333.692 130.378C328.861 111.189 311.014 113.068 311.014 113.068C311.014 113.068 310.342 109.579 308.732 108.64C308.591 108.557 308.461 108.518 308.336 108.518C307.042 108.518 306.212 112.704 296.789 115.885Z" fill="url(#paint4_linear)"/>
</g>
</g>
<g opacity="0.697661">
<path opacity="0.697661" fill-rule="evenodd" clip-rule="evenodd" d="M267.346 171.395H199.906C197.712 171.395 195.934 173.173 195.934 175.367V215.619C195.934 217.813 197.712 219.591 199.906 219.591H246.426L258.558 230.345C259.475 231.158 260.875 230.222 260.474 229.064L257.195 219.591H267.346C269.54 219.591 271.319 217.813 271.319 215.619V175.367C271.319 173.173 269.54 171.395 267.346 171.395Z" fill="#9ABCED"/>
<g opacity="0.697661">
<path opacity="0.697661" fill-rule="evenodd" clip-rule="evenodd" d="M220.825 182.163H205.289C204.704 182.163 204.23 181.689 204.23 181.103C204.23 180.518 204.704 180.045 205.289 180.045H220.825C221.41 180.045 221.884 180.518 221.884 181.103C221.884 181.689 221.41 182.163 220.825 182.163Z" fill="#9ABCED"/>
<path opacity="0.697661" fill-rule="evenodd" clip-rule="evenodd" d="M259.135 191.343H214.116C213.531 191.343 213.057 190.868 213.057 190.283C213.057 189.698 213.531 189.225 214.116 189.225H259.135C259.72 189.225 260.194 189.698 260.194 190.283C260.194 190.868 259.72 191.343 259.135 191.343Z" fill="#9ABCED"/>
<path opacity="0.697661" fill-rule="evenodd" clip-rule="evenodd" d="M259.135 197.875H205.289C204.704 197.875 204.23 197.4 204.23 196.815C204.23 196.23 204.704 195.756 205.289 195.756H259.135C259.72 195.756 260.194 196.23 260.194 196.815C260.194 197.4 259.72 197.875 259.135 197.875Z" fill="#9ABCED"/>
<path opacity="0.697661" fill-rule="evenodd" clip-rule="evenodd" d="M259.135 204.408H205.289C204.704 204.408 204.23 203.933 204.23 203.348C204.23 202.763 204.704 202.289 205.289 202.289H259.135C259.72 202.289 260.194 202.763 260.194 203.348C260.194 203.933 259.72 204.408 259.135 204.408Z" fill="#9ABCED"/>
<path opacity="0.697661" fill-rule="evenodd" clip-rule="evenodd" d="M259.135 210.939H205.289C204.704 210.939 204.23 210.464 204.23 209.879C204.23 209.294 204.704 208.82 205.289 208.82H259.135C259.72 208.82 260.194 209.294 260.194 209.879C260.194 210.464 259.72 210.939 259.135 210.939Z" fill="#9ABCED"/>
</g>
<path opacity="0.697661" fill-rule="evenodd" clip-rule="evenodd" d="M566.337 309.319H76.8183C75.8533 309.319 75.0703 308.537 75.0703 307.572V300.599C75.0703 299.634 75.8533 298.852 76.8183 298.852H566.337C567.302 298.852 568.084 299.634 568.084 300.599V307.572C568.084 308.537 567.302 309.319 566.337 309.319Z" fill="#C1C8D3"/>
</g>
<g opacity="0.697661">
<mask id="mask5" mask-type="alpha" maskUnits="userSpaceOnUse" x="445" y="273" width="22" height="26">
<g opacity="0.697661">
<path opacity="0.697661" d="M445.229 273.037V291.152C445.229 295.377 448.654 298.801 452.878 298.801H458.514C462.739 298.801 466.162 295.377 466.162 291.152V273.037H445.229Z" fill="white"/>
</g>
</mask>
<g mask="url(#mask5)">
<path opacity="0.697661" fill-rule="evenodd" clip-rule="evenodd" d="M445.229 273.037V291.152C445.229 295.377 448.654 298.801 452.878 298.801H458.514C462.739 298.801 466.162 295.377 466.162 291.152V273.037H445.229Z" fill="url(#paint5_linear)"/>
</g>
</g>
<g opacity="0.697661">
<mask id="mask6" mask-type="alpha" maskUnits="userSpaceOnUse" x="440" y="232" width="38" height="42">
<g opacity="0.697661">
<path opacity="0.697661" d="M459.519 241.033V241.788C459.519 242.705 458.776 243.448 457.859 243.448H448.851C444.182 243.448 440.398 247.233 440.398 251.902C440.398 256.571 444.182 260.356 448.851 260.356H455.645C456.562 260.356 457.305 261.1 457.305 262.017V264.131C457.305 265.048 456.562 265.791 455.645 265.791H453.532C452.614 265.791 451.87 266.534 451.87 267.451V273.037H458.715V270.672C458.715 269.755 459.457 269.012 460.374 269.012C463.571 269.012 466.161 266.42 466.161 263.225V259.601C466.161 256.405 463.571 253.814 460.374 253.814H451.72C450.802 253.814 450.059 253.072 450.059 252.154C450.059 251.237 450.802 250.493 451.72 250.493H467.571C472.795 250.493 477.03 246.258 477.03 241.033C477.03 236.197 473.111 232.277 468.274 232.277C463.44 232.277 459.519 236.197 459.519 241.033Z" fill="white"/>
</g>
</mask>
<g mask="url(#mask6)">
<path opacity="0.697661" fill-rule="evenodd" clip-rule="evenodd" d="M459.519 241.033V241.788C459.519 242.705 458.776 243.448 457.859 243.448H448.851C444.182 243.448 440.398 247.233 440.398 251.902C440.398 256.571 444.182 260.356 448.851 260.356H455.645C456.562 260.356 457.305 261.1 457.305 262.017V264.131C457.305 265.048 456.562 265.791 455.645 265.791H453.532C452.614 265.791 451.87 266.534 451.87 267.451V273.037H458.715V270.672C458.715 269.755 459.457 269.012 460.374 269.012C463.571 269.012 466.161 266.42 466.161 263.225V259.601C466.161 256.405 463.571 253.814 460.374 253.814H451.72C450.802 253.814 450.059 253.072 450.059 252.154C450.059 251.237 450.802 250.493 451.72 250.493H467.571C472.795 250.493 477.03 246.258 477.03 241.033C477.03 236.197 473.111 232.277 468.274 232.277C463.44 232.277 459.519 236.197 459.519 241.033Z" fill="url(#paint6_linear)"/>
</g>
</g>
<g opacity="0.697661">
<path opacity="0.697661" fill-rule="evenodd" clip-rule="evenodd" d="M436.803 243.398H381.853C379.741 243.398 378.029 241.686 378.029 239.574V170.131C378.029 168.019 379.741 166.307 381.853 166.307H436.803C438.915 166.307 440.628 168.019 440.628 170.131V239.574C440.628 241.686 438.915 243.398 436.803 243.398Z" fill="#9ABCED"/>
<path opacity="0.697661" fill-rule="evenodd" clip-rule="evenodd" d="M385.342 163.758C383.677 163.758 382.323 165.112 382.323 166.778V236.22C382.323 237.885 383.677 239.239 385.342 239.239H440.292C441.958 239.239 443.312 237.885 443.312 236.22V166.778C443.312 165.112 441.958 163.758 440.292 163.758H385.342ZM440.292 240.85H385.342C382.79 240.85 380.713 238.773 380.713 236.22V166.778C380.713 164.226 382.79 162.148 385.342 162.148H440.292C442.845 162.148 444.922 164.226 444.922 166.778V236.22C444.922 238.773 442.845 240.85 440.292 240.85Z" fill="#4F7EB7"/>
<g opacity="0.697661">
<path opacity="0.697661" fill-rule="evenodd" clip-rule="evenodd" d="M389.033 189.363H398.025V177.958H389.033V189.363ZM387.422 190.974H399.635V176.348H387.422V190.974Z" fill="#7CA6D8"/>
<path opacity="0.697661" fill-rule="evenodd" clip-rule="evenodd" d="M396.563 186.437L392.93 182.387L394.128 181.312L396.331 183.77C397.449 182.296 400.185 179.348 405.368 177.213L405.981 178.702C399.513 181.365 397.139 185.425 397.117 185.466L396.563 186.437Z" fill="#EA9BA1"/>
<path opacity="0.697661" fill-rule="evenodd" clip-rule="evenodd" d="M430.777 181.826H411.833C411.173 181.826 410.637 181.29 410.637 180.63C410.637 179.97 411.173 179.434 411.833 179.434H430.777C431.437 179.434 431.973 179.97 431.973 180.63C431.973 181.29 431.437 181.826 430.777 181.826Z" fill="#9ABCED"/>
<path opacity="0.697661" fill-rule="evenodd" clip-rule="evenodd" d="M430.777 187.632H411.833C411.173 187.632 410.637 187.097 410.637 186.437C410.637 185.776 411.173 185.24 411.833 185.24H430.777C431.437 185.24 431.973 185.776 431.973 186.437C431.973 187.097 431.437 187.632 430.777 187.632Z" fill="#9ABCED"/>
</g>
<g opacity="0.697661">
<path opacity="0.697661" fill-rule="evenodd" clip-rule="evenodd" d="M389.033 211.774H398.025V200.368H389.033V211.774ZM387.422 213.384H399.635V198.758H387.422V213.384Z" fill="#7CA6D8"/>
<path opacity="0.697661" fill-rule="evenodd" clip-rule="evenodd" d="M396.563 208.848L392.93 204.798L394.128 203.723L396.331 206.181C397.449 204.707 400.185 201.759 405.368 199.625L405.981 201.113C399.513 203.777 397.139 207.836 397.117 207.877L396.563 208.848Z" fill="#EA9BA1"/>
<path opacity="0.697661" fill-rule="evenodd" clip-rule="evenodd" d="M430.777 204.236H411.833C411.173 204.236 410.637 203.701 410.637 203.04C410.637 202.38 411.173 201.844 411.833 201.844H430.777C431.437 201.844 431.973 202.38 431.973 203.04C431.973 203.701 431.437 204.236 430.777 204.236Z" fill="#9ABCED"/>
<path opacity="0.697661" fill-rule="evenodd" clip-rule="evenodd" d="M430.777 210.042H411.833C411.173 210.042 410.637 209.507 410.637 208.847C410.637 208.187 411.173 207.65 411.833 207.65H430.777C431.437 207.65 431.973 208.187 431.973 208.847C431.973 209.507 431.437 210.042 430.777 210.042Z" fill="#9ABCED"/>
</g>
<g opacity="0.697661">
<path opacity="0.697661" fill-rule="evenodd" clip-rule="evenodd" d="M389.033 234.184H398.025V222.779H389.033V234.184ZM387.422 235.794H399.635V221.168H387.422V235.794Z" fill="#7CA6D8"/>
<path opacity="0.697661" fill-rule="evenodd" clip-rule="evenodd" d="M396.563 231.256L392.93 227.207L394.128 226.131L396.331 228.589C397.449 227.115 400.185 224.167 405.368 222.033L405.981 223.521C399.513 226.185 397.139 230.245 397.117 230.286L396.563 231.256Z" fill="#EA9BA1"/>
<path opacity="0.697661" fill-rule="evenodd" clip-rule="evenodd" d="M430.777 226.646H411.833C411.173 226.646 410.637 226.111 410.637 225.451C410.637 224.79 411.173 224.254 411.833 224.254H430.777C431.437 224.254 431.973 224.79 431.973 225.451C431.973 226.111 431.437 226.646 430.777 226.646Z" fill="#9ABCED"/>
<path opacity="0.697661" fill-rule="evenodd" clip-rule="evenodd" d="M430.777 232.453H411.833C411.173 232.453 410.637 231.917 410.637 231.257C410.637 230.597 411.173 230.061 411.833 230.061H430.777C431.437 230.061 431.973 230.597 431.973 231.257C431.973 231.917 431.437 232.453 430.777 232.453Z" fill="#9ABCED"/>
</g>
<path opacity="0.697661" fill-rule="evenodd" clip-rule="evenodd" d="M629.84 137.206H574.89C572.778 137.206 571.066 135.494 571.066 133.382V63.9392C571.066 61.8272 572.778 60.1152 574.89 60.1152H629.84C631.952 60.1152 633.665 61.8272 633.665 63.9392V133.382C633.665 135.494 631.952 137.206 629.84 137.206Z" fill="#9ABCED"/>
<path opacity="0.697661" fill-rule="evenodd" clip-rule="evenodd" d="M579.722 56.528C578.057 56.528 576.702 57.883 576.702 59.548V128.99C576.702 130.654 578.057 132.009 579.722 132.009H634.672C636.337 132.009 637.691 130.654 637.691 128.99V59.548C637.691 57.883 636.337 56.528 634.672 56.528H579.722ZM634.672 133.619H579.722C577.169 133.619 575.092 131.543 575.092 128.99V59.548C575.092 56.994 577.169 54.918 579.722 54.918H634.672C637.224 54.918 639.301 56.994 639.301 59.548V128.99C639.301 131.543 637.224 133.619 634.672 133.619Z" fill="#4F7EB7"/>
<g opacity="0.697661">
<path opacity="0.697661" fill-rule="evenodd" clip-rule="evenodd" d="M597.872 80.7128C597.872 86.0488 593.547 90.3738 588.211 90.3738C582.875 90.3738 578.549 86.0488 578.549 80.7128C578.549 75.3768 582.875 71.0508 588.211 71.0508C593.547 71.0508 597.872 75.3768 597.872 80.7128Z" fill="#7CA6D8"/>
<path opacity="0.697661" fill-rule="evenodd" clip-rule="evenodd" d="M590.76 79.4378L597.201 67.9648C603.106 69.4408 605.924 75.0098 603.106 80.7118L590.76 79.4378Z" fill="#E83F54"/>
<path opacity="0.697661" fill-rule="evenodd" clip-rule="evenodd" d="M584.722 100.841C584.722 102.398 583.46 103.659 581.904 103.659C580.348 103.659 579.086 102.398 579.086 100.841C579.086 99.2854 580.348 98.0234 581.904 98.0234C583.46 98.0234 584.722 99.2854 584.722 100.841Z" fill="#9ABCED"/>
<path opacity="0.697661" fill-rule="evenodd" clip-rule="evenodd" d="M584.722 113.32C584.722 114.877 583.46 116.138 581.904 116.138C580.348 116.138 579.086 114.877 579.086 113.32C579.086 111.764 580.348 110.502 581.904 110.502C583.46 110.502 584.722 111.764 584.722 113.32Z" fill="#9ABCED"/>
<path opacity="0.697661" fill-rule="evenodd" clip-rule="evenodd" d="M621.49 103.659H598.946C597.39 103.659 596.129 102.398 596.129 100.841C596.129 99.2854 597.39 98.0234 598.946 98.0234H621.49C623.047 98.0234 624.308 99.2854 624.308 100.841C624.308 102.398 623.047 103.659 621.49 103.659Z" fill="#9ABCED"/>
<path opacity="0.697661" fill-rule="evenodd" clip-rule="evenodd" d="M621.49 116.138H598.946C597.39 116.138 596.129 114.877 596.129 113.32C596.129 111.764 597.39 110.502 598.946 110.502H621.49C623.047 110.502 624.308 111.764 624.308 113.32C624.308 114.877 623.047 116.138 621.49 116.138Z" fill="#9ABCED"/>
<path opacity="0.697661" fill-rule="evenodd" clip-rule="evenodd" d="M584.722 126.002C584.722 127.558 583.46 128.82 581.904 128.82C580.348 128.82 579.086 127.558 579.086 126.002C579.086 124.445 580.348 123.184 581.904 123.184C583.46 123.184 584.722 124.445 584.722 126.002Z" fill="#9ABCED"/>
<path opacity="0.697661" fill-rule="evenodd" clip-rule="evenodd" d="M621.49 128.82H598.946C597.39 128.82 596.129 127.558 596.129 126.002C596.129 124.445 597.39 123.184 598.946 123.184H621.49C623.047 123.184 624.308 124.445 624.308 126.002C624.308 127.558 623.047 128.82 621.49 128.82Z" fill="#9ABCED"/>
</g>
<path opacity="0.697661" fill-rule="evenodd" clip-rule="evenodd" d="M159.856 114.583H104.906C102.793 114.583 101.082 112.871 101.082 110.758V28.4344C101.082 26.3224 102.793 24.6094 104.906 24.6094H159.856C161.968 24.6094 163.68 26.3224 163.68 28.4344V110.758C163.68 112.871 161.968 114.583 159.856 114.583Z" fill="#9ABCED"/>
<path opacity="0.697661" fill-rule="evenodd" clip-rule="evenodd" d="M101.418 21.9264C99.7531 21.9264 98.3991 23.2814 98.3991 24.9464V107.27C98.3991 108.934 99.7531 110.289 101.418 110.289H156.368C158.033 110.289 159.388 108.934 159.388 107.27V24.9464C159.388 23.2814 158.033 21.9264 156.368 21.9264H101.418ZM156.368 111.9H101.418C98.8651 111.9 96.7891 109.823 96.7891 107.27V24.9464C96.7891 22.3924 98.8651 20.3164 101.418 20.3164H156.368C158.921 20.3164 160.998 22.3924 160.998 24.9464V107.27C160.998 109.823 158.921 111.9 156.368 111.9Z" fill="#4F7EB7"/>
<path opacity="0.697661" fill-rule="evenodd" clip-rule="evenodd" d="M129.434 61.6433L128.648 62.3413C128.15 62.7843 127.386 62.7393 126.943 62.2403L118.881 53.1633L121.473 50.8613L129.535 59.9383C129.977 60.4373 129.933 61.2003 129.434 61.6433Z" fill="#7CA6D8"/>
<path opacity="0.697661" fill-rule="evenodd" clip-rule="evenodd" d="M116.073 52.0553C112.597 52.0553 109.763 49.2363 109.763 45.7453C109.763 42.2543 112.597 39.4353 116.073 39.4353C119.564 39.4353 122.384 42.2543 122.384 45.7453C122.384 49.2363 119.564 52.0553 116.073 52.0553ZM116.073 36.4863C110.969 36.4863 106.814 40.6243 106.814 45.7453C106.814 50.8663 110.969 55.0043 116.073 55.0043C121.194 55.0043 125.332 50.8663 125.332 45.7453C125.332 40.6243 121.194 36.4863 116.073 36.4863Z" fill="#7CA6D8"/>
<path opacity="0.697661" fill-rule="evenodd" clip-rule="evenodd" d="M153.585 41.5855H138.959C138.032 41.5855 137.281 40.8345 137.281 39.9075C137.281 38.9815 138.032 38.2305 138.959 38.2305H153.585C154.511 38.2305 155.262 38.9815 155.262 39.9075C155.262 40.8345 154.511 41.5855 153.585 41.5855Z" fill="#9ABCED"/>
<path opacity="0.697661" fill-rule="evenodd" clip-rule="evenodd" d="M153.585 50.3081H138.959C138.032 50.3081 137.281 49.5571 137.281 48.6311C137.281 47.7041 138.032 46.9531 138.959 46.9531H153.585C154.511 46.9531 155.262 47.7041 155.262 48.6311C155.262 49.5571 154.511 50.3081 153.585 50.3081Z" fill="#9ABCED"/>
<path opacity="0.697661" fill-rule="evenodd" clip-rule="evenodd" d="M153.585 58.3589H138.959C138.032 58.3589 137.281 57.6079 137.281 56.6819C137.281 55.7549 138.032 55.0039 138.959 55.0039H153.585C154.511 55.0039 155.262 55.7549 155.262 56.6819C155.262 57.6079 154.511 58.3589 153.585 58.3589Z" fill="#9ABCED"/>
<path opacity="0.697661" fill-rule="evenodd" clip-rule="evenodd" d="M135.368 80.7674H112.824C111.768 80.7674 110.912 79.9114 110.912 78.8554C110.912 77.7994 111.768 76.9434 112.824 76.9434H135.368C136.424 76.9434 137.28 77.7994 137.28 78.8554C137.28 79.9114 136.424 80.7674 135.368 80.7674Z" fill="#9ABCED"/>
<path opacity="0.697661" fill-rule="evenodd" clip-rule="evenodd" d="M135.368 92.7439H112.824C111.768 92.7439 110.912 91.8879 110.912 90.8319C110.912 89.7759 111.768 88.9199 112.824 88.9199H135.368C136.424 88.9199 137.28 89.7759 137.28 90.8319C137.28 91.8879 136.424 92.7439 135.368 92.7439Z" fill="#9ABCED"/>
<path opacity="0.697661" fill-rule="evenodd" clip-rule="evenodd" d="M135.368 104.721H112.824C111.768 104.721 110.912 103.865 110.912 102.808C110.912 101.753 111.768 100.896 112.824 100.896H135.368C136.424 100.896 137.28 101.753 137.28 102.808C137.28 103.865 136.424 104.721 135.368 104.721Z" fill="#9ABCED"/>
<path opacity="0.697661" fill-rule="evenodd" clip-rule="evenodd" d="M153.032 78.8561C153.032 80.5511 151.658 81.9261 149.963 81.9261C148.267 81.9261 146.893 80.5511 146.893 78.8561C146.893 77.1611 148.267 75.7871 149.963 75.7871C151.658 75.7871 153.032 77.1611 153.032 78.8561Z" fill="#9ABCED"/>
<path opacity="0.697661" fill-rule="evenodd" clip-rule="evenodd" d="M153.032 90.8317C153.032 92.5267 151.658 93.9007 149.963 93.9007C148.267 93.9007 146.893 92.5267 146.893 90.8317C146.893 89.1367 148.267 87.7617 149.963 87.7617C151.658 87.7617 153.032 89.1367 153.032 90.8317Z" fill="#9ABCED"/>
<path opacity="0.697661" fill-rule="evenodd" clip-rule="evenodd" d="M153.032 102.809C153.032 104.504 151.658 105.879 149.963 105.879C148.267 105.879 146.893 104.504 146.893 102.809C146.893 101.114 148.267 99.7402 149.963 99.7402C151.658 99.7402 153.032 101.114 153.032 102.809Z" fill="#9ABCED"/>
<path opacity="0.697661" fill-rule="evenodd" clip-rule="evenodd" d="M428.35 115.842H327.708C324.039 115.842 321.066 112.868 321.066 109.2V42.3744C321.066 38.7054 324.039 35.7324 327.708 35.7324H428.35C432.018 35.7324 434.992 38.7054 434.992 42.3744V109.2C434.992 112.868 432.018 115.842 428.35 115.842Z" fill="#9ABCED"/>
<path opacity="0.697661" fill-rule="evenodd" clip-rule="evenodd" d="M331.197 32.8463C327.978 32.8463 325.359 35.4643 325.359 38.6833V105.509C325.359 108.728 327.978 111.346 331.197 111.346H431.839C435.057 111.346 437.676 108.728 437.676 105.509V38.6833C437.676 35.4643 435.057 32.8463 431.839 32.8463H331.197ZM431.839 112.956H331.197C327.091 112.956 323.75 109.616 323.75 105.509V38.6833C323.75 34.5763 327.091 31.2363 331.197 31.2363H431.839C435.944 31.2363 439.286 34.5763 439.286 38.6833V105.509C439.286 109.616 435.944 112.956 431.839 112.956Z" fill="#4F7EB7"/>
<path opacity="0.697661" fill-rule="evenodd" clip-rule="evenodd" d="M391.112 52.0343H335.356C333.745 52.0343 332.438 50.7273 332.438 49.1163C332.438 47.5043 333.745 46.1973 335.356 46.1973H391.112C392.723 46.1973 394.03 47.5043 394.03 49.1163C394.03 50.7273 392.723 52.0343 391.112 52.0343Z" fill="#9ABCED"/>
<path opacity="0.697661" fill-rule="evenodd" clip-rule="evenodd" d="M391.967 94.9078H334.5C333.361 94.9078 332.438 93.9848 332.438 92.8448V64.3638C332.438 63.2238 333.361 62.3008 334.5 62.3008H391.967C393.106 62.3008 394.03 63.2238 394.03 64.3638V92.8448C394.03 93.9848 393.106 94.9078 391.967 94.9078Z" fill="#7CA6D8"/>
<path opacity="0.697661" fill-rule="evenodd" clip-rule="evenodd" d="M420.701 52.0343H404.196C402.584 52.0343 401.277 50.7273 401.277 49.1163C401.277 47.5043 402.584 46.1973 404.196 46.1973H420.701C422.313 46.1973 423.62 47.5043 423.62 49.1163C423.62 50.7273 422.313 52.0343 420.701 52.0343Z" fill="#9ABCED"/>
<path opacity="0.697661" fill-rule="evenodd" clip-rule="evenodd" d="M421.807 67.5332H404.463C403.462 67.5332 402.652 66.7212 402.652 65.7212C402.652 64.7202 403.462 63.9102 404.463 63.9102H421.807C422.807 63.9102 423.619 64.7202 423.619 65.7212C423.619 66.7212 422.807 67.5332 421.807 67.5332Z" fill="#9ABCED"/>
<path opacity="0.697661" fill-rule="evenodd" clip-rule="evenodd" d="M421.807 75.7197H404.463C403.462 75.7197 402.652 74.9077 402.652 73.9077C402.652 72.9067 403.462 72.0957 404.463 72.0957H421.807C422.807 72.0957 423.619 72.9067 423.619 73.9077C423.619 74.9077 422.807 75.7197 421.807 75.7197Z" fill="#9ABCED"/>
<path opacity="0.697661" fill-rule="evenodd" clip-rule="evenodd" d="M421.807 83.9043H404.463C403.462 83.9043 402.652 83.0932 402.652 82.0922C402.652 81.0922 403.462 80.2812 404.463 80.2812H421.807C422.807 80.2812 423.619 81.0922 423.619 82.0922C423.619 83.0932 422.807 83.9043 421.807 83.9043Z" fill="#9ABCED"/>
<path opacity="0.697661" fill-rule="evenodd" clip-rule="evenodd" d="M421.807 92.0898H404.463C403.462 92.0898 402.652 91.2788 402.652 90.2778C402.652 89.2778 403.462 88.4668 404.463 88.4668H421.807C422.807 88.4668 423.619 89.2778 423.619 90.2778C423.619 91.2788 422.807 92.0898 421.807 92.0898Z" fill="#9ABCED"/>
<path opacity="0.697661" fill-rule="evenodd" clip-rule="evenodd" d="M410.032 107.655H345.823C344.489 107.655 343.408 106.573 343.408 105.239C343.408 103.905 344.489 102.824 345.823 102.824H410.032C411.366 102.824 412.448 103.905 412.448 105.239C412.448 106.573 411.366 107.655 410.032 107.655Z" fill="#9ABCED"/>
<path opacity="0.697661" fill-rule="evenodd" clip-rule="evenodd" d="M105.354 197.826H10.0799C7.11589 197.826 4.71289 195.423 4.71289 192.458V134.757C4.71289 131.792 7.11589 129.389 10.0799 129.389H105.354C108.318 129.389 110.722 131.792 110.722 134.757V192.458C110.722 195.423 108.318 197.826 105.354 197.826Z" fill="#9ABCED"/>
<g opacity="0.697661">
<mask id="mask7" mask-type="alpha" maskUnits="userSpaceOnUse" x="0" y="124" width="108" height="71">
<g opacity="0.697661">
<path opacity="0.697661" d="M0 124.625H107.62V194.671H0V124.625Z" fill="white"/>
</g>
</mask>
<g mask="url(#mask7)">
<path opacity="0.697661" fill-rule="evenodd" clip-rule="evenodd" d="M6.173 126.235C3.657 126.235 1.611 128.282 1.611 130.797V188.499C1.611 191.014 3.657 193.06 6.173 193.06H101.447C103.963 193.06 106.009 191.014 106.009 188.499V130.797C106.009 128.282 103.963 126.235 101.447 126.235H6.173ZM101.447 194.671H6.173C2.769 194.671 0 191.901 0 188.499V130.797C0 127.393 2.769 124.625 6.173 124.625H101.447C104.851 124.625 107.62 127.393 107.62 130.797V188.499C107.62 191.901 104.851 194.671 101.447 194.671Z" fill="#4F7EB7"/>
</g>
</g>
<g opacity="0.697661">
<path opacity="0.697661" fill-rule="evenodd" clip-rule="evenodd" d="M42.8619 160.982C40.3979 163.462 36.9849 164.992 33.1999 164.992C25.6639 164.992 19.5449 158.873 19.5449 151.337C19.5449 143.785 25.6639 137.666 33.1999 137.666C34.7299 137.666 36.2119 137.923 37.5799 138.391L33.1999 151.337L42.8619 160.982Z" fill="#7CA6D8"/>
<path opacity="0.697661" fill-rule="evenodd" clip-rule="evenodd" d="M48.6666 150.283C48.6666 153.483 47.3676 156.383 45.2616 158.474L37.0566 150.283L40.7766 139.289C45.3576 140.834 48.6666 145.169 48.6666 150.283Z" fill="#E83F54"/>
<path opacity="0.697661" fill-rule="evenodd" clip-rule="evenodd" d="M94.818 165.798H63.418V139.289C63.418 138.844 63.778 138.484 64.223 138.484C64.668 138.484 65.028 138.844 65.028 139.289V164.188H94.818C95.263 164.188 95.624 164.548 95.624 164.993C95.624 165.439 95.263 165.798 94.818 165.798Z" fill="#9ABCED"/>
<mask id="mask8" mask-type="alpha" maskUnits="userSpaceOnUse" x="0" y="0" width="640" height="359">
<g opacity="0.697661">
<path opacity="0.697661" d="M0 358.485H639.302V0H0V358.485Z" fill="white"/>
</g>
</mask>
<g mask="url(#mask8)">
<path opacity="0.697661" fill-rule="evenodd" clip-rule="evenodd" d="M69.9941 164.188H74.0191V152.141H69.9941V164.188Z" fill="#9ABCED"/>
<path opacity="0.697661" fill-rule="evenodd" clip-rule="evenodd" d="M78.3145 164.188H82.3404V146.029H78.3145V164.188Z" fill="#E83F54"/>
<path opacity="0.697661" fill-rule="evenodd" clip-rule="evenodd" d="M86.498 164.186H90.524V155.107H86.498V164.186Z" fill="#9ABCED"/>
<path opacity="0.697661" fill-rule="evenodd" clip-rule="evenodd" d="M39.2011 178.1H20.2801C19.5021 178.1 18.8711 177.469 18.8711 176.692C18.8711 175.913 19.5021 175.283 20.2801 175.283H39.2011C39.9791 175.283 40.6101 175.913 40.6101 176.692C40.6101 177.469 39.9791 178.1 39.2011 178.1Z" fill="#9ABCED"/>
<path opacity="0.697661" fill-rule="evenodd" clip-rule="evenodd" d="M68.0488 178.1H49.1287C48.3497 178.1 47.7188 177.469 47.7188 176.692C47.7188 175.913 48.3497 175.283 49.1287 175.283H68.0488C68.8268 175.283 69.4577 175.913 69.4577 176.692C69.4577 177.469 68.8268 178.1 68.0488 178.1Z" fill="#9ABCED"/>
<path opacity="0.697661" fill-rule="evenodd" clip-rule="evenodd" d="M95.1542 178.1H76.2342C75.4552 178.1 74.8242 177.469 74.8242 176.692C74.8242 175.913 75.4552 175.283 76.2342 175.283H95.1542C95.9322 175.283 96.5632 175.913 96.5632 176.692C96.5632 177.469 95.9322 178.1 95.1542 178.1Z" fill="#9ABCED"/>
<path opacity="0.697661" fill-rule="evenodd" clip-rule="evenodd" d="M51.6132 188.165H32.6932C31.9142 188.165 31.2832 187.534 31.2832 186.756C31.2832 185.977 31.9142 185.348 32.6932 185.348H51.6132C52.3912 185.348 53.0222 185.977 53.0222 186.756C53.0222 187.534 52.3912 188.165 51.6132 188.165Z" fill="#9ABCED"/>
<path opacity="0.697661" fill-rule="evenodd" clip-rule="evenodd" d="M78.7206 188.165H59.8006C59.0216 188.165 58.3906 187.534 58.3906 186.756C58.3906 185.977 59.0216 185.348 59.8006 185.348H78.7206C79.4986 185.348 80.1296 185.977 80.1296 186.756C80.1296 187.534 79.4986 188.165 78.7206 188.165Z" fill="#9ABCED"/>
</g>
</g>
</g>
</g>
</g>
<defs>
<linearGradient id="paint0_linear" x1="316.891" y1="292.531" x2="316.891" y2="195.647" gradientUnits="userSpaceOnUse">
<stop stop-color="#1F3A64"/>
<stop offset="1" stop-color="#284979"/>
</linearGradient>
<linearGradient id="paint1_linear" x1="258.439" y1="300.046" x2="258.439" y2="274.001" gradientUnits="userSpaceOnUse">
<stop stop-color="#1F3A64"/>
<stop offset="1" stop-color="#284979"/>
</linearGradient>
<linearGradient id="paint2_linear" x1="367.706" y1="300.045" x2="367.706" y2="274" gradientUnits="userSpaceOnUse">
<stop stop-color="#1F3A64"/>
<stop offset="1" stop-color="#284979"/>
</linearGradient>
<linearGradient id="paint3_linear" x1="336.158" y1="274.235" x2="318.098" y2="245.569" gradientUnits="userSpaceOnUse">
<stop stop-color="#3854E1"/>
<stop offset="1" stop-color="#5B7EF6"/>
</linearGradient>
<linearGradient id="paint4_linear" x1="310.726" y1="156.198" x2="309.785" y2="119.506" gradientUnits="userSpaceOnUse">
<stop stop-color="#3F2323"/>
<stop offset="1" stop-color="#5D3434"/>
</linearGradient>
<linearGradient id="paint5_linear" x1="445.229" y1="285.919" x2="466.162" y2="285.919" gradientUnits="userSpaceOnUse">
<stop stop-color="#1F3A64"/>
<stop offset="1" stop-color="#284979"/>
</linearGradient>
<linearGradient id="paint6_linear" x1="471.968" y1="214.018" x2="446.433" y2="264.702" gradientUnits="userSpaceOnUse">
<stop stop-color="#E2E8F6"/>
<stop offset="1" stop-color="white"/>
</linearGradient>
</defs>
</svg>
