<svg width="256" height="256" viewBox="0 0 256 256" fill="none" xmlns="http://www.w3.org/2000/svg">
<path d="M255.991 48.842C255.736 27.1123 244.617 15.1445 224.681 15.1445C216.965 15.1445 209.53 16.9407 204.67 18.4394C205.154 9.55747 205.161 4.07491 205.161 3.80239L205.162 0H50.8416V3.80189C50.8416 3.9319 50.8546 9.50097 51.3441 18.4439C46.4841 16.9442 39.0422 15.1445 31.3187 15.1445C11.3837 15.1445 0.264219 27.1118 0.00921985 48.842C-0.24178 70.2191 4.63321 89.2481 14.4977 105.401C24.1827 121.26 36.5617 130.817 45.2411 136.04C59.1426 144.407 73.0361 146.163 82.2441 146.163C84.5141 146.163 86.7011 146.056 88.7466 145.845C88.8821 145.831 89.0076 145.815 89.1401 145.8C93.5921 150.595 98.3916 154.436 103.52 157.291C107.301 159.394 109.93 163.063 110.831 167.28C105.734 168.867 102.022 173.63 102.022 179.243C102.022 184.982 105.904 189.829 111.177 191.304V207.261H90.6061V223.913H70.3061V256H185.696V223.913H165.396V207.261H144.825V191.304C150.099 189.828 153.981 184.982 153.981 179.243C153.981 173.629 150.269 168.867 145.172 167.28C146.073 163.063 148.702 159.395 152.483 157.291C157.599 154.444 162.431 150.582 166.872 145.802C168.446 145.977 170.805 146.162 173.755 146.162C173.756 146.162 173.756 146.162 173.757 146.162C182.964 146.162 196.857 144.405 210.758 136.039C219.437 130.816 231.816 121.26 241.501 105.401C251.367 89.2481 256.242 70.2186 255.991 48.842ZM197.496 7.60377C197.462 8.99442 197.408 10.7426 197.325 12.7888H58.6936C58.6076 10.7431 58.5501 8.99242 58.5131 7.60377H197.496ZM202.667 42.5138C207.818 40.7992 214.494 39.07 220.474 39.07C225.489 39.07 229.099 40.2951 231.206 42.7113C233.627 45.4886 234.407 50.1541 233.524 56.5798C229.848 83.3455 218.243 104.239 200.847 115.409C194.788 119.301 188.262 120.908 182.793 121.479C194.361 97.1614 199.96 66.6503 202.667 42.5138ZM57.2476 68.998C60.9871 89.0576 66.1501 106.283 72.5941 120.196C72.7936 120.628 72.9966 121.054 73.1986 121.479C67.7316 120.907 61.2096 119.3 55.1526 115.41C37.7572 104.239 26.1522 83.3465 22.4757 56.5808C21.5932 50.1546 22.3732 45.4886 24.7947 42.7123C26.9012 40.2961 30.5122 39.0715 35.5262 39.0715C41.5117 39.0715 48.1936 40.8032 53.3466 42.5188C54.2671 50.7507 55.5256 59.7611 57.2476 68.998ZM82.2441 138.559C74.0001 138.559 61.5676 136.991 49.1621 129.525C36.4747 121.889 7.02721 98.7501 7.61221 48.9315C7.81921 31.3132 15.5737 22.7488 31.3187 22.7488C39.7392 22.7488 48.0556 25.2876 51.8571 26.6267C52.0466 29.1775 52.2591 31.7357 52.4941 34.2835C47.3266 32.7653 41.2382 31.4662 35.5262 31.4662C28.2172 31.4662 22.6787 33.5679 19.0637 37.7133C15.1342 42.2203 13.7477 48.916 14.9427 57.6144C16.9897 72.5164 21.2677 85.6877 27.6582 96.7619C33.7587 107.334 41.6271 115.761 51.0441 121.807C60.2421 127.715 70.1906 129.204 77.2871 129.347C77.3111 129.389 77.3356 129.429 77.3596 129.47C77.7486 130.152 78.1416 130.822 78.5386 131.483C78.6621 131.69 78.7866 131.895 78.9111 132.099C79.2896 132.722 79.6711 133.338 80.0566 133.941C80.2016 134.168 80.3486 134.39 80.4946 134.615C80.7571 135.018 81.0211 135.418 81.2871 135.814C81.5441 136.196 81.8021 136.575 82.0616 136.949C82.3161 137.316 82.5711 137.681 82.8281 138.04C82.9486 138.209 83.0671 138.385 83.1876 138.552C82.8816 138.557 82.5671 138.559 82.2441 138.559ZM178.094 231.518V248.396H77.9101V231.518H90.6066H165.397H178.094ZM144.826 214.865H157.793V223.913H98.2101V214.865H111.178H144.826ZM118.781 207.261V191.769H137.223V207.261H118.781ZM146.378 179.243C146.378 181.957 144.17 184.164 141.457 184.164H114.547C111.833 184.164 109.626 181.957 109.626 179.243C109.626 176.529 111.833 174.321 114.547 174.321H141.457C144.171 174.321 146.378 176.529 146.378 179.243ZM165.395 135.776C165.353 135.831 165.311 135.885 165.269 135.94C164.895 136.424 164.518 136.896 164.139 137.361C164.046 137.475 163.955 137.591 163.861 137.704C163.445 138.21 163.025 138.705 162.603 139.188C162.582 139.211 162.563 139.235 162.543 139.258C158.303 144.095 153.675 147.926 148.787 150.646C142.761 153.998 138.664 159.952 137.537 166.717H118.467C117.339 159.952 113.242 153.998 107.217 150.646C102.499 148.021 98.2376 144.512 94.3881 140.319L93.4581 139.258C89.6781 134.947 86.1151 129.723 82.8686 123.734L81.8741 121.898C65.5256 90.3067 60.5806 44.6465 59.0896 20.3926H196.942C196.878 21.4477 196.809 22.5373 196.732 23.6689C196.728 23.7214 196.724 23.7754 196.721 23.8279C196.637 25.054 196.547 26.2837 196.451 27.5143C196.449 27.5503 196.446 27.5863 196.443 27.6228C196.139 31.5232 195.779 35.4381 195.369 39.3065L195.12 41.6457C192.358 66.4123 186.523 97.964 174.22 121.73L173.133 123.734C170.716 128.192 168.123 132.225 165.395 135.776ZM206.838 129.525C194.432 136.992 182.002 138.559 173.758 138.559C173.758 138.559 173.757 138.559 173.756 138.559C173.433 138.559 173.118 138.557 172.812 138.552C172.817 138.545 172.822 138.537 172.827 138.53C173.32 137.849 173.806 137.158 174.285 136.457C174.343 136.372 174.401 136.284 174.459 136.199C174.864 135.603 175.262 134.999 175.656 134.389C175.758 134.232 175.859 134.075 175.96 133.918C176.396 133.233 176.827 132.544 177.25 131.843C177.317 131.733 177.381 131.621 177.447 131.51C177.794 130.931 178.136 130.347 178.474 129.757C178.553 129.619 178.635 129.487 178.714 129.348C185.811 129.205 195.759 127.716 204.957 121.808C214.374 115.761 222.243 107.334 228.343 96.7629C234.733 85.6887 239.011 72.5174 241.059 57.6154C242.253 48.9165 240.867 42.2208 236.938 37.7143C233.323 33.5684 227.784 31.4667 220.475 31.4667C214.764 31.4667 208.674 32.7648 203.507 34.2835C203.747 31.6857 203.952 29.194 204.128 26.8257C204.133 26.7597 204.139 26.6932 204.144 26.6277C207.946 25.2881 216.262 22.7498 224.682 22.7498C240.427 22.7498 248.182 31.3142 248.389 48.9315C248.972 98.7501 219.526 121.889 206.838 129.525Z" fill="white"/>
<path d="M96.1801 123.119L89.8301 127.303C91.9981 130.594 94.3281 133.585 96.7556 136.191L102.32 131.008C100.181 128.712 98.1156 126.058 96.1801 123.119Z" fill="white"/>
<path d="M79.8583 80.9551L72.4453 82.6463C76.0913 98.6304 80.9588 112.049 86.9118 122.528L93.5228 118.772C87.9368 108.938 83.3393 96.2151 79.8583 80.9551Z" fill="white"/>
<path d="M221.831 166.758L221.825 159.155L215.407 159.159L215.402 152.74L207.799 152.745L207.803 159.164L201.385 159.169L201.39 166.772L207.808 166.768L207.813 173.186L215.416 173.181L215.412 166.762L221.831 166.758Z" fill="white"/>
<path d="M56.3942 206.244L56.3862 198.641L51.0002 198.646L50.9947 193.26L43.3913 193.268L43.3968 198.654L38.0098 198.659L38.0183 206.263L43.4043 206.257L43.4098 211.644L51.0132 211.636L51.0077 206.25L56.3942 206.244Z" fill="white"/>
<path d="M31.5983 144.08H24.4258V151.684H31.5983V144.08Z" fill="white"/>
<path d="M77.692 166.58H70.5195V174.184H77.692V166.58Z" fill="white"/>
<path d="M193.297 189.459H186.125V197.062H193.297V189.459Z" fill="white"/>
</svg>
