<svg width="168" height="61" viewBox="0 0 168 61" fill="none" xmlns="http://www.w3.org/2000/svg">
<path fill-rule="evenodd" clip-rule="evenodd" d="M0 60.4124H60.4124V0H0V60.4124Z" fill="#0077B2"/>
<path fill-rule="evenodd" clip-rule="evenodd" d="M34.8344 43.4198L32.0951 50.9725H51.9238L54.6639 43.4198H34.8344ZM28.3195 50.9753L43.4204 9.43823H20.7657L5.66376 50.973L28.3195 50.9753Z" fill="#FFFFFE"/>
<path fill-rule="evenodd" clip-rule="evenodd" d="M83.1928 17.2629C83.1928 19.6121 82.5426 21.4999 81.2419 22.9265C79.9414 24.3529 78.2845 25.066 76.2707 25.066C74.4946 25.066 73.0434 24.5805 71.918 23.6083C70.7921 22.6364 70.1036 21.2766 69.8517 19.5285H71.8447C72.068 20.7731 72.5505 21.724 73.2918 22.3812C74.0332 23.0387 74.9978 23.367 76.1869 23.367C77.6132 23.367 78.7842 22.8599 79.7003 21.8462C80.616 20.8324 81.1162 19.4514 81.2001 17.7033H73.9423V16.0461H81.1162C80.9342 14.6059 80.4379 13.4277 79.6267 12.5115C78.8155 11.5959 77.6831 11.1378 76.2287 11.1378C75.1381 11.1378 74.2112 11.4034 73.449 11.9347C72.6869 12.4665 72.1872 13.1933 71.9496 14.1164H69.9566C70.0685 13.1375 70.4423 12.2847 71.0788 11.5574C71.7152 10.8303 72.4771 10.2955 73.3654 9.95249C74.2532 9.61023 75.1936 9.43848 76.1869 9.43848C78.438 9.43848 80.1685 10.1763 81.3783 11.6515C82.5879 13.1272 83.1928 14.9972 83.1928 17.2629" fill="#0077B2"/>
<path fill-rule="evenodd" clip-rule="evenodd" d="M96.9739 24.7094H94.7924L90.492 11.704L86.1501 24.7094H84.0735L89.4014 9.77441H91.667L96.9739 24.7094Z" fill="#0077B2"/>
<path fill-rule="evenodd" clip-rule="evenodd" d="M109.319 9.77441V11.4942H100.949V16.1722H108.773V17.8289H100.949V22.9896H109.424V24.7094H98.9771V9.77441H109.319Z" fill="#0077B2"/>
<path fill-rule="evenodd" clip-rule="evenodd" d="M111.427 9.77441H114.154L118.957 22.423L123.593 9.77441H126.341V24.7094H124.474V12.2493L119.797 24.7094H118.076L113.315 12.2493V24.7094H111.427V9.77441Z" fill="#0077B2"/>
<path fill-rule="evenodd" clip-rule="evenodd" d="M140.017 9.77441V11.4942H131.648V16.1722H139.472V17.8289H131.648V22.9896H140.122V24.7094H129.676V9.77441H140.017Z" fill="#0077B2"/>
<path fill-rule="evenodd" clip-rule="evenodd" d="M154.323 9.77441V24.7094H152.352V17.724H144.464V24.7094H142.493V9.77441H144.464V16.0042H152.352V9.77441H154.323Z" fill="#0077B2"/>
<path fill-rule="evenodd" clip-rule="evenodd" d="M168 9.77441V11.4942H162.987V24.7094H161.015V11.4942H156.001V9.77441H168Z" fill="#0077B2"/>
<path fill-rule="evenodd" clip-rule="evenodd" d="M82.6476 50.851H80.4659L76.1658 37.8456L71.8235 50.851H69.7469L75.0749 35.916H77.3405L82.6476 50.851Z" fill="#0077B2"/>
<path fill-rule="evenodd" clip-rule="evenodd" d="M84.7336 50.851V35.916H86.7053V48.5646H86.7471L94.0683 35.916H96.564V50.851H94.5926V38.1601H94.5505L87.2088 50.851H84.7336Z" fill="#0077B2"/>
<path fill-rule="evenodd" clip-rule="evenodd" d="M110.782 46.4878C110.782 46.9778 110.669 47.4841 110.446 48.0086C110.222 48.5331 109.893 49.0401 109.46 49.5294C109.026 50.0193 108.418 50.4177 107.635 50.7254C106.852 51.0326 105.964 51.1868 104.971 51.1868C103.097 51.1868 101.597 50.7429 100.471 49.8546C99.3455 48.9668 98.783 47.6558 98.783 45.9215H100.692C100.734 47.1941 101.16 48.1208 101.971 48.7011C102.782 49.2815 103.838 49.5714 105.139 49.5714C106.187 49.5714 107.062 49.2853 107.761 48.7116C108.46 48.138 108.81 47.3829 108.81 46.446C108.81 45.929 108.712 45.4884 108.516 45.1246C108.32 44.761 108.033 44.4886 107.656 44.3066C107.279 44.1248 106.883 43.9991 106.471 43.9288C106.058 43.8592 105.579 43.8239 105.034 43.8239C104.558 43.8239 104.111 43.8379 103.692 43.8657V42.2298C103.915 42.258 104.363 42.2716 105.034 42.2716C107.201 42.2716 108.285 41.377 108.285 39.5871C108.285 37.9922 107.216 37.1955 105.076 37.1955C102.81 37.1955 101.573 38.2095 101.363 40.237H99.4542C99.5098 38.6987 100.055 37.5348 101.09 36.7443C102.125 35.9547 103.474 35.5593 105.139 35.5593C106.663 35.5593 107.897 35.8946 108.841 36.5661C109.785 37.2373 110.257 38.2443 110.257 39.5871C110.257 40.3419 110.012 41.0237 109.523 41.6321C109.033 42.24 108.453 42.6426 107.782 42.8384V42.901C108.733 43.0828 109.471 43.5094 109.995 44.1804C110.519 44.8519 110.782 45.6208 110.782 46.4878" fill="#0077B2"/>
<path fill-rule="evenodd" clip-rule="evenodd" d="M113 50.851V35.916H114.972V48.5646H115.014L122.335 35.916H124.831V50.851H122.859V38.1601H122.817L115.476 50.851H113Z" fill="#0077B2"/>
<path fill-rule="evenodd" clip-rule="evenodd" d="M140.122 35.9158V50.8507H138.15V43.8656H130.263V50.8507H128.291V35.9158H130.263V42.1458H138.15V35.9158H140.122Z" fill="#0077B2"/>
<path fill-rule="evenodd" clip-rule="evenodd" d="M145.262 50.851H143.29V35.916H153.106V37.6358H145.262V50.851Z" fill="#0077B2"/>
</svg>
