<?xml version="1.0" encoding="utf-8"?>
<!-- Generator: Adobe Illustrator 22.0.1, SVG Export Plug-In . SVG Version: 6.00 Build 0)  -->
<svg version="1.1" id="Слой_1" xmlns="http://www.w3.org/2000/svg" xmlns:xlink="http://www.w3.org/1999/xlink" x="0px" y="0px"
	 viewBox="0 0 235.6 38.9" style="enable-background:new 0 0 235.6 38.9;" xml:space="preserve">
<style type="text/css">
	.st0{fill:#682468;}
	.st1{fill:#EBB51F;}
	.st2{fill:#D14228;}
	.st3{fill:#FFFFFF;}
	.st4{fill:#0B0F10;}
	.st5{fill:#B7C8CC;}
	.st6{fill:#A5B9BF;}
	.st7{fill:#ECF3F1;}
	.st8{fill:#DAE6E4;}
	.st9{fill:#CCDADA;}
	.st10{fill:#9AAEB6;}
	.st11{fill:#B1C3C7;}
	.st12{fill:#778A96;}
	.st13{fill:#AEC0C4;}
	.st14{fill:#CFDCDC;}
	.st15{fill:#C2D1D2;}
	.st16{fill:#CDDBDB;}
	.st17{fill:#BACCCD;}
	.st18{fill:#C5D5D5;}
	.st19{fill:#D7E3E2;}
	.st20{fill:#8FA3AD;}
	.st21{fill:#92A6AE;}
	.st22{fill:#AEC0C5;}
	.st23{fill:#869AA4;}
	.st24{fill:#7F929E;}
	.st25{fill:#CEDCDC;}
	.st26{fill:#91A6AB;}
	.st27{fill:#E4EFEF;}
	.st28{fill:#A1B5B8;}
	.st29{fill:#B8CACC;}
	.st30{fill:#7E9699;}
	.st31{fill:#0B0F11;}
	.st32{fill:#1F292B;}
	.st33{fill:#354344;}
	.st34{fill:#516164;}
	.st35{fill:#9FB5B8;}
	.st36{fill:#A4B9B9;}
	.st37{fill:#AABDBD;}
	.st38{fill:#AEC2C4;}
	.st39{fill:#BDD0D0;}
	.st40{fill:#D1DFDC;}
	.st41{fill:#80939F;}
	.st42{fill:#7B8F99;}
	.st43{fill:#8599A2;}
	.st44{fill:#A4B7BC;}
	.st45{fill:#92A7AE;}
	.st46{fill:#9AB1B0;}
	.st47{fill:#B8C9CD;}
	.st48{fill:#7D919B;}
	.st49{fill:#B7CBC9;}
	.st50{fill:#D3E0E0;}
	.st51{fill:#CFDEDC;}
	.st52{fill:#E9F2EF;}
	.st53{fill:#F6F9F8;}
	.st54{fill:#DCEAED;}
	.st55{fill:#CCDCDA;}
	.st56{fill:#879AA4;}
	.st57{fill:#B8CDCB;}
	.st58{fill:#A4BBBA;}
	.st59{fill:#91AAA9;}
	.st60{fill:#7C9396;}
	.st61{fill:#D5E4E9;}
	.st62{fill:#91A8AA;}
	.st63{fill:#A5B9BA;}
	.st64{fill:#C6D8DD;}
	.st65{fill:#BFCECE;}
	.st66{fill:#91A5AE;}
	.st67{fill:#B7CBD1;}
	.st68{fill:#ACC2C7;}
	.st69{fill:#7C8F9B;}
	.st70{fill:#9CAFB9;}
	.st71{fill:#8FA2AC;}
	.st72{fill:#859AA4;}
	.st73{fill:#D9E5E3;}
	.st74{fill:#CAD9DA;}
	.st75{fill:#E3EEEB;}
	.st76{fill:#C6D6D7;}
	.st77{fill:#D6E2E1;}
	.st78{fill:#B1C3C6;}
	.st79{fill:#9FB4BC;}
	.st80{fill:#ABBCC2;}
	.st81{fill:#AABCC2;}
	.st82{fill:#F1F5F4;}
	.st83{fill:#8497A3;}
	.st84{fill:#BAC9CD;}
	.st85{fill:#CBD9DA;}
	.st86{fill:#E2EBEB;}
	.st87{fill:#95AAB1;}
	.st88{fill:#EFF5F3;}
	.st89{fill:#C4D4D4;}
	.st90{fill:#799093;}
	.st91{fill:#D2DFDF;}
	.st92{fill:#B7C8CB;}
	.st93{fill:#E4EDEC;}
	.st94{fill:#A6BABE;}
	.st95{fill:#95A9B1;}
	.st96{fill:#A5B7BE;}
	.st97{fill:#AEC3C1;}
	.st98{fill:#879BA6;}
	.st99{fill:#C1D3D4;}
	.st100{fill:#8CA1A5;}
	.st101{fill:#D6E2E2;}
	.st102{fill:#E7EEEF;}
	.st103{fill:#94A8AF;}
	.st104{fill:#8B9EA8;}
	.st105{fill:#879AA5;}
	.st106{fill:#A9BFBD;}
	.st107{fill:#9AAFB6;}
	.st108{fill:#D9E5E5;}
	.st109{fill:#B4C6CA;}
	.st110{fill:#D2DDDF;}
	.st111{fill:#BACECD;}
	.st112{fill:#8598A1;}
	.st113{fill:#91A8A9;}
	.st114{fill:#768995;}
	.st115{fill:#B7CAC9;}
	.st116{fill:#F7F9F9;}
	.st117{fill:#E2EAEB;}
	.st118{fill:#C8D9D9;}
	.st119{fill:#C1D0D2;}
	.st120{fill:#AFC2C5;}
	.st121{fill:#B1C2C6;}
	.st122{fill:#F2F7F5;}
	.st123{fill:#778B96;}
	.st124{fill:#AABDC2;}
	.st125{fill:#E6EFEE;}
	.st126{fill:#BDCED0;}
	.st127{fill:#A1B6BC;}
	.st128{fill:#8DA0AA;}
	.st129{fill:#D5E0E2;}
	.st130{fill:#AFC3C6;}
	.st131{fill:#EFF3F4;}
	.st132{fill:#ADBEC3;}
	.st133{fill:#778B98;}
	.st134{fill:#879FA0;}
	.st135{fill:#9BB1B6;}
	.st136{fill:#C2D0D3;}
	.st137{fill:#A7BBBF;}
	.st138{fill:#D8E2E3;}
	.st139{fill:#C0CED1;}
	.st140{fill:#B1C5C4;}
	.st141{fill:#EDF3F1;}
	.st142{fill:#E9F1EF;}
	.st143{fill:#9CB1B7;}
	.st144{fill:#96ACB2;}
	.st145{fill:#C5D8D5;}
	.st146{fill:#B1C5C3;}
	.st147{fill:#D7E5E2;}
	.st148{fill:#B0C1C5;}
	.st149{fill:#859AA0;}
	.st150{fill:#6E8390;}
	.st151{fill:#C0D1D0;}
	.st152{fill:#F2F6F5;}
	.st153{fill:#748793;}
	.st154{fill:#D2E1DF;}
	.st155{fill:#90A7AD;}
	.st156{fill:#E0EAE9;}
	.st157{fill:#576B7B;}
	.st158{fill:#81959F;}
	.st159{fill:#A4B5BB;}
	.st160{fill:#8FA3AA;}
	.st161{fill:#D3E0DF;}
	.st162{fill:#F1F6F5;}
	.st163{fill:#9DB2B8;}
	.st164{fill:#C2D4D2;}
	.st165{fill:#CADCD9;}
	.st166{fill:#B3C7C5;}
	.st167{fill:#DDECE7;}
	.st168{fill:#A4BABB;}
	.st169{fill:#C9D8D7;}
	.st170{fill:#DFE9EB;}
	.st171{fill:#94A8AB;}
	.st172{fill:#D1E0DD;}
	.st173{fill:#7A9094;}
	.st174{fill:#BBCECD;}
	.st175{fill:#D9E4E6;}
	.st176{fill:#8497A2;}
	.st177{fill:#D0DFDC;}
	.st178{fill:#A0B2B8;}
	.st179{fill:#B5C8C6;}
	.st180{fill:#829799;}
	.st181{fill:#ABBFBF;}
	.st182{fill:#ACC0C0;}
	.st183{fill:#D1DEDC;}
	.st184{fill:#7A9093;}
	.st185{fill:#7F9699;}
	.st186{fill:#F0F5F3;}
	.st187{fill:#E7F0EF;}
	.st188{fill:#E5EEED;}
	.st189{fill:#EDF1F2;}
	.st190{fill:#E3ECEA;}
	.st191{fill:#CEDDD8;}
	.st192{fill:#C8D6D7;}
	.st193{fill:#CAD7D8;}
	.st194{fill:#B7CBC4;}
	.st195{fill:#AFC0C4;}
	.st196{fill:#B2C3C7;}
	.st197{fill:#E2ECEB;}
	.st198{fill:#E1EBEA;}
	.st199{fill:#F3F7F6;}
	.st200{fill:#F4F8F7;}
	.st201{fill:#FCFEFD;}
	.st202{fill:#FCFDFC;}
	.st203{fill:#EFF3F3;}
	.st204{fill:#EDF3F2;}
	.st205{fill:#EBF1F1;}
	.st206{fill:#E9EFEF;}
	.st207{fill:#DFE8E7;}
	.st208{fill:#DEE8E7;}
	.st209{fill:#D3DFDF;}
	.st210{fill:#D2DDDD;}
	.st211{fill:#D2DEDE;}
	.st212{fill:#BDCECD;}
	.st213{fill:#C0CFCF;}
	.st214{fill:#C0CFCE;}
	.st215{fill:#ADC0C0;}
	.st216{fill:#AEC1C0;}
	.st217{fill:#ACBFBF;}
	.st218{fill:#ADC0BF;}
	.st219{fill:#A0B3B4;}
	.st220{fill:#9BB0B1;}
	.st221{fill:#92A8A8;}
	.st222{fill:#8EA3A3;}
	.st223{fill:#879D9C;}
	.st224{fill:#839998;}
	.st225{fill:#819796;}
	.st226{fill:#7E9393;}
	.st227{fill:#778D8D;}
	.st228{fill:#748A8B;}
	.st229{fill:#768D8D;}
	.st230{fill:#73898A;}
	.st231{fill:#698080;}
	.st232{fill:#687E7F;}
	.st233{fill:#677E7E;}
	.st234{fill:#FFFFFE;}
	.st235{fill:#013C6D;}
	.st236{fill:#EF7F1A;}
	.st237{fill:#D87D1A;}
	.st238{fill:#013D6F;}
	.st239{fill:#023E70;}
	.st240{fill:#D31145;}
	.st241{fill:#1A9F29;}
	.st242{fill:#00674C;}
	.st243{fill:#6EC72D;}
	.st244{fill:#1B1A19;}
	.st245{fill:#9E0918;}
	.st246{fill:#004383;}
	.st247{fill:#004382;}
</style>
<g id="Карусель-логотипов">
	<g id="rm-terex" transform="translate(1780.000000, 53.000000)">
		<polygon id="path43" class="st3" points="-1735.7,-15.2 -1778.6,-15.2 -1778.6,-51.8 -1735.7,-51.8 		"/>
		<g id="Group_1_">
			
				<g id="g47" transform="translate(118.327151, 20.226317) scale(-1, 1) rotate(-180.000000) translate(-118.327151, -20.226317) translate(0.074026, 0.473231)">
				<g id="g53" transform="translate(0.396253, 0.295442)">
					<path id="path55" class="st3" d="M-1778,92.7c-1.3,0-2.5-1-2.5-2.5v-34c0-1.3,1-2.5,2.5-2.5h40.1c1.3,0,2.5,1,2.5,2.5v34
						c0,1.3-1,2.5-2.5,2.5H-1778z"/>
				</g>
				<g id="g57" transform="translate(0.396253, 0.295442)">
					<path id="path59" d="M-1778,92.7c-1.3,0-2.5-1-2.5-2.5v-34c0-1.3,1-2.5,2.5-2.5h40.1c1.3,0,2.5,1,2.5,2.5v34
						c0,1.3-1,2.5-2.5,2.5H-1778z M-1778.7,56.2v34c0,0.4,0.3,0.6,0.6,0.6h40.1c0.4,0,0.6-0.3,0.6-0.6v-34c0-0.4-0.3-0.6-0.6-0.6
						h-40.1C-1778.4,55.6-1778.7,55.9-1778.7,56.2z"/>
				</g>
				<g id="g61" transform="translate(5.972775, 5.073820)">
					<path id="path63" class="st240" d="M-1746.6,82.7l-7.5-7.5c-0.1-0.3-0.5-0.4-0.9-0.4s-0.6,0.1-0.9,0.5l-7.5,7.5l-7.5-7.5
						c-0.3-0.3-0.6-0.5-0.9-0.5c-0.4,0-0.8,0.1-0.9,0.4l-7.6,7.5V54h15.9h2.1h15.8V82.7z M-1766.3,64.6h-11.4
						c-0.8,0-1.4,0.6-1.4,1.4c0,0.3,0.1,0.5,0.3,0.8l5.9,6c0.3,0.3,0.5,0.4,0.9,0.4s0.8-0.1,1-0.4l5.8-5.8c0.1-0.3,0.3-0.5,0.3-0.8
						C-1765,65.3-1765.6,64.6-1766.3,64.6z M-1749.4,64.6h-11.4c-0.8,0-1.4,0.6-1.4,1.4c0,0.3,0.1,0.5,0.3,0.8l5.8,5.8
						c0.3,0.3,0.5,0.4,1,0.4c0.4,0,0.6-0.1,0.9-0.4l5.9-6c0.1-0.3,0.3-0.5,0.3-0.8C-1747.9,65.3-1748.6,64.6-1749.4,64.6z"/>
				</g>
				<g id="g65" transform="translate(57.303931, 5.378581)">
					<polygon id="path67" points="-1769,53.7 -1769,76.3 -1780.3,76.3 -1780.3,82.4 -1749.9,82.4 -1749.9,76.3 -1760.6,76.3 
						-1760.6,53.7 					"/>
				</g>
				<g id="g69" transform="translate(91.903896, 5.378581)">
					<polygon id="path71" points="-1780.6,53.7 -1780.6,82.4 -1753.1,82.4 -1753.1,76.1 -1773.4,76.1 -1773.4,70.6 -1753.6,70.6 
						-1753.6,65 -1773.4,65 -1773.4,59.5 -1753.2,59.5 -1753.2,53.7 					"/>
				</g>
				<g id="g73" transform="translate(160.805797, 5.378581)">
					<polygon id="path75" points="-1780.6,53.7 -1780.6,82.4 -1753.1,82.4 -1753.1,76.1 -1773.4,76.1 -1773.4,70.6 -1753.6,70.6 
						-1753.6,65 -1773.4,65 -1773.4,59.5 -1753.2,59.5 -1753.2,53.7 					"/>
				</g>
				<g id="g77" transform="translate(189.861328, 5.322880)">
					<polygon id="path79" points="-1743.6,53.7 -1756.9,68.9 -1744.9,82.4 -1754.8,82.4 -1761.8,74.5 -1768.8,82.4 -1778.7,82.4 
						-1766.9,68.8 -1780.3,53.7 -1770.2,53.7 -1761.9,63.1 -1753.7,53.7 					"/>
				</g>
				<g id="g81" transform="translate(124.559312, 5.290066)">
					<path id="path83" d="M-1772.8,76.6h13.3c4.4,0,4.5-5.8,0.1-5.8h-13.4V76.6z M-1780.5,82.5V53.8h7.6v10.9h7.4l8.3-10.9h9
						c0,0-8.3,11-8.1,10.9c9.2-0.3,12.7,17.8-3,17.8H-1780.5z"/>
				</g>
				<g id="g85" transform="translate(227.293869, 4.819395)">
					<path id="path87" d="M-1778,55.9h0.8v2.2h0.8l1.6-2.2h0.8l-1.6,2.2c0.8,0.1,1.4,0.5,1.4,1.4c0,1-0.6,1.6-1.8,1.6h-1.9V55.9z
						 M-1777.2,58.7v1.6h1c0.5,0,1.2-0.1,1.2-0.8c0-0.8-0.6-0.8-1.3-0.8H-1777.2z M-1780.6,58.5c0-2.5,1.9-4.4,4.4-4.4
						c2.5,0,4.4,1.9,4.4,4.4s-1.9,4.4-4.4,4.4C-1778.7,62.9-1780.6,60.9-1780.6,58.5z M-1776.2,54.8c-1.9,0-3.6,1.7-3.6,3.6
						c0,2.1,1.6,3.6,3.6,3.6c1.9,0,3.6-1.7,3.6-3.6C-1772.7,56.4-1774.3,54.8-1776.2,54.8z"/>
				</g>
			</g>
		</g>
	</g>
</g>
</svg>
