<?xml version="1.0" encoding="utf-8"?>
<!-- Generator: Adobe Illustrator 22.0.1, SVG Export Plug-In . SVG Version: 6.00 Build 0)  -->
<svg version="1.1" id="Слой_1" xmlns="http://www.w3.org/2000/svg" xmlns:xlink="http://www.w3.org/1999/xlink" x="0px" y="0px"
	 viewBox="0 0 67 88" style="enable-background:new 0 0 67 88;" xml:space="preserve">
<style type="text/css">
	.st0{fill:#682468;}
	.st1{fill:#EBB51F;}
	.st2{fill:#D14228;}
	.st3{fill:#FFFFFF;}
	.st4{fill:#0B0F10;}
	.st5{fill:#B7C8CC;}
	.st6{fill:#A5B9BF;}
	.st7{fill:#ECF3F1;}
	.st8{fill:#DAE6E4;}
	.st9{fill:#CCDADA;}
	.st10{fill:#9AAEB6;}
	.st11{fill:#B1C3C7;}
	.st12{fill:#778A96;}
	.st13{fill:#AEC0C4;}
	.st14{fill:#CFDCDC;}
	.st15{fill:#C2D1D2;}
	.st16{fill:#CDDBDB;}
	.st17{fill:#BACCCD;}
	.st18{fill:#C5D5D5;}
	.st19{fill:#D7E3E2;}
	.st20{fill:#8FA3AD;}
	.st21{fill:#92A6AE;}
	.st22{fill:#AEC0C5;}
	.st23{fill:#869AA4;}
	.st24{fill:#7F929E;}
	.st25{fill:#CEDCDC;}
	.st26{fill:#91A6AB;}
	.st27{fill:#E4EFEF;}
	.st28{fill:#A1B5B8;}
	.st29{fill:#B8CACC;}
	.st30{fill:#7E9699;}
	.st31{fill:#0B0F11;}
	.st32{fill:#1F292B;}
	.st33{fill:#354344;}
	.st34{fill:#516164;}
	.st35{fill:#9FB5B8;}
	.st36{fill:#A4B9B9;}
	.st37{fill:#AABDBD;}
	.st38{fill:#AEC2C4;}
	.st39{fill:#BDD0D0;}
	.st40{fill:#D1DFDC;}
	.st41{fill:#80939F;}
	.st42{fill:#7B8F99;}
	.st43{fill:#8599A2;}
	.st44{fill:#A4B7BC;}
	.st45{fill:#92A7AE;}
	.st46{fill:#9AB1B0;}
	.st47{fill:#B8C9CD;}
	.st48{fill:#7D919B;}
	.st49{fill:#B7CBC9;}
	.st50{fill:#D3E0E0;}
	.st51{fill:#CFDEDC;}
	.st52{fill:#E9F2EF;}
	.st53{fill:#F6F9F8;}
	.st54{fill:#DCEAED;}
	.st55{fill:#CCDCDA;}
	.st56{fill:#879AA4;}
	.st57{fill:#B8CDCB;}
	.st58{fill:#A4BBBA;}
	.st59{fill:#91AAA9;}
	.st60{fill:#7C9396;}
	.st61{fill:#D5E4E9;}
	.st62{fill:#91A8AA;}
	.st63{fill:#A5B9BA;}
	.st64{fill:#C6D8DD;}
	.st65{fill:#BFCECE;}
	.st66{fill:#91A5AE;}
	.st67{fill:#B7CBD1;}
	.st68{fill:#ACC2C7;}
	.st69{fill:#7C8F9B;}
	.st70{fill:#9CAFB9;}
	.st71{fill:#8FA2AC;}
	.st72{fill:#859AA4;}
	.st73{fill:#D9E5E3;}
	.st74{fill:#CAD9DA;}
	.st75{fill:#E3EEEB;}
	.st76{fill:#C6D6D7;}
	.st77{fill:#D6E2E1;}
	.st78{fill:#B1C3C6;}
	.st79{fill:#9FB4BC;}
	.st80{fill:#ABBCC2;}
	.st81{fill:#AABCC2;}
	.st82{fill:#F1F5F4;}
	.st83{fill:#8497A3;}
	.st84{fill:#BAC9CD;}
	.st85{fill:#CBD9DA;}
	.st86{fill:#E2EBEB;}
	.st87{fill:#95AAB1;}
	.st88{fill:#EFF5F3;}
	.st89{fill:#C4D4D4;}
	.st90{fill:#799093;}
	.st91{fill:#D2DFDF;}
	.st92{fill:#B7C8CB;}
	.st93{fill:#E4EDEC;}
	.st94{fill:#A6BABE;}
	.st95{fill:#95A9B1;}
	.st96{fill:#A5B7BE;}
	.st97{fill:#AEC3C1;}
	.st98{fill:#879BA6;}
	.st99{fill:#C1D3D4;}
	.st100{fill:#8CA1A5;}
	.st101{fill:#D6E2E2;}
	.st102{fill:#E7EEEF;}
	.st103{fill:#94A8AF;}
	.st104{fill:#8B9EA8;}
	.st105{fill:#879AA5;}
	.st106{fill:#A9BFBD;}
	.st107{fill:#9AAFB6;}
	.st108{fill:#D9E5E5;}
	.st109{fill:#B4C6CA;}
	.st110{fill:#D2DDDF;}
	.st111{fill:#BACECD;}
	.st112{fill:#8598A1;}
	.st113{fill:#91A8A9;}
	.st114{fill:#768995;}
	.st115{fill:#B7CAC9;}
	.st116{fill:#F7F9F9;}
	.st117{fill:#E2EAEB;}
	.st118{fill:#C8D9D9;}
	.st119{fill:#C1D0D2;}
	.st120{fill:#AFC2C5;}
	.st121{fill:#B1C2C6;}
	.st122{fill:#F2F7F5;}
	.st123{fill:#778B96;}
	.st124{fill:#AABDC2;}
	.st125{fill:#E6EFEE;}
	.st126{fill:#BDCED0;}
	.st127{fill:#A1B6BC;}
	.st128{fill:#8DA0AA;}
	.st129{fill:#D5E0E2;}
	.st130{fill:#AFC3C6;}
	.st131{fill:#EFF3F4;}
	.st132{fill:#ADBEC3;}
	.st133{fill:#778B98;}
	.st134{fill:#879FA0;}
	.st135{fill:#9BB1B6;}
	.st136{fill:#C2D0D3;}
	.st137{fill:#A7BBBF;}
	.st138{fill:#D8E2E3;}
	.st139{fill:#C0CED1;}
	.st140{fill:#B1C5C4;}
	.st141{fill:#EDF3F1;}
	.st142{fill:#E9F1EF;}
	.st143{fill:#9CB1B7;}
	.st144{fill:#96ACB2;}
	.st145{fill:#C5D8D5;}
	.st146{fill:#B1C5C3;}
	.st147{fill:#D7E5E2;}
	.st148{fill:#B0C1C5;}
	.st149{fill:#859AA0;}
	.st150{fill:#6E8390;}
	.st151{fill:#C0D1D0;}
	.st152{fill:#F2F6F5;}
	.st153{fill:#748793;}
	.st154{fill:#D2E1DF;}
	.st155{fill:#90A7AD;}
	.st156{fill:#E0EAE9;}
	.st157{fill:#576B7B;}
	.st158{fill:#81959F;}
	.st159{fill:#A4B5BB;}
	.st160{fill:#8FA3AA;}
	.st161{fill:#D3E0DF;}
	.st162{fill:#F1F6F5;}
	.st163{fill:#9DB2B8;}
	.st164{fill:#C2D4D2;}
	.st165{fill:#CADCD9;}
	.st166{fill:#B3C7C5;}
	.st167{fill:#DDECE7;}
	.st168{fill:#A4BABB;}
	.st169{fill:#C9D8D7;}
	.st170{fill:#DFE9EB;}
	.st171{fill:#94A8AB;}
	.st172{fill:#D1E0DD;}
	.st173{fill:#7A9094;}
	.st174{fill:#BBCECD;}
	.st175{fill:#D9E4E6;}
	.st176{fill:#8497A2;}
	.st177{fill:#D0DFDC;}
	.st178{fill:#A0B2B8;}
	.st179{fill:#B5C8C6;}
	.st180{fill:#829799;}
	.st181{fill:#ABBFBF;}
	.st182{fill:#ACC0C0;}
	.st183{fill:#D1DEDC;}
	.st184{fill:#7A9093;}
	.st185{fill:#7F9699;}
	.st186{fill:#F0F5F3;}
	.st187{fill:#E7F0EF;}
	.st188{fill:#E5EEED;}
	.st189{fill:#EDF1F2;}
	.st190{fill:#E3ECEA;}
	.st191{fill:#CEDDD8;}
	.st192{fill:#C8D6D7;}
	.st193{fill:#CAD7D8;}
	.st194{fill:#B7CBC4;}
	.st195{fill:#AFC0C4;}
	.st196{fill:#B2C3C7;}
	.st197{fill:#E2ECEB;}
	.st198{fill:#E1EBEA;}
	.st199{fill:#F3F7F6;}
	.st200{fill:#F4F8F7;}
	.st201{fill:#FCFEFD;}
	.st202{fill:#FCFDFC;}
	.st203{fill:#EFF3F3;}
	.st204{fill:#EDF3F2;}
	.st205{fill:#EBF1F1;}
	.st206{fill:#E9EFEF;}
	.st207{fill:#DFE8E7;}
	.st208{fill:#DEE8E7;}
	.st209{fill:#D3DFDF;}
	.st210{fill:#D2DDDD;}
	.st211{fill:#D2DEDE;}
	.st212{fill:#BDCECD;}
	.st213{fill:#C0CFCF;}
	.st214{fill:#C0CFCE;}
	.st215{fill:#ADC0C0;}
	.st216{fill:#AEC1C0;}
	.st217{fill:#ACBFBF;}
	.st218{fill:#ADC0BF;}
	.st219{fill:#A0B3B4;}
	.st220{fill:#9BB0B1;}
	.st221{fill:#92A8A8;}
	.st222{fill:#8EA3A3;}
	.st223{fill:#879D9C;}
	.st224{fill:#839998;}
	.st225{fill:#819796;}
	.st226{fill:#7E9393;}
	.st227{fill:#778D8D;}
	.st228{fill:#748A8B;}
	.st229{fill:#768D8D;}
	.st230{fill:#73898A;}
	.st231{fill:#698080;}
	.st232{fill:#687E7F;}
	.st233{fill:#677E7E;}
	.st234{fill:#FFFFFE;}
	.st235{fill:#013C6D;}
	.st236{fill:#EF7F1A;}
	.st237{fill:#D87D1A;}
	.st238{fill:#013D6F;}
	.st239{fill:#023E70;}
	.st240{fill:#D31145;}
	.st241{fill:#1A9F29;}
	.st242{fill:#00674C;}
	.st243{fill:#6EC72D;}
	.st244{fill:#1B1A19;}
	.st245{fill:#9E0918;}
	.st246{fill:#004383;}
	.st247{fill:#004382;}
</style>
<g id="Карусель-логотипов">
	<path id="kamaz" class="st244" d="M14,74h-2.7l-6.1,4.8V74H0v14h5.1v-6.7l0.4-0.2L8.3,88h5.5L9.7,77.6L14,74z M0,71.1h67v-1.9H0
		V71.1z M58,67.7c-0.4,0.4-0.8,0.6-1.3,0.6c-0.5,0-1-0.2-1.3-0.7c-0.3-0.5-0.5-1-0.5-1.5c0,0,0,0,0-0.1V66v-0.1v0
		c0-0.6,0.2-1.1,0.5-1.5c0.3-0.5,0.8-0.7,1.3-0.7h0h0c0.5,0,0.9,0.2,1.3,0.6c0.4,0.4,0.6,1,0.6,1.7C58.6,66.7,58.4,67.3,58,67.7z
		 M56.4,63.7L56.4,63.7L56.4,63.7h-0.1c0,0-0.1,0-0.1,0c-0.5,0-1,0.3-1.5,0.7c-0.5,0.4-0.7,1-0.7,1.6c0,0.7,0.2,1.2,0.7,1.7
		c0.5,0.4,1,0.6,1.5,0.7c0,0,0,0,0.1,0h0.1h0h0c0.6,0,1.1-0.2,1.6-0.6c0.5-0.4,0.7-1,0.7-1.7c0-0.7-0.2-1.3-0.7-1.7
		C57.4,63.9,56.9,63.7,56.4,63.7z M56.8,66.1c0,0,0,0.1,0,0.1c0,0.1-0.1,0.1-0.1,0.2c-0.1,0.1-0.1,0.1-0.3,0.1h-0.5v-0.9h0.5
		c0.1,0,0.2,0,0.3,0.1C56.7,65.7,56.8,65.8,56.8,66.1C56.8,66,56.8,66,56.8,66.1z M57.5,66.9c0,0,0-0.1,0-0.1c0,0,0-0.1,0-0.1
		c0,0,0-0.1,0-0.1c0,0,0-0.1,0-0.1c0-0.1,0-0.2-0.1-0.2c0-0.1-0.1-0.1-0.2-0.2v0c0,0,0,0,0.1,0c0,0,0.1,0,0.1-0.1
		c0.1-0.1,0.1-0.1,0.2-0.2c0-0.1,0.1-0.2,0.1-0.4c0-0.3-0.1-0.5-0.2-0.6c-0.2-0.1-0.3-0.2-0.5-0.2h-1v2.8h0.4v-1.2h0.4
		c0.2,0,0.3,0,0.4,0.1c0.1,0.1,0.1,0.2,0.1,0.3c0,0,0,0.1,0,0.1c0,0,0,0,0,0.1c0,0,0,0.1,0,0.1c0,0,0,0.1,0,0.1c0,0.1,0,0.1,0,0.2
		c0,0.1,0,0.1,0,0.2c0,0,0,0.1,0,0.1c0,0,0,0.1,0,0.1h0.5c-0.1-0.1-0.1-0.2-0.1-0.2C57.5,67.1,57.5,67,57.5,66.9z M56.8,74v2.3
		l3.4,0L56.8,88h10v-2h-3.2L67,74H56.8z M46.5,84.3l2-4.7l1.8,4.7H46.5z M48.7,74l-5.9,14h1.7l0.8-1.8H50l0.7,1.8h5.1l-5.2-14H48.7z
		 M16.8,84.3l1.9-4.7l1.8,4.7H16.8z M20.3,74L14,88h1.9l0.8-1.8h5.1l0.7,1.8H26h1.9l-5.5-14H20.3z M34.8,81.1L32,74h-5v14h1.7v-8.4
		l3.6,8.4h1.6l3.8-8.4v4.6V88h5.1V74h-4.7L34.8,81.1z M20.5,38c0.5-0.4,1.1-0.6,1.7-0.5c0.8,0.7,2.2,1.9,3.4,3
		c-0.1,1.5,0.9,1.8,1.7,1.7c1.1,0.6,2.5,1.2,3.1,1.5c0.7,0.3,0.4,1.2-1.1,1.4c-0.4-0.2-2.2-0.7-2.8-0.8c-0.8-0.1-1.3,0.1-2,0
		c-1-0.5-1.5-0.8-2.9-1.8C21.5,42.5,20.4,39,20.5,38z M29.5,13.6c0.3-0.2-0.2-0.4,0.4-0.4c1,0.3,1.3,0.8,1.5,1.3
		c0.2,0.5,0.2,0.8,0.1,1.1c-0.4,1.3-0.6,2.6-0.9,3.8c-0.3,1.6-0.5,3.3-0.7,4.8c-0.1,0.9-0.2,1.8-0.3,2.5c-0.1,0.5-0.1,0.9-0.1,1.3
		c-0.1,0.8-0.1,1.8-0.5,0.2c-0.1-0.5-0.2-1.1-0.2-1.8C28.6,22.7,29.4,16.5,29.5,13.6z M35.4,36.3c0.6,1.1,0.7,1.6,0.8,2.1
		c0,0.1,0,0.3,0.1,0.4c-1.1,1.1-1.5,1.7-2.1,2.5c-0.7,1.8-0.7,1.5-2.3,1.7c-0.3-0.4-0.5-0.6-0.4-1.1c1.5-0.4,1.5-1.3,1.5-2.2
		c-0.3-1.2-1-1.5-1.9-2c-0.1-0.3-0.5-0.9-0.4-1.5c0.2-0.4,0.5-0.6,0.9-0.7C32.8,35.5,34.5,35.7,35.4,36.3z M32.7,23.8
		c0.1-0.4,0.1-0.3,0.4-0.4c0.7-0.1,1.6,0.2,2.4,0.5c0.7,0.2,1.4,0.5,1.8,0.6c0.2,0.1,0.2,0.1,0.2-0.2v-0.2c0-0.1,0-0.2,0-0.2
		c0-0.2,0.1-0.2,0.2-0.2c0.2,0,0.4,0.1,0.6,0.1c3.1,1.3,4.6,10.6,2.8,13.4c-1,0.3-1.5,0.6-1.8,0.8c0,0.3,0,0.3,0.1,0.7
		c0.3,0,0.7,0.2,0.9,0.3c0.3,0.2,1,1.5,1.1,2.5c0.1,0.4-0.7,0.6-1.4,0.7c-0.6-0.3-0.9-0.7-1.2-1.1c-0.3-0.4-0.6-0.7-1.3-0.8
		c-0.5,0.1-0.9,0.2-1.1,0.1c-0.2-0.3-0.1-0.7,0.1-0.9c0.3-0.2,0.6-0.4,0.9-0.6c0.2-0.1,0.2,0,0.2-0.3c-0.3-2.7-1.6-4.5-3.1-6.4
		c-0.6-0.7-1.2-1.8-1.3-2.1C32.7,28,32.4,25.9,32.7,23.8z M44.6,47.4c0.2,0.6-0.1,1.3,0.1,1.8c0.3,0.8,0.6,1.5,0.8,2.1
		c0.2,0.6,0.4,1.2,0.8,2c0.2,0.5,0.6,0.5,0.8,1c0.2,0.6,0.3,1.5,0.4,2.1c-0.1,0.2-0.2,0.5-0.4,0.7c-0.2,0.1-0.4,0-0.6,0
		c-0.5-0.5-0.8-1.2-1.1-1.8c-0.2-0.6,0.1-1.1-0.1-1.6c-0.4-1.2-1-2.5-1.7-3.5c-0.3-0.3-0.6-0.5-1-0.6c-0.8-1.1-1.6-2.9-1.6-3.9
		c0.2-0.4,0.5-0.7,1.1-0.8C42.5,45.1,43.8,46,44.6,47.4z M50.1,62.7c0.1,0.3,0.2,0.5,0.1,0.8c-0.1,0.5-0.9,0.9-1.7,1.1
		c-0.2-1.6-0.2-2.7-0.4-3.8c-0.3,0-0.6,0.2-0.7,0c0-0.6,0-1.6,0.4-1.8C48.3,58.7,49.9,62.2,50.1,62.7z M44.7,60.8
		C44.6,60.8,44.6,60.9,44.7,60.8c-1.5-1-2.5-2.2-2.7-3.4c-2.4-1.7-2.9-2.8-3.8-6c-0.4-0.9-1.1-1.1-1.7-1.5c-0.6-0.3-1.2-0.6-1.1-1.6
		c0.1-0.6,0.3-1,0.7-1.5c2.1-2.8,2.4,0.6,4.3,2.4c3,2.4,2,5,3.8,7.9C44.5,58.7,44.7,59.3,44.7,60.8z M29.4,54.6
		c0.8,1,0.4,1.4-0.6,1.5c-1.4-2-2.9-4.7-4.7-6.2c-0.5-0.4-0.9-0.7-0.7-1.1c0.2-0.3,0.4-0.5,0.6-0.7c1.3-1.2,2.7,0,3.1,1.8
		C27.3,51.4,28.7,54.1,29.4,54.6z M34.9,5.6c0.6,0.2,0.8,1-0.3,0.9c-0.3,0-1-0.4-1-0.6C33.9,5.6,34.5,5.6,34.9,5.6z M43.7,6.9
		c0.2,0.5-0.3,0.8-0.9,0.6c-0.4-0.1-0.6-0.2-0.9-0.4C42.4,6.3,43.5,6.5,43.7,6.9z M16.1,41.5c0.4,1.8,1,3.4,2.4,4.4
		c0.6,0.5,1,1,1.3,1.5c0.4,0.5,0.7,1.2,0.9,2.1c0.2,1.6,0.8,2.4,2,3.3c0.8,0.7,1.8,1.3,2.9,3c0.5,1.7,1.3,2.5,2.9,3.2
		c1.2,0.7,2.5,1.1,3.4,2.2c0.1,0.3,0.2,0.7,0.2,0.9c0.1,0.3,0.2,0.5,0.5,0.7c0.5,0.6,1.2,0.9,1.8,0.9c1.5,0.1,2.9-1.5,2.3-3.7
		c-0.7-1.6-1.9-2.2-3.3-1.5c0.1,0.2,0.4,0.8,0.6,1.2c0.1,0.2,0,0.3-0.2,0.2c-0.7-0.5-1.9-3.5-2.1-4c-0.2-0.5-0.5-1-0.9-1.4
		c-0.3-0.2-0.6-0.4-0.9-0.6c-0.2-0.3-1.4-2.1-1.4-2.5c1.7,1,3.9,1.7,5.9,1.9c0.4,0.7,0.7,1.2,1,1.7c0.4,0.5,0.8,0.9,1.6,1.5
		c0.9,0.8,1.3,1.2,1.8,2.4c0.2,0.5,0.5,1,0.8,1.5c0.4,0.5,0.7,0.9,0.9,1.6c0.3,1.1,0.6,2.2,1.1,3.2c1.1,0.1,2.1-0.2,3.2-1.2
		c-0.1,0.4-0.1,0.7-0.1,1.1c0.1,0.4,2.2,0.3,3,0.2l0.7,4.1c2,0,3.5-0.3,5-2c-0.5-1-1.1-2-1.7-3c-0.5-1-0.6-1.7-0.9-2.7
		c-0.1-0.4-0.3-0.8-0.6-1.2c-0.3-0.5-0.5-0.9-0.7-1.3c-0.5-0.9-0.6-1.2-0.8-2.2c-0.2-0.8-0.3-1.7-0.4-2.5c-0.2-1.1-0.5-1.6-0.9-2.6
		c-1-1.9-1.5-3.5-1.5-5.8c-0.2-1.9-0.6-3.6-1.2-5.4c-0.2-0.5-0.4-0.9-0.5-1.3c-0.3-0.7-0.4-1.4-0.4-2.2c0.4-3.6-0.2-5.9-1.3-9.2
		c1.2-1.3,4.6,0.6,8.6,0.7c1-0.1,2.3-0.3,2.8-1.4c-0.2,0-0.4,0-0.6,0c-0.5,0-0.5-0.2-0.5-0.5c-0.1-0.8,3.7-0.8,5.2-2
		c0.3-0.2,0.7-0.6,0.7-0.8c-0.2,0-0.3,0-0.5,0c-0.5,0-1-0.4-0.3-0.7c0.7-0.3,2.1-0.6,2.8-1.2c0.2-0.2,0.6-0.6,0.7-0.9
		c-0.4,0.1-0.8,0.1-1.2,0.2c-0.7,0.1-1.4,0.1-2,0.1c-3.6,0.1-7.3-0.2-10.9-0.4c-1.7-0.1-3.2,0.1-4.9,0.6c-0.9,0.3-1.8,0.7-2.9,1.3
		c-0.6,0.3-0.7,0.3-1.3,0.1c-0.4-0.2-0.9-0.3-1.4-0.4c-1.1,0-2.5,0.5-3.7,0.5c-0.6,0-0.4-0.2-0.4-0.8c0.1-2.5,0.3-5,0.4-7.5
		c0-0.2,0-0.4,0.4-0.4c0.6,0,1.2-0.1,1.8-0.3c0.7-0.2,1.3-0.8,1.9-1.1c1.1-0.1,2.3-0.2,3.5-0.2c0.4,0.3,0.6,0.5,1.1,0.5
		c0.7,0,1.1-0.4,1.3-1.2c0.6-0.1,1.2-0.8,0.5-1.1c-0.6-0.2-1.7,0-2.1-0.1c-1.2-0.3-0.1-1.4,0.5-1.3c0.5-0.1,1.2-0.1,1.9-0.2
		c0.8,0,1.4-0.4,0.8-1.5c-0.4-0.3-0.6-0.5-0.7-1c-0.2-0.7-0.2-1.3-1.4-1.6C40.3,5.2,38,5,35.7,4.6c-1.2-0.2-2.2-0.3-2.7-0.3
		c-0.4,0-0.4,0.2-0.4-0.3c0-0.2,0-0.3,0.1-0.4V3.3c0-0.4,0.1-0.4-0.3-0.3C32.2,3,32,3,31.7,3c-0.3,0.1-0.6,0.1-0.9,0.1
		c-0.3,0-0.5,0-0.7,0c-0.3,0-0.3,0-0.3-0.3V1.7V0.2c0-0.5-0.2,0-0.2,0.2c-0.2,0.2-0.4,0.5-0.6,0.7c-0.2,0.2-0.4,0.4-0.7,0.7
		C28.1,1.9,28,2,27.9,2.2c-0.1,0.2-0.2,0.3-0.2,0.6c-0.2,0.8-0.4,1.4-0.9,2.1c-1.2,1.3-2.4,1.3-3.4,2.4c0.1,0.2,0,1-0.3,1.6
		c-0.3,0.7-0.7,1.3-1.2,1.9c-0.6,0.8-1.1,1.5-1.8,2.1c-0.3,0.3-0.5,0.7-0.5,0.9c0.7,0.2,0.9,0.7,0.8,1.2c-0.1,0.5-0.5,1.1-0.9,1.5
		c-0.3,2.5-0.7,5.2-1.3,7.7c-0.6,2.6-1.3,5.2-2.1,7.5c-0.2,1.4-0.3,2.9-0.3,4.4c0,1.1,0,2.2,0,3.3C15.9,40.3,15.9,40.9,16.1,41.5z"
		/>
</g>
</svg>
