<?xml version="1.0" encoding="utf-8"?>
<!-- Generator: Adobe Illustrator 22.0.1, SVG Export Plug-In . SVG Version: 6.00 Build 0)  -->
<svg version="1.1" id="Слой_1" xmlns="http://www.w3.org/2000/svg" xmlns:xlink="http://www.w3.org/1999/xlink" x="0px" y="0px"
	 viewBox="0 0 176.5 30.1" style="enable-background:new 0 0 176.5 30.1;" xml:space="preserve">
<style type="text/css">
	.st0{fill:#682468;}
	.st1{fill:#EBB51F;}
	.st2{fill:#D14228;}
	.st3{fill:#FFFFFF;}
	.st4{fill:#0B0F10;}
	.st5{fill:#B7C8CC;}
	.st6{fill:#A5B9BF;}
	.st7{fill:#ECF3F1;}
	.st8{fill:#DAE6E4;}
	.st9{fill:#CCDADA;}
	.st10{fill:#9AAEB6;}
	.st11{fill:#B1C3C7;}
	.st12{fill:#778A96;}
	.st13{fill:#AEC0C4;}
	.st14{fill:#CFDCDC;}
	.st15{fill:#C2D1D2;}
	.st16{fill:#CDDBDB;}
	.st17{fill:#BACCCD;}
	.st18{fill:#C5D5D5;}
	.st19{fill:#D7E3E2;}
	.st20{fill:#8FA3AD;}
	.st21{fill:#92A6AE;}
	.st22{fill:#AEC0C5;}
	.st23{fill:#869AA4;}
	.st24{fill:#7F929E;}
	.st25{fill:#CEDCDC;}
	.st26{fill:#91A6AB;}
	.st27{fill:#E4EFEF;}
	.st28{fill:#A1B5B8;}
	.st29{fill:#B8CACC;}
	.st30{fill:#7E9699;}
	.st31{fill:#0B0F11;}
	.st32{fill:#1F292B;}
	.st33{fill:#354344;}
	.st34{fill:#516164;}
	.st35{fill:#9FB5B8;}
	.st36{fill:#A4B9B9;}
	.st37{fill:#AABDBD;}
	.st38{fill:#AEC2C4;}
	.st39{fill:#BDD0D0;}
	.st40{fill:#D1DFDC;}
	.st41{fill:#80939F;}
	.st42{fill:#7B8F99;}
	.st43{fill:#8599A2;}
	.st44{fill:#A4B7BC;}
	.st45{fill:#92A7AE;}
	.st46{fill:#9AB1B0;}
	.st47{fill:#B8C9CD;}
	.st48{fill:#7D919B;}
	.st49{fill:#B7CBC9;}
	.st50{fill:#D3E0E0;}
	.st51{fill:#CFDEDC;}
	.st52{fill:#E9F2EF;}
	.st53{fill:#F6F9F8;}
	.st54{fill:#DCEAED;}
	.st55{fill:#CCDCDA;}
	.st56{fill:#879AA4;}
	.st57{fill:#B8CDCB;}
	.st58{fill:#A4BBBA;}
	.st59{fill:#91AAA9;}
	.st60{fill:#7C9396;}
	.st61{fill:#D5E4E9;}
	.st62{fill:#91A8AA;}
	.st63{fill:#A5B9BA;}
	.st64{fill:#C6D8DD;}
	.st65{fill:#BFCECE;}
	.st66{fill:#91A5AE;}
	.st67{fill:#B7CBD1;}
	.st68{fill:#ACC2C7;}
	.st69{fill:#7C8F9B;}
	.st70{fill:#9CAFB9;}
	.st71{fill:#8FA2AC;}
	.st72{fill:#859AA4;}
	.st73{fill:#D9E5E3;}
	.st74{fill:#CAD9DA;}
	.st75{fill:#E3EEEB;}
	.st76{fill:#C6D6D7;}
	.st77{fill:#D6E2E1;}
	.st78{fill:#B1C3C6;}
	.st79{fill:#9FB4BC;}
	.st80{fill:#ABBCC2;}
	.st81{fill:#AABCC2;}
	.st82{fill:#F1F5F4;}
	.st83{fill:#8497A3;}
	.st84{fill:#BAC9CD;}
	.st85{fill:#CBD9DA;}
	.st86{fill:#E2EBEB;}
	.st87{fill:#95AAB1;}
	.st88{fill:#EFF5F3;}
	.st89{fill:#C4D4D4;}
	.st90{fill:#799093;}
	.st91{fill:#D2DFDF;}
	.st92{fill:#B7C8CB;}
	.st93{fill:#E4EDEC;}
	.st94{fill:#A6BABE;}
	.st95{fill:#95A9B1;}
	.st96{fill:#A5B7BE;}
	.st97{fill:#AEC3C1;}
	.st98{fill:#879BA6;}
	.st99{fill:#C1D3D4;}
	.st100{fill:#8CA1A5;}
	.st101{fill:#D6E2E2;}
	.st102{fill:#E7EEEF;}
	.st103{fill:#94A8AF;}
	.st104{fill:#8B9EA8;}
	.st105{fill:#879AA5;}
	.st106{fill:#A9BFBD;}
	.st107{fill:#9AAFB6;}
	.st108{fill:#D9E5E5;}
	.st109{fill:#B4C6CA;}
	.st110{fill:#D2DDDF;}
	.st111{fill:#BACECD;}
	.st112{fill:#8598A1;}
	.st113{fill:#91A8A9;}
	.st114{fill:#768995;}
	.st115{fill:#B7CAC9;}
	.st116{fill:#F7F9F9;}
	.st117{fill:#E2EAEB;}
	.st118{fill:#C8D9D9;}
	.st119{fill:#C1D0D2;}
	.st120{fill:#AFC2C5;}
	.st121{fill:#B1C2C6;}
	.st122{fill:#F2F7F5;}
	.st123{fill:#778B96;}
	.st124{fill:#AABDC2;}
	.st125{fill:#E6EFEE;}
	.st126{fill:#BDCED0;}
	.st127{fill:#A1B6BC;}
	.st128{fill:#8DA0AA;}
	.st129{fill:#D5E0E2;}
	.st130{fill:#AFC3C6;}
	.st131{fill:#EFF3F4;}
	.st132{fill:#ADBEC3;}
	.st133{fill:#778B98;}
	.st134{fill:#879FA0;}
	.st135{fill:#9BB1B6;}
	.st136{fill:#C2D0D3;}
	.st137{fill:#A7BBBF;}
	.st138{fill:#D8E2E3;}
	.st139{fill:#C0CED1;}
	.st140{fill:#B1C5C4;}
	.st141{fill:#EDF3F1;}
	.st142{fill:#E9F1EF;}
	.st143{fill:#9CB1B7;}
	.st144{fill:#96ACB2;}
	.st145{fill:#C5D8D5;}
	.st146{fill:#B1C5C3;}
	.st147{fill:#D7E5E2;}
	.st148{fill:#B0C1C5;}
	.st149{fill:#859AA0;}
	.st150{fill:#6E8390;}
	.st151{fill:#C0D1D0;}
	.st152{fill:#F2F6F5;}
	.st153{fill:#748793;}
	.st154{fill:#D2E1DF;}
	.st155{fill:#90A7AD;}
	.st156{fill:#E0EAE9;}
	.st157{fill:#576B7B;}
	.st158{fill:#81959F;}
	.st159{fill:#A4B5BB;}
	.st160{fill:#8FA3AA;}
	.st161{fill:#D3E0DF;}
	.st162{fill:#F1F6F5;}
	.st163{fill:#9DB2B8;}
	.st164{fill:#C2D4D2;}
	.st165{fill:#CADCD9;}
	.st166{fill:#B3C7C5;}
	.st167{fill:#DDECE7;}
	.st168{fill:#A4BABB;}
	.st169{fill:#C9D8D7;}
	.st170{fill:#DFE9EB;}
	.st171{fill:#94A8AB;}
	.st172{fill:#D1E0DD;}
	.st173{fill:#7A9094;}
	.st174{fill:#BBCECD;}
	.st175{fill:#D9E4E6;}
	.st176{fill:#8497A2;}
	.st177{fill:#D0DFDC;}
	.st178{fill:#A0B2B8;}
	.st179{fill:#B5C8C6;}
	.st180{fill:#829799;}
	.st181{fill:#ABBFBF;}
	.st182{fill:#ACC0C0;}
	.st183{fill:#D1DEDC;}
	.st184{fill:#7A9093;}
	.st185{fill:#7F9699;}
	.st186{fill:#F0F5F3;}
	.st187{fill:#E7F0EF;}
	.st188{fill:#E5EEED;}
	.st189{fill:#EDF1F2;}
	.st190{fill:#E3ECEA;}
	.st191{fill:#CEDDD8;}
	.st192{fill:#C8D6D7;}
	.st193{fill:#CAD7D8;}
	.st194{fill:#B7CBC4;}
	.st195{fill:#AFC0C4;}
	.st196{fill:#B2C3C7;}
	.st197{fill:#E2ECEB;}
	.st198{fill:#E1EBEA;}
	.st199{fill:#F3F7F6;}
	.st200{fill:#F4F8F7;}
	.st201{fill:#FCFEFD;}
	.st202{fill:#FCFDFC;}
	.st203{fill:#EFF3F3;}
	.st204{fill:#EDF3F2;}
	.st205{fill:#EBF1F1;}
	.st206{fill:#E9EFEF;}
	.st207{fill:#DFE8E7;}
	.st208{fill:#DEE8E7;}
	.st209{fill:#D3DFDF;}
	.st210{fill:#D2DDDD;}
	.st211{fill:#D2DEDE;}
	.st212{fill:#BDCECD;}
	.st213{fill:#C0CFCF;}
	.st214{fill:#C0CFCE;}
	.st215{fill:#ADC0C0;}
	.st216{fill:#AEC1C0;}
	.st217{fill:#ACBFBF;}
	.st218{fill:#ADC0BF;}
	.st219{fill:#A0B3B4;}
	.st220{fill:#9BB0B1;}
	.st221{fill:#92A8A8;}
	.st222{fill:#8EA3A3;}
	.st223{fill:#879D9C;}
	.st224{fill:#839998;}
	.st225{fill:#819796;}
	.st226{fill:#7E9393;}
	.st227{fill:#778D8D;}
	.st228{fill:#748A8B;}
	.st229{fill:#768D8D;}
	.st230{fill:#73898A;}
	.st231{fill:#698080;}
	.st232{fill:#687E7F;}
	.st233{fill:#677E7E;}
	.st234{fill:#FFFFFE;}
	.st235{fill:#013C6D;}
	.st236{fill:#EF7F1A;}
	.st237{fill:#D87D1A;}
	.st238{fill:#013D6F;}
	.st239{fill:#023E70;}
	.st240{fill:#D31145;}
	.st241{fill:#1A9F29;}
	.st242{fill:#00674C;}
	.st243{fill:#6EC72D;}
	.st244{fill:#1B1A19;}
	.st245{fill:#9E0918;}
	.st246{fill:#004383;}
	.st247{fill:#004382;}
</style>
<g id="Карусель-логотипов">
	<g id="русбизнес-авто" transform="translate(2084.000000, 57.000000)">
		
			<g id="g10" transform="translate(89.095085, 15.999999) scale(-1, 1) rotate(-180.000000) translate(-89.095085, -15.999999) translate(0.380342, -0.000001)">
			<g id="g12" transform="translate(0.166818, 0.656152)">
				<path id="path14" class="st235" d="M-2082.1,63.3l-2.3-5h1.3l0.5,1.1h2.4l0.5-1.1h1.3l-2.3,5H-2082.1z M-2081.5,62.3
					L-2081.5,62.3l0.9-2h-1.7L-2081.5,62.3z"/>
			</g>
			<g id="g16" transform="translate(0.190171, 0.000000)">
				<g id="g18-Clipped">
					<g id="g18" transform="translate(0.000000, -0.000000)">
						<g id="g24" transform="translate(7.648599, 0.900724)">
							<path id="path26" class="st235" d="M-2083,60.2h0.6c0.8,0,1-0.4,1-0.7s-0.3-0.7-1-0.7h-0.6V60.2z M-2083,62.3h0.5
								c0.9,0,0.9-0.5,0.9-0.6c0-0.2-0.1-0.6-0.9-0.6h-0.6V62.3z M-2084.2,63v-5h1.8c1.9,0,2.3,0.8,2.3,1.4c0,0.6-0.5,1.1-1.2,1.2v0
								c0.4,0.1,1,0.4,1,1.2c0,0.8-0.8,1.2-1.9,1.2L-2084.2,63L-2084.2,63z"/>
						</g>
						<g id="g28" transform="translate(13.917394, 0.656076)">
							<polygon id="path30" class="st235" points="-2084.6,63.3 -2084.6,62.4 -2082.9,62.4 -2082.9,58.3 -2081.7,58.3 -2081.7,62.4 
								-2080,62.4 -2080,63.3 							"/>
						</g>
						<g id="g32" transform="translate(19.944747, 0.767314)">
							<path id="path34" class="st235" d="M-2081.5,62.5c0.4,0,1.6-0.2,1.6-1.8s-1.2-1.8-1.6-1.8c-0.4,0-1.6,0.2-1.6,1.8
								C-2083.2,62.4-2082,62.5-2081.5,62.5 M-2081.5,63.2c-1.4,0-2.8-0.7-2.8-2.5s1.4-2.6,2.8-2.6c1.4,0,2.8,0.8,2.8,2.6
								S-2080.1,63.2-2081.5,63.2"/>
						</g>
						<g id="g36" transform="translate(27.509975, 0.656076)">
							<polygon id="path38" class="st235" points="-2084.6,63.3 -2084.6,62.4 -2082.9,62.4 -2082.9,58.3 -2081.7,58.3 -2081.7,62.4 
								-2080,62.4 -2080,63.3 							"/>
						</g>
						<g id="g40" transform="translate(33.931515, 0.656076)">
							<polygon id="path42" class="st235" points="-2084.6,63.3 -2084.6,58.3 -2081.1,58.3 -2081.1,59.2 -2083.4,59.2 -2083.4,60.5 
								-2081.3,60.5 -2081.3,61.3 -2083.4,61.3 -2083.4,62.4 -2081.1,62.4 -2081.1,63.3 							"/>
						</g>
						<g id="g44" transform="translate(39.138320, 0.656076)">
							<polygon id="path46" class="st235" points="-2084.4,63.3 -2082.6,60.9 -2084.6,58.3 -2083.3,58.3 -2082.1,59.9 -2081.9,60.3 
								-2081.8,60.3 -2081.6,59.9 -2080.5,58.3 -2079.1,58.3 -2081,60.9 -2079.2,63.3 -2080.5,63.3 -2081.5,61.9 -2081.8,61.5 
								-2081.8,61.5 -2082,61.9 -2083,63.3 							"/>
						</g>
						<g id="g48" transform="translate(46.574536, 0.656076)">
							<polygon id="path50" class="st235" points="-2084.6,63.3 -2084.6,58.3 -2083.4,58.3 -2083.4,60.5 -2081,60.5 -2081,58.3 
								-2079.8,58.3 -2079.8,63.3 -2081,63.3 -2081,61.3 -2083.4,61.3 -2083.4,63.3 							"/>
						</g>
						<g id="g52" transform="translate(53.620749, 0.656076)">
							<polygon id="path54" class="st235" points="-2084.6,63.3 -2084.6,58.3 -2083.1,58.3 -2081.1,61.3 -2080.7,62.1 -2080.7,60.9 
								-2080.7,58.3 -2079.5,58.3 -2079.5,63.3 -2080.9,63.3 -2082.9,60.3 -2083.4,59.5 -2083.4,59.5 -2083.4,60.7 -2083.4,63.3 
															"/>
						</g>
						<g id="g56" transform="translate(61.016725, 0.656076)">
							<polygon id="path58" class="st235" points="-2084.6,63.3 -2084.6,58.3 -2083.4,58.3 -2083.4,60.8 -2083.3,60.8 -2081.2,58.3 
								-2079.7,58.3 -2082.3,61 -2079.8,63.3 -2081.2,63.3 -2083.3,61.2 -2083.4,61.2 -2083.4,63.3 							"/>
						</g>
						<g id="g60" transform="translate(67.105086, 0.675505)">
							<path id="path62" class="st235" d="M-2082.3,60.2l0.8,2h0l0.8-2H-2082.3z M-2082.1,63.3l-2.3-5h1.3l0.5,1.1h2.4l0.5-1.1h1.3
								l-2.3,5H-2082.1z"/>
						</g>
						<g id="g64" transform="translate(123.585321, 0.925790)">
							<path id="path66" class="st235" d="M-2083,60.2h0.7c0.2,0,1.1,0,1.1-0.8c0-0.3-0.3-0.7-1.1-0.7c-0.2,0-0.8,0-1.5,0.3
								l-0.1-0.9c0.6-0.2,1-0.3,1.7-0.3c0.9,0,2.4,0.2,2.4,1.4c0,0.8-0.6,1.2-1.2,1.3v0c0.6,0.2,1,0.6,1,1.1c0,0.7-0.6,1.3-2,1.3
								c-0.7,0-1.1-0.1-1.7-0.2l0.1-0.8c0.5,0.2,0.9,0.3,1.3,0.3c0.7,0,0.9-0.3,0.9-0.6c0-0.4-0.3-0.6-0.9-0.6h-0.7L-2083,60.2
								L-2083,60.2z"/>
						</g>
						<g id="g68" transform="translate(129.845824, 0.675505)">
							<path id="path70" class="st235" d="M-2082.3,60.2l0.8,2h0l0.8-2H-2082.3z M-2082.1,63.3l-2.3-5h1.3l0.5,1.1h2.4l0.5-1.1h1.3
								l-2.3,5H-2082.1z"/>
						</g>
						<g id="g72" transform="translate(137.849738, 0.656076)">
							<polygon id="path74" class="st235" points="-2084.6,63.3 -2084.6,58.3 -2083.4,58.3 -2083.4,62.5 -2081.1,62.5 -2081.1,58.3 
								-2079.9,58.3 -2079.9,63.3 							"/>
						</g>
						<g id="g76" transform="translate(144.695968, 0.656076)">
							<path id="path78" class="st235" d="M-2084.6,63.3v-1.8c0-0.7,0.3-1.5,2.3-1.5c0.5,0,0.8,0.1,1.1,0.1v-1.8h1.2v5h-1.2v-2.4
								c-0.3-0.1-0.7-0.1-1.1-0.1c-1.1,0-1.1,0.5-1.1,0.8v1.7L-2084.6,63.3L-2084.6,63.3z"/>
						</g>
						<g id="g80" transform="translate(151.009263, 0.675505)">
							<path id="path82" class="st235" d="M-2082.3,60.2l0.8,2h0l0.8-2H-2082.3z M-2082.1,63.3l-2.3-5h1.3l0.5,1.1h2.4l0.5-1.1h1.3
								l-2.3,5H-2082.1z"/>
						</g>
						<g id="g84" transform="translate(158.721759, 0.511390)">
							<path id="path86" class="st235" d="M-2080,59.5c-0.3-0.1-0.7-0.2-1.2-0.2c-1,0-2,0.5-2,1.7c0,1,0.8,1.7,2.1,1.7
								c0.4,0,0.8-0.1,1.1-0.2l0.1,0.9c-0.5,0.1-0.8,0.2-1.3,0.2c-1.8,0-3.2-0.9-3.2-2.6c0-1.8,1.6-2.5,3-2.5c0.5,0,1,0.1,1.5,0.2
								L-2080,59.5z"/>
						</g>
						<g id="g88" transform="translate(164.984925, 0.656076)">
							<polygon id="path90" class="st235" points="-2084.6,63.3 -2084.6,62.4 -2082.9,62.4 -2082.9,58.3 -2081.7,58.3 -2081.7,62.4 
								-2080,62.4 -2080,63.3 							"/>
						</g>
						<g id="g92" transform="translate(171.406389, 0.656076)">
							<polygon id="path94" class="st235" points="-2084.6,63.3 -2084.6,58.3 -2083.1,58.3 -2081.1,61.3 -2080.7,62.1 -2080.7,62.1 
								-2080.7,60.9 -2080.7,58.3 -2079.5,58.3 -2079.5,63.3 -2080.9,63.3 -2083,60.3 -2083.4,59.5 -2083.4,59.5 -2083.4,60.7 
								-2083.4,63.3 							"/>
						</g>
						<g id="g96" transform="translate(80.914234, 0.511390)">
							<path id="path98" class="st235" d="M-2080,59.5c-0.3-0.1-0.7-0.2-1.2-0.2c-1,0-2,0.5-2,1.7c0,1,0.8,1.7,2.1,1.7
								c0.4,0,0.8-0.1,1.1-0.2l0.1,0.9c-0.5,0.1-0.8,0.2-1.3,0.2c-1.8,0-3.2-0.9-3.2-2.6c0-1.8,1.6-2.5,3-2.5c0.5,0,1,0.1,1.5,0.2
								L-2080,59.5z"/>
						</g>
						<g id="g100" transform="translate(87.652142, 0.656076)">
							<polygon id="path102" class="st235" points="-2084.6,63.3 -2084.6,58.3 -2081.1,58.3 -2081.1,59.2 -2083.4,59.2 
								-2083.4,60.5 -2081.3,60.5 -2081.3,61.3 -2083.4,61.3 -2083.4,62.4 -2081.1,62.4 -2081.1,63.3 							"/>
						</g>
						<g id="g104" transform="translate(92.952054, 0.614324)">
							<path id="path106" class="st235" d="M-2083,61v1.6h0.5c0.7,0,1-0.3,1-0.8c0-0.4-0.3-0.8-1-0.8H-2083z M-2084.2,63.3v-5h1.2
								v1.9h0.7c1.5,0,2,0.9,2,1.6c0,0.3-0.1,1.6-2.2,1.6H-2084.2z"/>
						</g>
						<g id="g108" transform="translate(98.998729, 0.900724)">
							<path id="path110" class="st235" d="M-2083,60.2h0.6c0.8,0,1-0.4,1-0.7s-0.3-0.7-1-0.7h-0.6V60.2z M-2083,62.3h0.5
								c0.9,0,0.9-0.5,0.9-0.6c0-0.2-0.1-0.6-0.9-0.6h-0.6V62.3z M-2084.2,63v-5h1.8c1.9,0,2.3,0.8,2.3,1.4c0,0.6-0.5,1.1-1.2,1.2v0
								c0.4,0.1,0.9,0.4,0.9,1.2c0,0.8-0.8,1.2-1.9,1.2L-2084.2,63L-2084.2,63z"/>
						</g>
						<g id="g112" transform="translate(105.717240, 0.656076)">
							<polygon id="path114" class="st235" points="-2084.6,63.3 -2084.6,58.3 -2083.1,58.3 -2081.1,61.3 -2080.7,62.1 
								-2080.7,62.1 -2080.7,60.9 -2080.7,58.3 -2079.5,58.3 -2079.5,63.3 -2080.9,63.3 -2083,60.3 -2083.4,59.5 -2083.4,59.5 
								-2083.4,60.7 -2083.4,63.3 							"/>
						</g>
						<g id="g116" transform="translate(112.821798, 0.511390)">
							<path id="path118" class="st235" d="M-2080,59.5c-0.3-0.1-0.7-0.2-1.2-0.2c-1,0-2,0.5-2,1.7c0,1,0.8,1.7,2.1,1.7
								c0.4,0,0.8-0.1,1.1-0.2l0.1,0.9c-0.5,0.1-0.8,0.2-1.3,0.2c-1.8,0-3.2-0.9-3.2-2.6c0-1.8,1.6-2.5,3-2.5c0.5,0,1,0.1,1.5,0.2
								L-2080,59.5z"/>
						</g>
						<g id="g120" transform="translate(74.784188, 1.987962)">
							<path id="path122" class="st236" d="M-2084.6,59.5c0-0.7,0.6-1.2,1.4-1.2c0.8,0,1.4,0.6,1.4,1.2c0,0.7-0.6,1.2-1.4,1.2
								C-2083.9,60.7-2084.6,60.2-2084.6,59.5"/>
						</g>
						<g id="g124" transform="translate(119.609683, 1.987962)">
							<path id="path126" class="st237" d="M-2084.6,59.5c0-0.7,0.6-1.2,1.4-1.2c0.8,0,1.4,0.6,1.4,1.2c0,0.7-0.6,1.2-1.4,1.2
								C-2083.9,60.7-2084.6,60.2-2084.6,59.5"/>
						</g>
						<g id="g128" transform="translate(53.139008, 9.268114)">
							<path id="path130" class="st238" d="M-2000.1,71.7v4.5c0,2.7-2.1,3.5-4.1,3.5c-1.9,0-4-0.8-4-3.5V61.5c0-2.7,2.1-3.5,4-3.5
								c1.9,0,4.1,0.8,4.1,3.5v4.8h-3.1v-4.5c0-1.1-0.3-1.3-0.9-1.3c-0.6,0-1,0.3-1,1.3v14.1c0,1.1,0.3,1.3,1,1.3
								c0.6,0,0.9-0.2,0.9-1.3v-4.3H-2000.1z M-2016.3,79.3V58.4h7v2.7h-3.9v7.4h3.7v2.7h-3.7v5.3h3.8v2.7H-2016.3z M-2022.8,79.3
								h-3.1V58.4h3.1v10.2h1.7V58.4h3.1v20.9h-3.1v-8h-1.7V79.3z M-2032.5,71.9v3.2c0,1.4,0.1,2,1,2c0.7,0,0.8-0.8,0.8-2v-2.7
								c0-1.3-0.3-2.1-1.9-2.1v-2.5h0.5c0.9,0,1.4-0.5,1.4-1.7v-3.8c0-1.5-0.5-1.6-1-1.6c-0.3,0-0.8,0.2-0.8,2.2v3.2h-3.1v-3
								c0-3,0.7-5,4.1-5c2.4,0,4,0.9,4,4.2v3.5c0,1.3-0.1,2.2-2.4,3V69c2.1,0.5,2.4,1.8,2.4,3.1v3.4c0,2.3-1,4.1-3.9,4.1
								c-2.7,0-4.2-1.1-4.2-4.3v-3.4L-2032.5,71.9L-2032.5,71.9z M-2045.2,79.3V58.4h2.9l2.2,11.2h0V58.4h2.7v20.9h-2.9l-2.2-11h0
								v11H-2045.2z M-2051.9,68.3c1.6,0,1.9-0.5,1.9-0.9v-4.5c0-1.9-0.6-2-1.9-2V68.3z M-2055,79.3V58.4h3.2c3.4,0,4.9,1.4,4.9,4.1
								v4.1c0,3.4-1.6,4.3-5,4.3v6h3.7v2.5H-2055z M-2056.6,71.7v4.5c0,2.7-2.1,3.5-4.1,3.5c-1.9,0-4-0.8-4-3.5V61.5
								c0-2.7,2.1-3.5,4-3.5c1.9,0,4.1,0.8,4.1,3.5v4.8h-3.1v-4.5c0-1.1-0.3-1.3-0.9-1.3c-0.6,0-1,0.3-1,1.3v14.1
								c0,1.1,0.3,1.3,1,1.3c0.6,0,0.9-0.2,0.9-1.3v-4.3H-2056.6z M-2075.2,79.3l3.5-17.5l-0.6-3.4h2.8l3.8,20.9h-2.9l-1.7-11.1
								h-0.1l-1.6,11.1H-2075.2z M-2081.2,76.8c1.2,0,1.9-0.1,1.9-2v-5c0-0.8-1-1-1.9-1V76.8z M-2081.2,58.4v8c3.3,0,5,0.9,5,4.3
								v4.5c0,2.8-1.4,4.1-4.9,4.1h-3.2V58.4H-2081.2z"/>
						</g>
						<g id="g132" transform="translate(138.316570, 9.012114)">
							<path id="path134" class="st236" d="M-2054.9,61.8c0-2.7,2.1-3.5,4-3.5c1.9,0,4.1,0.8,4.1,3.5v14.7c0,2.7-2.1,3.5-4.1,3.5
								c-1.9,0-4-0.8-4-3.5V61.8z M-2051.8,76.2c0,1.1,0.3,1.3,1,1.3c0.6,0,0.9-0.2,0.9-1.3V62c0-1.1-0.3-1.3-0.9-1.3
								c-0.6,0-1,0.3-1,1.3V76.2z M-2064.6,79.6v-2.7h2.7V58.7h3.1v18.2h2.7v2.7H-2064.6z M-2070.8,68.4h0.6c0.9,0,1.3-0.3,1.3-1.7
								v-4c0-1.3-0.4-1.7-1.3-1.7h-0.6V68.4z M-2073.9,58.7h4.4c2.6,0,3.7,1.9,3.7,4.4v3.3c0,2.4-1,2.9-2.9,3.3v0.1
								c1.8,0.4,2.9,1,2.9,2.8v3.4c0,2.2-1.1,3.8-3.6,3.8h-4.4L-2073.9,58.7L-2073.9,58.7z M-2070.8,77.2h0.7c0.8,0,1.1-0.4,1.1-1.6
								v-3.2c0-1.2-0.3-1.6-1.1-1.6h-0.7V77.2z M-2084.3,58.7h2.8l0.7,5.7h2.2l0.6-5.7h3.1l-2.4,20.9h-4.6L-2084.3,58.7z
								 M-2080.5,67.1l0.8,8.7h0.2l0.6-8.7H-2080.5z"/>
						</g>
						<g id="g136" transform="translate(0.000000, 10.544228)">
							<path id="path138" class="st239" d="M-2084.6,58c1.8,7.1,7.2,12.4,14.2,14.3c-1.2,1.8-2.1,3.8-2.7,6h9.7
								c1.3-4.4,5.3-7.4,10-7.4c4.7,0,8.8,3,10,7.4h9.7c-1.8-7.1-7.2-12.4-14.2-14.3c1.2-1.8,2.1-3.8,2.7-6h-9.7
								c-1.2,4.4-5.3,7.4-10,7.4c-4.7,0-8.8-3-10-7.4H-2084.6z"/>
						</g>
					</g>
				</g>
			</g>
		</g>
	</g>
</g>
</svg>
