<?xml version="1.0" encoding="utf-8"?>
<!-- Generator: Adobe Illustrator 22.0.1, SVG Export Plug-In . SVG Version: 6.00 Build 0)  -->
<svg version="1.1" id="Слой_1" xmlns="http://www.w3.org/2000/svg" xmlns:xlink="http://www.w3.org/1999/xlink" x="0px" y="0px"
	 viewBox="0 0 177 80" style="enable-background:new 0 0 177 80;" xml:space="preserve">
<style type="text/css">
	.st0{fill:#682468;}
	.st1{fill:#EBB51F;}
	.st2{fill:#D14228;}
	.st3{fill:#FFFFFF;}
	.st4{fill:#0B0F10;}
	.st5{fill:#B7C8CC;}
	.st6{fill:#A5B9BF;}
	.st7{fill:#ECF3F1;}
	.st8{fill:#DAE6E4;}
	.st9{fill:#CCDADA;}
	.st10{fill:#9AAEB6;}
	.st11{fill:#B1C3C7;}
	.st12{fill:#778A96;}
	.st13{fill:#AEC0C4;}
	.st14{fill:#CFDCDC;}
	.st15{fill:#C2D1D2;}
	.st16{fill:#CDDBDB;}
	.st17{fill:#BACCCD;}
	.st18{fill:#C5D5D5;}
	.st19{fill:#D7E3E2;}
	.st20{fill:#8FA3AD;}
	.st21{fill:#92A6AE;}
	.st22{fill:#AEC0C5;}
	.st23{fill:#869AA4;}
	.st24{fill:#7F929E;}
	.st25{fill:#CEDCDC;}
	.st26{fill:#91A6AB;}
	.st27{fill:#E4EFEF;}
	.st28{fill:#A1B5B8;}
	.st29{fill:#B8CACC;}
	.st30{fill:#7E9699;}
	.st31{fill:#0B0F11;}
	.st32{fill:#1F292B;}
	.st33{fill:#354344;}
	.st34{fill:#516164;}
	.st35{fill:#9FB5B8;}
	.st36{fill:#A4B9B9;}
	.st37{fill:#AABDBD;}
	.st38{fill:#AEC2C4;}
	.st39{fill:#BDD0D0;}
	.st40{fill:#D1DFDC;}
	.st41{fill:#80939F;}
	.st42{fill:#7B8F99;}
	.st43{fill:#8599A2;}
	.st44{fill:#A4B7BC;}
	.st45{fill:#92A7AE;}
	.st46{fill:#9AB1B0;}
	.st47{fill:#B8C9CD;}
	.st48{fill:#7D919B;}
	.st49{fill:#B7CBC9;}
	.st50{fill:#D3E0E0;}
	.st51{fill:#CFDEDC;}
	.st52{fill:#E9F2EF;}
	.st53{fill:#F6F9F8;}
	.st54{fill:#DCEAED;}
	.st55{fill:#CCDCDA;}
	.st56{fill:#879AA4;}
	.st57{fill:#B8CDCB;}
	.st58{fill:#A4BBBA;}
	.st59{fill:#91AAA9;}
	.st60{fill:#7C9396;}
	.st61{fill:#D5E4E9;}
	.st62{fill:#91A8AA;}
	.st63{fill:#A5B9BA;}
	.st64{fill:#C6D8DD;}
	.st65{fill:#BFCECE;}
	.st66{fill:#91A5AE;}
	.st67{fill:#B7CBD1;}
	.st68{fill:#ACC2C7;}
	.st69{fill:#7C8F9B;}
	.st70{fill:#9CAFB9;}
	.st71{fill:#8FA2AC;}
	.st72{fill:#859AA4;}
	.st73{fill:#D9E5E3;}
	.st74{fill:#CAD9DA;}
	.st75{fill:#E3EEEB;}
	.st76{fill:#C6D6D7;}
	.st77{fill:#D6E2E1;}
	.st78{fill:#B1C3C6;}
	.st79{fill:#9FB4BC;}
	.st80{fill:#ABBCC2;}
	.st81{fill:#AABCC2;}
	.st82{fill:#F1F5F4;}
	.st83{fill:#8497A3;}
	.st84{fill:#BAC9CD;}
	.st85{fill:#CBD9DA;}
	.st86{fill:#E2EBEB;}
	.st87{fill:#95AAB1;}
	.st88{fill:#EFF5F3;}
	.st89{fill:#C4D4D4;}
	.st90{fill:#799093;}
	.st91{fill:#D2DFDF;}
	.st92{fill:#B7C8CB;}
	.st93{fill:#E4EDEC;}
	.st94{fill:#A6BABE;}
	.st95{fill:#95A9B1;}
	.st96{fill:#A5B7BE;}
	.st97{fill:#AEC3C1;}
	.st98{fill:#879BA6;}
	.st99{fill:#C1D3D4;}
	.st100{fill:#8CA1A5;}
	.st101{fill:#D6E2E2;}
	.st102{fill:#E7EEEF;}
	.st103{fill:#94A8AF;}
	.st104{fill:#8B9EA8;}
	.st105{fill:#879AA5;}
	.st106{fill:#A9BFBD;}
	.st107{fill:#9AAFB6;}
	.st108{fill:#D9E5E5;}
	.st109{fill:#B4C6CA;}
	.st110{fill:#D2DDDF;}
	.st111{fill:#BACECD;}
	.st112{fill:#8598A1;}
	.st113{fill:#91A8A9;}
	.st114{fill:#768995;}
	.st115{fill:#B7CAC9;}
	.st116{fill:#F7F9F9;}
	.st117{fill:#E2EAEB;}
	.st118{fill:#C8D9D9;}
	.st119{fill:#C1D0D2;}
	.st120{fill:#AFC2C5;}
	.st121{fill:#B1C2C6;}
	.st122{fill:#F2F7F5;}
	.st123{fill:#778B96;}
	.st124{fill:#AABDC2;}
	.st125{fill:#E6EFEE;}
	.st126{fill:#BDCED0;}
	.st127{fill:#A1B6BC;}
	.st128{fill:#8DA0AA;}
	.st129{fill:#D5E0E2;}
	.st130{fill:#AFC3C6;}
	.st131{fill:#EFF3F4;}
	.st132{fill:#ADBEC3;}
	.st133{fill:#778B98;}
	.st134{fill:#879FA0;}
	.st135{fill:#9BB1B6;}
	.st136{fill:#C2D0D3;}
	.st137{fill:#A7BBBF;}
	.st138{fill:#D8E2E3;}
	.st139{fill:#C0CED1;}
	.st140{fill:#B1C5C4;}
	.st141{fill:#EDF3F1;}
	.st142{fill:#E9F1EF;}
	.st143{fill:#9CB1B7;}
	.st144{fill:#96ACB2;}
	.st145{fill:#C5D8D5;}
	.st146{fill:#B1C5C3;}
	.st147{fill:#D7E5E2;}
	.st148{fill:#B0C1C5;}
	.st149{fill:#859AA0;}
	.st150{fill:#6E8390;}
	.st151{fill:#C0D1D0;}
	.st152{fill:#F2F6F5;}
	.st153{fill:#748793;}
	.st154{fill:#D2E1DF;}
	.st155{fill:#90A7AD;}
	.st156{fill:#E0EAE9;}
	.st157{fill:#576B7B;}
	.st158{fill:#81959F;}
	.st159{fill:#A4B5BB;}
	.st160{fill:#8FA3AA;}
	.st161{fill:#D3E0DF;}
	.st162{fill:#F1F6F5;}
	.st163{fill:#9DB2B8;}
	.st164{fill:#C2D4D2;}
	.st165{fill:#CADCD9;}
	.st166{fill:#B3C7C5;}
	.st167{fill:#DDECE7;}
	.st168{fill:#A4BABB;}
	.st169{fill:#C9D8D7;}
	.st170{fill:#DFE9EB;}
	.st171{fill:#94A8AB;}
	.st172{fill:#D1E0DD;}
	.st173{fill:#7A9094;}
	.st174{fill:#BBCECD;}
	.st175{fill:#D9E4E6;}
	.st176{fill:#8497A2;}
	.st177{fill:#D0DFDC;}
	.st178{fill:#A0B2B8;}
	.st179{fill:#B5C8C6;}
	.st180{fill:#829799;}
	.st181{fill:#ABBFBF;}
	.st182{fill:#ACC0C0;}
	.st183{fill:#D1DEDC;}
	.st184{fill:#7A9093;}
	.st185{fill:#7F9699;}
	.st186{fill:#F0F5F3;}
	.st187{fill:#E7F0EF;}
	.st188{fill:#E5EEED;}
	.st189{fill:#EDF1F2;}
	.st190{fill:#E3ECEA;}
	.st191{fill:#CEDDD8;}
	.st192{fill:#C8D6D7;}
	.st193{fill:#CAD7D8;}
	.st194{fill:#B7CBC4;}
	.st195{fill:#AFC0C4;}
	.st196{fill:#B2C3C7;}
	.st197{fill:#E2ECEB;}
	.st198{fill:#E1EBEA;}
	.st199{fill:#F3F7F6;}
	.st200{fill:#F4F8F7;}
	.st201{fill:#FCFEFD;}
	.st202{fill:#FCFDFC;}
	.st203{fill:#EFF3F3;}
	.st204{fill:#EDF3F2;}
	.st205{fill:#EBF1F1;}
	.st206{fill:#E9EFEF;}
	.st207{fill:#DFE8E7;}
	.st208{fill:#DEE8E7;}
	.st209{fill:#D3DFDF;}
	.st210{fill:#D2DDDD;}
	.st211{fill:#D2DEDE;}
	.st212{fill:#BDCECD;}
	.st213{fill:#C0CFCF;}
	.st214{fill:#C0CFCE;}
	.st215{fill:#ADC0C0;}
	.st216{fill:#AEC1C0;}
	.st217{fill:#ACBFBF;}
	.st218{fill:#ADC0BF;}
	.st219{fill:#A0B3B4;}
	.st220{fill:#9BB0B1;}
	.st221{fill:#92A8A8;}
	.st222{fill:#8EA3A3;}
	.st223{fill:#879D9C;}
	.st224{fill:#839998;}
	.st225{fill:#819796;}
	.st226{fill:#7E9393;}
	.st227{fill:#778D8D;}
	.st228{fill:#748A8B;}
	.st229{fill:#768D8D;}
	.st230{fill:#73898A;}
	.st231{fill:#698080;}
	.st232{fill:#687E7F;}
	.st233{fill:#677E7E;}
	.st234{fill:#FFFFFE;}
	.st235{fill:#013C6D;}
	.st236{fill:#EF7F1A;}
	.st237{fill:#D87D1A;}
	.st238{fill:#013D6F;}
	.st239{fill:#023E70;}
	.st240{fill:#D31145;}
	.st241{fill:#1A9F29;}
	.st242{fill:#00674C;}
	.st243{fill:#6EC72D;}
	.st244{fill:#1B1A19;}
	.st245{fill:#9E0918;}
	.st246{fill:#004383;}
	.st247{fill:#004382;}
</style>
<g id="Карусель-логотипов">
	<g id="rosgosstrah" transform="translate(3297.000000, 33.000000)">
		<path id="Shape_28_" d="M-3213.8-18v1.9h10.6V-18c2.6-0.4,4.2-2.7,4.3-5c0.1-1.9-1-3.7-3.6-4.1l0.2-0.7l-3.3,0l-0.2,1h-1.3
			c0.2-0.3,0.4-0.7,0.4-1.1c0-0.6-0.3-1.2-0.8-1.5v-0.5h1v-2h-1v-1h-1.9v1h-1v2h1v0.5c-0.5,0.3-0.9,0.9-0.9,1.5
			c0,0.4,0.1,0.8,0.4,1.1h-1.3l-0.2-1l-3.3,0l0.2,0.7c-2.6,0.4-3.6,2.2-3.6,4.1C-3218-20.8-3216.3-18.4-3213.8-18z"/>
		<path id="Shape_29_" d="M-3122.9,15c-10.4-0.3-20.8-2.7-29.4-8.6c-2.2-3.3-6.3-5.1-9.8-6.4c-1.2-3.3-4.6-4.9-7.7-6.1
			c-1.1-2.2-2.3-2.8-4.2-3.3c-0.6-0.2-2.6-0.4-3.6-0.7c-2.5-0.7-5.1-1.8-7.7-0.3c-5.2,2.6,1.7,7.7-6,9.1c0.4-1.3,1-2.6,1.5-3.8
			c-2.1-0.3-5.3-0.7-6.3-1.4c0-0.8,0.2-2,0.4-2.5c0,0,0.4,1,0.4,0.9c0.2-0.7,0.5-1.8,1.1-2.3c1.1,0.3,5.3,1.6,5.8-1.3
			c-0.8,0-1.9,0-2.6-0.5c1-0.5,3.1-0.7,3.8,0.4c0.1,0.2,0.2,0.2,0.3,0.1c1.4-2.9-2-4.1-3.4-4.2c-0.2-0.4-0.5-0.7-0.9-0.9l0-1.2
			c1.4-0.1,2.1-1.4,2.1-2.7c0-1.2-0.6-2.4-2-2.4l0.1-0.3c-0.6,0-1.1,0-1.7,0l-0.1,0.4c-0.2,0-0.4,0-0.6,0c0.1-0.1,0.1-0.3,0.1-0.5
			c0-0.3-0.2-0.6-0.5-0.8v-0.4h0.5v-0.9h-0.5V-26c-0.3,0-0.6,0-0.9,0v0.5h-0.5v0.9h0.5v0.4c-0.3,0.2-0.5,0.5-0.5,0.8
			c0,0.2,0.1,0.4,0.1,0.5c-0.2,0-0.4,0-0.6,0l-0.1-0.4c-0.6,0-1.1,0-1.7,0l0.1,0.3c-1.4,0-2,1.2-2,2.4c0,1.2,0.7,2.5,2.1,2.6l0,1.2
			c0,0,0,0,0,0c0,0,0,0,0,0c-1.5,0.2-2.8,0-3.7-0.1c0,0.8,0.9,1.9,2,2.2c-0.7,0.4-1.8,0.9-2.6,1.1c-0.1,0,1,0.2,0.9,0.3
			c-0.6,0.6-2,1.1-2.8,1.3c-0.1,0,1.1,0.1,1,0.2c-0.3,0.1-2,1.2-2,1.2h-8.4c0,0-1.7-1.1-2-1.2c-0.1-0.1,1.1-0.2,1-0.2
			c-0.8-0.3-2.2-0.8-2.8-1.3c-0.1,0,1-0.2,0.9-0.3c-0.8-0.2-1.9-0.7-2.6-1.1c1.1-0.4,2-1.5,2-2.2c-1,0.1-2.2,0.3-3.7,0.1
			c0,0,0,0,0,0c0,0,0,0,0,0l0-1.2c1.4-0.1,2.1-1.4,2.1-2.6c0-1.2-0.6-2.4-2-2.4l0.1-0.3c-0.6,0-1.1,0-1.7,0l-0.1,0.4
			c-0.2,0-0.4,0-0.6,0c0.1-0.1,0.1-0.3,0.1-0.5c0-0.3-0.2-0.6-0.5-0.8v-0.4h0.5v-0.9h-0.5V-26c-0.3,0-0.6,0-0.9,0v0.5h-0.5v0.9h0.5
			v0.4c-0.3,0.2-0.5,0.5-0.5,0.8c0,0.2,0.1,0.4,0.1,0.5c-0.2,0-0.4,0-0.6,0l-0.1-0.4c-0.6,0-1.1,0-1.7,0l0.1,0.3c-1.4,0-2,1.2-2,2.4
			c0,1.2,0.7,2.5,2.1,2.7v1.2c0,0,0,0,0,0c0,0,0,0,0,0c-0.4,0.3-0.7,0.5-0.9,0.9c-1.5,0-4.9,1.2-3.4,4.2c0.1,0.1,0.2,0.1,0.3-0.1
			c0.7-1.1,2.8-0.9,3.8-0.4c-0.6,0.6-1.8,0.5-2.6,0.5c0.5,2.8,4.7,1.6,5.8,1.3c0.6,0.5,0.9,1.6,1.1,2.3c0,0,0.4-1,0.4-0.9
			c0.2,0.5,0.4,1.7,0.4,2.5c-1,0.6-4.2,1.1-6.3,1.4c0.5,1.2,1.2,2.6,1.5,3.8c-7.7-1.4-0.8-6.5-6-9.1c-2.6-1.5-5.3-0.4-7.7,0.3
			c-1,0.3-3,0.5-3.6,0.7c-1.8,0.4-3.1,1-4.2,3.3c-3.1,1.2-6.5,2.8-7.7,6.1c-3.5,1.3-7.6,3.2-9.8,6.4c-8.7,5.9-19.1,8.3-29.4,8.6
			c-1.5,0-2.5,0.1-2.9,1.8c0,2.9,3.2,3.4,5.3,3.5c0,0,0.1,0.6,0.2,0.8c1.3,2.4,4.7,2.4,6.7,2.2c2.1,3.1,6.5,2.6,9.2,1.8
			c1.7,2.1,7,2.5,9.8,1.9c3.8,1.2,5.7,0.7,6.9,0.5c-0.2,1.8-2.5,3.1-4,3v12.9c2.4,0.1,3.8,1.5,4,3.7h100.7c0.2-2.2,1.6-3.7,4-3.7
			V30.4c-1.5,0.1-3.8-1.2-4-3c1.2,0.3,3.1,0.7,6.9-0.5c2.8,0.6,8.1,0.2,9.8-1.9c2.7,0.9,7.1,1.3,9.2-1.8c1.9,0.2,5.4,0.2,6.7-2.2
			c0.1-0.2,0.2-0.8,0.2-0.8c2.1-0.1,5.3-0.6,5.3-3.5C-3120.4,15.1-3121.4,15-3122.9,15z M-3257.3,26.6c5.6-1.5,9.9-4.7,13.9-7.7
			c1.1,0.9,2.4,0.8,3.6-0.2c0.4,1.1,1,2.4,2.9,1.9c0.3,0.6,1.4,2.3,3.3,2c1.5,1.5,2.3,1.1,3,0.9c0.6,0.5,1.6,0.9,2.8,0.3
			c0.7,0.8,1.6,0.8,2.6,0.5c0.3,0.4,1.1,0.5,1.4,0.3c0.9,0.5,2.8,1.6,3.8,2.1L-3257.3,26.6z M-3196.8,26.6c1-0.5,3-1.6,3.8-2.1
			c0.4,0.3,1.2,0.1,1.4-0.3c1,0.3,1.9,0.4,2.6-0.5c1.2,0.6,2.3,0.2,2.8-0.3c0.7,0.2,1.5,0.7,3-0.9c1.9,0.4,3-1.3,3.3-2
			c1.9,0.6,2.5-0.8,2.9-1.9c1.2,1,2.5,1.1,3.6,0.2c4,2.9,8.4,6.2,13.9,7.7L-3196.8,26.6z"/>
		<path id="Shape_30_" class="st3" d="M-3154.8,31.1v11.2c-1.7,0.1-3.6,1.8-3.8,3.5h-99.3c-0.2-1.8-2-3.4-3.8-3.5V31.1
			c1.8-0.4,3.5-2,3.9-3.8h40.1c2,1,6.4,2.6,9.5,3.4c3.1-0.9,6.4-2.1,9.4-3.4h40C-3158.3,29.2-3156.6,30.7-3154.8,31.1z"/>
		<path id="Shape_31_" class="st3" d="M-3193.1,16.8l0-15.1c0-1.8,0.5-3.6,1.4-5.3c-4.1-0.5-7.8-2.4-10.9-5.1h-11
			c-3.2,2.6-6.8,4.6-10.9,5.1c0.9,1.7,1.4,3.4,1.4,5.3l0,15.1c0,2.5-0.4,3-1.8,5c0,0,0,0,0.1,0.1c5,3.9,10.7,5.9,16.8,7.2
			c5.9-1,12-3.5,16.8-7.2c0,0,0,0,0.1-0.1C-3192.8,19.7-3193.1,19.2-3193.1,16.8z M-3208.2,27.4c-5.4-1.2-10-2.9-14.6-5.9
			c1.1-1.3,1.2-3.2,1.2-4.7l0-14.9c0-1.5-0.4-3-0.9-4.4c2.6-0.1,7.8-3,9.2-4.5h10.3c1.4,1.5,6.6,4.4,9.2,4.5
			c-0.5,1.4-0.9,2.9-0.9,4.4l0,14.9c0,1.5,0.1,3.4,1.2,4.7C-3198.2,24.4-3203,26.2-3208.2,27.4z"/>
		<path id="Shape_32_" d="M-3159.7,29h-44.8c-2,0.6-3.7,1-3.7,1s-1.5-0.4-3.7-1c-0.7,0-44.8,0-44.8,0c-0.3,1.1-2,2.9-3.2,3.2v8.9
			c1.4,0.3,2.8,1.6,3.2,3h96.9c0.4-1.4,1.7-2.7,3.2-3v-8.9C-3157.7,32-3159.4,30.3-3159.7,29z M-3160.1,29.8h-45
			c-1.7,0.5-3,0.9-3,0.9s-1.7-0.4-3.6-1l-44.6,0.1c-0.2,1-1.7,2.6-2.7,2.8v7.9c1.2,0.3,2.4,1.4,2.7,2.7h96.3
			c0.3-1.3,1.5-2.4,2.7-2.7v-7.9C-3158.3,32.5-3159.8,31-3160.1,29.8z"/>
		<path id="Shape_33_" class="st3" d="M-3191.3,19.8c0.7-2.8,0.5-5.7,0.5-8.7c-0.6,0.4-0.5,0.4-1.1,0.1l0,5.4
			C-3192,18.5-3191.7,18.8-3191.3,19.8z"/>
		<path id="Shape_34_" class="st3" d="M-3185,8.8c-1-0.6-1.8-1.6-2.6-2.4c-0.5,0.4-0.7,0.5-1.4,0.6
			C-3188.9,7.3-3186.5,10.5-3185,8.8z"/>
		<path id="Shape_35_" class="st3" d="M-3187,9.9l-0.4,0.2c0.5,2.3,2.1,4.2,3.5,3.8c-0.7-0.9-1.4-2.7-1.8-3.9
			C-3186.1,10.5-3186.7,10.1-3187,9.9z"/>
		<path id="Shape_36_" class="st3" d="M-3179,2.9c0,0.6-0.3,0.7-0.8,1c0.4,0.5,4.1,3.8,5.2,2C-3176.1,4.9-3177.5,4.1-3179,2.9z"/>
		<path id="Shape_37_" class="st3" d="M-3171.1,4.6c-0.6-0.5-3.8-1.9-5.4-2.9c-0.3,0.6-0.4,0.6-1,1C-3175.4,4-3172.7,6.4-3171.1,4.6
			z"/>
		<path id="Shape_38_" class="st3" d="M-3176.9,6.9c-1.1-0.3-2.8-1.9-3.4-2.8c-0.2,0.4-0.6,1.1-1.2,1
			C-3180.3,6.4-3177.9,8.8-3176.9,6.9z"/>
		<path id="Shape_39_" class="st3" d="M-3182.4,5.3c-0.2,0.6-1.4,0.8-1.4,0.8c0.4,0.4,3.5,4,4.6,2.1
			C-3180.2,7.3-3181.5,6.3-3182.4,5.3z"/>
		<path id="Shape_40_" class="st3" d="M-3185.4,5.8c-0.2,0.7-1,0.8-1.4,0.8c0.4,0.6,3.8,3.9,4.6,2.2
			C-3183.3,7.9-3184.4,6.9-3185.4,5.8z"/>
		<path id="Shape_41_" class="st3" d="M-3190.5,7c-0.2,0.5-1.4,0.5-1.4,0.4c0.3,0.6,2.5,3.6,4.1,2C-3188.2,9.3-3190.5,7-3190.5,7z"
			/>
		<path id="Shape_42_" class="st3" d="M-3191.4,6.2l-0.6-0.9c0,0.5,0,0.7,0,1.2C-3191.8,6.4-3191.5,6.3-3191.4,6.2z"/>
		<path id="Shape_43_" class="st3" d="M-3189.1,6.1c0,0-0.3-0.8-1.1-1.5c-0.4,0.7-0.7,0.6-1.2,0.5C-3190.6,6.4-3190,6.7-3189.1,6.1z
			"/>
		<path id="Shape_44_" class="st3" d="M-3186.2,5.6c-0.1-0.4-1.2-0.9-1.7-1.5c0,0.5-0.6,0.5-1.2,0.6
			C-3188.6,5-3187.4,6.4-3186.2,5.6z"/>
		<path id="Shape_45_" class="st3" d="M-3183.8,4.9c-0.3-0.6-1.1-0.9-1.6-1.4c-0.1,0.6-0.5,0.7-1.3,0.7
			C-3186.2,4.7-3184.6,5.9-3183.8,4.9z"/>
		<path id="Shape_46_" class="st3" d="M-3182.1,3.5c-0.5-0.1-1.4-0.9-1.7-1.2c0,0,0,0.3-0.3,0.5c-0.2,0.2-0.7,0.1-0.9,0.1
			C-3184.6,3.2-3183.1,5-3182.1,3.5z"/>
		<path id="Shape_47_" class="st3" d="M-3179.8,2.5c0-0.6-1-1.1-1.4-1.3c-0.1,0.7-0.8,0.8-1.5,0.8
			C-3182.1,2.5-3180.3,3.5-3179.8,2.5z"/>
		<path id="Shape_48_" class="st3" d="M-3177.5,1c-0.6-0.5-1.2-1-1.8-1.5c-0.4,0.9-1.4,0.5-1.7,0.9C-3180.5,0.6-3178.2,3-3177.5,1z"
			/>
		<path id="Shape_49_" class="st3" d="M-3170.7,2.9c0.1-0.2,0.2-0.3,0.3-0.4c0.1-0.1,0.4-0.3,0.5-0.4c-1.3-0.2-4.3-2.4-5.2-3.2
			c-0.5,0.3-1.2,0.6-2.9,0.2C-3175.8,0.7-3173.3,2.3-3170.7,2.9z"/>
		<path id="Shape_50_" class="st3" d="M-3166.5,1.5c0.3-1.1-1.5-0.9-4.1-2.9c-1.1-0.9-2.3-2-3.8-1.1c-0.3,0.2-0.2,0.6-0.2,0.9
			C-3172.7,0.2-3169.2,2.6-3166.5,1.5z"/>
		<path id="Shape_51_" class="st3" d="M-3168.7,2.7c3.2,2.9,7.3,6.1,11.8,6.1c0.5-0.2,0.4-0.7,0.3-1.1c-3.3-1.1-6.8-3.2-9.5-5.3
			C-3168.1,2.7-3168.7,2.6-3168.7,2.7z"/>
		<path id="Shape_52_" class="st3" d="M-3169.7,2.9l-0.7,0.6l-0.1,0.1c0,0,0,0.1,0.1,0.1c0.3,0.3,0.4,0.7,0.4,1.3
			c2.7,2.3,5.2,4.2,8.9,4.9c0.2,0,0.5-0.3,0.6-0.6C-3164.5,7.7-3167.3,5.6-3169.7,2.9z"/>
		<path id="Shape_53_" class="st3" d="M-3161.6,10.7c-1,0-1.6-0.4-2.5-0.9C-3163,13.3-3160.2,15.2-3161.6,10.7z"/>
		<path id="Shape_54_" class="st3" d="M-3165.5,9.5c-1.4-0.6-3.2-1.8-3.3-1.9c0.9,1.7,3.8,8,5.8,6
			C-3164,12.5-3164.7,10.8-3165.5,9.5z"/>
		<path id="Shape_55_" class="st3" d="M-3170.6,5.8c-0.5,0.5-1,0.4-1.7,0.5c1,2,3,7.7,5.8,7C-3166.7,13.4-3170.1,6.9-3170.6,5.8z"/>
		<path id="Shape_56_" class="st3" d="M-3173.4,6.4c-0.5,0.4-1.1,0.9-1.8,0.9c0.9,1.4,3.4,7.5,5.8,5.8
			C-3169.3,13.1-3171.7,11.1-3173.4,6.4z"/>
		<path id="Shape_57_" class="st3" d="M-3175.6,7c-0.2,0.5-0.6,0.7-1.2,0.8c1.4,3.9,6.9,11,10.6,11.4c0.2,0,1.2-0.1,0.9-0.3
			C-3167.5,17.4-3172.9,12.6-3175.6,7z"/>
		<path id="Shape_58_" class="st3" d="M-3178.3,8.2l-0.4-0.1c-0.2,0.5-0.4,0.9-1,1.1c3.2,7.7,7.6,10.4,8.7,8.9
			C-3174.4,15.6-3176.9,12.3-3178.3,8.2z"/>
		<path id="Shape_59_" class="st3" d="M-3180.7,9.4c-0.2,0-0.3-0.1-0.5-0.1c-0.1,0-0.1,0.6-0.8,1c0.6,1.7,5,10.8,7.5,8.6
			C-3177.2,16.4-3179.6,12.9-3180.7,9.4z"/>
		<path id="Shape_60_" class="st3" d="M-3179.2,16.9c-0.2,0.8-0.5,2-0.6,2.9c1.1,0.2,1.6-0.7,1.7-1.6L-3179.2,16.9z"/>
		<path id="Shape_61_" class="st3" d="M-3179.8,15.6c-1.1-1.6-2.3-3.5-2.9-5.4c-0.5,0.1-1.3-0.1-1.8-0.4
			C-3183.9,12.4-3182.3,16.2-3179.8,15.6z"/>
		<path id="Shape_62_" class="st3" d="M-3181.4,16.3c-0.3,1.8-0.6,3.6-1.2,5.2c2.5,0,2.4-3.1,2.9-4.9
			C-3180.1,16.6-3180.8,16.7-3181.4,16.3z"/>
		<path id="Shape_63_" class="st3" d="M-3182.1,16.1c0-0.1-0.4-0.3-0.7-0.6c-0.2-0.2-0.3-0.4-0.3-0.4c-0.2,0.1-0.9,0.1-1.1,0.1
			c0.3,0.7-0.8,7.4-1.4,7.9C-3183.1,24.3-3182.6,18.6-3182.1,16.1z"/>
		<path id="Shape_64_" class="st3" d="M-3185,14.9c-0.7-0.4-1.5-0.9-2-1.5c0,3-0.1,6.8-1.4,9.6C-3185.7,24.9-3185.2,16.4-3185,14.9z
			"/>
		<path id="Shape_65_" class="st3" d="M-3188.2,10.5c-0.2,0.2-1.3,0.5-1.5,0.3c0.2,3.1,0.3,6.7-0.6,9.6c0.4,0.3,0.8,0.5,1.2,0.8
			c-0.7,0.6-1.4,1.2-2.1,1.7c-0.1,0.1-0.1,0.1-0.2,0.2C-3187.6,24.4-3187.6,12.3-3188.2,10.5z"/>
		<path id="Shape_66_" class="st3" d="M-3190.8,10.4c-0.4-0.4-1-1.3-1.2-1.7l0,1.5C-3191.8,10.5-3191.4,10.5-3190.8,10.4z"/>
		<path id="Shape_67_" class="st3" d="M-3176.3-8.4c-2.2-0.6-4.2-1.5-6.5-1.4c-1.4,0.1-3.5,1.3-3.6,3c0.3,4.4,0,6.1-5.3,7
			c-0.3,1.5-0.2,2.9-0.2,4.4c0.2,0.1,0.5,0.2,0.9,0.1c0.8-0.2-0.2-0.9-0.5-1.9c0.2-0.1,0.4-0.2,0.6-0.1c0.1,0,0.4,0.6,0.9,1.2
			c0.5,0.6,1.8,0.4,1.3-0.3c-0.4-0.4-1.1-1.3-1-1.5c0.4-0.4,0.7-0.2,1,0.2c0.5,0.6,1.4,1.8,2.3,1.2c0.5-0.2-1-1.8-1.1-2
			c-0.1-0.1,0.3-0.5,0.4-0.4c0.8,0.7,1.6,2,2.7,1.3c0.3-0.5-0.1-1-1.3-2c0,0,0.6-0.4,0.6-0.5c0.5,0.4,2.2,2.2,3,1.4
			c0.8-0.8-1.9-1.9-2.2-2.4c0.1-0.1,0.4-0.5,0.5-0.5c0.3,0.2,3.2,2.4,4,0.4c-0.2-0.1-1-0.4-2.7-1.5c-0.3-0.2,0-0.6,0.2-0.7
			c5.6,3.4,6.9,1.6,6.6,1c-1.1-0.3-2.4-0.5-5.7-2.1c-0.1-0.3,0.1-0.7,0.2-0.9c0.5,0.3,8.5,4.1,8.4,1c-2.5-0.4-5-0.9-7.2-2.5
			c-0.3-0.3,0.1-0.8,0.3-0.9c2.3,1.4,5.4,2.8,8.1,1.9C-3172.1-7.9-3174.6-8-3176.3-8.4z"/>
		<path id="Shape_68_" class="st3" d="M-3169.3-4.5c-0.8-0.3-1.4,0.1-2.1,0.1c0.3,0.3,0,1-0.2,1.3c3.7,2.7,3.6,2.6,5.6,3.5
			c0.9,0.4,1.9,0.2,2.5-0.1C-3164.3-2.6-3166.8-3.2-3169.3-4.5z"/>
		<path id="Shape_69_" class="st3" d="M-3153.7,7.2c-2.2-3.1-5.3-4.5-8.6-6c-0.8,0.4-2,0.4-2.8,0.4c0.1,0.3,0,0.6-0.2,0.9
			C-3164.8,2.8-3152.9,10.9-3153.7,7.2z"/>
		<path id="Shape_70_" class="st3" d="M-3124.9,19.2c2.3,0.2,3.7-1.6,3-2.3c-0.3-0.7-1.4-0.7-1.8-0.7c-11.4-0.5-21.9-3.6-29.2-8.6
			c-0.6,1.7-1.8,1.2-2.8,0.7c0.2,0.5,0,0.8-0.3,1.4C-3148.1,15.4-3135.5,19.1-3124.9,19.2z"/>
		<path id="Shape_71_" class="st3" d="M-3127,20.1c-11.5-0.3-20.5-3.6-30.2-9.7c-0.4-0.2-1.3-0.1-2.4-0.5c0,0-0.6,0.9-1,1
			c0,0,0.1,0.9,0.3,1.1C-3154.8,17.7-3128,25.9-3127,20.1z"/>
		<path id="Shape_72_" class="st3" d="M-3134.5,22.9c-9.8-1.2-18.4-4.6-26.2-9.5c0,0.5-0.2,2.1-2.2,0.5c-0.4,0.7-1.2,0.5-1.2,0.5
			C-3162.6,17.2-3137.1,28.4-3134.5,22.9z"/>
		<path id="Shape_73_" class="st3" d="M-3143.2,24.9c-8.4-2-15.7-4.9-22.6-10.8c-1.1,0.2-2.1-0.6-3.5,0.5
			C-3165.2,19.8-3149,29.6-3143.2,24.9z"/>
		<path id="Shape_74_" class="st3" d="M-3152.5,25.8c-6-1.7-8-3.5-12.2-6.1c-1.9,1.2-3.9-0.1-5.3-1.1c-0.1,0.1-1,0.2-1.1,0.4
			C-3165.4,23.4-3158.7,27.2-3152.5,25.8z"/>
		<path id="Shape_77_" class="st3" d="M-3194.3-23.7c0.3,0,0.6,0.3,0.6,0.6c0,0.3-0.3,0.6-0.6,0.6c0,0,0,0,0,0h0c0,0,0,0,0,0
			c-0.3,0-0.6-0.3-0.6-0.6C-3194.9-23.5-3194.6-23.7-3194.3-23.7L-3194.3-23.7z"/>
		<path id="Shape_79_" class="st3" d="M-3222.7-23.7c0.3,0,0.6,0.3,0.6,0.6c0,0.3-0.3,0.6-0.6,0.6c0,0,0,0,0,0l0,0h0
			c-0.3,0-0.6-0.3-0.6-0.6C-3223.3-23.5-3223-23.7-3222.7-23.7L-3222.7-23.7z"/>
		<polygon id="Shape_81_" class="st3" points="-3209.4,-30.9 -3209.4,-31.6 -3208.5,-31.6 -3208.5,-32.4 -3207.9,-32.4 
			-3207.9,-31.6 -3207,-31.6 -3207,-30.9 -3207.9,-30.9 -3207.9,-30.1 -3208.5,-30.1 -3208.5,-30.9 		"/>
		<path id="Shape_82_" class="st3" d="M-3208.5-29.5c0.5,0,0.9,0.4,0.9,0.9c0,0.5-0.4,0.9-0.9,0.9s-0.9-0.4-0.9-0.9
			C-3209.4-29.1-3209-29.5-3208.5-29.5z"/>
		<path id="Shape_83_" class="st3" d="M-3212.9-17.9v-0.6h8.7v0.6C-3204.1-17.9-3210-17.9-3212.9-17.9z"/>
		<path id="Shape_84_" class="st3" d="M-3209.3-19.7l-1.8-7c0.3,0,0.7,0,1,0l1.3,5.1l1.3-5.1c0.3,0,0.7,0,1,0l-1.8,7
			C-3208.6-19.7-3209-19.7-3209.3-19.7z"/>
		<path id="Shape_85_" class="st3" d="M-3208.2-24.3l-0.6-2.3c0.4,0,0.8,0,1.2,0L-3208.2-24.3z"/>
		<polygon id="Shape_86_" class="st3" points="-3204.7,-27.2 -3207,-19.1 -3206,-19.1 -3203.6,-27.2 		"/>
		<path id="Shape_87_" class="st3" d="M-3202.7-26.6c-0.7,2.5-1.4,5-2.1,7.5c2.9,0,4.6-2.2,4.6-4.3
			C-3200-24.8-3200.8-26.2-3202.7-26.6z"/>
		<polygon id="Shape_88_" class="st3" points="-3212.3,-27.2 -3210,-19.1 -3211,-19.1 -3213.4,-27.2 		"/>
		<path id="Shape_89_" class="st3" d="M-3214.3-26.6c0.7,2.5,1.4,5,2.1,7.5c-2.9,0-4.6-2.2-4.6-4.3
			C-3217-24.8-3216.2-26.2-3214.3-26.6z"/>
		<path id="Shape_90_" class="st3" d="M-3194.1-25.5v0.4h0.4v0.3h-0.4v0.4c-0.1,0-0.2,0-0.3,0v-0.4h-0.4v-0.3h0.4v-0.4
			C-3194.3-25.5-3194.2-25.5-3194.1-25.5z"/>
		<path id="Shape_91_" class="st3" d="M-3193.7-22.6l-0.3,1.2l-0.3-1.2C-3194.1-22.6-3193.9-22.6-3193.7-22.6z"/>
		<path id="Shape_92_" class="st3" d="M-3193.7-20c0.2-0.9,0.4-1.7,0.6-2.6h0.5l-0.9,3.5c-0.2,0-0.4,0-0.6,0l-0.9-3.5h0.5
			C-3194.1-21.7-3193.9-20.9-3193.7-20z"/>
		<path id="Shape_93_" class="st3" d="M-3192-17.9l0,0.6h-4.1l0-0.6C-3196-17.9-3193.3-17.9-3192-17.9z"/>
		<path id="Shape_94_" class="st3" d="M-3196-18.6l-0.9-4c-0.9,0-1.4,0.9-1.4,1.8C-3198.3-19.5-3197.5-18.2-3196-18.6z"/>
		<polygon id="Shape_95_" class="st3" points="-3196,-23.1 -3196.6,-23.1 -3195.4,-19.1 -3194.9,-19.1 		"/>
		<path id="Shape_96_" class="st3" d="M-3192.5-18.6l0.9-4c0.9,0,1.4,0.9,1.4,1.8C-3190.2-19.5-3191-18.2-3192.5-18.6z"/>
		<polygon id="Shape_97_" class="st3" points="-3192,-23.1 -3191.4,-23.1 -3192.6,-19.1 -3193.1,-19.1 		"/>
		<path id="Shape_98_" class="st3" d="M-3222.6-25.5v0.4h0.4v0.3h-0.4v0.4c-0.1,0-0.2,0-0.3,0v-0.4h-0.4v-0.3h0.4v-0.4
			C-3222.8-25.5-3222.7-25.5-3222.6-25.5z"/>
		<path id="Shape_99_" class="st3" d="M-3222.1-22.6l-0.3,1.2l-0.3-1.2C-3222.5-22.6-3222.3-22.6-3222.1-22.6z"/>
		<path id="Shape_100_" class="st3" d="M-3222.7-20c0.2-0.9,0.4-1.7,0.6-2.6h0.5l-0.9,3.5c-0.2,0-0.4,0-0.6,0l-0.9-3.5h0.5
			C-3223.2-21.7-3222.9-20.9-3222.7-20z"/>
		<polygon id="Shape_101_" class="st3" points="-3221,-17.9 -3221,-17.3 -3225,-17.3 -3225,-17.9 		"/>
		<path id="Shape_102_" class="st3" d="M-3225-18.6l-0.9-4c-1,0-1.4,0.9-1.4,1.9C-3227.3-19.5-3226.5-18.2-3225-18.6z"/>
		<polygon id="Shape_103_" class="st3" points="-3224.4,-23.1 -3225,-23.1 -3223.8,-19.1 -3223.3,-19.1 		"/>
		<path id="Shape_104_" class="st3" d="M-3221-18.6l0.9-4c0.9,0,1.4,0.9,1.4,1.8C-3218.7-19.5-3219.5-18.2-3221-18.6z"/>
		<polygon id="Shape_105_" class="st3" points="-3221,-23.1 -3220.4,-23.1 -3221.6,-19.1 -3222.1,-19.1 		"/>
		<polygon id="Shape_106_" class="st3" points="-3220.3,-6.9 -3219.8,-6.6 -3220.4,-6.3 		"/>
		<path id="Shape_107_" class="st3" d="M-3214-10.5h-1.1c-0.1,0.2-0.3,0.4-0.5,0.7c-0.1-0.2-0.2-0.5-0.2-0.9
			C-3215.1-11.2-3214.6-11-3214-10.5z"/>
		<path id="Shape_108_" class="st3" d="M-3215.2-11.8c-0.9,0.6-2.7-0.3-2.9-0.7c0.6,0,0.8-0.2,1.1-0.2
			C-3216.4-12.8-3215.4-12.2-3215.2-11.8z"/>
		<path id="Shape_109_" class="st3" d="M-3218-8.7l0.6,0.2c-0.1,0-0.5,0.3-0.6,0.4C-3218-8.3-3218-8.4-3218-8.7z"/>
		<path id="Shape_110_" class="st3" d="M-3218.7-9.9c1.1,0.2,1.4-0.4,1.3-1c0.3,0.2,0.6,0.4,1,1.2l-0.7,0.5
			C-3217.4-9.3-3218.3-9.6-3218.7-9.9z"/>
		<path id="Shape_111_" class="st3" d="M-3221-9.4c0.4-0.1,0.8-0.5,0.8-1c0.9,0.5,1.3,2.1,0.7,2.8C-3220.1-7.2-3220.9-8.7-3221-9.4z
			"/>
		<path id="Shape_112_" class="st3" d="M-3222.1-12.7c0.6-0.1,0.8-0.8,0.9-1.2c0.4,0.3,1.1,1.1,0.8,1.6
			C-3221-11.9-3221.7-12.4-3222.1-12.7z"/>
		<path id="Shape_113_" class="st3" d="M-3220.4-11.4c0.7,0,1.1-0.5,0.9-1.3c1.1,0.4,1.6,1.5,1.4,2.1
			C-3218.5-10-3220.1-10.7-3220.4-11.4z"/>
		<path id="Shape_114_" class="st3" d="M-3217.5-13.6c-0.9,0.5-2,0.5-3.5-0.8C-3219.7-14.6-3218.4-14.3-3217.5-13.6z"/>
		<path id="Shape_115_" class="st3" d="M-3217.5-16c-0.6,0.7-1.4,1-2.5,0.9c-1.5-0.2-3.4-0.3-4.8-0.1l-0.2-0.3
			C-3224.4-17-3219.2-15.6-3217.5-16z"/>
		<path id="Shape_116_" class="st3" d="M-3227.3-11.3c0.8,0,1.8-0.3,2.2-0.7c0-0.3-0.7-0.9-1-1c-1.2-0.3-2.5-0.6-3.6,0.2
			c-0.4-1.7,2.2-2.1,3.6-2.1c0.5,1.5,1.8,2.4,2.7,3.7C-3223.5-11.3-3226.6-10.5-3227.3-11.3z"/>
		<path id="Shape_117_" class="st3" d="M-3222.6-12.7c-0.9-0.6-1.2-0.8-1.8-1.7c0.1,0,0.2,0,0.4,0c0.3,0.4,0.5,0.6,0.9,0.7l0.7-0.8
			c0.3,0,0.6,0,0.9,0.1C-3221.6-13.3-3221.9-13.2-3222.6-12.7z"/>
		<path id="Shape_118_" class="st3" d="M-3222.1-11c0.4-0.2,0.5-0.1,0.6-0.6l0.7,0.6c0.3,0.3,0.7,1.1,0.4,1.8
			C-3221.5-9.3-3221.9-10.2-3222.1-11z"/>
		<path id="Shape_119_" class="st3" d="M-3226.2,19.8c-0.7-2.8-0.5-5.7-0.5-8.7c0.6,0.3,0.5,0.1,1.1,0l0,5.5
			C-3225.6,18.2-3225.8,18.4-3226.2,19.8z"/>
		<path id="Shape_120_" class="st3" d="M-3232,8.8c1-0.6,1.8-1.6,2.6-2.4c0.5,0.4,0.7,0.5,1.4,0.6C-3228.1,7.3-3230.5,10.5-3232,8.8
			z"/>
		<path id="Shape_121_" class="st3" d="M-3230,9.9l0.4,0.2c-0.5,2.3-2.1,4.2-3.5,3.8c0.7-0.9,1.4-2.7,1.8-3.9
			C-3230.9,10.5-3230.3,10.1-3230,9.9z"/>
		<path id="Shape_122_" class="st3" d="M-3238.6,2.9c0,0.6,0.3,0.7,0.8,1c-0.4,0.5-4.1,3.8-5.2,2C-3241.5,4.9-3240.1,4.1-3238.6,2.9
			z"/>
		<path id="Shape_123_" class="st3" d="M-3245.9,4.6c0.6-0.5,3.8-1.9,5.4-2.9c0.3,0.6,0.4,0.6,1,1C-3241.6,4-3244.3,6.4-3245.9,4.6z
			"/>
		<path id="Shape_124_" class="st3" d="M-3240.1,6.9c1.1-0.3,2.8-1.9,3.4-2.8c0.2,0.4,0.6,1.1,1.2,1
			C-3236.7,6.4-3239.1,8.8-3240.1,6.9z"/>
		<path id="Shape_125_" class="st3" d="M-3234.6,5.3c0.2,0.6,1.4,0.8,1.4,0.8c-0.4,0.4-3.5,4-4.6,2.1
			C-3236.8,7.3-3235.5,6.3-3234.6,5.3z"/>
		<path id="Shape_126_" class="st3" d="M-3231.6,5.8c0.2,0.7,1,0.8,1.4,0.8c-0.4,0.6-3.8,3.9-4.6,2.2
			C-3233.7,7.9-3232.6,6.9-3231.6,5.8z"/>
		<path id="Shape_127_" class="st3" d="M-3226.5,7c0.2,0.4,1.4,0.5,1.4,0.4c-0.3,0.6-2.5,3.6-4.1,2C-3228.8,9.4-3226.5,7-3226.5,7z"
			/>
		<path id="Shape_128_" class="st3" d="M-3225.6,6.2l0.6-0.9c0,0.5,0,0.7,0,1.2C-3225.2,6.4-3225.5,6.3-3225.6,6.2z"/>
		<path id="Shape_129_" class="st3" d="M-3228.5,6.1c0,0,0.3-0.8,1.1-1.5c0.4,0.7,0.7,0.6,1.2,0.5C-3227,6.4-3227.6,6.7-3228.5,6.1z
			"/>
		<path id="Shape_130_" class="st3" d="M-3230.8,5.6c0.1-0.4,1.2-0.9,1.7-1.5c0,0.5,0.6,0.5,1.2,0.6
			C-3228.4,5-3229.6,6.4-3230.8,5.6z"/>
		<path id="Shape_131_" class="st3" d="M-3233.2,4.9c0.3-0.6,1.1-0.9,1.6-1.4c0.1,0.6,0.5,0.6,1.3,0.7
			C-3230.8,4.7-3232.4,5.9-3233.2,4.9z"/>
		<path id="Shape_132_" class="st3" d="M-3234.9,3.5c0.5-0.1,1.4-0.9,1.7-1.2c0,0,0,0.3,0.3,0.5c0.2,0.2,0.7,0.1,0.9,0.1
			C-3232.4,3.2-3233.9,5-3234.9,3.5z"/>
		<path id="Shape_133_" class="st3" d="M-3237.2,2.5c0-0.6,1-1.1,1.4-1.3c0.1,0.7,0.8,0.8,1.5,0.8
			C-3234.9,2.5-3236.7,3.5-3237.2,2.5z"/>
		<path id="Shape_134_" class="st3" d="M-3239.5,1c0.6-0.5,1.2-1,1.8-1.5c0.4,0.9,1.4,0.5,1.7,0.9C-3236.5,0.6-3238.8,3-3239.5,1z"
			/>
		<path id="Shape_135_" class="st3" d="M-3246.3,2.9c-0.1-0.2-0.2-0.3-0.3-0.4c-0.1-0.1-0.4-0.3-0.5-0.4c1.3-0.2,4.3-2.4,5.2-3.2
			c0.5,0.3,1.2,0.6,2.9,0.2C-3241.2,0.7-3243.7,2.3-3246.3,2.9z"/>
		<path id="Shape_136_" class="st3" d="M-3250.5,1.5c-0.3-1.1,1.5-0.9,4.1-2.9c1.1-0.9,2.3-2,3.8-1.1c0.3,0.2,0.2,0.6,0.2,0.9
			C-3244.3,0.2-3247.8,2.6-3250.5,1.5z"/>
		<path id="Shape_137_" class="st3" d="M-3248.3,2.7c-3.2,2.9-7.3,6.1-11.8,6.1c-0.5-0.2-0.4-0.7-0.3-1.1c3.3-1.1,6.8-3.2,9.5-5.3
			C-3248.9,2.7-3248.3,2.6-3248.3,2.7z"/>
		<path id="Shape_138_" class="st3" d="M-3247.3,2.9l0.7,0.6l0.1,0.1c0,0,0,0.1-0.1,0.1c-0.3,0.3-0.4,0.7-0.4,1.3
			c-2.7,2.3-5.2,4.2-8.9,4.9c-0.2,0-0.5-0.3-0.6-0.6C-3252.5,7.7-3249.7,5.6-3247.3,2.9z"/>
		<path id="Shape_139_" class="st3" d="M-3255.4,10.7c1,0,1.6-0.4,2.5-0.9C-3254,13.3-3256.9,15.2-3255.4,10.7z"/>
		<path id="Shape_140_" class="st3" d="M-3251.5,9.5c1.4-0.6,3.2-1.8,3.3-1.9c-0.9,1.7-3.8,8-5.8,6
			C-3253,12.5-3252.3,10.8-3251.5,9.5z"/>
		<path id="Shape_141_" class="st3" d="M-3246.4,5.8c0.5,0.5,1,0.4,1.7,0.5c-1,2-3,7.7-5.8,7C-3250.3,13.4-3246.9,6.9-3246.4,5.8z"
			/>
		<path id="Shape_142_" class="st3" d="M-3244.2,6.4c0.5,0.4,1.1,0.9,1.7,0.9c-0.9,1.4-3.4,7.5-5.8,5.8
			C-3248.3,13.1-3245.9,11.1-3244.2,6.4z"/>
		<path id="Shape_143_" class="st3" d="M-3240.8,7c0.2,0.5,0.6,0.7,1.2,0.8c-1.4,3.9-6.9,11-10.6,11.4c-0.2,0-1.2-0.1-0.9-0.3
			C-3248.9,17.4-3243.5,12.6-3240.8,7z"/>
		<path id="Shape_144_" class="st3" d="M-3239.2,8.2l0.4-0.1c0.2,0.5,0.4,0.9,1,1.1c-3.2,7.7-7.6,10.4-8.7,8.9
			C-3243.2,15.6-3240.7,12.3-3239.2,8.2z"/>
		<path id="Shape_145_" class="st3" d="M-3236.8,9.4c0.2,0,0.3-0.1,0.5-0.1c0.1,0,0.1,0.6,0.8,1c-0.6,1.7-5,10.8-7.5,8.6
			C-3240.4,16.4-3238,12.9-3236.8,9.4z"/>
		<path id="Shape_146_" class="st3" d="M-3237.8,16.9c0.2,0.8,0.5,2,0.6,2.9c-1.1,0.2-1.6-0.7-1.7-1.6L-3237.8,16.9z"/>
		<path id="Shape_147_" class="st3" d="M-3237.2,15.6c1.1-1.6,2.3-3.5,2.9-5.4c0.5,0.1,1.3-0.1,1.8-0.4
			C-3233.1,12.4-3234.7,16.2-3237.2,15.6z"/>
		<path id="Shape_148_" class="st3" d="M-3235.6,16.3c0.3,1.8,0.6,3.6,1.2,5.2c-2.5,0-2.4-3.1-2.9-4.9
			C-3236.9,16.6-3236.2,16.7-3235.6,16.3z"/>
		<path id="Shape_149_" class="st3" d="M-3234.3,16.1c0-0.1,0.4-0.3,0.7-0.6c0.2-0.2,0.3-0.4,0.3-0.4c0.2,0.1,0.9,0.1,1.1,0.1
			c-0.3,0.7,0.8,7.4,1.4,7.9C-3233.3,24.3-3233.8,18.6-3234.3,16.1z"/>
		<path id="Shape_150_" class="st3" d="M-3232,14.9c0.7-0.4,1.5-0.9,2-1.5c0,3,0.1,6.8,1.4,9.6C-3231.3,24.9-3231.8,16.4-3232,14.9z
			"/>
		<path id="Shape_151_" class="st3" d="M-3228.8,10.5c0.2,0.2,1.3,0.5,1.5,0.3c-0.2,3.1-0.3,6.7,0.6,9.6c-0.4,0.3-0.8,0.5-1.2,0.8
			c0.7,0.6,1.4,1.2,2.1,1.7c0.1,0.1,0.1,0.1,0.2,0.2C-3229.4,24.4-3229.4,12.3-3228.8,10.5z"/>
		<path id="Shape_152_" class="st3" d="M-3226.2,10.4c0.4-0.4,1-1.3,1.2-1.7l0,1.5C-3225.2,10.5-3225.6,10.5-3226.2,10.4z"/>
		<path id="Shape_153_" class="st3" d="M-3241.3-8.4c2.2-0.6,4.2-1.5,6.5-1.4c1.4,0.1,3.5,1.3,3.6,3c-0.3,4.4,0,6.1,5.3,7
			c0.3,1.5,0.2,2.9,0.2,4.4c-0.2,0.1-0.5,0.2-0.9,0.1c-0.8-0.2,0.2-0.9,0.5-1.9c-0.2-0.1-0.4-0.2-0.6-0.1c-0.1,0-0.4,0.6-0.9,1.2
			c-0.5,0.6-1.8,0.4-1.3-0.3c0.4-0.4,1.1-1.3,1-1.5c-0.4-0.4-0.7-0.2-1,0.2c-0.5,0.6-1.4,1.8-2.3,1.2c-0.5-0.2,1-1.8,1.1-2
			c0.1-0.1-0.3-0.5-0.4-0.4c-0.8,0.7-1.6,2-2.7,1.3c-0.3-0.5,0.1-1,1.3-2c0,0-0.6-0.4-0.6-0.5c-0.5,0.4-2.2,2.2-3,1.4
			c-0.8-0.8,1.9-1.9,2.2-2.4c-0.1-0.1-0.4-0.5-0.5-0.5c-0.3,0.2-3.2,2.4-4,0.4c0.2-0.1,1-0.4,2.7-1.5c0.3-0.2,0-0.6-0.2-0.7
			c-5.6,3.4-6.9,1.6-6.6,1c1.1-0.3,2.4-0.5,5.7-2.1c0.1-0.3-0.1-0.7-0.2-0.9c-0.5,0.3-8.5,4.1-8.4,1c2.5-0.4,5-0.9,7.2-2.5
			c0.3-0.3-0.1-0.8-0.3-0.9c-2.3,1.4-5.4,2.8-8.1,1.9C-3245.5-7.9-3243-8-3241.3-8.4z"/>
		<path id="Shape_154_" class="st3" d="M-3247.1-4.5c0.8-0.3,1.4,0.1,2.1,0.1c-0.3,0.3,0,1,0.2,1.3c-3.7,2.7-3.6,2.6-5.6,3.5
			c-0.9,0.4-1.9,0.2-2.5-0.1C-3252.1-2.6-3249.6-3.2-3247.1-4.5z"/>
		<path id="Shape_155_" class="st3" d="M-3263.3,7.2c2.2-3.1,5.3-4.5,8.6-6c0.8,0.4,2,0.4,2.8,0.4c-0.1,0.3,0,0.6,0.2,0.9
			C-3252.2,2.8-3264.1,10.9-3263.3,7.2z"/>
		<path id="Shape_156_" class="st3" d="M-3292.7,19.2c-2.3,0.2-3.7-1.6-3-2.3c0.3-0.7,1.4-0.7,1.8-0.7c11.4-0.5,21.9-3.6,29.1-8.6
			c0.6,1.7,1.8,1.2,2.8,0.7c-0.2,0.5,0,0.8,0.3,1.4C-3269.5,15.4-3282.1,19.1-3292.7,19.2z"/>
		<path id="Shape_157_" class="st3" d="M-3290,20.1c11.5-0.3,20.5-3.6,30.2-9.7c0.4-0.2,1.3-0.1,2.4-0.5c0,0,0.6,0.9,1,1
			c0,0-0.1,0.9-0.3,1.1C-3262.2,17.7-3289,25.9-3290,20.1z"/>
		<path id="Shape_158_" class="st3" d="M-3282.5,22.9c9.8-1.2,18.4-4.6,26.2-9.5c0,0.5,0.2,2.1,2.2,0.5c0.4,0.7,1.1,0.5,1.2,0.5
			C-3254.4,17.2-3279.9,28.4-3282.5,22.9z"/>
		<path id="Shape_159_" class="st3" d="M-3273.8,24.9c8.4-2,15.7-4.9,22.6-10.8c1.1,0.2,2.1-0.6,3.5,0.5
			C-3251.8,19.8-3268,29.6-3273.8,24.9z"/>
		<path id="Shape_160_" class="st3" d="M-3264.5,26.4c6-1.7,8-3.5,12.2-6.1c1.9,1.2,3.9-0.1,5.3-1.1c0.1,0.1,1,0.2,1.1,0.4
			C-3251.6,23.9-3258.3,27.8-3264.5,26.4z"/>
		<polygon id="Shape_161_" class="st3" points="-3196.1,-6.9 -3196.6,-6.6 -3196,-6.3 		"/>
		<path id="Shape_162_" class="st3" d="M-3203-10.5h1.1c0.1,0.2,0.3,0.4,0.5,0.7c0.1-0.2,0.2-0.5,0.2-0.9
			C-3201.9-11.2-3202.4-11-3203-10.5z"/>
		<path id="Shape_163_" class="st3" d="M-3201.8-11.8c0.9,0.6,2.7-0.3,2.9-0.7c-0.7,0-0.8-0.2-1.1-0.2
			C-3200.6-12.8-3201.6-12.2-3201.8-11.8z"/>
		<path id="Shape_164_" class="st3" d="M-3198.9-8.7l-0.6,0.2c0.1,0,0.5,0.3,0.6,0.4C-3199-8.3-3199-8.4-3198.9-8.7z"/>
		<path id="Shape_165_" class="st3" d="M-3198.3-9.9c-1.1,0.2-1.4-0.4-1.3-1c-0.3,0.2-0.6,0.4-1.1,1.2l0.7,0.5
			C-3199.6-9.3-3198.7-9.6-3198.3-9.9z"/>
		<path id="Shape_166_" class="st3" d="M-3196-9.4c-0.4-0.1-0.8-0.5-0.8-1c-0.9,0.5-1.3,2.1-0.7,2.8
			C-3196.9-7.2-3196.1-8.7-3196-9.4z"/>
		<path id="Shape_167_" class="st3" d="M-3195.4-12.7c-0.6-0.1-0.8-0.8-0.9-1.2c-0.4,0.3-1.1,1.1-0.8,1.6
			C-3196.6-11.9-3195.9-12.4-3195.4-12.7z"/>
		<path id="Shape_168_" class="st3" d="M-3196.6-11.4c-0.7,0-1.1-0.5-0.9-1.3c-1.1,0.4-1.6,1.5-1.4,2.1
			C-3198.5-10-3196.9-10.7-3196.6-11.4z"/>
		<path id="Shape_169_" class="st3" d="M-3199.5-13.6c0.9,0.5,2,0.5,3.5-0.8C-3197.3-14.6-3198.6-14.3-3199.5-13.6z"/>
		<path id="Shape_170_" class="st3" d="M-3199.5-16c0.6,0.7,1.4,1,2.5,0.9c1.5-0.2,3.4-0.3,4.8-0.1l0.2-0.3
			C-3192.6-17-3197.8-15.6-3199.5-16z"/>
		<path id="Shape_171_" class="st3" d="M-3190.3-11.3c-0.8,0-1.8-0.3-2.2-0.7c0-0.3,0.7-0.9,1-1c1.2-0.3,2.5-0.6,3.6,0.2
			c0.4-1.7-2.2-2.1-3.6-2.1c-0.5,1.5-1.8,2.4-2.7,3.7C-3194.1-11.3-3191-10.5-3190.3-11.3z"/>
		<path id="Shape_172_" class="st3" d="M-3194.4-12.7c0.9-0.6,1.2-0.8,1.8-1.7c-0.1,0-0.2,0-0.4,0c-0.3,0.4-0.5,0.6-0.9,0.7
			l-0.7-0.8c-0.3,0-0.6,0-0.9,0.1C-3195.4-13.3-3195.1-13.2-3194.4-12.7z"/>
		<path id="Shape_173_" class="st3" d="M-3194.3-11c-0.4-0.2-0.5-0.1-0.6-0.6l-0.7,0.6c-0.3,0.3-0.7,1.1-0.4,1.8
			C-3194.9-9.3-3194.5-10.2-3194.3-11z"/>
		<path id="Shape_174_" class="st3" d="M-3164.2,33.1h-1.8l-0.9,2.9h-0.4l-0.9-2.9h-1.8l1.3,3.7l-1.4,3.8h1.8l1-3h0.4l1,3h1.8
			l-1.4-3.8L-3164.2,33.1z M-3174.8,40.6l-0.2-1.8h-2l-0.2,1.8h-1.7l0.8-7.5h4.1l0.8,7.5H-3174.8z M-3176.5,34.7l-0.2,2.5h1.7
			l-0.2-2.5H-3176.5z M-3181.5,38.4h-3.6v2.3h-1.7v-7.5h5.3V38.4z M-3183.2,34.7h-1.9v2h1.9V34.7z M-3189.9,34.7h-1.8v5.9h-1.7v-5.9
			h-1.8v-1.6h5.3L-3189.9,34.7L-3189.9,34.7z M-3198,35.4h-1.7v-0.7h-1.6V39h1.6v-0.7h1.7v2.3h-4.9v-7.5h4.9V35.4z M-3206.4,35.4
			h-1.7v-0.7h-1.6V39h1.6v-0.7h1.7v2.3h-4.9v-7.5h4.9V35.4z M-3214.6,40.6h-5.2v-7.5h5.2V40.6z M-3216.3,34.7h-1.9V39h1.9V34.7z
			 M-3222.6,34.7h-2.7v5.9h-1.7v-7.5h4.4V34.7z M-3230.5,35.4h-1.7v-0.7h-1.6V39h1.6v-0.7h1.7v2.3h-4.9v-7.5h4.9V35.4z M-3239,40.6
			h-5.2v-7.5h5.2V40.6z M-3240.7,34.7h-1.9V39h1.9V34.7z M-3247.6,38.4h-3.6v2.3h-1.7v-7.5h5.2V38.4z M-3249.3,34.7h-1.9v2h1.9V34.7
			z"/>
		<path id="Shape_175_" class="st245" d="M-3208.5,27.3c-5.4-1.2-10.1-2.9-14.8-5.9c1.1-1.3,1.2-3.2,1.2-4.7l0-14.8
			c0-1.5-0.4-3-0.9-4.4c2.6-0.1,7.9-3,9.3-4.5h10.4c1.4,1.5,6.7,4.3,9.3,4.5c-0.5,1.4-0.9,2.9-0.9,4.4l0,14.8c0,1.5,0.1,3.4,1.2,4.7
			C-3198.3,24.3-3203.2,26.1-3208.5,27.3z"/>
		<path id="Shape_176_" class="st3" d="M-3214.6-1.7v22.6h3.2V10.4h9V-1.7H-3214.6z M-3202.4,16.3v-1.6h-4.7v6.2h4.7v-1.6h-3.1v-3
			H-3202.4z M-3208.2,13.6h5.8v-2.1h-7.9v9.4h2.1V13.6z M-3205.5,7.2h-5.9V1.4h5.9V7.2z"/>
	</g>
</g>
</svg>
