<?xml version="1.0" encoding="utf-8"?>
<!-- Generator: Adobe Illustrator 22.0.1, SVG Export Plug-In . SVG Version: 6.00 Build 0)  -->
<svg version="1.1" id="Слой_1" xmlns="http://www.w3.org/2000/svg" xmlns:xlink="http://www.w3.org/1999/xlink" x="0px" y="0px"
	 viewBox="0 0 71.9 79.9" style="enable-background:new 0 0 71.9 79.9;" xml:space="preserve">
<style type="text/css">
	.st0{fill:#682468;}
	.st1{fill:#EBB51F;}
	.st2{fill:#D14228;}
	.st3{fill:#FFFFFF;}
	.st4{fill:#0B0F10;}
	.st5{fill:#B7C8CC;}
	.st6{fill:#A5B9BF;}
	.st7{fill:#ECF3F1;}
	.st8{fill:#DAE6E4;}
	.st9{fill:#CCDADA;}
	.st10{fill:#9AAEB6;}
	.st11{fill:#B1C3C7;}
	.st12{fill:#778A96;}
	.st13{fill:#AEC0C4;}
	.st14{fill:#CFDCDC;}
	.st15{fill:#C2D1D2;}
	.st16{fill:#CDDBDB;}
	.st17{fill:#BACCCD;}
	.st18{fill:#C5D5D5;}
	.st19{fill:#D7E3E2;}
	.st20{fill:#8FA3AD;}
	.st21{fill:#92A6AE;}
	.st22{fill:#AEC0C5;}
	.st23{fill:#869AA4;}
	.st24{fill:#7F929E;}
	.st25{fill:#CEDCDC;}
	.st26{fill:#91A6AB;}
	.st27{fill:#E4EFEF;}
	.st28{fill:#A1B5B8;}
	.st29{fill:#B8CACC;}
	.st30{fill:#7E9699;}
	.st31{fill:#0B0F11;}
	.st32{fill:#1F292B;}
	.st33{fill:#354344;}
	.st34{fill:#516164;}
	.st35{fill:#9FB5B8;}
	.st36{fill:#A4B9B9;}
	.st37{fill:#AABDBD;}
	.st38{fill:#AEC2C4;}
	.st39{fill:#BDD0D0;}
	.st40{fill:#D1DFDC;}
	.st41{fill:#80939F;}
	.st42{fill:#7B8F99;}
	.st43{fill:#8599A2;}
	.st44{fill:#A4B7BC;}
	.st45{fill:#92A7AE;}
	.st46{fill:#9AB1B0;}
	.st47{fill:#B8C9CD;}
	.st48{fill:#7D919B;}
	.st49{fill:#B7CBC9;}
	.st50{fill:#D3E0E0;}
	.st51{fill:#CFDEDC;}
	.st52{fill:#E9F2EF;}
	.st53{fill:#F6F9F8;}
	.st54{fill:#DCEAED;}
	.st55{fill:#CCDCDA;}
	.st56{fill:#879AA4;}
	.st57{fill:#B8CDCB;}
	.st58{fill:#A4BBBA;}
	.st59{fill:#91AAA9;}
	.st60{fill:#7C9396;}
	.st61{fill:#D5E4E9;}
	.st62{fill:#91A8AA;}
	.st63{fill:#A5B9BA;}
	.st64{fill:#C6D8DD;}
	.st65{fill:#BFCECE;}
	.st66{fill:#91A5AE;}
	.st67{fill:#B7CBD1;}
	.st68{fill:#ACC2C7;}
	.st69{fill:#7C8F9B;}
	.st70{fill:#9CAFB9;}
	.st71{fill:#8FA2AC;}
	.st72{fill:#859AA4;}
	.st73{fill:#D9E5E3;}
	.st74{fill:#CAD9DA;}
	.st75{fill:#E3EEEB;}
	.st76{fill:#C6D6D7;}
	.st77{fill:#D6E2E1;}
	.st78{fill:#B1C3C6;}
	.st79{fill:#9FB4BC;}
	.st80{fill:#ABBCC2;}
	.st81{fill:#AABCC2;}
	.st82{fill:#F1F5F4;}
	.st83{fill:#8497A3;}
	.st84{fill:#BAC9CD;}
	.st85{fill:#CBD9DA;}
	.st86{fill:#E2EBEB;}
	.st87{fill:#95AAB1;}
	.st88{fill:#EFF5F3;}
	.st89{fill:#C4D4D4;}
	.st90{fill:#799093;}
	.st91{fill:#D2DFDF;}
	.st92{fill:#B7C8CB;}
	.st93{fill:#E4EDEC;}
	.st94{fill:#A6BABE;}
	.st95{fill:#95A9B1;}
	.st96{fill:#A5B7BE;}
	.st97{fill:#AEC3C1;}
	.st98{fill:#879BA6;}
	.st99{fill:#C1D3D4;}
	.st100{fill:#8CA1A5;}
	.st101{fill:#D6E2E2;}
	.st102{fill:#E7EEEF;}
	.st103{fill:#94A8AF;}
	.st104{fill:#8B9EA8;}
	.st105{fill:#879AA5;}
	.st106{fill:#A9BFBD;}
	.st107{fill:#9AAFB6;}
	.st108{fill:#D9E5E5;}
	.st109{fill:#B4C6CA;}
	.st110{fill:#D2DDDF;}
	.st111{fill:#BACECD;}
	.st112{fill:#8598A1;}
	.st113{fill:#91A8A9;}
	.st114{fill:#768995;}
	.st115{fill:#B7CAC9;}
	.st116{fill:#F7F9F9;}
	.st117{fill:#E2EAEB;}
	.st118{fill:#C8D9D9;}
	.st119{fill:#C1D0D2;}
	.st120{fill:#AFC2C5;}
	.st121{fill:#B1C2C6;}
	.st122{fill:#F2F7F5;}
	.st123{fill:#778B96;}
	.st124{fill:#AABDC2;}
	.st125{fill:#E6EFEE;}
	.st126{fill:#BDCED0;}
	.st127{fill:#A1B6BC;}
	.st128{fill:#8DA0AA;}
	.st129{fill:#D5E0E2;}
	.st130{fill:#AFC3C6;}
	.st131{fill:#EFF3F4;}
	.st132{fill:#ADBEC3;}
	.st133{fill:#778B98;}
	.st134{fill:#879FA0;}
	.st135{fill:#9BB1B6;}
	.st136{fill:#C2D0D3;}
	.st137{fill:#A7BBBF;}
	.st138{fill:#D8E2E3;}
	.st139{fill:#C0CED1;}
	.st140{fill:#B1C5C4;}
	.st141{fill:#EDF3F1;}
	.st142{fill:#E9F1EF;}
	.st143{fill:#9CB1B7;}
	.st144{fill:#96ACB2;}
	.st145{fill:#C5D8D5;}
	.st146{fill:#B1C5C3;}
	.st147{fill:#D7E5E2;}
	.st148{fill:#B0C1C5;}
	.st149{fill:#859AA0;}
	.st150{fill:#6E8390;}
	.st151{fill:#C0D1D0;}
	.st152{fill:#F2F6F5;}
	.st153{fill:#748793;}
	.st154{fill:#D2E1DF;}
	.st155{fill:#90A7AD;}
	.st156{fill:#E0EAE9;}
	.st157{fill:#576B7B;}
	.st158{fill:#81959F;}
	.st159{fill:#A4B5BB;}
	.st160{fill:#8FA3AA;}
	.st161{fill:#D3E0DF;}
	.st162{fill:#F1F6F5;}
	.st163{fill:#9DB2B8;}
	.st164{fill:#C2D4D2;}
	.st165{fill:#CADCD9;}
	.st166{fill:#B3C7C5;}
	.st167{fill:#DDECE7;}
	.st168{fill:#A4BABB;}
	.st169{fill:#C9D8D7;}
	.st170{fill:#DFE9EB;}
	.st171{fill:#94A8AB;}
	.st172{fill:#D1E0DD;}
	.st173{fill:#7A9094;}
	.st174{fill:#BBCECD;}
	.st175{fill:#D9E4E6;}
	.st176{fill:#8497A2;}
	.st177{fill:#D0DFDC;}
	.st178{fill:#A0B2B8;}
	.st179{fill:#B5C8C6;}
	.st180{fill:#829799;}
	.st181{fill:#ABBFBF;}
	.st182{fill:#ACC0C0;}
	.st183{fill:#D1DEDC;}
	.st184{fill:#7A9093;}
	.st185{fill:#7F9699;}
	.st186{fill:#F0F5F3;}
	.st187{fill:#E7F0EF;}
	.st188{fill:#E5EEED;}
	.st189{fill:#EDF1F2;}
	.st190{fill:#E3ECEA;}
	.st191{fill:#CEDDD8;}
	.st192{fill:#C8D6D7;}
	.st193{fill:#CAD7D8;}
	.st194{fill:#B7CBC4;}
	.st195{fill:#AFC0C4;}
	.st196{fill:#B2C3C7;}
	.st197{fill:#E2ECEB;}
	.st198{fill:#E1EBEA;}
	.st199{fill:#F3F7F6;}
	.st200{fill:#F4F8F7;}
	.st201{fill:#FCFEFD;}
	.st202{fill:#FCFDFC;}
	.st203{fill:#EFF3F3;}
	.st204{fill:#EDF3F2;}
	.st205{fill:#EBF1F1;}
	.st206{fill:#E9EFEF;}
	.st207{fill:#DFE8E7;}
	.st208{fill:#DEE8E7;}
	.st209{fill:#D3DFDF;}
	.st210{fill:#D2DDDD;}
	.st211{fill:#D2DEDE;}
	.st212{fill:#BDCECD;}
	.st213{fill:#C0CFCF;}
	.st214{fill:#C0CFCE;}
	.st215{fill:#ADC0C0;}
	.st216{fill:#AEC1C0;}
	.st217{fill:#ACBFBF;}
	.st218{fill:#ADC0BF;}
	.st219{fill:#A0B3B4;}
	.st220{fill:#9BB0B1;}
	.st221{fill:#92A8A8;}
	.st222{fill:#8EA3A3;}
	.st223{fill:#879D9C;}
	.st224{fill:#839998;}
	.st225{fill:#819796;}
	.st226{fill:#7E9393;}
	.st227{fill:#778D8D;}
	.st228{fill:#748A8B;}
	.st229{fill:#768D8D;}
	.st230{fill:#73898A;}
	.st231{fill:#698080;}
	.st232{fill:#687E7F;}
	.st233{fill:#677E7E;}
	.st234{fill:#FFFFFE;}
	.st235{fill:#013C6D;}
	.st236{fill:#EF7F1A;}
	.st237{fill:#D87D1A;}
	.st238{fill:#013D6F;}
	.st239{fill:#023E70;}
	.st240{fill:#D31145;}
	.st241{fill:#1A9F29;}
	.st242{fill:#00674C;}
	.st243{fill:#6EC72D;}
	.st244{fill:#1B1A19;}
	.st245{fill:#9E0918;}
	.st246{fill:#004383;}
	.st247{fill:#004382;}
</style>
<g id="Карусель-логотипов">
	<g id="Group" transform="translate(2328.000000, 33.000000)">
		<path id="Fill-1" class="st4" d="M-2276.4-33h5.2c0.1,0.1,0.3,0.2,0.3,0.5c0,0.3-0.2,0.5-0.4,0.7c-1,1-2,2-3.2,2.8
			c-2.5,1.8-5.5,3-8.4,3.9c-1.5,0.4-3,0.7-4.6,0.9c-1.3,0.1-2.6,0.3-3.9,0.3c-0.6,0-1.2,0-1.8,0c1,0.1,1.9,0.5,2.7,0.9
			c0.2,0.1,0.3,0.2,0.3,0.4c0.1,0.3-0.2,0.5-0.3,0.8c-0.4,0.5-1,1-1.6,1.2c-0.9,0.4-1.9,0.4-2.9,0.2c0,0.7,0,1.5-0.3,2.2
			c-0.4,1-0.9,2.1-1.4,3.1c-0.9,1.8-1.8,3.6-2.7,5.3c2,0,4,0.1,5.9,0.1c1.3,0,2.5,0.1,3.8,0c0.9,0,1.8,0,2.8,0
			c2.4,0,4.7-0.1,7.1-0.1c0.6,0,1.1,0,1.7,0c0.5,0,1,0.3,1.5,0.6c1.6,0.8,3.1,1.6,4.5,2.6c1,0.7,2.1,1.3,2.8,2.3
			c0.3,0.4,0.6,0.8,0.6,1.4c0,0.2-0.2,0.4-0.5,0.4c-0.5,0.1-1,0.2-1.5,0.4c0,1.2,0.2,2.4,0.6,3.5c0.3,0.9,0.9,1.8,1.7,2.4
			c0.7,0.6,1.5,1,2.4,1.3c0.3,0.1,0.5,0.3,0.5,0.6c0,0.9,0.2,1.8,0.4,2.7c0.5,2.4,1.4,4.8,2.9,6.7c0.6,0.8,1.3,1.5,2.1,2.1
			c0.2,0.1,0.3,0.3,0.3,0.6c-0.1,0.4-0.3,0.8-0.4,1.2c0.5,0.1,1,0.2,1.5,0.3c0.2,0.1,0.4,0.3,0.4,0.5c0.6,1.6,1.2,3.3,1.8,4.9
			c0.1,0.2-0.1,0.3-0.3,0.3c-0.7,0-1.4,0-2.1,0c-0.4-0.2-0.7-0.6-1.1-0.8c-0.7-0.6-1.3-1.1-1.9-1.7c-0.9-0.9-1.4-2-1.9-3.1
			c-0.8-1.6-1.7-3.2-2.5-4.7c-0.5-0.9-1-1.8-1.5-2.7c-0.7-1-1.5-2-2.5-2.8c-0.7-0.5-1.3-1.1-2-1.6c-1.3-0.9-2.7-1.6-4.1-2.2
			c0,1,0.1,1.9,0.3,2.9c0,0.2,0.1,0.4,0,0.6c-0.1,0.2-0.4,0.3-0.6,0.4c-1.1,0.5-2.2,1.1-3.2,1.7c-1.3,0.9-2.6,1.8-3.8,2.8
			c-1.9,1.7-3.5,3.9-4.2,6.3c-0.1,0.2-0.3,0.4-0.5,0.4c-0.3,0-0.6,0-0.9,0.1c-0.1,0.1-0.2,0.1-0.2,0.3c-0.1,0.8-0.2,1.6-0.2,2.4
			c0,0.3,0,0.6-0.1,0.9c-0.1,0.3-0.4,0.4-0.6,0.7c-0.2,0.2-0.3,0.4-0.6,0.4c-1.1,0-2.3,0-3.4,0c-0.3,0-0.6-0.4-0.4-0.7
			c0.5-1.6,1-3.2,1.8-4.6c0.6-1.3,1.6-2.3,2.5-3.3c1-1.1,2-2.3,2.9-3.5c1.1-1.4,2.3-2.7,3.3-4.2c0.3-0.4,0.6-0.9,0.7-1.4
			c0-0.2-0.1-0.3-0.2-0.4c-1.1-0.9-2-1.9-2.9-3c-3.6,0-7.2,0.6-10.6,1.4c-1.6,0.4-3.2,0.9-4.7,1.5c-0.5,0.2-1,0.4-1.5,0.4
			c-0.4,0-0.9-0.2-1.2-0.5c-0.4-0.4-0.9-0.7-1.3-1.1c-1,1-2,2.1-3,3.1c-0.5,0.5-1.1,1.1-1.6,1.6c0,0.1,0.1,0.2,0.1,0.3
			c0.9-0.1,1.8-0.1,2.7-0.2c0.5,0,0.9,0.4,1.1,0.7c0.6,0.7,1.2,1.4,1.7,2.2c0.2,0.3,0.1,0.6-0.2,0.8c-0.3,0.1-0.6,0.1-0.9,0.1
			c-1.2,0-2.4,0-3.5-0.1c-1.3-0.1-2.5-0.5-3.5-1.3c-0.8,0.8-1.5,1.7-2.2,2.6c-0.8,1.1-1.6,2.2-2.2,3.4c-0.3,0.5-0.4,1-0.6,1.6
			c0,0.2-0.2,0.4-0.5,0.4c-0.3,0-0.7,0-1,0.1c-0.3,0.2-0.4,0.5-0.5,0.8c-0.4,0.9-0.8,1.8-1.1,2.7c-0.1,0.3-0.3,0.5-0.6,0.5
			c-1.3,0-2.6,0-3.9,0c-0.3,0-0.5-0.2-0.5-0.5c0-0.4,0.3-0.7,0.4-1c0.9-1.5,1.8-3,3.1-4.2c1.6-1.5,3-3.2,4.2-5.1
			c0.9-1.3,1.8-2.5,2.6-3.8c-2.4-2.2-4.6-4.5-6.7-7.1c-0.3-0.4-0.1-1,0-1.4c0.2-0.6,0.4-1.1,0.6-1.7c0.2-0.4,0.6-0.5,1-0.5
			c2.3-0.4,4.6-0.6,6.8-0.9c-0.9-0.8-1.9-1.5-2.8-2.4c-0.4-0.3-0.4-0.9-0.3-1.3c0.3-0.8,0.8-1.6,1.1-2.4c0.5-1,1-2,1.7-2.8
			c0.6-0.8,1.4-1.5,2.2-2.2c2.3-2,4.8-3.9,7.2-5.8c-1.5-0.4-3.1-0.5-4.6-0.7c-0.3,0-0.5-0.2-0.6-0.5c-0.2-0.5-0.3-1-0.4-1.5
			c-0.1-0.4-0.2-0.9,0.1-1.3c0.2-0.3,0.6-0.4,0.9-0.5c1-0.2,2-0.3,3-0.4c0.5-0.1,0.9-0.1,1.4-0.2c1-0.2,1.8-0.8,2.8-1
			c0.5-0.1,1-0.2,1.4-0.1c-0.2-0.3-0.4-0.5-0.8-0.7c-1.1-0.6-2.3-1.2-3.3-2c-0.2-0.2-0.2-0.6,0-0.8c0.3-0.3,0.6-0.5,0.9-0.7
			c0.2-0.1,0.4-0.2,0.6-0.1c0.9,0.5,1.8,1.1,2.8,1.5c1.3,0.5,2.7,0.7,4.1,0.4c0.6-0.1,1.1-0.4,1.6-0.6c0.3-0.1,0.8-0.1,1,0.2
			c0.5,0.6,1.3,0.8,2.1,0.8c1.3,0,2.5-0.5,3.6-1.2c0.3-0.2,0.5-0.4,0.8-0.6c0.3-0.2,0.8-0.2,1.1,0.1c0.6,0.4,1.3,0.7,2,0.7
			c1.3,0.1,2.5-0.5,3.5-1.3c1.4-1,2.6-2.2,3.6-3.5C-2277.1-32.7-2276.8-33-2276.4-33z M-2276.5-32.5c-0.3,0.1-0.5,0.4-0.7,0.7
			c-1,1.2-2.2,2.3-3.5,3.2c-0.6,0.4-1.2,0.8-1.9,1c-0.4,0.1-0.8,0.2-1.2,0.3c-0.5,0.1-1.1,0-1.6-0.1c-0.5-0.1-1-0.4-1.4-0.7
			c-0.1-0.1-0.3-0.1-0.4-0.1c-0.5,0.2-0.9,0.7-1.4,0.9c-0.2,0.1-0.5,0.3-0.7,0.4c-0.3,0.1-0.7,0.3-1,0.4l0,0l-0.1,0
			c-0.4,0.1-0.7,0.2-1.1,0.2c-0.9,0.1-1.8-0.1-2.5-0.6c-0.2-0.2-0.4-0.5-0.7-0.5c-0.5,0.2-1,0.5-1.5,0.6c-0.5,0.2-1.1,0.3-1.7,0.3
			c-0.5,0-1-0.1-1.5-0.1l0,0l0-0.1c-0.7-0.1-1.4-0.4-2.1-0.7l0,0c-0.7-0.3-1.3-0.7-2-1.1c-0.3-0.2-0.6,0.1-0.8,0.3
			c-0.2,0.2-0.5,0.3-0.6,0.5c0.1,0.2,0.4,0.3,0.5,0.5c0.7,0.5,1.4,0.9,2.2,1.3c0.4,0.2,0.8,0.3,1.1,0.6c0.3,0.3,0.6,0.7,0.6,1.1
			c-0.5,0-1-0.1-1.6,0c-0.9,0.2-1.7,0.6-2.5,1c-0.4,0.2-0.9,0.3-1.4,0.3c-0.4,0.1-0.8,0.1-1.1,0.1c-0.3,0-0.7,0.1-1,0.1l0,0
			c-0.3,0-0.6,0.1-0.9,0.1c-0.4,0.1-0.8,0.1-1.1,0.3c-0.3,0.2-0.2,0.7-0.2,1c0.1,0.5,0.3,1.1,0.4,1.6c0.1,0.2,0.2,0.2,0.4,0.2
			c0.7,0.1,1.4,0.2,2,0.3c0.9,0.1,1.9,0.3,2.8,0.5c0.1,0,0.2,0.1,0.2,0.2c0,0.1-0.1,0.2-0.2,0.3c-1,0.9-2.1,1.7-3.2,2.5
			c-1.4,1.1-2.8,2.2-4.2,3.4c-0.7,0.6-1.5,1.3-2.1,2.1c-0.7,0.9-1.3,1.9-1.8,2.9c-0.4,0.7-0.8,1.5-1.1,2.2c-0.1,0.3-0.1,0.6,0,0.8
			c0.1,0.2,0.3,0.3,0.5,0.5c1,0.9,2.1,1.7,3.1,2.5c-2.2,0.3-4.4,0.6-6.6,0.9c-0.2,0-0.4,0.1-0.6,0.1c-0.3,0-0.5,0.1-0.8,0.1
			c-0.4,0.1-0.5,0.5-0.6,0.9c-0.2,0.4-0.3,0.8-0.4,1.3c-0.1,0.3-0.2,0.6,0,0.8c0.3,0.3,0.5,0.7,0.8,1c0.9,1.1,1.9,2.2,2.9,3.2
			c0.3,0.4,0.7,0.7,1.1,1.1c0.6,0.6,1.3,1.3,2,1.9c-1,1.4-1.9,2.9-2.9,4.3c-0.7,1-1.5,2-2.2,3c-0.3,0.3-0.6,0.6-0.8,0.9
			c-0.5,0.5-1,1.1-1.5,1.6c-0.8,0.8-1.4,1.8-2,2.8c-0.2,0.2-0.3,0.5-0.5,0.8c-0.2,0.3-0.4,0.5-0.4,0.8c0.1,0.1,0.2,0.1,0.3,0.1
			c0.1,0,0.2,0,0.3,0c0.7,0,1.4,0,2.1,0c0.4,0,0.8,0,1.1,0c0.1,0,0.2,0,0.2,0c0,0,0.1-0.1,0.1-0.1c0.1-0.1,0.1-0.3,0.2-0.4
			c0.2-0.5,0.4-1,0.6-1.5c0.3-0.6,0.4-1.3,0.9-1.8c0.3-0.3,0.7-0.4,1.1-0.4c0,0,0.1,0,0.2,0c0.1,0,0.2,0,0.3-0.1
			c0.1-0.3,0.2-0.6,0.3-0.9c0.4-1,0.9-1.9,1.5-2.8l0,0c0.1-0.2,0.2-0.3,0.3-0.5c0.2-0.2,0.3-0.5,0.5-0.7c0.1-0.2,0.2-0.3,0.4-0.5
			c0.1-0.1,0.2-0.3,0.3-0.4c0.1-0.2,0.3-0.4,0.4-0.5c0.4-0.4,0.8-0.8,1.1-1.2c0.1-0.1,0.3-0.3,0.4-0.4c0.7,0.6,1.6,1,2.5,1.2
			c0.8,0.2,1.5,0.2,2.3,0.3c0.6,0.1,1.2,0,1.8,0.1c0.4,0,0.7,0.1,1.1,0c0,0,0.1-0.1,0.1-0.2c-0.1-0.1-0.1-0.2-0.2-0.3
			c-0.5-0.7-1.1-1.4-1.6-2c-0.2-0.3-0.4-0.6-0.8-0.6c-1,0-1.9,0.2-2.9,0.2c-0.3-0.1-0.2-0.5-0.4-0.8c1.7-1.7,3.4-3.3,5-5.1
			c0.5,0.4,1,0.8,1.5,1.2c0.3,0.3,0.7,0.5,1.2,0.5c0.7-0.1,1.3-0.5,2-0.7c2.3-0.9,4.6-1.4,7-1.9l0,0c1.2-0.2,2.5-0.4,3.7-0.6
			c1.4-0.1,2.8-0.2,4.1-0.2c0.2,0.3,0.5,0.6,0.8,0.9c0.7,0.7,1.4,1.4,2.2,2.1c0.2,0.3,0.5,0.6,0.4,1c-0.1,0.5-0.4,0.9-0.7,1.3
			c-0.2,0.2-0.3,0.5-0.5,0.7c-0.5,0.7-1,1.4-1.6,2.1c-0.2,0.2-0.4,0.5-0.6,0.7c-0.2,0.3-0.5,0.6-0.7,0.9c-0.3,0.4-0.7,0.8-1.1,1.3
			c-0.6,0.8-1.3,1.5-2,2.3c-0.8,0.9-1.6,1.8-2.2,2.8c-0.1,0.2-0.2,0.5-0.4,0.7c-0.1,0.2-0.2,0.4-0.3,0.6l0,0
			c-0.1,0.1-0.1,0.3-0.2,0.4c-0.1,0.3-0.3,0.7-0.4,1.1c-0.2,0.6-0.4,1.2-0.6,1.8c-0.1,0.2-0.2,0.4-0.1,0.6l0,0c0.1,0,0.3,0,0.4,0
			c0.7,0,1.5,0,2.2,0c0.3,0,0.5,0,0.8,0c0,0,0.1-0.1,0.2-0.1c0-0.1,0.1-0.1,0.1-0.2c0.2-0.2,0.4-0.4,0.5-0.6
			c0.1-1.1,0.1-2.1,0.3-3.2c0.1-0.4,0.6-0.6,1-0.6c0.1,0,0.2,0,0.3,0c0.2,0,0.3,0,0.3-0.2l0,0c0.1-0.4,0.3-0.8,0.5-1.2
			c0.1-0.3,0.2-0.5,0.4-0.8l0,0c0.2-0.3,0.3-0.6,0.5-0.9l0,0c0.2-0.3,0.4-0.6,0.6-0.9c0.3-0.4,0.5-0.7,0.9-1.1l0,0
			c1.2-1.4,2.5-2.5,4-3.6c0.5-0.3,0.9-0.6,1.4-0.9c0.3-0.2,0.6-0.4,0.9-0.5c0.8-0.5,1.7-0.9,2.6-1.3c0.1,0,0.2-0.1,0.2-0.2
			c0-0.1,0-0.2,0-0.3c-0.2-1.1-0.3-2.2-0.3-3.3c0,0,0.1-0.1,0.1-0.1c0.5,0.2,1,0.4,1.4,0.6c1.3,0.6,2.6,1.4,3.8,2.2
			c1,0.7,1.9,1.5,2.7,2.4c0.1,0.1,0.2,0.2,0.3,0.4c0.1,0.2,0.3,0.3,0.4,0.5c0.2,0.2,0.3,0.5,0.5,0.7c0.1,0.1,0.2,0.3,0.3,0.4
			c0.1,0.2,0.2,0.4,0.4,0.6l0,0l0,0c1,1.8,2,3.7,3,5.5c0.3,0.5,0.5,1,0.8,1.5c0.2,0.3,0.3,0.6,0.5,0.9c0.2,0.3,0.4,0.6,0.6,0.8
			c0.4,0.5,0.9,1,1.4,1.5c0.5,0.5,1,0.9,1.5,1.3c0.1,0.1,0.3,0.3,0.4,0.4c0.1,0,0.2,0.1,0.3,0.1c0.1,0,0.3,0,0.4,0c0.3,0,0.6,0,1,0
			c0,0,0.1-0.1,0.2-0.1c0-0.2-0.1-0.4-0.2-0.6c-0.4-1-0.8-2-1.1-2.9c-0.1-0.3-0.3-0.7-0.4-1c0-0.1-0.1-0.2-0.2-0.3l0,0
			c-0.4-0.1-0.9-0.2-1.3-0.3l0,0c-0.2-0.1-0.4-0.1-0.5-0.4c0-0.3,0.1-0.6,0.2-0.8c0,0,0-0.1,0.1-0.2c0,0,0.1-0.1,0.1-0.1
			c0-0.1,0-0.2,0-0.3c-0.4-0.3-0.7-0.5-1-0.9c-0.8-0.8-1.6-1.8-2.2-2.8c-0.4-0.7-0.7-1.4-1-2.1c-0.3-0.7-0.5-1.4-0.7-2.1
			c-0.2-0.8-0.4-1.6-0.5-2.3c-0.1-0.6-0.2-1.2-0.2-1.8c0,0,0-0.1,0-0.2c-0.5-0.1-0.9-0.3-1.3-0.5c-0.3-0.2-0.6-0.3-0.8-0.5
			c-0.4-0.3-0.8-0.6-1.1-0.9c-0.4-0.4-0.6-0.8-0.9-1.3c-0.7-1.4-0.9-3-0.9-4.6c0.7-0.2,1.3-0.4,2-0.6c0-0.1,0-0.3-0.1-0.4
			c-0.3-0.7-0.8-1.3-1.4-1.8c-0.8-0.6-1.7-1.1-2.6-1.7c-1.3-0.8-2.7-1.6-4.1-2.2c-0.4-0.2-0.8-0.3-1.2-0.3c-1.1,0-2.2,0-3.3,0.1
			c-1.1,0-2.1,0-3.2,0c-0.9,0.1-1.9,0-2.8,0c-0.9,0-1.8,0-2.8,0c-0.6,0-1.1,0-1.7,0c-2.2,0-4.4-0.1-6.6-0.1c-0.4,0-0.8-0.1-1.2,0
			c0.5-0.9,1-1.8,1.4-2.6c0-0.1,0.1-0.2,0.1-0.3c0.1-0.1,0.1-0.2,0.2-0.4l0,0c0.1-0.1,0.1-0.3,0.2-0.4c0.2-0.4,0.4-0.8,0.6-1.1
			c0.1-0.1,0.1-0.2,0.2-0.3c0-0.1,0.1-0.2,0.1-0.3l0,0l0,0c0.1-0.1,0.1-0.3,0.2-0.4c0.1-0.1,0.1-0.2,0.2-0.4
			c0.4-0.8,0.8-1.7,1.1-2.5l0,0c0.1-0.2,0.1-0.4,0.2-0.5c0-0.1,0.1-0.3,0.1-0.4c0-0.2,0.1-0.4,0.1-0.6c0-0.4,0-0.8,0-1.2
			c0.6,0.1,1.1,0.3,1.7,0.3c1.3,0,2.6-0.7,3.2-1.8c-0.2-0.2-0.5-0.2-0.7-0.3c-0.9-0.4-1.8-0.8-2.8-0.8c-0.6,0-1.2,0.1-1.8,0.3
			c0-0.2-0.1-0.3-0.1-0.5c0-0.1-0.1-0.2-0.1-0.3c0-0.1-0.1-0.3-0.1-0.4c1.6,0.2,3.3,0.2,5,0.2c1.6,0,3.1-0.2,4.7-0.4l0-0.1l0,0
			c1.7-0.3,3.3-0.6,4.9-1.2c1.7-0.6,3.4-1.3,4.9-2.1c2-1.1,3.8-2.5,5.3-4.2c0.1-0.1,0.1-0.2,0-0.3c-0.3,0-0.6,0-0.8,0
			c-0.8,0-1.6,0-2.4,0c-0.3,0-0.7,0-1.1,0C-2275.9-32.6-2276.3-32.7-2276.5-32.5z M-2295.6-24.1c0,0.1,0,0.2,0.1,0.2
			c0.4-0.1,0.7-0.1,1.1-0.2C-2294.8-24.1-2295.2-24.1-2295.6-24.1z M-2318.1,2.9c1.5,0,3.1,0.1,4.6,0.3c0.7,0.1,1.4,0.2,2,0.4
			c-1,1.5-1.8,3-2.8,4.5l-0.1,0c-1.1-0.8-2-2-2.7-3.2c-0.2-0.3-0.4-0.6-0.6-1c-0.1-0.2-0.2-0.4-0.3-0.6
			C-2318,3.2-2318,3.1-2318.1,2.9z M-2317.6,3.3c0.2,0.5,0.5,1,0.8,1.4c0.7,1,1.4,2.1,2.4,2.9c0.8-1.2,1.5-2.5,2.3-3.7
			C-2313.9,3.5-2315.7,3.4-2317.6,3.3z"/>
		<path id="Fill-2" class="st5" d="M-2276.5-32.5c0.3-0.1,0.6-0.1,0.9-0.1c0.3,0,0.7,0,1.1,0c0.2,0,0.3,0.1,0.5,0.1
			c0.8,0,1.6,0,2.4,0c-0.1,0.1-0.1,0.2-0.2,0.3c-0.2,0-0.3,0-0.5,0c-0.8,0-1.6,0-2.5,0c-0.3,0-0.7,0.2-0.9,0.4
			c-1.4,1.4-2.9,2.7-4.6,3.8c-0.1-0.2-0.3-0.3-0.4-0.5c1.3-0.9,2.4-2,3.5-3.2C-2277-32.1-2276.9-32.4-2276.5-32.5"/>
		<path id="Fill-3" class="st6" d="M-2274.6-32.6c0.8,0,1.6,0,2.4,0c0.3,0,0.6,0,0.8,0c0.1,0,0.1,0.2,0,0.3
			c-1.5,1.7-3.3,3.1-5.3,4.2c0-0.1,0-0.1,0-0.2c0,0-0.1,0-0.2,0c1.8-1,3.4-2.2,4.7-3.6c0.1-0.1,0.1-0.2,0.2-0.3
			c0.1-0.1,0.1-0.2,0.2-0.3c-0.8,0-1.6,0-2.4,0C-2274.3-32.5-2274.4-32.6-2274.6-32.6"/>
		<path id="Fill-4" class="st7" d="M-2275.8-31.9c0.2-0.2,0.5-0.4,0.9-0.4c0.8,0,1.6,0,2.5,0c0.2,0,0.3,0,0.5,0
			c-0.1,0.1-0.1,0.2-0.2,0.3c-1.3,1.5-3,2.7-4.7,3.6c-1.6,0.9-3.3,1.6-5,2.1c-1.6,0.5-3.2,0.9-4.9,1.1c-1.5,0.3-3,0.4-4.4,0.4
			c-1.8,0.1-3.6,0-5.4-0.2c0.1,0.1,0.3,0.2,0.4,0.3c0,0.1,0.1,0.3,0.1,0.4c-0.1-0.1-0.3-0.2-0.4-0.3c-0.1-0.1-0.1-0.3-0.2-0.5
			c-0.3,0-0.5-0.1-0.8-0.1c-0.7-0.1-1.5-0.3-2.2-0.5c-0.5-0.1-1-0.3-1.5-0.3c-0.3,0-0.6-0.3-0.9-0.4c-0.8-0.3-1.6-0.7-2.3-1.2
			c-0.3-0.2-0.5-0.4-0.8-0.4c0.1-0.2,0.4-0.3,0.6-0.5c0.1,0,0.2,0.1,0.2,0.1c0.1-0.1,0.3-0.1,0.4-0.2c0.8,0.5,1.5,1.1,2.4,1.4
			c0.6,0.3,1.2,0.5,1.9,0.6c0.8,0.2,1.6,0.3,2.4,0.2c0.4,0,0.8-0.1,1.2-0.2c0.3-0.1,0.6-0.2,0.9-0.3c0.3-0.1,0.5,0,0.8,0.1
			c-0.1-0.3-0.4-0.6-0.5-0.9c0.3,0.1,0.4,0.4,0.7,0.5c0.7,0.6,1.7,0.7,2.5,0.6c0,0-0.1,0.1-0.1,0.1c0.1,0.1,0.1,0.3,0.3,0.3
			c0.4,0,0.8-0.1,1.2-0.2c0.3-0.1,0.7-0.2,1-0.3c0.3-0.1,0.6-0.2,0.8-0.3c0.5-0.2,0.9-0.5,1.4-0.7c-0.1-0.3-0.3-0.5-0.5-0.8
			c0.1,0,0.3,0.1,0.4,0.1c0.4,0.3,0.9,0.5,1.4,0.7c0.5,0.1,1,0.1,1.6,0.1c0,0.1-0.1,0.2-0.1,0.2c0.1,0.1,0.2,0.2,0.3,0.2
			c0.4,0,0.8-0.1,1.2-0.3c0.7-0.2,1.4-0.6,2-1C-2278.7-29.2-2277.1-30.5-2275.8-31.9"/>
		<path id="Fill-5" class="st8" d="M-2304.3-28.2c0.2-0.2,0.5-0.4,0.8-0.3c0.6,0.4,1.3,0.8,2,1.1l0,0c-0.1,0.2,0,0.3,0.2,0.3
			c0,0,0.1,0.1,0.1,0.2c-0.9-0.4-1.7-0.9-2.4-1.4c-0.1,0.1-0.3,0.1-0.4,0.2C-2304.2-28.2-2304.2-28.2-2304.3-28.2z M-2283.8-27.3
			c0.4-0.1,0.8-0.1,1.2-0.3c0,0.1,0,0.1,0,0.2c0.1,0.1,0.2,0.1,0.3,0.2c-0.4,0.2-0.8,0.3-1.2,0.3c-0.2,0-0.2-0.1-0.3-0.2
			C-2283.9-27.1-2283.8-27.2-2283.8-27.3z"/>
		<path id="Fill-6" class="st9" d="M-2282.6-27.6c0.7-0.3,1.3-0.6,1.9-1c0.1,0.2,0.3,0.3,0.4,0.5c-0.6,0.4-1.3,0.7-2,1
			c-0.1-0.1-0.2-0.1-0.3-0.2C-2282.7-27.4-2282.7-27.5-2282.6-27.6"/>
		<path id="Fill-7" class="st10" d="M-2281.8-26.2c1.7-0.5,3.4-1.3,5-2.1c0,0,0.1,0,0.2,0c0,0.1,0,0.1,0,0.2
			c-1.6,0.9-3.2,1.6-4.9,2.1C-2281.6-26-2281.7-26.1-2281.8-26.2"/>
		<path id="Fill-8" class="st11" d="M-2288.5-27.3c0.5-0.2,0.9-0.7,1.4-0.9c0.2,0.2,0.3,0.5,0.5,0.8c-0.5,0.2-0.9,0.5-1.4,0.7
			c-0.1-0.1-0.2-0.2-0.2-0.4c0,0,0-0.1,0.1-0.1C-2288.4-27.2-2288.5-27.2-2288.5-27.3"/>
		<path id="Fill-9" class="st12" d="M-2304.9-27.7c0.3,0,0.5,0.3,0.8,0.4c0.7,0.5,1.5,0.8,2.3,1.2c0.3,0.1,0.5,0.4,0.9,0.4
			c0.5,0,1,0.2,1.5,0.3c-0.3,0.3-0.8,0.1-1.1,0.2c0.1,0.1,0.1,0.3,0.2,0.4c0.1,0.2,0.1,0.4,0.1,0.6c-0.1,0-0.2,0-0.2,0
			c0-0.4-0.3-0.8-0.6-1.1c-0.3-0.3-0.7-0.4-1.1-0.6c-0.8-0.4-1.5-0.8-2.2-1.3C-2304.6-27.4-2304.8-27.5-2304.9-27.7"/>
		<path id="Fill-10" class="st13" d="M-2296.2-26.8c0.5-0.2,1-0.4,1.5-0.6c0.2,0.3,0.4,0.6,0.5,0.9c-0.3-0.1-0.5-0.2-0.8-0.1
			c-0.3,0.1-0.6,0.2-0.9,0.3C-2295.9-26.5-2296-26.7-2296.2-26.8z M-2315.6,10.2c0,0,0.1,0.1,0.1,0.1c-0.1,0.5-0.5,0.8-0.7,1.2
			c-0.1,0.3-0.4,0.4-0.5,0.8c-0.3,0.4-0.6,0.9-0.9,1.3c-0.3,0.4-0.5,0.9-0.8,1.3c-0.1,0.1-0.1,0.3-0.2,0.4c-0.4,0.4-0.7,0.9-1,1.5
			c0,0.1-0.1,0.1-0.2,0.2c-0.3,0.1-0.3,0.5-0.5,0.6c-0.1,0.1-0.3,0.2-0.3,0.4c-0.2,0.4-0.5,0.7-0.7,1.1c0.6-0.5,1.1-1.1,1.6-1.7
			c0.7-0.9,1.5-1.9,2.1-2.8c0.9-1.2,1.8-2.5,2.6-3.8c0.4,0.4,0.8,0.8,1.2,1.1c-0.1,0.1-0.2,0.3-0.3,0.4c-0.4,0.4-0.8,0.8-1.1,1.3
			c-0.1,0.2-0.3,0.3-0.4,0.5c-0.1,0.1-0.2,0.2-0.3,0.4c-0.1,0.1-0.2,0.3-0.3,0.5c0.2,0.2,0.3,0.3,0.4,0.5c-0.2,0.2-0.4,0.5-0.5,0.7
			c-0.2-0.2-0.3-0.3-0.5-0.4c-0.1,0.1-0.2,0.3-0.3,0.4c-0.6,1-1.2,2-1.6,3c-0.1,0.2-0.2,0.3-0.3,0.5c0.1,0.2,0.3,0.4,0.4,0.7
			c0,0-0.1,0-0.2,0c-0.2-0.2-0.3-0.6-0.6-0.8c-0.5,0-0.9,0.4-1.1,0.8c-0.4,1-0.9,2-1.3,3c0.2,0.2,0.1,0.4,0.3,0.6
			c0,0.1-0.1,0.3-0.2,0.4c-0.1-0.1-0.2-0.3-0.3-0.5c-0.1-0.1-0.2,0-0.3,0c-0.8,0-1.7,0.1-2.5,0.1c-0.1,0-0.2-0.1-0.2-0.1
			c0-0.1,0-0.2,0-0.3c-0.2,0.4-0.6,0.6-0.9,0.9c0.1-0.3,0.3-0.6,0.4-0.8c0.3-0.1,0.6-0.4,0.8-0.7c0.4-0.5,0.7-1,1.1-1.5
			c0.4-0.6,0.9-1.1,1.5-1.5c0.3-0.3,0.5-0.7,0.7-1c0.3-0.4,0.6-0.8,0.8-1.2c0.8-1,1.5-1.9,2.2-3
			C-2317.5,13.1-2316.5,11.6-2315.6,10.2z"/>
		<path id="Fill-11" class="st14" d="M-2301.3-27.1c-0.2,0-0.3-0.1-0.2-0.3c0.7,0.3,1.4,0.6,2.1,0.7l0,0.1c0,0.1,0,0.2,0,0.3
			c-0.7-0.1-1.3-0.4-1.9-0.6C-2301.3-26.9-2301.3-27-2301.3-27.1z M-2319.9-0.1c2.2-0.3,4.4-0.6,6.6-0.9c0.3,0.1,0.5,0.2,0.8,0.3
			c0,0,0,0.1,0,0.1c-0.4,0.1-0.7,0.1-1.1,0.1c-2.1,0.2-4.2,0.5-6.3,0.8C-2319.9,0.2-2319.9,0-2319.9-0.1z M-2318.3,3.8
			c0.1,0.2,0.2,0.3,0.3,0.4c0.1-0.1,0.2-0.2,0.4-0.2c0.2,0.3,0.4,0.7,0.6,1c-0.1,0.1-0.2,0.2-0.3,0.3c0,0.1,0.1,0.3,0.2,0.4
			c-0.5,0.1-1.1,0-1.6,0.2c-0.2,0.1-0.4,0-0.6,0c-0.5-0.5-1-1.1-1.4-1.6c0.3,0,0.7,0,1-0.1c0.4-0.1,0.9-0.1,1.3-0.1
			C-2318.4,3.9-2318.3,3.9-2318.3,3.8z"/>
		<path id="Fill-12" class="st15" d="M-2289.3-26.9c0.2-0.1,0.5-0.2,0.7-0.4c0.1,0,0.2,0.1,0.3,0.1c0,0,0,0.1-0.1,0.1
			c0.1,0.1,0.2,0.2,0.2,0.4c-0.3,0.1-0.6,0.2-0.8,0.3C-2289.1-26.5-2289.2-26.7-2289.3-26.9"/>
		<path id="Fill-13" class="st16" d="M-2290.3-26.5c0.3-0.1,0.7-0.2,1-0.4c0.1,0.2,0.2,0.4,0.3,0.6c-0.3,0.1-0.7,0.2-1,0.3
			C-2290.1-26.2-2290.2-26.3-2290.3-26.5L-2290.3-26.5"/>
		<path id="Fill-14" class="st17" d="M-2297.8-26.5c0.6,0,1.1-0.1,1.7-0.3c0.1,0.2,0.3,0.3,0.4,0.5c-0.4,0.1-0.8,0.2-1.2,0.2
			c-0.3,0-0.5-0.1-0.8,0C-2297.8-26.3-2297.8-26.4-2297.8-26.5z M-2280.1-9.2c0.8,0,1.6-0.1,2.4,0.1c-0.1,0.5-0.3,0.9-0.6,1.2
			c-0.3-0.1-0.7-0.1-1-0.1c-0.5,0.1-1,0.1-1.6,0.2c0-0.2,0.2-0.4,0.3-0.6c0.1-0.3,0.5-0.5,0.4-0.8
			C-2280.2-9.2-2280.1-9.2-2280.1-9.2z"/>
		<path id="Fill-15" class="st18" d="M-2299.4-26.6L-2299.4-26.6c0.5,0,1.1,0.1,1.6,0.1c0,0.1,0,0.2,0,0.4c0.3,0,0.5,0,0.8,0
			c-0.8,0.1-1.6,0-2.4-0.2C-2299.4-26.4-2299.4-26.5-2299.4-26.6"/>
		<path id="Fill-16" class="st19" d="M-2291.4-26.3c0.4,0,0.7-0.1,1.1-0.2l0.1,0c0.1,0.2,0.2,0.3,0.3,0.4c-0.4,0.1-0.8,0.2-1.2,0.2
			c-0.2,0-0.2-0.2-0.3-0.3C-2291.5-26.2-2291.5-26.3-2291.4-26.3"/>
		<path id="Fill-17" class="st20" d="M-2286.7-25c1.7-0.3,3.3-0.6,4.9-1.1c0.1,0.1,0.2,0.1,0.3,0.2c-1.6,0.5-3.2,0.9-4.9,1.2l0,0
			C-2286.5-24.9-2286.6-25-2286.7-25"/>
		<path id="Fill-18" class="st21" d="M-2299.5-25.5c0.7,0.2,1.5,0.4,2.2,0.5c-0.1,0-0.2,0.1-0.3,0.1c-1,0-1.9-0.1-2.9,0.1
			c-0.1-0.1-0.1-0.3-0.2-0.4C-2300.3-25.3-2299.8-25.2-2299.5-25.5"/>
		<path id="Fill-19" class="st22" d="M-2297.3-25c0.3,0,0.5,0.1,0.8,0.1c0.1,0.2,0.1,0.3,0.2,0.5c0.1,0.1,0.3,0.2,0.4,0.3
			c0,0.1,0.1,0.2,0.1,0.3c-0.1,0-0.3-0.1-0.4-0.1c0-0.1-0.1-0.1-0.1-0.2c-0.6-0.2-1.2-0.2-1.9-0.3c-0.5,0-0.9,0-1.4,0
			c-0.2,0-0.5,0-0.7,0.2h0c0-0.2,0-0.4-0.1-0.6c1-0.1,1.9-0.1,2.9-0.1C-2297.5-24.9-2297.4-25-2297.3-25"/>
		<path id="Fill-20" class="st23" d="M-2291.1-24.6c1.5-0.1,3-0.2,4.4-0.4c0.1,0.1,0.2,0.1,0.2,0.2l0,0.1c-1.6,0.2-3.1,0.4-4.7,0.4
			C-2291.1-24.4-2291.1-24.6-2291.1-24.6"/>
		<path id="Fill-21" class="st24" d="M-2296.5-24.9c1.8,0.2,3.6,0.3,5.4,0.2c0,0.1,0,0.2,0,0.3c-1.7,0.1-3.3,0-5-0.2
			C-2296.2-24.6-2296.3-24.7-2296.5-24.9z M-2295,3.6c1.3-0.3,2.6-0.5,4-0.6c0,0.2,0,0.3-0.1,0.5c0,0,0.1-0.1,0.1-0.1
			c0,0,0.1,0.1,0.1,0.2c-1.3,0.2-2.5,0.3-3.7,0.6C-2294.8,4-2294.9,3.8-2295,3.6z"/>
		<path id="Fill-22" class="st25" d="M-2300.3-24.2c0.2-0.2,0.4-0.2,0.7-0.2c0.5,0,0.9-0.1,1.4,0c0.6,0.1,1.3,0.1,1.9,0.3
			c0,0.1,0.1,0.1,0.1,0.2c0,0.2,0.1,0.3,0.1,0.5C-2297.6-23.8-2298.9-24.1-2300.3-24.2z M-2303.2-23.5c0.5-0.2,1.1-0.4,1.7-0.4
			c0.7,0,1.4,0.1,2.1,0.2c-0.1,0-0.1,0.1-0.2,0.1c0.3,0.2,0.6,0.3,0.7,0.6c-0.1,0.3-0.1,0.6-0.3,0.8c-1.1,0.8-2.5,0.9-3.7,0.9
			c-0.6,0-1.1,0-1.7-0.1c-0.3-0.1-0.7,0-1-0.2c-0.2-0.1-0.5-0.3-0.7-0.3c-0.3-0.1-0.5-0.3-0.7-0.5l0-0.1c0.4,0,0.9-0.1,1.3-0.1
			c0.3,0,0.6-0.1,0.9-0.2c0,0.2,0.2,0.3,0.3,0.4c0.5,0.3,1.1,0.3,1.7,0.3c0.4,0,0.8-0.1,1.2-0.2c0.1,0,0.2-0.1,0.2-0.1
			c0.2-0.2,0.7-0.4,0.6-0.9c-0.1,0.1-0.1,0.2-0.2,0.3c0,0-0.1,0-0.2,0.1c0-0.1,0.1-0.2,0.1-0.2c-0.1-0.1-0.3-0.1-0.5-0.2
			c-0.1,0-0.2,0-0.3,0c-0.2,0-0.4,0-0.6,0c-0.1,0-0.2,0-0.3,0c0-0.1,0-0.1,0-0.2C-2302.8-23.5-2303-23.5-2303.2-23.5z"/>
		<path id="Fill-23" class="st26" d="M-2304.7-23.3c0.8-0.3,1.6-0.8,2.5-1c0.5-0.1,1,0,1.6,0c0.1,0,0.2,0,0.2,0h0
			c1.4,0.2,2.8,0.4,4.1,0.7c0-0.2-0.1-0.3-0.1-0.5c0.1,0,0.3,0.1,0.4,0.1c0,0.2,0.1,0.3,0.1,0.5c-0.1,0-0.1,0-0.2,0.1
			c0,0,0,0.1-0.1,0.1c-1.1-0.3-2.2-0.4-3.3-0.6c-0.7-0.1-1.4-0.2-2.1-0.2c-0.6,0-1.2,0.2-1.7,0.4c-0.5,0.2-0.9,0.4-1.4,0.6
			C-2304.6-23.1-2304.6-23.2-2304.7-23.3"/>
		<path id="Fill-24" class="st27" d="M-2299.6-23.7c0.1,0,0.1-0.1,0.2-0.1c1.1,0.2,2.2,0.4,3.3,0.6c0.2,0,0.3,0.1,0.5,0
			c0.4-0.1,0.9-0.3,1.3-0.3c1.1,0,2.2,0.3,3.2,0.8c0.1,0,0.2,0.1,0.2,0.2c-0.7,0.8-1.7,1.3-2.8,1.2c-0.7,0-1.4-0.2-2.1-0.4
			c0.1,0.5,0.2,1.1,0.1,1.6c0,0.2,0,0.4-0.1,0.6c0,0.1,0,0.2-0.1,0.3c-0.1,0.2-0.1,0.4-0.1,0.5c0.1,0.1,0.2,0.2,0.3,0.3
			c-0.3,0.9-0.7,1.7-1.1,2.5c-0.1-0.1-0.3-0.1-0.4-0.2c-0.1,0-0.3-0.1-0.4,0c0-0.1,0-0.1,0-0.2c-0.2,0-0.4,0-0.6,0
			c-0.2-0.1-0.4-0.2-0.6-0.2c-0.3,0-0.6-0.1-0.8-0.2c-0.4-0.1-0.8-0.1-1.1-0.2c-0.2-0.1-0.5-0.2-0.7-0.3c0.1-0.1,0.2-0.2,0.3-0.3
			c0.2-0.2,0.4-0.4,0.6-0.6c-0.3,0.1-0.5,0.2-0.8,0.3c-0.4,0.2-0.7,0.6-1.2,0.7c-0.4,0.1-0.7,0.4-1.1,0.6c-0.4,0.2-0.9,0.4-1.3,0.6
			c-0.4,0.2-0.9,0.2-1.3,0.1c-0.2-0.1-0.1-0.3-0.1-0.5c0,0-0.1,0-0.1-0.1c0.1-0.1,0.2-0.2,0.3-0.3c0.2,0.2,0.1,0.5,0.3,0.6
			c0.3,0.1,0.6,0,0.9-0.1c0.4-0.2,0.9-0.3,1.2-0.5c0.7-0.4,1.4-0.8,2-1.2c0.4-0.2,0.7-0.4,1.1-0.6c0.5-0.2,0.8-0.6,1-1
			c0.1-0.2,0.2-0.4,0.1-0.7c-0.2-0.4-0.7-0.5-1.1-0.5c-2.9,0.1-5.7-0.1-8.5-0.5c-0.3,0-0.5-0.1-0.8-0.1c-0.1,0-0.3,0-0.4,0
			c0,0,0-0.1-0.1-0.2c-0.1-0.3-0.1-0.7,0.2-1c0.3-0.2,0.7-0.2,1.1-0.3c0,0.1,0,0.2,0,0.3c0.3,0,0.7-0.1,1-0.1c0.3-0.1,0.7-0.1,1-0.1
			c0.2,0.2,0.4,0.5,0.7,0.5c0.2,0.1,0.5,0.2,0.7,0.3c0.3,0.2,0.7,0.1,1,0.2c0.6,0.1,1.1,0.1,1.7,0.1c1.3-0.1,2.7-0.1,3.7-0.9
			c0.2-0.2,0.2-0.5,0.3-0.8C-2299-23.3-2299.3-23.5-2299.6-23.7z M-2295.4-22.4c0,0,0,0.1,0.1,0.1l-0.1,0c0.2,0.3,0.7,0.5,1,0.6
			c0.7,0.2,1.4,0,1.9-0.3c0.2-0.1,0.5-0.3,0.6-0.5l-0.1,0c0,0,0.1-0.1,0.1-0.1c-0.7-0.3-1.5-0.5-2.3-0.4
			C-2294.7-23-2295.1-22.7-2295.4-22.4z"/>
		<path id="Fill-25" class="st28" d="M-2295.8-23.4c0.6-0.2,1.2-0.4,1.8-0.3c1,0,1.9,0.4,2.8,0.8c0.2,0.1,0.5,0.2,0.7,0.3
			c-0.2,0-0.3,0.1-0.5,0.1c0-0.1-0.1-0.2-0.2-0.2c-1-0.5-2.1-0.8-3.2-0.8c-0.5,0-0.9,0.2-1.3,0.3c-0.2,0.1-0.3,0-0.5,0
			c0,0,0-0.1,0.1-0.1C-2295.9-23.4-2295.9-23.4-2295.8-23.4"/>
		<path id="Fill-26" class="st29" d="M-2304.5-23c0.5-0.2,0.9-0.4,1.4-0.6c0.2,0,0.3,0,0.5,0c0,0.1,0,0.1,0,0.2
			c-0.1,0-0.3,0.1-0.4,0.1c0-0.1,0-0.1,0-0.2c-0.2,0.1-0.3,0.2-0.4,0.3c-0.1,0.2,0.1,0.3,0.2,0.3c0.5,0.3,1.2,0.4,1.8,0.2
			c0,0,0.1,0,0.1,0c-0.1,0.1-0.1,0.1-0.2,0.1c-0.4,0.1-0.8,0.2-1.2,0.2c-0.6,0-1.2,0-1.7-0.3c-0.2-0.1-0.3-0.2-0.3-0.4
			C-2304.7-22.9-2304.6-22.9-2304.5-23z M-2307.2-8.6c1-0.2,1.9-0.2,2.9-0.3c0.1,0.2,0.1,0.4,0.3,0.5c0.2,0.1,0.3,0.4,0.4,0.6
			c0.1,0.2,0.3,0.3,0.5,0.5c-0.2,0-0.5,0-0.7,0c-1.2,0-2.4-0.3-3.6,0c0-0.2-0.1-0.3-0.2-0.4c-0.1-0.2-0.2-0.4-0.3-0.5
			C-2307.7-8.5-2307.5-8.6-2307.2-8.6z"/>
		<path id="Fill-27" class="st30" d="M-2303.5-23.1c0.1-0.1,0.3-0.2,0.4-0.3c0,0.1,0,0.1,0,0.2c0,0.1-0.1,0.1-0.1,0.2
			c0.2,0.2,0.5,0.3,0.8,0.3c0.2,0,0.4,0,0.6,0l0.1,0c0.1,0,0.2,0.1,0.3,0.1c-0.6,0.2-1.3,0.1-1.8-0.2
			C-2303.4-22.8-2303.6-22.9-2303.5-23.1"/>
		<path id="Fill-28" class="st31" d="M-2302.7-23.3c0.1,0,0.2,0,0.3,0c0,0.2,0,0.5,0,0.7c-0.3-0.1-0.6-0.1-0.8-0.3
			c0-0.1,0.1-0.1,0.1-0.2C-2302.9-23.2-2302.8-23.3-2302.7-23.3"/>
		<path id="Fill-29" class="st32" d="M-2302.4-23.3c0.2,0,0.4,0,0.6,0c0,0.3,0,0.5,0,0.7c-0.2,0-0.4,0-0.6,0
			C-2302.4-22.9-2302.4-23.1-2302.4-23.3"/>
		<path id="Fill-30" class="st33" d="M-2301.8-23.4c0.1,0,0.2,0,0.3,0c0,0.2,0,0.4,0,0.7c-0.1,0-0.2,0-0.3,0.1l-0.1,0
			C-2301.8-22.9-2301.8-23.1-2301.8-23.4"/>
		<path id="Fill-31" class="st34" d="M-2301.5-23.3c0.2,0,0.3,0.1,0.5,0.2c0.1,0.1,0,0.2-0.1,0.2c-0.1,0.1-0.3,0.2-0.4,0.3
			C-2301.5-22.9-2301.5-23.1-2301.5-23.3"/>
		<path id="Fill-32" class="st35" d="M-2306.1-22.9c0.5-0.1,0.9-0.1,1.4-0.3c0,0.1,0.1,0.2,0.1,0.3c-0.1,0-0.2,0.1-0.3,0.1
			c-0.3,0.1-0.6,0.1-0.9,0.2c-0.1,0-0.2,0-0.4,0C-2306.1-22.8-2306.1-22.9-2306.1-22.9"/>
		<path id="Fill-33" class="st36" d="M-2300.9-23c0.1-0.1,0.1-0.2,0.2-0.3c0.1,0.4-0.4,0.6-0.6,0.9c0,0-0.1,0-0.1,0
			c-0.1,0-0.2-0.1-0.3-0.1c0.1,0,0.2,0,0.3-0.1c0.1-0.1,0.3-0.2,0.4-0.3C-2301-22.9-2301-23-2300.9-23"/>
		<path id="Fill-34" class="st37" d="M-2295.4-22.4c0.3-0.4,0.8-0.6,1.2-0.6c0.8-0.1,1.6,0.1,2.3,0.4c0,0-0.1,0.1-0.1,0.1
			c-1.1,0.1-2.2,0.1-3.4,0.3C-2295.4-22.3-2295.4-22.3-2295.4-22.4"/>
		<path id="Fill-35" class="st38" d="M-2307.2-22.8c0.4-0.1,0.8-0.1,1.1-0.1c0,0.1,0,0.2,0,0.2c0.1,0,0.2,0,0.4,0
			c-0.4,0.1-0.9,0.1-1.3,0.1C-2307.1-22.6-2307.2-22.7-2307.2-22.8"/>
		<path id="Fill-36" class="st39" d="M-2308.2-22.7c0.3,0,0.7-0.1,1-0.1c0,0.1,0.1,0.2,0.1,0.3l0,0.1c-0.3,0-0.7,0.1-1,0.1
			C-2308.1-22.5-2308.2-22.6-2308.2-22.7L-2308.2-22.7"/>
		<path id="Fill-37" class="st40" d="M-2309.1-22.5c0.3-0.1,0.6-0.1,0.9-0.1c0.1,0.1,0.1,0.2,0.2,0.3c-0.3,0.1-0.7,0.1-1,0.1
			C-2309-22.3-2309.1-22.4-2309.1-22.5"/>
		<path id="Fill-38" class="st41" d="M-2290.9-22.5c0.1-0.1,0.3-0.1,0.5-0.1c-0.6,1.1-1.9,1.8-3.2,1.8c0-0.2,0-0.3-0.1-0.5
			C-2292.6-21.2-2291.6-21.7-2290.9-22.5"/>
		<path id="Fill-39" class="st42" d="M-2295.8-21.6c0.7,0.2,1.4,0.4,2.1,0.4c0,0.2,0,0.3,0.1,0.5c-0.6,0-1.2-0.1-1.7-0.3
			c0,0.4,0.1,0.8,0,1.2c-0.1-0.1-0.3-0.1-0.4-0.2C-2295.6-20.5-2295.7-21.1-2295.8-21.6"/>
		<path id="Fill-40" class="st43" d="M-2310.4-21.2c0,0,0,0.1,0.1,0.2c0.1,0,0.3,0,0.4,0c0.1,0.4,0.2,0.7,0.3,1.1
			c0.1,0.2,0.3,0.2,0.4,0.2c0.6,0.1,1.3,0.1,1.9,0.2c0,0.2-0.1,0.3-0.3,0.4c-0.7-0.1-1.4-0.2-2-0.3c-0.2,0-0.3-0.1-0.4-0.2
			C-2310.1-20.1-2310.2-20.7-2310.4-21.2"/>
		<path id="Fill-41" class="st44" d="M-2309.9-21c0.3,0,0.5,0.1,0.8,0.1c0,0-0.1,0-0.1,0c0.1,0.4,0.2,0.8,0.5,1.1
			c-0.1,0-0.3,0-0.4,0.1c-0.2,0-0.4,0-0.4-0.2C-2309.7-20.3-2309.8-20.6-2309.9-21"/>
		<path id="Fill-42" class="st45" d="M-2309.2-20.9c0,0,0.1,0,0.1,0c2.8,0.4,5.7,0.6,8.5,0.5c0.4,0,0.9,0.1,1.1,0.5
			c-0.6,0.3-1.3,0.5-1.9,0.7c-0.8,0.3-1.7,0.6-2.6,0.8c0-0.3-0.3-0.6-0.6-0.6c-0.9-0.3-1.8-0.3-2.7-0.5c-0.6-0.1-1.3-0.1-1.9-0.2
			c0.1,0,0.3,0,0.4-0.1C-2309-20.1-2309.1-20.5-2309.2-20.9"/>
		<path id="Fill-43" class="st46" d="M-2295.7-20c0.1,0.1,0.3,0.1,0.4,0.2c0,0.2,0,0.4-0.1,0.6c-0.1,0-0.3-0.1-0.4-0.2
			C-2295.7-19.6-2295.7-19.8-2295.7-20"/>
		<path id="Fill-44" class="st47" d="M-2299.5-19.9c0.1,0.2,0,0.5-0.1,0.7c-0.7,0.1-1.3,0.5-1.9,0.8c-0.7,0.4-1.4,0.7-2.1,1
			c-0.4,0.2-0.8,0.3-1.1,0.4c-0.2,0.1-0.4-0.1-0.6-0.2c0.4-0.4,0.9-0.7,1.2-1.1c0.9-0.2,1.8-0.5,2.6-0.8
			C-2300.8-19.4-2300.1-19.6-2299.5-19.9z M-2320.5,0c0.2,0,0.4-0.1,0.6-0.1c0,0.1,0,0.3,0,0.4c-0.3,0-0.6,0.1-0.9,0.1
			C-2320.7,0.4-2320.6,0.2-2320.5,0z"/>
		<path id="Fill-45" class="st48" d="M-2307.2-19.5c0.9,0.2,1.8,0.2,2.7,0.5c0.3,0.1,0.5,0.3,0.6,0.6c-0.3,0.5-0.8,0.8-1.2,1.1
			c-0.3,0.3-0.7,0.5-1,0.8c-0.1,0.1-0.2,0.2-0.3,0.3c-0.4,0.3-0.7,0.6-1.1,0.9c-0.1-0.1-0.1-0.2-0.2-0.3c1.1-0.8,2.1-1.6,3.2-2.5
			c0.1-0.1,0.2-0.2,0.2-0.3c0-0.1-0.2-0.1-0.2-0.2c-0.9-0.3-1.9-0.4-2.8-0.5C-2307.3-19.2-2307.2-19.3-2307.2-19.5"/>
		<path id="Fill-46" class="st49" d="M-2295.8-19.2c0-0.1,0-0.2,0.1-0.3c0.1,0.1,0.2,0.2,0.4,0.2c0,0.1-0.1,0.3-0.1,0.4
			c-0.1,0-0.2-0.1-0.3-0.1C-2295.8-19-2295.8-19.1-2295.8-19.2"/>
		<path id="Fill-47" class="st50" d="M-2301.5-18.5c0.6-0.3,1.2-0.6,1.9-0.8c-0.2,0.4-0.5,0.9-1,1c-0.4,0.2-0.8,0.4-1.1,0.6
			c-0.7,0.4-1.4,0.8-2,1.2c-0.4,0.2-0.8,0.3-1.2,0.5c-0.3,0.1-0.6,0.2-0.9,0.1c-0.2-0.2-0.1-0.5-0.3-0.6c0.3-0.3,0.7-0.5,1-0.8
			c0.2,0.1,0.4,0.2,0.6,0.2c0.4-0.1,0.8-0.2,1.1-0.4C-2302.8-17.8-2302.1-18.1-2301.5-18.5"/>
		<path id="Fill-48" class="st51" d="M-2296-18.6c0-0.2,0.1-0.4,0.1-0.5c0,0.1,0.1,0.2,0.1,0.2c0.1,0,0.2,0.1,0.3,0.1
			c-0.1,0.2-0.1,0.4-0.2,0.5l0,0C-2295.8-18.4-2295.9-18.5-2296-18.6"/>
		<path id="Fill-49" class="st52" d="M-2301.5-17.6c0.3-0.1,0.5-0.3,0.8-0.3c-0.2,0.2-0.4,0.4-0.6,0.6c-0.4,0-0.6,0.2-0.9,0.4
			c-0.3,0.2-0.6,0.5-0.9,0.7c-0.4,0.2-0.7,0.5-1,0.8c-0.2,0.2-0.5,0.2-0.8,0.3c-0.3,0.1-0.6,0.3-0.9,0.4c-0.3,0.2-0.6,0.3-0.9,0.5
			c-0.1,0.2-0.1,0.5-0.3,0.7c-0.2,0.4-0.4,0.7-0.7,1.1c-0.3,0-0.5,0.1-0.8,0.2c-0.2,0.1-0.5,0.1-0.7,0.3c-0.2,0.2-0.4,0.5-0.6,0.7
			c-0.1,0.1-0.1,0.2-0.2,0.4c0,0-0.1,0-0.1,0c0,0.2,0,0.3,0,0.5c-0.4,0.3-0.8,0.5-1.1,0.8c-0.5,0.4-1,0.7-1.4,1.1
			c-0.7,0.6-1.4,1.2-2.1,1.8c-0.6,0.5-1.1,1.1-1.8,1.6c0.3-0.7,0.7-1.4,1-2c0.5-1,1-1.9,1.7-2.7c0.6-0.7,1.3-1.4,1.9-2
			c1.3-1.1,2.7-2.2,4.1-3.4c0.4-0.3,0.7-0.6,1.1-0.9c0,0,0.1,0,0.1,0.1c0,0.2-0.1,0.4,0.1,0.5c0.4,0.1,0.9,0.1,1.3-0.1
			c0.4-0.2,0.9-0.3,1.3-0.6c0.4-0.2,0.7-0.5,1.1-0.6C-2302.2-17-2301.9-17.4-2301.5-17.6"/>
		<path id="Fill-50" class="st53" d="M-2302.1-16.9c0.3-0.2,0.6-0.4,0.9-0.4c-0.1,0.1-0.2,0.2-0.3,0.3c-1.1,1-2.2,1.9-3.4,2.8
			c-0.5,0.4-1,0.7-1.4,1.1c-1,0.7-2,1.4-3,2.1c-0.2,0.2-0.5,0.3-0.7,0.5c0-0.2,0-0.3,0-0.5c0,0,0.1,0,0.1,0c0-0.1,0.1-0.3,0.2-0.4
			c0.2-0.2,0.3-0.5,0.6-0.7c0.2-0.1,0.5-0.1,0.7-0.3c0.2-0.1,0.5-0.2,0.8-0.2c0.2-0.4,0.4-0.7,0.7-1.1c0.1-0.2,0.1-0.5,0.3-0.7
			c0.3-0.2,0.6-0.3,0.9-0.5c0.3-0.1,0.6-0.4,0.9-0.4c0.3-0.1,0.6-0.1,0.8-0.3c0.3-0.3,0.6-0.6,1-0.8
			C-2302.7-16.5-2302.5-16.7-2302.1-16.9"/>
		<path id="Fill-51" class="st54" d="M-2304.9-14.3c1.1-0.9,2.3-1.8,3.4-2.8c0.2,0.1,0.5,0.2,0.7,0.3c0.4,0.1,0.8,0.1,1.1,0.2
			c0.3,0.1,0.5,0.1,0.8,0.2c0.2,0,0.4,0.2,0.6,0.2c0.2,0,0.4,0,0.6,0c0,0.1,0,0.1,0,0.2c0.1,0,0.3,0,0.4,0c-0.1,0.1-0.2,0.3-0.2,0.4
			c0,0.1-0.1,0.2-0.1,0.3c-0.1,0.1-0.1,0.2-0.2,0.3c-0.1,0.1-0.1,0.2-0.2,0.4c-0.2,0.4-0.4,0.7-0.5,1.1c0,0.1-0.1,0.2-0.1,0.3
			c0,0.1-0.1,0.2-0.1,0.3c-0.1,0-0.1,0-0.2,0.1c-0.6-0.1-1.2-0.3-1.9-0.4c-0.6-0.2-1.3-0.2-1.9-0.4c-0.3-0.1-0.5-0.1-0.8-0.2
			C-2303.9-14-2304.4-14.2-2304.9-14.3"/>
		<path id="Fill-52" class="st55" d="M-2297.2-16c0.1,0,0.3,0.1,0.4,0.2c-0.1,0.1-0.1,0.2-0.2,0.4c-0.2,0-0.3-0.1-0.5-0.1
			C-2297.3-15.7-2297.3-15.8-2297.2-16"/>
		<path id="Fill-53" class="st56" d="M-2312-12.1c1.4-1.2,2.8-2.3,4.2-3.4c0.1,0.1,0.1,0.2,0.2,0.3c-1.4,1.1-2.8,2.2-4.1,3.4
			C-2311.8-12-2311.9-12.1-2312-12.1"/>
		<path id="Fill-54" class="st57" d="M-2297.4-15.5c0.2,0,0.3,0.1,0.5,0.1c-0.1,0.1-0.1,0.3-0.2,0.4l0,0c-0.1-0.1-0.2-0.1-0.4-0.2
			C-2297.5-15.3-2297.5-15.4-2297.4-15.5"/>
		<path id="Fill-55" class="st58" d="M-2297.6-15.3c0.1,0.1,0.2,0.1,0.4,0.2l0,0c0,0.1-0.1,0.2-0.1,0.3c-0.1-0.1-0.3-0.1-0.4-0.2
			C-2297.7-15-2297.6-15.1-2297.6-15.3"/>
		<path id="Fill-56" class="st59" d="M-2297.7-14.9c0.1,0.1,0.3,0.1,0.4,0.2c-0.1,0.1-0.1,0.2-0.2,0.3c-0.2,0-0.3-0.1-0.5-0.1
			C-2297.9-14.7-2297.8-14.8-2297.7-14.9"/>
		<path id="Fill-57" class="st60" d="M-2298.5-13.5c0.2-0.3,0.4-0.7,0.5-1.1c0.2,0,0.3,0.1,0.5,0.1c-0.2,0.4-0.4,0.8-0.6,1.1
			C-2298.2-13.4-2298.3-13.4-2298.5-13.5"/>
		<path id="Fill-58" class="st61" d="M-2306.4-13.2c0.5-0.4,1-0.7,1.4-1.1c0.5,0,1,0.2,1.5,0.3c0.3,0,0.5,0.1,0.8,0.2
			c0.6,0.2,1.2,0.3,1.9,0.4c0.6,0.1,1.2,0.4,1.9,0.4c0.1,0,0.1,0,0.2-0.1c0,0.1-0.1,0.1-0.1,0.2c-0.1,0.1-0.1,0.2-0.2,0.3
			c0.1,0.1,0.3,0.1,0.4,0.2c-0.5,0.9-1,1.7-1.4,2.6c-0.2,0.1-0.4,0.1-0.7,0.2c0.3-0.6,0.6-1.2,1-1.7c0.1-0.2,0.1-0.3,0.1-0.5
			c-0.2,0-0.5,0.1-0.7,0c0.1,0,0.3-0.1,0.4-0.1c-0.4,0-0.8,0.1-1.1-0.2c-0.7-0.3-1.4-0.3-2.2-0.4c-0.2,0-0.2-0.2-0.4-0.2
			c-0.4-0.2-0.9-0.1-1.4-0.1c-0.2,0-0.3-0.2-0.5-0.2c-0.2,0-0.4,0-0.7,0c0-0.1,0-0.1,0-0.2C-2306.2-13.1-2306.3-13.2-2306.4-13.2"/>
		<path id="Fill-59" class="st62" d="M-2298.6-13.2c0-0.1,0.1-0.2,0.1-0.3c0.2,0.1,0.3,0.1,0.5,0.2c-0.1,0.1-0.1,0.3-0.2,0.4l0,0
			C-2298.4-13-2298.6-13-2298.6-13.2"/>
		<path id="Fill-60" class="st63" d="M-2298.7-13c0-0.1,0.1-0.2,0.1-0.3c0,0.2,0.2,0.3,0.4,0.4c-0.1,0.1-0.1,0.2-0.2,0.4
			c-0.1-0.1-0.3-0.2-0.4-0.3C-2298.8-12.8-2298.8-12.9-2298.7-13"/>
		<path id="Fill-61" class="st64" d="M-2309.3-11.1c1-0.7,2-1.4,3-2.1c0.1,0,0.2,0,0.3,0c0,0.1,0,0.1,0,0.2c0.2,0,0.4,0,0.7,0
			c0.2,0,0.3,0.2,0.5,0.2c0.5,0,0.9,0,1.4,0.1c0.1,0.1,0.2,0.2,0.4,0.2c0.7,0.1,1.5,0.1,2.2,0.4c0.3,0.3,0.7,0.1,1.1,0.2
			c-0.1,0-0.3,0.1-0.4,0.1c0.2,0.1,0.5,0,0.7,0c0,0.2,0,0.4-0.1,0.5c-0.3,0.6-0.7,1.2-1,1.7c-0.3,0.1-0.6,0.1-1,0.1
			c-0.1-0.1-0.2-0.1-0.3-0.1c-1-0.2-1.9-0.4-2.9-0.6c-1-0.2-2-0.5-3.1-0.7c-0.3,0-0.5-0.2-0.8-0.2C-2308.9-11-2309.1-11-2309.3-11.1
			"/>
		<path id="Fill-62" class="st65" d="M-2299-12.4c0-0.1,0.1-0.2,0.2-0.3c0.1,0.1,0.3,0.2,0.4,0.3c0,0.1-0.1,0.2-0.1,0.3
			C-2298.7-12.3-2298.8-12.4-2299-12.4"/>
		<path id="Fill-63" class="st66" d="M-2314-10c0.6-0.8,1.3-1.5,2.1-2.1c0.1,0.1,0.2,0.1,0.3,0.2c-0.7,0.6-1.4,1.3-1.9,2
			c-0.7,0.8-1.2,1.8-1.7,2.7c-0.3,0.7-0.7,1.3-1,2c0.6-0.5,1.2-1.1,1.8-1.6c0.6,0.3,1.2,0.3,1.9,0.5c0.5,0.1,1.1,0.3,1.6,0.4
			c0.1,0,0.3,0.1,0.4,0.2c-0.5,0.6-0.9,1.3-1.4,2c0,0-0.1-0.1-0.1-0.1c-0.3,0.1-0.5-0.1-0.8-0.1c-1.1-0.2-2.3-0.5-3.4-0.8
			c-0.1,0.2-0.1,0.5,0.1,0.7c0.5,0.5,1,1,1.6,1.4c0.4,0.3,0.8,0.7,1.2,1c0.4,0.2,0.7,0.5,1,0.8c0,0.1,0.1,0.2,0.1,0.2
			c-0.3-0.1-0.5-0.2-0.8-0.3c-1-0.9-2.1-1.7-3.1-2.5c-0.2-0.2-0.4-0.3-0.5-0.5c-0.2-0.2-0.1-0.6,0-0.8c0.3-0.8,0.7-1.5,1.1-2.2
			C-2315.3-8.1-2314.7-9.1-2314-10"/>
		<path id="Fill-64" class="st67" d="M-2310-10.6c0.2-0.2,0.5-0.3,0.7-0.5c0.2,0.1,0.4,0.1,0.6,0.1c0.3,0.1,0.5,0.2,0.8,0.2
			c1,0.2,2,0.5,3.1,0.7c1,0.2,1.9,0.5,2.9,0.6c0.1,0,0.2,0.1,0.3,0.1c-1.9,0.1-3.8,0.3-5.7,0.5c0-0.1,0.1-0.1,0.1-0.2
			c-0.2,0-0.4-0.1-0.5,0c-0.3,0.1-0.7-0.1-1-0.1c0.1,0,0.3,0,0.4-0.1c-0.6-0.2-1.2-0.3-1.9-0.5c0,0.1,0.1,0.2,0.1,0.2
			c-0.2,0-0.4-0.1-0.6-0.1c0-0.1-0.1-0.1-0.1-0.2c-0.1,0-0.2,0-0.3,0C-2310.8-10.1-2310.4-10.3-2310-10.6"/>
		<path id="Fill-65" class="st68" d="M-2311.1-9.8c0.1,0,0.2,0,0.3,0c0,0.1,0.1,0.1,0.1,0.2c0.2,0,0.4,0.1,0.6,0.1
			c0-0.1-0.1-0.2-0.1-0.2c0.6,0.2,1.3,0.3,1.9,0.5c-0.1,0-0.3,0-0.4,0.1c0.3,0.1,0.7,0.3,1,0.1c0.2-0.1,0.4,0,0.5,0
			c0,0.1-0.1,0.1-0.1,0.2c-0.7,0.1-1.3,0.5-1.8,1c-0.3,0-0.6-0.1-0.9-0.2c-0.9-0.2-1.7-0.3-2.6-0.6C-2312.1-9-2311.6-9.4-2311.1-9.8
			"/>
		<path id="Fill-66" class="st69" d="M-2298.8-9.5c2.2,0,4.4,0.1,6.6,0.1c0,0.1,0,0.2,0,0.2c-0.4,0-0.8,0-1.2,0
			C-2295.2-9.3-2297-9.4-2298.8-9.5z M-2306.6,4.3c0.2,0.1,0.3,0.1,0.5,0.2c0.3,0.3,0.6,0.6,1,0.8c0.5,0.4,1,0.9,1.6,0.9
			c-0.2,0.1-0.1,0.4-0.1,0.6c-0.4,0-0.8-0.2-1.2-0.5c-0.5-0.4-1-0.8-1.5-1.2c-0.1-0.1-0.1-0.1-0.2-0.2
			C-2306.5,4.6-2306.5,4.4-2306.6,4.3z"/>
		<path id="Fill-67" class="st70" d="M-2281.8-9.5c1.1-0.1,2.2-0.1,3.3-0.1c0.4,0,0.8,0.1,1.2,0.3c1.4,0.7,2.8,1.4,4.1,2.2
			c-0.1,0-0.1,0.1-0.2,0.1c-0.6-0.3-1.1-0.6-1.7-0.9c-0.4-0.2-0.8-0.5-1.2-0.7c-0.5-0.2-0.9-0.5-1.4-0.6c-0.8-0.3-1.6-0.2-2.4-0.1
			c-0.5,0-0.9,0-1.4,0C-2281.6-9.3-2281.7-9.4-2281.8-9.5"/>
		<path id="Fill-68" class="st71" d="M-2287.7-9.4c0.9,0,1.9,0,2.8,0c1.1,0,2.1,0,3.2,0c0.1,0.1,0.1,0.2,0.3,0.3c-0.2,0-0.4,0-0.7,0
			c-1.2,0-2.3,0-3.5,0c-0.4,0-0.8,0-1.2,0C-2287.2-9.2-2287.4-9.4-2287.7-9.4"/>
		<path id="Fill-69" class="st72" d="M-2292.2-9.4c0.6,0,1.1,0,1.7,0c0.9,0,1.8,0,2.8,0c0.3,0.1,0.6,0.2,0.9,0.3c-0.5,0-1,0-1.5,0
			c-1.3,0-2.6,0-3.8,0C-2292.2-9.3-2292.2-9.4-2292.2-9.4"/>
		<path id="Fill-70" class="st73" d="M-2301.3-9.2c0.8-0.1,1.6,0,2.5,0c0,0,0,0.1,0,0.2c0.4,0.5,1,0.9,1.5,1.3
			c0.3,0.2,0.7,0.3,1.1,0.5c0.3,0.2,0.6,0.1,0.9,0.2c-0.5,0-1.1,0-1.6,0c-0.8,0-1.6,0-2.4-0.1c-0.3-0.2-0.6-0.5-0.9-0.7
			C-2300.7-8.3-2301.1-8.7-2301.3-9.2"/>
		<path id="Fill-71" class="st74" d="M-2304.3-9c1-0.1,2-0.2,3-0.3c0.2,0.6,0.6,1,1,1.4c0.3,0.2,0.6,0.5,0.9,0.7
			c-1.5-0.1-3.1-0.1-4.6-0.2c0.2,0,0.5,0,0.7,0c-0.1-0.2-0.4-0.3-0.5-0.5c-0.1-0.2-0.2-0.4-0.4-0.6C-2304.2-8.6-2304.2-8.8-2304.3-9
			"/>
		<path id="Fill-72" class="st75" d="M-2298.8-9.2c1.7,0,3.4,0.1,5,0.1c0.1,0,0.3,0,0.4-0.1c0.4,0,0.8,0,1.2,0c1.3,0,2.6,0,3.8,0
			c0.5,0,1,0,1.5,0c0.4,0,0.8,0,1.2,0c-0.4,0.2-0.5,0.7-0.9,0.9c-0.2,0.1-0.4,0.3-0.7,0.5c-0.4,0.1-0.8,0.4-1.2,0.6
			c-0.8,0.2-1.7,0-2.5,0.1c-0.6,0.1-1.3,0-1.9,0c-0.8,0-1.6,0-2.4,0c-0.3-0.1-0.6-0.1-0.9-0.2c-0.4-0.2-0.8-0.3-1.1-0.5
			c-0.5-0.4-1.1-0.8-1.5-1.3C-2298.8-9.1-2298.8-9.2-2298.8-9.2"/>
		<path id="Fill-73" class="st76" d="M-2281.5-9.2c0.5,0,0.9,0,1.4,0c-0.1,0-0.1,0.1-0.2,0.1c0.1,0.3-0.2,0.5-0.4,0.8
			c-0.1,0.2-0.2,0.4-0.3,0.6c-0.8,0.1-1.6,0.1-2.4,0.2c0.3-0.2,0.5-0.5,0.7-0.9c0.2-0.3,0.5-0.5,0.4-0.8
			C-2281.9-9.2-2281.7-9.2-2281.5-9.2"/>
		<path id="Fill-74" class="st77" d="M-2285.6-9.2c1.2,0,2.3,0,3.5,0c0.1,0.3-0.2,0.6-0.4,0.8c-0.2,0.3-0.4,0.6-0.7,0.9
			c-1.3,0.1-2.6,0.2-3.9,0.2c-0.4,0-0.8,0-1.3,0.1c0.4-0.1,0.8-0.4,1.2-0.6c0.2-0.1,0.4-0.3,0.7-0.5
			C-2286.2-8.5-2286-8.9-2285.6-9.2"/>
		<path id="Fill-75" class="st78" d="M-2277.7-9.1c0.5,0.2,0.9,0.4,1.4,0.6c-0.1,0.5-0.5,0.8-0.7,1.3c-0.4-0.2-0.9-0.5-1.3-0.7
			C-2278-8.1-2277.8-8.6-2277.7-9.1"/>
		<path id="Fill-76" class="st79" d="M-2314.6-6.9c0.7-0.6,1.4-1.2,2.1-1.8c0.8,0.3,1.7,0.4,2.6,0.6c0.3,0.1,0.6,0.1,0.9,0.2
			c-0.6,0.6-1.1,1.4-1.6,2c-0.1-0.1-0.3-0.1-0.4-0.2c-0.5-0.1-1.1-0.3-1.6-0.4C-2313.4-6.5-2314-6.5-2314.6-6.9"/>
		<path id="Fill-77" class="st80" d="M-2276.3-8.4c0.4,0.2,0.8,0.5,1.2,0.7c0.6,0.3,1.1,0.6,1.7,0.9c0.1,0,0.1-0.1,0.2-0.1
			c0.9,0.5,1.7,1.1,2.6,1.7c0.6,0.5,1.1,1.1,1.4,1.8c0.1,0.1,0.1,0.3,0.1,0.4c-0.7,0.2-1.3,0.4-2,0.6c-0.2,0.1-0.3,0.1-0.5,0.2
			c-0.1-0.3-0.2-0.5-0.3-0.8c0.2-0.1,0.4-0.1,0.5-0.2c0.1-0.1-0.1-0.2-0.1-0.3c-0.8-0.9-1.8-1.4-2.8-2c-0.9-0.5-1.8-1-2.7-1.5
			C-2276.8-7.6-2276.4-8-2276.3-8.4"/>
		<path id="Fill-78" class="st81" d="M-2309.7-6.7c0.5-0.6,1-1.2,1.7-1.6c0.1,0.2,0.2,0.4,0.3,0.5c0.1,0.1,0.2,0.2,0.2,0.4
			c-0.6,0.1-1,0.5-1.3,1c-1,1.2-1.9,2.5-2.8,3.7c-0.3,0.4-0.6,0.8-0.8,1.2c-0.1,0.2-0.2,0.3-0.1,0.5c-0.4-0.2-0.7-0.5-1-0.8
			c0,0,0,0,0,0c0.2,0,0.3-0.2,0.4-0.4C-2312-3.7-2310.8-5.2-2309.7-6.7"/>
		<path id="Fill-79" class="st82" d="M-2280.9-7.7c0.5-0.1,1-0.1,1.6-0.2c0.3,0,0.7,0,1,0.1c0.5,0.2,0.9,0.4,1.3,0.7
			c0.9,0.5,1.8,1,2.7,1.5c1,0.6,2.1,1.1,2.8,2c0.1,0.1,0.2,0.2,0.1,0.3c-0.2,0.1-0.4,0.1-0.5,0.2c-0.2,0.1-0.4,0.1-0.6,0.2
			c-0.2,0.1-0.4,0.2-0.7,0.3c-0.5,0.2-1,0.7-1.6,0.7c-0.4,0.1-0.7,0.1-1.1,0.1c-0.5,0.1-1.1,0.1-1.6,0.2c-0.7,0-1.4,0.1-2.1,0.1
			c-0.6,0.2-1.3,0.1-1.9,0.2c-0.5,0-1.1,0.1-1.6,0.1c-0.5,0-1.1,0.2-1.6,0.1c-1,0.3-2,0.1-3,0.4c-0.2,0-0.5-0.1-0.7,0.1
			c-1.5,0.1-3,0.1-4.4,0.3c-1.1,0.1-2.3,0.3-3.4,0.4c-0.3-0.1-0.7,0.1-1,0c-0.8,0.1-1.7,0.2-2.5,0.2c-0.2,0-0.5,0.1-0.7,0.1
			c-0.5,0-1,0.1-1.5,0.1c-0.7,0-1.4,0.1-2.1,0.2c-1.3,0.1-2.6,0.3-3.9,0.3c-1,0.2-2,0.2-3,0.3c-0.8,0-1.6,0.1-2.4,0.2
			c-0.3,0-0.6,0.1-1,0.1c-1.4,0.1-2.8,0.3-4.3,0.4c-1.1,0.2-2.2,0.2-3.3,0.3c0,0-0.1-0.1-0.1-0.1c0,0,0-0.1,0-0.1
			c0.2-0.5,0.3-1,0.6-1.4c0.1-0.1,0.3-0.2,0.5-0.2c0.3-0.1,0.6-0.1,0.9-0.1c2.1-0.3,4.2-0.6,6.3-0.8c0.4,0,0.7-0.1,1.1-0.1
			c0,0,0-0.1,0-0.1c0-0.1-0.1-0.2-0.1-0.2c-0.1-0.2,0.1-0.4,0.1-0.5c0.3-0.4,0.5-0.8,0.8-1.2c0.9-1.2,1.8-2.5,2.8-3.7
			c0.3-0.4,0.8-0.8,1.3-1c1.2-0.3,2.4,0,3.6,0c1.5,0.1,3.1,0.1,4.6,0.2c0.8,0.1,1.6,0.1,2.4,0.1c0.5,0,1.1,0,1.6,0
			c0.8,0,1.6,0,2.4,0c0.6,0,1.3,0,1.9,0c0.8-0.1,1.7,0,2.5-0.1c0.4,0,0.8,0,1.3-0.1c1.3-0.1,2.6-0.1,3.9-0.2
			C-2282.5-7.6-2281.7-7.6-2280.9-7.7z M-2293.8,23.8c0.1-0.1,0.3-0.1,0.5-0.1c-0.2,0.2-0.5,0.3-0.7,0.6c0,0-0.1,0-0.1,0
			c-0.1,0-0.3,0-0.4,0C-2294.3,24.1-2294,24-2293.8,23.8z"/>
		<path id="Fill-80" class="st83" d="M-2316.4-4.1c-0.2-0.2-0.2-0.5-0.1-0.7c1.1,0.2,2.3,0.5,3.4,0.8c0.3,0,0.5,0.2,0.8,0.1
			c0,0,0.1,0.1,0.1,0.1c-0.5,0.7-1,1.4-1.5,2c0,0,0,0,0,0c-0.4-0.3-0.8-0.6-1.2-1C-2315.3-3.2-2315.9-3.6-2316.4-4.1"/>
		<path id="Fill-81" class="st84" d="M-2272.4-3c0.2-0.1,0.4-0.1,0.6-0.2c0.1,0.3,0.2,0.5,0.3,0.8c-0.1,0-0.2,0.1-0.4,0.1
			c0,0.1,0,0.3,0,0.4c0-0.1,0-0.3-0.2-0.3C-2272.3-2.5-2272.4-2.7-2272.4-3"/>
		<path id="Fill-82" class="st85" d="M-2273.1-2.7c0.2-0.1,0.4-0.2,0.7-0.3c0.1,0.3,0.2,0.5,0.3,0.8c-0.2,0.2-0.5,0.3-0.7,0.4
			C-2273-2.1-2273-2.4-2273.1-2.7"/>
		<path id="Fill-83" class="st86" d="M-2274.7-2c0.6,0,1-0.4,1.6-0.7c0.1,0.3,0.2,0.6,0.3,0.9c-0.5,0.2-0.9,0.5-1.3,0.9
			c0-0.2,0-0.3-0.1-0.5c-0.2-0.1-0.2-0.2-0.2-0.4c-0.4,0.2-0.7,0.5-1,0.9c-0.1,0.1,0,0.2,0,0.3c0.1,0.2,0.1,0.4,0.2,0.6
			c-0.1,0.1-0.2,0.3-0.3,0.4c-0.2-0.3-0.2-0.6-0.3-0.9c-0.2,0.1-0.4,0.1-0.7,0c-0.5,0-1.1,0.1-1.6,0.2c-0.5,0.1-1,0-1.4,0.1
			c-0.3,0.1-0.6,0.1-0.8,0.1c-0.3,0-0.6,0.1-0.9,0.1c-0.4,0.1-0.8,0-1.1,0.1c-0.3,0.1-0.7,0.1-1,0.1c-0.4,0-0.8,0-1.2,0.1
			c-0.6,0.1-1.2,0.1-1.8,0.2c-0.1-0.5-0.5-0.9-0.8-1.2c-0.3,0-0.7,0-1.1,0c0.2-0.2,0.4-0.1,0.7-0.1c1-0.3,2-0.1,3-0.4
			c0.5,0.1,1.1-0.1,1.6-0.1c0.5,0,1.1-0.2,1.6-0.1c0.6-0.1,1.3-0.1,1.9-0.2c0.7,0,1.4-0.1,2.1-0.1c0.5-0.1,1.1-0.1,1.6-0.2
			C-2275.4-1.9-2275-1.9-2274.7-2"/>
		<path id="Fill-84" class="st87" d="M-2272.1-2.2c0.1,0.1,0.1,0.2,0.2,0.3c0.1,1.5,0.4,3,1.1,4.3c0.3,0.5,0.6,0.9,1,1.3
			c0.3,0.4,0.7,0.6,1.1,0.9c0.3,0.2,0.5,0.4,0.8,0.5c0.4,0.3,1,0.3,1.4,0.6c0.1,0.6,0.1,1.2,0.2,1.8c0.1,0.8,0.3,1.5,0.5,2.2
			c0.2,0.7,0.4,1.3,0.7,2c0.3,0.8,0.7,1.5,1.1,2.2c0.8,1.3,1.9,2.4,3,3.4c0.1,0.1,0.1,0.3,0.2,0.5c0.2,0,0.3,0,0.5-0.1
			c0,0,0,0.1-0.1,0.2c-0.2,0-0.3,0.1-0.5,0.1c-0.2,0.3-0.3,0.6-0.2,0.9c0.1,0.3,0.5,0.3,0.8,0.4c0,0,0.1-0.1,0.2-0.2l0,0
			c0.4,0.1,0.9,0.2,1.3,0.3l0,0c0,0.1-0.1,0.3-0.1,0.4c0.1,0.4,0.3,0.8,0.4,1.2c0.3,0.7,0.5,1.5,0.8,2.2c0.1,0.1,0.1,0.3,0.1,0.4
			c-0.1,0-0.1,0-0.2,0c-0.2,0-0.5,0-0.7,0c-0.1,0-0.2,0-0.4-0.1c0,0.2,0,0.4,0,0.6c-0.1-0.1-0.3-0.2-0.4-0.4
			c0.1-0.1,0.3-0.3,0.2-0.5c-0.2-0.2-0.4-0.3-0.6-0.5c-0.3-0.2-0.5-0.5-0.8-0.6c-0.1,0.1-0.2,0.2-0.4,0.2c-0.5-0.5-1-0.9-1.4-1.5
			c0.2-0.1,0.4-0.1,0.5-0.3c-0.2-0.3-0.4-0.6-0.6-0.9c-0.2-0.3-0.4-0.6-0.6-1c-0.3-0.4-0.5-0.9-0.7-1.4c-1-1.9-1.9-3.8-2.9-5.6
			c-0.1-0.2-0.2-0.4-0.4-0.6c-0.1-0.1-0.2-0.3-0.3-0.4c-0.2-0.3-0.3-0.5-0.5-0.8c-0.2,0.1-0.4,0.3-0.5,0.4c-0.1-0.2-0.3-0.3-0.4-0.5
			c0.2-0.2,0.3-0.3,0.5-0.5c-0.1-0.2-0.2-0.3-0.3-0.4c-1.8-2.1-4.2-3.7-6.7-4.9c-0.6-0.3-1.2-0.6-1.7-0.8c0.1-0.3,0.2-0.6,0.2-1
			c-0.1-0.4-0.2-0.7-0.4-1c0-0.1,0-0.1,0.1-0.2c0-0.1,0.1-0.2,0.1-0.2c0.2,0.3,0.3,0.6,0.4,0.9c0.2-0.3,0.3-0.6,0.4-0.9
			c0.1-0.3,0.3-0.5,0.5-0.8c0.1-0.1,0.2-0.3,0.3-0.4c0.3-0.4,0.7-0.7,1-1c0.4-0.3,0.8-0.6,1.3-0.9C-2272.6-2-2272.4-2.1-2272.1-2.2"
			/>
		<path id="Fill-85" class="st88" d="M-2275.4-0.9c0.2-0.4,0.6-0.7,1-0.9c0,0.2,0,0.3,0.2,0.4c0,0.2,0.1,0.3,0.1,0.5
			c-0.4,0.3-0.7,0.6-1,1c-0.1-0.2-0.2-0.4-0.2-0.6C-2275.4-0.7-2275.5-0.8-2275.4-0.9"/>
		<path id="Fill-86" class="st89" d="M-2292.7-0.4c1.5-0.2,3-0.2,4.4-0.3c0.4,0,0.7,0,1.1,0c-0.1,0.3-0.1,0.6-0.1,1
			c0,0.8,0,1.7,0.3,2.5c-1.3,0-2.7,0.1-4,0.3c-1.3,0.1-2.7,0.3-4,0.6c-1.4,0.3-2.9,0.6-4.2,1.1c-1.2,0.4-2.3,0.8-3.5,1.2
			c-0.3,0.1-0.5,0.2-0.8,0.2c-0.7,0-1.1-0.5-1.6-0.9c-0.3-0.2-0.6-0.5-1-0.8c0.7-0.3,1.4-0.5,2.1-0.8c0.8-0.3,1.6-0.5,2.3-0.8
			c0.6-0.2,1.1-0.4,1.7-0.6c0.5-0.1,0.9-0.4,1.4-0.5c1.4-0.5,2.9-1,4.3-1.5c0.3-0.1,0.6-0.2,0.9-0.3c0.3-0.1,0.6-0.1,0.8-0.3
			C-2292.6-0.4-2292.7-0.4-2292.7-0.4"/>
		<path id="Fill-87" class="st90" d="M-2287.4,0.3c0-0.3,0-0.7,0.1-1c0.3,0.4,0.7,0.7,0.8,1.2c0.1,0.5,0.1,1.1,0.2,1.6
			c0.2,0.7,0.7,1.3,1.2,1.8c0.6,0.6,1.2,1.2,1.8,1.8c0.2,0.2,0.4,0.5,0.5,0.8c0.1,0.2,0,0.4,0,0.7c-0.1,0.6-0.4,1.1-0.8,1.5
			c-0.2,0-0.4-0.1-0.6-0.2c0.3-0.4,0.6-0.8,0.7-1.3c0.1-0.4-0.2-0.7-0.4-1c-0.7-0.7-1.5-1.3-2.2-2.1c-0.3-0.3-0.6-0.6-0.8-0.9
			c-0.1-0.2-0.2-0.4-0.3-0.6C-2287.4,2-2287.4,1.1-2287.4,0.3z M-2276.7,3.5c0.6,0.2,1.2,0.5,1.7,0.8c2.5,1.3,4.8,2.8,6.7,4.9
			c-0.2,0.2-0.4,0.3-0.5,0.5c-0.8-0.9-1.8-1.7-2.7-2.4c-1.2-0.9-2.4-1.6-3.8-2.2c-0.5-0.2-0.9-0.4-1.4-0.6c0,0-0.1,0.1-0.1,0.1
			C-2276.8,4.2-2276.8,3.9-2276.7,3.5z"/>
		<path id="Fill-88" class="st91" d="M-2278.1-0.3c0.5-0.1,1.1-0.1,1.6-0.2c0.2,0,0.4,0,0.7,0c0.1,0.3,0.1,0.6,0.3,0.9
			c-0.2,0.2-0.3,0.5-0.5,0.8c-0.1-0.2-0.2-0.5-0.4-0.7c-0.2,0.2-0.3,0.5-0.4,0.7c0,0.1-0.1,0.2-0.1,0.2c-0.4,0.1-0.8,0-1.2,0.1
			c-0.6,0.1-1.3,0-1.9,0.2c-0.3-0.1-0.6,0-0.8,0.1c-1.1,0-2.2,0.2-3.3,0.3c-0.2,0-0.5,0-0.7,0.1c-0.3,0.1-0.5-0.1-0.8,0
			c-0.2,0.1-0.5,0.1-0.7,0c-0.2-0.5-0.1-1.1-0.2-1.6c0.6-0.1,1.2-0.2,1.8-0.2c0.4-0.1,0.8-0.1,1.2-0.1c0.3,0,0.7,0.1,1-0.1
			c0.4-0.1,0.8-0.1,1.1-0.1c0.3,0,0.6-0.2,0.9-0.1c0.3,0,0.6,0,0.8-0.1C-2279-0.3-2278.5-0.2-2278.1-0.3"/>
		<path id="Fill-89" class="st92" d="M-2296.2,0c1.1-0.2,2.3-0.3,3.4-0.4c0.1,0,0.2,0.1,0.2,0.1c-0.3,0.1-0.6,0.1-0.8,0.3
			c-0.3,0.1-0.6,0.2-0.9,0.3c-1.4,0.5-2.9,1-4.3,1.5c-0.5,0.1-0.9,0.4-1.4,0.5c-0.6,0.2-1.1,0.4-1.7,0.6c-0.8,0.3-1.6,0.5-2.3,0.8
			c-0.7,0.3-1.4,0.5-2.1,0.8c-0.2-0.1-0.3-0.1-0.5-0.2c-0.1,0-0.3,0-0.4,0c0.4-0.4,0.9-0.7,1.4-1c0.1,0,0.2,0,0.3,0
			c1.5-0.5,3-1,4.4-1.6c0.5-0.2,1.1-0.3,1.6-0.6c0.9-0.3,1.8-0.6,2.7-1l-0.1,0C-2296.5,0.1-2296.3,0-2296.2,0"/>
		<path id="Fill-90" class="st93" d="M-2297.1,0.1c0.3,0,0.7-0.1,1,0c-0.2,0-0.3,0.1-0.5,0.1c-2.2,0.4-4.4,0.9-6.5,1.8
			c-0.3-0.1-0.6-0.1-0.9,0c-0.5,0-1.1,0-1.6,0.1c-0.4,0-0.8,0.2-1.2,0.1c-0.8,0-1.5,0.1-2.3,0.2c-0.8,0-1.6,0.2-2.4,0.2
			c-0.3,0.1-0.7,0-1,0.3c-0.3-0.1-0.6-0.1-0.9-0.1c-1.2-0.2-2.3-0.3-3.5-0.3c-0.5,0-1,0-1.5,0.1c-0.2,0.1-0.2,0.4-0.1,0.5
			c0,0.1-0.1,0.2-0.1,0.3c-0.3-0.2-0.7-0.1-1,0c-0.3,0.1-0.7,0-1.1,0.1c-0.1,0-0.3,0-0.4,0c-0.1-0.1-0.2-0.1-0.4-0.2
			c-0.1-0.1-0.2-0.2-0.3-0.3c-0.2-0.2-0.3-0.5-0.1-0.8c0,0,0.1,0.1,0.1,0.1c1.1-0.2,2.2-0.2,3.3-0.3c1.4-0.1,2.8-0.3,4.3-0.4
			c0.3,0,0.6-0.1,1-0.1c0.8,0,1.6-0.2,2.4-0.2c1-0.1,2-0.2,3-0.3c1.3-0.1,2.6-0.2,3.9-0.3c0.7,0,1.4-0.2,2.1-0.2
			c0.5,0,1-0.2,1.5-0.1c0.2,0,0.5-0.1,0.7-0.1C-2298.8,0.3-2298,0.2-2297.1,0.1"/>
		<path id="Fill-91" class="st94" d="M-2321.3,0.1c0.3-0.1,0.5-0.1,0.8-0.1c-0.1,0.2-0.2,0.4-0.4,0.5c-0.2,0.1-0.3,0.1-0.5,0.2
			C-2321.3,0.5-2321.3,0.3-2321.3,0.1"/>
		<path id="Fill-92" class="st95" d="M-2322,1c0.1-0.3,0.2-0.8,0.6-0.9c0,0.2,0,0.4,0,0.6c-0.3,0.4-0.4,0.9-0.6,1.4
			C-2321.9,1.7-2321.9,1.4-2322,1"/>
		<path id="Fill-93" class="st96" d="M-2303.2,2c2.1-0.9,4.3-1.4,6.5-1.8l0.1,0c-0.9,0.4-1.8,0.7-2.7,1c-0.5,0.2-1.1,0.4-1.6,0.6
			c-1.5,0.5-3,1-4.4,1.6c-0.1,0-0.2,0-0.3,0C-2304.9,2.8-2304,2.4-2303.2,2"/>
		<path id="Fill-94" class="st97" d="M-2276.8,1.2c0.1-0.3,0.2-0.5,0.4-0.7c0.1,0.2,0.3,0.5,0.4,0.7c-0.1,0.3-0.3,0.6-0.4,0.9
			C-2276.5,1.8-2276.6,1.5-2276.8,1.2"/>
		<path id="Fill-95" class="st98" d="M-2322.4,2.2c0.1-0.4,0.3-0.8,0.4-1.3c0,0.4,0,0.8,0.1,1.1c0,0,0,0.1,0,0.1
			c-0.1,0.3-0.1,0.6,0.1,0.8c0.1,0.3,0.2,0.6,0.2,1c-0.3-0.3-0.5-0.6-0.8-1C-2322.6,2.8-2322.5,2.5-2322.4,2.2"/>
		<path id="Fill-96" class="st99" d="M-2278,1.5c0.4-0.1,0.8,0,1.2-0.1c0,0.1,0,0.1-0.1,0.2c-0.2,0.5-0.3,1.1-0.4,1.7
			c-0.4,0.1-0.7,0.1-1.1,0.1c-0.2,0-0.4,0.2-0.7,0.1c-0.4-0.1-0.8-0.1-1.1,0c-0.3,0.1-0.5,0-0.8,0c-0.3,0-0.5,0.1-0.7,0.2
			c0,0,0.1-0.1,0.1-0.2c-0.3,0-0.5,0.2-0.8,0.2c-0.5-0.1-1.1,0.1-1.6,0.1c-0.3,0-0.6,0.1-1,0.1c-0.5-0.5-1-1.1-1.2-1.8
			c0.2,0,0.5,0.1,0.7,0c0.3-0.1,0.5,0,0.8,0c0.2-0.1,0.4-0.1,0.7-0.1c1.1,0,2.2-0.2,3.3-0.3c0.3-0.1,0.6-0.1,0.8-0.1
			C-2279.3,1.4-2278.6,1.6-2278,1.5"/>
		<path id="Fill-97" class="st100" d="M-2276.9,1.6c0.2,0.3,0.4,0.6,0.4,1c0,0.3-0.1,0.6-0.2,1c-0.1,0.3-0.1,0.7-0.1,1.1
			c-0.1,1.1,0.1,2.2,0.3,3.3c-0.2-0.1-0.4-0.2-0.5-0.4c-0.1-0.4-0.2-0.9-0.2-1.4c0-0.3-0.1-0.6-0.1-0.9c0-0.7,0-1.3,0.1-2
			C-2277.2,2.7-2277.1,2.1-2276.9,1.6"/>
		<path id="Fill-98" class="st101" d="M-2304,2c0.3-0.1,0.6-0.2,0.9,0c-0.8,0.4-1.7,0.8-2.5,1.3c-0.5,0.3-1,0.6-1.4,1
			c-0.3,0.2-0.7,0.1-1,0c-0.6-0.2-1.2-0.5-1.9-0.7c-0.9-0.3-1.8-0.5-2.6-0.7c0.2-0.3,0.6-0.2,1-0.3c0.8,0,1.6-0.2,2.4-0.2
			c0.8-0.1,1.5-0.2,2.3-0.2c0.4,0,0.8-0.1,1.2-0.1C-2305.1,2-2304.6,2-2304,2"/>
		<path id="Fill-99" class="st102" d="M-2270.8,2.4c0.2-0.2,0.4-0.4,0.7-0.4c0.2,0.5,0.5,0.9,0.9,1.3c-0.1,0.3-0.3,0.4-0.6,0.4
			C-2270.2,3.3-2270.6,2.9-2270.8,2.4"/>
		<path id="Fill-100" class="st103" d="M-2318.5,2.6c0.5-0.2,1-0.1,1.5-0.1c1.2,0,2.4,0.1,3.5,0.3c0,0.2,0,0.3,0,0.5
			c-1.5-0.2-3-0.3-4.6-0.3c-0.2,0-0.3,0.1-0.5,0.2l0,0C-2318.6,3-2318.7,2.7-2318.5,2.6"/>
		<path id="Fill-101" class="st104" d="M-2313.5,2.8c0.3,0,0.6,0.1,0.9,0.1c0.9,0.2,1.8,0.4,2.6,0.7c0,0.1-0.1,0.3-0.1,0.4
			c-0.1,0-0.1-0.1-0.2-0.1c0,0.1,0,0.2,0,0.2c0,0-0.1-0.1-0.2-0.1c-0.1,0-0.2-0.1-0.3-0.1c-0.1,0-0.2-0.1-0.3-0.1
			c-0.2,0-0.3-0.1-0.5-0.1c-0.7-0.2-1.4-0.3-2-0.4C-2313.5,3.1-2313.5,2.9-2313.5,2.8"/>
		<path id="Fill-102" class="st105" d="M-2291.1,3.1c1.3-0.1,2.7-0.2,4-0.3c0.1,0.2,0.2,0.4,0.3,0.6c-1.4,0-2.8,0.1-4.1,0.2
			c0,0-0.1-0.1-0.1-0.2c0,0-0.1,0.1-0.1,0.1C-2291.1,3.4-2291.1,3.2-2291.1,3.1"/>
		<path id="Fill-103" class="st106" d="M-2318.6,3.2c0.1-0.1,0.3-0.2,0.5-0.2c0.1,0.1,0.1,0.3,0.2,0.4c-0.1,0.1-0.3,0.2-0.4,0.3
			C-2318.4,3.5-2318.5,3.3-2318.6,3.2"/>
		<path id="Fill-104" class="st107" d="M-2321.8,3.1c0.1,0.1,0.2,0.2,0.3,0.3c0.2,0.3,0.4,0.5,0.7,0.8c0.5,0.6,1,1.1,1.4,1.6
			c0.5,0.6,1.1,1.1,1.7,1.7c-0.3,0-0.6-0.2-0.9-0.3c-1-1-2-2.1-2.9-3.2C-2321.5,3.7-2321.7,3.4-2321.8,3.1"/>
		<path id="Fill-105" class="st108" d="M-2318.6,3.1L-2318.6,3.1c0.1,0.2,0.2,0.4,0.3,0.5c0,0,0,0.1,0.1,0.1
			c-0.1,0.1-0.2,0.2-0.3,0.2c-0.4,0.1-0.9,0.1-1.3,0.1c-0.3,0.1-0.7,0-1,0.1c-0.2-0.3-0.4-0.5-0.7-0.8c0.1,0.1,0.2,0.1,0.4,0.2
			c0.1,0,0.3,0,0.4,0c0.3-0.1,0.7-0.1,1.1-0.1c0.3-0.1,0.7-0.2,1,0C-2318.6,3.3-2318.6,3.2-2318.6,3.1"/>
		<path id="Fill-106" class="st109" d="M-2278.4,3.4c0.4,0,0.7-0.1,1.1-0.1c-0.1,0.7-0.1,1.3-0.1,2c-1.5,0.2-3.1,0.2-4.6,0.4
			c-0.4,0.1-0.8,0-1.2,0.1c-0.6-0.6-1.2-1.1-1.8-1.8c0.3,0,0.6-0.1,1-0.1c0.5,0,1.1-0.2,1.6-0.1c0.3,0.1,0.5-0.2,0.8-0.2
			c0,0-0.1,0.1-0.1,0.2c0.2,0,0.5-0.1,0.7-0.2c0.3,0,0.5,0.1,0.8,0c0.4-0.1,0.7-0.1,1.1,0C-2278.9,3.6-2278.7,3.4-2278.4,3.4"/>
		<path id="Fill-107" class="st110" d="M-2269.9,3.7c0.2-0.1,0.5-0.2,0.6-0.4c0.3,0.4,0.7,0.7,1.1,0.9c-0.1,0.3-0.4,0.3-0.6,0.4
			C-2269.1,4.3-2269.5,4.1-2269.9,3.7"/>
		<path id="Fill-108" class="st111" d="M-2318.3,3.7c0.1-0.1,0.3-0.2,0.4-0.3c0.1,0.2,0.2,0.4,0.3,0.6c-0.1,0.1-0.2,0.2-0.4,0.2
			c-0.1-0.1-0.2-0.3-0.3-0.4C-2318.3,3.8-2318.3,3.7-2318.3,3.7"/>
		<path id="Fill-109" class="st112" d="M-2310,4c0-0.1,0.1-0.3,0.1-0.4c0.6,0.2,1.2,0.5,1.9,0.7c0.3,0.1,0.7,0.2,1,0
			c0.1,0,0.3,0,0.4,0c0.1,0.2,0.1,0.3,0.1,0.5c0.1,0.1,0.1,0.1,0.2,0.2c-1.6,1.8-3.3,3.4-5,5.1c0.1,0.2,0,0.7,0.4,0.8
			c1,0,1.9-0.1,2.9-0.2c0.4,0,0.6,0.3,0.8,0.6c0.5,0.7,1.1,1.3,1.6,2c-0.4-0.1-0.8-0.3-1.1-0.6c-0.4-0.5-0.8-1-1.2-1.5
			c-0.1-0.1-0.2-0.2-0.4-0.1c-0.9,0-1.8,0.1-2.7,0.1c-0.4,0-0.5-0.3-0.6-0.6c-0.1-0.4,0-1-0.4-1.3c0,0,0-0.1,0-0.1
			c0.1-0.1,0.2-0.1,0.4-0.2c0.1,0,0.1,0.1,0.2,0.1c0,0.2,0,0.4,0,0.5c0.4-0.4,0.8-0.8,1.2-1.3c0.5-0.5,1-1,1.5-1.5
			c0.5-0.6,1-1,1.4-1.6c-0.1,0-0.2,0-0.4-0.1c-0.6-0.3-1.2-0.6-1.9-0.9c-0.1-0.1-0.3-0.1-0.4-0.2c0,0-0.1-0.1-0.2-0.1
			c0-0.1,0-0.2,0-0.2C-2310.1,3.9-2310.1,3.9-2310,4"/>
		<path id="Fill-110" class="st113" d="M-2311.5,3.7c0.2,0,0.3,0.1,0.5,0.1c-0.2,0.2-0.4,0.5-0.6,0.8c-0.8,1.3-1.7,2.5-2.5,3.7
			c-0.1-0.1-0.2-0.1-0.3-0.2l0.1,0C-2313.3,6.7-2312.4,5.2-2311.5,3.7"/>
		<path id="Fill-111" class="st114" d="M-2299.3,4.7c1.4-0.4,2.8-0.8,4.2-1.1c0.1,0.1,0.3,0.3,0.4,0.5l0,0c-2.4,0.4-4.8,1-7,1.9
			c-0.7,0.2-1.3,0.5-2,0.7c-0.1-0.2-0.1-0.4,0.1-0.6c0.3,0,0.5-0.1,0.8-0.2C-2301.6,5.5-2300.4,5.1-2299.3,4.7"/>
		<path id="Fill-112" class="st115" d="M-2311.5,4.6c0.2-0.3,0.3-0.5,0.6-0.8c0.1,0,0.2,0.1,0.3,0.1c0,0-0.1,0-0.1,0
			c-0.4,0.6-0.8,1.3-1.3,1.9c-0.4,0.5-0.7,1-1,1.5c-0.2,0.4-0.5,0.7-0.7,1.1c0,0-0.1,0.1-0.1,0.1c-0.1,0-0.1-0.1-0.2-0.1
			C-2313.2,7.1-2312.4,5.8-2311.5,4.6"/>
		<path id="Fill-113" class="st116" d="M-2310.8,3.9c0,0,0.1,0,0.1,0c0.1,0,0.2,0.1,0.3,0.1c-0.2,0.3-0.4,0.6-0.6,0.8
			c-0.4,0.4-0.8,0.8-1.1,1.3c0-0.1,0-0.2,0-0.3C-2311.6,5.2-2311.3,4.5-2310.8,3.9"/>
		<path id="Fill-114" class="st117" d="M-2311,4.8c0.3-0.2,0.4-0.6,0.6-0.8c0,0,0.1,0.1,0.2,0.1s0.1,0.1,0.2,0.1
			c-0.4,0.2-0.5,0.6-0.8,0.8c-0.4,0.3-0.6,0.8-1,1.1c-0.2,0.2-0.5,0.5-0.7,0.7c-0.3,0.3-0.6,0.7-0.8,1c-0.1,0.2-0.3,0.4-0.5,0.7
			c0,0-0.1-0.1-0.1-0.1c0.2-0.4,0.5-0.7,0.7-1.1c0.3-0.5,0.6-1,1-1.5c0,0.1,0,0.2,0,0.3C-2311.8,5.7-2311.4,5.2-2311,4.8"/>
		<path id="Fill-115" class="st118" d="M-2310,4.2c0.1,0.1,0.3,0.1,0.4,0.2c-0.2,0.2-0.3,0.4-0.4,0.6c-0.3,0.3-0.5,0.6-0.8,0.8
			c-0.2,0.2-0.3,0.5-0.6,0.7c-0.3,0.2-0.5,0.5-0.7,0.7c-0.2,0.2-0.3,0.5-0.5,0.6c-0.3,0.3-0.5,0.6-0.8,0.9c-0.1-0.1-0.2-0.1-0.3-0.2
			c0.2-0.2,0.3-0.4,0.5-0.7c0.2-0.4,0.6-0.7,0.8-1c0.2-0.3,0.4-0.5,0.7-0.7c0.4-0.3,0.6-0.8,1-1.1C-2310.5,4.7-2310.3,4.3-2310,4.2"
			/>
		<path id="Fill-116" class="st119" d="M-2268.2,4.2c0.3,0.2,0.5,0.4,0.8,0.5c-0.2,0.1-0.4,0.3-0.6,0.4c-0.3-0.2-0.6-0.3-0.8-0.5
			C-2268.5,4.5-2268.3,4.5-2268.2,4.2"/>
		<path id="Fill-117" class="st120" d="M-2309.5,4.3c0.6,0.3,1.3,0.6,1.9,0.9c-1.2,1.3-2.5,2.7-3.8,4c-0.1,0-0.1-0.1-0.2-0.1
			c-0.1,0.1-0.2,0.1-0.4,0.2c-0.3,0.2-0.6,0.2-0.9,0c0.2,0,0.4-0.1,0.6-0.2c-0.4-0.1-0.7-0.2-1.1-0.3c0.3-0.3,0.5-0.6,0.8-0.9
			c0.2-0.2,0.3-0.5,0.5-0.6c0.2-0.2,0.5-0.5,0.7-0.7c0.2-0.2,0.3-0.5,0.6-0.7c0.3-0.2,0.5-0.6,0.8-0.8
			C-2309.8,4.7-2309.7,4.5-2309.5,4.3"/>
		<path id="Fill-118" class="st121" d="M-2267.3,4.7c0.4,0.2,0.9,0.4,1.3,0.5c0,0,0,0.1,0,0.2c-0.2,0.1-0.4,0.2-0.6,0.4
			c-0.4-0.3-0.9-0.4-1.4-0.6C-2267.7,5-2267.5,4.9-2267.3,4.7"/>
		<path id="Fill-119" class="st122" d="M-2317.4,5.2c0.1-0.1,0.2-0.2,0.3-0.3c0.7,1.2,1.6,2.3,2.7,3.2c0.1,0.1,0.2,0.1,0.3,0.2
			c0.1,0,0.1,0.1,0.2,0.1c0,0,0.1-0.1,0.1-0.1c0,0,0.1,0.1,0.1,0.1c0.1,0.1,0.2,0.1,0.3,0.2c0.4,0.2,0.7,0.2,1.1,0.3
			c-0.2,0.1-0.3,0.2-0.6,0.2c-0.1,0-0.3-0.1-0.4-0.1c-0.8-0.3-1.6-0.8-2.3-1.5c-0.6-0.6-1.2-1.3-1.7-2.1
			C-2317.3,5.5-2317.3,5.4-2317.4,5.2"/>
		<path id="Fill-120" class="st123" d="M-2307.6,5.2c0.1,0,0.2,0,0.4,0.1c-0.4,0.6-1,1.1-1.4,1.6c-0.5,0.5-1,1-1.5,1.5
			c-0.3,0.5-0.8,0.8-1.2,1.3c0-0.2-0.1-0.4,0-0.5C-2310.1,7.9-2308.9,6.5-2307.6,5.2"/>
		<path id="Fill-121" class="st124" d="M-2282,5.6c1.5-0.2,3.1-0.3,4.6-0.4c0,0.3,0,0.6,0.1,0.9c0,0.2-0.1,0.4-0.1,0.5
			c0,0,0.1,0.1,0.1,0.2c-1.7,0.2-3.4,0.3-5,0.5c0-0.1,0-0.2-0.1-0.3c-0.1,0.1-0.1,0.2-0.2,0.2c0-0.2,0-0.5,0-0.7
			c-0.1-0.3-0.3-0.6-0.5-0.8C-2282.8,5.7-2282.4,5.7-2282,5.6"/>
		<path id="Fill-122" class="st125" d="M-2266.6,5.8c0.2-0.2,0.4-0.3,0.6-0.4c0,0.6,0.1,1.2,0.2,1.8c-0.2,0.1-0.4,0.2-0.6,0.4
			C-2266.5,7-2266.5,6.4-2266.6,5.8"/>
		<path id="Fill-123" class="st126" d="M-2318.8,5.8c0.5-0.1,1.1-0.1,1.6-0.2c0.5,0.8,1,1.4,1.7,2.1c-0.6,0.2-1.2,0.1-1.9,0.2
			c-0.1-0.1-0.2-0.2-0.3-0.3c-0.5-0.6-1.1-1.1-1.7-1.7C-2319.2,5.8-2319,5.8-2318.8,5.8"/>
		<path id="Fill-124" class="st127" d="M-2277.3,6.1c0.1,0.5,0.1,0.9,0.2,1.4c0.1,0.2,0.3,0.3,0.5,0.4c0,0.1,0,0.2,0,0.3
			c-0.2-0.1-0.4-0.3-0.6-0.5c-0.1,0-0.2,0.1-0.2,0.1c-0.5,0.3-1.1,0.6-1.7,0.8c-0.6-0.2-1.3,0.1-1.9,0.1c-0.6,0-1.2,0.2-1.8,0.2
			c-0.3,0-0.6,0.1-0.9,0c0,0,0.1-0.1,0.1-0.2c0.3-0.5,0.6-1,0.8-1.5c0.1-0.1,0.1-0.2,0.2-0.2c0,0.1,0,0.2,0.1,0.3
			c1.7-0.2,3.4-0.3,5-0.5c0,0-0.1-0.1-0.1-0.2C-2277.4,6.5-2277.3,6.3-2277.3,6.1"/>
		<path id="Fill-125" class="st128" d="M-2318.6,7.2c0.3,0.1,0.6,0.2,0.9,0.3c0.1,0.1,0.2,0.2,0.3,0.3c0.2,0.2,0.4,0.4,0.6,0.6
			c-0.2,0-0.5-0.1-0.7-0.1C-2317.9,8-2318.3,7.6-2318.6,7.2"/>
		<path id="Fill-126" class="st129" d="M-2266.3,7.6c0.2-0.2,0.4-0.3,0.6-0.4c0.1,0.8,0.3,1.6,0.5,2.3c-0.2,0.2-0.4,0.2-0.6,0.3
			C-2266.1,9.1-2266.3,8.3-2266.3,7.6"/>
		<path id="Fill-127" class="st130" d="M-2317.4,7.8c0.6-0.1,1.3,0.1,1.9-0.2c0.6,0.6,1.4,1.1,2.3,1.5c-0.8,0.2-1.7,0.1-2.5,0.3
			c-0.3-0.3-0.7-0.7-1-1C-2317,8.2-2317.2,8-2317.4,7.8"/>
		<path id="Fill-128" class="st131" d="M-2277.3,7.9c0.1,0,0.2-0.1,0.2-0.1c0.2,0.2,0.4,0.3,0.6,0.5c-0.1,0.1-0.1,0.1-0.2,0.2
			C-2277,8.2-2277.1,8.1-2277.3,7.9"/>
		<path id="Fill-129" class="st132" d="M-2279,8.7c0.6-0.2,1.1-0.5,1.7-0.8c0.2,0.2,0.3,0.4,0.6,0.5c-0.9,0.3-1.7,0.8-2.6,1.3
			c0-0.2,0.2-0.6-0.2-0.7C-2279.3,8.9-2279.1,8.8-2279,8.7"/>
		<path id="Fill-130" class="st133" d="M-2317.5,8.3c0.2,0,0.5,0.1,0.7,0.1c0.3,0.3,0.7,0.7,1,1c0.7,0.7,1.4,1.3,2.1,1.9
			c0.1,0.1,0.3,0.2,0.4,0.4c-0.1,0-0.3,0.1-0.4,0.2c-0.1-0.1-0.2-0.1-0.3-0.2c-0.4-0.3-0.8-0.7-1.2-1.1c-0.1-0.1-0.2-0.2-0.4-0.3
			c0,0-0.1-0.1-0.1-0.1C-2316.2,9.6-2316.9,9-2317.5,8.3"/>
		<path id="Fill-131" class="st134" d="M-2284,8.6c0.2,0.1,0.4,0.2,0.6,0.2c0,0-0.1,0.1-0.1,0.2c-0.2,0.2-0.3,0.5-0.6,0.6
			c-0.1-0.1-0.3-0.2-0.5-0.3C-2284.4,9.1-2284.2,8.8-2284,8.6z M-2268.3,9.2c0.1,0.1,0.2,0.3,0.3,0.4c-0.2,0.1-0.3,0.3-0.5,0.5
			c-0.1-0.1-0.2-0.2-0.3-0.4C-2268.6,9.6-2268.5,9.4-2268.3,9.2z"/>
		<path id="Fill-132" class="st135" d="M-2280.9,8.8c0.6,0,1.3-0.3,1.9-0.1c-0.2,0.1-0.3,0.2-0.5,0.3c-0.3,0.2-0.6,0.3-0.8,0.5
			c-0.4,0.3-0.9,0.5-1.3,0.9c-0.2,0.1-0.3,0.2-0.5,0.3c-0.4-0.1-0.9-0.1-1.4-0.1c-0.3,0-0.6,0.2-0.9,0.2c-0.2,0-0.4,0-0.5,0.1
			c-0.2,0.2-0.3,0.4-0.5,0.6c-0.2-0.2-0.4-0.2-0.7-0.1c0.5-0.7,1.1-1.4,1.6-2.1c0.2,0.1,0.3,0.2,0.5,0.3c0.2-0.1,0.4-0.4,0.6-0.6
			c0.3,0.1,0.6,0,0.9,0C-2282,8.9-2281.5,8.8-2280.9,8.8"/>
		<path id="Fill-133" class="st136" d="M-2280.3,9.5c0.3-0.2,0.6-0.3,0.8-0.5c0.3,0.1,0.2,0.4,0.2,0.7c-0.3,0.2-0.6,0.4-0.9,0.5
			c-0.1,0-0.1-0.1-0.2-0.1C-2280.3,9.9-2280.3,9.7-2280.3,9.5"/>
		<path id="Fill-134" class="st137" d="M-2315.8,9.4c0.8-0.1,1.7-0.1,2.5-0.3c0.1,0,0.3,0.1,0.4,0.1c0.3,0.1,0.6,0.2,0.9,0
			c0,0,0,0.1,0,0.1c0.4,0.3,0.2,0.8,0.4,1.3c-0.1,0.1-0.2,0.3-0.3,0.4c-0.5,0-0.9,0.1-1.4,0.1c-0.2,0-0.3,0.1-0.4,0.2
			C-2314.4,10.7-2315.1,10.1-2315.8,9.4"/>
		<path id="Fill-135" class="st138" d="M-2281.6,10.3c0.4-0.3,0.9-0.6,1.3-0.9c0,0.2,0,0.4-0.1,0.6c0.1,0,0.1,0.1,0.2,0.1
			c-0.5,0.3-0.9,0.6-1.4,0.9C-2281.5,10.9-2281.4,10.6-2281.6,10.3"/>
		<path id="Fill-136" class="st139" d="M-2265.9,9.8c0.2,0,0.4-0.1,0.6-0.3c0.2,0.7,0.4,1.4,0.7,2.1c-0.1,0.1-0.3,0.2-0.4,0.3
			c-0.1,0-0.1-0.1-0.2-0.1C-2265.4,11.1-2265.7,10.5-2265.9,9.8"/>
		<path id="Fill-137" class="st140" d="M-2268.1,10.6c0.2-0.1,0.3-0.3,0.5-0.4c0.2,0.2,0.4,0.5,0.5,0.8c-0.2,0-0.4,0.2-0.6,0.4
			C-2267.8,11.1-2267.9,10.9-2268.1,10.6"/>
		<path id="Fill-138" class="st141" d="M-2316.2,11.5c0.2-0.4,0.6-0.8,0.7-1.2c0.1,0.1,0.2,0.2,0.4,0.3c-0.8,1.3-1.7,2.5-2.6,3.8
			c-0.7,1-1.4,1.9-2.1,2.8c0-0.1,0-0.2,0-0.3c0.1,0,0.2-0.1,0.2-0.2c0.3-0.5,0.6-1,1-1.5c0.1-0.1,0.1-0.3,0.2-0.4
			c0.3-0.4,0.5-0.9,0.8-1.3c0.3-0.4,0.6-0.9,0.9-1.3C-2316.6,12-2316.3,11.8-2316.2,11.5"/>
		<path id="Fill-139" class="st142" d="M-2282.1,10.7c0.2-0.1,0.3-0.2,0.5-0.3c0.2,0.2,0.2,0.5,0,0.8c-1.5,1-2.8,2.2-4,3.6
			c-0.2-0.2-0.1-0.5-0.1-0.8c0.2-0.2,0.4-0.5,0.7-0.7C-2284.2,12.3-2283.2,11.4-2282.1,10.7"/>
		<path id="Fill-140" class="st143" d="M-2311.6,10.6c0.1,0.3,0.2,0.7,0.6,0.6c0.9,0,1.8-0.1,2.7-0.1c0.1,0,0.3,0,0.4,0.1
			c0.4,0.5,0.8,1,1.2,1.5c0.3,0.3,0.7,0.5,1.1,0.6c0.1,0.1,0.1,0.2,0.2,0.3c-0.3-0.1-0.6-0.2-0.9-0.3c-0.1,0.1-0.1,0.1-0.2,0.2
			c0.2,0.1,0.4,0.2,0.6,0.3c-0.3,0-0.7-0.1-1-0.2c-0.4-0.2-0.8-0.1-1.2-0.2c-0.8,0-1.5-0.1-2.3-0.2c-1-0.2-2-0.7-2.8-1.4
			c-0.1-0.1-0.3-0.2-0.4-0.4c0.1-0.1,0.2-0.2,0.4-0.2c0.5-0.1,0.9-0.1,1.4-0.1C-2311.8,10.9-2311.7,10.7-2311.6,10.6"/>
		<path id="Fill-141" class="st144" d="M-2284.4,10.8c0.3,0,0.6-0.2,0.9-0.2c0.5,0,0.9,0,1.4,0.1c-1,0.8-2,1.6-2.9,2.5
			c-0.1,0-0.2-0.1-0.2-0.1c-0.3,0.1-0.7,0.2-0.9,0.5c0.1,0,0.2,0,0.4,0c-0.5,0.2-1.1,0.2-1.6,0.2c0.2-0.2,0.3-0.4,0.5-0.6
			c0.3-0.3,0.5-0.6,0.8-0.9c0.2-0.3,0.5-0.5,0.7-0.8c0.2-0.2,0.3-0.4,0.5-0.6C-2284.8,10.7-2284.6,10.8-2284.4,10.8"/>
		<path id="Fill-142" class="st145" d="M-2267.6,11.4c0.2-0.2,0.3-0.4,0.6-0.4c0.1,0.1,0.2,0.3,0.3,0.4c-0.2,0.1-0.4,0.2-0.6,0.4
			C-2267.4,11.7-2267.5,11.5-2267.6,11.4"/>
		<path id="Fill-143" class="st146" d="M-2286.1,11.4c0.2,0,0.5-0.1,0.7,0.1c-0.2,0.3-0.4,0.6-0.7,0.8c-0.2-0.1-0.3-0.2-0.5-0.3
			C-2286.5,11.8-2286.3,11.6-2286.1,11.4"/>
		<path id="Fill-144" class="st147" d="M-2267.3,11.8c0.2-0.1,0.4-0.3,0.6-0.4c0.1,0.2,0.2,0.4,0.4,0.6c-0.2,0.1-0.4,0.2-0.5,0.4
			l0,0C-2267.1,12.2-2267.2,12-2267.3,11.8"/>
		<path id="Fill-145" class="st148" d="M-2265,11.9c0.1-0.1,0.3-0.2,0.4-0.3c0.3,0.7,0.6,1.4,1,2.1c-0.1,0.1-0.2,0.2-0.3,0.3
			c-0.1,0-0.1-0.1-0.2-0.1c-0.4-0.7-0.9-1.4-1.1-2.2C-2265.1,11.8-2265,11.8-2265,11.9"/>
		<path id="Fill-146" class="st149" d="M-2313.9,11.7c0.1,0.1,0.2,0.1,0.3,0.2c0.1,0.1,0.2,0.2,0.3,0.3c-0.1,0.1-0.3,0.3-0.4,0.4
			c-0.2-0.1-0.4-0.3-0.5-0.5C-2314.1,12-2314,11.9-2313.9,11.7"/>
		<path id="Fill-147" class="st150" d="M-2313.6,11.9c0.1-0.1,0.2-0.2,0.4-0.2c0.8,0.7,1.8,1.2,2.8,1.4c0.8,0.2,1.5,0.2,2.3,0.2
			c-0.1,0.1-0.2,0.3-0.3,0.4c-0.8,0-1.6-0.1-2.3-0.3c-0.9-0.2-1.8-0.6-2.5-1.2C-2313.4,12.1-2313.5,12-2313.6,11.9"/>
		<path id="Fill-148" class="st151" d="M-2287.4,12.9c0.2-0.3,0.5-0.6,0.7-0.9c0.2,0.1,0.4,0.1,0.5,0.3c-0.3,0.3-0.5,0.6-0.8,0.9
			C-2287.1,13.1-2287.2,13-2287.4,12.9"/>
		<path id="Fill-149" class="st152" d="M-2266.9,12.4c0.2-0.1,0.3-0.3,0.5-0.4c1,1.8,1.9,3.7,2.9,5.6c-0.1,0.1-0.2,0.2-0.3,0.3
			c-0.1,0-0.2,0-0.2,0C-2265,16.1-2265.9,14.2-2266.9,12.4L-2266.9,12.4z M-2307.8,33.1c0.7,0,1.5,0.1,2.2-0.1c0,0.4,0,0.9-0.2,1.3
			l-0.1,0c-0.3,0-0.6,0.1-0.9,0.1c-2.8,0-5.6,0-8.4,0c-0.3,0-0.6,0.1-0.9,0.1c-0.3,0-0.6-0.1-0.8-0.1c-1.3,0-2.7,0-4,0
			c-0.9,0.1-1.9,0-2.9,0.1c-1.2,0-2.3,0-3.5,0c-0.2,0-0.3-0.1-0.5-0.2c0-0.4,0-0.8,0-1.2l0,0c0.2,0.1,0.3,0.1,0.5,0.1
			c1.9,0,3.8,0,5.6,0c0.7,0,1.5,0.1,2.2-0.1c0.2,0,0.4,0.1,0.6,0.1c0.8-0.1,1.5,0,2.3,0c2.4,0,4.8,0,7.2,0
			C-2308.8,33.1-2308.3,33-2307.8,33.1z"/>
		<path id="Fill-150" class="st153" d="M-2315.3,13.4c0.4-0.4,0.7-0.8,1.1-1.3c0.2,0.2,0.4,0.3,0.5,0.5c-0.4,0.4-0.8,0.8-1.1,1.2
			C-2315,13.7-2315.2,13.6-2315.3,13.4"/>
		<path id="Fill-151" class="st154" d="M-2288.5,14.2c0.3-0.4,0.7-0.8,1.1-1.3c0.2,0.1,0.3,0.2,0.5,0.3c-0.2,0.2-0.3,0.4-0.5,0.6
			c-0.2,0.2-0.3,0.4-0.5,0.6C-2288.1,14.4-2288.3,14.3-2288.5,14.2"/>
		<path id="Fill-152" class="st155" d="M-2286.1,13.6c0.2-0.3,0.5-0.4,0.9-0.5c0.1,0,0.2,0.1,0.2,0.1c-0.2,0.2-0.4,0.5-0.7,0.7
			c-0.3,0.3-0.5,0.6-0.8,1c-0.2,0.2-0.4,0.5-0.5,0.8c-0.2,0.3-0.4,0.6-0.5,0.9c-0.2,0.4-0.5,0.9-0.5,1.4c0,0.1,0.1,0.2,0.2,0.4
			c-0.2,0.4-0.3,0.8-0.5,1.2l0,0c-0.1-0.1-0.2-0.3-0.3-0.4c-0.1,0.1-0.2,0.1-0.3,0.2c0.1,0.1,0.2,0.3,0.2,0.5c-0.1,0-0.2,0-0.3,0
			c-0.1-0.1-0.1-0.3-0.3-0.4c-0.3-0.1-0.7,0.1-0.9,0.3c-0.3,0.3-0.3,0.7-0.3,1c-0.1,0.7-0.2,1.4-0.2,2.2c0,0.2-0.1,0.5-0.1,0.7
			c0,0.2,0,0.5,0,0.7c0,0.1-0.1,0.1-0.1,0.2c0-0.2-0.1-0.5-0.1-0.7c-0.1,0.1-0.2,0.1-0.3,0.2c-0.6,0-1.3,0-1.9,0
			c-0.2,0-0.3-0.1-0.5,0.1c-0.3,0.2-0.6,0.3-0.8,0.6l0,0c0-0.2,0.1-0.4,0.1-0.6c0.1,0,0.3-0.1,0.4-0.2c0.2-0.2,0.5-0.3,0.6-0.4
			c0.2-0.2,0.2-0.6,0.3-0.8c-0.2-0.1-0.5-0.2-0.7-0.3c0.1-0.4,0.3-0.7,0.4-1.1c0.2,0.1,0.4,0.2,0.6,0.3c0.1-0.1,0.1-0.3,0.2-0.4
			c0.1-0.2,0.1-0.4,0.2-0.5c0.1-0.3,0.2-0.5,0.3-0.8c0.5-1,1.3-1.8,2.1-2.7c0.7-0.8,1.4-1.6,2.1-2.4c0.2-0.2,0.4-0.4,0.5-0.6
			c0.6,0,1.1,0,1.6-0.2C-2285.9,13.6-2286,13.6-2286.1,13.6"/>
		<path id="Fill-153" class="st156" d="M-2306.6,13.4c0.1-0.1,0.1-0.1,0.2-0.2c0.3,0.1,0.6,0.2,0.9,0.3c0,0-0.1,0.1-0.1,0.2
			c-0.1,0-0.2,0-0.4,0C-2306.1,13.6-2306.3,13.5-2306.6,13.4"/>
		<path id="Fill-154" class="st157" d="M-2308.1,13.3c0.4,0.1,0.8,0,1.2,0.2c0.3,0.1,0.6,0.2,1,0.2c0.1,0,0.2,0,0.4,0
			c-0.4,0.1-0.7,0-1.1,0c-0.6,0-1.2,0-1.8-0.1C-2308.4,13.5-2308.3,13.4-2308.1,13.3"/>
		<path id="Fill-155" class="st158" d="M-2315.8,13.9c0.1-0.2,0.3-0.3,0.4-0.5c0.1,0.2,0.3,0.3,0.5,0.5c-0.2,0.2-0.3,0.4-0.4,0.5
			C-2315.4,14.2-2315.6,14.1-2315.8,13.9"/>
		<path id="Fill-156" class="st159" d="M-2263.8,14c0.1-0.1,0.2-0.2,0.3-0.3c0.6,1,1.4,1.9,2.2,2.8c0.3,0.3,0.7,0.6,1,0.9
			c-0.2,0-0.6,0-0.5,0.3c0.2,0,0.3,0,0.5,0c0,0-0.1,0.1-0.1,0.1c-0.2,0-0.3,0.1-0.5,0.1c0-0.2,0-0.4-0.2-0.5c-1.1-1-2.3-2.1-3-3.4
			C-2264,14-2263.9,14-2263.8,14"/>
		<path id="Fill-157" class="st160" d="M-2316.1,14.3c0.1-0.1,0.2-0.2,0.3-0.4c0.2,0.1,0.4,0.3,0.5,0.5c-0.1,0.1-0.2,0.3-0.3,0.4
			C-2315.7,14.6-2315.9,14.4-2316.1,14.3"/>
		<path id="Fill-158" class="st161" d="M-2286.5,14.8c0.3-0.3,0.5-0.7,0.8-1c0.1,0.2,0,0.5,0.1,0.8l0,0c-0.3,0.3-0.6,0.7-0.9,1.1
			C-2286.6,15.5-2286.5,15.1-2286.5,14.8"/>
		<path id="Fill-159" class="st162" d="M-2290.4,16.5c0.7-0.8,1.3-1.5,2-2.3c0.2,0.1,0.3,0.2,0.5,0.3c-0.7,0.8-1.4,1.6-2.1,2.4
			c-0.7,0.9-1.5,1.7-2.1,2.7c-0.2-0.1-0.4-0.2-0.6-0.3C-2292,18.2-2291.2,17.4-2290.4,16.5"/>
		<path id="Fill-160" class="st163" d="M-2316.4,14.7c0.1-0.2,0.2-0.3,0.3-0.5c0.2,0.2,0.3,0.3,0.5,0.5c-0.1,0.2-0.3,0.3-0.4,0.5
			C-2316.1,15.1-2316.2,14.9-2316.4,14.7"/>
		<path id="Fill-161" class="st164" d="M-2287,15.6c0.2-0.3,0.3-0.5,0.5-0.8c0,0.3-0.1,0.6,0.1,0.9c-0.2,0.3-0.4,0.6-0.6,0.9
			C-2287.1,16.3-2287.1,15.9-2287,15.6"/>
		<path id="Fill-162" class="st165" d="M-2317.4,16c0.1-0.2,0.2-0.3,0.3-0.4c0.2,0.1,0.4,0.3,0.5,0.4c-0.1,0.2-0.2,0.3-0.3,0.5
			C-2317,16.2-2317.1,16-2317.4,16"/>
		<path id="Fill-163" class="st166" d="M-2287.6,16.5c0.2-0.3,0.3-0.6,0.5-0.9c0,0.3,0,0.7,0,1l0,0c-0.2,0.3-0.3,0.6-0.5,0.9
			C-2287.6,17.2-2287.6,16.8-2287.6,16.5"/>
		<path id="Fill-164" class="st167" d="M-2317.4,16c0.2,0.1,0.4,0.3,0.5,0.5l0,0c-0.6,0.9-1.1,1.8-1.5,2.8c-0.1,0.3-0.2,0.6-0.3,0.9
			c-0.1,0.1-0.2,0.1-0.3,0.1c-0.1-0.2-0.3-0.4-0.4-0.7c0.1-0.2,0.2-0.3,0.3-0.5C-2318.6,17.9-2318,16.9-2317.4,16"/>
		<path id="Fill-165" class="st168" d="M-2288.1,17.9c-0.1-0.5,0.2-1,0.5-1.4c0,0.3,0,0.7,0.1,1l0,0c-0.1,0.3-0.3,0.5-0.4,0.8
			C-2288,18.2-2288.1,18.1-2288.1,17.9"/>
		<path id="Fill-166" class="st169" d="M-2320.3,17.6c0.2-0.2,0.2-0.5,0.5-0.6c0,0.1,0,0.2,0,0.3c-0.5,0.6-1,1.2-1.6,1.7
			c0.2-0.4,0.5-0.7,0.7-1.1C-2320.6,17.8-2320.5,17.7-2320.3,17.6"/>
		<path id="Fill-167" class="st170" d="M-2260.8,17.7c-0.1-0.3,0.3-0.4,0.5-0.3c0,0.1,0,0.2,0,0.3
			C-2260.5,17.6-2260.6,17.7-2260.8,17.7"/>
		<path id="Fill-168" class="st171" d="M-2321.6,18.4c0.3-0.3,0.5-0.6,0.8-0.9c-0.1,0.5-0.5,0.8-0.8,1.2c-0.2,0.3-0.4,0.7-0.7,1
			c-0.5,0.5-1,1-1.5,1.5c-0.4,0.5-0.7,1-1.1,1.5c-0.2,0.3-0.5,0.5-0.8,0.7c0.1-0.3,0.3-0.5,0.5-0.8c0.1,0,0.2,0,0.3-0.1
			c0.2-0.3,0.6-0.6,0.7-0.9c0.2-0.5,0.5-0.9,0.8-1.3c0.1-0.1,0.2-0.3,0.2-0.5C-2322.6,19.4-2322,18.9-2321.6,18.4"/>
		<path id="Fill-169" class="st172" d="M-2263.8,18c0.1-0.1,0.2-0.2,0.3-0.3c0.2,0.4,0.5,0.9,0.7,1.4c-0.1,0.2-0.2,0.3-0.4,0.4
			c-0.3-0.5-0.5-1-0.8-1.5C-2263.9,17.9-2263.9,18-2263.8,18"/>
		<path id="Fill-170" class="st173" d="M-2260.9,18c0.1-0.1,0.3-0.1,0.5-0.1c-0.1,0.3-0.2,0.5-0.2,0.8c0,0.2,0.3,0.3,0.5,0.4
			c0,0-0.1,0.1-0.2,0.2c-0.3-0.1-0.6-0.1-0.8-0.4C-2261.2,18.6-2261.1,18.3-2260.9,18"/>
		<path id="Fill-171" class="st174" d="M-2262.8,19c0.2,0.3,0.4,0.7,0.6,1c0,0.1,0,0.2-0.1,0.3c-0.1,0.1-0.3,0-0.4,0
			c-0.2-0.3-0.3-0.6-0.5-0.9C-2263.1,19.3-2262.9,19.2-2262.8,19z M-2293.3,20.5c0.1-0.2,0.2-0.4,0.3-0.6c0.2,0.1,0.4,0.2,0.6,0.4
			c-0.1,0.2-0.1,0.4-0.2,0.5C-2292.8,20.8-2293,20.7-2293.3,20.5z"/>
		<path id="Fill-172" class="st175" d="M-2288.9,19.2c0.1-0.1,0.2-0.1,0.3-0.2c0.1,0.1,0.2,0.3,0.3,0.4c0,0.2-0.2,0.3-0.4,0.2
			C-2288.7,19.5-2288.8,19.3-2288.9,19.2"/>
		<path id="Fill-173" class="st176" d="M-2290.2,19.6c0.2-0.2,0.6-0.4,0.9-0.3c0.1,0.1,0.2,0.3,0.3,0.4c-0.4,0-0.9,0.2-1,0.6
			c-0.2,1.1-0.2,2.1-0.3,3.2c-0.1,0.3-0.4,0.4-0.5,0.6c0-0.2,0-0.5,0-0.7c0.1-0.2,0.2-0.5,0.1-0.7c0-0.7,0.1-1.4,0.2-2.2
			C-2290.5,20.3-2290.5,19.9-2290.2,19.6"/>
		<path id="Fill-174" class="st177" d="M-2292.6,19.3c0.2,0.1,0.4,0.2,0.6,0.3c-0.1,0.3-0.2,0.5-0.3,0.8c-0.2-0.1-0.4-0.2-0.6-0.4
			C-2292.9,19.7-2292.8,19.5-2292.6,19.3z M-2325.9,30.6c0.7-0.2,1.4-0.2,2.1-0.2c6.1,0,12.1,0,18.2,0c0,0.4,0,0.7,0,1.1
			c-0.2,0.1-0.4,0.2-0.7,0.2c-0.4,0-0.8,0-1.2,0.1c-6.2,0-12.4,0-18.6,0c-0.4,0-0.8,0.1-1.1-0.2
			C-2326.8,31.1-2326.4,30.8-2325.9,30.6z M-2301.6,30.4c2.3,0,4.6,0,6.9,0c1.8,0,3.6,0,5.4,0c1.1,0.1,2.2,0.2,3.1,0.9
			c0,0-0.1,0.1-0.1,0.1c0,0.1,0.1,0.1,0.1,0.2c-4.8,0-9.5,0-14.3,0c-0.5,0-1,0.1-1.4-0.1C-2301.8,31.1-2301.7,30.7-2301.6,30.4z
			 M-2278.5,30.4c6,0,12.1,0,18.1,0c0.7,0,1.3,0,2,0.2c0.4,0.1,0.9,0.4,1.2,0.7c0,0.1-0.1,0.2-0.1,0.3c-0.4,0.1-0.7,0.1-1.1,0.1
			c-5.9,0-11.8,0-17.7,0c-0.6,0-1.2,0-1.9,0c-0.2,0-0.4-0.1-0.5-0.2C-2278.5,31-2278.5,30.7-2278.5,30.4z"/>
		<path id="Fill-175" class="st178" d="M-2320.7,20.3c0.2-0.4,0.6-0.8,1.1-0.8c0.3,0.2,0.4,0.5,0.6,0.8c-0.4,0-0.8,0-1.1,0.4
			c-0.4,0.5-0.6,1.2-0.9,1.8c-0.2,0.5-0.4,1-0.6,1.5c-0.2-0.2-0.1-0.4-0.3-0.6C-2321.6,22.3-2321.1,21.3-2320.7,20.3"/>
		<path id="Fill-176" class="st179" d="M-2258.9,19.4c0.1,0.1,0.1,0.2,0.2,0.3c0.1,0.3,0.3,0.7,0.4,1c-0.1,0.1-0.1,0.2-0.2,0.3
			c-0.2-0.4-0.3-0.8-0.4-1.2C-2259,19.7-2258.9,19.6-2258.9,19.4"/>
		<path id="Fill-177" class="st180" d="M-2325.1,22.7c0.6-1,1.2-1.9,2-2.8c0,0.2-0.1,0.3-0.2,0.5c-0.3,0.4-0.6,0.8-0.8,1.3
			c-0.2,0.4-0.5,0.6-0.7,0.9C-2324.9,22.7-2325,22.7-2325.1,22.7"/>
		<path id="Fill-178" class="st181" d="M-2262.2,20c0.2,0.3,0.4,0.6,0.6,0.9c-0.1,0.2-0.3,0.2-0.5,0.3c-0.2-0.3-0.4-0.6-0.6-0.8
			c0.1,0,0.3,0.1,0.4,0C-2262.3,20.2-2262.2,20.1-2262.2,20"/>
		<path id="Fill-179" class="st182" d="M-2293.3,20.5L-2293.3,20.5c0.2,0.1,0.4,0.2,0.6,0.3c-0.1,0.1-0.1,0.3-0.2,0.4
			c-0.2-0.1-0.4-0.2-0.6-0.3C-2293.4,20.8-2293.3,20.7-2293.3,20.5"/>
		<path id="Fill-180" class="st183" d="M-2258.5,21.1c0.1-0.1,0.1-0.2,0.2-0.3c0.4,1,0.8,2,1.1,2.9c-0.1-0.1-0.3-0.3-0.5-0.4
			C-2258,22.6-2258.2,21.8-2258.5,21.1"/>
		<path id="Fill-181" class="st184" d="M-2294.4,23.8c0.2-0.6,0.4-1.2,0.6-1.8c0.2,0.1,0.5,0.2,0.7,0.3c-0.1,0.3-0.1,0.6-0.3,0.8
			c-0.2,0.2-0.4,0.3-0.6,0.4C-2294.2,23.7-2294.3,23.8-2294.4,23.8"/>
		<path id="Fill-182" class="st185" d="M-2260.7,22.6c0.1-0.1,0.2-0.2,0.4-0.2c0.3,0.1,0.5,0.4,0.8,0.6c0.2,0.2,0.4,0.3,0.6,0.5
			c0,0.2-0.1,0.3-0.2,0.5C-2259.7,23.5-2260.2,23.1-2260.7,22.6"/>
		<path id="Fill-183" class="st186" d="M-2257.6,23.3c0.2,0.1,0.3,0.2,0.5,0.4c0.1,0.2,0.2,0.4,0.2,0.6c0,0-0.1,0.1-0.2,0.1
			c-0.2-0.2-0.4-0.4-0.4-0.7C-2257.6,23.6-2257.6,23.4-2257.6,23.3"/>
		<path id="Fill-184" class="st187" d="M-2325.2,23.4c0,0.1,0,0.2,0,0.3c0.1,0,0.2,0.1,0.2,0.1c-0.3,0.2-0.5,0.4-0.8,0.6
			c-0.1,0-0.2,0-0.3-0.1C-2325.7,24-2325.4,23.8-2325.2,23.4"/>
		<path id="Fill-185" class="st188" d="M-2291.4,23.8c0.1,0,0.2-0.1,0.3-0.2c0,0.2,0.1,0.5,0.1,0.7c0,0-0.1,0.1-0.2,0.1
			C-2291.3,24.2-2291.4,24-2291.4,23.8"/>
		<path id="Fill-186" class="st189" d="M-2322.4,23.7c0.1,0,0.2,0,0.3,0c0.1,0.2,0.1,0.4,0.3,0.5c0,0-0.1,0.1-0.1,0.1
			c-0.1,0-0.2,0-0.2,0C-2322.2,24.2-2322.3,24-2322.4,23.7"/>
		<path id="Fill-187" class="st190" d="M-2258.8,23.7c0.1,0,0.2,0,0.4,0.1c0,0.2,0,0.4-0.1,0.6c-0.1,0-0.2,0-0.3-0.1
			C-2258.8,24.1-2258.8,23.9-2258.8,23.7"/>
		<path id="Fill-188" class="st191" d="M-2257.7,23.8c0.1,0,0.1,0,0.2,0c0,0.3,0.2,0.5,0.4,0.7c-0.3,0-0.6,0-1,0
			c0.1-0.1,0.2-0.1,0.3-0.2C-2257.7,24-2257.7,23.9-2257.7,23.8"/>
		<path id="Fill-189" class="st192" d="M-2324.9,23.8c0.8,0,1.7-0.1,2.5-0.1c0.1,0.2,0.2,0.4,0.2,0.7c-0.4,0-0.8,0-1.1,0
			c-0.3-0.2-0.6-0.3-0.9-0.5c-0.2-0.1-0.5,0-0.6,0.1c0,0-0.1,0-0.1,0c-0.2,0.1-0.3,0.3-0.5,0.4c-0.1,0-0.2,0-0.3,0
			C-2325.4,24.2-2325.2,24-2324.9,23.8"/>
		<path id="Fill-190" class="st193" d="M-2293.3,23.7c0.6,0,1.3,0,1.9,0c0,0.2,0.1,0.4,0.2,0.7c-0.3,0-0.5,0-0.8,0
			c-0.3-0.2-0.6-0.4-1-0.5c-0.4,0-0.7,0.3-1.1,0.4C-2293.8,24.1-2293.5,24-2293.3,23.7"/>
		<path id="Fill-191" class="st194" d="M-2258.4,23.8c0.2,0,0.5,0,0.7,0c0,0.1,0.1,0.3,0,0.4c-0.1,0.1-0.2,0.2-0.3,0.2
			c-0.1,0-0.3,0-0.4,0C-2258.5,24.2-2258.5,24-2258.4,23.8"/>
		<path id="Fill-192" class="st195" d="M-2324.8,24c0.2-0.1,0.4-0.2,0.6-0.1c0.3,0.2,0.6,0.3,0.9,0.5c-0.7,0-1.4,0-2.1,0
			C-2325.2,24.2-2325.1,24.1-2324.8,24C-2324.9,24-2324.8,24-2324.8,24"/>
		<path id="Fill-193" class="st196" d="M-2294,24.3c0.4-0.1,0.7-0.4,1.1-0.4c0.4,0.1,0.7,0.3,1,0.5c-0.7,0-1.5,0-2.2,0
			C-2294.1,24.4-2294,24.3-2294,24.3"/>
		<path id="Fill-194" d="M-2326.8,30.7c0.7-0.6,1.7-0.7,2.6-0.7c6.3,0,12.7,0,19,0c0,1.2,0,2.3,0,3.5c0,0.5-0.1,1-0.5,1.4
			c-0.4,0.4-0.9,0.4-1.4,0.4c-2.7,0-5.4,0-8,0c0,3.3,0,6.7,0,10c0,0.4-0.1,0.9-0.5,1.2c-0.3,0.3-0.6,0.4-1,0.4h-11.4V33.1
			C-2327.9,32.2-2327.6,31.3-2326.8,30.7z M-2325.9,30.6c-0.5,0.2-0.9,0.5-1.2,0.9c-0.3,0.5-0.5,1-0.5,1.6l0,0c0,0.4,0,0.8,0,1.2
			c0,0.6,0,1.2,0,1.8c0,0.4,0,0.8,0,1.2c0,0.4,0,0.9,0,1.3c0,0.3,0,0.7,0,1c0,0.3,0,0.7,0,1c0,0.5,0,0.9,0,1.4c0,0.3,0,0.6,0,0.9
			c0,0.4,0,0.7,0,1.1c0,0.6,0,1.1,0,1.7c0,0.3,0,0.5,0,0.8c3.7,0,7.4,0,11,0c0.5,0,0.9-0.3,1.1-0.8c0.1-0.6,0-1.2,0-1.9
			c0-0.3,0-0.6,0-0.9c0-0.3,0-0.7,0-1c0-0.4,0-0.9,0-1.3c0-0.4,0-0.7,0-1.1c0-0.3,0-0.7,0-1c0-0.4,0-0.9,0-1.3c0-0.4,0-0.8,0-1.3
			c0-0.4,0-0.7,0-1.1c2.8,0,5.7,0,8.5,0c0.4,0,0.9-0.1,1.2-0.5l0,0l0.1,0c0.2-0.4,0.2-0.9,0.2-1.3c0-0.5,0-1,0-1.6
			c0-0.4,0-0.7,0-1.1c-6.1,0-12.1,0-18.2,0C-2324.5,30.4-2325.2,30.3-2325.9,30.6z M-2306.7,45.9c1.6-5.3,3.2-10.6,4.9-16
			c3.6,0,7.3,0,10.9,0c1,0,1.9,0,2.9,0.2c0.8,0.1,1.6,0.4,2.2,0.9c0.8,0.6,1.2,1.6,1.6,2.5c1.5,4.5,3.1,8.9,4.6,13.4h-12.6
			c-0.4-0.1-0.9-0.2-1.2-0.6c-0.5-0.6-0.6-1.4-0.8-2.2c-2.2,0-4.4,0-6.6,0c-0.3,0.9-0.5,1.8-0.8,2.7h-5.3
			C-2306.9,46.6-2306.8,46.3-2306.7,45.9z M-2301.6,30.4c-0.1,0.4-0.2,0.8-0.3,1.1c-0.1,0.5-0.3,0.9-0.4,1.4
			c-0.1,0.4-0.3,0.9-0.4,1.3c-0.2,0.5-0.3,1.1-0.5,1.6c-0.1,0.3-0.2,0.7-0.3,1c-0.1,0.3-0.2,0.5-0.2,0.8l0,0
			c-0.1,0.3-0.2,0.5-0.2,0.8c-0.1,0.4-0.2,0.8-0.3,1.1c-0.1,0.3-0.2,0.5-0.2,0.8l0,0c-0.1,0.3-0.2,0.5-0.2,0.8h0
			c-0.1,0.5-0.3,1-0.4,1.4l0,0l-0.1,0c-0.1,0.4-0.3,0.8-0.4,1.2h0c-0.1,0.3-0.2,0.7-0.3,1l0,0c-0.2,0.5-0.3,1.1-0.5,1.6
			c1.5,0,3,0,4.5,0c0.2-0.5,0.3-1,0.4-1.5c0.1-0.4,0.2-0.7,0.3-1.1c0,0,0.1-0.1,0.1-0.1c1.6,0,3.1,0,4.7,0c0.8,0,1.7,0,2.5,0
			c0.1,0.4,0.2,0.7,0.3,1.1c0.1,0.5,0.3,1,0.7,1.3c0.3,0.2,0.8,0.2,1.2,0.3c3.8,0,7.7,0,11.5,0c-0.2-0.5-0.4-1.1-0.5-1.6l0,0
			c-0.1-0.4-0.3-0.8-0.4-1.1l0,0c-0.1-0.4-0.2-0.7-0.4-1.1c-0.2-0.5-0.4-1.1-0.6-1.6c-0.1-0.2-0.1-0.4-0.2-0.6h0
			c-0.1-0.4-0.3-0.8-0.4-1.2c-0.1-0.3-0.2-0.6-0.3-0.9l0,0c-0.1-0.4-0.2-0.7-0.4-1l0,0c-0.1-0.2-0.2-0.5-0.2-0.7
			c-0.2-0.4-0.3-0.9-0.5-1.3l0,0l0-0.1c-0.1-0.3-0.2-0.7-0.3-1c-0.2-0.5-0.4-1-0.6-1.5l0,0c-0.2-0.6-0.6-1.1-1.1-1.6
			c-0.9-0.7-2-0.8-3.1-0.9c-1.8-0.1-3.6,0-5.4,0C-2297,30.4-2299.3,30.4-2301.6,30.4z M-2278.9,30c6.4,0,12.8,0,19.3,0
			c0.9,0,1.8,0.2,2.4,0.8c0.7,0.6,1,1.5,1.1,2.4v2.2c-0.1,0.7-0.3,1.4-0.7,1.9c-0.4,0.5-0.9,0.8-1.5,1.1c0.6,0.2,1.1,0.6,1.5,1.1
			c0.4,0.5,0.7,1.2,0.7,1.9v2.5c-0.1,0.8-0.4,1.5-0.9,2.1c-0.7,0.7-1.7,1-2.6,1.1h-17.8c-0.4-0.1-0.8-0.2-1.1-0.5
			c-0.3-0.4-0.4-0.9-0.4-1.3c0-1.1,0-2.3,0-3.4c3.1,0,6.2,0,9.3,0c0.3,0,0.6-0.3,0.6-0.6c0-0.3-0.2-0.6-0.6-0.6c-1.9,0-3.8,0-5.7,0
			c0-1.3,0-2.7,0-4c1.9,0,3.8,0,5.6,0c0.3,0,0.6-0.2,0.6-0.5c0.1-0.4-0.2-0.8-0.6-0.7c-2.5,0-5,0-7.5,0c-0.4,0-0.9-0.1-1.3-0.4
			c-0.4-0.3-0.6-0.9-0.6-1.4C-2278.9,32.4-2278.9,31.2-2278.9,30z M-2278.5,30.4c0,0.3,0,0.7,0,1c0,0.5,0,1.1,0,1.6
			c0,0.5,0,1.1,0.3,1.5c0.3,0.3,0.7,0.4,1.1,0.4c2.5,0,5.1,0,7.6,0c0.4,0,0.8,0.3,0.9,0.7c0.1,0.4,0,0.8-0.3,1.1
			c-0.2,0.2-0.5,0.2-0.8,0.2c-1.7,0-3.5,0-5.2,0c0,0.2,0,0.4,0,0.5c0,0.3,0,0.7,0,1c0,0.3,0,0.6,0,1c0,0.2,0,0.4,0,0.7
			c1.8,0,3.5,0,5.3,0c0.2,0,0.5,0.1,0.7,0.2c0.3,0.3,0.4,0.7,0.3,1.1c-0.1,0.4-0.5,0.7-0.9,0.7c-3,0-5.9,0-8.9,0c0,0.1,0,0.2,0,0.3
			c0,0.3,0,0.6,0,0.9c0,0.3,0,0.6,0,0.9c0,0.4,0,0.8,0,1.2c0,0.4,0.1,0.8,0.5,1c0.3,0.2,0.7,0.2,1.1,0.2c5.1,0,10.1,0,15.2,0
			c0.8,0,1.6,0,2.5-0.1c0.8-0.1,1.7-0.5,2.2-1.2c0.3-0.4,0.5-0.8,0.6-1.2c0-0.3,0.1-0.6,0.1-0.9c0-0.3,0-0.6,0-0.9
			c0-0.4,0-0.8,0-1.2l0,0c0-0.4-0.1-0.7-0.3-1c-0.2-0.3-0.3-0.6-0.6-0.8l0,0c-0.5-0.5-1.1-0.8-1.8-0.9c0-0.1,0-0.2,0-0.4
			c0.5-0.1,1-0.3,1.4-0.6c0.3-0.2,0.6-0.5,0.8-0.9c0.2-0.3,0.3-0.7,0.4-1.1c0-0.4,0.1-0.8,0.1-1.2c0-0.5,0-1,0-1.4
			c-0.1-0.6-0.3-1.2-0.7-1.6c-0.3-0.3-0.7-0.6-1.2-0.7c-0.6-0.2-1.3-0.2-2-0.2C-2266.4,30.4-2272.4,30.4-2278.5,30.4z M-2299,35.8
			c0.1-0.3,0.2-0.6,0.3-1c0.5,0,1,0,1.5,0c0.4,0,0.7,0.2,0.9,0.5c0.2,0.5,0.3,1,0.4,1.5c0.1,0.2,0.1,0.4,0.2,0.6
			c0.1,0.3,0.2,0.7,0.3,1c0.1,0.3,0.2,0.6,0.2,0.9c0.1,0.4,0.2,0.8,0.3,1.2c-0.7,0.1-1.4,0-2.1,0c-1.1,0-2.2,0-3.4,0
			c0,0,0-0.1,0-0.2c0.1-0.3,0.2-0.6,0.2-0.8c0.1-0.4,0.2-0.7,0.3-1.1c0.1-0.3,0.2-0.6,0.2-0.9c0.1-0.2,0.1-0.4,0.2-0.6
			C-2299.2,36.6-2299.1,36.2-2299,35.8z M-2298.5,35.3c-0.5,1.6-0.9,3.3-1.4,4.9c1.5,0,3,0,4.4,0c-0.4-1.4-0.8-2.9-1.2-4.3
			c-0.1-0.3-0.2-0.5-0.5-0.6C-2297.6,35.3-2298,35.3-2298.5,35.3z"/>
		<path id="Fill-195" class="st197" d="M-2286.2,31.3c0.5,0.4,0.9,1,1.1,1.6c0,0.1-0.1,0.2-0.3,0.2c-3.6,0-7.1,0-10.7,0
			c-1.3,0.1-2.5,0.1-3.8,0.1c-0.6,0-1.2,0-1.8,0c-0.2,0-0.4,0-0.6,0c-0.1-0.1-0.1-0.1-0.2-0.2c0.1-0.5,0.3-1,0.4-1.4
			c0.4,0.2,0.9,0.1,1.4,0.1c4.8,0,9.5,0,14.3,0c0-0.1-0.1-0.1-0.1-0.2C-2286.3,31.4-2286.2,31.3-2286.2,31.3"/>
		<path id="Fill-196" class="st198" d="M-2257.3,31.5c0-0.1,0.1-0.2,0.1-0.3c0.4,0.4,0.6,1,0.7,1.6c-0.2,0.1-0.4,0.2-0.6,0.2
			c-2,0-4,0-5.9,0c-1.3,0-2.7,0-4,0c-0.5,0-1,0-1.5,0.1c-0.8,0-1.5,0-2.3,0c-0.6,0-1.3,0-1.9,0c-0.5-0.1-1.1,0-1.6,0
			c-1.4,0-2.8,0-4.2,0c0-0.5,0-1.1,0-1.6c0.2,0.1,0.3,0.1,0.5,0.2c0.6,0,1.2,0,1.9,0c5.9,0,11.8,0,17.7,0
			C-2258,31.6-2257.7,31.6-2257.3,31.5z M-2306.3,31.6c0.2,0,0.5,0,0.7-0.2c0,0.5,0,1,0,1.6c-0.7,0.1-1.5,0-2.2,0.1
			c-0.5,0-1,0-1.5,0.1c-2.4,0-4.8,0-7.2,0c-0.8,0-1.5,0-2.3,0c-0.2,0-0.4-0.1-0.6-0.1c-0.7,0.1-1.4,0-2.2,0.1c-1.9,0-3.7,0-5.6,0
			c-0.2,0-0.4,0-0.5-0.1c0-0.6,0.2-1.1,0.5-1.6c0.3,0.3,0.7,0.2,1.1,0.2c6.2,0,12.4,0,18.6,0C-2307.1,31.7-2306.7,31.6-2306.3,31.6z
			"/>
		<path id="Fill-197" class="st199" d="M-2285.1,32.9L-2285.1,32.9c0.2,0.5,0.4,1,0.6,1.5c-0.3-0.1-0.6,0-0.9,0c-4,0-8.1,0-12.1,0
			c-0.8,0.1-1.6,0.1-2.4,0.1c-0.8,0-1.6,0-2.4,0c-0.2,0-0.4-0.1-0.5-0.2c0.1-0.4,0.3-0.9,0.4-1.3c0.1,0.1,0.1,0.1,0.2,0.2
			c0.2,0,0.4,0,0.6,0c0.6,0.1,1.2,0,1.8,0c1.3,0,2.5,0,3.8-0.1c3.6,0,7.1,0,10.7,0C-2285.2,33.1-2285.1,33-2285.1,32.9"/>
		<path id="Fill-198" class="st200" d="M-2257.1,33c0.2,0,0.4-0.1,0.6-0.2c0,0.5,0.1,1,0,1.4c-0.2,0.1-0.3,0.2-0.5,0.2
			c-6.7,0-13.4,0-20.1,0c-0.4,0-0.8-0.1-1.1,0.1c-0.4-0.4-0.3-1-0.3-1.5c1.4,0,2.8,0,4.2,0c0.5,0,1.1,0,1.6,0c0.6,0.1,1.3,0,1.9,0
			c0.8,0,1.5,0,2.3,0c0.5-0.1,1-0.1,1.5-0.1c1.3,0,2.7,0,4,0C-2261,33-2259.1,33-2257.1,33"/>
		<path id="Fill-199" class="st201" d="M-2302.8,34.2c0.2,0.1,0.3,0.2,0.5,0.2c0.8-0.1,1.6,0,2.4,0c0.8,0,1.6,0,2.4-0.1
			c4,0,8.1,0,12.1,0c0.3,0,0.6-0.1,0.9,0c0.1,0.3,0.2,0.6,0.3,1l0,0.1c-0.3,0.1-0.6,0.1-0.9,0.1c-1.8,0-3.5,0-5.3,0
			c-0.7,0-1.3,0.1-2-0.1c-0.3,0-0.5,0-0.8,0.1c-0.2,0-0.5-0.1-0.7-0.1c-0.8,0-1.6,0-2.4,0c-0.2-0.3-0.5-0.5-0.9-0.5
			c-0.5,0-1,0-1.5,0c-0.1,0.3-0.2,0.6-0.3,1c-0.3,0.1-0.6,0.1-0.9,0.1c-0.9,0-1.8,0-2.7,0c-0.2,0-0.4-0.2-0.7-0.1
			C-2303.1,35.3-2302.9,34.8-2302.8,34.2z M-2256.9,34.4c0.2,0,0.3-0.1,0.5-0.2c0,0.4,0,0.8-0.1,1.2c-0.8,0.1-1.6,0-2.4,0.1
			c-1.8,0-3.6,0-5.4,0c-0.8,0.1-1.6,0.1-2.4,0.1c-0.7,0-1.3,0.1-2-0.1c-0.1-0.4-0.5-0.7-0.9-0.7c-2.5,0-5.1,0-7.6,0
			c-0.4,0-0.8-0.1-1.1-0.4c0.4-0.1,0.8-0.1,1.1-0.1C-2270.3,34.4-2263.6,34.4-2256.9,34.4z"/>
		<path id="Fill-200" class="st202" d="M-2327.6,34.3c0.1,0.1,0.3,0.2,0.5,0.2c1.2,0,2.3,0,3.5,0c1,0,1.9,0.1,2.9-0.1
			c1.3,0,2.7,0,4,0c0.3,0,0.6,0.1,0.8,0.1c0.3,0,0.6-0.1,0.9-0.1c2.8,0,5.6,0,8.4,0c0.3,0.1,0.6,0,0.9-0.1l0,0
			c-0.2,0.4-0.7,0.5-1.2,0.5c-2.8,0-5.7,0-8.5,0c0,0.4,0,0.7,0,1.1c-1.3,0-2.6,0-4,0c-0.3,0-0.7,0.1-1,0.1c-2.4,0-4.8,0-7.2,0
			C-2327.6,35.5-2327.6,34.9-2327.6,34.3"/>
		<path id="Fill-201" class="st203" d="M-2296.3,35.4c0.8,0,1.6,0,2.4,0c0.2,0,0.5,0.1,0.7,0.1c0.3,0,0.5-0.1,0.8-0.1
			c0.7,0.1,1.3,0,2,0.1c1.8,0,3.5,0,5.3,0c0.3,0,0.6,0,0.9-0.1l0,0c0.2,0.4,0.3,0.9,0.5,1.3c-0.2,0.2-0.5,0.1-0.8,0.2
			c-3.4,0-6.9,0-10.3,0c-0.3,0-0.6,0-0.8,0c-0.1,0-0.2,0.1-0.2,0.1C-2296,36.4-2296.1,35.9-2296.3,35.4"/>
		<path id="Fill-202" class="st204" d="M-2268.6,35.6c0.7,0.2,1.3,0.1,2,0.1c0.8,0,1.6,0.1,2.4-0.1c1.8,0,3.6,0,5.4,0
			c0.8,0,1.6,0,2.4-0.1c-0.1,0.4-0.2,0.7-0.4,1.1c-0.4,0.2-0.8,0-1.2,0.1c-3.2,0-6.5,0-9.7,0c-0.4,0-0.8,0-1.2-0.1
			C-2268.6,36.4-2268.5,36-2268.6,35.6"/>
		<path id="Fill-203" class="st205" d="M-2303.3,35.9c0.2-0.1,0.4,0.1,0.7,0.1c0.9,0,1.8,0,2.7,0c0.3,0,0.6-0.1,0.9-0.1
			c-0.1,0.4-0.2,0.7-0.3,1.1c-0.1,0-0.2-0.1-0.3-0.1c-1.3,0.1-2.6,0-3.9,0C-2303.5,36.5-2303.4,36.2-2303.3,35.9"/>
		<path id="Fill-204" class="st206" d="M-2327.6,36c2.4,0,4.8,0,7.2,0c0.3,0,0.7-0.1,1-0.1c1.3,0,2.6,0,4,0c0,0.4,0,0.8,0,1.3
			c-4.1,0-8.1,0-12.2,0C-2327.6,36.8-2327.6,36.4-2327.6,36"/>
		<path id="Fill-205" class="st207" d="M-2269.7,36.8c0.3,0,0.5-0.1,0.8-0.2c0.4,0.1,0.8,0.1,1.2,0.1c3.2,0,6.5,0,9.7,0
			c0.4-0.1,0.8,0.1,1.2-0.1c-0.2,0.3-0.5,0.6-0.8,0.9c-0.3-0.2-0.7-0.1-1.1-0.1c-2.5,0-5,0-7.5,0c-0.4,0-0.9,0.1-1.3,0.1
			c-2.2,0-4.5,0-6.7,0c-0.2,0-0.4,0-0.6-0.1c0-0.2,0-0.4,0-0.5C-2273.2,36.8-2271.4,36.8-2269.7,36.8"/>
		<path id="Fill-206" class="st208" d="M-2284.5,36.8c0.3,0,0.6,0,0.8-0.2c0.1,0.2,0.2,0.5,0.2,0.7c-0.3,0.1-0.7,0.1-1.1,0.1
			c-3.7,0-7.5,0-11.2,0c0-0.2-0.1-0.4-0.2-0.6c0.1,0,0.2-0.1,0.2-0.1c0.3,0,0.6,0,0.8,0C-2291.4,36.8-2287.9,36.8-2284.5,36.8z
			 M-2299.6,36.8c0.1,0,0.2,0.1,0.3,0.1c-0.1,0.2-0.1,0.4-0.2,0.6c-0.2,0-0.4,0.1-0.6,0.1c-0.9,0-1.8,0-2.7,0c-0.4,0-0.7,0.1-1.1,0
			c0.1-0.3,0.2-0.5,0.2-0.8C-2302.3,36.8-2300.9,36.9-2299.6,36.8z"/>
		<path id="Fill-207" class="st209" d="M-2327.6,37.2c4.1,0,8.1,0,12.2,0c0,0.4,0,0.9,0,1.3c-3.9,0-7.7,0-11.6,0
			c-0.2,0-0.4,0-0.6,0.1C-2327.6,38.1-2327.6,37.7-2327.6,37.2"/>
		<path id="Fill-208" class="st210" d="M-2283.4,37.4L-2283.4,37.4c0.1,0.3,0.2,0.7,0.4,1c-0.3-0.1-0.7,0-1,0c-1.4,0-2.8,0-4.2,0
			c-0.5,0-1,0.1-1.5,0.1c-1.9,0-3.7,0.1-5.6-0.1c-0.1-0.3-0.2-0.7-0.3-1c3.7,0,7.5,0,11.2,0C-2284.1,37.5-2283.8,37.5-2283.4,37.4z
			 M-2300.1,37.6c0.2,0,0.4,0,0.6-0.1c-0.1,0.3-0.2,0.6-0.2,0.9c-1,0-2,0-3,0c-0.4,0-0.9,0-1.3-0.1c0.1-0.3,0.2-0.5,0.2-0.8l0,0
			c0.4,0.1,0.7,0,1.1,0C-2301.8,37.6-2300.9,37.6-2300.1,37.6z"/>
		<path id="Fill-209" class="st211" d="M-2274.9,37.4c0.2,0,0.4,0.1,0.6,0.1c2.2,0,4.5,0,6.7,0c0.4,0,0.9-0.1,1.3-0.1
			c2.5,0,5,0,7.5,0c0.3,0,0.7,0,1.1,0.1c-0.4,0.3-0.9,0.5-1.4,0.6c0,0.1,0,0.2,0,0.4c-0.7-0.1-1.3-0.1-2-0.1c-3.5,0-7,0-10.5,0
			c-1.1,0-2.1,0-3.2,0.1C-2274.9,38.1-2274.9,37.7-2274.9,37.4"/>
		<path id="Fill-210" class="st212" d="M-2304.4,39.5c0.1-0.4,0.2-0.8,0.3-1.1c0.4,0.1,0.9,0,1.3,0.1c1,0,2,0,3,0
			c-0.1,0.4-0.2,0.7-0.3,1.1C-2301.5,39.5-2302.9,39.5-2304.4,39.5"/>
		<path id="Fill-211" class="st213" d="M-2284.1,38.5c0.3,0,0.7-0.1,1,0l0,0c0.1,0.3,0.2,0.6,0.3,0.9c-3.8,0-7.5,0-11.3,0
			c-0.4,0-0.8-0.1-1.2,0c-0.1-0.3-0.2-0.6-0.2-0.9c1.9,0.1,3.7,0,5.6,0.1c0.5,0,1-0.1,1.5-0.1C-2286.9,38.5-2285.5,38.5-2284.1,38.5
			z M-2274.9,38.4c1.1-0.1,2.1-0.1,3.2-0.1c3.5,0,7,0,10.5,0c0.7,0,1.3,0,2,0.1c0.7,0.1,1.3,0.4,1.8,0.9c-0.3,0.1-0.6,0-0.9,0
			c-3.3,0-6.5,0-9.8,0c-0.5,0-0.9,0-1.4,0c-0.4,0.1-0.7,0-1.1,0c-1.1,0-2.2,0-3.2,0c-0.4,0-0.7,0.1-1.1,0
			C-2274.9,39.1-2274.9,38.8-2274.9,38.4z"/>
		<path id="Fill-212" class="st214" d="M-2327.6,38.6c0.2,0,0.4-0.1,0.6-0.1c3.9,0,7.7,0,11.6,0c0,0.3,0,0.7,0,1c-3.2,0-6.3,0-9.5,0
			c-0.2,0-0.4,0-0.5,0c-0.7,0.1-1.4,0-2.1,0.1C-2327.6,39.3-2327.6,38.9-2327.6,38.6"/>
		<path id="Fill-213" class="st215" d="M-2295.2,39.3c0.4-0.1,0.8,0,1.2,0c3.8,0,7.5,0,11.3,0c0.1,0.4,0.3,0.8,0.4,1.2
			c0,0-0.1,0-0.2,0c-0.1,0-0.1-0.1-0.2-0.1c-0.3,0.1-0.7,0-1,0c-0.8,0-1.6,0-2.5,0c-0.8-0.1-1.5,0-2.3,0c-0.4,0-0.8,0.1-1.2,0.1
			c-1,0-1.9,0-2.9,0c-0.6,0-1.1,0-1.7-0.1c-0.2-0.1-0.4,0-0.5,0.1C-2295,40.1-2295.1,39.7-2295.2,39.3"/>
		<path id="Fill-214" class="st216" d="M-2269.4,39.3c0.4-0.1,0.9,0,1.4,0c3.3,0,6.5,0,9.8,0c0.3,0,0.6,0.1,0.9,0l0,0
			c0.2,0.2,0.4,0.5,0.6,0.8c-0.3,0.2-0.7,0.1-1,0.1c-3.1,0-6.1,0-9.2,0c-0.7-0.1-1.3,0-2,0c-0.2-0.1-0.4-0.2-0.7-0.2
			c-1.8,0-3.5,0-5.3,0c0-0.2,0-0.4,0-0.7c0.4,0,0.7,0,1.1,0c1.1,0,2.2,0,3.2,0C-2270.2,39.4-2269.8,39.4-2269.4,39.3"/>
		<path id="Fill-215" class="st217" d="M-2327.6,39.6c0.7,0,1.4,0,2.1-0.1c0.2,0,0.4,0,0.5,0c3.2,0,6.3,0,9.5,0c0,0.4,0,0.7,0,1.1
			c-0.4-0.1-0.8-0.1-1.2-0.1c-1.2,0-2.4,0-3.6,0c-1.4,0-2.9,0-4.3,0c-1,0.1-2,0-3,0.1C-2327.6,40.3-2327.6,39.9-2327.6,39.6"/>
		<path id="Fill-216" class="st218" d="M-2304.6,40.4c0.1-0.3,0.2-0.5,0.2-0.8c1.4,0,2.9,0,4.3,0c-0.1,0.3-0.2,0.6-0.2,0.8
			C-2301.7,40.4-2303.2,40.4-2304.6,40.4"/>
		<path id="Fill-217" class="st219" d="M-2256.8,40.1c0.1,0.3,0.3,0.7,0.3,1c0,0-0.1,0.1-0.1,0.1c-0.9-0.2-1.9,0-2.8-0.1
			c-0.4,0-0.8,0.1-1.2,0.1c-2.4,0-4.7,0-7.1,0c-0.3,0-0.6,0-0.9,0.1c0.1-0.4,0-0.8-0.3-1.1c0.7,0,1.3-0.1,2,0c3.1,0,6.1,0,9.2,0
			C-2257.4,40.2-2257.1,40.3-2256.8,40.1z M-2304.6,40.4c1.5,0,2.9,0,4.4,0c0,0,0,0.1,0,0.2c1.1,0,2.2,0,3.4,0c0.7,0,1.4,0,2.1,0
			c0.2-0.1,0.3-0.2,0.5-0.1c0.6,0.1,1.1,0.1,1.7,0.1c1,0,1.9,0,2.9,0c0.4,0,0.8-0.1,1.2-0.1c0.8,0,1.5,0,2.3,0c0.8-0.1,1.6,0,2.5,0
			c0.3,0,0.7,0.1,1,0c0.1,0,0.1,0.1,0.2,0.1c0,0,0.1,0,0.2,0h0c0.1,0.2,0.1,0.4,0.2,0.6c-0.3,0.1-0.7,0.1-1,0.1c-4.9,0-9.9,0-14.8,0
			c-2.3,0-4.6,0-6.9,0C-2304.8,40.9-2304.7,40.6-2304.6,40.4L-2304.6,40.4z"/>
		<path id="Fill-218" class="st220" d="M-2327.6,40.6c1,0,2,0.1,3-0.1c1.4,0,2.9,0,4.3,0c1.2,0,2.4,0,3.6,0c0.4,0,0.8,0,1.2,0.1
			c0,0.4,0,0.9,0,1.3c-0.5-0.1-1.1-0.1-1.7-0.1c-1.3,0-2.6,0-3.9,0c-0.4,0-0.8,0-1.1,0c-0.4,0.1-0.8,0-1.3,0c-1.2,0-2.4,0-3.6,0
			c-0.2,0-0.4,0-0.6,0.1C-2327.6,41.5-2327.6,41.1-2327.6,40.6"/>
		<path id="Fill-219" class="st221" d="M-2283.2,41.2c0.3,0,0.7,0,1-0.1c0.2,0.5,0.4,1.1,0.6,1.6c-0.2-0.1-0.4-0.2-0.5-0.1
			c0,0-0.1,0-0.1-0.1c0,0,0,0.1-0.1,0.1c-0.1-0.1-0.3-0.2-0.5-0.1c-0.9,0-1.7,0-2.6,0c-0.7,0.1-1.4,0.1-2.1,0.1
			c-5.3,0-10.6,0-15.9,0c-0.6,0-1.2,0-1.9,0.1l0,0c0.1-0.5,0.3-1,0.4-1.4h0c2.3,0,4.6,0,6.9,0C-2293,41.2-2288.1,41.2-2283.2,41.2z
			 M-2256.5,41.1L-2256.5,41.1c0,0.4,0.1,0.8,0.1,1.2c-0.4-0.1-0.9-0.1-1.3-0.1c-3.2,0-6.4,0-9.6,0c-1,0-2.1,0-3.1,0
			c-0.7,0.1-1.4,0-2.1,0.1c-1.4,0-2.9,0-4.3,0c-0.6,0-1.1-0.1-1.7,0.1c0-0.1,0-0.2,0-0.3c3,0,5.9,0,8.9,0c0.4,0,0.8-0.3,0.9-0.7
			c0.3-0.1,0.6-0.2,0.9-0.1c2.4,0,4.7,0,7.1,0c0.4,0,0.8-0.1,1.2-0.1c0.9,0.1,1.9-0.1,2.8,0.1C-2256.6,41.2-2256.5,41.1-2256.5,41.1
			z"/>
		<path id="Fill-220" class="st222" d="M-2322.2,41.9c0.4-0.1,0.8,0,1.1,0c1.3,0,2.6,0,3.9,0c0.6,0,1.1-0.1,1.7,0.1c0,0.3,0,0.7,0,1
			c-0.2-0.1-0.3-0.2-0.5-0.2c-1.7,0-3.4,0-5.2,0c-0.5,0-0.9,0.1-1.4,0.1c-1.5,0-2.9,0-4.4,0c-0.2,0-0.5,0-0.7,0.1c0-0.3,0-0.6,0-0.9
			c0.2,0,0.4-0.1,0.6-0.1c1.2,0,2.4,0,3.6,0C-2323,41.9-2322.6,41.9-2322.2,41.9"/>
		<path id="Fill-221" class="st223" d="M-2272.5,42.3c0.7,0,1.4,0.1,2.1-0.1c1,0,2,0,3.1,0c3.2,0,6.4,0,9.6,0c0.4,0,0.9,0,1.3,0.1
			c0,0.3,0,0.6,0,0.9c-0.5-0.1-1.1-0.1-1.6-0.1c-3.9,0-7.8,0-11.6,0c-0.8,0.1-1.6,0.1-2.5,0.1c-1.9,0-3.8,0-5.8,0
			c-0.2,0-0.4,0-0.5,0.1c0-0.3,0-0.6,0-0.9c0.6-0.1,1.1,0,1.7-0.1C-2275.4,42.3-2273.9,42.3-2272.5,42.3"/>
		<path id="Fill-222" class="st224" d="M-2287.5,42.6c0.7,0,1.4,0,2.1-0.1c0.9,0,1.7,0,2.6,0c0.2,0,0.3,0.1,0.5,0.1
			c0,0,0-0.1,0.1-0.1c0,0,0.1,0,0.1,0.1c0.2-0.1,0.4,0,0.5,0.1c0.1,0.4,0.3,0.7,0.4,1.1c-0.3-0.1-0.6,0-0.9,0c-3.6,0-7.3,0-10.9,0
			c-0.2,0-0.4,0-0.5,0c-0.1,0-0.1,0.1-0.2,0.2c0,0-0.1,0-0.1,0c-0.8-0.1-1.7,0-2.5,0c-1.6,0-3.1,0-4.7,0c0,0-0.1,0.1-0.1,0.1
			c-0.1,0-0.1,0-0.2,0c-0.1-0.1-0.2-0.2-0.3-0.2c-0.5,0-1,0-1.5,0c-0.5,0-1,0.1-1.5,0.1c-0.3,0-0.6,0.1-1,0.1
			c0.1-0.4,0.2-0.8,0.4-1.2l0.1,0c0.6,0,1.2-0.1,1.9-0.1C-2298.1,42.6-2292.8,42.6-2287.5,42.6"/>
		<path id="Fill-223" class="st225" d="M-2322.5,42.8c0.5,0,0.9-0.1,1.4-0.1c1.7,0,3.4,0,5.2,0c0.2,0,0.4,0.1,0.5,0.2
			c0,0.3,0,0.6,0,0.9c-2.4,0-4.8,0-7.1,0c-0.6,0-1.2,0-1.9-0.1c-0.7,0-1.3,0-2,0c-0.4,0-0.9-0.1-1.2,0.2c0-0.4,0-0.7,0-1.1
			c0.2,0,0.5-0.1,0.7-0.1C-2325.5,42.9-2324,42.8-2322.5,42.8"/>
		<path id="Fill-224" class="st226" d="M-2272.2,43.2c0.8,0,1.6,0,2.5-0.1c3.9,0,7.8,0,11.6,0c0.5,0,1.1-0.1,1.6,0.1
			c0,0.3,0,0.6-0.1,0.9c-0.7-0.2-1.4-0.2-2.1-0.2c-1.1,0-2.3,0-3.4,0c-0.8,0.1-1.5,0.1-2.3,0.1c-4.3,0-8.6,0-12.9,0
			c-0.4,0-0.9-0.1-1.2,0.2c0-0.3,0-0.6,0-0.9c0.2,0,0.4-0.1,0.5-0.1C-2276,43.2-2274.1,43.2-2272.2,43.2"/>
		<path id="Fill-225" class="st227" d="M-2293.8,43.9c0.1-0.1,0.1-0.1,0.2-0.2c0.2,0,0.4,0,0.5,0c3.6,0,7.3,0,10.9,0
			c0.3,0,0.6,0,0.9,0l0,0c0.1,0.4,0.3,0.8,0.4,1.1c-0.2-0.1-0.4-0.2-0.6-0.2c-1.3,0-2.6,0-3.8,0c-0.3,0-0.7,0.1-1,0.1
			c-2.1,0-4.2,0-6.3,0c-0.3,0-0.7,0-1,0.1c-0.1-0.4-0.2-0.7-0.3-1.1C-2293.9,43.8-2293.9,43.9-2293.8,43.9"/>
		<path id="Fill-226" class="st228" d="M-2327.6,44c0.3-0.3,0.8-0.2,1.2-0.2c0.7,0,1.3,0,2,0c0.6,0.1,1.2,0,1.9,0.1
			c2.4,0,4.8,0,7.1,0c0,0.6,0,1.2,0,1.9c-0.1-0.1-0.2-0.2-0.2-0.3c-0.3,0-0.7,0.1-1,0.1c-3.2,0-6.5,0-9.7,0c-0.3,0-0.6,0-0.8,0
			c-0.1,0.1-0.2,0.2-0.3,0.3C-2327.6,45.2-2327.6,44.6-2327.6,44"/>
		<path id="Fill-227" class="st229" d="M-2304.7,43.8c0.5,0,1-0.1,1.5-0.1c0.5,0,1,0,1.5,0c0.1,0,0.2,0.1,0.3,0.2c0.1,0,0.1,0,0.2,0
			c-0.1,0.4-0.2,0.7-0.3,1.1c-0.3-0.2-0.8-0.2-1.2-0.2c-0.9,0-1.7,0-2.6,0c-0.2,0-0.5,0-0.7,0.1c0.1-0.3,0.2-0.7,0.3-1h0
			C-2305.4,43.9-2305.1,43.8-2304.7,43.8"/>
		<path id="Fill-228" class="st230" d="M-2264.3,44c0.8,0,1.5,0.1,2.3-0.1c1.1,0,2.3,0,3.4,0c0.7,0,1.4-0.1,2.1,0.2
			c-0.1,0.4-0.3,0.9-0.6,1.2c-0.1,0-0.2,0-0.3,0c0-0.1,0.1-0.1,0.1-0.2c-1.8,0-3.5,0-5.3,0c-4.9,0-9.9,0-14.8,0
			c-0.4,0-0.8,0-1.2,0.2c0-0.4,0-0.8,0-1.2c0.4-0.2,0.8-0.1,1.2-0.2C-2272.9,44-2268.6,44-2264.3,44"/>
		<path id="Fill-229" class="st231" d="M-2286.3,44.9c0.3,0,0.7-0.1,1-0.1c1.3,0,2.6,0,3.8,0c0.2,0,0.4,0.1,0.6,0.2l0,0
			c0.2,0.5,0.4,1.1,0.5,1.6c-3.8,0-7.7,0-11.5,0c-0.4,0-0.8,0-1.2-0.3c-0.4-0.3-0.6-0.9-0.7-1.3c0.3-0.1,0.7-0.1,1-0.1
			C-2290.5,44.9-2288.4,44.9-2286.3,44.9z M-2306,45c0.2-0.1,0.4-0.1,0.7-0.1c0.9,0,1.7,0,2.6,0c0.4,0,0.8-0.1,1.2,0.2
			c-0.1,0.5-0.3,1-0.4,1.5c-1.5,0-3,0-4.5,0C-2306.4,46-2306.2,45.5-2306,45L-2306,45z"/>
		<path id="Fill-230" class="st232" d="M-2278.5,45.3c0.4-0.2,0.8-0.2,1.2-0.2c4.9,0,9.9,0,14.8,0c1.8,0,3.5,0,5.3,0
			c0,0.1-0.1,0.1-0.1,0.2c0.1,0,0.2,0,0.3,0c-0.5,0.7-1.4,1.1-2.2,1.2c-0.8,0.1-1.6,0.1-2.5,0.1c-5.1,0-10.1,0-15.2,0
			c-0.4,0-0.8,0-1.1-0.2C-2278.3,46.1-2278.5,45.7-2278.5,45.3"/>
		<path id="Fill-231" class="st233" d="M-2316.8,45.5c0.3,0,0.7-0.1,1-0.1c0.1,0.1,0.2,0.2,0.2,0.3c-0.1,0.5-0.6,0.8-1.1,0.8
			c-3.7,0-7.4,0-11,0c0-0.3,0-0.5,0-0.8c0.1-0.1,0.2-0.2,0.3-0.3c0.3-0.1,0.6,0,0.8,0C-2323.2,45.4-2320,45.5-2316.8,45.5"/>
		<path id="Fill-232" class="st234" d="M-2271.6-2.4c0.2-0.1,0.3-0.1,0.5-0.2c0,1.6,0.2,3.2,0.9,4.6c-0.3,0.1-0.5,0.2-0.7,0.4
			c-0.7-1.3-1.1-2.8-1.1-4.3c0-0.1,0-0.3,0-0.4C-2271.8-2.3-2271.7-2.4-2271.6-2.4z M-2295.6-24.1c0.4,0,0.8,0,1.1,0.1
			c-0.4,0-0.7,0.1-1.1,0.2C-2295.5-23.9-2295.5-24-2295.6-24.1z M-2295.4-22.2c1.1-0.1,2.2-0.2,3.4-0.3l0.1,0
			c-0.1,0.2-0.4,0.4-0.6,0.5c-0.6,0.4-1.3,0.5-1.9,0.3C-2294.8-21.8-2295.2-21.9-2295.4-22.2L-2295.4-22.2z M-2300.7-9.4
			c0.2,0,0.5-0.1,0.7-0.2c0.4,0,0.8,0,1.2,0c1.8,0.2,3.6,0.3,5.5,0.3c-0.1,0-0.3,0.1-0.4,0.1c-1.7,0-3.4-0.1-5-0.1
			c-0.8,0-1.6-0.1-2.5,0c-1,0.1-2,0.2-3,0.3c-1,0.1-1.9,0.1-2.9,0.3c-0.3,0.1-0.5,0.2-0.8,0.3c-0.7,0.4-1.2,1-1.7,1.6
			c-1.1,1.5-2.3,3-3.5,4.6c-0.1,0.1-0.2,0.3-0.4,0.4c0.5-0.7,1-1.4,1.5-2c0.5-0.7,0.9-1.3,1.4-2c0.5-0.7,1-1.4,1.6-2
			c0.5-0.5,1.1-0.9,1.8-1c1.9-0.2,3.8-0.4,5.7-0.5C-2301.3-9.3-2301-9.3-2300.7-9.4z"/>
	</g>
</g>
</svg>
