<?xml version="1.0" encoding="utf-8"?>
<!-- Generator: Adobe Illustrator 22.0.1, SVG Export Plug-In . SVG Version: 6.00 Build 0)  -->
<svg version="1.1" id="Слой_1" xmlns="http://www.w3.org/2000/svg" xmlns:xlink="http://www.w3.org/1999/xlink" x="0px" y="0px"
	 viewBox="0 0 188 47.4" style="enable-background:new 0 0 188 47.4;" xml:space="preserve">
<style type="text/css">
	.st0{fill:#682468;}
	.st1{fill:#EBB51F;}
	.st2{fill:#D14228;}
	.st3{fill:#FFFFFF;}
	.st4{fill:#0B0F10;}
	.st5{fill:#B7C8CC;}
	.st6{fill:#A5B9BF;}
	.st7{fill:#ECF3F1;}
	.st8{fill:#DAE6E4;}
	.st9{fill:#CCDADA;}
	.st10{fill:#9AAEB6;}
	.st11{fill:#B1C3C7;}
	.st12{fill:#778A96;}
	.st13{fill:#AEC0C4;}
	.st14{fill:#CFDCDC;}
	.st15{fill:#C2D1D2;}
	.st16{fill:#CDDBDB;}
	.st17{fill:#BACCCD;}
	.st18{fill:#C5D5D5;}
	.st19{fill:#D7E3E2;}
	.st20{fill:#8FA3AD;}
	.st21{fill:#92A6AE;}
	.st22{fill:#AEC0C5;}
	.st23{fill:#869AA4;}
	.st24{fill:#7F929E;}
	.st25{fill:#CEDCDC;}
	.st26{fill:#91A6AB;}
	.st27{fill:#E4EFEF;}
	.st28{fill:#A1B5B8;}
	.st29{fill:#B8CACC;}
	.st30{fill:#7E9699;}
	.st31{fill:#0B0F11;}
	.st32{fill:#1F292B;}
	.st33{fill:#354344;}
	.st34{fill:#516164;}
	.st35{fill:#9FB5B8;}
	.st36{fill:#A4B9B9;}
	.st37{fill:#AABDBD;}
	.st38{fill:#AEC2C4;}
	.st39{fill:#BDD0D0;}
	.st40{fill:#D1DFDC;}
	.st41{fill:#80939F;}
	.st42{fill:#7B8F99;}
	.st43{fill:#8599A2;}
	.st44{fill:#A4B7BC;}
	.st45{fill:#92A7AE;}
	.st46{fill:#9AB1B0;}
	.st47{fill:#B8C9CD;}
	.st48{fill:#7D919B;}
	.st49{fill:#B7CBC9;}
	.st50{fill:#D3E0E0;}
	.st51{fill:#CFDEDC;}
	.st52{fill:#E9F2EF;}
	.st53{fill:#F6F9F8;}
	.st54{fill:#DCEAED;}
	.st55{fill:#CCDCDA;}
	.st56{fill:#879AA4;}
	.st57{fill:#B8CDCB;}
	.st58{fill:#A4BBBA;}
	.st59{fill:#91AAA9;}
	.st60{fill:#7C9396;}
	.st61{fill:#D5E4E9;}
	.st62{fill:#91A8AA;}
	.st63{fill:#A5B9BA;}
	.st64{fill:#C6D8DD;}
	.st65{fill:#BFCECE;}
	.st66{fill:#91A5AE;}
	.st67{fill:#B7CBD1;}
	.st68{fill:#ACC2C7;}
	.st69{fill:#7C8F9B;}
	.st70{fill:#9CAFB9;}
	.st71{fill:#8FA2AC;}
	.st72{fill:#859AA4;}
	.st73{fill:#D9E5E3;}
	.st74{fill:#CAD9DA;}
	.st75{fill:#E3EEEB;}
	.st76{fill:#C6D6D7;}
	.st77{fill:#D6E2E1;}
	.st78{fill:#B1C3C6;}
	.st79{fill:#9FB4BC;}
	.st80{fill:#ABBCC2;}
	.st81{fill:#AABCC2;}
	.st82{fill:#F1F5F4;}
	.st83{fill:#8497A3;}
	.st84{fill:#BAC9CD;}
	.st85{fill:#CBD9DA;}
	.st86{fill:#E2EBEB;}
	.st87{fill:#95AAB1;}
	.st88{fill:#EFF5F3;}
	.st89{fill:#C4D4D4;}
	.st90{fill:#799093;}
	.st91{fill:#D2DFDF;}
	.st92{fill:#B7C8CB;}
	.st93{fill:#E4EDEC;}
	.st94{fill:#A6BABE;}
	.st95{fill:#95A9B1;}
	.st96{fill:#A5B7BE;}
	.st97{fill:#AEC3C1;}
	.st98{fill:#879BA6;}
	.st99{fill:#C1D3D4;}
	.st100{fill:#8CA1A5;}
	.st101{fill:#D6E2E2;}
	.st102{fill:#E7EEEF;}
	.st103{fill:#94A8AF;}
	.st104{fill:#8B9EA8;}
	.st105{fill:#879AA5;}
	.st106{fill:#A9BFBD;}
	.st107{fill:#9AAFB6;}
	.st108{fill:#D9E5E5;}
	.st109{fill:#B4C6CA;}
	.st110{fill:#D2DDDF;}
	.st111{fill:#BACECD;}
	.st112{fill:#8598A1;}
	.st113{fill:#91A8A9;}
	.st114{fill:#768995;}
	.st115{fill:#B7CAC9;}
	.st116{fill:#F7F9F9;}
	.st117{fill:#E2EAEB;}
	.st118{fill:#C8D9D9;}
	.st119{fill:#C1D0D2;}
	.st120{fill:#AFC2C5;}
	.st121{fill:#B1C2C6;}
	.st122{fill:#F2F7F5;}
	.st123{fill:#778B96;}
	.st124{fill:#AABDC2;}
	.st125{fill:#E6EFEE;}
	.st126{fill:#BDCED0;}
	.st127{fill:#A1B6BC;}
	.st128{fill:#8DA0AA;}
	.st129{fill:#D5E0E2;}
	.st130{fill:#AFC3C6;}
	.st131{fill:#EFF3F4;}
	.st132{fill:#ADBEC3;}
	.st133{fill:#778B98;}
	.st134{fill:#879FA0;}
	.st135{fill:#9BB1B6;}
	.st136{fill:#C2D0D3;}
	.st137{fill:#A7BBBF;}
	.st138{fill:#D8E2E3;}
	.st139{fill:#C0CED1;}
	.st140{fill:#B1C5C4;}
	.st141{fill:#EDF3F1;}
	.st142{fill:#E9F1EF;}
	.st143{fill:#9CB1B7;}
	.st144{fill:#96ACB2;}
	.st145{fill:#C5D8D5;}
	.st146{fill:#B1C5C3;}
	.st147{fill:#D7E5E2;}
	.st148{fill:#B0C1C5;}
	.st149{fill:#859AA0;}
	.st150{fill:#6E8390;}
	.st151{fill:#C0D1D0;}
	.st152{fill:#F2F6F5;}
	.st153{fill:#748793;}
	.st154{fill:#D2E1DF;}
	.st155{fill:#90A7AD;}
	.st156{fill:#E0EAE9;}
	.st157{fill:#576B7B;}
	.st158{fill:#81959F;}
	.st159{fill:#A4B5BB;}
	.st160{fill:#8FA3AA;}
	.st161{fill:#D3E0DF;}
	.st162{fill:#F1F6F5;}
	.st163{fill:#9DB2B8;}
	.st164{fill:#C2D4D2;}
	.st165{fill:#CADCD9;}
	.st166{fill:#B3C7C5;}
	.st167{fill:#DDECE7;}
	.st168{fill:#A4BABB;}
	.st169{fill:#C9D8D7;}
	.st170{fill:#DFE9EB;}
	.st171{fill:#94A8AB;}
	.st172{fill:#D1E0DD;}
	.st173{fill:#7A9094;}
	.st174{fill:#BBCECD;}
	.st175{fill:#D9E4E6;}
	.st176{fill:#8497A2;}
	.st177{fill:#D0DFDC;}
	.st178{fill:#A0B2B8;}
	.st179{fill:#B5C8C6;}
	.st180{fill:#829799;}
	.st181{fill:#ABBFBF;}
	.st182{fill:#ACC0C0;}
	.st183{fill:#D1DEDC;}
	.st184{fill:#7A9093;}
	.st185{fill:#7F9699;}
	.st186{fill:#F0F5F3;}
	.st187{fill:#E7F0EF;}
	.st188{fill:#E5EEED;}
	.st189{fill:#EDF1F2;}
	.st190{fill:#E3ECEA;}
	.st191{fill:#CEDDD8;}
	.st192{fill:#C8D6D7;}
	.st193{fill:#CAD7D8;}
	.st194{fill:#B7CBC4;}
	.st195{fill:#AFC0C4;}
	.st196{fill:#B2C3C7;}
	.st197{fill:#E2ECEB;}
	.st198{fill:#E1EBEA;}
	.st199{fill:#F3F7F6;}
	.st200{fill:#F4F8F7;}
	.st201{fill:#FCFEFD;}
	.st202{fill:#FCFDFC;}
	.st203{fill:#EFF3F3;}
	.st204{fill:#EDF3F2;}
	.st205{fill:#EBF1F1;}
	.st206{fill:#E9EFEF;}
	.st207{fill:#DFE8E7;}
	.st208{fill:#DEE8E7;}
	.st209{fill:#D3DFDF;}
	.st210{fill:#D2DDDD;}
	.st211{fill:#D2DEDE;}
	.st212{fill:#BDCECD;}
	.st213{fill:#C0CFCF;}
	.st214{fill:#C0CFCE;}
	.st215{fill:#ADC0C0;}
	.st216{fill:#AEC1C0;}
	.st217{fill:#ACBFBF;}
	.st218{fill:#ADC0BF;}
	.st219{fill:#A0B3B4;}
	.st220{fill:#9BB0B1;}
	.st221{fill:#92A8A8;}
	.st222{fill:#8EA3A3;}
	.st223{fill:#879D9C;}
	.st224{fill:#839998;}
	.st225{fill:#819796;}
	.st226{fill:#7E9393;}
	.st227{fill:#778D8D;}
	.st228{fill:#748A8B;}
	.st229{fill:#768D8D;}
	.st230{fill:#73898A;}
	.st231{fill:#698080;}
	.st232{fill:#687E7F;}
	.st233{fill:#677E7E;}
	.st234{fill:#FFFFFE;}
	.st235{fill:#013C6D;}
	.st236{fill:#EF7F1A;}
	.st237{fill:#D87D1A;}
	.st238{fill:#013D6F;}
	.st239{fill:#023E70;}
	.st240{fill:#D31145;}
	.st241{fill:#1A9F29;}
	.st242{fill:#00674C;}
	.st243{fill:#6EC72D;}
	.st244{fill:#1B1A19;}
	.st245{fill:#9E0918;}
	.st246{fill:#004383;}
	.st247{fill:#004382;}
</style>
<g id="Карусель-логотипов">
	<g id="logosber" transform="translate(2466.000000, 49.000000)">
		<path id="Shape_4_" class="st241" d="M-2416.6-27.3c0.8,0.9,1.7,1.5,2.9,1.9c1.2,0.5,2.5,0.7,4.1,0.7c0.8,0,1.6-0.1,2.2-0.2
			c0.7-0.1,1.2-0.2,1.8-0.5c0.5-0.2,1-0.4,1.5-0.5c0.4-0.2,0.8-0.4,1.1-0.5l-0.5-1.2c-0.3,0.2-0.6,0.3-0.9,0.5s-0.6,0.2-1,0.4
			c-0.4,0.1-0.8,0.2-1.2,0.2c-0.5,0.1-1,0.1-1.6,0.1c-1.2,0-2.2-0.2-2.9-0.7c-0.8-0.5-1.3-1.1-1.8-1.8c-0.4-0.8-0.7-1.7-0.9-2.7
			c-0.2-1.1-0.2-2.2-0.2-3.4c0-0.9,0.1-1.9,0.2-2.9s0.3-1.9,0.7-2.6c0.4-0.8,0.9-1.4,1.6-1.9c0.7-0.5,1.6-0.8,2.8-0.8
			c1.1,0,2,0.3,2.8,0.9s1.2,1.5,1.5,2.6h1.2v-3.8c-0.4-0.2-0.8-0.3-1.2-0.5c-0.5-0.2-0.9-0.2-1.5-0.3c-0.5-0.1-1-0.1-1.6-0.2
			c-0.5,0-0.9-0.1-1.3-0.1c-1.7,0-3.1,0.2-4.4,0.7c-1.2,0.5-2.2,1.2-3,2c-0.8,0.9-1.3,1.9-1.7,3.2c-0.4,1.2-0.5,2.7-0.5,4.3
			c0,1.5,0.2,2.9,0.5,4C-2417.9-29.1-2417.3-28-2416.6-27.3z"/>
		<path id="Shape_5_" class="st241" d="M-2340.8-25.5c0.9-0.1,1.9-0.4,2.6-0.8c0.8-0.5,1.4-1.1,1.8-1.9c0.5-0.9,0.7-2,0.7-3.5
			c0-1.1-0.2-1.9-0.5-2.7s-0.8-1.3-1.5-1.9c-0.7-0.5-1.6-0.8-2.7-1c-1.1-0.2-2.4-0.3-4-0.3h-1.6v-4.6c0-0.5,0.1-0.8,0.3-0.9
			c0.2-0.2,0.6-0.2,1.2-0.2h2.3c0.7,0,1.3,0,1.8,0.1c0.5,0.1,0.9,0.2,1.1,0.4c0.3,0.2,0.5,0.5,0.7,0.9s0.4,0.9,0.5,1.6h1v-4.3h-13.3
			h-1.1v0.6c0.1,0,0.2,0.1,0.4,0.1c0.2,0.1,0.4,0.2,0.5,0.2s0.2,0.2,0.2,0.5c0,0.2,0.1,0.5,0.1,0.8v3.9v7.1v3.9c0,0.3,0,0.6-0.1,0.8
			c0,0.2-0.1,0.4-0.2,0.5c-0.1,0.1-0.2,0.2-0.5,0.2c-0.2,0.1-0.3,0.1-0.4,0.1v0.6h7.3C-2342.8-25.4-2341.8-25.4-2340.8-25.5z
			 M-2345.6-26.9c-0.2-0.2-0.2-0.3-0.2-0.5s-0.1-0.5-0.1-0.9v-8.1h1.6c1.5,0,2.6,0.4,3.2,1.2c0.6,0.8,0.9,2,0.9,3.7
			c0,1.2-0.1,2-0.3,2.7s-0.5,1.2-0.9,1.6c-0.4,0.3-0.8,0.5-1.2,0.7c-0.5,0.1-0.9,0.2-1.4,0.2c-0.5-0.1-0.9-0.1-1.1-0.2
			C-2345.2-26.7-2345.4-26.8-2345.6-26.9z"/>
		<path id="Shape_6_" class="st241" d="M-2361.2-25.9c-0.1,0-0.2-0.1-0.4-0.1c-0.2-0.1-0.4-0.2-0.5-0.2c-0.1-0.1-0.2-0.2-0.2-0.5
			c0-0.2-0.1-0.5-0.1-0.8v-5.4h2c1,0,2-0.1,2.9-0.2c0.9-0.2,1.7-0.5,2.4-0.9c0.7-0.5,1.3-1,1.7-1.9c0.4-0.8,0.6-1.9,0.6-3.2
			c0-1.2-0.2-2.3-0.6-3c-0.4-0.7-0.9-1.3-1.6-1.7s-1.4-0.6-2.3-0.7c-0.9-0.1-1.7-0.2-2.7-0.2h-6.6h-1.1v0.6c0.1,0,0.2,0.1,0.4,0.1
			c0.2,0.1,0.4,0.2,0.5,0.2c0.1,0.1,0.2,0.2,0.2,0.5c0,0.2,0.1,0.5,0.1,0.8v14.8c0,0.3,0,0.6-0.1,0.8c0,0.2-0.1,0.4-0.2,0.5
			c-0.1,0.1-0.2,0.2-0.5,0.2c-0.2,0.1-0.3,0.1-0.4,0.1v0.6h6.4V-25.9z M-2362.3-42.4c0-0.2,0-0.3,0.1-0.5c0-0.2,0.1-0.2,0.2-0.3
			c0.1-0.1,0.2-0.2,0.5-0.2c0.2,0,0.5-0.1,0.9-0.1c0.5,0,0.9,0.1,1.4,0.2c0.5,0.2,0.8,0.4,1.2,0.7c0.3,0.3,0.6,0.8,0.8,1.3
			c0.2,0.5,0.2,1.2,0.2,2c0,1.6-0.2,2.9-0.7,3.7c-0.5,0.9-1.3,1.3-2.5,1.3h-2V-42.4z"/>
		<path id="Shape_7_" class="st241" d="M-2369.8-29.7h-1.3c-0.2,0.8-0.3,1.3-0.5,1.8c-0.2,0.5-0.3,0.8-0.6,1
			c-0.2,0.2-0.6,0.4-1.1,0.4c-0.5,0.1-1.1,0.1-2,0.1c-0.8,0-1.4,0-1.8-0.1c-0.5-0.1-0.8-0.2-1-0.3c-0.2-0.2-0.4-0.4-0.4-0.6
			c-0.1-0.3-0.1-0.6-0.1-1.1v-6.1h2.6c0.2,0,0.5,0,0.8,0c0.3,0,0.6,0.1,0.9,0.1c0.3,0,0.6,0.1,0.9,0.2c0.3,0.1,0.6,0.2,0.8,0.3v-2.5
			c-0.2,0.2-0.5,0.2-0.8,0.3c-0.3,0.1-0.6,0.2-0.9,0.2c-0.3,0.1-0.6,0.1-0.9,0.1c-0.3,0-0.6,0-0.8,0h-2.6v-6.4
			c0-0.4,0.1-0.7,0.2-0.9c0.2-0.2,0.4-0.2,0.8-0.2h2.1c0.7,0,1.3,0,1.8,0.1c0.5,0.1,0.9,0.2,1.1,0.4c0.3,0.2,0.6,0.5,0.7,0.9
			s0.4,0.9,0.6,1.6h1v-4.1h-12.5h-1.1v0.6c0.1,0,0.2,0.1,0.4,0.1c0.2,0.1,0.4,0.2,0.5,0.2c0.1,0.1,0.2,0.2,0.2,0.5
			c0,0.2,0.1,0.5,0.1,0.8v14.8c0,0.3,0,0.6-0.1,0.8c0,0.2-0.1,0.4-0.2,0.5c-0.1,0.1-0.2,0.2-0.5,0.2c-0.2,0.1-0.3,0.1-0.4,0.1v0.6
			h14.1V-29.7z"/>
		<path id="Shape_8_" class="st241" d="M-2391.2-25.5c0.9-0.1,1.9-0.4,2.6-0.8c0.8-0.5,1.4-1.1,1.9-1.9c0.5-0.9,0.7-2,0.7-3.5
			c0-1.1-0.2-1.9-0.5-2.7c-0.3-0.8-0.8-1.3-1.5-1.9c-0.7-0.5-1.6-0.8-2.7-1c-1.1-0.2-2.4-0.3-4-0.3h-1.6v-4.6c0-0.5,0.1-0.8,0.3-0.9
			c0.2-0.2,0.6-0.2,1.2-0.2h2.3c0.7,0,1.3,0,1.8,0.1c0.5,0.1,0.9,0.2,1.1,0.4c0.3,0.2,0.5,0.5,0.7,0.9c0.2,0.4,0.4,0.9,0.5,1.6h1
			v-4.3h-13.3h-1.1v0.6c0.1,0,0.2,0.1,0.4,0.1c0.2,0.1,0.4,0.2,0.5,0.2s0.2,0.2,0.2,0.5c0,0.2,0.1,0.5,0.1,0.8v0.4v3.4v7v2.9
			c0,0,0,0,0,0.1v1c0,0.3,0,0.5-0.1,0.8c0,0.2-0.1,0.4-0.2,0.5c-0.1,0.1-0.2,0.2-0.5,0.2c-0.2,0.1-0.3,0.1-0.4,0.1v0.7h7.3
			C-2393.2-25.4-2392.2-25.4-2391.2-25.5z M-2396-26.9c-0.2-0.2-0.2-0.3-0.2-0.5s-0.1-0.5-0.1-0.9v-8.1h1.6c1.5,0,2.6,0.4,3.2,1.2
			c0.6,0.8,0.9,2,0.9,3.7c0,1.2-0.1,2-0.3,2.7c-0.2,0.7-0.5,1.2-0.9,1.6c-0.4,0.3-0.8,0.5-1.2,0.7c-0.5,0.1-0.9,0.2-1.4,0.2
			c-0.5-0.1-0.8-0.1-1.1-0.2C-2395.6-26.7-2395.8-26.8-2396-26.9z"/>
		<polygon id="Rectangle-path_3_" class="st241" points="-2418.6,-19.5 -2278,-19.5 -2278,-18 -2418.6,-18 		"/>
		<path id="Shape_9_" class="st241" d="M-2289.4-32c0.4,0.5,0.7,1,1.1,1.5c0.3,0.5,0.7,0.9,1,1.4c0.3,0.5,0.6,0.9,1,1.4
			c0.4,0.5,0.7,1,1,1.6c0.3,0.5,0.5,1,0.8,1.5l6.5,0.1c-0.7-0.7-1.3-1.4-2-2.1c-0.6-0.7-1.2-1.3-1.6-1.7c-0.6-0.7-1.2-1.3-1.6-1.9
			c-0.5-0.6-1-1.2-1.5-1.7c-0.5-0.5-0.9-1.2-1.3-1.7c-0.4-0.5-0.9-1.2-1.2-1.9l0.3-0.4c0.5-0.6,1-1.2,1.6-2s1.2-1.6,1.9-2.3
			c0.7-0.8,1.3-1.5,2-2.1c0.7-0.6,1.2-1.1,1.8-1.5h-4.5c-0.2,0.4-0.4,0.9-0.7,1.4c-0.3,0.5-0.6,1.2-1.1,1.8c-0.4,0.6-0.9,1.3-1.2,2
			c-0.5,0.7-0.9,1.3-1.3,1.9c-0.5,0.6-0.9,1.2-1.2,1.7c-0.4,0.5-0.7,0.9-0.9,1.3C-2290.2-33.1-2289.8-32.6-2289.4-32z"/>
		<path id="Shape_10_" class="st241" d="M-2289.8-25.9c-0.1,0-0.1-0.1-0.4-0.1c-0.2-0.1-0.4-0.2-0.4-0.2c-0.1-0.1-0.1-0.2-0.2-0.5
			c0-0.2-0.1-0.5-0.1-0.8v-14.8c0-0.3,0-0.6,0.1-0.8c0-0.2,0.1-0.4,0.2-0.5c0.1-0.1,0.2-0.2,0.4-0.2s0.3-0.1,0.4-0.1v-0.7h-4.9h-1
			v0.6c0.1,0,0.1,0.1,0.4,0.1c0.2,0.1,0.4,0.2,0.4,0.2c0.1,0.1,0.1,0.2,0.2,0.5c0,0.2,0.1,0.5,0.1,0.8v14.8c0,0.3,0,0.6-0.1,0.8
			c0,0.2-0.1,0.4-0.2,0.5c-0.1,0.1-0.2,0.2-0.4,0.2c-0.2,0.1-0.3,0.1-0.4,0.1v0.6h5.9V-25.9z"/>
		<path id="Shape_11_" class="st241" d="M-2331.8-27.8c0.2-1.1,0.7-2.6,1.3-4.6h6.2l0.9,2.5c0.4,1.1,0.7,2,0.9,2.8
			c0.2,0.8,0.4,1.3,0.4,1.7h4.9c-0.2-0.4-0.5-0.9-0.8-1.6s-0.7-1.6-1.1-2.7l-4.5-12.6c-0.2-0.5-0.3-1-0.4-1.4s-0.1-0.7-0.2-0.9h-5.5
			v0.6c0.1,0,0.2,0.1,0.4,0.1c0.2,0.1,0.4,0.2,0.5,0.2c0.1,0.1,0.2,0.2,0.2,0.5c0,0.2,0,0.2,0,0.4c0,0.5-0.1,0.9-0.2,1.2l-3.1,7.6
			c-0.5,1.4-1.1,2.6-1.5,3.6c-0.4,0.9-0.8,1.8-1,2.4c-0.3,0.6-0.5,1.2-0.8,1.6c-0.2,0.4-0.4,0.7-0.5,1h3.5
			C-2332.1-25.9-2332-26.7-2331.8-27.8z M-2327.3-41.5l2.6,7.8h-5.3L-2327.3-41.5z"/>
		<path id="Shape_12_" class="st241" d="M-2309.4-26h-0.2c-0.1,0-0.2-0.1-0.4-0.1c-0.2-0.1-0.4-0.2-0.5-0.2
			c-0.1-0.1-0.2-0.2-0.2-0.5c0-0.2-0.1-0.5-0.1-0.8v-7.4h7.5v7.3c0,0.3,0,0.6-0.1,0.8c0,0.2-0.1,0.4-0.2,0.5
			c-0.1,0.1-0.2,0.2-0.5,0.2c-0.2,0.1-0.3,0.1-0.4,0.1v0.6h6.4v-0.6c-0.1,0-0.2-0.1-0.4-0.1c-0.2-0.1-0.4-0.2-0.5-0.2
			s-0.2-0.2-0.2-0.5c0-0.2-0.1-0.5-0.1-0.8v-3.8v-0.2v-7v-0.1v-3.8c0-0.3,0-0.6,0.1-0.8c0-0.2,0.1-0.4,0.2-0.5
			c0.1-0.1,0.2-0.2,0.5-0.2s0.3-0.1,0.4-0.1v-0.5h-5.3h-0.9v0.6c0.1,0,0.2,0.1,0.4,0.1c0.2,0.1,0.4,0.2,0.5,0.2s0.2,0.2,0.2,0.5
			c0,0.2,0.1,0.5,0.1,0.8v6.1h-7.5v-6.1c0-0.3,0-0.6,0.1-0.8c0-0.2,0.1-0.4,0.2-0.5c0.1-0.1,0.2-0.2,0.5-0.2s0.3-0.1,0.4-0.1v-0.6
			h-5.3h-1.1v0.6c0.1,0,0.2,0.1,0.4,0.1c0.2,0.1,0.4,0.2,0.5,0.2c0.1,0.1,0.2,0.2,0.2,0.5c0,0.2,0.1,0.5,0.1,0.8v0.5v13.3v0.1v1
			c0,0.3,0,0.5-0.1,0.8c0,0.2-0.1,0.4-0.2,0.5c-0.1,0.1-0.2,0.2-0.5,0.2c-0.2,0.1-0.3,0.1-0.4,0.1v0.6h6.4V-26z"/>
		<path id="Shape_13_" class="st241" d="M-2432-42.2c-0.4-0.5-0.8-1.1-1.2-1.6l-21.4,12.4l-10.3-6c-0.2,0.7-0.4,1.3-0.5,2l10.9,6.3
			L-2432-42.2z"/>
		<path id="Shape_14_" class="st241" d="M-2454.7-26.3l-11.2-6.6c-0.1,0.4-0.1,0.9-0.1,1.3c0,10.3,8.2,18.8,18.5,18.8
			c10.2,0,18.5-8.4,18.5-18.8c0-3.1-0.7-6-2-8.5L-2454.7-26.3z"/>
		<path id="Shape_15_" class="st241" d="M-2434.9-45.4c-0.5-0.6-1.1-1-1.6-1.4l-18.3,10.9l-8.8-5.2c-0.3,0.6-0.6,1.2-0.9,1.8
			l9.6,5.7L-2434.9-45.4z"/>
		<path id="Shape_16_" class="st241" d="M-2437.9-47.9c-0.7-0.4-1.4-0.8-2.2-1.1l-14.4,8.7l-6.5-3.8c-0.5,0.5-0.9,1.1-1.3,1.6
			l7.7,4.6L-2437.9-47.9z"/>
		<g id="Group_2_" transform="translate(125.826772, 36.923077)">
			<path id="Shape_17_" class="st241" d="M-2466-40.7l1.5-7.8h2.4c1.4,0,2,0.7,2,1.8c0,1-0.6,1.6-1.8,2c0.8,0.3,1.2,0.9,1.2,1.7
				c0,1.4-0.9,2.2-2.8,2.2L-2466-40.7L-2466-40.7z M-2465.1-41.4h1.8c1.2,0,1.9-0.6,1.9-1.6c0-0.7-0.6-1.4-1.8-1.4h-1.4
				L-2465.1-41.4z M-2464.4-45h1.6c1.3,0,2-0.6,2-1.6c0-0.8-0.5-1.2-1.4-1.2h-1.6L-2464.4-45z"/>
			<path id="Shape_18_" class="st241" d="M-2455.4-42.1c-0.5,0.9-1,1.5-2.1,1.5c-1.2,0-2.1-1-2.1-2.5c0-1.7,1.1-3.2,2.6-3.2
				c1.1,0,1.6,0.6,1.9,1.6l-0.7,0.2c-0.2-0.7-0.6-1.1-1.2-1.1c-1,0-1.9,1.1-1.9,2.7c0,1.1,0.5,1.7,1.5,1.7c0.9,0,1.2-0.5,1.5-1
				L-2455.4-42.1z"/>
			<path id="Shape_19_" class="st241" d="M-2453.7-43.4c0,0.2,0,0.3,0,0.4c0,1.1,0.5,1.7,1.4,1.7c0.8,0,1.2-0.6,1.7-1.3l0.6,0.3
				c-0.6,0.9-1.2,1.6-2.4,1.6c-1.2,0-2-0.9-2-2.4c0-1.9,1.1-3.3,2.6-3.3c1.2,0,1.9,0.8,1.9,2.2c0,0.2-0.1,0.5-0.1,0.7H-2453.7z
				 M-2450.5-44c0.1-0.2,0-0.2,0-0.3c0-0.6-0.4-1.3-1.2-1.3c-1,0-1.5,0.6-1.8,1.7L-2450.5-44L-2450.5-44z"/>
			<polygon id="Shape_20_" class="st241" points="-2448,-46.2 -2445,-46.2 -2445.1,-45.5 -2447.4,-45.5 -2448.4,-40.7 
				-2449.1,-40.7 			"/>
			<path id="Shape_21_" class="st241" d="M-2445.6-41.3l2.3-4.8h1.1l0.6,4.8h0.5l-0.3,1.7h-0.5l0.1-1h-3.7l-0.3,1h-0.5l0.3-1.7
				H-2445.6z M-2442.5-41.3l-0.4-4.1h-0.2l-1.9,4.1H-2442.5z"/>
			<path id="Shape_22_" class="st241" d="M-2436.7-43.9c0-0.2,0.1-0.5,0.1-0.6c0-0.6-0.5-1-1.2-1c-0.5,0-0.9,0.2-1.2,0.6l-0.5-0.5
				c0.5-0.4,1-0.8,1.8-0.8c1.1,0,1.8,0.7,1.8,1.6c0,0.2-0.1,0.5-0.1,0.9l-0.4,1.8c-0.2,0.6-0.2,1-0.2,1.3h-0.7
				c-0.1-0.2-0.1-0.4-0.1-0.6c-0.5,0.4-0.9,0.7-1.6,0.7c-0.9,0-1.6-0.7-1.6-1.6c0-1.1,1-1.8,2.9-1.8H-2436.7z M-2436.9-43.4h-0.5
				c-1.5,0-2.3,0.4-2.3,1.2c0,0.6,0.4,0.9,0.9,0.9c0.5,0,1-0.3,1.6-0.7L-2436.9-43.4z"/>
			<path id="Shape_23_" class="st241" d="M-2430.3-45.5c0.5-0.5,0.9-0.8,1.6-0.8c1.2,0,1.8,0.8,1.8,2.3c0,2-1.2,3.4-2.6,3.4
				c-0.7,0-1.2-0.3-1.6-0.7l-0.5,2.8h-0.7l1.5-7.7h0.6L-2430.3-45.5z M-2430.9-42c0.3,0.5,0.7,0.8,1.4,0.8c1,0,1.9-1.2,1.9-2.8
				c0-1-0.5-1.6-1.2-1.6c-0.5,0-1.1,0.2-1.5,0.9L-2430.9-42z"/>
			<path id="Shape_24_" class="st241" d="M-2423.9-43.2l-1.7,2.5h-0.8l1.8-2.5c-0.7-0.2-1.1-0.8-1.1-1.4c0-0.7,0.6-1.5,1.9-1.5h2.6
				l-1.1,5.5h-0.7l0.5-2.5H-2423.9z M-2422.2-45.6h-1.7c-0.8,0-1.2,0.5-1.2,0.9c0,0.6,0.3,0.8,0.9,0.8h1.6L-2422.2-45.6z"/>
			<path id="Shape_25_" class="st241" d="M-2420.5-41.3l2.3-4.8h1.1l0.6,4.8h0.5l-0.3,1.7h-0.5l0.1-1h-3.7l-0.3,1h-0.5l0.3-1.7
				H-2420.5z M-2417.4-41.3l-0.4-4.1h-0.2l-1.9,4.1H-2417.4z"/>
			<path id="Shape_26_" class="st241" d="M-2415.4-43c0-1.9,1.2-3.3,2.6-3.3c1.2,0,1.9,0.9,1.9,2.4c0,1.8-1.2,3.3-2.6,3.3
				C-2414.6-40.6-2415.4-41.5-2415.4-43z M-2414.7-42.8c0,1,0.5,1.6,1.2,1.6c0.9,0,1.9-1.2,1.9-2.8c0-1-0.5-1.7-1.2-1.7
				C-2413.8-45.7-2414.7-44.5-2414.7-42.8z"/>
			<polygon id="Shape_27_" class="st241" points="-2404.8,-45.5 -2407.1,-40.7 -2407.8,-40.7 -2408.5,-45.5 -2409.4,-40.7 
				-2410.1,-40.7 -2409,-46.2 -2407.9,-46.2 -2407.2,-41.4 -2405,-46.2 -2403.8,-46.2 -2404.9,-40.7 -2405.6,-40.7 			"/>
		</g>
	</g>
</g>
</svg>
