<svg width="614" height="326" fill="none" xmlns="http://www.w3.org/2000/svg"><path d="M499.2 269.2c5 0 9 4 9 9a9 9 0 01-18 0c0-5 4-9 9-9zM422.3 269.2c5 0 9 4 9 9a9 9 0 01-18 0c0-5 4-9 9-9zM105 269.2h.1c5 0 9 4 9 9a9 9 0 01-18 0c0-5 4-9 9-9z" fill="#fff"/><path d="M8.3 160.5l12-12.1 24.4-73.1a9 9 0 012.7-17.6h87.2v-39c0-10.3 8.3-18.6 18.6-18.6h442.2C605.7 0 614 8.4 614 18.7v211.5c0 10.2-8.3 18.6-18.6 18.6h-10.2v19.8c0 10.3-8.4 18.6-18.6 18.6h-20.8a47.5 47.5 0 01-85 18.8 47.4 47.4 0 01-85-18.8h-224a47.5 47.5 0 01-94.1-9v-.6h-39A18.6 18.6 0 010 259v-78.6a28 28 0 018.3-20zm537.5 108.7h20.8c.3 0 .6-.3.6-.6v-19.8h-30.8c4.7 5.8 8 12.8 9.4 20.4zm-46.5 38.5a29.5 29.5 0 00.1-59h-.3a29.5 29.5 0 00.2 59zm-77 0a29.5 29.5 0 00.2-59h-.3a29.5 29.5 0 00.2 59zm-270.6-38.5h224a47.2 47.2 0 019.5-20.4H210.9a9 9 0 110-18h384.5c.3 0 .6-.3.6-.6V18.7c0-.4-.3-.7-.6-.7H153.2c-.4 0-.6.3-.6.7v212h19.8a9 9 0 010 18h-30.1c4.6 6 8 12.9 9.4 20.5zM37.5 154h58c.4 0 .6-.3.6-.7v-39H50.7l-13.2 39.7zM105 307.7a29.5 29.5 0 00.2-59h-.2a29.5 29.5 0 000 59zM18 259c0 .3.3.6.6.6h42.9c7.2-17 24-28.8 43.6-28.8h29.5V76.3c0-.3-.3-.6-.6-.6H63.5l-6.8 20.5h48.4c5 0 9 4 9 9v48c0 10.3-8.3 18.7-18.6 18.7H22.3l-1.3 1.3c-2 2-3 4.5-3 7.2V202h10.2a9 9 0 010 18H18V259z" fill="#fff"/><path d="M182 192.3h384.6a9 9 0 010 18H182a9 9 0 010-18z" fill="#fff"/></svg>