<?xml version="1.0" encoding="utf-8"?><svg xmlns="http://www.w3.org/2000/svg" xmlns:xlink="http://www.w3.org/1999/xlink"><symbol viewBox="0 0 491 491" id="checked" xmlns="http://www.w3.org/2000/svg"><path d="M418.275 418.275c95.7-95.7 95.7-250.8 0-346.5-95.7-95.7-250.8-95.7-346.5 0-95.7 95.7-95.7 250.8 0 346.5 95.7 95.7 250.9 95.7 346.5 0zm-261.1-210.7l55.1 55.1 120.7-120.6 42.7 42.7-120.6 120.6-42.8 42.7-97.8-97.8 42.7-42.7z"/></symbol><symbol viewBox="0 0 11 16" id="contacts-address" xmlns="http://www.w3.org/2000/svg"><path d="M5.501 0C2.463 0 0 2.417 0 5.4c0 1.525 1.515 4.258 1.515 4.258L5.298 16l3.948-6.268S11 7.124 11 5.399C11 2.417 8.538 0 5.501 0zm-.026 8.373c-1.74 0-3.149-1.392-3.149-3.113 0-1.719 1.409-3.11 3.15-3.11 1.738 0 3.15 1.391 3.15 3.11 0 1.72-1.412 3.113-3.15 3.113z"/></symbol><symbol viewBox="0 0 13 13" id="contacts-email" xmlns="http://www.w3.org/2000/svg"><path d="M1.863 11.177a6.322 6.322 0 0 0 2.128 1.341A7.68 7.68 0 0 0 6.733 13c1.112 0 2.138-.168 3.06-.513.836-.304.116-1.844-.498-1.592-.677.282-1.503.429-2.446.429a5.781 5.781 0 0 1-2.011-.335 4.386 4.386 0 0 1-1.535-.943 4.29 4.29 0 0 1-.995-1.487c-.244-.587-.36-1.257-.36-1.99 0-.692.116-1.352.35-1.939.232-.586.55-1.11.973-1.53a4.425 4.425 0 0 1 1.503-1.015 5.092 5.092 0 0 1 1.959-.367c.667 0 1.28.094 1.831.262a3.78 3.78 0 0 1 1.398.775c.392.346.699.765.92 1.268.223.503.33 1.09.33 1.76a4.6 4.6 0 0 1-.128 1.1c-.085.324-.19.618-.339.848-.137.22-.296.398-.487.524-.222.146-.55.23-.804.146-.318-.104-.254-.544-.233-.806.032-.356.127-.691.2-1.037.117-.566.244-1.121.36-1.676.064-.304.138-.618.202-.922a.634.634 0 0 0-.625-.765h-.465a.635.635 0 0 0-.615.461c-.031.126-.063.23-.063.23-.233-.712-1.09-.91-1.768-.9-.89.01-1.704.46-2.297 1.1-.053.062-.117.125-.17.188a4.03 4.03 0 0 0-.698 1.247c-.17.482-.254.974-.254 1.477 0 .43.063.838.18 1.204.127.378.306.702.54.975.232.272.529.492.878.65.35.156.741.24 1.165.24.317 0 .614-.052.878-.146a3.28 3.28 0 0 0 .688-.346c.16-.105.307-.23.424-.346.074.136.159.251.275.367.297.314.752.471 1.355.471a3.44 3.44 0 0 0 1.377-.283 3.258 3.258 0 0 0 1.153-.859c.318-.377.583-.838.773-1.382.19-.545.286-1.174.286-1.865 0-.943-.18-1.78-.53-2.483a5.199 5.199 0 0 0-1.418-1.77C10.47.954 9.792.608 9.041.367A7.132 7.132 0 0 0 6.733 0c-.921 0-1.8.168-2.615.492A6.844 6.844 0 0 0 1.98 1.865 6.356 6.356 0 0 0 .53 3.928 6.359 6.359 0 0 0 0 6.516c0 .932.159 1.812.487 2.598a5.908 5.908 0 0 0 1.376 2.063zm5.727-4.4c-.074.283-.18.556-.328.807a1.9 1.9 0 0 1-.56.597c-.213.147-.467.22-.784.22a.886.886 0 0 1-.477-.115.908.908 0 0 1-.307-.325 1.518 1.518 0 0 1-.169-.46 2.563 2.563 0 0 1-.053-.462c0-.293.042-.586.127-.89a2.74 2.74 0 0 1 .36-.796c.159-.23.339-.42.561-.566a1.18 1.18 0 0 1 .688-.199c.212 0 .381.032.508.105a.883.883 0 0 1 .307.283c.085.126.138.272.18.43.043.177.064.366.064.544-.01.262-.042.534-.117.828z"/></symbol><symbol viewBox="0 0 11 12" id="contacts-tel" xmlns="http://www.w3.org/2000/svg"><path d="M4.265 6.048c.298.364.567.63.564.629A8.752 8.752 0 0 0 6.27 8.1c.366.288.94.325 1.253.127.312-.198.912-.6 1.36-.498.378.086.878.375 1.48 1.116 1.42 1.748.148 2.294-.733 2.999-.883.704-3.794-1.04-6.46-3.884C.5 5.117-.504 2.176.234 1.31.974.444 1.59-.84 3.158.765c.666.68.905 1.221.96 1.62.065.474-.363 1.068-.575 1.378-.212.31-.218.91.03 1.313.219.355.453.679.692.972z"/></symbol><symbol viewBox="0 0 16 16" id="filter" xmlns="http://www.w3.org/2000/svg"><path d="M15.14 0H.875a.67.67 0 0 0-.597.364.68.68 0 0 0 .053.707l5.226 7.362.005.007c.19.257.293.567.294.886v6.002a.667.667 0 0 0 .93.62l2.937-1.12c.263-.08.438-.33.438-.628V9.326c0-.319.103-.63.293-.886l.005-.007 5.226-7.362a.679.679 0 0 0 .053-.707A.67.67 0 0 0 15.14 0zM9.8 7.96c-.292.395-.45.874-.45 1.366v4.775l-2.681 1.022V9.326a2.311 2.311 0 0 0-.451-1.367L1.143.812h13.73L9.799 7.96z"/></symbol><symbol viewBox="0 0 54 37" id="icon-next" xmlns="http://www.w3.org/2000/svg"><path d="M53.264 16.732l-16.07-16a2.519 2.519 0 0 0-3.55 0c-.98.977-.98 2.56 0 3.536L45.427 16H2.511A2.506 2.506 0 0 0 0 18.5C0 19.88 1.124 21 2.51 21h42.917L33.644 32.732c-.98.977-.98 2.56 0 3.536A2.51 2.51 0 0 0 35.42 37a2.51 2.51 0 0 0 1.775-.732l16.07-16c.98-.977.98-2.56 0-3.536z"/></symbol><symbol viewBox="0 0 54 37" id="icon-prev" xmlns="http://www.w3.org/2000/svg"><path d="M.736 20.268l16.069 16c.98.976 2.57.976 3.55 0a2.49 2.49 0 0 0 0-3.536L8.574 21H51.49c1.386 0 2.51-1.12 2.51-2.5S52.876 16 51.49 16H8.572L20.356 4.268c.98-.977.98-2.56 0-3.536A2.51 2.51 0 0 0 18.58 0a2.51 2.51 0 0 0-1.775.732l-16.07 16c-.98.977-.98 2.56 0 3.536z"/></symbol><symbol viewBox="0 0 16 16" id="login" xmlns="http://www.w3.org/2000/svg"><path d="M9.334 4.333a3.333 3.333 0 1 1-6.667 0 3.333 3.333 0 0 1 6.667 0zM8.834 9H3.166A3.17 3.17 0 0 0 0 12.167V14.5a.5.5 0 0 0 .5.5h11a.5.5 0 0 0 .5-.5v-2.333A3.17 3.17 0 0 0 8.833 9zm7.006-2.367l-2.333-2.166a.5.5 0 0 0-.84.367v1.5H10a.666.666 0 1 0 0 1.333h2.666v1.5a.5.5 0 0 0 .841.366l2.333-2.166a.503.503 0 0 0 0-.734z"/></symbol><symbol viewBox="0 0 12 12" id="modal-close" xmlns="http://www.w3.org/2000/svg"><path d="M11.414 2.414a1.414 1.414 0 1 0-2-2l-3.5 3.5-3.5-3.5a1.414 1.414 0 1 0-2 2l3.5 3.5-3.5 3.5a1.414 1.414 0 0 0 2 2l3.5-3.5 3.5 3.5a1.414 1.414 0 1 0 2-2l-3.5-3.5 3.5-3.5z"/></symbol><symbol viewBox="0 0 7 4" id="navbar-dropdown" xmlns="http://www.w3.org/2000/svg"><path d="M3.5 4a.488.488 0 0 1-.347-.144L.143.84a.492.492 0 0 1 0-.695.49.49 0 0 1 .694 0L3.5 2.814 6.163.144a.49.49 0 0 1 .693 0 .492.492 0 0 1 0 .695l-3.01 3.017A.488.488 0 0 1 3.5 4z"/></symbol><symbol viewBox="0 0 20 25" id="one-day" xmlns="http://www.w3.org/2000/svg"><path d="M16.748 8.367a6.879 6.879 0 0 0-2.272-4.244 6.878 6.878 0 0 0-4.552-1.719 6.87 6.87 0 0 0-4.55 1.719A6.879 6.879 0 0 0 3.1 8.365a.361.361 0 0 0 .716.096C4.225 5.42 6.85 3.127 9.924 3.127c3.075 0 5.7 2.294 6.108 5.336a.361.361 0 0 0 .716-.096zm-.305 1.374a.361.361 0 0 0-.403.314 6.167 6.167 0 0 1-6.116 5.398 6.166 6.166 0 0 1-6.116-5.403.361.361 0 1 0-.717.089 6.89 6.89 0 0 0 6.833 6.036 6.89 6.89 0 0 0 6.833-6.031.361.361 0 0 0-.314-.403zm-4.429 1.827h-.81V5.37a.466.466 0 0 0-.465-.465H9.521a.466.466 0 0 0-.3.109L7.01 6.872a.464.464 0 0 0-.068.643l.726.93a.468.468 0 0 0 .664.071l.504-.418v3.47H7.813a.466.466 0 0 0-.466.465v1.105c0 .257.209.466.466.466h4.201a.466.466 0 0 0 .466-.466v-1.105a.466.466 0 0 0-.466-.465zm-.256 1.313H8.07v-.59h1.022a.466.466 0 0 0 .465-.466V7.552a.461.461 0 0 0-.267-.421.461.461 0 0 0-.495.063l-.722.597-.41-.525 1.952-1.638h.867v6.197c0 .257.209.465.466.465h.81v.591zm7.963 7.789l-3.255-5.092a1.555 1.555 0 0 0 1.211-1.803.832.832 0 0 1 .446-.894 1.555 1.555 0 0 0 .627-2.206.832.832 0 0 1 .092-.994 1.555 1.555 0 0 0-.211-2.283.832.832 0 0 1-.274-.96 1.555 1.555 0 0 0-1.022-2.053.832.832 0 0 1-.602-.797 1.555 1.555 0 0 0-1.694-1.544.832.832 0 0 1-.85-.526A1.555 1.555 0 0 0 12.053.69a.833.833 0 0 1-.982-.184 1.554 1.554 0 0 0-2.292 0 .832.832 0 0 1-.982.184 1.555 1.555 0 0 0-2.138.828.833.833 0 0 1-.85.526 1.554 1.554 0 0 0-1.693 1.544.832.832 0 0 1-.602.797A1.555 1.555 0 0 0 1.49 6.437a.832.832 0 0 1-.274.961 1.555 1.555 0 0 0-.211 2.283.832.832 0 0 1 .092.995 1.555 1.555 0 0 0 .627 2.205c.33.164.513.532.446.894a1.555 1.555 0 0 0 1.21 1.803L.128 20.67a.576.576 0 0 0-.007.612c.115.19.325.296.546.277l3.177-.28 1.08 3a.576.576 0 0 0 .546.384.575.575 0 0 0 .486-.267l3.969-6.208 3.969 6.208a.575.575 0 0 0 .552.263.576.576 0 0 0 .48-.38l1.08-3 3.177.28a.576.576 0 0 0 .546-.277.576.576 0 0 0-.007-.612zm-18.828.143l3.173-4.963a.826.826 0 0 1 .224.427c.059.312.212.596.434.816l-2.26 3.582-1.571.139zm3.73.5l-.138-.382a.58.58 0 0 0-.596-.381l-.52.046 1.973-3.128c.288.093.601.1.898.016a.832.832 0 0 1 .716.13l-2.334 3.698zm.88 2.448l-.57-1.587 2.52-3.994a1.554 1.554 0 0 0 1.39.358l-3.34 5.223zm4.646-6.366a1.566 1.566 0 0 0-.45 0 1.543 1.543 0 0 0-.71.294.82.82 0 0 1-.652.154.82.82 0 0 1-.552-.379 1.533 1.533 0 0 0-.099-.14 1.558 1.558 0 0 0-1.644-.535.82.82 0 0 1-.663-.093.82.82 0 0 1-.379-.552 1.557 1.557 0 0 0-1.381-1.26.82.82 0 0 1-.585-.325.82.82 0 0 1-.153-.652 1.558 1.558 0 0 0-.833-1.673.82.82 0 0 1-.428-.515.82.82 0 0 1 .092-.663 1.558 1.558 0 0 0-.172-1.862.82.82 0 0 1-.213-.635.82.82 0 0 1 .326-.584 1.56 1.56 0 0 0 .511-1.799.82.82 0 0 1 .031-.668.82.82 0 0 1 .515-.428 1.558 1.558 0 0 0 1.127-1.492.82.82 0 0 1 .27-.612.82.82 0 0 1 .635-.213 1.557 1.557 0 0 0 1.59-.984.82.82 0 0 1 .473-.474.82.82 0 0 1 .669.031A1.558 1.558 0 0 0 9.31.993a.82.82 0 0 1 .613-.27.82.82 0 0 1 .612.27c.465.51 1.22.65 1.838.343a.82.82 0 0 1 .669-.03.82.82 0 0 1 .473.473 1.56 1.56 0 0 0 1.59.984.82.82 0 0 1 .634.213.82.82 0 0 1 .27.612c0 .69.464 1.303 1.127 1.492a.82.82 0 0 1 .515.428.82.82 0 0 1 .031.668 1.558 1.558 0 0 0 .512 1.798.82.82 0 0 1 .326.585.82.82 0 0 1-.213.635 1.558 1.558 0 0 0-.173 1.862.82.82 0 0 1 .093.663.82.82 0 0 1-.428.515c-.617.307-.96.995-.833 1.673a.82.82 0 0 1-.153.652.82.82 0 0 1-.585.326 1.539 1.539 0 0 0-.524.146 1.56 1.56 0 0 0-.858 1.113.82.82 0 0 1-.378.552.82.82 0 0 1-.663.093 1.558 1.558 0 0 0-1.743.675.82.82 0 0 1-.553.379.82.82 0 0 1-.652-.154 1.543 1.543 0 0 0-.709-.294zm4.196 6.366l-3.34-5.223a1.554 1.554 0 0 0 .638.015c.282-.053.542-.184.752-.373l2.52 3.994-.57 1.587zm1.614-3.211a.58.58 0 0 0-.596.38l-.137.382-2.334-3.698a.831.831 0 0 1 .716-.13c.296.084.61.077.898-.016l1.973 3.128-.52-.046zm1.425.125l-2.26-3.582c.222-.22.375-.504.434-.816a.826.826 0 0 1 .224-.427l3.173 4.964-1.571-.139z"/></symbol><symbol viewBox="0 0 11 17" id="pagin-next" xmlns="http://www.w3.org/2000/svg"><path fill-rule="evenodd" clip-rule="evenodd" d="M.9.98A1.5 1.5 0 0 0 .98 3.1l5.816 5.4-5.817 5.4a1.5 1.5 0 0 0 2.042 2.2l7-6.5a1.5 1.5 0 0 0 0-2.2l-7-6.5A1.5 1.5 0 0 0 .9.98z"/></symbol><symbol viewBox="0 0 11 17" id="pagin-prev" xmlns="http://www.w3.org/2000/svg"><path fill-rule="evenodd" clip-rule="evenodd" d="M10.1.98a1.5 1.5 0 0 1-.08 2.12L4.205 8.5l5.817 5.4a1.5 1.5 0 0 1-2.042 2.2l-7-6.5a1.5 1.5 0 0 1 0-2.2l7-6.5a1.5 1.5 0 0 1 2.12.08z"/></symbol><symbol viewBox="0 0 16 16" id="pointer" xmlns="http://www.w3.org/2000/svg"><path d="M8 0a5.897 5.897 0 0 0-5.89 5.89c0 .848.173 1.657.515 2.405 1.472 3.223 4.296 6.625 5.126 7.591a.328.328 0 0 0 .497 0c.83-.966 3.654-4.368 5.127-7.591a5.743 5.743 0 0 0 .515-2.404A5.898 5.898 0 0 0 8 0zm0 8.95a3.063 3.063 0 0 1-3.06-3.06A3.063 3.063 0 0 1 8 2.83a3.063 3.063 0 0 1 3.06 3.06A3.063 3.063 0 0 1 8 8.95z"/></symbol><symbol viewBox="0 0 16 16" id="search" xmlns="http://www.w3.org/2000/svg"><path d="M11.435 10.063h-.727l-.252-.252a5.89 5.89 0 0 0 1.437-3.865 5.946 5.946 0 1 0-5.947 5.947 5.91 5.91 0 0 0 3.865-1.432l.252.251v.723L14.637 16 16 14.637l-4.565-4.574zm-5.489 0a4.117 4.117 0 1 1 .001-8.234 4.117 4.117 0 0 1 0 8.234z"/></symbol><symbol viewBox="0 0 24 24" id="soc-fb" xmlns="http://www.w3.org/2000/svg"><path d="M22.5 0h-21C.5 0 0 .5 0 1.5v21c0 1 .5 1.5 1.5 1.5h11.32v-9.281H9.703v-3.633h3.117V8.412c0-3.1 1.893-4.787 4.659-4.787 1.324 0 2.463.098 2.794.142v3.24h-1.907c-1.504 0-1.796.716-1.796 1.765v2.314h3.598l-.469 3.633H16.57V24h5.93c1 0 1.5-.5 1.5-1.5v-21c0-1-.5-1.5-1.5-1.5z"/></symbol><symbol viewBox="0 0 24 24" id="soc-inst" xmlns="http://www.w3.org/2000/svg"><path d="M17.625 4.266H6.375c-1.163 0-2.11.946-2.11 2.109v11.25c0 1.163.947 2.11 2.11 2.11h11.25c1.163 0 2.11-.947 2.11-2.11V6.375c0-1.163-.947-2.11-2.11-2.11zM12 16.922A4.928 4.928 0 0 1 7.078 12 4.928 4.928 0 0 1 12 7.078 4.928 4.928 0 0 1 16.922 12 4.928 4.928 0 0 1 12 16.922zm4.922-8.438a1.408 1.408 0 0 1-1.406-1.406c0-.775.63-1.406 1.406-1.406.775 0 1.406.63 1.406 1.406 0 .775-.63 1.406-1.406 1.406zm-4.922 0A3.52 3.52 0 0 0 8.484 12 3.52 3.52 0 0 0 12 15.516 3.52 3.52 0 0 0 15.516 12 3.52 3.52 0 0 0 12 8.484zM22.5 0H1.578C.5 0 0 .5 0 1.5v21C0 23.563.438 24 1.5 24h21c1.063 0 1.5-.5 1.5-1.5v-21c0-1-.5-1.5-1.5-1.5zm-1.36 17.625a3.52 3.52 0 0 1-3.515 3.516H6.375a3.52 3.52 0 0 1-3.516-3.516V6.375a3.52 3.52 0 0 1 3.516-3.516h11.25a3.52 3.52 0 0 1 3.516 3.516v11.25z"/></symbol><symbol viewBox="0 0 24 24" id="soc-vk" xmlns="http://www.w3.org/2000/svg"><path d="M22.47 0H1.534C.686 0 0 .686 0 1.531v20.938C0 23.314.686 24 1.533 24h20.936c.845 0 1.531-.686 1.531-1.531V1.531A1.528 1.528 0 0 0 22.47 0zm-2.562 14.624c.439.447 1.39 1.198 1.218 1.961-.16.702-1.206.446-2.222.486-1.16.05-1.848.075-2.546-.486-.328-.265-.521-.58-.836-.933-.286-.318-.647-.889-1.138-.867-.883.044-.607 1.274-.92 2.112-4.905.772-6.874-2.257-8.612-5.198-.842-1.424-2.058-4.483-2.058-4.483l3.469-.011S7.376 9.228 7.67 9.75c.251.444.527.796.812 1.192.238.329.616.973 1.03.92.672-.086.794-2.695.377-3.568-.166-.354-.564-.478-.976-.598.14-.878 3.89-1.06 4.497-.38.88.99-.61 3.743.596 4.546 1.694-.887 3.14-4.603 3.14-4.603l4.061.025s-.635 2.009-1.3 2.9c-.388.521-1.675 1.683-1.625 2.545.041.683 1.088 1.347 1.626 1.895z"/></symbol></svg>