<?xml version="1.0" encoding="utf-8"?><svg xmlns="http://www.w3.org/2000/svg" xmlns:xlink="http://www.w3.org/1999/xlink"><symbol viewBox="0 0 11 16" id="arrow-next" xmlns="http://www.w3.org/2000/svg"><path d="M2.8 0L1 1.9 7.1 8 .9 14.1 3 16l8-8-8-8z"/></symbol><symbol viewBox="0 0 491 491" id="checked" xmlns="http://www.w3.org/2000/svg"><path d="M418.275 418.275c95.7-95.7 95.7-250.8 0-346.5-95.7-95.7-250.8-95.7-346.5 0-95.7 95.7-95.7 250.8 0 346.5 95.7 95.7 250.9 95.7 346.5 0zm-261.1-210.7l55.1 55.1 120.7-120.6 42.7 42.7-120.6 120.6-42.8 42.7-97.8-97.8 42.7-42.7z"/></symbol><symbol viewBox="0 0 24 22" id="coin" xmlns="http://www.w3.org/2000/svg"><path d="M23.996 7.2c-.04-.684-.854-1.22-2.482-1.627a.902.902 0 0 0 .086-.375V2.4h-.007C21.45.069 11.897 0 10.8 0 9.703 0 .15.069.007 2.4H0v2.8c.002.76.983 1.354 2.442 1.797a.877.877 0 0 0-.036.203H2.4v2.795C.828 10.4.043 10.927.004 11.6H0v2.8c.001.529.478.978 1.26 1.352a.881.881 0 0 0-.054.248H1.2v2.8c.003 1.33 2.999 2.156 6.327 2.542.025.005.047.015.073.015.008 0 .014-.004.022-.005.641.073 1.293.13 1.938.17.014.001.026.008.04.008.008 0 .014-.004.02-.005.82.05 1.626.075 2.38.075s1.56-.025 2.38-.075c.006 0 .013.004.02.004.014 0 .026-.007.04-.008.645-.04 1.297-.096 1.938-.169.008 0 .014.004.022.004.026 0 .048-.01.073-.015 3.328-.385 6.323-1.212 6.327-2.543V16h-.006c-.028-.49-.446-.9-1.272-1.242a.894.894 0 0 0 .078-.36v-2.614c1.436-.442 2.398-1.032 2.4-1.786V7.2h-.004zm-3.24 7.328l-.136.12c-.21.185-.56.372-1.02.552v-1.907c.476-.166.88-.35 1.2-.55v1.655a.254.254 0 0 1-.043.13zm-8.946 1.86l-.176.003c-.142.003-.289.003-.434.005v-1.998l.33-.005.064-.001c.403-.008.806-.02 1.206-.039v1.997a35.527 35.527 0 0 1-.99.037zm-1.746.005a40.743 40.743 0 0 1-.547-.013l-.067-.003a42.27 42.27 0 0 1-.65-.027v-1.996c.401.018.804.03 1.207.038l.063.001.33.005v2l-.232-.003-.104-.002zm-7.225-.912a1.415 1.415 0 0 0-.039-.011v-1.933c.374.101.775.193 1.2.277v1.952a18.5 18.5 0 0 1-1.014-.244l-.147-.041zm8.431 3.312l.33.005v2a40.414 40.414 0 0 1-1.6-.047v-1.997c.4.019.804.031 1.206.038l.064.001zm1.524-.001c.402-.008.805-.02 1.206-.038v1.997c-.514.025-1.047.041-1.6.046v-2c.11 0 .22-.002.33-.004l.064-.001zm3.206-.18v1.986c-.384.04-.784.076-1.2.105v-1.995c.406-.026.806-.059 1.2-.097zm.8-.087c.412-.05.813-.106 1.2-.169v1.964c-.377.066-.777.128-1.2.183v-1.978zm2-.312c.425-.083.826-.175 1.2-.276v1.932c-.356.103-.758.203-1.2.297v-1.953zm-13.6 0v1.953a17.425 17.425 0 0 1-1.2-.297v-1.932c.374.1.775.193 1.2.276zm.8.143c.387.063.788.12 1.2.17v1.978A27.862 27.862 0 0 1 6 20.32v-1.964zm2 .255c.394.038.794.07 1.2.097v1.995a35.172 35.172 0 0 1-1.2-.105v-1.987zm-.992-2.392l-.122-.012-.086-.01v-1.985c.394.038.794.07 1.2.097v1.993a38.716 38.716 0 0 1-.992-.083zM6 14.125v1.978a27.862 27.862 0 0 1-1.2-.183v-1.964c.387.063.788.12 1.2.169zm7.866 2.158l-.266.02v-1.995c.406-.026.806-.058 1.2-.097v1.987c-.247.026-.5.05-.76.071l-.174.014zm1.734-.18v-1.978c.412-.05.813-.106 1.2-.169v1.964a27.25 27.25 0 0 1-1.2.183zm2-2.29c.425-.083.826-.175 1.2-.276v1.932c-.356.103-.758.203-1.2.297v-1.953zm-5.47-1.827a38.066 38.066 0 0 1-.93-.035V9.954a41.659 41.659 0 0 0 1.6.044v1.997c-.195-.002-.392-.003-.582-.007l-.088-.002zM2.8 6.27V4.337c.374.101.775.193 1.2.277v1.952l-.148-.031A16.85 16.85 0 0 1 2.8 6.27zm7.27-1.077l.33.005v1.997a39.664 39.664 0 0 1-1.6-.045V5.154a41.659 41.659 0 0 0 1.27.04zm1.524-.001c.402-.008.805-.02 1.206-.038v1.995l-.202.011-.017.001c-.268.012-.542.021-.819.027-.043.002-.086.002-.13.003-.142.003-.288.003-.432.005V5.198l.33-.005.064-.001zm9.114.2l-.01-.002-.146.114c-.212.164-.536.33-.952.491V4.092c.476-.165.88-.349 1.2-.55v1.655c0 .061-.032.127-.092.196zM15.6 6.902V4.925c.412-.05.813-.106 1.2-.169v1.96c-.38.068-.778.13-1.2.185zm2-.338v-1.95c.425-.083.826-.175 1.2-.276v1.928c-.358.105-.762.204-1.2.298zM14.8 5.01v1.984c-.386.041-.786.077-1.2.106V5.108c.406-.026.806-.059 1.2-.097zm-8 1.985V5.011c.394.038.794.07 1.2.097V7.1c-.407-.03-.809-.063-1.2-.104zM6 4.925V6.9c-.08-.01-.162-.019-.24-.03l-.15-.021a28.956 28.956 0 0 1-.68-.106L4.8 6.72V4.756c.387.063.788.12 1.2.169zm4.3 6.97l-.161-.011c-.256-.02-.506-.042-.75-.067l-.157-.016c-.01-.001-.021-.003-.032-.003V9.81c.394.038.794.07 1.2.097v1.994l-.1-.006zm-2.642-.298c-.158-.025-.307-.053-.458-.079V9.556c.387.063.788.12 1.2.17v1.978a30.687 30.687 0 0 1-.742-.107zM6.4 9.413v1.95a16.804 16.804 0 0 1-1.2-.301V9.137c.374.1.775.193 1.2.276zm-2-.52v1.9c-.629-.243-1.034-.491-1.166-.712l-.027-.045c-.003-.012-.007-.025-.007-.038V8.342c.32.201.724.385 1.2.55zm9.594 1.099c.402-.008.805-.02 1.206-.038v1.995c-.526.026-1.06.04-1.6.046V9.998l.33-.005.064-.001zm5.169 1.535a25.754 25.754 0 0 1-.853.134c-.102.015-.207.027-.31.04V9.725c.413-.05.813-.106 1.2-.169v1.964l-.037.007zm-2.709.341c-.149.013-.303.02-.454.032V9.908c.406-.026.806-.058 1.2-.097v1.985c-.232.024-.464.048-.703.068l-.043.004zm4.572-.75a16.153 16.153 0 0 1-.93.228 1.637 1.637 0 0 0-.096.02V9.413a17.88 17.88 0 0 0 1.2-.277v1.933l-.174.048zm2.17-3.892c-.037.272-.653.633-1.752.972-1.415.438-3.63.838-6.436.962l-.433.017-.361.01a43.957 43.957 0 0 1-2.389-.011c-.147-.004-.29-.01-.433-.016-2.807-.124-5.022-.525-6.436-.962-1.09-.337-1.705-.695-1.75-.966.002-.007.002-.014.006-.023l.086.019a27.17 27.17 0 0 0 3.094.526l.008.002h.002c.64.072 1.302.13 1.983.17l.015.003.008-.002a40.904 40.904 0 0 0 3.034.067c2.907-.045 5.6-.39 7.475-.926l.254-.075.152-.047c.145-.046.283-.094.417-.143l.069-.027c.113-.042.222-.087.326-.132l.09-.04c.11-.05.218-.1.317-.154.045-.023.084-.048.126-.072a3.52 3.52 0 0 0 .14-.084c.025-.016.055-.03.08-.047 1.79.389 2.262.813 2.308.979zM10.8.8c6.596 0 9.932 1.038 9.994 1.634-.048.27-.662.628-1.75.964-1.415.437-3.63.838-6.436.962-.143.006-.286.012-.433.016l-.361.011a43.957 43.957 0 0 1-2.028 0l-.361-.01-.433-.017c-2.807-.124-5.022-.525-6.436-.962-1.088-.336-1.702-.693-1.75-.964C.868 1.838 4.204.8 10.8.8zM.8 5.198V3.542c.32.201.724.385 1.2.55v1.916c-.778-.292-1.2-.584-1.2-.81zm1.938 5.536c.006.006.015.012.02.018.548.553 1.682.988 3.094 1.312l.1.022c.103.023.208.046.315.068 1.296.276 2.844.476 4.53.574h.004a40.233 40.233 0 0 0 3.246.062c.523-.01 1.039-.032 1.547-.062l.006.001.01-.002c1.69-.1 3.276-.301 4.618-.591-.29.152-.688.31-1.184.462-1.494.462-3.88.882-6.912.98l-.27.008c-.098.003-.198.004-.297.006a43.957 43.957 0 0 1-1.778-.005l-.362-.01-.433-.017c-2.807-.124-5.022-.525-6.436-.962-1.1-.34-1.716-.702-1.752-.973.045-.15.45-.527 1.934-.891zM.8 14.398v-1.656c.32.201.724.385 1.2.55V15.2l-.228-.089-.005.005C1.139 14.856.8 14.6.8 14.398zm1.2 4.4v-1.656c.32.201.724.385 1.2.55v1.916c-.778-.292-1.2-.584-1.2-.81zm18.8.81v-1.915c.476-.166.88-.35 1.2-.55v1.655c0 .225-.422.518-1.2.81zm1.195-3.577c-.044.27-.658.63-1.75.967-1.416.438-3.63.838-6.437.962l-.433.017-.361.01a44.056 44.056 0 0 1-2.028 0l-.358-.01-.436-.017c-2.807-.124-5.021-.525-6.436-.962-1.058-.327-1.67-.674-1.746-.942.119.042.242.082.37.122l.038.011a11.788 11.788 0 0 0 .46.132l.196.05c1.457.374 3.316.638 5.324.757h.003a40.023 40.023 0 0 0 3.073.065c.584-.01 1.16-.031 1.723-.065l.003.001.006-.001c.686-.041 1.35-.1 1.988-.173l.006.001c.01 0 .016-.004.025-.005a29.008 29.008 0 0 0 2.39-.373l.085-.018c1.18-.242 2.203-.556 2.905-.945l.11-.064a3.2 3.2 0 0 0 .129-.08c.038-.025.082-.049.118-.074.79.281 1.007.533 1.033.634zM22 10.808V8.893c.476-.166.88-.35 1.2-.55v1.655c0 .225-.422.518-1.2.81z"/></symbol><symbol viewBox="0 0 11 16" id="contacts-address" xmlns="http://www.w3.org/2000/svg"><path d="M5.501 0C2.463 0 0 2.417 0 5.4c0 1.525 1.515 4.258 1.515 4.258L5.298 16l3.948-6.268S11 7.124 11 5.399C11 2.417 8.538 0 5.501 0zm-.026 8.373c-1.74 0-3.149-1.392-3.149-3.113 0-1.719 1.409-3.11 3.15-3.11 1.738 0 3.15 1.391 3.15 3.11 0 1.72-1.412 3.113-3.15 3.113z"/></symbol><symbol viewBox="0 0 13 13" id="contacts-email" xmlns="http://www.w3.org/2000/svg"><path d="M1.863 11.177a6.322 6.322 0 0 0 2.128 1.341A7.68 7.68 0 0 0 6.733 13c1.112 0 2.138-.168 3.06-.513.836-.304.116-1.844-.498-1.592-.677.282-1.503.429-2.446.429a5.781 5.781 0 0 1-2.011-.335 4.386 4.386 0 0 1-1.535-.943 4.29 4.29 0 0 1-.995-1.487c-.244-.587-.36-1.257-.36-1.99 0-.692.116-1.352.35-1.939.232-.586.55-1.11.973-1.53a4.425 4.425 0 0 1 1.503-1.015 5.092 5.092 0 0 1 1.959-.367c.667 0 1.28.094 1.831.262a3.78 3.78 0 0 1 1.398.775c.392.346.699.765.92 1.268.223.503.33 1.09.33 1.76a4.6 4.6 0 0 1-.128 1.1c-.085.324-.19.618-.339.848-.137.22-.296.398-.487.524-.222.146-.55.23-.804.146-.318-.104-.254-.544-.233-.806.032-.356.127-.691.2-1.037.117-.566.244-1.121.36-1.676.064-.304.138-.618.202-.922a.634.634 0 0 0-.625-.765h-.465a.635.635 0 0 0-.615.461c-.031.126-.063.23-.063.23-.233-.712-1.09-.91-1.768-.9-.89.01-1.704.46-2.297 1.1-.053.062-.117.125-.17.188a4.03 4.03 0 0 0-.698 1.247c-.17.482-.254.974-.254 1.477 0 .43.063.838.18 1.204.127.378.306.702.54.975.232.272.529.492.878.65.35.156.741.24 1.165.24.317 0 .614-.052.878-.146a3.28 3.28 0 0 0 .688-.346c.16-.105.307-.23.424-.346.074.136.159.251.275.367.297.314.752.471 1.355.471a3.44 3.44 0 0 0 1.377-.283 3.258 3.258 0 0 0 1.153-.859c.318-.377.583-.838.773-1.382.19-.545.286-1.174.286-1.865 0-.943-.18-1.78-.53-2.483a5.199 5.199 0 0 0-1.418-1.77C10.47.954 9.792.608 9.041.367A7.132 7.132 0 0 0 6.733 0c-.921 0-1.8.168-2.615.492A6.844 6.844 0 0 0 1.98 1.865 6.356 6.356 0 0 0 .53 3.928 6.359 6.359 0 0 0 0 6.516c0 .932.159 1.812.487 2.598a5.908 5.908 0 0 0 1.376 2.063zm5.727-4.4c-.074.283-.18.556-.328.807a1.9 1.9 0 0 1-.56.597c-.213.147-.467.22-.784.22a.886.886 0 0 1-.477-.115.908.908 0 0 1-.307-.325 1.518 1.518 0 0 1-.169-.46 2.563 2.563 0 0 1-.053-.462c0-.293.042-.586.127-.89a2.74 2.74 0 0 1 .36-.796c.159-.23.339-.42.561-.566a1.18 1.18 0 0 1 .688-.199c.212 0 .381.032.508.105a.883.883 0 0 1 .307.283c.085.126.138.272.18.43.043.177.064.366.064.544-.01.262-.042.534-.117.828z"/></symbol><symbol viewBox="0 0 16 16" id="contacts-phone" xmlns="http://www.w3.org/2000/svg"><path d="M15.659 12.698l-1.77-1.18-1.575-1.05a.697.697 0 0 0-.936.153l-.974 1.252a.693.693 0 0 1-.885.183c-.66-.367-1.442-.713-3.166-2.44C4.629 7.89 4.28 7.111 3.913 6.45a.694.694 0 0 1 .183-.885l1.252-.974a.697.697 0 0 0 .152-.936L4.484 2.129 3.27.311a.697.697 0 0 0-.939-.212L.934.94a1.709 1.709 0 0 0-.776 1.003c-.382 1.395-.46 4.47 4.47 9.4 4.929 4.928 8.004 4.851 9.399 4.469.421-.12.781-.398 1.004-.776l.839-1.399a.697.697 0 0 0-.211-.938zM9.086 2.478a4.686 4.686 0 0 1 4.68 4.68.275.275 0 1 0 .55 0 5.237 5.237 0 0 0-5.23-5.23.275.275 0 0 0 0 .55z"/><path d="M9.086 4.13a3.032 3.032 0 0 1 3.028 3.028.275.275 0 0 0 .55 0A3.583 3.583 0 0 0 9.087 3.58a.275.275 0 0 0 0 .55z"/><path d="M9.086 5.782c.76 0 1.375.617 1.376 1.376a.275.275 0 0 0 .551 0 1.93 1.93 0 0 0-1.927-1.927.275.275 0 0 0 0 .55z"/></symbol><symbol viewBox="0 0 11 12" id="contacts-tel" xmlns="http://www.w3.org/2000/svg"><path d="M4.265 6.048c.298.364.567.63.564.629A8.752 8.752 0 0 0 6.27 8.1c.366.288.94.325 1.253.127.312-.198.912-.6 1.36-.498.378.086.878.375 1.48 1.116 1.42 1.748.148 2.294-.733 2.999-.883.704-3.794-1.04-6.46-3.884C.5 5.117-.504 2.176.234 1.31.974.444 1.59-.84 3.158.765c.666.68.905 1.221.96 1.62.065.474-.363 1.068-.575 1.378-.212.31-.218.91.03 1.313.219.355.453.679.692.972z"/></symbol><symbol viewBox="0 0 20 24" id="docs" xmlns="http://www.w3.org/2000/svg"><path d="M.008 4.618v19.017c0 .202.164.365.366.365H14.27a.366.366 0 0 0 .365-.365V8.275c0-.008-.004-.015-.004-.023a.346.346 0 0 0-.019-.094l-.012-.035a.36.36 0 0 0-.073-.107L10.87 4.36a.355.355 0 0 0-.236-.104l-.021-.003H.374a.366.366 0 0 0-.366.366zm13.38 3.291h-2.409V5.5l2.409 2.409zM.739 4.983h9.509v3.292c0 .202.164.365.366.365h3.291v14.63H.739V4.982zm14.628 16.092v.731h1.097a.366.366 0 0 0 .366-.366V2.424a.366.366 0 0 0-.366-.365H2.567a.366.366 0 0 0-.366.365V3.52h.732v-.73h13.165v18.286h-.731zm2.601-2.058v.732h1.098a.366.366 0 0 0 .365-.366V.366A.366.366 0 0 0 19.066 0H5.168a.366.366 0 0 0-.365.366v1.097h.731V.73H18.7v18.286h-.732zM2.934 9.371h8.777v.731H2.934v-.73zm0-2.194h2.925v.731H2.934v-.731zm0 4.388h5.851v.732H2.934v-.732zm6.582 0h2.194v.732H9.516v-.732zM2.934 13.76h8.777v.731H2.934v-.731zm0 4.388h8.777v.732H2.934v-.732zm3.29-2.194h5.486v.732H6.225v-.732zm-3.29 0h2.56v.732h-2.56v-.732zm0 4.389h1.462v.731H2.934v-.731zm2.193 0h6.583v.731H5.127v-.731z"/></symbol><symbol viewBox="0 0 26 26" id="download" xmlns="http://www.w3.org/2000/svg"><path d="M20.998 7.359a8.135 8.135 0 0 0-15.955-.005 5.694 5.694 0 0 0 .656 11.35h4.067a.813.813 0 1 0 0-1.626H5.7a4.068 4.068 0 0 1 .048-8.135.813.813 0 0 0 .808-.724 6.508 6.508 0 0 1 12.93 0 .86.86 0 0 0 .856.724 4.067 4.067 0 1 1 0 8.135h-4.067a.813.813 0 1 0 0 1.627h4.067a5.694 5.694 0 0 0 .657-11.346zm-5.102 13.014l-2.063 2.063V12.198a.813.813 0 1 0-1.626 0v10.238l-2.063-2.063a.813.813 0 1 0-1.15 1.15l3.45 3.45a.816.816 0 0 0 1.152 0l3.45-3.45a.813.813 0 1 0-1.13-1.17l-.02.02z"/></symbol><symbol viewBox="0 0 16 16" id="filter" xmlns="http://www.w3.org/2000/svg"><path d="M15.14 0H.875a.67.67 0 0 0-.597.364.68.68 0 0 0 .053.707l5.226 7.362.005.007c.19.257.293.567.294.886v6.002a.667.667 0 0 0 .93.62l2.937-1.12c.263-.08.438-.33.438-.628V9.326c0-.319.103-.63.293-.886l.005-.007 5.226-7.362a.679.679 0 0 0 .053-.707A.67.67 0 0 0 15.14 0zM9.8 7.96c-.292.395-.45.874-.45 1.366v4.775l-2.681 1.022V9.326a2.311 2.311 0 0 0-.451-1.367L1.143.812h13.73L9.799 7.96z"/></symbol><symbol viewBox="0 0 54 37" id="icon-next" xmlns="http://www.w3.org/2000/svg"><path d="M53.264 16.732l-16.07-16a2.519 2.519 0 0 0-3.55 0c-.98.977-.98 2.56 0 3.536L45.427 16H2.511A2.506 2.506 0 0 0 0 18.5C0 19.88 1.124 21 2.51 21h42.917L33.644 32.732c-.98.977-.98 2.56 0 3.536A2.51 2.51 0 0 0 35.42 37a2.51 2.51 0 0 0 1.775-.732l16.07-16c.98-.977.98-2.56 0-3.536z"/></symbol><symbol viewBox="0 0 54 37" id="icon-prev" xmlns="http://www.w3.org/2000/svg"><path d="M.736 20.268l16.069 16c.98.976 2.57.976 3.55 0a2.49 2.49 0 0 0 0-3.536L8.574 21H51.49c1.386 0 2.51-1.12 2.51-2.5S52.876 16 51.49 16H8.572L20.356 4.268c.98-.977.98-2.56 0-3.536A2.51 2.51 0 0 0 18.58 0a2.51 2.51 0 0 0-1.775.732l-16.07 16c-.98.977-.98 2.56 0 3.536z"/></symbol><symbol viewBox="0 0 16 16" id="login" xmlns="http://www.w3.org/2000/svg"><path d="M9.334 4.333a3.333 3.333 0 1 1-6.667 0 3.333 3.333 0 0 1 6.667 0zM8.834 9H3.166A3.17 3.17 0 0 0 0 12.167V14.5a.5.5 0 0 0 .5.5h11a.5.5 0 0 0 .5-.5v-2.333A3.17 3.17 0 0 0 8.833 9zm7.006-2.367l-2.333-2.166a.5.5 0 0 0-.84.367v1.5H10a.666.666 0 1 0 0 1.333h2.666v1.5a.5.5 0 0 0 .841.366l2.333-2.166a.503.503 0 0 0 0-.734z"/></symbol><symbol viewBox="0 0 8 8" id="modal-close" xmlns="http://www.w3.org/2000/svg"><path d="M8 .809L7.191 0 4 3.191.809 0 0 .809 3.191 4 0 7.191.809 8 4 4.809 7.191 8 8 7.191 4.809 4 8 .809z"/></symbol><symbol viewBox="0 0 7 4" id="navbar-dropdown" xmlns="http://www.w3.org/2000/svg"><path d="M3.5 4a.488.488 0 0 1-.347-.144L.143.84a.492.492 0 0 1 0-.695.49.49 0 0 1 .694 0L3.5 2.814 6.163.144a.49.49 0 0 1 .693 0 .492.492 0 0 1 0 .695l-3.01 3.017A.488.488 0 0 1 3.5 4z"/></symbol><symbol viewBox="0 0 20 25" id="one-day" xmlns="http://www.w3.org/2000/svg"><path d="M16.748 8.367a6.879 6.879 0 0 0-2.272-4.244 6.878 6.878 0 0 0-4.552-1.719 6.87 6.87 0 0 0-4.55 1.719A6.879 6.879 0 0 0 3.1 8.365a.361.361 0 0 0 .716.096C4.225 5.42 6.85 3.127 9.924 3.127c3.075 0 5.7 2.294 6.108 5.336a.361.361 0 0 0 .716-.096zm-.305 1.374a.361.361 0 0 0-.403.314 6.167 6.167 0 0 1-6.116 5.398 6.166 6.166 0 0 1-6.116-5.403.361.361 0 1 0-.717.089 6.89 6.89 0 0 0 6.833 6.036 6.89 6.89 0 0 0 6.833-6.031.361.361 0 0 0-.314-.403zm-4.429 1.827h-.81V5.37a.466.466 0 0 0-.465-.465H9.521a.466.466 0 0 0-.3.109L7.01 6.872a.464.464 0 0 0-.068.643l.726.93a.468.468 0 0 0 .664.071l.504-.418v3.47H7.813a.466.466 0 0 0-.466.465v1.105c0 .257.209.466.466.466h4.201a.466.466 0 0 0 .466-.466v-1.105a.466.466 0 0 0-.466-.465zm-.256 1.313H8.07v-.59h1.022a.466.466 0 0 0 .465-.466V7.552a.461.461 0 0 0-.267-.421.461.461 0 0 0-.495.063l-.722.597-.41-.525 1.952-1.638h.867v6.197c0 .257.209.465.466.465h.81v.591zm7.963 7.789l-3.255-5.092a1.555 1.555 0 0 0 1.211-1.803.832.832 0 0 1 .446-.894 1.555 1.555 0 0 0 .627-2.206.832.832 0 0 1 .092-.994 1.555 1.555 0 0 0-.211-2.283.832.832 0 0 1-.274-.96 1.555 1.555 0 0 0-1.022-2.053.832.832 0 0 1-.602-.797 1.555 1.555 0 0 0-1.694-1.544.832.832 0 0 1-.85-.526A1.555 1.555 0 0 0 12.053.69a.833.833 0 0 1-.982-.184 1.554 1.554 0 0 0-2.292 0 .832.832 0 0 1-.982.184 1.555 1.555 0 0 0-2.138.828.833.833 0 0 1-.85.526 1.554 1.554 0 0 0-1.693 1.544.832.832 0 0 1-.602.797A1.555 1.555 0 0 0 1.49 6.437a.832.832 0 0 1-.274.961 1.555 1.555 0 0 0-.211 2.283.832.832 0 0 1 .092.995 1.555 1.555 0 0 0 .627 2.205c.33.164.513.532.446.894a1.555 1.555 0 0 0 1.21 1.803L.128 20.67a.576.576 0 0 0-.007.612c.115.19.325.296.546.277l3.177-.28 1.08 3a.576.576 0 0 0 .546.384.575.575 0 0 0 .486-.267l3.969-6.208 3.969 6.208a.575.575 0 0 0 .552.263.576.576 0 0 0 .48-.38l1.08-3 3.177.28a.576.576 0 0 0 .546-.277.576.576 0 0 0-.007-.612zm-18.828.143l3.173-4.963a.826.826 0 0 1 .224.427c.059.312.212.596.434.816l-2.26 3.582-1.571.139zm3.73.5l-.138-.382a.58.58 0 0 0-.596-.381l-.52.046 1.973-3.128c.288.093.601.1.898.016a.832.832 0 0 1 .716.13l-2.334 3.698zm.88 2.448l-.57-1.587 2.52-3.994a1.554 1.554 0 0 0 1.39.358l-3.34 5.223zm4.646-6.366a1.566 1.566 0 0 0-.45 0 1.543 1.543 0 0 0-.71.294.82.82 0 0 1-.652.154.82.82 0 0 1-.552-.379 1.533 1.533 0 0 0-.099-.14 1.558 1.558 0 0 0-1.644-.535.82.82 0 0 1-.663-.093.82.82 0 0 1-.379-.552 1.557 1.557 0 0 0-1.381-1.26.82.82 0 0 1-.585-.325.82.82 0 0 1-.153-.652 1.558 1.558 0 0 0-.833-1.673.82.82 0 0 1-.428-.515.82.82 0 0 1 .092-.663 1.558 1.558 0 0 0-.172-1.862.82.82 0 0 1-.213-.635.82.82 0 0 1 .326-.584 1.56 1.56 0 0 0 .511-1.799.82.82 0 0 1 .031-.668.82.82 0 0 1 .515-.428 1.558 1.558 0 0 0 1.127-1.492.82.82 0 0 1 .27-.612.82.82 0 0 1 .635-.213 1.557 1.557 0 0 0 1.59-.984.82.82 0 0 1 .473-.474.82.82 0 0 1 .669.031A1.558 1.558 0 0 0 9.31.993a.82.82 0 0 1 .613-.27.82.82 0 0 1 .612.27c.465.51 1.22.65 1.838.343a.82.82 0 0 1 .669-.03.82.82 0 0 1 .473.473 1.56 1.56 0 0 0 1.59.984.82.82 0 0 1 .634.213.82.82 0 0 1 .27.612c0 .69.464 1.303 1.127 1.492a.82.82 0 0 1 .515.428.82.82 0 0 1 .031.668 1.558 1.558 0 0 0 .512 1.798.82.82 0 0 1 .326.585.82.82 0 0 1-.213.635 1.558 1.558 0 0 0-.173 1.862.82.82 0 0 1 .093.663.82.82 0 0 1-.428.515c-.617.307-.96.995-.833 1.673a.82.82 0 0 1-.153.652.82.82 0 0 1-.585.326 1.539 1.539 0 0 0-.524.146 1.56 1.56 0 0 0-.858 1.113.82.82 0 0 1-.378.552.82.82 0 0 1-.663.093 1.558 1.558 0 0 0-1.743.675.82.82 0 0 1-.553.379.82.82 0 0 1-.652-.154 1.543 1.543 0 0 0-.709-.294zm4.196 6.366l-3.34-5.223a1.554 1.554 0 0 0 .638.015c.282-.053.542-.184.752-.373l2.52 3.994-.57 1.587zm1.614-3.211a.58.58 0 0 0-.596.38l-.137.382-2.334-3.698a.831.831 0 0 1 .716-.13c.296.084.61.077.898-.016l1.973 3.128-.52-.046zm1.425.125l-2.26-3.582c.222-.22.375-.504.434-.816a.826.826 0 0 1 .224-.427l3.173 4.964-1.571-.139z"/></symbol><symbol viewBox="0 0 11 17" id="pagin-next" xmlns="http://www.w3.org/2000/svg"><path fill-rule="evenodd" clip-rule="evenodd" d="M.9.98A1.5 1.5 0 0 0 .98 3.1l5.816 5.4-5.817 5.4a1.5 1.5 0 0 0 2.042 2.2l7-6.5a1.5 1.5 0 0 0 0-2.2l-7-6.5A1.5 1.5 0 0 0 .9.98z"/></symbol><symbol viewBox="0 0 11 17" id="pagin-prev" xmlns="http://www.w3.org/2000/svg"><path fill-rule="evenodd" clip-rule="evenodd" d="M10.1.98a1.5 1.5 0 0 1-.08 2.12L4.205 8.5l5.817 5.4a1.5 1.5 0 0 1-2.042 2.2l-7-6.5a1.5 1.5 0 0 1 0-2.2l7-6.5a1.5 1.5 0 0 1 2.12.08z"/></symbol><symbol viewBox="0 0 16 16" id="pointer" xmlns="http://www.w3.org/2000/svg"><path d="M8 0a5.897 5.897 0 0 0-5.89 5.89c0 .848.173 1.657.515 2.405 1.472 3.223 4.296 6.625 5.126 7.591a.328.328 0 0 0 .497 0c.83-.966 3.654-4.368 5.127-7.591a5.743 5.743 0 0 0 .515-2.404A5.898 5.898 0 0 0 8 0zm0 8.95a3.063 3.063 0 0 1-3.06-3.06A3.063 3.063 0 0 1 8 2.83a3.063 3.063 0 0 1 3.06 3.06A3.063 3.063 0 0 1 8 8.95z"/></symbol><symbol viewBox="0 0 16 16" id="search" xmlns="http://www.w3.org/2000/svg"><path d="M11.435 10.063h-.727l-.252-.252a5.89 5.89 0 0 0 1.437-3.865 5.946 5.946 0 1 0-5.947 5.947 5.91 5.91 0 0 0 3.865-1.432l.252.251v.723L14.637 16 16 14.637l-4.565-4.574zm-5.489 0a4.117 4.117 0 1 1 .001-8.234 4.117 4.117 0 0 1 0 8.234z"/></symbol><symbol viewBox="0 0 24 24" id="soc-fb" xmlns="http://www.w3.org/2000/svg"><path d="M22.5 0h-21C.5 0 0 .5 0 1.5v21c0 1 .5 1.5 1.5 1.5h11.32v-9.281H9.703v-3.633h3.117V8.412c0-3.1 1.893-4.787 4.659-4.787 1.324 0 2.463.098 2.794.142v3.24h-1.907c-1.504 0-1.796.716-1.796 1.765v2.314h3.598l-.469 3.633H16.57V24h5.93c1 0 1.5-.5 1.5-1.5v-21c0-1-.5-1.5-1.5-1.5z"/></symbol><symbol viewBox="0 0 24 24" id="soc-inst" xmlns="http://www.w3.org/2000/svg"><path d="M17.625 4.266H6.375c-1.163 0-2.11.946-2.11 2.109v11.25c0 1.163.947 2.11 2.11 2.11h11.25c1.163 0 2.11-.947 2.11-2.11V6.375c0-1.163-.947-2.11-2.11-2.11zM12 16.922A4.928 4.928 0 0 1 7.078 12 4.928 4.928 0 0 1 12 7.078 4.928 4.928 0 0 1 16.922 12 4.928 4.928 0 0 1 12 16.922zm4.922-8.438a1.408 1.408 0 0 1-1.406-1.406c0-.775.63-1.406 1.406-1.406.775 0 1.406.63 1.406 1.406 0 .775-.63 1.406-1.406 1.406zm-4.922 0A3.52 3.52 0 0 0 8.484 12 3.52 3.52 0 0 0 12 15.516 3.52 3.52 0 0 0 15.516 12 3.52 3.52 0 0 0 12 8.484zM22.5 0H1.578C.5 0 0 .5 0 1.5v21C0 23.563.438 24 1.5 24h21c1.063 0 1.5-.5 1.5-1.5v-21c0-1-.5-1.5-1.5-1.5zm-1.36 17.625a3.52 3.52 0 0 1-3.515 3.516H6.375a3.52 3.52 0 0 1-3.516-3.516V6.375a3.52 3.52 0 0 1 3.516-3.516h11.25a3.52 3.52 0 0 1 3.516 3.516v11.25z"/></symbol><symbol viewBox="0 0 24 24" id="soc-vk" xmlns="http://www.w3.org/2000/svg"><path d="M22.47 0H1.534C.686 0 0 .686 0 1.531v20.938C0 23.314.686 24 1.533 24h20.936c.845 0 1.531-.686 1.531-1.531V1.531A1.528 1.528 0 0 0 22.47 0zm-2.562 14.624c.439.447 1.39 1.198 1.218 1.961-.16.702-1.206.446-2.222.486-1.16.05-1.848.075-2.546-.486-.328-.265-.521-.58-.836-.933-.286-.318-.647-.889-1.138-.867-.883.044-.607 1.274-.92 2.112-4.905.772-6.874-2.257-8.612-5.198-.842-1.424-2.058-4.483-2.058-4.483l3.469-.011S7.376 9.228 7.67 9.75c.251.444.527.796.812 1.192.238.329.616.973 1.03.92.672-.086.794-2.695.377-3.568-.166-.354-.564-.478-.976-.598.14-.878 3.89-1.06 4.497-.38.88.99-.61 3.743.596 4.546 1.694-.887 3.14-4.603 3.14-4.603l4.061.025s-.635 2.009-1.3 2.9c-.388.521-1.675 1.683-1.625 2.545.041.683 1.088 1.347 1.626 1.895z"/></symbol><symbol viewBox="0 0 24 24" id="wallet" xmlns="http://www.w3.org/2000/svg"><path d="M22.48 14.057h-.359v-3.235c0-.512-.255-.965-.644-1.24V9.14a1.16 1.16 0 0 0-1.159-1.159h-.268l1.026-1.506a1.109 1.109 0 0 0-.291-1.539L13.822.193a1.1 1.1 0 0 0-.83-.173 1.1 1.1 0 0 0-.709.464l-6.01 8.819h-1.67l.403-4.085a.121.121 0 0 1 .076-.101 2.6 2.6 0 0 0 1.269-1.03.12.12 0 0 1 .113-.054l2.623.259a.342.342 0 0 0 .067-.68l-2.623-.26a.8.8 0 0 0-.758.367c-.219.344-.55.614-.932.758a.8.8 0 0 0-.516.674l-.41 4.151h-.436l.638-6.46a.424.424 0 0 1 .464-.38l5.3.524a.342.342 0 0 0 .067-.68l-5.3-.524a1.109 1.109 0 0 0-1.211.994L2.92 7.982h-.876A1.16 1.16 0 0 0 .887 9.141v.3c-.523.24-.887.77-.887 1.381V22.48C0 23.318.682 24 1.52 24h19.081c.838 0 1.52-.682 1.52-1.52v-3.235h.36a.77.77 0 0 0 .768-.769v-3.65a.77.77 0 0 0-.769-.769zm-2.162-5.391c.262 0 .475.213.475.475v.174a1.524 1.524 0 0 0-.192-.012h-1.45l.433-.637h.734zM12.848.87a.421.421 0 0 1 .59-.111l6.961 4.745a.424.424 0 0 1 .112.588l-2.188 3.211h-.526l1.073-1.574a.8.8 0 0 0 .038-.848 1.911 1.911 0 0 1-.23-1.18.8.8 0 0 0-.345-.767l-3.61-2.46a.8.8 0 0 0-.84-.041 1.912 1.912 0 0 1-1.182.218.81.81 0 0 0-.776.345L7.627 9.302H7.1L12.848.87zM13 6.677a2.822 2.822 0 0 0-2.811 2.625H8.454L12.49 3.38a.122.122 0 0 1 .116-.053 2.6 2.6 0 0 0 1.607-.296.12.12 0 0 1 .125.007l3.61 2.46c.037.026.058.07.052.114a2.6 2.6 0 0 0 .312 1.604.122.122 0 0 1-.007.127l-1.335 1.96h-1.16A2.822 2.822 0 0 0 13 6.676zm2.126 2.626h-4.252A2.137 2.137 0 0 1 13 7.36c1.112 0 2.028.855 2.126 1.942zM1.57 9.14c0-.262.213-.475.474-.475h.809l-.063.636H1.57V9.14zm-.887 1.681c0-.46.375-.836.836-.836H20.6c.461 0 .836.375.836.836v.95H.684v-.95zM21.437 22.48a.837.837 0 0 1-.836.836H1.52a.837.837 0 0 1-.836-.836v-.949h1.844a.342.342 0 1 0 0-.684H.684v-8.392h20.753v1.602h-3.251a2.597 2.597 0 0 0-2.333 1.462l-.005.009-.01.022c-.05.107-.094.217-.13.33v.002a2.597 2.597 0 0 0 2.477 3.363h3.252v1.602H4.717a.342.342 0 1 0 0 .684h16.72v.949zm1.128-4.004a.085.085 0 0 1-.085.085h-4.294a1.911 1.911 0 0 1-1.68-2.82c.325-.595.956-1 1.68-1h4.294c.047 0 .085.039.085.085v3.65zm-4.299-3.212a1.388 1.388 0 0 0 0 2.775 1.389 1.389 0 0 0 0-2.775zm0 2.09a.704.704 0 1 1 .002-1.408.704.704 0 0 1-.002 1.409z"/></symbol></svg>