<?xml version="1.0" encoding="utf-8"?><svg xmlns="http://www.w3.org/2000/svg" xmlns:xlink="http://www.w3.org/1999/xlink"><symbol viewBox="0 0 11 16" id="arrow-next" xmlns="http://www.w3.org/2000/svg"><path d="M2.8 0L1 1.9 7.1 8 .9 14.1 3 16l8-8-8-8z"/></symbol><symbol viewBox="0 0 25 24" id="car" xmlns="http://www.w3.org/2000/svg"><path fill-rule="evenodd" clip-rule="evenodd" d="M24.267 18.03a.025.025 0 0 1-.025.025h-1.746a1.935 1.935 0 0 0-1.777-1.174H19.52v-6.287c0-.015.011-.026.025-.026h2.867l.278.833h-1.97a.366.366 0 0 0-.367.366v1.957c0 .418.34.758.758.758h2.98l.054.055a.414.414 0 0 1 .122.294v.876h-.416a.366.366 0 0 0 0 .732h.416v1.591zm-3.548 1.982a1.2 1.2 0 0 1-1.2-1.2 1.2 1.2 0 0 1 1.193-1.198h.01a1.2 1.2 0 0 1 1.197 1.199 1.2 1.2 0 0 1-1.2 1.2zm2.754-6.262H21.11a.025.025 0 0 1-.026-.026v-1.59h1.85l.538 1.616zm-4.65 4.697H9.699a1.923 1.923 0 0 0-.383-.834H19.43a.366.366 0 0 0 0-.732H.757a.025.025 0 0 1-.025-.025V8.245c0-.014.011-.025.025-.025h18.005c.014 0 .025.01.025.025v8.636h-.807a.366.366 0 1 0 0 .733h1.226c-.19.238-.323.522-.383.833zm-11.02 1.565a1.2 1.2 0 0 1-1.2-1.2 1.2 1.2 0 0 1 1.192-1.198h.015a1.2 1.2 0 0 1-.007 2.398zm-3.132 0a1.2 1.2 0 0 1-1.2-1.2 1.2 1.2 0 0 1 1.193-1.198h.015a1.2 1.2 0 0 1 1.192 1.199 1.2 1.2 0 0 1-1.2 1.2zm-1.896-1.565H1.93a.025.025 0 0 1-.025-.026v-.807h1.252a1.925 1.925 0 0 0-.383.833zm20.157-8.611H19.52V7.487H0v10.126h1.174v.808c0 .419.339.758.757.758h.844a1.93 1.93 0 1 0 3.462.763 1.93 1.93 0 0 0 3.462-.763h9.124c.171.89.956 1.566 1.896 1.566a1.934 1.934 0 0 0 1.932-1.932v-.025h1.59c.42 0 .759-.34.759-.758v-3.199c0-.306-.12-.595-.337-.812l-.492-.492-.992-2.976-.247-.715z" fill="#3BF"/><path fill-rule="evenodd" clip-rule="evenodd" d="M4.676 18.446h-.004a.365.365 0 0 0-.364.367.368.368 0 0 0 .734 0 .366.366 0 0 0-.366-.367zm3.131 0h-.004a.365.365 0 0 0-.364.367.368.368 0 0 0 .734 0 .366.366 0 0 0-.366-.367zm12.917 0h-.004a.365.365 0 0 0-.364.367.368.368 0 0 0 .734 0 .366.366 0 0 0-.366-.367zM19.367 6.177l-.192.262.192-.261a.33.33 0 0 1-.388.531h-.002l.195-.266c-.195.265-.195.265-.194.266l-.003-.002a5.093 5.093 0 0 0-.683-.342c-.509-.21-1.33-.48-2.554-.703-2.447-.446-6.503-.701-12.886.093A.33.33 0 1 1 2.77 5.1c6.433-.8 10.558-.548 13.086-.087 1.265.23 2.132.512 2.688.742.278.114.478.216.612.29a2.89 2.89 0 0 1 .205.127l.004.003h.001v.001zm-.002-1.516l-.193.267.194-.266a.33.33 0 0 1-.387.533m0 0l-.004-.003-.02-.014a5.638 5.638 0 0 0-.477-.275 9.67 9.67 0 0 0-1.588-.633c-1.422-.436-3.58-.803-6.492-.501a.33.33 0 0 1-.068-.655c3.003-.311 5.25.065 6.753.526.751.23 1.316.481 1.696.677a6.257 6.257 0 0 1 .573.335l.01.006.002.002v.001h.001M0 8.22h19.52v-.733H0v.732z"/><path fill-rule="evenodd" clip-rule="evenodd" d="M0 17.59h.732V7.487H0V17.59zm18.788 0h.06a.672.672 0 0 0 .672-.672v-9.43h-.732V17.59z"/><path fill-rule="evenodd" clip-rule="evenodd" d="M19.52 16.881H0v.732h19.14c.21 0 .38-.17.38-.38v-.352z"/></symbol><symbol viewBox="0 0 491 491" id="checked" xmlns="http://www.w3.org/2000/svg"><path d="M418.275 418.275c95.7-95.7 95.7-250.8 0-346.5-95.7-95.7-250.8-95.7-346.5 0-95.7 95.7-95.7 250.8 0 346.5 95.7 95.7 250.9 95.7 346.5 0zm-261.1-210.7l55.1 55.1 120.7-120.6 42.7 42.7-120.6 120.6-42.8 42.7-97.8-97.8 42.7-42.7z"/></symbol><symbol viewBox="0 0 25 24" id="coin" xmlns="http://www.w3.org/2000/svg"><path fill-rule="evenodd" clip-rule="evenodd" d="M20.867 7.797H.352A.351.351 0 0 0 0 8.148v9.848c0 .194.157.351.35.352h15.516c.353-.31.138-.703-.169-.703H.703V8.5h19.812v2.347h.703V8.149a.351.351 0 0 0-.35-.352zm-2.385-1.632L2.07 2.472a.353.353 0 0 0-.42.267L.828 6.432a.352.352 0 0 0 .687.152l.744-3.348L18.328 6.85a.352.352 0 0 0 .154-.686zM16.489 4.13L6.642.027a.353.353 0 0 0-.452.168l-.82 1.641a.353.353 0 1 0 .63.315L6.674.805l9.543 3.976a.352.352 0 1 0 .272-.65zm3.557 8.943c-2.396 0-3.627-.598-3.693-.814v-.002c.066-.229 1.296-.826 3.693-.826 2.38 0 3.61.589 3.693.821-.082.232-1.313.82-3.693.82zm3.693.814c-.062.228-1.293.827-3.693.827-2.4 0-3.63-.6-3.693-.82v-.646c.873.438 2.316.645 3.693.645 1.378 0 2.82-.207 3.693-.645v.64zm0 1.641c-.062.228-1.293.827-3.693.827-2.4 0-3.63-.599-3.693-.82v-.646c.873.438 2.316.646 3.693.646 1.378 0 2.82-.208 3.693-.646v.64zm0 1.641c-.062.228-1.293.827-3.693.827-2.4 0-3.63-.599-3.693-.82v-.645c.873.44 2.316.645 3.693.645 1.378 0 2.82-.207 3.693-.646v.64zm0 1.642c-.062.227-1.293.826-3.693.826-2.4 0-3.63-.599-3.693-.82v-.645c.873.44 2.316.645 3.693.645 1.378 0 2.82-.207 3.693-.646v.64zm0 1.64c-.062.229-1.293.828-3.693.828-2.4 0-3.63-.6-3.693-.821v-.645c.873.44 2.316.645 3.693.645 1.378 0 2.82-.207 3.693-.645v.639zm0 1.642c-.062.228-1.293.827-3.693.827-2.4 0-3.63-.6-3.693-.82v-.646c.873.44 2.316.645 3.693.645 1.378 0 2.82-.207 3.693-.645v.639zm-3.693-11.482c-2.174 0-4.513.514-4.513 1.641v9.847c0 1.128 2.339 1.641 4.513 1.641 2.175 0 4.513-.513 4.513-1.64v-9.848c0-1.127-2.338-1.641-4.513-1.641z"/><path fill-rule="evenodd" clip-rule="evenodd" d="M10.19 9.935a3.173 3.173 0 1 0 0 6.346 3.173 3.173 0 0 0 0-6.346zm-3.672 3.173a3.673 3.673 0 1 1 7.345 0 3.673 3.673 0 0 1-7.345 0zm10.22-3.67H13.48a.352.352 0 0 0 0 .704h3.257a.352.352 0 1 0 0-.703z" fill="#3BF"/><path fill-rule="evenodd" clip-rule="evenodd" d="M9.822 14.35v.746h-.58v-.747h-.468v-.462h.468V13.5h-.468V13h.468v-1.88h.962c.95 0 1.402.479 1.402 1.198 0 .726-.451 1.182-1.402 1.182h-.382v.387h1.016v.462H9.822zm0-1.35h.382c.66 0 .822-.375.822-.692 0-.317-.161-.656-.822-.656h-.382v1.349zM5.885 9.073a.828.828 0 0 1 .055 1.17l-.39.429a3.597 3.597 0 0 0-.075 4.758l.482.563a.828.828 0 1 1-1.26 1.076l-.48-.563a5.253 5.253 0 0 1 .108-6.949l.39-.429a.828.828 0 0 1 1.17-.055z" fill="#3BF"/></symbol><symbol viewBox="0 0 11 16" id="contacts-address" xmlns="http://www.w3.org/2000/svg"><path d="M5.501 0C2.463 0 0 2.417 0 5.4c0 1.525 1.515 4.258 1.515 4.258L5.298 16l3.948-6.268S11 7.124 11 5.399C11 2.417 8.538 0 5.501 0zm-.026 8.373c-1.74 0-3.149-1.392-3.149-3.113 0-1.719 1.409-3.11 3.15-3.11 1.738 0 3.15 1.391 3.15 3.11 0 1.72-1.412 3.113-3.15 3.113z"/></symbol><symbol viewBox="0 0 13 13" id="contacts-email" xmlns="http://www.w3.org/2000/svg"><path d="M1.863 11.177a6.322 6.322 0 0 0 2.128 1.341A7.68 7.68 0 0 0 6.733 13c1.112 0 2.138-.168 3.06-.513.836-.304.116-1.844-.498-1.592-.677.282-1.503.429-2.446.429a5.781 5.781 0 0 1-2.011-.335 4.386 4.386 0 0 1-1.535-.943 4.29 4.29 0 0 1-.995-1.487c-.244-.587-.36-1.257-.36-1.99 0-.692.116-1.352.35-1.939.232-.586.55-1.11.973-1.53a4.425 4.425 0 0 1 1.503-1.015 5.092 5.092 0 0 1 1.959-.367c.667 0 1.28.094 1.831.262a3.78 3.78 0 0 1 1.398.775c.392.346.699.765.92 1.268.223.503.33 1.09.33 1.76a4.6 4.6 0 0 1-.128 1.1c-.085.324-.19.618-.339.848-.137.22-.296.398-.487.524-.222.146-.55.23-.804.146-.318-.104-.254-.544-.233-.806.032-.356.127-.691.2-1.037.117-.566.244-1.121.36-1.676.064-.304.138-.618.202-.922a.634.634 0 0 0-.625-.765h-.465a.635.635 0 0 0-.615.461c-.031.126-.063.23-.063.23-.233-.712-1.09-.91-1.768-.9-.89.01-1.704.46-2.297 1.1-.053.062-.117.125-.17.188a4.03 4.03 0 0 0-.698 1.247c-.17.482-.254.974-.254 1.477 0 .43.063.838.18 1.204.127.378.306.702.54.975.232.272.529.492.878.65.35.156.741.24 1.165.24.317 0 .614-.052.878-.146a3.28 3.28 0 0 0 .688-.346c.16-.105.307-.23.424-.346.074.136.159.251.275.367.297.314.752.471 1.355.471a3.44 3.44 0 0 0 1.377-.283 3.258 3.258 0 0 0 1.153-.859c.318-.377.583-.838.773-1.382.19-.545.286-1.174.286-1.865 0-.943-.18-1.78-.53-2.483a5.199 5.199 0 0 0-1.418-1.77C10.47.954 9.792.608 9.041.367A7.132 7.132 0 0 0 6.733 0c-.921 0-1.8.168-2.615.492A6.844 6.844 0 0 0 1.98 1.865 6.356 6.356 0 0 0 .53 3.928 6.359 6.359 0 0 0 0 6.516c0 .932.159 1.812.487 2.598a5.908 5.908 0 0 0 1.376 2.063zm5.727-4.4c-.074.283-.18.556-.328.807a1.9 1.9 0 0 1-.56.597c-.213.147-.467.22-.784.22a.886.886 0 0 1-.477-.115.908.908 0 0 1-.307-.325 1.518 1.518 0 0 1-.169-.46 2.563 2.563 0 0 1-.053-.462c0-.293.042-.586.127-.89a2.74 2.74 0 0 1 .36-.796c.159-.23.339-.42.561-.566a1.18 1.18 0 0 1 .688-.199c.212 0 .381.032.508.105a.883.883 0 0 1 .307.283c.085.126.138.272.18.43.043.177.064.366.064.544-.01.262-.042.534-.117.828z"/></symbol><symbol viewBox="0 0 16 16" id="contacts-phone" xmlns="http://www.w3.org/2000/svg"><path d="M15.659 12.698l-1.77-1.18-1.575-1.05a.697.697 0 0 0-.936.153l-.974 1.252a.693.693 0 0 1-.885.183c-.66-.367-1.442-.713-3.166-2.44C4.629 7.89 4.28 7.111 3.913 6.45a.694.694 0 0 1 .183-.885l1.252-.974a.697.697 0 0 0 .152-.936L4.484 2.129 3.27.311a.697.697 0 0 0-.939-.212L.934.94a1.709 1.709 0 0 0-.776 1.003c-.382 1.395-.46 4.47 4.47 9.4 4.929 4.928 8.004 4.851 9.399 4.469.421-.12.781-.398 1.004-.776l.839-1.399a.697.697 0 0 0-.211-.938zM9.086 2.478a4.686 4.686 0 0 1 4.68 4.68.275.275 0 1 0 .55 0 5.237 5.237 0 0 0-5.23-5.23.275.275 0 0 0 0 .55z"/><path d="M9.086 4.13a3.032 3.032 0 0 1 3.028 3.028.275.275 0 0 0 .55 0A3.583 3.583 0 0 0 9.087 3.58a.275.275 0 0 0 0 .55z"/><path d="M9.086 5.782c.76 0 1.375.617 1.376 1.376a.275.275 0 0 0 .551 0 1.93 1.93 0 0 0-1.927-1.927.275.275 0 0 0 0 .55z"/></symbol><symbol viewBox="0 0 11 12" id="contacts-tel" xmlns="http://www.w3.org/2000/svg"><path d="M4.265 6.048c.298.364.567.63.564.629A8.752 8.752 0 0 0 6.27 8.1c.366.288.94.325 1.253.127.312-.198.912-.6 1.36-.498.378.086.878.375 1.48 1.116 1.42 1.748.148 2.294-.733 2.999-.883.704-3.794-1.04-6.46-3.884C.5 5.117-.504 2.176.234 1.31.974.444 1.59-.84 3.158.765c.666.68.905 1.221.96 1.62.065.474-.363 1.068-.575 1.378-.212.31-.218.91.03 1.313.219.355.453.679.692.972z"/></symbol><symbol viewBox="0 0 25 25" id="docs" xmlns="http://www.w3.org/2000/svg"><path fill-rule="evenodd" clip-rule="evenodd" d="M7.078 24.651l-.407-.002c.07.192.309.35.533.35.225.002.35-.153.28-.345l-.002-.006-.008-.022a7.568 7.568 0 0 1-.127-.413 7.456 7.456 0 0 1-.212-1.048c-.05-.4-.059-.813.016-1.172.076-.36.23-.644.485-.815.364-.245.808-.421 1.284-.607l.04-.015c.453-.177.935-.365 1.334-.627.417-.274.754-.636.895-1.168.14-.528.08-1.199-.236-2.07-.07-.192-.31-.349-.534-.35-.224-.001-.35.154-.279.346.287.787.32 1.336.213 1.74-.106.4-.359.68-.705.908-.35.23-.781.398-1.254.582l-.014.006c-.467.182-.972.38-1.394.664-.39.262-.587.667-.676 1.094-.09.43-.076.904-.023 1.338a8.071 8.071 0 0 0 .37 1.591l.01.028.003.007v.003h.001l.407.003zM.319 17.406l-.017.338A.44.44 0 0 1 0 17.315c.01-.186.16-.297.336-.246l.005.001.02.006.08.02a7.327 7.327 0 0 0 1.264.202c.37.024.754.015 1.092-.063.339-.077.61-.217.781-.436.245-.312.43-.688.626-1.09l.017-.036c.186-.383.384-.791.647-1.133.275-.358.629-.653 1.13-.792.499-.139 1.12-.116 1.915.111.176.05.31.242.3.429-.009.186-.16.297-.335.246-.718-.205-1.228-.211-1.608-.105-.378.105-.652.326-.88.623-.23.3-.408.665-.602 1.066l-.006.012c-.192.396-.4.823-.685 1.185-.263.335-.648.515-1.05.607-.404.092-.846.1-1.247.074a7.907 7.907 0 0 1-1.463-.243l-.025-.006-.007-.002H.303l-.001-.001.017-.338zm9.243-2.386a.301.301 0 0 1 0 .435l-5.976 5.812a.322.322 0 0 1-.447 0 .301.301 0 0 1 0-.435l5.976-5.812a.322.322 0 0 1 .447 0zm6.834-7.267h.34c.588 0 .732-.326.732-.6 0-.275-.144-.568-.733-.568h-.34v1.168zm0 1.168v.647h-.517v-.647h-.416v-.4h.416v-.335h-.416v-.433h.416V6.124h.856c.848 0 1.25.414 1.25 1.038 0 .628-.402 1.024-1.25 1.024h-.34v.335h.905v.4h-.904z" fill="#3BF"/><path fill-rule="evenodd" clip-rule="evenodd" d="M13.675 19.448a6.248 6.248 0 0 0 .437-3.49c1.11-.435 2.167-.99 3.158-1.645a6.246 6.246 0 0 1-1.868 3.935 6.454 6.454 0 0 1-1.727 1.2zm-1.533-3.59l-3.447-3.353c1.47-5.05 5.805-9.286 10.796-10.883l3.838 3.733c-1.635 4.86-5.994 9.073-11.187 10.503zM5 11.018c.314-.62.73-1.19 1.234-1.68a6.574 6.574 0 0 1 4.043-1.82 16.34 16.34 0 0 0-1.692 3.072A6.758 6.758 0 0 0 5 11.018zM22.84.957l1.279-.1-.102 1.244a13.158 13.158 0 0 1-.427 2.397l-3.218-3.13c.81-.206 1.632-.346 2.468-.411zm-4.745 12.78c3.761-2.801 6.355-7.059 6.726-11.574L25 0l-2.229.171c-4.638.364-9.016 2.887-11.896 6.545-1.946-.014-3.835.727-5.213 2.067a7.099 7.099 0 0 0-1.826 2.962l-.317 1.022.923-.576a5.917 5.917 0 0 1 3.856-.844c-.127.35-.351.815-.45 1.172l-.063.219 4.113 4 .226-.06c.367-.097.845-.315 1.204-.439a5.497 5.497 0 0 1-.867 3.75l-.592.899 1.05-.309a7.359 7.359 0 0 0 3.042-1.772 6.988 6.988 0 0 0 2.133-5.07zm-1.371-8.608c-1.544 0-2.795 1.216-2.795 2.717 0 1.501 1.251 2.718 2.795 2.718 1.543 0 2.794-1.217 2.794-2.718 0-1.5-1.252-2.717-2.794-2.717zM13.42 7.846c0-1.774 1.478-3.212 3.303-3.212 1.824 0 3.302 1.438 3.302 3.212 0 1.774-1.478 3.213-3.302 3.213-1.825 0-3.303-1.439-3.303-3.213z"/></symbol><symbol viewBox="0 0 26 26" id="download" xmlns="http://www.w3.org/2000/svg"><path d="M20.998 7.359a8.135 8.135 0 0 0-15.955-.005 5.694 5.694 0 0 0 .656 11.35h4.067a.813.813 0 1 0 0-1.626H5.7a4.068 4.068 0 0 1 .048-8.135.813.813 0 0 0 .808-.724 6.508 6.508 0 0 1 12.93 0 .86.86 0 0 0 .856.724 4.067 4.067 0 1 1 0 8.135h-4.067a.813.813 0 1 0 0 1.627h4.067a5.694 5.694 0 0 0 .657-11.346zm-5.102 13.014l-2.063 2.063V12.198a.813.813 0 1 0-1.626 0v10.238l-2.063-2.063a.813.813 0 1 0-1.15 1.15l3.45 3.45a.816.816 0 0 0 1.152 0l3.45-3.45a.813.813 0 1 0-1.13-1.17l-.02.02z"/></symbol><symbol viewBox="0 0 16 16" id="filter" xmlns="http://www.w3.org/2000/svg"><path d="M15.14 0H.875a.67.67 0 0 0-.597.364.68.68 0 0 0 .053.707l5.226 7.362.005.007c.19.257.293.567.294.886v6.002a.667.667 0 0 0 .93.62l2.937-1.12c.263-.08.438-.33.438-.628V9.326c0-.319.103-.63.293-.886l.005-.007 5.226-7.362a.679.679 0 0 0 .053-.707A.67.67 0 0 0 15.14 0zM9.8 7.96c-.292.395-.45.874-.45 1.366v4.775l-2.681 1.022V9.326a2.311 2.311 0 0 0-.451-1.367L1.143.812h13.73L9.799 7.96z"/></symbol><symbol viewBox="0 0 54 37" id="icon-next" xmlns="http://www.w3.org/2000/svg"><path d="M53.264 16.732l-16.07-16a2.519 2.519 0 0 0-3.55 0c-.98.977-.98 2.56 0 3.536L45.427 16H2.511A2.506 2.506 0 0 0 0 18.5C0 19.88 1.124 21 2.51 21h42.917L33.644 32.732c-.98.977-.98 2.56 0 3.536A2.51 2.51 0 0 0 35.42 37a2.51 2.51 0 0 0 1.775-.732l16.07-16c.98-.977.98-2.56 0-3.536z"/></symbol><symbol viewBox="0 0 54 37" id="icon-prev" xmlns="http://www.w3.org/2000/svg"><path d="M.736 20.268l16.069 16c.98.976 2.57.976 3.55 0a2.49 2.49 0 0 0 0-3.536L8.574 21H51.49c1.386 0 2.51-1.12 2.51-2.5S52.876 16 51.49 16H8.572L20.356 4.268c.98-.977.98-2.56 0-3.536A2.51 2.51 0 0 0 18.58 0a2.51 2.51 0 0 0-1.775.732l-16.07 16c-.98.977-.98 2.56 0 3.536z"/></symbol><symbol viewBox="0 0 16 16" id="login" xmlns="http://www.w3.org/2000/svg"><path d="M9.334 4.333a3.333 3.333 0 1 1-6.667 0 3.333 3.333 0 0 1 6.667 0zM8.834 9H3.166A3.17 3.17 0 0 0 0 12.167V14.5a.5.5 0 0 0 .5.5h11a.5.5 0 0 0 .5-.5v-2.333A3.17 3.17 0 0 0 8.833 9zm7.006-2.367l-2.333-2.166a.5.5 0 0 0-.84.367v1.5H10a.666.666 0 1 0 0 1.333h2.666v1.5a.5.5 0 0 0 .841.366l2.333-2.166a.503.503 0 0 0 0-.734z"/></symbol><symbol viewBox="0 0 8 8" id="modal-close" xmlns="http://www.w3.org/2000/svg"><path d="M8 .809L7.191 0 4 3.191.809 0 0 .809 3.191 4 0 7.191.809 8 4 4.809 7.191 8 8 7.191 4.809 4 8 .809z"/></symbol><symbol viewBox="0 0 7 4" id="navbar-dropdown" xmlns="http://www.w3.org/2000/svg"><path d="M3.5 4a.488.488 0 0 1-.347-.144L.143.84a.492.492 0 0 1 0-.695.49.49 0 0 1 .694 0L3.5 2.814 6.163.144a.49.49 0 0 1 .693 0 .492.492 0 0 1 0 .695l-3.01 3.017A.488.488 0 0 1 3.5 4z"/></symbol><symbol viewBox="0 0 25 26" id="one-day" xmlns="http://www.w3.org/2000/svg"><path fill-rule="evenodd" clip-rule="evenodd" d="M24.125 19.912c-.47 2.617-2.738 4.531-5.357 4.531h-.391a2.32 2.32 0 0 1-.548-.078c-2.971-.508-4.926-3.36-4.418-6.328a5.478 5.478 0 0 1 4.966-4.531h.39c.314 0 .626.039.94.078 2.97.508 4.926 3.36 4.418 6.328zM.782 24.443V1.006h13.294v3.516c0 .234.156.39.39.39h3.52v7.852c-2.737.351-4.849 2.382-5.318 5.117-.508 2.695.821 5.39 3.05 6.562H.782zm14.076-22.89l2.58 2.578h-2.58V1.553zm5.005 11.25a9.416 9.416 0 0 0-1.095-.078V4.522a.355.355 0 0 0-.118-.274L14.74.342a.355.355 0 0 0-.273-.117H.39C.156.225 0 .38 0 .615v24.219c0 .195.156.39.39.39h17.987c.039 0 .078 0 .117-.038h.274c3.01 0 5.591-2.188 6.138-5.157.587-3.398-1.642-6.64-5.043-7.226z"/><path fill-rule="evenodd" clip-rule="evenodd" d="M21.702 16.293l-4.458 4.375-1.29-1.289a.378.378 0 0 0-.547 0 .377.377 0 0 0 0 .547l1.564 1.562a.423.423 0 0 0 .273.118c.118 0 .196-.04.274-.118l4.731-4.648a.377.377 0 0 0 0-.547.378.378 0 0 0-.547 0zM2.956 10.27l-.26-.316a.41.41 0 1 0 .52.633h.001l.005-.004.02-.016a9.28 9.28 0 0 1 .39-.29 9.873 9.873 0 0 1 1.06-.652 5.889 5.889 0 0 1 1.35-.531c.461-.11.886-.12 1.246-.003.515.169 1.004.431 1.524.713l.045.025c.495.269 1.022.555 1.58.742.584.197 1.216.29 1.914.152.696-.136 1.423-.494 2.213-1.144a.41.41 0 1 0-.521-.632c-.714.587-1.32.869-1.85.973-.527.103-1.011.038-1.495-.125-.49-.164-.962-.42-1.478-.701l-.016-.009c-.511-.278-1.064-.577-1.661-.772-.553-.18-1.143-.145-1.69-.016A6.7 6.7 0 0 0 4.31 8.9a10.694 10.694 0 0 0-1.58 1.026l-.025.02-.006.006-.003.002.26.317zm-.092-4.94l-.192-.312a.5.5 0 0 0-.041.568c.106.172.296.196.425.055l.004-.004.014-.016.06-.062a7.309 7.309 0 0 1 1.01-.865c.313-.22.657-.416.995-.523.339-.107.652-.118.917-.002.38.166.74.424 1.124.702l.033.024c.364.264.753.547 1.164.73.43.194.896.285 1.41.15.513-.134 1.05-.486 1.631-1.126a.5.5 0 0 0 .041-.567c-.106-.172-.296-.197-.425-.055-.526.578-.972.855-1.363.957-.388.102-.745.037-1.102-.122-.36-.162-.708-.415-1.089-.69l-.012-.01c-.376-.273-.784-.567-1.224-.76-.407-.177-.842-.143-1.245-.015-.404.127-.797.354-1.137.594a7.914 7.914 0 0 0-1.164 1.01l-.019.02-.005.005-.001.001-.001.001.192.312zm.092 7.584l-.26-.316a.41.41 0 1 0 .52.632h.001l.004-.004.02-.016.081-.064a9.876 9.876 0 0 1 1.37-.879 5.886 5.886 0 0 1 1.35-.53c.46-.109.885-.12 1.245-.003.516.169 1.005.431 1.525.714l.045.024c.495.269 1.022.556 1.58.743.584.196 1.215.289 1.914.152.696-.137 1.423-.495 2.213-1.144a.41.41 0 1 0-.521-.633c-.714.588-1.32.869-1.85.973-.527.103-1.011.038-1.495-.125-.49-.164-.962-.42-1.478-.701l-.016-.009c-.511-.277-1.064-.577-1.662-.772-.552-.18-1.142-.145-1.688-.016-.55.13-1.083.36-1.544.603a10.693 10.693 0 0 0-1.58 1.026l-.025.02-.007.006-.002.002.26.317zm-.092 4.572l-.192-.31a.5.5 0 0 0-.041.567c.106.171.296.196.425.055l.004-.004.014-.016.06-.063a7.318 7.318 0 0 1 1.01-.865c.313-.22.657-.415.995-.522.339-.107.652-.118.917-.002.38.165.74.424 1.124.702l.033.024c.364.264.753.546 1.164.73.43.194.896.285 1.41.15.513-.134 1.05-.486 1.631-1.126a.5.5 0 0 0 .041-.567c-.106-.172-.296-.197-.425-.055-.526.578-.972.855-1.363.957-.388.102-.745.037-1.102-.123-.36-.161-.708-.414-1.089-.69l-.012-.009c-.376-.273-.784-.567-1.224-.76-.407-.178-.842-.143-1.245-.015-.404.127-.797.354-1.137.593a7.913 7.913 0 0 0-1.164 1.01l-.019.02-.005.006-.001.001-.001.001.192.311z" fill="#3BF"/></symbol><symbol viewBox="0 0 11 17" id="pagin-next" xmlns="http://www.w3.org/2000/svg"><path fill-rule="evenodd" clip-rule="evenodd" d="M.9.98A1.5 1.5 0 0 0 .98 3.1l5.816 5.4-5.817 5.4a1.5 1.5 0 0 0 2.042 2.2l7-6.5a1.5 1.5 0 0 0 0-2.2l-7-6.5A1.5 1.5 0 0 0 .9.98z"/></symbol><symbol viewBox="0 0 11 17" id="pagin-prev" xmlns="http://www.w3.org/2000/svg"><path fill-rule="evenodd" clip-rule="evenodd" d="M10.1.98a1.5 1.5 0 0 1-.08 2.12L4.205 8.5l5.817 5.4a1.5 1.5 0 0 1-2.042 2.2l-7-6.5a1.5 1.5 0 0 1 0-2.2l7-6.5a1.5 1.5 0 0 1 2.12.08z"/></symbol><symbol viewBox="0 0 16 16" id="pointer" xmlns="http://www.w3.org/2000/svg"><path d="M8 0a5.897 5.897 0 0 0-5.89 5.89c0 .848.173 1.657.515 2.405 1.472 3.223 4.296 6.625 5.126 7.591a.328.328 0 0 0 .497 0c.83-.966 3.654-4.368 5.127-7.591a5.743 5.743 0 0 0 .515-2.404A5.898 5.898 0 0 0 8 0zm0 8.95a3.063 3.063 0 0 1-3.06-3.06A3.063 3.063 0 0 1 8 2.83a3.063 3.063 0 0 1 3.06 3.06A3.063 3.063 0 0 1 8 8.95z"/></symbol><symbol viewBox="0 0 16 16" id="search" xmlns="http://www.w3.org/2000/svg"><path d="M11.435 10.063h-.727l-.252-.252a5.89 5.89 0 0 0 1.437-3.865 5.946 5.946 0 1 0-5.947 5.947 5.91 5.91 0 0 0 3.865-1.432l.252.251v.723L14.637 16 16 14.637l-4.565-4.574zm-5.489 0a4.117 4.117 0 1 1 .001-8.234 4.117 4.117 0 0 1 0 8.234z"/></symbol><symbol viewBox="0 0 24 24" id="soc-fb" xmlns="http://www.w3.org/2000/svg"><path d="M22.5 0h-21C.5 0 0 .5 0 1.5v21c0 1 .5 1.5 1.5 1.5h11.32v-9.281H9.703v-3.633h3.117V8.412c0-3.1 1.893-4.787 4.659-4.787 1.324 0 2.463.098 2.794.142v3.24h-1.907c-1.504 0-1.796.716-1.796 1.765v2.314h3.598l-.469 3.633H16.57V24h5.93c1 0 1.5-.5 1.5-1.5v-21c0-1-.5-1.5-1.5-1.5z"/></symbol><symbol viewBox="0 0 24 24" id="soc-inst" xmlns="http://www.w3.org/2000/svg"><path d="M17.625 4.266H6.375c-1.163 0-2.11.946-2.11 2.109v11.25c0 1.163.947 2.11 2.11 2.11h11.25c1.163 0 2.11-.947 2.11-2.11V6.375c0-1.163-.947-2.11-2.11-2.11zM12 16.922A4.928 4.928 0 0 1 7.078 12 4.928 4.928 0 0 1 12 7.078 4.928 4.928 0 0 1 16.922 12 4.928 4.928 0 0 1 12 16.922zm4.922-8.438a1.408 1.408 0 0 1-1.406-1.406c0-.775.63-1.406 1.406-1.406.775 0 1.406.63 1.406 1.406 0 .775-.63 1.406-1.406 1.406zm-4.922 0A3.52 3.52 0 0 0 8.484 12 3.52 3.52 0 0 0 12 15.516 3.52 3.52 0 0 0 15.516 12 3.52 3.52 0 0 0 12 8.484zM22.5 0H1.578C.5 0 0 .5 0 1.5v21C0 23.563.438 24 1.5 24h21c1.063 0 1.5-.5 1.5-1.5v-21c0-1-.5-1.5-1.5-1.5zm-1.36 17.625a3.52 3.52 0 0 1-3.515 3.516H6.375a3.52 3.52 0 0 1-3.516-3.516V6.375a3.52 3.52 0 0 1 3.516-3.516h11.25a3.52 3.52 0 0 1 3.516 3.516v11.25z"/></symbol><symbol viewBox="0 0 24 24" id="soc-vk" xmlns="http://www.w3.org/2000/svg"><path d="M22.47 0H1.534C.686 0 0 .686 0 1.531v20.938C0 23.314.686 24 1.533 24h20.936c.845 0 1.531-.686 1.531-1.531V1.531A1.528 1.528 0 0 0 22.47 0zm-2.562 14.624c.439.447 1.39 1.198 1.218 1.961-.16.702-1.206.446-2.222.486-1.16.05-1.848.075-2.546-.486-.328-.265-.521-.58-.836-.933-.286-.318-.647-.889-1.138-.867-.883.044-.607 1.274-.92 2.112-4.905.772-6.874-2.257-8.612-5.198-.842-1.424-2.058-4.483-2.058-4.483l3.469-.011S7.376 9.228 7.67 9.75c.251.444.527.796.812 1.192.238.329.616.973 1.03.92.672-.086.794-2.695.377-3.568-.166-.354-.564-.478-.976-.598.14-.878 3.89-1.06 4.497-.38.88.99-.61 3.743.596 4.546 1.694-.887 3.14-4.603 3.14-4.603l4.061.025s-.635 2.009-1.3 2.9c-.388.521-1.675 1.683-1.625 2.545.041.683 1.088 1.347 1.626 1.895z"/></symbol><symbol viewBox="0 0 25 21" id="wallet" xmlns="http://www.w3.org/2000/svg"><path fill-rule="evenodd" clip-rule="evenodd" d="M12.5 8.401a2.56 2.56 0 1 0 0 5.12 2.56 2.56 0 0 0 0-5.12zm-3.298 2.56a3.298 3.298 0 1 1 6.595 0 3.298 3.298 0 0 1-6.595 0z" fill="#3BF"/><path fill-rule="evenodd" clip-rule="evenodd" d="M.806 11.5h8.765v-1.016H.806v1.015zm14.828 0h8.56v-1.016h-8.56v1.015z" fill="#3BF"/><path fill-rule="evenodd" clip-rule="evenodd" d="M24.194 18.951c0 .668-.543 1.21-1.21 1.21H2.016c-.667 0-1.21-.542-1.21-1.21V6.855c0-.667.543-1.21 1.21-1.21h20.968c.667 0 1.21.543 1.21 1.21V18.95zM5.645 4.84h1.613v-.807H5.645v.807zM8.065.807h8.87c1.112 0 2.017.904 2.017 2.016v.403h-.807v-.403c0-.667-.543-1.21-1.21-1.21h-8.87c-.668 0-1.21.543-1.21 1.21v.403h-.807v-.403c0-1.112.905-2.016 2.016-2.016zm-.403 2.53v-.515c0-.222.18-.403.403-.403h8.87c.223 0 .404.18.404.403v.516a.804.804 0 0 0-.403.694v.807H8.065v-.807a.804.804 0 0 0-.403-.694zm10.08 1.502h1.613v-.807h-1.613v.807zm5.242 0h-2.823v-.807a.804.804 0 0 0-.403-.694v-.515A2.826 2.826 0 0 0 16.936 0H8.065a2.826 2.826 0 0 0-2.823 2.823v.515a.804.804 0 0 0-.403.694v.807H2.016A2.018 2.018 0 0 0 0 6.855V18.95a2.02 2.02 0 0 0 2.016 2.017h20.968A2.018 2.018 0 0 0 25 18.95V6.855a2.018 2.018 0 0 0-2.016-2.016zm1.56 10.493a.378.378 0 0 1-.21.491l-1.294.519-.015.004a19.402 19.402 0 0 1-8.098.702h-.009l-4.978-.743a17.629 17.629 0 0 0-7.053.55l-1.976.569a.378.378 0 1 1-.21-.726l1.977-.57a18.385 18.385 0 0 1 7.36-.572l.009.001 4.978.742c2.608.326 5.26.096 7.763-.67l1.265-.507a.378.378 0 0 1 .491.21zm0 1.895a.378.378 0 0 1-.21.491l-1.294.519-.015.004a19.402 19.402 0 0 1-8.098.702h-.009L9.94 18.2a17.629 17.629 0 0 0-7.053.55l-1.976.569a.378.378 0 0 1-.21-.727l1.977-.569a18.387 18.387 0 0 1 7.36-.572l.009.001 4.978.742a18.67 18.67 0 0 0 7.763-.67l1.265-.508a.378.378 0 0 1 .491.21zM11.114 6.313h2.772v4.17h-2.773v-4.17zm.755.756v2.659h1.262v-2.66h-1.262z"/></symbol></svg>