<svg width="25" height="24" viewBox="0 0 25 24" xmlns="http://www.w3.org/2000/svg">
<path fill-rule="evenodd" clip-rule="evenodd" d="M24.2671 18.0302C24.2671 18.0441 24.2559 18.0554 24.242 18.0554H22.4963C22.201 17.3656 21.5158 16.881 20.7192 16.881C20.7168 16.881 20.7142 16.8812 20.7118 16.8812H19.5198V10.5935V10.5932C19.5198 10.5792 19.5312 10.5679 19.5451 10.5679H22.4124L22.6901 11.4011H20.7192C20.517 11.4011 20.3531 11.5651 20.3531 11.7674V13.7244C20.3531 14.1423 20.6929 14.4821 21.1106 14.4821H24.0903L24.1451 14.537C24.2238 14.6156 24.2671 14.7203 24.2671 14.8315V15.7069H23.8506C23.6484 15.7069 23.4843 15.8709 23.4843 16.0732C23.4843 16.2755 23.6484 16.4394 23.8506 16.4394H24.2671V18.0302ZM20.7192 20.0122C20.0579 20.0122 19.5198 19.4742 19.5198 18.8128C19.5198 18.154 20.0539 17.6177 20.7118 17.6136H20.7194C20.7202 17.6136 20.721 17.6135 20.7218 17.6134C21.3821 17.6148 21.9188 18.1523 21.9188 18.8128C21.9187 19.4742 21.3806 20.0122 20.7192 20.0122V20.0122ZM23.4729 13.7497H21.1106C21.0967 13.7497 21.0855 13.7383 21.0855 13.7244V12.1336H22.9343L23.4729 13.7497ZM18.8226 18.4466H9.69928C9.63942 18.1361 9.50508 17.852 9.31552 17.6135H19.43C19.6322 17.6135 19.7961 17.4496 19.7961 17.2473C19.7961 17.0451 19.6322 16.8812 19.43 16.8812H0.757284C0.743363 16.8812 0.731994 16.8699 0.731994 16.8559V8.24485C0.731994 8.23092 0.743363 8.21967 0.757284 8.21967H18.7622C18.7761 8.21967 18.7874 8.23092 18.7874 8.24485V16.8812H17.9796C17.7774 16.8812 17.6133 17.0451 17.6133 17.2474C17.6133 17.4496 17.7774 17.6136 17.9796 17.6136H19.2064C19.0169 17.8522 18.8825 18.1361 18.8226 18.4466V18.4466ZM7.80264 20.0122C7.14128 20.0122 6.60322 19.4742 6.60322 18.8128C6.60322 18.154 7.13721 17.6177 7.79522 17.6136H7.8103C8.46819 17.6176 9.00218 18.1539 9.00218 18.8128C9.00206 19.4742 8.46401 20.0122 7.80264 20.0122V20.0122ZM4.67132 20.0122C4.00995 20.0122 3.4719 19.4742 3.4719 18.8128C3.4719 18.154 4.00601 17.6177 4.6639 17.6136H4.67886C5.33675 17.6176 5.87086 18.1539 5.87086 18.8128C5.87086 19.4742 5.33269 20.0122 4.67132 20.0122V20.0122ZM2.77469 18.4466H1.93141C1.91761 18.4466 1.90624 18.4353 1.90624 18.4214V17.6136H3.15844C2.969 17.8522 2.83455 18.1361 2.77469 18.4466V18.4466ZM22.9322 9.83556H19.5198V7.4873H-0.000488281V17.6135H1.17387V18.4214C1.17387 18.8397 1.51297 19.179 1.93141 19.179H2.77469C2.9465 20.0696 3.7313 20.7446 4.67132 20.7446C5.31506 20.7446 5.88582 20.4279 6.23698 19.9424C6.58814 20.4279 7.15891 20.7446 7.80264 20.7446C8.74267 20.7446 9.52759 20.0696 9.69928 19.179H18.8226C18.9943 20.0696 19.7792 20.7446 20.7192 20.7446C21.7845 20.7446 22.651 19.8779 22.651 18.8127C22.651 18.8044 22.6504 18.7961 22.6503 18.7878H24.2419C24.6604 18.7878 24.9995 18.4486 24.9995 18.0301V14.8315C24.9995 14.5247 24.88 14.236 24.663 14.0191L24.1706 13.5266L23.1786 10.5508L22.9322 9.83556Z" fill="#33BBFF"/>
<path fill-rule="evenodd" clip-rule="evenodd" d="M4.67574 18.4464H4.67179C4.46959 18.4464 4.30752 18.6104 4.30752 18.8126C4.30752 19.0148 4.47353 19.1787 4.67574 19.1787C4.87794 19.1787 5.04198 19.0148 5.04198 18.8126C5.04198 18.6104 4.87794 18.4464 4.67574 18.4464Z" />
<path fill-rule="evenodd" clip-rule="evenodd" d="M7.80708 18.4464H7.80314C7.60093 18.4464 7.43887 18.6104 7.43887 18.8126C7.43887 19.0148 7.60476 19.1787 7.80708 19.1787C8.00928 19.1787 8.17321 19.0148 8.17321 18.8126C8.17321 18.6104 8.00928 18.4464 7.80708 18.4464Z" />
<path fill-rule="evenodd" clip-rule="evenodd" d="M20.7237 18.4464H20.7198C20.5176 18.4464 20.3555 18.6104 20.3555 18.8126C20.3555 19.0148 20.5215 19.1787 20.7237 19.1787C20.9259 19.1787 21.0898 19.0148 21.0898 18.8126C21.0898 18.6104 20.9259 18.4464 20.7237 18.4464Z" />
<path fill-rule="evenodd" clip-rule="evenodd" d="M19.3669 6.17736C19.3672 6.17757 19.3674 6.17777 19.1751 6.43913L19.3674 6.17777C19.5139 6.28557 19.5453 6.49169 19.4375 6.63817C19.3301 6.78413 19.125 6.81578 18.9786 6.70932C18.9781 6.70895 18.9776 6.70858 18.9771 6.7082L19.1723 6.44299C18.9771 6.7082 18.9773 6.70839 18.9776 6.70856L18.978 6.70885L18.9749 6.70677C18.9707 6.70384 18.9628 6.69851 18.9511 6.691C18.9278 6.67598 18.8892 6.65221 18.8341 6.62137C18.7239 6.55969 18.5471 6.46963 18.2924 6.3646C17.7832 6.15454 16.962 5.88433 15.7385 5.66158C13.2906 5.21592 9.23491 4.96068 2.85154 5.75491C2.67107 5.77737 2.50657 5.64927 2.48411 5.4688C2.46166 5.28833 2.58976 5.12382 2.77023 5.10137C9.20253 4.30105 13.3275 4.55324 15.8564 5.01364C17.1213 5.24391 17.9875 5.5264 18.5436 5.75577C18.8216 5.87045 19.0219 5.9718 19.1556 6.0466C19.2225 6.08399 19.2726 6.11473 19.3075 6.13715C19.3249 6.14836 19.3385 6.15749 19.3484 6.16433C19.3534 6.16775 19.3575 6.1706 19.3606 6.17285L19.3647 6.17577L19.3662 6.17689L19.3669 6.17736Z" />
<path fill-rule="evenodd" clip-rule="evenodd" d="M19.3653 4.66126C19.3655 4.66138 19.3657 4.6615 19.1723 4.92801L19.3657 4.6615C19.5128 4.76831 19.5456 4.97422 19.4388 5.12141C19.3321 5.26842 19.1266 5.30126 18.9794 5.19493C18.9792 5.1948 18.979 5.19466 18.9789 5.19453M18.9789 5.19453L18.9751 5.19188C18.971 5.18905 18.9642 5.18431 18.9545 5.17781C18.9352 5.16481 18.9047 5.14478 18.8629 5.11888C18.7793 5.06708 18.6508 4.99181 18.4771 4.90236C18.1297 4.72348 17.6014 4.48786 16.89 4.26985C15.4683 3.83416 13.3107 3.46731 10.3982 3.76878C10.2173 3.7875 10.0554 3.65604 10.0367 3.47514C10.018 3.29424 10.1494 3.13242 10.3303 3.11369C13.3332 2.80287 15.5795 3.1794 17.083 3.64017C17.8342 3.8704 18.3988 4.12127 18.7786 4.31684C18.9685 4.41461 19.1122 4.49854 19.2099 4.55914C19.2588 4.58944 19.2962 4.61392 19.3221 4.63137C19.3351 4.64009 19.3452 4.64707 19.3525 4.65214L19.3612 4.6583L19.364 4.66027L19.3649 4.66098L19.3653 4.66126" />
<path fill-rule="evenodd" clip-rule="evenodd" d="M0 8.21949H19.5203V7.48712H0V8.21949Z" />
<path fill-rule="evenodd" clip-rule="evenodd" d="M0.000116009 17.5896H0.732483V7.48712H0L0.000116009 17.5896Z" />
<path fill-rule="evenodd" clip-rule="evenodd" d="M18.788 17.5896H18.8489C19.2198 17.5896 19.5203 17.289 19.5203 16.9183L19.5203 7.48712L18.788 7.48717V17.5896Z" />
<path fill-rule="evenodd" clip-rule="evenodd" d="M19.5204 16.881H0.000116009V17.6134H19.1403C19.3502 17.6134 19.5204 17.4432 19.5204 17.2332V16.881Z" />
</svg>
