<svg width="24" height="22" viewBox="0 0 24 22" xmlns="http://www.w3.org/2000/svg"><path d="M23.9956 7.2C23.956 6.5156 23.142 5.9808 21.514 5.5728C21.5688 5.4528 21.5996 5.328 21.6 5.1984V2.4H21.5932C21.45 0.0688001 11.8972 0 10.8 0C9.7028 0 0.15 0.0688001 0.0068 2.4H0V2.452V5.1996C0.002 5.9596 0.9828 6.5544 2.442 6.9972C2.422 7.0636 2.41 7.1312 2.406 7.2H2.4V7.252V9.9948C0.828 10.3996 0.0428 10.9268 0.004 11.6H0V11.652V14.3996C0.0012 14.9288 0.4784 15.3776 1.2592 15.7516C1.2296 15.8328 1.2112 15.9156 1.206 16.0004H1.2V16.0524V18.8C1.2032 20.1304 4.1988 20.9564 7.5272 21.342C7.5516 21.3468 7.574 21.3568 7.6 21.3568C7.6076 21.3568 7.614 21.3528 7.6216 21.3524C8.2632 21.4248 8.9152 21.4812 9.5604 21.5216C9.574 21.5232 9.586 21.5296 9.6 21.5296C9.6076 21.5296 9.6136 21.5256 9.6208 21.5252C10.44 21.5748 11.246 21.6 12 21.6C12.754 21.6 13.56 21.5748 14.3792 21.5248C14.3864 21.5252 14.3928 21.5292 14.4 21.5292C14.414 21.5292 14.426 21.5224 14.4396 21.5212C15.0848 21.4808 15.7368 21.4248 16.3784 21.352C16.386 21.352 16.3924 21.356 16.4 21.356C16.426 21.356 16.4484 21.346 16.4728 21.3412C19.8012 20.9556 22.7964 20.1292 22.8 18.7984V16H22.7936C22.7656 15.5096 22.3476 15.1004 21.522 14.7584C21.5724 14.6428 21.6 14.5228 21.6 14.3984V11.784C23.036 11.3424 23.998 10.7516 24 9.9984V7.2H23.9956ZM20.7568 14.5284L20.6204 14.648C20.4104 14.8332 20.0604 15.02 19.6 15.2V13.2928C20.0756 13.1272 20.4804 12.9436 20.8 12.7424V14.3976C20.8 14.4388 20.7848 14.4828 20.7568 14.5284ZM11.8104 16.3872C11.752 16.3888 11.6932 16.3896 11.6344 16.3908C11.4916 16.3936 11.3452 16.3944 11.2004 16.3956V14.3976C11.3104 14.3964 11.4204 14.3948 11.5304 14.3928C11.5516 14.3924 11.5728 14.392 11.594 14.3916C11.9968 14.384 12.3996 14.3716 12.8004 14.3532V16.3504C12.7148 16.3548 12.6288 16.3588 12.542 16.3624C12.3012 16.3732 12.058 16.3812 11.8104 16.3872ZM10.0636 16.3928C9.8804 16.3896 9.698 16.3852 9.5168 16.3796C9.4944 16.3788 9.472 16.378 9.4496 16.3772C9.2316 16.37 9.0152 16.3608 8.8004 16.3504V14.3536C9.2012 14.3724 9.604 14.3848 10.0068 14.392C10.028 14.3924 10.0492 14.3928 10.07 14.3932C10.18 14.3952 10.29 14.3968 10.4 14.398V16.3972C10.3224 16.3964 10.2448 16.3964 10.1676 16.3952C10.1324 16.3944 10.0984 16.3932 10.0636 16.3928ZM2.8388 15.4808C2.8256 15.4768 2.8132 15.4732 2.8 15.4696V13.5372C3.1736 13.638 3.5752 13.73 4 13.8136V15.766C3.6328 15.688 3.294 15.606 2.9856 15.522C2.9368 15.508 2.8864 15.4948 2.8388 15.4808ZM11.27 18.7932C11.38 18.7952 11.49 18.7968 11.6 18.798V20.7976C11.0472 20.7924 10.5136 20.7764 10 20.7512V18.754C10.4008 18.7728 10.8036 18.7852 11.2064 18.7924C11.2276 18.7924 11.2488 18.7928 11.27 18.7932ZM12.7936 18.792C13.1964 18.7844 13.5992 18.772 14 18.7536V20.7508C13.4864 20.776 12.9528 20.792 12.4 20.7972V18.7976C12.51 18.7964 12.62 18.7948 12.73 18.7928C12.7512 18.7928 12.7724 18.7924 12.7936 18.792ZM16 18.6112V20.5976C15.6156 20.638 15.2156 20.6736 14.8 20.7028V18.708C15.2056 18.6816 15.6064 18.6492 16 18.6112ZM16.8 18.5248C17.2124 18.4752 17.6128 18.4188 18 18.356V20.32C17.6232 20.3864 17.2228 20.4476 16.8 20.5032V18.5248ZM18.8 18.2132C19.2248 18.1296 19.6264 18.0376 20 17.9368V19.8692C19.6436 19.972 19.2424 20.0716 18.8 20.1656V18.2132ZM5.2 18.2132V20.1656C4.7576 20.0716 4.3564 19.972 4 19.8692V17.9368C4.3736 18.0376 4.7752 18.13 5.2 18.2132ZM6 18.3564C6.3872 18.4192 6.7876 18.4756 7.2 18.5252V20.5036C6.7772 20.448 6.3768 20.3868 6 20.3204V18.3564ZM8 18.6112C8.3936 18.6492 8.7944 18.6816 9.2 18.7084V20.7032C8.7844 20.674 8.3844 20.6384 8 20.598V18.6112ZM7.0076 16.2192C6.9668 16.2152 6.9264 16.2108 6.886 16.2068C6.8572 16.204 6.8288 16.2004 6.8 16.1976V14.2116C7.1936 14.2496 7.5944 14.282 8 14.3088V16.302C7.664 16.278 7.332 16.2508 7.0076 16.2192ZM6 14.1248V16.1032C5.5772 16.0476 5.1768 15.9864 4.8 15.92V13.956C5.1872 14.0188 5.5876 14.0756 6 14.1248ZM13.8664 16.2832C13.7784 16.29 13.6896 16.2968 13.6 16.3032V14.3084C14.0056 14.2816 14.4064 14.2496 14.8 14.2112V16.1976C14.5528 16.2236 14.3 16.248 14.0404 16.2692C13.9824 16.2744 13.9244 16.2788 13.8664 16.2832ZM15.6 16.1032V14.1248C16.0124 14.0752 16.4128 14.0188 16.8 13.956V15.92C16.4232 15.9864 16.0228 16.048 15.6 16.1032ZM17.6 13.8132C18.0248 13.7296 18.4264 13.6376 18.8 13.5368V15.4692C18.4436 15.572 18.0424 15.6716 17.6 15.7656V13.8132ZM12.13 11.986C11.8292 11.9784 11.5352 11.9668 11.2464 11.9528C11.2308 11.952 11.2152 11.9512 11.2 11.9508V9.9536C11.6008 9.9724 12.0036 9.9848 12.4064 9.992C12.4276 9.9924 12.4488 9.9928 12.4696 9.9932C12.5796 9.9952 12.6896 9.9968 12.7996 9.998V11.9952C12.6048 11.9932 12.4084 11.9924 12.2184 11.988C12.1892 11.9872 12.1592 11.9868 12.13 11.986ZM2.8 6.2696V4.3372C3.1736 4.438 3.5752 4.53 4 4.6136V6.566C3.9508 6.5556 3.9 6.5452 3.852 6.5348C3.6392 6.488 3.4316 6.4392 3.2332 6.3876C3.082 6.3488 2.9384 6.3092 2.8 6.2696ZM10.07 5.1932C10.18 5.1952 10.29 5.1968 10.4 5.198V7.1952C9.8616 7.19 9.3264 7.176 8.8 7.1496V5.154C9.2008 5.1728 9.6036 5.1852 10.0064 5.1924C10.0276 5.1924 10.0488 5.1928 10.07 5.1932ZM11.5936 5.192C11.9964 5.1844 12.3992 5.172 12.8 5.1536V7.1492C12.732 7.1524 12.6668 7.1572 12.5984 7.1604C12.5928 7.1608 12.5872 7.1608 12.5812 7.1612C12.3128 7.1732 12.0392 7.182 11.762 7.1884C11.7188 7.1896 11.6756 7.19 11.6324 7.1912C11.49 7.194 11.3444 7.1944 11.2 7.196V5.198C11.31 5.1968 11.42 5.1952 11.53 5.1932C11.5512 5.1928 11.5724 5.1924 11.5936 5.192ZM20.7084 5.3928L20.6972 5.3904L20.5516 5.5036C20.3404 5.668 20.016 5.8344 19.6 5.9952V4.0924C20.0756 3.9268 20.4804 3.7432 20.8 3.542V5.1972C20.8 5.258 20.768 5.3236 20.7084 5.3928ZM15.6 6.9008V4.9248C16.0124 4.8752 16.4128 4.8188 16.8 4.756V6.7168C16.4208 6.784 16.0216 6.8456 15.6 6.9008ZM17.6 6.5628V4.6136C18.0248 4.53 18.4264 4.438 18.8 4.3372V6.2652C18.4416 6.3696 18.038 6.4692 17.6 6.5628ZM14.8 5.0112V6.9952C14.4136 7.036 14.0136 7.0716 13.6 7.1012V5.1084C14.0056 5.0816 14.4064 5.0492 14.8 5.0112ZM6.8 6.996V5.0112C7.1936 5.0492 7.5944 5.0816 8 5.1084V7.0996C7.5928 7.0704 7.1912 7.0372 6.8 6.996ZM6 4.9248V6.9012C5.9208 6.8908 5.8384 6.8824 5.76 6.8716C5.7088 6.8644 5.66 6.8568 5.6096 6.8496C5.3784 6.8164 5.1524 6.7808 4.9308 6.7436C4.8864 6.736 4.8436 6.728 4.8 6.7204V4.7564C5.1872 4.8188 5.5876 4.8756 6 4.9248ZM10.3008 11.8956C10.2468 11.8916 10.1924 11.8876 10.1388 11.8836C9.8828 11.8636 9.6328 11.8416 9.3888 11.8172C9.3364 11.812 9.284 11.8064 9.232 11.8012C9.2212 11.8 9.2108 11.7984 9.2 11.7976V9.8112C9.5936 9.8492 9.9944 9.8816 10.4 9.9084V11.902C10.3676 11.8996 10.3332 11.898 10.3008 11.8956ZM7.658 11.5968C7.4996 11.5716 7.3508 11.5444 7.2 11.518V9.5564C7.5872 9.6192 7.9876 9.6756 8.4 9.7252V11.7036C8.1552 11.6712 7.9156 11.6376 7.6856 11.6016C7.6764 11.5996 7.6672 11.598 7.658 11.5968ZM6.4 9.4132V11.3624C5.958 11.2676 5.5572 11.1668 5.2 11.062V9.1368C5.5736 9.2376 5.9752 9.33 6.4 9.4132ZM4.4 8.8924V10.7928C3.7712 10.55 3.3656 10.302 3.2336 10.0812L3.2068 10.0364C3.2044 10.024 3.2004 10.0108 3.2 9.9984V8.342C3.5196 8.5432 3.9244 8.7268 4.4 8.8924ZM13.9936 9.992C14.3964 9.9844 14.7992 9.972 15.2 9.9536V11.9488C14.6744 11.9748 14.14 11.9892 13.6 11.9948V9.998C13.71 9.9968 13.82 9.9952 13.93 9.9932C13.9512 9.9928 13.9724 9.9924 13.9936 9.992ZM19.1628 11.5268C18.9872 11.5572 18.81 11.5872 18.628 11.6148C18.5236 11.6308 18.4168 11.646 18.3096 11.6612C18.2084 11.6756 18.1032 11.688 18.0004 11.7012V9.7248C18.4128 9.6752 18.8132 9.6188 19.2004 9.556V11.52C19.1876 11.5224 19.1752 11.5248 19.1628 11.5268ZM16.4544 11.8684C16.3052 11.8808 16.1512 11.8888 16 11.8996V9.9084C16.4056 9.8816 16.8064 9.8496 17.2 9.8112V11.7956C16.9676 11.82 16.7356 11.8444 16.4968 11.8644C16.4824 11.8656 16.4688 11.8672 16.4544 11.8684ZM21.0256 11.1184C20.8264 11.174 20.6156 11.226 20.4004 11.2768C20.3008 11.3 20.1992 11.3232 20.0952 11.3456C20.0644 11.3524 20.0316 11.3584 20.0004 11.3652V9.4136C20.4252 9.33 20.8268 9.238 21.2004 9.1372V11.0696C21.1428 11.0856 21.0848 11.102 21.0256 11.1184ZM23.1956 7.226C23.1588 7.4976 22.5432 7.8588 21.4444 8.1984C20.0292 8.6356 17.8148 9.036 15.0084 9.16C14.8648 9.166 14.7216 9.172 14.5752 9.1768C14.4556 9.1808 14.3356 9.1844 14.2136 9.1876C13.8824 9.1948 13.5464 9.2 13.2 9.2C12.8536 9.2 12.5176 9.1948 12.1864 9.1872C12.0648 9.1844 11.9448 9.1804 11.8248 9.1764C11.678 9.172 11.5348 9.1656 11.3916 9.1596C8.5852 9.0356 6.3704 8.6352 4.9556 8.198C3.8656 7.8612 3.2512 7.5028 3.2056 7.2324C3.2076 7.2248 3.2076 7.2184 3.2124 7.2088C3.2396 7.2156 3.27 7.2212 3.2976 7.228C3.454 7.2652 3.6144 7.3012 3.7776 7.3356C4.5724 7.5068 5.4532 7.6472 6.3916 7.7544C6.3948 7.7544 6.3972 7.756 6.4 7.756C6.4008 7.756 6.4016 7.7556 6.402 7.7556C7.0412 7.8284 7.7044 7.8856 8.3852 7.926C8.3904 7.926 8.3948 7.9288 8.4 7.9288C8.4028 7.9288 8.4048 7.9272 8.4076 7.9272C8.8976 7.956 9.394 7.9772 9.8964 7.9884C10.204 7.996 10.506 8 10.8 8C11.01 8 11.2252 7.9976 11.4424 7.9936C14.3488 7.9488 17.0424 7.6032 18.9168 7.0676C19.0032 7.0432 19.0876 7.018 19.1708 6.9928C19.2216 6.9772 19.2736 6.962 19.3228 6.9464C19.4676 6.9 19.6064 6.8524 19.7404 6.8028C19.7636 6.794 19.7856 6.7852 19.8088 6.7764C19.922 6.7336 20.0308 6.6892 20.1348 6.644C20.1648 6.6308 20.1956 6.618 20.2248 6.6048C20.3356 6.5548 20.4428 6.5036 20.542 6.4504C20.5868 6.4268 20.6256 6.4024 20.6676 6.3784C20.7156 6.3508 20.7636 6.3228 20.808 6.2944C20.8332 6.2784 20.8632 6.2632 20.8872 6.2472C22.678 6.6356 23.15 7.0604 23.1956 7.226ZM10.8 0.8C17.3956 0.8 20.7316 1.8384 20.794 2.4344C20.7456 2.7048 20.1316 3.062 19.0444 3.398C17.6292 3.8352 15.4148 4.2356 12.6084 4.3596C12.4648 4.3656 12.3216 4.3716 12.1752 4.3764C12.0556 4.3804 11.9356 4.384 11.8136 4.3872C11.4824 4.3948 11.1464 4.4 10.8 4.4C10.4536 4.4 10.1176 4.3948 9.7864 4.3872C9.6648 4.3844 9.5448 4.3804 9.4248 4.3764C9.278 4.372 9.1348 4.3656 8.9916 4.3596C6.1852 4.2356 3.9704 3.8352 2.5556 3.398C1.468 3.062 0.8544 2.7048 0.806 2.4344C0.8684 1.8384 4.2044 0.8 10.8 0.8ZM0.8 5.1984V3.542C1.1196 3.7432 1.5244 3.9268 2 4.0924V6.0076C1.222 5.716 0.8008 5.4236 0.8 5.1984ZM2.7376 10.734C2.7436 10.7404 2.7528 10.746 2.7588 10.7524C3.3064 11.3052 4.4404 11.7396 5.852 12.0636C5.8844 12.0712 5.9188 12.0784 5.9516 12.086C6.0552 12.1092 6.1604 12.132 6.2668 12.154C7.5632 12.43 9.1108 12.6296 10.7968 12.7284C10.798 12.7284 10.7988 12.7288 10.7996 12.7288C10.8004 12.7288 10.8008 12.7284 10.8012 12.7284C11.3428 12.76 11.8968 12.782 12.4624 12.7916C12.7128 12.7968 12.9592 12.8 13.2 12.8C13.476 12.8 13.7592 12.7968 14.0472 12.79C14.5704 12.7792 15.086 12.7576 15.5944 12.728C15.5964 12.728 15.598 12.7292 15.6 12.7292C15.6036 12.7292 15.6064 12.7272 15.61 12.7272C17.3004 12.6276 18.8864 12.426 20.2276 12.136C19.9372 12.288 19.5396 12.4452 19.0444 12.5984C17.5504 13.06 15.1644 13.4804 12.132 13.578C12.042 13.5808 11.9532 13.584 11.862 13.5864C11.764 13.5888 11.6644 13.5904 11.5648 13.5924C11.3132 13.5964 11.06 13.6 10.8 13.6C10.4536 13.6 10.1176 13.5948 9.7864 13.5872C9.6648 13.5844 9.5448 13.5804 9.4248 13.5764C9.278 13.572 9.1348 13.5656 8.9916 13.5596C6.1852 13.4356 3.9704 13.0352 2.5556 12.598C1.4556 12.258 0.84 11.8964 0.8044 11.6248C0.8488 11.4744 1.2532 11.098 2.7376 10.734ZM0.8 14.3984V12.742C1.1196 12.9432 1.5244 13.1268 2 13.2924V15.2L1.7716 15.1112L1.7668 15.116C1.1388 14.8556 0.8008 14.6 0.8 14.3984ZM2 18.7984V17.142C2.3196 17.3432 2.7244 17.5268 3.2 17.6924V19.6076C2.422 19.316 2.0008 19.0236 2 18.7984ZM20.8 19.6076V17.6928C21.2756 17.5272 21.6804 17.3436 22 17.1424V18.7976C21.9996 19.0228 21.578 19.3156 20.8 19.6076ZM21.9948 16.0308C21.9512 16.3016 21.3368 16.6608 20.2444 16.9984C18.8292 17.4356 16.6148 17.836 13.8084 17.96C13.6648 17.966 13.5216 17.972 13.3752 17.9768C13.2556 17.9808 13.1356 17.9844 13.0136 17.9876C12.6824 17.9948 12.3464 18 12 18C11.6536 18 11.3172 17.9948 10.9856 17.9872C10.8652 17.9844 10.7464 17.9804 10.6276 17.9764C10.48 17.9716 10.336 17.9656 10.1916 17.9596C7.3852 17.8356 5.1708 17.4352 3.7556 16.998C2.6976 16.6712 2.0864 16.324 2.0096 16.056C2.1288 16.0976 2.2524 16.138 2.3792 16.1776C2.392 16.1816 2.4048 16.1856 2.4176 16.1892C2.5256 16.2224 2.636 16.2544 2.7492 16.2856C2.792 16.2976 2.8352 16.3096 2.8788 16.3212C2.9428 16.3384 3.0084 16.3548 3.074 16.3716C4.5308 16.7448 6.3904 17.0092 8.398 17.128C8.3988 17.128 8.3992 17.1284 8.4 17.1284C8.4004 17.1284 8.4008 17.128 8.4012 17.128C9.0212 17.1648 9.6544 17.1876 10.2944 17.1952C10.4648 17.1984 10.634 17.2 10.8 17.2C11.0204 17.2 11.246 17.1972 11.4744 17.1932C12.058 17.1836 12.634 17.162 13.1972 17.1284C13.1984 17.1284 13.1992 17.1292 13.2004 17.1292C13.2024 17.1292 13.2036 17.128 13.2056 17.128C13.8916 17.0868 14.5556 17.028 15.1936 16.9548C15.196 16.9548 15.198 16.956 15.2004 16.956C15.2092 16.956 15.2164 16.9516 15.2252 16.9508C15.9356 16.8688 16.6092 16.768 17.2344 16.6508C17.3632 16.6272 17.49 16.6028 17.6156 16.5776C17.6436 16.572 17.6716 16.5664 17.6996 16.5604C18.8808 16.318 19.9032 16.004 20.6048 15.6148C20.6432 15.594 20.6792 15.5724 20.7156 15.5512C20.76 15.5248 20.8024 15.498 20.8436 15.4708C20.882 15.446 20.9264 15.422 20.9616 15.3968C21.7512 15.6784 21.9688 15.9304 21.9948 16.0308ZM22 10.8076V8.8928C22.4756 8.7272 22.8804 8.5436 23.2 8.3424V9.9976C23.1996 10.2228 22.778 10.5156 22 10.8076Z"/></svg>