<svg width="25" height="24" viewBox="0 0 25 24"  xmlns="http://www.w3.org/2000/svg"><path fill-rule="evenodd" clip-rule="evenodd" d="M20.8673 7.79735H0.351628C0.157675 7.79721 0.000279163 7.95419 9.29513e-08 8.14814V17.9961C-0.000139442 18.19 0.156837 18.3474 0.350791 18.3477H15.866C16.219 18.0377 16.004 17.6445 15.697 17.6445H0.703256V8.50061H20.5148V10.8477H21.2181V8.14898C21.2184 7.95503 21.0613 7.79763 20.8673 7.79735Z M18.4818 6.16488L2.07001 2.47223C1.9789 2.45185 1.88346 2.46832 1.80448 2.51813C1.72564 2.56837 1.66997 2.64776 1.64932 2.73888L0.828712 6.43167C0.786712 6.6213 0.906293 6.80911 1.09578 6.85125C1.28555 6.89353 1.47336 6.77381 1.51564 6.58418L2.2595 3.23576L18.3275 6.85097C18.3529 6.85683 18.379 6.85976 18.4049 6.85962C18.5992 6.8592 18.7564 6.70153 18.756 6.5073C18.7557 6.34306 18.6419 6.20102 18.4818 6.16488Z M16.489 4.13024L6.64185 0.0272125C6.47064 -0.0440898 6.27347 0.029166 6.19045 0.195073L5.36985 1.83628C5.2772 2.00763 5.34096 2.22182 5.51259 2.31447C5.6838 2.40712 5.89813 2.34335 5.99078 2.17186C5.9944 2.16517 5.99775 2.15833 6.00096 2.15135L6.67422 0.804701L16.2174 4.78089C16.3971 4.85596 16.6035 4.77112 16.6785 4.5914C16.7535 4.41182 16.6687 4.20531 16.489 4.13024Z M20.0461 13.0726C17.6495 13.0726 16.4195 12.4753 16.3533 12.2594V12.2571C16.4195 12.0285 17.6495 11.4314 20.0461 11.4314C22.4259 11.4314 23.6567 12.0199 23.7388 12.252C23.6567 12.4844 22.4259 13.0726 20.0461 13.0726ZM23.7388 13.8871C23.6768 14.1148 22.4462 14.7139 20.0461 14.7139C17.6458 14.7139 16.4153 14.1148 16.3533 13.8932V13.2483C17.2265 13.686 18.6688 13.8932 20.0461 13.8932C21.4235 13.8932 22.866 13.686 23.7388 13.2479V13.8871ZM23.7388 15.5283C23.6768 15.756 22.4462 16.3551 20.0461 16.3551C17.6458 16.3551 16.4153 15.756 16.3533 15.5345V14.8895C17.2265 15.3272 18.6688 15.5345 20.0461 15.5345C21.4235 15.5345 22.866 15.3272 23.7388 14.8891V15.5283ZM23.7388 17.1695C23.6768 17.3972 22.4462 17.9963 20.0461 17.9963C17.6458 17.9963 16.4153 17.3972 16.3533 17.1757V16.5306C17.2265 16.9705 18.6688 17.1757 20.0461 17.1757C21.4235 17.1757 22.866 16.9685 23.7388 16.5302V17.1695ZM23.7388 18.8107C23.6768 19.0383 22.4462 19.6373 20.0461 19.6373C17.6458 19.6373 16.4153 19.0383 16.3533 18.8169V18.1718C17.2265 18.6116 18.6688 18.8169 20.0461 18.8169C21.4235 18.8169 22.866 18.6097 23.7388 18.1714V18.8107ZM23.7388 20.4518C23.6768 20.6795 22.4462 21.2785 20.0461 21.2785C17.6458 21.2785 16.4153 20.6795 16.3533 20.4579V19.813C17.2265 20.2528 18.6688 20.4579 20.0461 20.4579C21.4235 20.4579 22.866 20.2507 23.7388 19.8126V20.4518ZM23.7388 22.093C23.6768 22.3207 22.4462 22.9198 20.0461 22.9198C17.6458 22.9198 16.4153 22.3207 16.3533 22.0992V21.4542C17.2265 21.894 18.6688 22.0992 20.0461 22.0992C21.4235 22.0992 22.866 21.8919 23.7388 21.4538V22.093ZM20.0461 10.6108C17.8715 10.6108 15.5327 11.1246 15.5327 12.252V22.0992C15.5327 23.2267 17.8715 23.7404 20.0461 23.7404C22.2206 23.7404 24.5594 23.2267 24.5594 22.0992V12.252C24.5594 11.1246 22.2206 10.6108 20.0461 10.6108Z"/>
<path fill-rule="evenodd" clip-rule="evenodd" d="M10.1906 9.93537C8.43795 9.93537 7.01751 11.356 7.01751 13.1083C7.01751 14.8606 8.43795 16.2812 10.1906 16.2812C11.9426 16.2812 13.3632 14.8607 13.3632 13.1083C13.3632 11.3559 11.9426 9.93537 10.1906 9.93537ZM6.51751 13.1083C6.51751 11.0798 8.16181 9.43537 10.1906 9.43537C12.2188 9.43537 13.8632 11.0798 13.8632 13.1083C13.8632 15.1368 12.2188 16.7812 10.1906 16.7812C8.16181 16.7812 6.51751 15.1368 6.51751 13.1083Z M16.7375 9.43861H13.4809C13.2868 9.43861 13.1294 9.59601 13.1294 9.79024C13.1294 9.98447 13.2868 10.1419 13.4809 10.1419H16.7375C16.9318 10.1419 17.0892 9.98447 17.0892 9.79024C17.0892 9.59601 16.9318 9.43861 16.7375 9.43861Z" fill="#33BBFF"/>
<path fill-rule="evenodd" clip-rule="evenodd" d="M9.82223 14.3493V15.0963H9.2419V14.3493H8.77446V13.8873H9.2419V13.5004H8.77446V13.0007H9.2419V11.1203H10.2036C11.1546 11.1203 11.6059 11.5985 11.6059 12.3184C11.6059 13.044 11.1546 13.5004 10.2036 13.5004H9.82223V13.8873H10.8376V14.3493H9.82223ZM9.82223 13.0007H10.2036C10.8646 13.0007 11.0256 12.6247 11.0256 12.3078C11.0256 11.9908 10.8646 11.6523 10.2036 11.6523H9.82223V13.0007Z" fill="#33BBFF"/>
<path fill-rule="evenodd" clip-rule="evenodd" d="M5.8846 9.07309C6.22276 9.38089 6.24737 9.90454 5.93958 10.2427L5.5492 10.6716C5.54918 10.6716 5.54921 10.6716 5.5492 10.6716C4.32898 12.0124 4.2972 14.0516 5.47513 15.4297L5.95676 15.9934C6.2538 16.3411 6.21277 16.8637 5.86512 17.1607C5.51747 17.4578 4.99485 17.4167 4.69781 17.0691L4.21637 16.5056C4.21634 16.5056 4.2164 16.5056 4.21637 16.5056C2.49626 14.493 2.54259 11.5151 4.32453 9.55704L4.71499 9.12806C5.02279 8.7899 5.54644 8.76529 5.8846 9.07309Z" fill="#33BBFF"/>
</svg>
