<svg width="16" height="16" viewBox="0 0 16 16" xmlns="http://www.w3.org/2000/svg">
<path d="M15.6585 12.6979L13.8881 11.5176L12.3144 10.4686C12.0107 10.2665 11.6025 10.3328 11.3783 10.6206L10.4044 11.8725C10.1953 12.1442 9.81896 12.2222 9.51899 12.0561C8.85821 11.6886 8.07683 11.3425 6.35276 9.61622C4.62869 7.88993 4.28041 7.11077 3.91284 6.45C3.74676 6.15002 3.82483 5.77372 4.09648 5.56457L5.34838 4.59075C5.63616 4.36657 5.70244 3.95839 5.50037 3.65464L4.4836 2.12934L3.27106 0.310519C3.06469 0.0009363 2.65156 -0.0920072 2.33249 0.0993379L0.934098 0.938262C0.55618 1.16092 0.278379 1.52047 0.158238 1.94236C-0.224171 3.33661 -0.301271 6.41226 4.62785 11.3414C9.55697 16.2705 12.6323 16.1932 14.0266 15.8107C14.4485 15.6906 14.808 15.4128 15.0307 15.0349L15.8696 13.6365C16.061 13.3174 15.968 12.9043 15.6585 12.6979Z"/>
<path d="M9.08567 2.47789C11.6694 2.48076 13.7633 4.57461 13.7662 7.1584C13.7662 7.31045 13.8894 7.43374 14.0415 7.43374C14.1936 7.43374 14.3169 7.31048 14.3169 7.1584C14.3137 4.27064 11.9735 1.93043 9.0857 1.92725C8.93365 1.92725 8.81036 2.05051 8.81036 2.20258C8.81036 2.3546 8.93359 2.47789 9.08567 2.47789Z"/>
<path d="M9.08564 4.12978C10.7575 4.13174 12.1122 5.48653 12.1142 7.15833C12.1142 7.31038 12.2375 7.43367 12.3895 7.43367C12.5416 7.43367 12.6649 7.31041 12.6649 7.15833C12.6626 5.18253 11.0615 3.58138 9.08564 3.5791C8.93359 3.5791 8.8103 3.70236 8.8103 3.85444C8.8103 4.00652 8.93356 4.12978 9.08564 4.12978Z"/>
<path d="M9.08567 5.78184C9.84559 5.78275 10.4614 6.39855 10.4623 7.15847C10.4623 7.31052 10.5856 7.43381 10.7376 7.43381C10.8897 7.43381 11.013 7.31055 11.013 7.15847C11.0118 6.09458 10.1496 5.23242 9.0857 5.2312C8.93365 5.2312 8.81036 5.35446 8.81036 5.50654C8.81033 5.65859 8.93359 5.78184 9.08567 5.78184Z"/>
</svg>
