<svg width="20" height="24" viewBox="0 0 20 24" xmlns="http://www.w3.org/2000/svg"><path d="M0.0078125 4.61756V23.6347C0.0078125 23.8367 0.171558 24.0004 0.373567 24.0004H14.2707C14.4726 24.0004 14.6363 23.8367 14.6363 23.6347V8.2748C14.6363 8.26667 14.6324 8.25974 14.6317 8.25175C14.6299 8.21967 14.6235 8.18803 14.613 8.15775C14.6089 8.146 14.6061 8.1347 14.6009 8.12326C14.5832 8.08349 14.5585 8.04718 14.5277 8.01615L10.8706 4.35906C10.8396 4.32818 10.8031 4.30347 10.7631 4.28585C10.7521 4.28118 10.7409 4.27726 10.7295 4.2738C10.6989 4.26325 10.6671 4.25692 10.6347 4.25482C10.6285 4.25587 10.6213 4.25195 10.6136 4.25195H0.373567C0.171558 4.25195 0.0078125 4.41555 0.0078125 4.61756ZM13.3878 7.90905H10.9792V5.50046L13.3878 7.90905ZM0.739171 4.98331H10.2479V8.2748C10.2479 8.47666 10.4116 8.6404 10.6135 8.6404H13.905V23.2691H0.739171V4.98331Z M15.367 21.0747V21.8061H16.4641C16.6661 21.8061 16.8298 21.6425 16.8298 21.4405V2.42337C16.8298 2.22136 16.6661 2.05762 16.4641 2.05762H2.56693C2.36492 2.05762 2.20117 2.22136 2.20117 2.42337V3.52048H2.93268V2.78898H16.0983V21.0747H15.367Z M17.9685 19.0171V19.7485H19.0657C19.2677 19.7485 19.4314 19.5849 19.4314 19.3829V0.365754C19.4314 0.163746 19.2677 0 19.0657 0H5.16849C4.96648 0 4.80273 0.163746 4.80273 0.365754V1.46287H5.53424V0.731358H18.6999V19.0171H17.9685Z M2.93359 9.37109H11.7106V10.1025H2.93359V9.37109Z M2.93359 7.17676H5.85933V7.90827H2.93359V7.17676Z M2.93359 11.5654H8.78506V12.2969H2.93359V11.5654Z M9.51562 11.5654H11.7099V12.2969H9.51562V11.5654Z M2.93359 13.7598H11.7106V14.4913H2.93359V13.7598Z M2.93359 18.1484H11.7106V18.8799H2.93359V18.1484Z M6.22461 15.9541H11.7103V16.6855H6.22461V15.9541Z M2.93359 15.9541H5.49357V16.6855H2.93359V15.9541Z M2.93359 20.3428H4.39646V21.0741H2.93359V20.3428Z M5.12695 20.3428H11.7098V21.0741H5.12695V20.3428Z"/></svg>