<svg width="25" height="25" viewBox="0 0 25 25" xmlns="http://www.w3.org/2000/svg">
<path fill-rule="evenodd" clip-rule="evenodd" d="M7.07757 24.6511L6.67113 24.6487C6.7412 24.8413 6.97998 24.9985 7.20445 24.9998C7.42887 25.0011 7.55402 24.8461 7.48406 24.6536L7.48198 24.6477L7.47441 24.6261C7.46765 24.6066 7.45763 24.577 7.44515 24.5386C7.42019 24.4619 7.38549 24.3501 7.34758 24.2127C7.27155 23.9373 7.18364 23.563 7.13453 23.1647C7.08524 22.7649 7.07645 22.3516 7.15142 21.9928C7.2267 21.6326 7.38184 21.3491 7.63605 21.1782C8.00015 20.9334 8.4441 20.7569 8.91953 20.5715C8.93312 20.5662 8.94675 20.5609 8.96041 20.5556C9.41316 20.3791 9.89544 20.1911 10.2938 19.9291C10.7111 19.6546 11.0479 19.2925 11.1891 18.7614C11.3298 18.2327 11.2699 17.5622 10.9528 16.6919C10.8827 16.4993 10.6438 16.3421 10.4194 16.3409C10.195 16.3397 10.0699 16.4948 10.14 16.6874C10.4265 17.4736 10.4604 18.0233 10.3532 18.4261C10.2467 18.8266 9.99397 19.1075 9.64814 19.3349C9.29892 19.5646 8.86677 19.7332 8.3943 19.9174L8.37973 19.9231C7.91254 20.1053 7.40812 20.3031 6.98606 20.5869C6.59563 20.8494 6.39926 21.2536 6.30989 21.6813C6.22021 22.1104 6.23363 22.5851 6.28712 23.019C6.34081 23.4545 6.43627 23.8598 6.51791 24.1555C6.55884 24.3038 6.59655 24.4254 6.62429 24.5107C6.63817 24.5534 6.64956 24.587 6.65765 24.6104L6.66718 24.6377L6.66989 24.6453L6.6707 24.6475L6.67113 24.6487C6.67113 24.6487 6.67113 24.6487 7.07757 24.6511Z" fill="#33BBFF"/>
<path fill-rule="evenodd" clip-rule="evenodd" d="M0.318967 17.4062L0.301705 17.7438C0.125808 17.6935 -0.00905742 17.5016 0.000475828 17.3152C0.0100067 17.1288 0.160258 17.0184 0.3361 17.0686L0.341426 17.0701L0.361204 17.0755C0.379072 17.0803 0.406098 17.0874 0.441209 17.0962C0.511472 17.1138 0.613881 17.138 0.739885 17.1639C0.992581 17.2157 1.33675 17.2733 1.70512 17.2978C2.07493 17.3223 2.45919 17.3126 2.79665 17.2355C3.13554 17.1582 3.40686 17.0176 3.57811 16.7994C3.82339 16.4868 4.00888 16.1107 4.20423 15.7081C4.20981 15.6965 4.21541 15.685 4.22102 15.6734C4.40696 15.29 4.60503 14.8816 4.86797 14.5399C5.14345 14.1818 5.49657 13.8872 5.99767 13.7479C6.49656 13.6093 7.11777 13.6315 7.91262 13.8591C8.08851 13.9095 8.22332 14.1015 8.21372 14.2879C8.20411 14.4743 8.05374 14.5846 7.87785 14.5342C7.15983 14.3286 6.64982 14.323 6.26976 14.4286C5.89192 14.5336 5.61836 14.7551 5.39008 15.0518C5.15956 15.3514 4.982 15.7174 4.78788 16.1175L4.78189 16.1299C4.58993 16.5255 4.38164 16.9527 4.09732 17.3151C3.83431 17.6502 3.44865 17.83 3.04635 17.9219C2.64262 18.014 2.20148 18.0224 1.80017 17.9958C1.39742 17.9691 1.02475 17.9065 0.753384 17.8508C0.61736 17.8229 0.505934 17.7966 0.42787 17.7771C0.388819 17.7673 0.358058 17.7592 0.33668 17.7534L0.311765 17.7466L0.304829 17.7447L0.302784 17.7441L0.301705 17.7438C0.301705 17.7438 0.301705 17.7438 0.318967 17.4062Z" fill="#33BBFF"/>
<path fill-rule="evenodd" clip-rule="evenodd" d="M9.56172 15.0199C9.68514 15.1399 9.68514 15.3345 9.56172 15.4546L3.58577 21.2666C3.46235 21.3866 3.26224 21.3866 3.13882 21.2666C3.0154 21.1465 3.0154 20.9519 3.13882 20.8319L9.11477 15.0199C9.23819 14.8999 9.4383 14.8999 9.56172 15.0199Z" fill="#33BBFF"/>
<path fill-rule="evenodd" clip-rule="evenodd" d="M16.3958 7.75291H16.7355C17.3241 7.75291 17.4676 7.4271 17.4676 7.15263C17.4676 6.87799 17.3241 6.58477 16.7355 6.58477H16.3958V7.75291ZM16.3958 8.92106V9.56806H15.8789V8.92106H15.4627V8.52087H15.8789V8.18568H15.4627V7.75291H15.8789V6.12402H16.7355C17.5825 6.12402 17.9845 6.5382 17.9845 7.16185C17.9845 7.79026 17.5825 8.18568 16.7355 8.18568H16.3958V8.52087H17.3003V8.92106H16.3958Z" fill="#33BBFF"/>
<path fill-rule="evenodd" clip-rule="evenodd" d="M13.6748 19.448C14.1506 18.3544 14.3023 17.1512 14.1118 15.9582C15.2221 15.5228 16.2795 14.9674 17.2702 14.3127C17.1433 15.7868 16.4877 17.1922 15.4019 18.2482C14.8943 18.7418 14.3092 19.1463 13.6748 19.448ZM12.1425 15.8577L8.69512 12.5049C10.165 7.45533 14.4996 3.21905 19.4908 1.62151L23.3294 5.35479C21.6939 10.2159 17.3346 14.4281 12.1425 15.8577ZM5.00001 11.0182C5.31368 10.3976 5.72974 9.82866 6.23382 9.33841C7.31941 8.28245 8.76101 7.64144 10.2767 7.51803C9.60704 8.47794 9.03596 9.50638 8.58482 10.5897C7.36176 10.4079 6.12795 10.5519 5.00001 11.0182ZM22.8395 0.956524L24.119 0.857091L24.0168 2.10146C23.9498 2.91399 23.8052 3.71268 23.5903 4.49785L20.3721 1.36793C21.1827 1.16215 22.0039 1.02169 22.8395 0.956524ZM18.095 13.7367C21.856 10.9359 24.4502 6.67815 24.8205 2.16325L25.0001 0L22.7725 0.171357C18.1337 0.534818 13.7558 3.05799 10.8761 6.7158C8.93025 6.70213 7.04098 7.44257 5.66274 8.783C4.81323 9.6092 4.18574 10.6307 3.83683 11.7449L3.51953 12.7665L4.44315 12.1906C5.59574 11.4741 6.94585 11.1828 8.29928 11.3474C8.17239 11.697 7.94785 12.1622 7.84924 12.5187L7.78572 12.738L11.8993 16.7387L12.1249 16.6771C12.4915 16.581 12.9698 16.3627 13.3293 16.2392C13.4986 17.5488 13.2024 18.8652 12.4621 19.9897L11.87 20.8879L12.9204 20.5793C14.0625 20.2433 15.1165 19.6298 15.9624 18.807C17.3477 17.4666 18.1091 15.629 18.095 13.7367Z M16.7235 5.12866C15.1802 5.12866 13.9293 6.34538 13.9293 7.84624C13.9293 9.34709 15.1802 10.5638 16.7235 10.5638C18.2665 10.5638 19.5176 9.34709 19.5176 7.84624C19.5176 6.34538 18.2665 5.12866 16.7235 5.12866ZM13.4205 7.84624C13.4205 6.0721 14.8992 4.6338 16.7235 4.6338C18.5476 4.6338 20.0264 6.0721 20.0264 7.84624C20.0264 9.62037 18.5476 11.0587 16.7235 11.0587C14.8992 11.0587 13.4205 9.62037 13.4205 7.84624Z"/></svg>