<svg width="26" height="26" viewBox="0 0 26 26" xmlns="http://www.w3.org/2000/svg"><path d="M20.9977 7.3587C20.1195 2.95264 15.8359 0.0928196 11.4298 0.970978C8.20716 1.61328 5.68734 4.13152 5.04306 7.35374C1.91902 7.71378 -0.321905 10.5381 0.0379281 13.6623C0.369196 16.5376 2.80451 18.7069 5.69885 18.7049H9.76611C10.2154 18.7049 10.5796 18.3407 10.5796 17.8914C10.5796 17.4422 10.2154 17.078 9.76611 17.078H5.69885C3.45237 17.0647 1.6423 15.233 1.65539 12.9867C1.66868 10.7402 3.50038 8.92995 5.74685 8.94324C6.16143 8.94324 6.50976 8.63141 6.55538 8.21921C6.96838 4.64905 10.1975 2.08955 13.7679 2.50255C16.7696 2.84969 19.1374 5.21756 19.4846 8.21921C19.5528 8.63875 19.9162 8.94602 20.3411 8.94324C22.5876 8.94324 24.4086 10.7642 24.4086 13.0107C24.4086 15.257 22.5876 17.078 20.3411 17.078H16.2738C15.8245 17.078 15.4604 17.4422 15.4604 17.8914C15.4604 18.3407 15.8245 18.7049 16.2738 18.7049H20.3413C23.486 18.6853 26.0195 16.1201 26 12.9754C25.9822 10.1116 23.8403 7.70664 20.9977 7.3587Z M15.8957 20.3731L13.8335 22.4358V12.1977C13.8335 11.7484 13.4693 11.3842 13.0202 11.3842C12.5709 11.3842 12.2067 11.7484 12.2067 12.1977V22.4358L10.1445 20.3731C9.8325 20.0497 9.31735 20.0408 8.99422 20.353C8.67108 20.665 8.66216 21.18 8.97418 21.5031C8.98093 21.5101 8.98747 21.5166 8.99422 21.5232L12.4442 24.9739C12.5195 25.0491 12.6088 25.1088 12.707 25.1497C12.9072 25.2344 13.1331 25.2344 13.3334 25.1497C13.4316 25.1088 13.5209 25.0491 13.5961 24.9739L17.046 21.5232C17.3692 21.2111 17.3781 20.6962 17.0661 20.3731C16.7538 20.0499 16.2389 20.041 15.9157 20.353C15.909 20.3596 15.9023 20.3661 15.8957 20.3731Z"/></svg>