<svg width="16" height="16" viewBox="0 0 16 16" xmlns="http://www.w3.org/2000/svg"><path d="M15.1402 1.20476e-06H0.875443C0.62385 -0.000474698 0.393197 0.140075 0.278188 0.363906C0.161593 0.590752 0.182056 0.863919 0.331013 1.07109L5.55703 8.43296C5.55878 8.43549 5.56068 8.43787 5.56243 8.44041C5.75231 8.69676 5.85495 9.00721 5.85558 9.32638V15.3284C5.85447 15.5063 5.92427 15.677 6.04959 15.8031C6.17491 15.9292 6.34528 15.9999 6.52295 15.9999C6.61337 15.9999 6.70268 15.9818 6.78613 15.9473L9.72275 14.8275C9.98592 14.7472 10.1606 14.4989 10.1606 14.1999V9.32638C10.1611 9.00737 10.2638 8.69676 10.4536 8.44041C10.4553 8.43787 10.4572 8.43549 10.459 8.43296L15.6848 1.07078C15.8338 0.86376 15.8542 0.590752 15.7377 0.363906C15.6226 0.140075 15.392 -0.000474698 15.1402 1.20476e-06ZM9.79873 7.95928C9.50685 8.35538 9.34901 8.8343 9.34806 9.32638V14.1012L6.66779 15.1232V9.32638C6.66683 8.8343 6.50899 8.35538 6.21695 7.95928L1.14337 0.812205H14.8725L9.79873 7.95928Z"/></svg>