<svg width="16" height="16" viewBox="0 0 16 16" xmlns="http://www.w3.org/2000/svg"><path d="M9.33374 4.33337C9.33374 6.17432 7.84131 7.66663 6.00037 7.66663C4.15942 7.66663 2.66699 6.17432 2.66699 4.33337C2.66699 2.49243 4.15942 1 6.00037 1C7.84131 1 9.33374 2.49243 9.33374 4.33337Z M8.83337 9H3.16663C1.42065 9 0 10.4207 0 12.1666V14.5C0 14.776 0.223999 15 0.5 15H11.5C11.776 15 12 14.776 12 14.5V12.1666C12 10.4207 10.5793 9 8.83337 9V9Z M15.8403 6.6333L13.507 4.46667C13.413 4.37927 13.2903 4.33398 13.167 4.33398C12.8363 4.33398 12.6663 4.61536 12.6663 4.83337V6.33337H9.99963C9.63098 6.33337 9.33301 6.63196 9.33301 7C9.33301 7.36804 9.63098 7.66663 9.99963 7.66663H12.6663V9.16663C12.6663 9.44397 12.8916 9.66663 13.1663 9.66663C13.2903 9.66663 13.4124 9.62073 13.507 9.53333L15.8403 7.3667C15.9417 7.27197 15.9996 7.13867 15.9996 7C15.9996 6.86133 15.9417 6.72803 15.8403 6.6333V6.6333Z"/></svg>