<svg width="25" height="26" viewBox="0 0 25 26" xmlns="http://www.w3.org/2000/svg">
<path fill-rule="evenodd" clip-rule="evenodd" d="M24.1245 19.9121C23.6552 22.5293 21.3874 24.4433 18.7678 24.4433H18.3769C18.1813 24.4433 17.9858 24.4042 17.8293 24.3652C14.8579 23.8573 12.9028 21.0058 13.4112 18.037C13.8412 15.5371 15.9135 13.7011 18.3769 13.5059H18.7678C19.0806 13.5059 19.3934 13.545 19.7062 13.584C22.6778 14.0918 24.6327 16.9433 24.1245 19.9121ZM0.781948 24.4433V1.00595H14.0758V4.52157C14.0758 4.75592 14.2323 4.91224 14.4668 4.91224H17.9858V12.7638C15.2488 13.1152 13.1374 15.1464 12.6682 17.8809C12.16 20.5762 13.4893 23.2714 15.7181 24.4433H0.781948ZM14.8579 1.55281L17.4384 4.1309H14.8579V1.55281ZM19.8627 12.8027C19.5107 12.7638 19.1588 12.7247 18.7678 12.7247V4.52157C18.7678 4.40433 18.7286 4.32616 18.6504 4.248L14.7405 0.341854C14.6623 0.263691 14.5842 0.224609 14.4668 0.224609H0.390902C0.156332 0.224609 0 0.380936 0 0.615282V24.8339C0 25.0292 0.156332 25.2246 0.390902 25.2246H18.3769C18.416 25.2246 18.4549 25.2246 18.4941 25.1855H18.7678C21.7785 25.1855 24.359 22.998 24.9064 20.0292C25.4929 16.6308 23.2643 13.3886 19.8627 12.8027Z"/>
<path fill-rule="evenodd" clip-rule="evenodd" d="M21.7018 16.2931L17.2444 20.6681L15.9542 19.379C15.7977 19.2228 15.5631 19.2228 15.4067 19.379C15.2503 19.5352 15.2503 19.7697 15.4067 19.9258L16.9707 21.4884C17.0489 21.5665 17.1662 21.6056 17.2444 21.6056C17.3618 21.6056 17.44 21.5665 17.5181 21.4884L22.2492 16.84C22.4057 16.6836 22.4057 16.4493 22.2492 16.2931C22.0928 16.1368 21.8581 16.1368 21.7018 16.2931Z" fill="#33BBFF"/>
<path fill-rule="evenodd" clip-rule="evenodd" d="M2.9559 10.2706L2.6954 9.95447C2.52062 10.0982 2.49556 10.3563 2.63943 10.5309C2.78327 10.7054 3.04149 10.7305 3.21627 10.5869L3.21711 10.5862L3.22158 10.5826L3.24141 10.5667C3.25938 10.5523 3.28667 10.5309 3.32245 10.5034C3.39405 10.4484 3.4994 10.3696 3.63183 10.2764C3.89743 10.0896 4.26837 9.84771 4.69189 9.62473C5.11705 9.40088 5.58383 9.20219 6.04242 9.09377C6.50297 8.98488 6.92753 8.97352 7.28753 9.09123C7.80314 9.25982 8.29234 9.52204 8.81218 9.80449C8.82705 9.81257 8.84195 9.82067 8.85687 9.82878C9.3518 10.0978 9.87902 10.3844 10.4365 10.5715C11.0205 10.7676 11.6525 10.8605 12.3511 10.7235C13.0467 10.587 13.7743 10.2293 14.5639 9.57947C14.7386 9.43567 14.7636 9.1776 14.6196 9.00304C14.4757 8.82849 14.2174 8.80356 14.0427 8.94736C13.3294 9.53436 12.723 9.81588 12.1932 9.91983C11.6664 10.0232 11.1816 9.95767 10.6976 9.79519C10.2089 9.63112 9.73637 9.37438 9.21977 9.09368L9.20385 9.08503C8.69301 8.80746 8.14021 8.5083 7.54252 8.31287C6.98963 8.13208 6.40035 8.16754 5.85364 8.29679C5.30498 8.42651 4.77108 8.65728 4.30969 8.9002C3.84665 9.14399 3.44515 9.40615 3.15993 9.60674C3.01697 9.70729 2.90232 9.79301 2.82277 9.85411C2.78298 9.88468 2.75191 9.90913 2.73041 9.92625L2.70543 9.9463L2.69851 9.95192L2.69647 9.95359L2.6954 9.95447C2.6954 9.95447 2.6954 9.95447 2.9559 10.2706Z" fill="#33BBFF"/>
<path fill-rule="evenodd" clip-rule="evenodd" d="M2.86401 5.32954L2.67204 5.01834C2.54325 5.15982 2.52478 5.41384 2.6308 5.58571C2.7368 5.75754 2.92709 5.78221 3.05588 5.64085L3.0598 5.63659L3.07441 5.62093C3.08766 5.60684 3.10777 5.58569 3.13413 5.55864C3.18689 5.50451 3.26453 5.42694 3.36212 5.33525C3.55784 5.15139 3.8312 4.91326 4.1433 4.69378C4.45661 4.47344 4.80059 4.27787 5.13854 4.17114C5.47793 4.06397 5.79079 4.05278 6.05609 4.16865C6.43606 4.33459 6.79656 4.5927 7.17964 4.87072C7.19059 4.87867 7.20157 4.88664 7.21257 4.89463C7.5773 5.15943 7.96581 5.44151 8.37663 5.62572C8.80703 5.81871 9.27273 5.91019 9.78756 5.77528C10.3001 5.64097 10.8364 5.28885 11.4182 4.64923C11.547 4.50769 11.5653 4.25366 11.4593 4.08184C11.3532 3.91003 11.1628 3.88549 11.0341 4.02703C10.5085 4.60482 10.0616 4.88193 9.67115 4.98424C9.28295 5.08597 8.92571 5.02149 8.56905 4.86157C8.20889 4.70007 7.86069 4.44736 7.48 4.17106L7.46826 4.16254C7.09182 3.88933 6.68445 3.59486 6.244 3.4025C5.83656 3.22454 5.4023 3.25944 4.99942 3.38667C4.5951 3.51435 4.20166 3.7415 3.86165 3.98061C3.52043 4.22057 3.22455 4.47862 3.01437 4.67607C2.90901 4.77505 2.82453 4.85942 2.76591 4.91956C2.73658 4.94965 2.71369 4.97372 2.69785 4.99057L2.67944 5.0103L2.67433 5.01584L2.67283 5.01748L2.67204 5.01834C2.67204 5.01834 2.67204 5.01834 2.86401 5.32954Z" fill="#33BBFF"/>
<path fill-rule="evenodd" clip-rule="evenodd" d="M2.9558 12.9138L2.6953 12.5976C2.52052 12.7414 2.49547 12.9994 2.63933 13.174C2.78317 13.3486 3.04139 13.3737 3.21617 13.23L3.21702 13.2293L3.22148 13.2257L3.24132 13.2098C3.25928 13.1955 3.28657 13.174 3.32235 13.1465C3.39395 13.0915 3.4993 13.0127 3.63173 12.9196C3.89733 12.7328 4.26827 12.4909 4.69179 12.2679C5.11695 12.044 5.58373 11.8453 6.04232 11.7369C6.50287 11.628 6.92743 11.6167 7.28743 11.7344C7.80305 11.903 8.29224 12.1652 8.81208 12.4476C8.82695 12.4557 8.84185 12.4638 8.85677 12.4719C9.3517 12.741 9.87892 13.0275 10.4364 13.2147C11.0205 13.4107 11.6524 13.5037 12.351 13.3666C13.0466 13.2302 13.7742 12.8724 14.5638 12.2226C14.7385 12.0788 14.7635 11.8207 14.6195 11.6462C14.4756 11.4716 14.2173 11.4467 14.0426 11.5905C13.3293 12.1775 12.7229 12.459 12.1931 12.563C11.6663 12.6663 11.1815 12.6008 10.6975 12.4383C10.2088 12.2743 9.73627 12.0175 9.21967 11.7368L9.20375 11.7282C8.69291 11.4506 8.14011 11.1514 7.54242 10.956C6.98953 10.7752 6.40025 10.8107 5.85354 10.9399C5.30488 11.0697 4.77099 11.3004 4.30959 11.5433C3.84655 11.7871 3.44505 12.0493 3.15983 12.2499C3.01687 12.3504 2.90222 12.4362 2.82268 12.4973C2.78288 12.5278 2.75181 12.5523 2.73032 12.5694L2.70533 12.5894L2.69841 12.5951L2.69637 12.5967L2.6953 12.5976C2.6953 12.5976 2.6953 12.5976 2.9558 12.9138Z" fill="#33BBFF"/>
<path fill-rule="evenodd" clip-rule="evenodd" d="M2.86401 17.4864L2.67204 17.1752C2.54325 17.3167 2.52478 17.5707 2.6308 17.7426C2.7368 17.9144 2.92709 17.9391 3.05588 17.7977L3.0598 17.7935L3.07441 17.7778C3.08766 17.7637 3.10777 17.7426 3.13413 17.7155C3.18689 17.6614 3.26453 17.5838 3.36212 17.4921C3.55784 17.3083 3.8312 17.0701 4.1433 16.8506C4.45661 16.6303 4.80059 16.4347 5.13854 16.328C5.47793 16.2208 5.79079 16.2096 6.05609 16.3255C6.43606 16.4915 6.79656 16.7496 7.17964 17.0276C7.19059 17.0355 7.20157 17.0435 7.21257 17.0515C7.5773 17.3163 7.96581 17.5984 8.37663 17.7826C8.80703 17.9756 9.27273 18.0671 9.78756 17.9321C10.3001 17.7978 10.8364 17.4457 11.4182 16.8061C11.547 16.6646 11.5653 16.4105 11.4593 16.2387C11.3532 16.0669 11.1628 16.0424 11.0341 16.1839C10.5085 16.7617 10.0616 17.0388 9.67115 17.1411C9.28295 17.2428 8.92571 17.1784 8.56905 17.0184C8.20889 16.8569 7.86069 16.6042 7.48 16.3279L7.46826 16.3194C7.09182 16.0462 6.68445 15.7517 6.244 15.5594C5.83656 15.3814 5.4023 15.4163 4.99942 15.5435C4.5951 15.6712 4.20166 15.8984 3.86165 16.1375C3.52043 16.3774 3.22455 16.6355 3.01437 16.8329C2.90901 16.9319 2.82453 17.0163 2.76591 17.0764C2.73658 17.1065 2.71369 17.1306 2.69785 17.1474L2.67944 17.1672L2.67433 17.1727L2.67283 17.1743L2.67204 17.1752C2.67204 17.1752 2.67204 17.1752 2.86401 17.4864Z" fill="#33BBFF"/>
</svg>
