<svg width="40" height="40" viewBox="0 0 40 40" xmlns="http://www.w3.org/2000/svg">
<path fill-rule="evenodd" clip-rule="evenodd" d="M37.6682 30.9942C36.9354 35.0846 33.3945 38.076 29.3041 38.076H28.6938C28.3884 38.076 28.0832 38.0149 27.8389 37.9541C23.1992 37.1602 20.1465 32.7036 20.9403 28.0637C21.6118 24.1566 24.8475 21.2871 28.6938 20.9819H29.3041C29.7926 20.9819 30.281 21.043 30.7694 21.1041C35.4093 21.8977 38.4618 26.3544 37.6682 30.9942ZM1.22094 38.076V1.44577H21.978V6.94034C21.978 7.3066 22.2224 7.55093 22.5886 7.55093H28.0832V19.8221C23.8096 20.3714 20.5128 23.546 19.7803 27.8196C18.9867 32.0322 21.0623 36.2445 24.5423 38.076H1.22094ZM23.1992 2.30046L27.2285 6.32976H23.1992V2.30046ZM31.0137 19.8829C30.4642 19.8221 29.9147 19.761 29.3041 19.761V6.94034C29.3041 6.7571 29.2431 6.63494 29.1209 6.51278L23.016 0.407851C22.8938 0.28569 22.7719 0.224609 22.5886 0.224609H0.610358C0.244098 0.224609 0 0.468932 0 0.835192V38.6866C0 38.9918 0.244098 39.2972 0.610358 39.2972H28.6938C28.7549 39.2972 28.8157 39.2972 28.8768 39.2361H29.3041C34.0051 39.2361 38.0344 35.8171 38.8891 31.1773C39.8049 25.8659 36.3251 20.7987 31.0137 19.8829Z"/>
<path fill-rule="evenodd" clip-rule="evenodd" d="M33.8853 25.3384L26.9255 32.1761L24.9109 30.1613C24.6666 29.9172 24.3003 29.9172 24.056 30.1613C23.8119 30.4054 23.8119 30.7719 24.056 31.016L26.4981 33.4581C26.6203 33.5803 26.8033 33.6414 26.9255 33.6414C27.1087 33.6414 27.2309 33.5803 27.3528 33.4581L34.74 26.1931C34.9843 25.9488 34.9843 25.5825 34.74 25.3384C34.4959 25.0941 34.1294 25.0941 33.8853 25.3384Z" fill="#33BBFF"/>
<path fill-rule="evenodd" clip-rule="evenodd" d="M4.61527 15.9259L4.20853 15.4317C3.93563 15.6564 3.89651 16.0597 4.12114 16.3326C4.34573 16.6054 4.74892 16.6446 5.02181 16.4202C5.02181 16.4202 5.02182 16.4202 5.02181 16.4202L5.02314 16.4191L5.03011 16.4134L5.06108 16.3885C5.08914 16.3662 5.13175 16.3326 5.18761 16.2896C5.29941 16.2037 5.4639 16.0805 5.67068 15.9349C6.08539 15.643 6.66458 15.2649 7.32586 14.9164C7.98972 14.5665 8.71854 14.256 9.4346 14.0866C10.1537 13.9164 10.8166 13.8986 11.3787 14.0826C12.1838 14.3461 12.9476 14.7559 13.7593 15.1973C13.7825 15.21 13.8058 15.2226 13.8291 15.2353C14.6019 15.6558 15.4251 16.1037 16.2955 16.3961C17.2075 16.7026 18.1942 16.8478 19.2851 16.6336C20.3711 16.4204 21.5073 15.8613 22.7401 14.8457C23.0129 14.6209 23.0519 14.2176 22.8271 13.9448C22.6024 13.6719 22.199 13.633 21.9262 13.8577C20.8126 14.7752 19.8657 15.2151 19.0384 15.3776C18.2159 15.5391 17.4589 15.4367 16.7032 15.1828C15.9401 14.9264 15.2024 14.5251 14.3957 14.0864L14.3709 14.0729C13.5733 13.6391 12.7101 13.1715 11.7769 12.8661C10.9136 12.5835 9.99347 12.6389 9.13983 12.841C8.28315 13.0437 7.44952 13.4044 6.7291 13.784C6.0061 14.165 5.37919 14.5748 4.93386 14.8883C4.71063 15.0454 4.53162 15.1794 4.40741 15.2749C4.34528 15.3227 4.29677 15.3609 4.2632 15.3876L4.22419 15.419L4.21338 15.4278L4.2102 15.4304L4.20853 15.4317C4.20838 15.4319 4.20853 15.4317 4.61527 15.9259Z" fill="#33BBFF"/>
<path fill-rule="evenodd" clip-rule="evenodd" d="M4.4718 8.20344L4.17206 7.71706C3.97096 7.93818 3.94213 8.33518 4.10767 8.6038C4.27317 8.87235 4.57029 8.91091 4.77139 8.68997C4.77139 8.68998 4.77139 8.68997 4.77139 8.68997L4.77237 8.6889L4.7775 8.68332L4.80033 8.65884C4.821 8.63683 4.8524 8.60377 4.89357 8.56149C4.97595 8.47688 5.09717 8.35565 5.24956 8.21236C5.55516 7.92499 5.98198 7.55283 6.46929 7.2098C6.95851 6.86543 7.49559 6.55977 8.02327 6.39297C8.55319 6.22547 9.04171 6.20798 9.45594 6.38906C10.0492 6.64842 10.6121 7.05182 11.2103 7.48634C11.2274 7.49877 11.2445 7.51122 11.2617 7.52371C11.8312 7.93757 12.4378 8.37843 13.0793 8.66633C13.7513 8.96796 14.4784 9.11092 15.2823 8.90008C16.0826 8.69016 16.9199 8.13984 17.8284 7.14017C18.0294 6.91895 18.0581 6.52193 17.8925 6.2534C17.7269 5.98487 17.4297 5.94652 17.2286 6.16774C16.408 7.07077 15.7102 7.50385 15.1005 7.66377C14.4944 7.82275 13.9366 7.72198 13.3797 7.47203C12.8173 7.21963 12.2737 6.82466 11.6792 6.39283L11.6609 6.37952C11.0731 5.95252 10.4371 5.49229 9.74934 5.19165C9.11316 4.91353 8.43511 4.96807 7.80605 5.16691C7.17474 5.36647 6.56042 5.72148 6.02953 6.09518C5.49673 6.47023 5.03475 6.87353 4.70657 7.18212C4.54207 7.33681 4.41015 7.46867 4.31862 7.56267C4.27284 7.60969 4.23709 7.64731 4.21235 7.67365L4.1836 7.70449L4.17564 7.71315L4.17329 7.71571L4.17206 7.71706C4.17195 7.71718 4.17206 7.71706 4.4718 8.20344Z" fill="#33BBFF"/>
<path fill-rule="evenodd" clip-rule="evenodd" d="M4.61512 20.0569L4.20837 19.5627C3.93547 19.7874 3.89635 20.1907 4.12099 20.4636C4.34557 20.7364 4.74876 20.7756 5.02166 20.5511C5.02165 20.5512 5.02167 20.5511 5.02166 20.5511L5.02299 20.5501L5.02996 20.5444L5.06093 20.5195C5.08898 20.4972 5.13159 20.4636 5.18746 20.4206C5.29925 20.3347 5.46374 20.2115 5.67053 20.0659C6.08523 19.774 6.66442 19.3959 7.32571 19.0474C7.98957 18.6975 8.71839 18.387 9.43445 18.2175C10.1535 18.0474 10.8165 18.0296 11.3786 18.2136C12.1837 18.4771 12.9475 18.8869 13.7592 19.3283C13.7824 19.341 13.8056 19.3536 13.829 19.3663C14.6017 19.7868 15.4249 20.2346 16.2954 20.5271C17.2073 20.8336 18.1941 20.9788 19.2849 20.7646C20.3709 20.5513 21.5071 19.9923 22.7399 18.9767C23.0128 18.7519 23.0517 18.3486 22.827 18.0757C22.6022 17.8029 22.1989 17.764 21.9261 17.9887C20.8124 18.9061 19.8656 19.3461 19.0383 19.5086C18.2157 19.6701 17.4588 19.5677 16.7031 19.3138C15.94 19.0574 15.2022 18.6561 14.3956 18.2174L14.3707 18.2039C13.5731 17.7701 12.71 17.3025 11.7767 16.9971C10.9134 16.7145 9.99332 16.7699 9.13968 16.9719C8.283 17.1747 7.44937 17.5353 6.72895 17.915C6.00595 18.296 5.37904 18.7058 4.9337 19.0193C4.71047 19.1764 4.53146 19.3104 4.40726 19.4059C4.34513 19.4537 4.29662 19.4919 4.26305 19.5186L4.22404 19.55L4.21323 19.5588L4.21005 19.5614L4.20837 19.5627C4.20823 19.5629 4.20837 19.5627 4.61512 20.0569Z" fill="#33BBFF"/>
<path fill-rule="evenodd" clip-rule="evenodd" d="M4.4718 27.2034L4.17206 26.7171C3.97096 26.9382 3.94213 27.3352 4.10767 27.6038C4.27317 27.8724 4.57029 27.9109 4.77139 27.69C4.77139 27.69 4.77139 27.69 4.77139 27.69L4.77237 27.6889L4.7775 27.6833L4.80033 27.6588C4.821 27.6368 4.8524 27.6038 4.89357 27.5615C4.97595 27.4769 5.09717 27.3557 5.24956 27.2124C5.55516 26.925 5.98198 26.5528 6.46929 26.2098C6.95851 25.8654 7.49559 25.5598 8.02327 25.393C8.55319 25.2255 9.04171 25.208 9.45594 25.3891C10.0492 25.6484 10.6121 26.0518 11.2103 26.4863C11.2274 26.4988 11.2445 26.5112 11.2617 26.5237C11.8312 26.9376 12.4378 27.3784 13.0793 27.6663C13.7513 27.968 14.4784 28.1109 15.2823 27.9001C16.0826 27.6902 16.9199 27.1398 17.8284 26.1402C18.0294 25.919 18.0581 25.5219 17.8925 25.2534C17.7269 24.9849 17.4297 24.9465 17.2286 25.1677C16.408 26.0708 15.7102 26.5039 15.1005 26.6638C14.4944 26.8228 13.9366 26.722 13.3797 26.472C12.8173 26.2196 12.2737 25.8247 11.6792 25.3928L11.6609 25.3795C11.0731 24.9525 10.4371 24.4923 9.74934 24.1916C9.11316 23.9135 8.43511 23.9681 7.80605 24.1669C7.17474 24.3665 6.56042 24.7215 6.02953 25.0952C5.49673 25.4702 5.03475 25.8735 4.70657 26.1821C4.54207 26.3368 4.41015 26.4687 4.31862 26.5627C4.27284 26.6097 4.23709 26.6473 4.21235 26.6737L4.1836 26.7045L4.17564 26.7131L4.17329 26.7157L4.17206 26.7171C4.17195 26.7172 4.17206 26.7171 4.4718 27.2034Z" fill="#33BBFF"/>
</svg>
