<svg width="20" height="25" viewBox="0 0 20 25" xmlns="http://www.w3.org/2000/svg"><path d="M16.7484 8.36695C16.5289 6.72869 15.7219 5.22154 14.476 4.12308C13.2186 3.01459 11.6022 2.40413 9.92429 2.40413C8.24668 2.40413 6.63043 3.01439 5.37324 4.12255C4.12742 5.22063 3.32028 6.72743 3.10044 8.36531C3.07389 8.563 3.21267 8.74484 3.41041 8.77139C3.60776 8.79827 3.78994 8.65915 3.81648 8.46141C4.22472 5.42005 6.85047 3.12663 9.92429 3.12663C12.9988 3.12663 15.6247 5.42073 16.0323 8.4629C16.0566 8.64436 16.2117 8.7762 16.3899 8.7762C16.4059 8.7762 16.422 8.77514 16.4383 8.77297C16.6361 8.74648 16.7749 8.56469 16.7484 8.36695Z M16.4431 9.74068C16.2448 9.71621 16.0647 9.85682 16.0402 10.0548C15.6593 13.132 13.0301 15.4525 9.92431 15.4525C6.81629 15.4525 4.18679 13.1301 3.80788 10.0504C3.78351 9.85243 3.60359 9.71159 3.40523 9.73601C3.2072 9.76038 3.06645 9.94063 3.09082 10.1387C3.51424 13.5799 6.45198 16.175 9.92436 16.175C13.3941 16.175 16.3316 13.582 16.7572 10.1436C16.7817 9.94555 16.6411 9.7652 16.4431 9.74068Z M12.0144 11.5679H11.2047V5.37133C11.2047 5.11463 10.9958 4.90582 10.7391 4.90582H9.52102C9.41172 4.90582 9.30541 4.9445 9.22179 5.01473L7.00867 6.87197C6.81555 7.03406 6.78588 7.31658 6.94113 7.51519L7.66696 8.4441C7.74393 8.54256 7.85935 8.60677 7.98358 8.62025C8.10795 8.63374 8.23431 8.59574 8.3306 8.51601L8.83489 8.09848V11.5678H7.81258C7.55588 11.5678 7.34706 11.7767 7.34706 12.0334V13.1381C7.34706 13.3948 7.55588 13.6036 7.81258 13.6036H12.0144C12.2711 13.6036 12.4799 13.3948 12.4799 13.1381V12.0334C12.4799 11.7767 12.2711 11.5679 12.0144 11.5679ZM11.7575 12.8812H8.06961V12.2904H9.09192C9.34862 12.2904 9.55744 12.0816 9.55744 11.8249V7.55213C9.55739 7.36986 9.45498 7.20844 9.29005 7.13089C9.12506 7.05328 8.93547 7.07727 8.795 7.19356L8.07347 7.79096L7.6632 7.26595L9.61457 5.62837H10.4822V11.8249C10.4822 12.0816 10.691 12.2904 10.9477 12.2904H11.7575V12.8812Z M19.7209 20.6698L16.4661 15.5785C16.8325 15.5026 17.1628 15.2957 17.3903 14.9944C17.6526 14.6471 17.7572 14.2025 17.6773 13.7747C17.6097 13.4126 17.7928 13.0449 18.1226 12.8806C18.5121 12.6865 18.8038 12.3351 18.9229 11.9165C19.042 11.4979 18.979 11.0456 18.75 10.6755C18.5561 10.3622 18.594 9.95327 18.8421 9.68097C19.1352 9.35929 19.2804 8.92624 19.2402 8.4929C19.2 8.05952 18.9779 7.66052 18.6306 7.39814C18.3366 7.17608 18.2242 6.78104 18.3572 6.43744C18.5144 6.03156 18.4932 5.57539 18.2992 5.18574C18.1053 4.79614 17.7539 4.50438 17.3353 4.38516C16.981 4.28424 16.7334 3.95649 16.7334 3.58809C16.7333 3.15287 16.5487 2.73509 16.2271 2.44188C15.9055 2.14867 15.4724 2.00354 15.0391 2.04356C14.6721 2.07757 14.323 1.86124 14.1899 1.51774C14.0325 1.11191 13.7096 0.789025 13.3037 0.631798C12.8979 0.474619 12.4417 0.495621 12.0521 0.689554C11.7223 0.853669 11.3184 0.778235 11.0702 0.506026C10.777 0.184443 10.3592 0 9.92397 0C9.48875 0 9.07098 0.184443 8.77767 0.505978C8.52945 0.778138 8.12559 0.853669 7.79582 0.689506C7.40617 0.495573 6.95 0.474571 6.54417 0.63175C6.13834 0.788977 5.81536 1.11186 5.65803 1.51769C5.52489 1.86119 5.17523 2.07743 4.80885 2.04352C4.37536 2.00344 3.94246 2.14857 3.62083 2.44183C3.2992 2.73504 3.11466 3.15282 3.11456 3.58804C3.11451 3.95644 2.86697 4.28424 2.51263 4.38511C2.09403 4.50428 1.74268 4.7961 1.5487 5.18569C1.35472 5.57529 1.33357 6.03151 1.4907 6.43739C1.6237 6.78094 1.51132 7.17603 1.21739 7.39809C0.870128 7.66048 0.64792 8.05947 0.607746 8.49286C0.56762 8.92619 0.712708 9.35924 1.00582 9.68092C1.25395 9.95322 1.29186 10.3622 1.09797 10.6755C0.868924 11.0456 0.805917 11.4979 0.924993 11.9165C1.04412 12.3351 1.33584 12.6865 1.72539 12.8806C2.05516 13.0449 2.23825 13.4126 2.17062 13.7747C2.09071 14.2025 2.19533 14.6471 2.45762 14.9944C2.68513 15.2956 3.01548 15.5026 3.38186 15.5785L0.127009 20.6698C0.00721028 20.8572 0.00441642 21.0918 0.119687 21.282C0.234958 21.4722 0.444642 21.5782 0.665791 21.5588L3.84251 21.2792L4.92214 24.2799C4.99748 24.4892 5.18154 24.6346 5.40259 24.6594C5.4247 24.6618 5.44671 24.6631 5.46858 24.6631C5.66507 24.6631 5.84734 24.5644 5.95515 24.3958L9.92397 18.1877L13.8927 24.3957C14.0005 24.5643 14.1828 24.6631 14.3793 24.6631C14.4012 24.6631 14.4232 24.6618 14.4454 24.6593C14.6664 24.6345 14.8505 24.4891 14.9258 24.2798L16.0055 21.2791L19.1821 21.5586C19.4038 21.578 19.613 21.4721 19.7283 21.2819C19.8435 21.0917 19.8407 20.8571 19.7209 20.6698ZM0.892623 20.8135L4.06597 15.8497C4.17888 15.9645 4.25942 16.1117 4.29039 16.2771C4.34872 16.5889 4.502 16.8732 4.72392 17.0934L2.46403 20.6752L0.892623 20.8135ZM4.62219 21.3121L4.48495 20.9307C4.39598 20.6834 4.15104 20.5266 3.88913 20.5498L3.36851 20.5956L5.34161 17.4684C5.63048 17.5608 5.94339 17.5682 6.23964 17.484C6.48964 17.4129 6.75361 17.4663 6.95569 17.6136L4.62219 21.3121ZM5.50336 23.7612L4.93245 22.1744L7.45241 18.1804C7.66258 18.3693 7.92241 18.5001 8.20478 18.5529C8.41784 18.5927 8.63508 18.5867 8.84236 18.5383L5.50336 23.7612ZM10.1491 17.3948C10.1259 17.3897 10.1023 17.387 10.0786 17.3864C10.0272 17.3813 9.97566 17.3779 9.92397 17.3779C9.87233 17.3779 9.82084 17.3813 9.76939 17.3864C9.74555 17.3869 9.7219 17.3897 9.69868 17.3948C9.44646 17.4314 9.20152 17.5292 8.98923 17.6895C8.80093 17.8316 8.56943 17.8859 8.33749 17.8427C8.10555 17.7993 7.9094 17.665 7.78513 17.4643C7.75882 17.4219 7.73016 17.3815 7.7003 17.3424C7.69572 17.3364 7.6911 17.3305 7.68609 17.3248C7.30174 16.8359 6.64971 16.6162 6.04195 16.789C5.81502 16.8536 5.57952 16.8207 5.37889 16.6965C5.17826 16.5723 5.04387 16.3761 5.00047 16.1442C4.90793 15.6497 4.57999 15.2413 4.14304 15.0313C4.12069 15.0182 4.09757 15.0078 4.07387 15C3.93119 14.9398 3.77849 14.8996 3.61895 14.8848C3.38402 14.863 3.17632 14.7472 3.03412 14.559C2.89192 14.3707 2.83744 14.1392 2.88079 13.9072C3.00733 13.2294 2.6647 12.5413 2.0475 12.2338C1.83632 12.1286 1.68444 11.9457 1.61985 11.7188C1.5553 11.4918 1.5881 11.2563 1.71228 11.0556C2.0752 10.4694 2.00424 9.7039 1.53979 9.19421C1.38083 9.01983 1.30534 8.79435 1.32707 8.55943C1.34884 8.32445 1.4645 8.11674 1.65279 7.9745C2.20294 7.55884 2.41335 6.81948 2.16436 6.17646C2.07915 5.95641 2.09018 5.71894 2.19538 5.50771C2.30054 5.29648 2.48344 5.14456 2.71041 5.07996C3.37357 4.89109 3.83682 4.27764 3.83697 3.58814C3.83701 3.35215 3.93307 3.13471 4.10744 2.9757C4.28182 2.81674 4.50725 2.74107 4.74223 2.76289C5.42908 2.82652 6.08236 2.4217 6.3316 1.77877C6.4169 1.55878 6.58507 1.39062 6.80511 1.30541C7.0251 1.22019 7.26267 1.23113 7.47385 1.33628C8.0912 1.64346 8.84679 1.50223 9.31144 0.992784C9.47045 0.818457 9.68794 0.722454 9.92392 0.722454C10.1599 0.722454 10.3774 0.818457 10.5364 0.992784C11.001 1.50223 11.7567 1.64346 12.374 1.33628C12.5852 1.23118 12.8227 1.22019 13.0427 1.30541C13.2628 1.39062 13.4309 1.55878 13.5162 1.77877C13.7654 2.42165 14.4186 2.82642 15.1056 2.76289C15.3404 2.74107 15.5659 2.81674 15.7404 2.9757C15.9147 3.13471 16.0108 3.35215 16.0108 3.58814C16.0109 4.27764 16.4742 4.89109 17.1374 5.07996C17.3643 5.14456 17.5472 5.29648 17.6524 5.50771C17.7576 5.71894 17.7686 5.95641 17.6833 6.17646C17.4344 6.81948 17.6448 7.55884 18.1949 7.9745C18.3832 8.11674 18.4989 8.32445 18.5206 8.55943C18.5424 8.7944 18.4669 9.01983 18.3079 9.19421C17.8435 9.7039 17.7726 10.4693 18.1354 11.0556C18.2596 11.2563 18.2924 11.4917 18.2278 11.7187C18.1633 11.9457 18.0114 12.1286 17.8002 12.2338C17.183 12.5413 16.8404 13.2294 16.9669 13.9072C17.0102 14.1392 16.9558 14.3706 16.8136 14.5589C16.6714 14.7472 16.4637 14.8629 16.2287 14.8847C16.069 14.8996 15.9162 14.9399 15.7734 15.0001C15.7499 15.0079 15.7269 15.0183 15.7048 15.0312C15.2678 15.2411 14.9397 15.6496 14.8472 16.1441C14.8038 16.3761 14.6694 16.5722 14.4688 16.6964C14.2681 16.8207 14.0326 16.8535 13.8057 16.789C13.1978 16.6161 12.5457 16.8359 12.1614 17.325C12.1566 17.3305 12.1521 17.3362 12.1477 17.342C12.1177 17.3812 12.089 17.4217 12.0626 17.4643C11.9383 17.6649 11.7421 17.7993 11.5102 17.8426C11.2784 17.8859 11.0468 17.8316 10.8585 17.6894C10.6463 17.5292 10.4014 17.4314 10.1491 17.3948ZM14.3446 23.7612L11.0052 18.5376C11.121 18.5647 11.2397 18.5791 11.3592 18.5791C11.4538 18.5791 11.5489 18.5705 11.6432 18.5529C11.9255 18.5001 12.1853 18.3693 12.3955 18.1804L14.9155 22.1745L14.3446 23.7612ZM15.9588 20.5498C15.6967 20.5267 15.452 20.6834 15.363 20.9307L15.2257 21.3123L12.8922 17.6138C13.0943 17.4664 13.3583 17.4129 13.6083 17.4841C13.9045 17.5683 14.2174 17.5609 14.5063 17.4685L16.4793 20.5956L15.9588 20.5498ZM17.3838 20.6752L15.124 17.0935C15.3459 16.8733 15.4992 16.5889 15.5576 16.2771C15.5886 16.1117 15.6691 15.9645 15.782 15.8498L18.9553 20.8135L17.3838 20.6752Z"/></svg>