<svg width="24" height="24" viewBox="0 0 24 24" xmlns="http://www.w3.org/2000/svg"><path d="M17.625 4.26562H6.375C5.21191 4.26562 4.26562 5.21191 4.26562 6.375V17.625C4.26562 18.7881 5.21191 19.7344 6.375 19.7344H17.625C18.7881 19.7344 19.7344 18.7881 19.7344 17.625V6.375C19.7344 5.21191 18.7881 4.26562 17.625 4.26562ZM12 16.9219C9.28638 16.9219 7.07812 14.7136 7.07812 12C7.07812 9.28638 9.28638 7.07812 12 7.07812C14.7136 7.07812 16.9219 9.28638 16.9219 12C16.9219 14.7136 14.7136 16.9219 12 16.9219ZM16.9219 8.48438C16.1466 8.48438 15.5156 7.85339 15.5156 7.07812C15.5156 6.30286 16.1466 5.67188 16.9219 5.67188C17.6971 5.67188 18.3281 6.30286 18.3281 7.07812C18.3281 7.85339 17.6971 8.48438 16.9219 8.48438Z M12 8.48438C10.0616 8.48438 8.48438 10.0616 8.48438 12C8.48438 13.9384 10.0616 15.5156 12 15.5156C13.9384 15.5156 15.5156 13.9384 15.5156 12C15.5156 10.0616 13.9384 8.48438 12 8.48438Z M22.5 0H1.57846C0.500019 0 1.91629e-05 0.5 1.91629e-05 1.50007L0 22.5C-1.91221e-09 23.5625 0.437519 24 1.50002 24H22.5C23.5625 24 24 23.5 24 22.5V1.49997C24 0.5 23.5 0 22.5 0ZM21.1406 17.625C21.1406 19.5634 19.5634 21.1406 17.625 21.1406H6.37502C4.43666 21.1406 2.85939 19.5634 2.85939 17.625V6.375C2.85939 4.43665 4.43666 2.85937 6.37502 2.85937H17.625C19.5634 2.85937 21.1406 4.43665 21.1406 6.375V17.625Z"/></svg>