<svg width="24" height="24" viewBox="0 0 24 24" xmlns="http://www.w3.org/2000/svg"><path d="M22.5 2.71475e-08H1.5C0.5 0 2.71484e-08 0.5 2.71484e-08 1.5V22.5C2.71484e-08 23.5 0.5 24 1.5 24H12.8203V14.7188H9.70312V11.0859H12.8203V8.41245C12.8203 5.31211 14.713 3.62461 17.4787 3.62461C18.8033 3.62461 19.9417 3.72334 20.2734 3.76743V7.00781H18.3664C16.8617 7.00781 16.5703 7.7228 16.5703 8.77222V11.0859H20.168L19.6992 14.7188H16.5703V24H22.5C23.5 24 24 23.5 24 22.5V1.5C24 0.5 23.5 2.71475e-08 22.5 2.71475e-08Z"/></svg>