<svg width="24" height="24" viewBox="0 0 24 24" xmlns="http://www.w3.org/2000/svg"><path d="M22.4804 14.0575H22.1213V10.8224C22.1213 10.3103 21.8663 9.85682 21.477 9.58128V9.1408C21.477 8.50185 20.9572 7.98205 20.3183 7.98205H20.0501L21.0762 6.47643C21.4201 5.97177 21.2893 5.28135 20.7847 4.93738L13.8223 0.192691C13.5778 0.0260506 13.2832 -0.0354494 12.9923 0.0197224C12.7017 0.0748006 12.4498 0.239754 12.2832 0.484254L6.2738 9.30252H4.60153L5.00498 5.2183C5.00953 5.17227 5.03944 5.13238 5.08116 5.11668C5.60095 4.92069 6.05142 4.55469 6.34955 4.08613C6.37303 4.04924 6.41733 4.02814 6.46317 4.03278L9.08606 4.29191C9.27412 4.31014 9.44142 4.17318 9.45998 3.98521C9.47855 3.79724 9.34125 3.62985 9.15328 3.61128L6.53039 3.35216C6.22594 3.32235 5.93559 3.46264 5.77247 3.71896C5.55328 4.06349 5.22206 4.33255 4.83989 4.47664C4.55222 4.58511 4.35469 4.84349 4.32431 5.15103L3.91425 9.30247H3.47817L4.11623 2.84291C4.1392 2.61041 4.34672 2.4396 4.5795 2.46289L9.87984 2.98649C10.0678 3.00463 10.2352 2.86775 10.2538 2.67979C10.2723 2.49182 10.135 2.32443 9.94706 2.30586L4.64672 1.78227C4.03903 1.72232 3.49561 2.16786 3.43556 2.77564L2.92125 7.98205H2.04539C1.40648 7.98205 0.886641 8.50185 0.886641 9.1408V9.44127C0.363938 9.68193 0 10.2103 0 10.8224V22.48C0 23.3181 0.681844 24 1.52002 24H20.6013C21.4394 24 22.1213 23.3181 22.1213 22.48V19.245H22.4804C22.9043 19.245 23.2492 18.9001 23.2492 18.4762V14.8263C23.2492 14.4024 22.9043 14.0575 22.4804 14.0575ZM20.3183 8.66605C20.5801 8.666 20.7931 8.879 20.7931 9.14085V9.31508C20.7302 9.30711 20.6663 9.30257 20.6013 9.30257H19.1503L19.584 8.66605H20.3183ZM12.8484 0.869379C12.9121 0.775863 13.0085 0.712769 13.1197 0.691676C13.1462 0.68666 13.1729 0.684129 13.1994 0.684129C13.2836 0.684129 13.3659 0.709347 13.4371 0.757816L20.3995 5.5025C20.5925 5.63408 20.6426 5.89818 20.511 6.09121L18.3226 9.30247H17.7975L18.8704 7.72803C19.0444 7.47271 19.0587 7.14777 18.9077 6.87997C18.707 6.52419 18.6256 6.10527 18.6786 5.70032C18.7179 5.39905 18.5854 5.10496 18.3326 4.93274L14.7233 2.47311C14.4705 2.30085 14.1483 2.28505 13.8824 2.43191C13.5249 2.62925 13.1053 2.70674 12.7007 2.65011C12.4007 2.60802 12.0965 2.74349 11.925 2.99497L7.62666 9.30247H7.10147L12.8484 0.869379ZM12.999 6.67677C11.5097 6.67677 10.2872 7.838 10.1876 9.30247H8.45423L12.4901 3.38014C12.4902 3.38014 12.4902 3.38014 12.4902 3.38014C12.5131 3.34644 12.5511 3.32638 12.5902 3.32638C12.5954 3.32638 12.6006 3.32675 12.6058 3.32746C13.156 3.40443 13.7267 3.29914 14.2129 3.03069C14.2511 3.0095 14.3003 3.01255 14.3381 3.03833L17.9475 5.498C17.9852 5.52378 18.006 5.56841 18.0004 5.61172C17.9283 6.16246 18.039 6.73218 18.312 7.21602C18.3339 7.25488 18.3312 7.30466 18.3053 7.34286L16.9699 9.30247H15.8105C15.7108 7.838 14.4884 6.67677 12.999 6.67677ZM15.1247 9.30252H10.8734C10.9713 8.21553 11.887 7.36077 12.999 7.36077C14.1111 7.36072 15.0268 8.21553 15.1247 9.30252ZM1.57059 9.1408C1.57059 8.87896 1.78355 8.66596 2.04539 8.66596H2.8537L2.79084 9.30247H1.57059V9.1408ZM0.683953 10.8224C0.683953 10.3615 1.059 9.98643 1.52002 9.98643H20.6013C21.0623 9.98643 21.4373 10.3615 21.4373 10.8224V11.7714H0.683953V10.8224ZM21.4373 22.48C21.4373 22.941 21.0623 23.316 20.6013 23.316H1.52002C1.059 23.316 0.683953 22.941 0.683953 22.48V21.5311H2.52811C2.71702 21.5311 2.87006 21.378 2.87006 21.1891C2.87006 21.0003 2.71697 20.8472 2.52811 20.8472H0.683953V12.4553H21.4373V14.0575H18.1858H18.1857C17.1612 14.0575 16.2738 14.6547 15.8526 15.5191C15.8512 15.522 15.8496 15.5248 15.8482 15.5278C15.8446 15.5351 15.8415 15.5428 15.838 15.5502C15.7879 15.6567 15.7443 15.767 15.7088 15.8808C15.7087 15.8811 15.7086 15.8814 15.7085 15.8818C15.6328 16.125 15.592 16.3834 15.592 16.6513C15.592 18.0815 16.7555 19.245 18.1857 19.245H18.1857H21.4373V20.8472H4.71783C4.52892 20.8472 4.37587 21.0003 4.37587 21.1891C4.37587 21.378 4.52897 21.5311 4.71783 21.5311H21.4373V22.48ZM22.5653 18.4762C22.5653 18.523 22.5272 18.561 22.4804 18.561H18.1858C17.4618 18.561 16.8306 18.1561 16.5068 17.5608C16.4921 17.5338 16.4781 17.5063 16.4646 17.4785C16.4377 17.4229 16.4135 17.3657 16.3921 17.3072C16.317 17.1026 16.276 16.8816 16.276 16.6513C16.276 16.4209 16.317 16.1999 16.3921 15.9953C16.4136 15.9368 16.4378 15.8797 16.4646 15.824C16.4781 15.7962 16.4921 15.7687 16.5068 15.7417C16.8306 15.1464 17.4618 14.7415 18.1858 14.7415H22.4804C22.5272 14.7415 22.5653 14.7795 22.5653 14.8263V18.4762Z M18.2664 15.2637C17.5013 15.2637 16.8789 15.8861 16.8789 16.6512C16.8789 17.4162 17.5013 18.0386 18.2664 18.0386C19.0315 18.0386 19.6539 17.4162 19.6539 16.6512C19.6539 15.8861 19.0315 15.2637 18.2664 15.2637ZM18.2664 17.3547C17.8785 17.3547 17.5629 17.0391 17.5629 16.6512C17.5629 16.2633 17.8785 15.9476 18.2664 15.9476C18.6543 15.9476 18.97 16.2632 18.97 16.6512C18.97 17.0391 18.6543 17.3547 18.2664 17.3547Z"/></svg>