<svg width="25" height="21" viewBox="0 0 25 21" xmlns="http://www.w3.org/2000/svg"><path fill-rule="evenodd" clip-rule="evenodd" d="M12.4998 8.40131C11.0859 8.40131 9.93969 9.5475 9.93969 10.9613C9.93969 12.3752 11.0858 13.5213 12.4998 13.5213C13.9135 13.5213 15.0596 12.3752 15.0596 10.9613C15.0596 9.54747 13.9134 8.40131 12.4998 8.40131ZM9.2022 10.9613C9.2022 9.14017 10.6786 7.66382 12.4998 7.66382C14.3208 7.66382 15.7971 9.1402 15.7971 10.9613C15.7971 12.7825 14.3208 14.2588 12.4998 14.2588C10.6786 14.2588 9.2022 12.7825 9.2022 10.9613Z" fill="#33BBFF"/><path fill-rule="evenodd" clip-rule="evenodd" d="M0.806152 11.4993H9.571V10.4839H0.806152V11.4993Z" fill="#33BBFF"/><path fill-rule="evenodd" clip-rule="evenodd" d="M15.6344 11.4993H24.1933V10.4839H15.6344V11.4993Z" fill="#33BBFF"/><path fill-rule="evenodd" clip-rule="evenodd" d="M24.1935 18.9515C24.1935 19.6186 23.6507 20.1613 22.9838 20.1613H2.01602C1.3491 20.1613 0.806353 19.6186 0.806353 18.9515V6.85485C0.806353 6.18793 1.3491 5.64518 2.01602 5.64518H22.9838C23.6507 5.64518 24.1935 6.18793 24.1935 6.85485V18.9515ZM5.64541 4.83872H7.25839V4.03224H5.64541V4.83872ZM8.06439 0.806589H16.9355C18.0472 0.806589 18.9517 1.71098 18.9517 2.82263V3.22581H18.1452V2.82263C18.1452 2.15571 17.6024 1.61296 16.9355 1.61296H8.06439C7.39747 1.61296 6.85472 2.15571 6.85472 2.82263V3.22581H6.04835V2.82263C6.04835 1.71098 6.95286 0.806589 8.06439 0.806589ZM7.66153 3.33789V2.82248C7.66153 2.59993 7.84265 2.41929 8.06472 2.41929H16.9358C17.1579 2.41929 17.339 2.59993 17.339 2.82248V3.33789C17.099 3.47782 16.9358 3.73498 16.9358 4.03215V4.83863H8.06472V4.03215C8.06472 3.73498 7.90151 3.47782 7.66153 3.33789ZM17.7421 4.83872H19.3551V4.03224H17.7421V4.83872ZM22.984 4.83868H20.1614V4.03219C20.1614 3.73503 19.998 3.47786 19.7581 3.33793V2.82252C19.7581 1.2665 18.492 0 16.9356 0H8.0645C6.50812 0 5.2421 1.2665 5.2421 2.82252V3.33793C5.00213 3.47786 4.8388 3.73503 4.8388 4.03219V4.83868H2.01616C0.904506 4.83868 0 5.74307 0 6.85483V18.9515C0 20.0633 0.904506 20.9678 2.01616 20.9678H22.984C24.0957 20.9678 25.0001 20.0633 25.0001 18.9515V6.85483C25.0001 5.74307 24.0957 4.83868 22.984 4.83868Z M24.5442 15.332C24.6218 15.5257 24.5277 15.7456 24.334 15.8232L23.0396 16.3417L23.0246 16.3463C20.413 17.1487 17.6474 17.3885 14.9271 17.0483L14.9183 17.0472L9.9396 16.3054C7.57429 16.0102 5.17018 16.1976 2.88703 16.8548L0.91088 17.4237C0.71035 17.4814 0.500989 17.3657 0.44326 17.1651C0.385532 16.9646 0.501295 16.7552 0.701826 16.6975L2.67799 16.1286C5.06114 15.4426 7.56985 15.2475 10.0378 15.5561L10.0466 15.5572L15.0253 16.299C17.6333 16.6246 20.2844 16.3954 22.7878 15.6285L24.053 15.1217C24.2467 15.0441 24.4667 15.1383 24.5442 15.332Z M24.5442 17.2267C24.6218 17.4204 24.5277 17.6403 24.334 17.718L23.0396 18.2366L23.0246 18.2412C20.413 19.0436 17.6474 19.2834 14.9271 18.9432L14.9183 18.9421L9.93961 18.2002C7.57428 17.9051 5.17016 18.0923 2.88703 18.7496L0.91088 19.3185C0.71035 19.3762 0.500989 19.2604 0.44326 19.0599C0.385532 18.8594 0.501295 18.65 0.701826 18.5923L2.67799 18.0234C5.06115 17.3374 7.56986 17.1424 10.0377 17.4509L10.0466 17.452L15.0253 18.1939C17.6333 18.5194 20.2844 18.2902 22.7877 17.5234L24.053 17.0165C24.2467 16.9389 24.4666 17.033 24.5442 17.2267Z M11.1133 6.3131H13.8864V10.4832H11.1133V6.3131ZM11.869 7.06878V9.72756H13.1307V7.06878H11.869Z"/></svg>